<?xml version="1.0" encoding="utf-8"?>
<!-- Generator: Adobe Illustrator 22.1.0, SVG Export Plug-In . SVG Version: 6.00 Build 0)  -->
<svg version="1.1" id="Layer_1" xmlns="http://www.w3.org/2000/svg" xmlns:xlink="http://www.w3.org/1999/xlink" x="0px" y="0px"
	 viewBox="0 0 470 685.7" style="enable-background:new 0 0 470 685.7;" xml:space="preserve">
<style type="text/css">
	.st0{fill:#FFFFFF;}
	.st1{clip-path:url(#SVGID_2_);}
</style>
<polyline class="st0" points="430.4,4.3 430.4,681.4 39.6,681.4 39.6,4.3 430.4,4.3 "/>
<g id="Layer_2_1_">
	<g id="Layer_17">
		<g>
			<defs>
				<rect id="SVGID_1_" x="35" width="400" height="685.7"/>
			</defs>
			<clipPath id="SVGID_2_">
				<use xlink:href="#SVGID_1_"  style="overflow:visible;"/>
			</clipPath>
			<g class="st1">
				<path d="M435.9,288.2c-4.3,1.2-8.9,1.5-13.1,3.5c-1.7,0.8-2.4,1.6-2.3,3.5c0.2,10.4,0.5,20.8,3.9,30.7c1.1,3,0.4,5.5-2.7,7
					c-0.8,0.5-1.6,1-2.3,1.5c-8.1,5.5-10.6,11.7-7.2,20.9c3.5,9.4,1,18.6,0.3,28c-1,12-5.8,22.9-9.6,34c-1.8,5.2-1.5,10.5-1.8,15.8
					c-0.3,5.6-0.4,11.2-0.5,16.8c0.1,0.5,0,1.1-0.1,1.6c-4,9,0.1,17.7,1.3,26.4c0.2,1.4,0.7,3,0.4,4.3c-0.9,4.1-0.5,7.8,2.2,11.3
					c1,1.3,0.6,3.1,0.2,4.6c-0.7,2.6-0.7,5.3,0,7.9c4.3,18,6.2,36.5,5.6,55.1c-0.4,16.2-0.4,32.5,1.4,48.7c0.6,5,0.2,10.1,0.2,15.2
					c0.1,1-0.3,1.9-1,2.5c-4.4,2.8-1.9,5.8-0.2,8.7c0.7,1.3,1.7,2.4,2.4,3.7c0.5,0.9,1.4,2.1,1.1,2.9c-2.1,6.8,3.1,11.9,3.7,18.1
					c0.6,6.7-1.7,10.9-8.1,12.3c-1.8,0.4-3.6,1-5.2,1.9c-17.8,9.8-36.4,10.7-55.6,4.9c-4-1.2-5.4-7-2.7-10.6c1.3-1.7,2.8-3.2,4.4-5
					c-3-1.5-5.9-0.7-8.6-0.3c-13.5,2.2-27,4.4-40.5,6.7c-12,2.1-22.4-1.1-31.3-9.2c-3.5-3.2-3.5-5.8,0.4-11.4
					c-2.9-1.5-5.7-3.2-8.7-4.4c-6.9-2.8-8.5-8.2-8-14.9c0.3-3.6,0.2-7.2-0.4-10.7c-0.6-3-2.1-5.7-4.3-7.8c-0.4,0.2-0.8,0.3-0.8,0.5
					c-1.4,7.5-6.1,13-10.6,18.8c-3,3.9-6.6,6.5-11.8,6.3c-7.3-0.2-14.6,0.1-21.4-3.8c-1.9-0.9-3.1-2.9-3.1-5.1
					c-0.3-7.1,3.1-12.6,7.6-17.5c3.9-4.3,6.4-8.7,4.8-14.7c-0.7-2,0-4.1,1.5-5.5c2.1-1.7,2.2-2.9-0.1-4.4c-1.6-1.1-2.4-2.9-2.2-4.8
					c0-0.1,0-0.3,0-0.4c3.2-14.6-3.1-28-5.1-42c-2.8-19.5-4-39.2-0.8-58.8c1.2-7.5-1.2-14.2-4-20.8c-5.3-12.5-8.3-25.8-12.4-38.8
					c-2.2-7-5.4-13.6-8.7-20.1c-1-2-3-3.4-5.3-2.8s-1.6,2.8-1.9,4.4c-3.7,23.2-5.1,46.8-11.7,69.5c-2.2,7.6-2.3,15.2-2.3,22.9
					c-0.2,20.4-1.8,40.7-6.6,60.6c-1.9,8.2-2,16.7-0.3,25c0.3,1.4,0.5,2.9,0.4,4.3c-0.5,6.5-2.1,12.8-0.9,19.4
					c0.2,1.8-0.4,3.5-1.5,4.9c-3.3,4.3-2.9,9-1.3,13.7c1.4,3.9,2.5,7.9,2.1,12.1c-0.4,4.9-1.9,7-6.8,8c-10.1,2.3-20.1,5.2-29.9,8.7
					c-9.4,3.3-18.6,2.6-27.7-1.2c-2.3-1.1-4.7-2-7.1-2.6c-2.7-0.5-3.2-2.2-2.5-4.8c1.4-6,5.8-10.8,11.5-12.8
					c8.8-3.3,14.4-9.7,17.6-18.4c2.1-5.8,1.5-11.5,0.2-17.3c-1.3-6-4.1-11.5-5.9-17.4c-2.7-8.9-2.5-17.7-0.8-26.5
					c1.8-8.9,1.2-17.6,1.1-26.5c-0.1-12.9-2-25.6-2.3-38.5c-0.6-22.9-1.8-45.7-1.9-68.6c0-3.5-0.1-6.9-0.2-10.4
					c0.1-2.4-0.5-4.7-1.9-6.6c-0.4,3.6-0.8,7.1-1.4,10.7c-2.7,18.4-1,37-2,55.4c-0.4,7.5-0.7,15.1-1,22.6c-0.1,1.3,0.3,2.6,1,3.7
					c0.9,1.6,2.1,3.3,1.8,5.2c-1.1,6.9,1.2,13.7,0.7,20.6c-0.8,10.5,0.6,21,1,31.5c0.4,10.7,1.9,21.4,4.6,31.8
					c1.7,6.8,0.3,13.5-2.5,20.2c-2,4.7-5.3,9.6-3.7,15.4c0.6,2.1-0.6,3.8-2.5,5c-6,3.5-11.9,7.1-18.3,9.8
					c-10.4,4.2-19.9,1.7-28.8-4.2c-1.6-1.1-1.8-2.4-0.9-4.1c2.4-5,5.3-9.4,10.7-11.9c3.9-1.8,6.5-4.7,5.8-9.8c-0.3-3.5,0.5-7,2.3-10
					c2.1-4,1.7-7.3-1.1-10.6c-1-1.1-1.5-2.5-2.4-3.7c-9-11.6-8.5-24.6-5.1-37.7c2.7-9.7,1.9-20-2.1-29.2c-1.1-2.6-1.5-5.4-1.3-8.2
					c0.3-2.8,0-5.6-0.8-8.3c-0.5-1.8-1.1-3.7-0.4-5.5c3.5-8.9,2.5-18.1,1.2-27.2c-1.4-10.3-1.4-20.7-3.1-31
					c-2.6-15.3-4.6-30.8-8.4-45.9c-0.4-1-0.5-2.1-0.4-3.1c0.6-3-0.6-4.8-3.4-5.7v-3.2c3.2,1.6,6.7,2.7,10.3,3.2
					c14.2,1.9,24.7-1.4,29.8-16.6c3.1-9.3,5-19.1,5.6-28.9c0.9-15,3.6-30-0.9-45c-3.7-12.4-2.1-25.4-2-38.2c0-3.1-0.3-4.1-3.9-3
					c-9.5,3-19,6.3-29.3,4.4c-1.8-0.3-2.6,0.3-2.9,2.1c-1.1,6.3-2.3,12.6-2.4,19c-0.3,10-0.6,19.9-4.2,29.4v-12.8
					c0.9-1.1,0.7-2.5,0.8-3.8c0.7-9.9,0.5-19.9,2.8-29.6c1-4,0.4-6.6-3.6-8.2v-8.8c0.1,0.1,0.3,0.1,0.4,0.2
					c3.9,10.1,12.5,9.6,20.7,8.5c6.5-0.8,12.9-3.1,19.4-4.5c2-0.4,2.5-1.4,2.8-3.2c0.9-5.8,0.9-11.7,2.9-17.3
					c0.8-2.3-1.9-2.2-2.2-3.7c1.2-1.1,2.5-0.6,3.8-0.6c1.9-0.1,4,0.6,5.1-1.9c0.5-1,1.9-0.6,2.9-0.7c6.4-0.6,12.9,1.3,17.9,5.4
					c1.1,1,2.3,1.8,3.6,2.6c1.2,0.6,2.4,2.3,3.9,1.1c1.6-1.1,2.3-3,2-4.8c-1.1-5.5-1.7-11.1-3-16.5c-2.4-9.7-4.4-19.5-6.2-29.3
					c-0.7-3.4-0.8-7-0.1-10.5c1-0.2,1.3,0.4,1.4,0.9c1.2,13.6,5.8,26.5,8.7,39.7c1.2,5.5,2,11,2.8,16.5c0.4,3.1,0.5,5.8-1.6,8.9
					c-2.8,4-2.1,9.2-0.5,13.9c0.9,2.5,1,5.3,0.3,7.8c-5.5,21.5-5.2,43.2-2.2,65c0.7,5.4,0.8,10.8,0.2,16.2c-0.6,6,2.8,11.7,6.4,16.8
					c0.9,1.3,1.8,0.9,2.5-0.3c1.2-1.9,2.3-3.9,3.4-5.9c10.1-20.2,16.4-41.5,20.5-63.6c1.1-6,2.6-12,4-17.9c0.3-1.1,0.3-2.4,2.1-2.9
					c0.9,1.6,0.5,3.3,0.2,4.9c-4.1,20.1-7.5,40.4-15,59.6c-4,10.1-7.8,20.4-14.6,29.2c-1.2,1.6-1.5,2.9,0,4.8
					c13.5,18.3,31.2,29.2,54.3,26.5c16-1.9,31.1-7.9,41.4-21.6c2.4-3.2,4-6.9,5.8-10.4c1-1.9,2.3-3.5,4-4.7
					c-2.3-1.7-4.1-0.6-5.8,0.2c-3.6,1.8-6.5,4.6-9.4,7.4c-5.3,5.2-11.1,9.9-17.3,14.1c-7.2,5-16.2,6.8-24.7,5
					c-1.4-0.3-2.9-0.3-3.9-1.7c1.2-1.6,3-1.1,4.4-0.8c10.8,2,19.9-1.5,28.2-8.1c4.9-3.9,9.8-7.8,14.6-11.8c2.7-2.3,5.6-4.4,8.6-6.3
					c-0.3-0.4-0.4-0.7-0.5-0.7c-6.9,0.8-11-3-14.1-8.5c-5.5-9.5-7.2-19.9-6.5-30.8c-0.1-1,0.3-1.9,1-2.6c1.5,1.2,1,2.9,1.2,4.4
					c1,9,1.7,18,6,26.3c2.9,5.7,6.4,9.9,13.6,8.3c1.6-0.4,3.2-0.4,4.8,0c4,1.5,5.3-1,6.2-3.9c1.3-3.8,2-7.8,2.1-11.8
					c0.3-7.4,0.8-14.9,0.6-22.3c-0.4-19.6,2.7-39,2.8-58.6c0-4.6,2.3-5.4,5.8-6.7c7.8-2.8,15.8-2.5,23.9-2.4c6.5,0.1,6.4,0,6-6.7
					c-1-16.3-4-32.2-7.2-48.1c-1.9-10.2-5.4-20.1-10.4-29.2c-4.4-7.7-11.1-12.2-19.2-14.5c-6.3-1.7-12.3-4.3-17.9-7.6
					c-0.5-0.2-1.1-0.4-1.7-0.6c-1.5,5.6,2.9,8.5,5,12.5c-3.2-0.2-6.1-2.1-7.5-5c-6-12.2-9.5-25.5-10.3-39.1
					c-0.4-5.6-0.5-11.2,0.7-16.7c0.4-1.7,0.9-3.3-1.5-4.9c-0.2,14.1-0.7,27.7,1.6,41.3c1.5,8.8,4.4,17,10.1,24
					c1.4,1.7,3.6,2.7,4.4,5.3c-2.4,1-3.7-0.6-4.9-1.8c-4.8-4.5-7.6-10.2-9.9-16.2c-1-2.5-1.8-5-2.9-7.4c0.2,8.5,4.3,15.6,9.2,23.6
					c-3.2-1.3-4.7-0.6-6.1,1.3c-2,2.8-4.4,5.4-6.7,7.9c-3.6,4-8.3,6.8-13.6,7.8c-4.9,1-9.5,0.4-13.6-2.9
					c-6.7-5.2-12.2-11.8-16.1-19.4c-3.4-2-3.4-6.3-6.7-9.9c0.5,2.8-2.1,4.4-0.4,6.2c1.8,1.9,3.9,4,7.1,3.6c-1.1,2.3-2.8,2.6-4.9,1.4
					l-4.8-2.8c-0.6,2.1,1.6,3.5,1,5.4c-7.1-3.9-9-28.1-1.4-34.1c0.7,1.3,0.3,2.9-1,3.7c0.8,1.4-0.4,2.5-0.7,3.7
					c-0.6,2.4-1.3,4.9-0.5,7.4c0.8-0.9,1.4-2,1.9-3.1c0.5-1.1,0.6-2.6,1.3-3.3c4-3.7,1.8-4.5-2.1-4.7c3.6-1,4.6-3.5,4.2-6.8
					l-0.1,0.1l0.9-0.9l-0.1,0.1l0.9-0.9l-0.1,0.1c0.6,0.1,1.6,0,1.9,0.3c2.8,4.5,1.9,9.6-2.4,13.3c-2.6,2.3-5.2,12.2-3.7,16.2
					c0.5-3.7,0.6-6.8,2.1-9.6c0.8-1.4,1.2-3.1,3.5-2.4s1.3,2.1,1.2,3.6c-0.5,3.3,0.4,6.6,2.6,9.2c5.1,6,8.6,13.1,14.6,18.4
					c8.7,7.6,17.7,7.5,26-0.8c3.3-3.3,6.1-7,9.3-10.4c0.7-0.8,1-1.5,0.4-2.4c-1.9-2.9-3-6.2-4.6-9.8c-1.4,2.5,0.1,4.8-0.8,6.8
					c-1.5-1.4-1.5-1.4-2.5-9.6c-1.5-0.4-1.4,1.9-3.1,1.6c-0.8-1.4,0.1-2.7,0.8-3.8c1.8-3,2.9-6.3,3.4-9.7c0.3-2.4,1.8-4.7-1.6-6.1
					c-1.1-0.5,0-1.6,0.8-2.1l-0.1-0.1c1.6,2,3,0.6,3.8-0.6c0.7-0.9,0.5-2.2-0.4-2.9c-0.2-0.2-0.5-0.3-0.7-0.3
					c-1.1-0.4-2.6-0.6-2.2-2.2s2.3,0.5,3.1-1.2c-2.6-2-2.3-4.3-0.4-6.7c0.8-1.1,0.4-2.6,0.5-3.9c0.3-5.4-0.3-10.9,1-16.3
					c0.4-1.3-0.5-2.2-0.9-3.3c-1.6-4.4-6.2-7.3-6.1-12.7c0-1.6-6.6-4.4-8.4-3.9c-2.2,0.5-4.4,0.7-6.2-0.9c0.4-1.5,1.4-1.5,2.3-1.5
					c2.7,0.1,4.8-1.2,6.9-2.7s4.1-3,6.8-2.8c1.4,0.1,4.5-0.3,2.3,3c-0.8,1.1,0.5,1.2,1,1.6c3.6,3.1,3.6,3,2.1,7.9
					c-0.2,0.5,0.1,1.1,0.5,1.4c6.9,6,8.2,14,8.3,22.4c0,0.3,0.3,0.7,0.8,1.6c2.7-5.9,4.7-12.1,6.1-18.5
					c3.6-16.9,14.1-27.5,29.7-33.7c4.2-1.7,8.9-2.1,13.3-1.4c1.2,0.2,2.4,0.2,3.1,1.5c-0.4,2-2.3,0.6-3.4,1.6c1.8,0.9,3.9,1.7,2,4.3
					c-1,1.4,1.7,1.8,1.1,4.2s-1.3,2.6-3,2.8c-1.9,0.3-3.9,0.4-5.7,1.5c0.9,1.5,2.7-0.3,3.6,1.3c-1.3,1-2.9,1-4.4,1.3
					c-7.1,1.5-13.4,4.2-17.9,10.3c-1,1.2-1.8,2.7-2.2,4.2c-0.9,3.6,0.2,4.8,3.8,4.7c3.1-0.1,6.1,0.1,9.2,0.1c2.2,0,4.2,1,5.6,2.6
					c1.6,1.8,4.3,1.9,6.1,0.3c0,0,0,0,0.1-0.1c5.6-4.5,11.6-4.5,17.9-2.1c3.9,1.5,4.9,1,4.3-3.2c-1.2-8.5-5.4-14.9-13.4-18.5
					c-1-0.5-2.8-0.4-2.5-2s2.1-1.3,3.4-1s2.8,1,4.1,1.5l7,7.1c-1-3.9-3.3-6.2-7-7c-0.3-1.3-1.5-1.7-2.4-2.5
					c-0.6-0.5-1.7-0.6-1.5-1.6c0.3-1.2,1.5-0.7,2.4-0.9c0.4,0.6,1.1,0.9,1.8,0.7c0.2,1.2,0.8,1.8,2.2,1.4c-0.6-0.9-1.2-1.4-2.2-1.3
					c-0.4-0.8-1.1-0.7-1.9-0.7c-0.4-1.2-3.1-1.5-2-2.8c1.5-1.8,3.5,0.1,5.3,0.5l0.1-0.2l-0.1,0.3c-0.1-3.9-4.1-3.9-6.5-6.3
					c3.4-1,5.4,0.5,7.4,2.1c11,8.9,16.9,20,15,34.4c0,1,0.1,1.9,0.2,2.8c2.5-4.5,5-7.9,5.5-12.5c0.9-8.3,5.6-14.4,12.6-18.9
					c3-1.7,5.8-3.7,8.5-5.9c8.8-8.3,18.7-7.6,29-4c3.5,1.3,6.9,3,10,5.1c-3.8,1.6-6.2-2.4-9.6-2v-0.3l-0.2,0.2h0.3
					c1.2,2,2.6,4,1.9,6.6c-2.9-0.2-5-2.3-7.8-2.8c-0.7,1.4,2.4,2,0.8,3.2c-1.3,1-2.4-0.5-3.5-1.2c-8.5-5.8-17.2-5.4-25.1,1.3
					c-2.4,2-4.8,3.9-7.4,5.7c-3.8,2.5-5.9,6.9-6.8,12.2c1.5-0.7,2.6-1.9,3.3-3.3c3.2-5.2,7.6-9.2,12.1-13.2
					c4.2-3.7,9.4-4.2,14.7-3.6c1.7,0.2,3.3,0.9,4.8,3.5c-7.6-1.6-14.1-0.8-19.4,4.1c-3.1,3-5.5,6.7-7,10.7c1.6,0,1.7-2.1,3.7-1.3
					c-1,3.9-2.9,7.6-5.5,10.7c-0.9,1.1-2.6,1.7-1.8,3.6l-1.1,1.1l-0.9,0.6c-0.5,0-0.7,0.3-0.7,0.7c-1.6,2.1-3.5,5.4-2.2,7
					c2.4,3.2,1.3,6,0.9,9c-0.6,4-2.6,7.5-4.6,11.8c4.2-2.8,3.4-8.1,7.2-10.4c0.1,4.5-1.6,9-4.8,12.2c-1.7,1.4-2.3,3.6-1.5,5.7
					c0.9,3,1.5,6.2,2.2,9.3c0.2,1,0.8,2.4-0.6,2.7c-1.3,0.3-1.7-1.1-2.1-2.1c-1.4-4-2.1-8.2-3.1-12.4c-0.7-3-0.2-6.1,1.4-8.7
					c2.2-4.1,4-8.5,3.5-13.4c-1.9,4.6-5.5,8.6-6.1,13.6c-0.8,6.9-0.6,13.9,0.5,20.7c0.2,1.2,0.1,2.6,1.3,3.2
					c6.8,3.1,12.7,8.1,20.2,9.2c3.6,0.5,7.6,2.3,11.1-1.4c1.5-1.6,3.5-2.4,2.3-4.9c-0.9-2-0.7-4.6-3-5.8c-1.4-0.8-2.8-1.8-3.9,0.5
					c-0.4,0.8-1.4,1.9-2,0.5c-0.9-2-2-1.1-3.1-0.6c-2.3,1-5,1.2-7.4,0.4c-0.9-0.3-2.6-1.4-1.2-2.1c3.9-1.9,2-4.8,2.3-7.4
					c-5.5,1.6-1.1-3.4-3.1-4c-1.2,0.9-1,3.1-2.8,3.2c-4.9-4.4-0.5-7.8,1.1-11.6c0.3-0.7,1.1-1.2,1.4-1.9c1-3,3.2-6.7,1.1-9.3
					c-3.3-4-5.1-8-4.6-13l0.7-0.7l0.9-0.7l1.1-1c5.2-3,10.1-3.5,15.1,0.6c2.6,2.1,5.4,0.8,6.8-2.3c2.2-4.9,6.6-6.7,12.4-4.9
					c2.8,0.8,5.1,2.8,8.6,2.8c-1.6,2.3-1,4.2-0.7,6.3c0.8,5.3-1.9,10.1-6.4,11.6s-9.3-0.6-12.1-5.2c-0.7-1.1-1.4-2.3-2-3.5
					c-0.5-1.1-0.7-2.4-2.4-1.9c-1.5,0.4-1,1.6-0.9,2.6c0.3,2.8-0.3,5.6-1.7,8c-2.1,3.5-5.1,5.1-9.1,3.8c-2-0.6-2.6,0.2-2.1,1.9
					c2.6,10.3,6.9,19.5,15.9,25.9c0.8,0.7,2,0.7,2.7,0c0.9-0.5,2-0.8,3-0.8c1.1-0.1,2.8-0.4,3.1,1s-1.5,1.7-2.6,1.7
					c-2.6,0.1-3.5,0.9-2.5,3.7c2,5.5,1.2,11.1-0.1,16.5c-0.6,3.1-1,6.3-1.1,9.4c-0.3,3.5,1.1,4.5,4.6,4c3.4-0.6,6.7-2.1,9.4-4.3
					c7.7-5.9,15.3-11.9,22.9-18c3.2-2.6,3.1-11.9-0.4-14.2c-2.5-1.6-4.5-3.7-6-6.3c-1.4-2.5-2.4-2.6-4.3-0.6c-2.4,2.6-5,5-8.9,5.5
					c-0.4-1.9,0.9-2.3,1.9-2.8c1.8-1.2,3.5-2.4,5.1-3.8c2.8-2.2,3.4-4.5,1.7-7.9c-2-4.1-2.3-8.7-2.6-13.2
					c-0.5-8.9-1.3-17.8,0.2-26.7c0.5-3.1,0.1-6.3-0.7-10.3c2.9,2.2,2.5,4.6,2.4,6.7c-0.1,8.1,0,16.2,0.3,24.4
					c0.4,8.9,1.6,17.5,5.9,25.4l0.1,0.1l-0.2-0.2c0.5-1.5,0-2.9-0.3-4.3c-2.1-11.3-1.6-22.6-0.1-34c1.6,12.8-0.8,26.1,4.1,39.4
					c2.4-4.8,1.8-9,1.3-13.1c-1.4-10.5-1.1-21-1.3-31.5c0.1-1,0.3-2,0.5-2.9c3,6.1,3.1,12.2,5.8,17.3c1.9-11-2.4-20.4-8.5-30.1
					c2.8,0.7,3.7,2.3,4.6,3.7c4.3,6.8,7,14.1,6.9,22.2c0,7.6-0.4,15.2-0.4,22.8c0,3.6,0.4,7.2,2.5,10.3c1,1.9,2.7,3.4,4.8,4
					c-5.1-9.7-5.4-19.3-4.7-29c0.2-3.5,1-6.7-0.7-10.3c-0.6-1.4,0.2-3.8,0.1-5.9c-0.3-5.1-3.5-8.4-5.8-12.4c-1-1.8-2.5-3.3-3.1-5.5
					c1.6-0.5,1.8,0.7,2.2,1.3c8.6,11.3,14.2,24.3,20.5,36.9c2.3,4.6,2.3,10,0,14.6c-3.4-1.7-2.1-6.1-5.3-7.5l0.2-0.7l-0.1,0.6
					c0.7,1.9,2.2,3.6,1.9,6.2c-3.7-1.4-3-5.4-5.3-7.7c-0.7,6.3,2.6,11.4,4.8,16.5c-1.7,1-2.2-0.5-3.5-0.8c0.6,2.5,1.1,4.7,2.4,6.5
					c-0.9,1.9-2.6,0.1-3.6,1c0.9,3.6,3.4,5.8,5.8,8.3c4.4,4.7,8.9,8.8,14.7,11.7c2.1,1.1,4.3,2,6.6,2.6c8.4,1.9,16,5.1,20.6,12.9
					c0.5,0.8,1.1,1.6,2.2,1.3v6.4c-1.3-0.4-1.7-1.6-2.2-2.7c-4-7.6-10-12.8-18.4-14.6c-4.9-1.1-9.2-3.4-13.4-5.9
					c-1.8-1-3.3-2.6-6-2.8c1.3,9.4,0.7,18.6,2.7,27.6c0.4,1.8,2,3.5,1.1,5.3c-1.5,3.1-3.2-0.4-5.1,0c-4.8,1.1-9.8,0.8-14.6,1.9
					c-5.3,1.2-5.3,1.1-4,6.4c0.2,0.9,0.5,1.8,0.8,2.7c1.6,5.4,3.2,10.7,4.7,16.1c0.6,2.2,0.8,4.7-2,5.2c-5.1,1-6.3,4.7-7.4,9
					c-4.2,16.2-10.9,31.7-15.1,48c-0.1,1.4-1.2,2.4-2.6,2.4c3.6-19.4,13-36.6,17.1-55.8c-9,2.9-15.6,7.1-17.5,16.7
					c-3,15.4-12.2,27.6-21.6,39.6c-1,1.3-1.8,2.9-5,3c4.6-8.8,11.1-15.4,15.8-23.1c4.9-8,6.8-17.1,10.1-26.6
					c-8,4.6-15.2,10.6-21.2,17.6c-2.8,3.2-4.9,6.2-5.5,10.4c-1.2,8.3-3.5,16.4-5.1,24.6c-2.5,12.6-5,25.2-5.7,38.2
					c-0.8,17-0.8,34.1-5,50.8c-0.4,1.4-0.7,2.9,1.5,2.7c1.8-0.2,4.1,1.3,4.9-2.3c1.6-7.8,3.8-15.5,5.9-23.2c0.2-0.7,0.1-2,1.8-2.1
					c-0.6,5.5-2.1,10.7-3.4,15.9c-1.8,7.3-1.8,7.4,5.9,6.8c9-0.7,18.1-1.9,27.1-1.1c7.6,0.7,15.2,0.9,22.7,0.6
					c12.8-0.6,25.4-3.7,36.9-9.2c6.2-2.9,7.4-6,5.6-12.5c-0.3-1.3-0.5-2.6-0.6-3.9c-0.6-7.2-1.8-14.3-1.5-21.5
					c0.1-2.1-0.8-2.5-2.6-1.9c-14.1,4.8-27.8,10.9-40.9,18.1c-2,1.1-2.5,2.4-1.6,4.5c0.7,1.6,1.7,3.4,0.8,5.4
					c-2.2-0.3-2.7-2.2-3.3-3.7c-7.4-20.6-12.8-41.7-18.7-62.7c2.5,4,4.5,8.3,6,12.8c0.8,2.5,1.9,3,4.3,2.2
					c13.5-3.9,27-8.3,40.3-12.8c4.6-1.5,8.4-4.6,12.8-6.4c1.5-0.6,1.4-1.8,1.4-3c0-2.9,0-5.9,0.1-8.8c0-1.1,0.1-2.3,1.2-2.8
					c1.4-0.7,2.2,0.4,3.1,1.2c0.4,0.4,0.7,0.8,1.1,1.1c6.5,6.1,6.5,6.1,1.3,13.2c-0.9,1.2-1.8,2-3.3,1.6c-3.3-0.8-6,0.5-8.6,2.2
					c-3.4,2.1-7,3.8-10.9,5c-12.6,4-25.2,7.9-37.7,11.8c-1.3,0.4-3.5,0-2.7,2.8c0.7,2.3,1.3,3.5,4.3,3.1c11.2-1.4,22.3-3.6,33.5-5.5
					c0.9-0.2,2.1-0.8,2.7,0.7c-0.8,1.5-2.2,1.9-3.6,2.4c-10.6,3.6-19.4,10.5-28.8,16.2c-1.4,0.8-2.2,1.6-1.6,3.5
					c1.3,4.2,2.4,8.4,3.6,12.7c0.6,2.1,1.3,2.4,3.3,1.2c15.2-9.1,32.5-13.9,48.2-22c4.5-2.3,9.8-2.5,14.7-3.5V288.2z M317,137h0.2
					l-0.1,0.1l-1,1.2c-6,1.4-11.4,4-14.2,9.7c-4.7,9.6-8.5,19.7-9.7,30.3c-1.5,11.9-2,23.9-1.4,35.9c0.8,10.2-0.6,20.5-4,30.2
					c-0.9,2.4-1.5,4.8-2.5,7.2c-0.9,2-0.4,2.9,1.8,3.2c3.2,0.3,6.3,1.1,9.3,2.2c0.8,0.3,2,0.7,1.9,1.8c-0.2,1.4-1.6,1.3-2.6,1.1
					c-2.8-0.3-5.5-0.9-8.2-1.8c-3.7-1.5-5.3-0.1-6.2,3.4c-0.4,2.1-1.6,3.9-3.4,5.2c-1.3-1.4-0.6-2.7-0.3-3.9c0.8-3.6,2.5-7,3.8-10.5
					c4.1-11.1,8.1-22.1,7.5-34.4c-1-21.1-0.4-42.1,7.4-62.1c2.6-6.7,5-13.6,12-17.2c0.1-0.1,0-0.4-0.1-1.3
					c-15.8,0.1-31.7,0-47.4,1.3c-0.3,1.5,0.5,2,1,2.5c6.9,8.1,11.1,17.7,13.8,27.7c4.1,15.6,7,31.5,8.8,47.5
					c0.7,5.3,0.9,10.6,0.5,15.9c-0.2,2.4-1.1,4.8-4.2,4.1c-3.3-0.8-3.5,1.1-3.6,3.4c-0.7,15.8-2.3,31.6-0.3,47.4
					c1.9,15-0.9,28.8-9.3,41.5c-2.7,4-5.2,8.4-4.7,13.7c0,1.8-0.6,3.5-1.7,4.8c-1.4,2-2,4.3-2,6.7c0,2.3-0.2,4.5-0.7,6.7
					c-3.1,10.5-1.5,21.1-0.9,31.7c0.1,1.6,0.1,3.3,2.6,2.9c2-0.3,2.5,1.2,2.5,2.8c0.1,2.4,0.1,4.8,0,7.2
					c-0.7,10.1,1.1,20.1,2.4,30.1c1.3,9.6,1.9,19.2,0.5,28.6c-0.8,5.5-0.4,11,1.2,16.3c2.4,8.2,3,16.8,2,25.3
					c-0.1,1.4-0.4,2.8-2.1,2.9c-1.4,0.2-2.7-0.8-2.8-2.2c-1.8-6.9-4.6-13.7-4-21.1c0.2-2.3-0.2-4.5-1.2-6.6
					c-4.5-10.5-6.4-21.8-5.6-33.2c0.7-12.4,1.8-24.7,1.8-37.1c0-4.2,0.6-8.5-0.1-12.7c-1.6-10-0.4-20.2-2.7-30.2
					c-1-4.7-2-7.9-6.6-9.5c-3.6-1.3-6.2-4-8.6-6.9c-0.6-0.7,0-2.3-1.6-2.3s-2,1.2-2.5,2.3c-2.1,4.3-3.5,8.9-6.6,12.8
					c-11.2,14.2-26.9,20.2-44,22.2c-12.7,1.5-25.6-1.8-36-9.2c-6.2-4.3-11.9-9-16.4-15.1c-1.7-2.2-3.1-2.5-5.6-1.3
					c-8,3.8-19.8,1.5-22.7-10.1c-0.8-3.2-1.5-6.5-2.2-9.7c-1.1-5.1-2.9-9-9.4-9.1c-4.6-0.1-4.6-0.8-4.9,3.9c-0.7,9.6-2.7,19-5.9,28
					c-5.3,15-17.5,20.1-32,17.9c-5.5-0.8-5.6-0.9-4.3,4.7c0.1,0.3,0.2,0.5,0.2,0.8c4.3,16.8,6.9,33.9,9.2,51
					c1.3,10,2.1,20.1,3.1,30.2c0.8,7.6,1.4,15.1-1.6,22.5c-0.4,1.1-0.4,2.4-0.2,3.5c1.4,9.4,1.5,19,5.3,28c1.4,3.6,1.7,7.6,0.9,11.4
					c-1.2,6.7-2.4,13.4-3.3,20.1s-0.5,13.2,3.3,19.2c2.5,3.9,4.6,8.1,7.3,11.9c1.9,2.3,2.2,5.6,0.8,8.2c-1.6,3.4-3.2,7.1-2.8,10.7
					c0.8,7.5-3.5,11.3-9.2,14.2c-3,1.6-5.3,4.2-6.5,7.3c-0.8,1.8-0.3,3,1.4,3.9c7.3,3.7,14.8,5.3,22.7,2c5.7-2.6,11.2-5.5,16.6-8.8
					c1.2-0.7,2.6-1.5,2.1-3c-2-6.2,2-11.1,4-16.1c2.4-6.1,3.9-12.2,2.3-18.3c-2.7-10.9-4.3-22.1-4.7-33.4c-0.6-11-1.5-22-0.9-33
					c0.2-3.5-0.6-6.9-0.7-10.3c-0.1-5.5-1.7-10.4-2.6-15.6c-0.9-5.1-1-10.3-0.2-15.4c1.5-8.3,1-16.7,1.3-25
					c0.3-10.9-0.7-21.8,0.9-32.7c1.3-8.4,2.1-16.9,3.2-25.3c0.2-1.3,0.6-2.8,2.3-2.8s2.2,1.3,2.5,2.7c0.9,5.1,2.2,10.2,2.5,15.3
					c0.6,12.6,1.2,25.3,0.7,37.9c-0.5,15,3,29.7,2.3,44.6c-0.4,7.6-0.2,15.1,1.5,22.6c0.6,2.6,0.6,5.3,0.2,8
					c-0.3,2.1-0.2,4.3,0.1,6.4c1.1,6.5,1.4,13-0.2,19.5c-3.7,14.3-2.1,29.4,4.4,42.6c8,16.6-0.8,37.3-16.4,43.9
					c-2.5,0.9-4.9,2.2-7,3.8c-2.4,1.9-4.3,4.5-4.1,7.4c0.1,2.2,3.3,1.5,4.9,2.7c0.9,0.5,1.9,1,2.9,1.3c7.9,3.3,16.8,3.6,24.9,0.7
					c9.7-3.6,19.7-6.5,29.9-8.7c2.7-0.5,3.8-2,4-4.7c0.2-3.6-0.4-7.2-1.7-10.5c-2.1-5.8-2.6-11.4,1.3-16.7c1.3-1.8,1.3-4,1-6.2
					c-0.4-3.2-1.1-6.3,0-9.5c1.2-3.8,1.3-7.9,0.5-11.8c-1.6-8.5-1.4-17.3,0.5-25.8c4.4-18.5,6.1-37.3,6.4-56.2
					c0.1-9.3-0.1-18.4,2.6-27.6c6.7-22.8,8-46.6,11.7-70c0.8-5.1,3.4-6.8,8.3-5.1c2.1,0.6,3.8,2.1,4.8,4c3.5,7.3,7.4,14.4,9.8,22.2
					c3.8,12.3,6.8,24.9,11.9,36.8c2.9,6.7,5.2,13.4,3.9,21.1c-4,23.9-2.4,47.8,3.1,71.3c2.1,9.2,4.8,18.3,2.7,27.9
					c-0.7,3.1,0.4,5.5,3.1,7.5c3.1,2.4,3,3.8-0.1,5.7c-1.9,1.2-2.7,2.6-2.2,4.6c1.6,6.5-1,11.5-5.3,16.3c-3.4,3.9-6.6,8-7.1,13.5
					c-0.2,2.9,0.6,4.6,3.4,5.9c5.7,2.7,11.7,1.9,17.6,2.3c3.8,0.3,6.7-1.5,9.1-4.2c5-5.7,9.5-11.7,10.8-19.4c0.4-2.3,1.2-4.5,0.6-7
					c-0.5-1.7-0.2-3.5,0.8-5c0.5-0.8,1.5-1.2,2.4-0.9c0.7,0.2,1,0.8,0.9,1.5c0,0,0,0.1,0,0.1c-1.9,5.6,1.6,9.4,4.4,13.4
					c1,1.6,1.7,3.3,2.2,5.1c1.4,5.3,0.5,10.6,0.7,15.9c-0.1,3.2,1.8,6.2,4.7,7.6c3.3,1.8,6.7,3.3,10.1,4.7c4.7,1.8,4.9,2.8,1,5.8
					c-3.5,2.8-3.4,4.5,0,7.6c7.6,7.1,16.8,9,26.7,7.5c13.2-2,26.2-4.4,39.4-6.5c5.9-1,12-1.9,18.4,0.3c-2.9,3.2-6.3,5.3-8.6,8.3
					s-1.7,6.6,1.3,7.5c13.2,4.2,26.4,3.8,39.8,0.5c6.3-1.6,11.6-5.3,17.6-7.3c6.6-2.2,7.8-3.7,6.7-10.6c-0.5-3-0.9-6-3.2-8.5
					c-1.1-1.1-1.4-2.7-0.8-4.1c1.5-3.3,0.2-5.9-1.6-8.5c-1.4-2.1-2.5-4.4-3.8-6.5c-1-1.7-1-3.3,0.6-4.2c3.6-2,3.6-5.2,3.3-8.6
					s-0.2-6.7-0.5-10c-1.8-15.2-2.3-30.6-1.6-45.9c0.9-15.9-1.1-31.6-3.3-47.3c-0.9-6.8-4.7-13.2-2.1-20.4c0.1-0.8-0.2-1.6-0.7-2.2
					c-2.4-3.1-2.7-6.5-2.2-10.2c0.2-2.4,0-4.8-0.5-7.1c-1-8.1-5.4-16-1.2-24.4c0.1-0.2,0-0.5,0.1-0.8c1.1-7,0.8-14.1,0.7-21.1
					c0-6.5,0.8-13,3.4-18.7c5.4-12,7.4-24.7,9-37.5c0.7-5.5,1-10.9-1-16.2c-2.3-5.8-3.1-11.5,0.4-17.2c0.1-0.1-0.2-0.4-0.4-0.8
					c-1,0.3-2,0.6-2.9,0.9c-10.8,3.6-21.7,6.5-33.2,6c-16.8-0.6-33.5-1.3-50.3,0.4c-1.3,0.1-3.1-0.5-3.6,0.9
					c-1.8,4.6-5.6,3.4-9.1,3.6c-3.3,0.2-3.5-1.2-2.9-3.8c1-4,1.9-8,2.5-12.1c1.3-9.6,2.7-19.1,2.7-28.9s0.2-19.6,1.9-29.4
					c2.4-14,6.1-27.8,8.8-41.8c1.7-8.9,4-17.4,9.6-24.6c5.4-6.9,10.9-13.8,15.7-21.2c5.4-8.3,12-15.8,15.3-25.2
					c3.2-8.7,5.7-17.7,8.2-26.7c1-3.4,1.9-7.1,1.1-11.2c-7.8,6.2-15.1,12-22.5,17.9c-3.6,2.8-7.5,5.1-12.3,5.3
					c-3.4,0.1-5.7-1.1-5.9-4.9c0-1.1,0-2.4-1.3-2.6s-1.6,1.3-2,2.2c-2.3,4.9-3.1,10.2-3.8,15.4c-1.9,14.5-3.2,29.1-5.1,43.6
					c-3.8,27.6-9.6,54.4-23.3,79.1c-5.8,10.1-9.4,21.3-10.6,32.8c-0.8,8.4-3.7,16.5-8.5,23.4c-0.7,1-1.5,2.7-3,1.6
					c-1.3-1-0.1-2.2,0.5-3.1c3.9-5.7,5.9-12.2,7.5-18.8c1.4-5.8,1.3-11.9,3.2-17.6c3.7-10.8,8.6-21.2,14.6-31c1.2-2,2.9-4.1,1.9-6.6
					c-3.1-8.3-2.2-16.7-0.6-25.2c0.8-3.9,1.6-7.8,2.3-11.8c0.3-1.4,0.5-2.9-1.6-3.4c-2.9-0.7-2.2-2.5-1.1-4.2c1-1.4,2-2.8,3.2-4.1
					c1.6-1.8,1.8-3.3,0.7-5.6c-2.8-5.4-4.9-11.2-6.2-17.2c-1.3-6.2-1-11.1,3.3-16.5c7.3-9.2,13-19.5,18.6-29.8
					c0.9-1.7,2-3.6,4.5-4.3c0,0.5-0.1,1-0.2,1.5c-6.8,11.3-12.6,23.2-20.5,33.8c-3.8,5-4.2,9.7-2.9,15.4c2.2,9.4,6.6,17.4,12.4,25.9
					c2.9-17.4,5.3-34.1,6.9-50.9c1-10.6,2.6-21.3,9.7-29.9c2.6-3.2,3.1-6.5,2.9-11.1c-3.9,3.2-8.1,5-11,8.5
					c-3.2,4.1-7,7.7-11.2,10.8c-1.6,1.1-1.7,2.1-0.6,3.6s3,3.1,2.5,5.8c-3.1-1-3.7-3.9-5.2-5.8c-1.4-1.8-1-3.3,1-4.6
					c2.6-1.6,4.9-3.6,7-5.9L317,137z M288.3,41h-0.1l0.2,0.1v2.4c1.1,4.5,4.1,8.1,5.5,12.4c0-4.4-1.4-8.7-4-12.3
					c-0.4-0.5-0.9-0.3-1.4-0.1L288.3,41z M352.4,33.4h0.2H352.4c-0.4-1-1.1-1.6-2.1-1.8c-1-1.5-2.9-1.8-4.3-2.7l-3.5-0.1
					c-0.2-3.6-2.5-1.5-4.1-1.3l4.1,1.3h3.6c0.7,2.1,2.4,2.6,4.3,2.6C350.6,32.7,351.8,32.8,352.4,33.4L352.4,33.4z M260.3,39.2
					l-2,0.9C259.5,40.7,260,40.1,260.3,39.2c0.6,0.2,1.2,0.7,1.9,0L260.3,39.2z M228.5,60.3c-1.9,1-0.9,2.6-0.8,4
					c-1.7,0.8-1.4,2.2-1,3.5c-1.6,0.8-1.4,2.4-1.9,3.7c-1.7,4.8-3.2,9.6-5.8,14c-1.1,1.6-1.6,3.7-1.2,5.6c1.5,8.3,3.8,16.3,8.6,23.4
					c0.7,1,2,1.9,0.8,3.9c-7.1-5.2-8-13.5-10.9-20.8c-0.1,3.6-0.7,7.3,1.4,10.5c2.5,3.6,4.2,7.7,5.1,12c0.3,1.8,1.4,3.4,3,4.3
					c6.9,4.6,14.8,6.5,22.4,9.4c4,1.6,8.2,2.2,12.5,1.6c3.4-0.4,6.9-0.3,10.3-0.8c5.2-0.7,10.4,0.5,15.5-0.1
					c7.9-0.9,16-0.7,23.9,0.4c4.7,0.6,7.4-2.1,10.5-4.7c-7.4-1.5-13.4-5.5-19.6-8.8c-1.2,0.7,0.1,2.9-1.8,2.7
					c-1.3-0.1-1.9-1.4-2.2-2.6c-0.6-1.8-1.1-3.5-1.5-5.4c-0.5-2.8-0.9-5.7-1.3-8.6c-2.3,8.3,2.3,16.3,1.4,25
					c-3.1-1.6-2.2-4.6-3.8-6.1c-5.8-5.8-6-12.9-5.4-20.4c0.4-5.4,2.3-10.8,0.2-16.2l0.1,0.1c-0.8-1.3-0.5-2.4,0-3.7
					c1.2-3.3,1.1-11.9,0.1-14.6c-1,0.6-0.6,1.6-0.7,2.5c-0.4,5.7-3.2,8.5-9,8.4c-4.9,0-8.7-1.9-10.8-6.8c-0.7-1.6-0.8-3.7-3.5-3.6
					c-2.5,0.1-2.5,2.1-3.1,3.6c-2.6,6-5.4,7.4-12.4,6.3c-5.3-0.8-7.5-3.5-8-9.7c0-0.5,0-1.1-0.1-1.6c-0.7-1.8-2.3-3.1-4.2-3.2
					c-1.8-0.3-1.4,1.9-1.7,3c-2.6,9.9-2.7,20-1.5,30.1c0.4,3.9,1.7,7.7,1.3,11.6c-1.8,0.5-1.6-2.1-3-1.7c-1.8,5.6,5.4,4.1,6,8
					c-3.7-16.1-4.6-31.9,0.3-48.2c1.4,2.2,0.7,4,0.7,5.8c0,1.3-0.4,2.7,0.4,3.9c2,2.8,2.6,6.1,3.3,9.3c1,4.8,2.8,9.5,5.5,13.6
					c2.9,4.3,2.9,4.6,7.7,4c2.2-0.3,2.6,0.5,3,2s1.8,2.8,0.3,4c-1.3,1.2-3.3,1.3-4.8,0.3c-3.4-2.3-6.2-5.5-8.1-9.2
					c-1.3-2.4-2.5-4.9-3.8-7.3l-0.9,0.3c1.7,2.7-2.6,6.9,2.9,8.7c0.3,0.1,0.5,0.7,0.5,1c0.1,7-0.7,14-2.4,20.8c-2-4,0-8.3-1-12.2
					c-1.2,4.2-1.5,8.7-1.8,13.5c-2.3-1.1-3.8-3.3-4.1-5.8c-0.5-3-4-0.9-4.8-3.4c-0.6-1.9-1.1-3.8-1.4-5.8c-0.5-3.4,0.3-7.7-1.6-10.1
					c-2.8-3.5-1.7-6.6-1.3-10c0.3-2.6,0.4-5.1,0.1-7.7c-2.3,3-1.1,7-4.9,9.6c0.5-5.7,1-10.8,3.5-14.9c1.4-2.2,2.2-4.7,2.3-7.3
					c0.1-2,0.1-4,0.1-6c1-1,0.4-2.4,1.1-3.5l0.7-4.2c0.4-1.5,0.4-3-0.1-4.5c1.9-0.6,1.9-2.3,2.2-3.9l0.1,0.1
					c-1.5,0.8-1.2,2.7-2.3,3.8L228.5,60.3z M303.7,73c-1.5,0.3-2,1.5-2.4,2.7c-0.8,2.4-1.6,4.9-2.4,7.3c0.1,0.1,0.1,0.1,0.2,0.2
					c0,0.1,0,0.2,0,0.2l-0.2-0.5c1.8-0.3,1.8-2,2.4-3.2C302.3,77.6,302.3,75,303.7,73c-0.2-0.1-0.6-0.2-0.1-0.5L303.7,73z M238,43.2
					c0.8,0.5,1.9,0.4,2.6-0.3c2.3-1.8,5.3-2.2,6.9-5.4c1.2-2.4,4.9-2.2,7.3-3.7c-2-1.5-3.7-1.2-5.6-0.2
					C244.7,35.8,240.8,39.2,238,43.2l0.2,0.2L238,43.2z M251.8,45c-7,1.1-13.7,4-17.8,9.4c-3.9,5.1-4,12.2-3.9,18.8
					c1.7-6.7,3.9-13.2,8.3-18.8c0.5,2.5-0.9,4.4-1.6,6.5c-0.2,0.8-0.5,1.7,0.5,2s1.2-0.8,1.3-1.5c0.3-4.2,3-6.9,5.4-9.9
					C246.2,48.8,249.8,47.8,251.8,45c0.3,0,0.6,0.1,0.9,0.1c0,0,0.1-0.2,0.1-0.3L251.8,45z M81.1,264.2c0.5,12.8,2.7,25.5,6.6,37.7
					c4.9,15.5,13.5,29.5,16.6,45.7c1.3,6.9,5.3,9.3,12.4,9.3c2.8,0,6.3-0.5,7.5-2.8c0.9-1.6-1-4.4-2.6-6.3c-0.5-0.6-1-1.3-1.3-2
					c-2.5-5.5-5.8-11-4.9-17.4c0.4-2.9,0.5-5.8,0.2-8.7c-1.1-12.5-5.4-24.4-8-36.6c-2.4-11.5-3-23,0-34.4c1.8-7,2.6-14.1,4.6-21
					c0.6-1.5-0.1-3.3-1.5-4c-2-1.3-3.7-3.2-5.8-4.3c-4.8-2.5-9.5-6.6-15.1-1.4c-0.5,0.3-1,0.4-1.5,0.3c-3.7-0.6-4.2,1.8-4.8,4.7
					C81.1,236.3,81.9,249.9,81.1,264.2z M254.2,362.1c1.8-4.5,1-8.4,1.7-12c0.1-0.8-0.4-1.6-1.1-1.9c-4.4-1.9-3.6-5.7-3.3-9.3
					c0.4-4.3,2.7-6.1,7-5.4c1.4,0.3,2.2,0.2,2.9-1.1c3.5-7.1,8-13.8,10.5-21.5c2.6-8.4,1.3-16.9,1-25.4c-0.3-7-1.5-14-1-21.1
					c0.5-8.4,1.2-16.7,2-25c0.3-2.6-0.7-3-3-3.3c-6.8-1.1-13.1,1.3-19.4,2.9c-2.1,0.5-3.1,2-3.1,4.5c0,5.6-0.1,11.2-0.7,16.8
					c-2,19.2-2.1,38.5-2.4,57.8c-0.1,7.1-0.4,14.1-3.8,20.5c-5.3,10.1-5,11,5.3,15.6C250,355.6,253.1,357.3,254.2,362.1z
					 M379.9,111.2c-6.3-0.3-4,3.2-3.7,5.7c0.4,3.6,0.4,7.1,0.1,10.7c-0.5,9.2-3.5,17.7-6.2,26.3c-0.7,2.3-1.2,4.4,1.1,6.4
					c1-1,2.3-1.6,3.6-1.7c6-0.4,11.7-2.3,17.8-2.2c2.6,0.1,3-1.3,2.6-3.6c-1.4-8.1-1.5-16.4-1.7-24.6c-0.1-4.6-0.8-8.4-5.2-10.8
					c-0.9-0.6-1.7-1.3-2.2-2.3c-3-5.2-8.7-8.4-10.8-14.5C370.5,106.7,376.4,107.9,379.9,111.2z M366.6,166.9
					c-9.4,16.2-19.9,31.7-31.4,46.5c2.1-1.4,4.2-3,6.1-4.6c10.5-8,22.1-14.4,34.4-19.2c2.4-0.9,3.2-2,2.1-4.4c-0.4-1-0.7-2-1.1-3
					c-3.9,3-5.7,2.3-6.9-2.4C368.8,175.9,367.8,171.9,366.6,166.9L366.6,166.9z M258.6,399.9c-1.6,1.2-1,2.6-1,3.9
					c-0.4,11.6,0,23.1-1.3,34.7c-1.3,11.2-0.7,22.3,2.8,33.2c0.3,0.9,0.2,2.2,2,2.4c-1-4.3,0.7-8.2,1.1-12.3
					c1.4-13.8-1.7-27.3-2.4-40.9c-0.3-5-1-10-0.7-15.1C259.1,403.9,259.5,402,258.6,399.9L258.6,399.9z M112.1,286.3
					c0.5-11.2,1.9-22.3,4.2-33.2c0.6-2.7,2-5.7,1.4-8.2c-1.5-5.8-1.9-11.7-1.2-17.6c0-0.1-0.4-0.3-0.6-0.4c-1.2,0.6-1,1.7-1.3,2.7
					c-1.7,8-3.6,16.1-5,24.2C107.5,264.6,108.4,275.8,112.1,286.3z M303.7,256.7c0.6-0.4,1-0.5,1-0.6c4.4-10.9,6.9-22.3,8.8-33.9
					c0.2-1-4.2-7-5.1-7.1c-0.4,0-0.7,0.1-1.1,0.3c-2,1.1-2.7,3.5-1.7,5.5c0.1,0.2,0.2,0.4,0.3,0.5c1,1.5,1.2,3.3,0.7,5
					c-1.1,5.9-2.4,11.7-3.3,17.6C302.7,248.3,302.8,252.6,303.7,256.7z M350.7,70.4c0-5.4-3.6-8.8-9.1-8.8c-4.5,0-7.2,2.6-7.1,6.8
					c0.1,5,4.5,9.5,9.3,9.6C347.8,77.9,350.6,74.8,350.7,70.4L350.7,70.4z M326.5,73.9c0-4.3-3.7-7.8-8.4-7.8c-3.9,0-7.7,2.9-7.7,6
					c0,4.2,5.6,9.8,10,9.9C323.5,82.1,326.5,78.1,326.5,73.9z M365.1,292l16.3-11.5c-3.6-0.1-7.2,0.1-10.7,0.6
					C360.9,282.4,360.9,282.5,365.1,292z M87.1,310.7l-1,0.4c-0.3,4.1-0.7,8.2-1,12.3c-0.1,1.2-0.6,2.9,1.1,3.4c2.3,0.6,4.5,1.5,7,1
					c0.7-0.1,0.7-0.8,0.5-1.3C91.5,321.2,89.3,315.9,87.1,310.7z M418.4,239.9c0,4.2,0,7.1,0,10.1c0,0.8,0.4,1.9,1.3,1.6
					c2-0.7,2.3-3,3.8-4.3c0.7-0.5,0.9-1.4,0.4-2.1c-0.1-0.1-0.2-0.2-0.3-0.3C422.3,243.4,420.7,242,418.4,239.9L418.4,239.9z
					 M259.3,341c-0.1-2,0.1-4.5-2.4-4.4c-3.4,0.1-2.1,3.3-2.6,5.2c-0.5,1.5,0.4,3,1.8,3.5c0.3,0.1,0.6,0.1,0.9,0.1
					C259.8,345.3,258.9,342.6,259.3,341z M237.4,100.7c0.6-1.7,0.8-3.5,0.4-5.3c-0.3-2.1-0.4-3.9,3-2.1c-1.3-3.3-0.7-6.8-3.6-10.2
					C236.7,89,236.8,94.9,237.4,100.7z M373.8,90c1.4-5.7,0.2-11.3-1.3-16.8C372,78.9,372.4,84.5,373.8,90z M264.6,496.7
					c0.6-4.8,0.1-9.7-1.6-14.2C262.1,487.3,262.7,492.2,264.6,496.7z M292.1,77.3c-1,4.2-1.4,8.3-0.1,12.5
					C293.1,85.8,293.1,81.5,292.1,77.3z M213.4,69.6c-0.2-4.7-1.7-8.6-6.7-11.7L213.4,69.6z M392.5,84.6c-0.2-3.6-1.8-6.5-3.8-9.3
					C389.3,78.6,390.6,81.7,392.5,84.6L392.5,84.6z M220.4,121.9c0-3.3-1.1-6.4-3.1-9C217.9,116.1,218.4,119.3,220.4,121.9z
					 M290.4,103.7c-0.7,3.3-1.1,6.6,0,9.8V103.7z M318.9,102.1c-0.6,1.7-1.5,3.5-0.2,5.6C319.9,105.6,320.4,103.9,318.9,102.1
					L318.9,102.1z M321.2,110.4c1-0.6,2.8,0.5,3-1.5c-0.1-0.6-0.5-1.2-1.1-1.4C321.2,107.4,321.5,109,321.2,110.4L321.2,110.4z
					 M266.6,35.2c-2.1-0.4-4.2,0-5.9,1.2L266.6,35.2z M385.9,77.7c-0.7,1.8-0.9,3.2,0,4.4c0.3,0.5,1.1,0.1,1.3-0.3
					C387.6,80.3,386.7,79.2,385.9,77.7z M228.6,101.1c0.8-1.3,0.8-3-0.1-4.3C227.9,98.3,227.1,99.4,228.6,101.1z M292.3,65.5
					c-0.6,1.3-0.6,2.2,0.5,3.8C293.2,67.3,293.3,66.5,292.3,65.5z M201.3,47.1c-0.2-0.2-0.6-0.7-0.8-0.6c-0.5,0.1-0.9,0.4-1.2,0.8
					c-0.2,0.6,0.3,0.8,0.9,0.8C200.8,48.1,201.2,47.7,201.3,47.1L201.3,47.1z M309.7,57.3c0.2-0.2,0.6-0.4,0.7-0.7s0-0.9-0.1-1
					c-0.6-0.3-0.9,0.3-1,0.7S309.1,57.2,309.7,57.3z M334.4,28.3l0.5-0.4c-0.2-0.1-0.5-0.1-0.7-0.2c-0.1,0-0.2,0.1-0.3,0.2
					L334.4,28.3z M370.1,105.9l-0.3-0.2c0,0.1-0.2,0.3-0.1,0.3c0.1,0.1,0.3,0.2,0.4,0.2V105.9z M254.9,40.7l-0.3,0.2h0.6L254.9,40.7
					z"/>
				<path d="M127,72.6c1.5,1.5,2.3,3.8,4.5,4.6l-0.1-0.1c2.5,7.4,4.3,15,7.5,22.6c2.4-2.3,2.9-5,3.4-7.4c1-5.3,4.7-9.5,6.1-14.7
					c0.3-0.9,1.3-1.7,2.1-2.4s1.6-1.3,2.4-0.5s-0.1,1.7-0.6,2.4c-1.4,2.1-3.2,4.1-3.6,6.9c2.2-0.4,1.4-4.3,3.5-3.2
					c1.8,1,0.1,3.4-0.2,5.1c-0.9,4.9-2.3,9.6-4.2,14.1c0,0.1,0,0.2,0,0.3c-0.1,0.4,0,0.5,0.1,0.2c0.1-0.1-0.1-0.4-0.2-0.6
					c1.9,0.2,1.6-2.3,3.4-2.8c0.7,2.8-0.5,5-1.3,7.3c-1.7,4.9-3.7,9.6-4.4,14.9c-1,7.3,0.1,14.7,3.1,21.4c0.4,0.9,1.9,2.3,0.4,3.1
					s-2.2-1.1-2.7-2.2c-3.2-6.8-4.4-14.3-3.4-21.8c0.1-0.5,0.1-1,0-1.5c-2.9,5.3-1.3,11.2-1.6,17c-2.3-0.5-2-2.4-2.9-3.7
					c-1.8,0.7-1.4,3.4-3.8,4.1l6.2-21.7c-3.3,3.7-5.5,8.2-6.6,13c-0.4,1.9-0.5,2.9-3.4,2.9c-3.3,0-6.6,1.9-9.8,3.1
					c-2.9,1-5.7,2.3-8.7,2.9c-3.9,0.8-5.9,3.6-7.9,6.6c-11.3,17.4-18.8,36.4-24.1,56.2c-1.4,5-2.2,10.1-2.5,15.3
					c-0.1,1.1,0.2,2.7-1.5,2.8s-1.5-1.5-1.6-2.7c-0.3-2.3,1.4-5.3-0.6-6.8c-1.6-1.1-4.4-0.4-6.6-0.7c-3.8-0.5-7.1-2.1-10.4-3.9
					c-5.4-3.2-12-3.4-17.6-0.5c-1.5,0.7-2.7,1-3.9-0.4v-0.8c2.1-2.4,4.8-3.5,7.9-4c3.8-0.8,7.7-0.6,11.4,0.7
					c1.5,0.5,2.6,0.7,2.5-1.5c-0.3-4.1,0.1-8.2-0.5-12.3c-2.3-14.3-7.6-27.6-12.3-41.1c-1.5-4.5-3.7-4.8-7.1-1.3
					c-0.6,0.7-1.3,1.4-1.9,2V138c6-2.4,11.4-6,18.4-6.7c3.3-0.3,7.5-2.8,11-5c1.5-1,2.8-1.5,4.3-0.3c2.5,1.9,3.8,0.1,3.5-1.9
					c-1.4-7.5,2.9-13.3,5.7-19.5c1.5-3,3.1-5.8,4.9-8.6c1.3-2,1.6-4.5,0.7-6.8c-1.4,0-1.4,1.1-1.8,1.9c-3.4,7.8-7.8,15.1-10.2,23.4
					c-0.3,0.8-0.4,2.2-1.6,1.9c-1.5-0.4-0.9-1.8-0.6-2.7c3.2-8.3,4.8-17.2,8.7-25.2c0.3-0.9,0.8-1.7,1.4-2.4c1.1-1,2.2-2.6,4-2.2
					s1.6,2.3,1.8,3.7c0.9,6.7,4.1,11.7,10.6,14.3c0.3,0.2,0.7,0.4,0.9,0.8c0.1,0.1,0,0.3,0.1,0.4c-3.4,0.4-5.5-0.9-11.8-7.2
					c1.2,2.2,0.4,4.3-0.1,6.4c-2.1,8.4-0.3,15.8,5.2,22.4c2.6,3.1,4.9,6.2,5.5,10.4c0.3,2.3,5.6,3.6,8.3,2c4.7-2.9,10-4.3,15.2-5.8
					c3.9-1.3,7.8-2.9,11.5-4.8c2-1,1.5-4,0-6c-3.5-4.6-5.9-9.8-8.6-14.8c-1.3-2.5-1.1-4,2.1-4l0.1,2.2l1.6,0.6
					c-0.3,0.7-0.3,1.5,0,2.2c1,1.9,1.9,3.7,3,5.6c0.4,0.6,0.8,1.6,1.8,0.8c0.6-0.5,1.1-1.6,0.5-2c-1.9-1.3-2.6-4-5.3-4.3
					c0.3-0.7,0.3-1.5-0.1-2.2l-1.6-0.5v-2.3c-2.4-2.3-3.2-4.4-1.9-8.2c2-5.7,1.5-12.1,1.8-18.2c0.1-1.6-0.1-3.2,0.5-4.7
					c1.4,0.3,1.2,1.7,1.9,2.4c-1.6,4.9,0.7,10.4-1.4,14.9c-3.5,7.1,0.7,11.6,4.1,16.5c0.3,0.5,0.6,0.9,0.9,1.3c1,1,1.3,3.2,2.8,2.9
					c1.7-0.3,2.5-2.4,3.1-3.9c0.8-2-0.8-3.7-2.1-4.8c-4.6-3.7-5.5-9.2-7.1-14.3c-0.4-1.3-0.7-3,1.6-3.2
					C129.3,78.8,127.3,75.9,127,72.6z M75.5,126.6L75.5,126.6l-0.8,1.4h-0.3l0.2-0.1L75.5,126.6z M140.3,104.7l-0.7,2
					c-1.2,0-2,0.5-1.8,1.8c-2.4,2.4-5.1,4.7-5.5,8.3c2.5-2.3,4.4-5.2,5.4-8.4l1.9-1.8C139.6,105.9,139.9,105.2,140.3,104.7
					L140.3,104.7z M79.2,116.9c1.3-0.6,2.2-1.3,1.6-3.1C79.5,114.6,79.6,115.9,79.2,116.9l0.2,0.3L79.2,116.9z M145.4,88.7
					c1.3-0.2,1.5-1.2,1.7-3.1L145.4,88.7c0.1,0.2,0.1,0.3,0,0.5c-0.2,0.4-0.1,0.5,0.1,0.3S145.5,89,145.4,88.7z M57.6,171.8
					c0.1-0.3,0.4-0.5-0.1-0.7L57.6,171.8c1.7,7.2,3,14.5,2.7,22s1.5,9.2,9,9.7c6.5,0.5,6.5,0.4,7.8-6.8c-2.4,0.8-3.6-1-4.9-2.4
					c-3.1-3.3-5.4-7.2-7.8-11.1S60.8,175,57.6,171.8z M65.1,137.3c-2.5,2.9-4.4,5.3-6.5,7.5c-1.7,1.8-0.9,2.7,0.8,3.6
					c3,1.7,6.4,1.7,9.7,1.8c1.1,0,2.3,0,2.8,1.2c0.6,1.4-0.4,2.3-1.3,3c-3.3,2.7-7.2,4.7-11.3,5.8c-1.5,0.4-2.3,0.9-1.4,2.8
					c3.3,7.2,6.4,14.6,10.6,21.4c2.5,4,5.1,7.9,9.3,11c2.5-10.2,6.6-19.3,10.3-28.5c0.9-1.9,0.9-4.1,0-6
					c-4.6-10.1-5.6-20.7-3.8-31.6c0.6-3.9-2.1-7.5-0.2-11.4c-1,2-1.9,4.2-2.6,6.4c-0.8,2.3-1.4,4.6-2.4,6.8c-0.6,1.4,0.2,4-1.6,4
					c-2.1,0-1.3-2.8-1.9-4.2c-0.2-0.3-0.4-0.5-0.6-0.7c-2.7,1.1-5.3,2.5-6.8,5.2c-2.1,3.8,2.2,5.6,3.5,9.1
					C67.4,143.6,66.2,140.9,65.1,137.3L65.1,137.3z M66.4,153.3c-4.1-0.5-8-2-11.4-4.4c-1.2-0.9-2.3-2.1-0.8-3.2
					c5.2-3.7,6.9-10.8,13.5-13.1c1.1-0.2,1.8-1.2,1.6-2.3c0-0.1-0.1-0.3-0.1-0.4c-3.8-0.2-7.6,0.9-10.8,3c-2.3,1.5-4.1,2.9-7.2,2.3
					s-5.2,1.5-4.5,3.6c2,6.1,4.1,12.1,6.2,18.1c0.1,0.9,1,1.6,1.9,1.4c0.2,0,0.3-0.1,0.5-0.2C58.8,157.1,62.6,156.2,66.4,153.3
					L66.4,153.3z M91.1,159.3l11.3-18.2c-6.2,0-10.8-2-15.8-4.7C86.8,144.6,87.1,151.9,91.1,159.3L91.1,159.3z M93.7,135.4
					c-0.9-4.2-3-6.8-5.6-9.4C86.4,132.5,86.4,132.5,93.7,135.4L93.7,135.4z M78,109.9c-2.3,3.2-3.6,6.9-3.9,10.8
					C76.6,117,77.9,113.6,78,109.9z M82.4,108.9c-0.4-1.9,1.2-3.6,0.7-6.4C82.2,104.5,82,106.7,82.4,108.9L82.4,108.9z M141.2,110.3
					c1.3-1.4,1.7-2.5,1.3-3.7C141.8,107.5,140.6,108.1,141.2,110.3L141.2,110.3z M79.6,121.9c-2.3,2.6-2.3,2.8-1.3,3
					C79.4,124.4,79.6,123.5,79.6,121.9z M147.1,94.1l-0.1-0.3l-0.1,0.3H147.1z"/>
				<path d="M121.8,51.7c2,4.9,6.7,7.4,9.5,11.7c1.1-0.7,1.3-4,2.8-1.1c4,7.8,7.3,15.9,8.4,24.7c0,0.2-0.2,0.5-0.4,0.8
					c-2.4-0.1-4.6-1.5-5.7-3.6c-1.6-2.4-2.5-5.3-5-7.1l0.1,0.1c-0.8-3.7-3.8-6.5-4.1-10.5c4.4,4.9,7.2,10.9,11.7,15.8
					c-0.3-3.3-0.9-6.6-2.8-9.4c-3.6-5.3-7.6-10.3-12.1-14.8c-2.5-2.5-6.6-2.5-9.1,0c-0.8,0.8-1.4,1.8-1.7,2.9
					c1.2,0.9,2.6-0.2,3.8,0.3c1.1,0.4,2.4,0.2,3.4,2c-2.7-1.2-4.5,1.6-7.1,0.4c-1.7-0.8-4.1-1.2-4.2-3.1c-0.1-2.3,1.7-4.2,4.1-4.9
					c2.3-0.6,4.6-1,7-1.3c-1.8-4.2-3.9-7.9-7.1-10.6c-3.7-3-6.2-7.3-6.9-12c-0.3-1.7-1.2-2.8-2.2-4.3c7.1,0.4,13.6,3.7,18.2,9.1
					c4.7,5.3,9.6,10.4,12.8,16.7c3.5,6.8,6.7,13.9,9.4,21.1c0.4,1,0.8,2-0.1,3c-1.3,0.2-1.7-0.8-2-1.6c-3.4-11.9-11.8-21-17.9-31.4
					c-2.9-4.9-6.2-9.3-11.1-12.3c-1.2-0.7-2.4-1.8-4.4-1.3c1.3,2.4,3.7,3.3,5.2,5.1c1.2,1.3,3.2,2,2.1,4.6c-0.5,1.2,1.1,2,1.9,2.8
					c2.7,3.2,5.9,6,8.2,9.8c-2.7,1.4-3.2-1.8-5-1.7L121.8,51.7z"/>
				<path d="M179.6,37.1c0.4,1.9,2.1,2.1,3.5,3.3c1.7-2.5,1-4.9,0.2-7.3c-0.7-2-0.7-3,2-2.7c2.3,0.2,4.8-0.4,7.6,0.2
					c-1.2,3.4-4.9,5.7-4.4,10.1c3.1-2.9,5.3-7.5,10.9-4.9c-5.9,0.3-7.7,5.4-10.8,8.9c-2.3,2.7-4.1,3-6.1-0.2c-0.4-0.7-1-1.6-2.2-1.4
					c-0.4,1.5,1.6,2.9,0.3,4.5c-1.9,0.3-2-1.8-3.3-2.4c-1,0.5,0.2,2-1,2.3s-1.6-0.8-2.1-1.5c-2.6-3.8-6.1-5.5-11.6-5
					c1.7,1.7,2.6,2.8,4.5,2.2s2.7,0.6,3.6,1.8c0.7,0.7,0.9,1.7,0.5,2.6c-0.8,1.5-1.8-0.4-2.1-0.2c-3.3,1.9-6.2-2.7-9.7-0.6
					c-0.9,0.5-2.3-1.7-2.9-2.8c-0.8-1.4,1.1-1.3,1.8-2c2.2-2.3,4.4-4.4,8-4.5c1.1,0,1-1.4,1.5-2.1c2.3-3.5,5.4-5.9,9.8-5.9
					c1.6,0,3.2,0.1,1.7,2.5c-1.1,1.8,1,1.7,1.6,2.5s1.2,1.2,0.9,2.1C181.5,37.6,180.4,37.1,179.6,37.1c-0.6-0.5-1.5-0.7-2.2-0.3
					c0-0.1,0-0.3,0-0.4c0-0.1-0.1-0.2-0.2-0.3l0.3,0.6C178.1,37.1,178.9,37.3,179.6,37.1z M187.9,32.7c0-0.3-0.2-0.6-0.5-0.7
					c-0.1,0-0.1,0-0.2,0c-0.4,0.1-0.6,0.4-0.8,0.7c0,0.3,0.3,0.9,0.4,0.9C187.4,33.7,187.8,33.2,187.9,32.7L187.9,32.7z"/>
				<path d="M172.1,122.7c3.5-0.2,2.8-2.8,3.2-4.5c1.1-4.5,1.6-5,6.4-4.5c1.6,0.2,2.5-1.6,4.1-0.8s3.1,1.5,3.3,3.8
					c1.1-1.5,1.5-4,3.6-1.1c2.3,3.1,2.9,6.8,3.9,10.3c0.3,0.9,0.1,2-1,2.3c-0.8,0.1-1.6-0.4-1.7-1.2c0,0,0-0.1,0-0.1
					c-0.5-2.6-4.2-3.3-3.8-6.4c-0.6,2.3-1.1,4.4,1.5,5.9c1.1,0.8,1.5,2.3,0.9,3.6c-1,1.2-2.2,2.1-3.7,2.7c-0.9,0.4-1.6-0.7-2.1-1.5
					c-0.6-0.8-0.5-1.9,0.2-2.6c0.6-0.6,2.6,0,1.9-1.8c-0.7-1.6-1.8,0.7-2.7,0c-0.5-0.5-1-1-1.4-1.6c-1,2.3,2.1,4.5-0.3,6.5
					c-1.6-0.4-0.9-2.2-2.1-2.9c-0.4-0.2-0.6,0.2-0.5,0.6c0.4,1.7-0.1,2.7-2,2.3c-1.7-0.4-1-1.2-0.9-2.6c0.2-3.7,0-7.4-0.6-11
					c-1.9,3.4-1.3,7.4-2.9,10.7c-2,0.7-1.8-3.8-4.4-1.5c-0.2,0.2-0.9-1.2-0.8-2c0.3-3.8,1.3-7.6,3-11c0.3-0.7,1-1.4,1.9-0.9
					s0.4,1.4,0.1,2.2C174.1,117.6,173.2,120,172.1,122.7z"/>
				<path d="M209,233.9c6.6,26.7,13.8,53.3,21.8,79.6C225,309.5,209,251.3,209,233.9z"/>
				<path d="M64.6,73.9c-3.1-0.6-2.3-2.8-1.8-4.6c1.2-5.1,3.2-9.9,6-14.3c5.5-8.7,12.4-16.4,20.6-22.6c2.4-1.7,5-3,7.8-3.9
					c1.6-0.5,3.1-0.9,4.3,0.5c0,0.6-0.4,1.1-1,1.2c-5.7,0.9-10,4-14.1,7.7c-8,7.1-14.5,15.6-19.3,25.2c0.1,0.9-0.2,1.8-0.9,2.3
					l-0.7,2.6v0.6v-0.7c1.1-0.6,0.9-1.6,0.6-2.6c0.6-0.6,0.9-1.5,0.9-2.3c1.8-0.1,2.5,0.7,1.7,2.4c-3.8,8.8-4.8,18.1-4.6,27.8
					C61.8,90.5,62,81.8,64.6,73.9c0.1-0.2-0.1-0.5-0.1-0.7c0-0.1,0-0.2,0.1-0.3L64.6,73.9z"/>
				<path d="M252.4,232.9c-1.4-2.3-2.1-5-1.9-7.7c-0.1-12.6,2.3-24.8,4.3-37.1c1.3-7.6,4-15,3-22.8c-0.1-0.9,0.1-1.9,2-2.6
					c0.5,4.7,0.9,9.2,0.1,13.7c-3.3,17.6-6.6,35.2-6.8,53.3C252.9,230.8,252.7,231.9,252.4,232.9z"/>
				<path d="M106.2,36.2c-8.2,7.1-14,15.4-20.1,24.6c3.3-1,6-2.3,8.9-1.5c1.6,0.4,3.2,0.8,3.4,2.8s-1.4,2-2.7,2.7
					c-2.2,1.3-4.4,1.4-7.3,1.4c1.9-2.4,4.7-2.2,6.8-3.5c-3-1.9-3.5-1.7-7.8,0.7c-2.4,1.3-4.8,2.4-5.8,5.4c-0.9,2.7-1.7,5.6-3.4,8.1
					c-1.6-0.9-0.9-2.1-0.6-3.2c1.1-4.2,2.9-8.3,5.3-12c5.2-8,10.7-15.9,17.2-23C101.5,37.2,103,35.6,106.2,36.2z"/>
				<path d="M138.1,352.7c4.1,2.7,7.8,1.3,11.4-1.2c9.8-6.7,13.9-16.8,16.4-27.8c1-4.3,1.2-8.7,1.8-13c0.3-1.9,0-4,1.5-5.7
					c1.6,1.6,1.1,3.4,1,5c-0.6,9.9-2.9,19.6-7,28.6c-2.9,6.6-7.9,12.2-14.1,15.8C144.5,357,142.3,356.7,138.1,352.7z"/>
				<path d="M344,91.1c-6.5,0.6-13.1,0.5-19,4c-0.9,0.5-2.9,1.8-3.5-0.6c-0.4-1.6-0.5-3.2,1.4-4c6.1-2.6,12.1-5,19-4.8
					c2.6,0.1,4.7,2,7.4,1.6c1-0.2,2.1,1.7,1.9,3.1c-0.3,1.9-1.7,0.9-2.8,0.8C346.9,91,345.4,91,344,91.1z"/>
				<path d="M235.9,186.6c1.2,0.8,1.8,2.1,1.6,3.5c0.2,13.3,3.3,26,7.9,38.4c0.6,1.7,2.4,4.5,0.3,5.3s-2.4-2.6-3-4.3
					c-3.7-10.7-7.3-21.4-7.7-32.8C234.7,193.4,235.1,189.9,235.9,186.6z"/>
				<path d="M99.1,35.4c-1.8-0.9-2.7,0.5-3.8,1.5c-8.3,7-15,15.2-18.5,25.6c-0.3,1-0.4,2.1-1.9,2.9c-0.6-1.7,0-3,0.5-4.4
					c4.2-10.8,11.1-19.6,20-27c2.4-2,3-1.9,8-1c-7.5,7-14.5,14.5-20.8,22.5C86.5,47.5,92.4,41,99.1,35.4L99,35.1L99.1,35.4z"/>
				<path d="M68.1,122.6c-2.5-4.1-2.5-8.3-1.7-12.5c2.1-11,6.7-21,12.1-30.7c1.4-2.6,2.7-5.3,4.4-8.7c1.1,3.6-0.3,5.9-1.5,8.2
					c-3.3,5.9-6.2,12.1-8.7,18.4c-2.7,7-4.4,14.2-3.6,21.8C69.2,120.2,69.6,121.3,68.1,122.6z"/>
				<path d="M133,357.1c4.6,3.1,9.1,6.4,13.8,9.3c13.4,8.2,27.6,10.5,42.8,5.9c1.4-0.4,2.8-0.7,4.3-1c0.3-0.1,0.7,0.2,1.1,0.3
					C177.6,381.4,151.3,376.7,133,357.1L133,357.1z"/>
				<path d="M67.9,96.7c-0.1-1.1-0.4-1.7-0.2-2.1c3-6.1,0.9-12.3,0.7-18.6c-0.1-3.2-0.4-6.6,2.6-9.7c0.6,4.7-0.7,9,0.9,13.9
					c0.6-2.8,0.9-4.9,1.4-6.9s1-4.1,2.8-5.6C76.6,74.5,72,91.6,67.9,96.7z"/>
				<path d="M151.2,66c1.1,1.3,1.9,2.3,2.6,3.2s0.6,1.7-0.2,2c-3,0.8-4.6,3.4-7.1,5.5c-0.5-2.3,0.4-4.6,2.3-5.9
					c0.7-0.6,2.5-1,1.4-2.2c-1.2-1.3-2,0.4-2.7,1.2c-0.4,0.5-0.8,1-1.6,1.8c-0.6-3.9,2-5.7,3.7-8.3c-1.4-0.7-3.8-0.8-2.8-3.4
					c0.9-2.3-0.1-5.8,4.1-5.9c1,0,2.2-0.4,2.9,0.8s0.7,2.2-0.3,2.9c-1.4,0.8-1.8,2.6-0.9,4c0.1,0.2,0.2,0.3,0.3,0.4
					C155.6,64.8,153.1,65.2,151.2,66z"/>
				<path d="M247.4,146.8c0.5,12.1-0.9,24.2-0.4,36.3l-1.8-0.1C244.5,170.9,245.2,158.7,247.4,146.8z"/>
				<path d="M210.3,157c-1.2,3.1-4.2,4.3-6.7,6c-7.2,5.1-15.7,8.2-24.5,8.9c-1.5,0.1-3.2,0.6-5.7-1.5c14.3-0.8,25.8-6.5,36.9-13.3
					L210.3,157z"/>
				<path d="M212.2,169.4c-1-1.1-0.2-2.3,0.2-3.3c2.3-6.1,5.9-11.5,9.3-17c0.5-0.9,1.3-1.9,2.5-1.1c0.7,0.4,0.4,1.2,0.1,1.8
					c-3.8,6.5-7.6,13-11.4,19.5C212.9,169.3,212.5,169.3,212.2,169.4z"/>
				<path d="M164.9,78.6c0.6-1.8,4.2-1,3-3.1c-1.3-2.2-3.7,0-5.8,0.1c3.3-2.7,10.6-3.2,13.2-0.6c0.7,0.7,1,2.9-0.3,3.8
					C173.3,80.1,168.3,79.8,164.9,78.6z"/>
				<path d="M189.4,76.3c3.5,1.8,7.1-0.2,9.8,2.6c-2.3,0.8-5-0.3-6.5,2.2c-0.3,0.6-6.7-3.3-7-4.2c-0.4-1.4,0.6-1.8,1.7-2.2
					c4.5-1.4,9.4-1,13.7,1.2C197.5,76.4,193.8,74,189.4,76.3z"/>
				<path d="M172.1,107.8c2.9-4,13-4.4,18.8-0.9C184.6,105.8,178.3,105.8,172.1,107.8z"/>
				<path d="M165.7,120.9c-0.1-3.6,2.6-6,4-8.9c0.3-0.7,1.1-1,1.8-0.7c0.1,0,0.1,0.1,0.2,0.1c0.5,0.4,0.6,1.2,0.2,1.8c0,0,0,0,0,0
					c-2,3.2-4.4,6.3-3.7,10.5c0.1,0.5-0.2,0.9-0.7,1c-0.1,0-0.2,0-0.3,0c-0.5-0.2-0.9-0.5-1.1-1
					C165.9,122.7,165.8,121.8,165.7,120.9z"/>
				<path d="M189.9,45.5c4.5-1.7,6.3-7,11.5-8.7C199.6,42.5,194.1,46.6,189.9,45.5z"/>
				<path d="M162.4,121.1c0-2.9-4.1-4.3-2.4-7.7c0.5-0.9,0.6-2.1,1.9-2.2c-0.1,2.1,3.7,0.8,3,3.3
					C164.2,116.7,164.5,119.2,162.4,121.1z"/>
				<path d="M102.3,104.3c5.8,0.1,10.6-2.5,15.9-5.4C115.2,104.2,106.6,106.9,102.3,104.3z"/>
				<path d="M97.5,89c4-4.2,12.1-4.5,15.7-0.6C108,87.3,102.6,87.6,97.5,89z"/>
				<path d="M149.6,51.5c1-2,3.6-2.3,3.6-4.7c0-0.7,1.6-0.6,2.5-0.3c1.1,0.4,2.3,0.9,2.5,2.3s-1,1.4-1.7,1.9
					C154.4,52.1,151.9,52.4,149.6,51.5z"/>
				<path d="M199.2,112c0.8,0.1,1.4,0.8,1.4,1.6c0.1,0.8-3.3,5.1-3.9,5c-0.9-0.3-1.5-1.1-1.5-2.1C195.1,115,197.8,112,199.2,112z"/>
				<path d="M155.4,103.6c-4.3,0.3-1-2.6-1.6-3.9c-0.2-0.8,0.2-1.7,1-1.9c0.4-0.1,0.8-0.1,1.1,0.1c1.8,0.8,2.1,2.4,0.9,4.2l0.1-0.1
					l-0.9,0.9l0.1-0.1c-0.3,0.3-0.6,0.6-0.9,0.9L155.4,103.6z"/>
				<path d="M228.3,142.4c1.3-1.3,2.5-0.8,3.6-0.6c1.4,0.3,3.9-0.4,3.6,1.7c-0.3,1.7-2.7,0.8-4.2,0.6
					C230,144.1,228.9,143.4,228.3,142.4z"/>
				<path d="M337.2,98.5c-0.7,1.6-2.5,1.4-3.8,2.2c-0.6,0.4-1.2-0.4-1.3-1.1c-0.2-1.8,1.1-2.2,2.4-2.4
					C335.6,97,336.7,97.1,337.2,98.5z"/>
				<path d="M118.9,151.8c1.5,2.7,0.2,5.1-0.8,7.5L118.9,151.8z"/>
				<path d="M129.4,123.9c-2.9-2-4-3.8-4-6.4C127.5,118.7,128.6,120.5,129.4,123.9z"/>
				<path d="M201.1,121.2c0,0.9-0.2,1.8-1.2,1.7c-1.3-0.1-1.6-1.2-1.6-2.3c-0.1-0.8,0.2-1.7,1.2-1.6
					C200.9,119,200.9,120.2,201.1,121.2z"/>
				<path d="M201.8,108.6c1,0.3,1.9,0.9,1.9,2.1c0,0.6-0.4,1.1-1,1.1c-0.1,0-0.2,0-0.3,0c-1.1-0.2-1.9-1.1-1.9-2.2
					C200.4,108.9,200.9,108.5,201.8,108.6z"/>
				<path d="M190.8,84.2c-2.6-0.5-3.5-1.3-3.2-3.5C189.5,81,190.1,82.1,190.8,84.2z"/>
				<path d="M358.4,37.2c-0.1-0.8,0.3-1.4,1.1-1.3c0.9,0,1.7,0.7,1.9,1.7c0.2,0.5-0.1,1-0.6,1.2c-0.2,0.1-0.3,0.1-0.5,0
					C359.3,38.7,358.6,38.1,358.4,37.2z"/>
				<path d="M355.1,38.7c0.9,0,1.6,0.4,1.8,1.3c0.1,0.5-0.3,1.1-0.8,1.2c-0.1,0-0.2,0-0.4,0c-0.8,0-1.5-0.7-1.5-1.5
					C354.1,38.9,354.7,38.8,355.1,38.7z"/>
				<path d="M132.2,355.9c-1.5-0.1-2.1-1.4-3.7-2.7c1.5,0.5,2.7,1.5,3.6,2.8L132.2,355.9z"/>
				<path d="M210.4,157.1l2.5-2.3c0,1.3-1.1,2.3-2.4,2.3c-0.1,0-0.2,0-0.2,0L210.4,157.1z"/>
				<path d="M204.8,104.5c0.6-0.6-0.3-2,1-2.2c0.5-0.1,0.9,0.3,1,0.7c0,0.1,0,0.1,0,0.2c-0.2,1.3-1.4,0.8-2.1,1.1L204.8,104.5z"/>
				<path d="M154.6,95.3c-0.3,0.3-0.7,0.6-1.1,0.8c-0.4,0.2-0.8-0.2-0.6-0.6c0.2-0.3,0.5-0.6,0.8-0.8
					C154.1,94.6,154.5,94.6,154.6,95.3z"/>
				<path d="M184.7,95.7c0.3,0.4,0.6,0.7,0.6,1c-0.1,0.3-0.4,0.5-0.7,0.5c-0.3-0.1-0.5-0.4-0.6-0.7C184,96.3,184.3,96,184.7,95.7z"
					/>
				<path d="M364.7,36.8c-0.1,0.5-0.4,0.7-0.8,0.6c-0.2-0.1-0.4-0.3-0.4-0.6c0-0.3,0.2-0.6,0.6-0.6c0.1,0,0.2,0,0.3,0
					C364.4,36.3,364.5,36.6,364.7,36.8z"/>
				<path d="M335.6,84.1c-0.4,0.3-0.7,0.7-1,0.7s-0.5-0.4-0.8-0.7c0.3-0.2,0.5-0.6,0.8-0.7S335.1,83.8,335.6,84.1z"/>
				<path d="M177.3,96.9c-0.3-0.3-0.8-0.5-0.8-0.8c-0.2-0.4,0-0.8,0.4-1c0.1-0.1,0.3-0.1,0.5,0c0.3,0.1,0.6,0.4,0.7,0.8
					C178,96.2,177.6,96.5,177.3,96.9z"/>
				<path d="M328.3,85.8c-0.3,0.2-0.6,0.3-0.9,0.5c-0.1,0-0.4-0.5-0.4-0.5c0.2-0.2,0.5-0.4,0.8-0.6
					C327.9,85.1,328.1,85.5,328.3,85.8z"/>
				<path d="M102.9,77.2c-0.2,0.2-0.3,0.5-0.5,0.5c-0.5,0.1-0.7-0.2-0.6-0.7c0.1-0.2,0.3-0.3,0.6-0.3
					C102.6,76.8,102.7,77.1,102.9,77.2z"/>
				<path d="M173.2,81.9l-0.1-0.3c0.1,0,0.2-0.1,0.2-0.1s0.1,0.2,0.1,0.2L173.2,81.9z"/>
				<path d="M132.1,356l0.9,1.1l0.1-0.1L132.1,356L132.1,356z"/>
				<path d="M375.1,257.9c-1.2-1.4-0.6-3-0.3-4.5c1.9-10.5,5.5-20.5,9.1-30.5c2.2-6.2,4.1-12.6,5.7-19.1
					c3.5-14.9,9.3-29.1,13.7-43.7c0.2-0.9,0.9-1.6,1.8-1.8c1.5,2.2,0.2,4.3-0.4,6.2c-3.6,11.8-8.1,23.4-10.8,35.4
					c-4.2,18.9-12.4,36.5-16.7,55.3C376.8,256.2,376.7,257.7,375.1,257.9z"/>
				<path d="M320.5,491.5c-2.6,3.2-1.7,7.1-1.2,11.5c0.4,3.3-1,6.7,1.1,10c0.4,1,0.4,2.1,0.1,3.1c-1.3,5.8-0.5,11.5,0.4,17.3
					c1.1,7.1,0.9,14.3,1.9,21.5c2.3,16.6,4.3,33.2,5.8,49.9c0.2,3.2,0.2,6.4-0.1,9.6c-0.6,6.4-3.3,11.4-9.6,14c-3.3,1.5-6,4-7.8,7.2
					c-1.3,2.2-2.5,1.9-4.1,0.7c-3.7-2.5-6.4-6-7-10.3c-0.6-4-2.5-7-5-9.7c-3-3.3-3.9-6.8-2-11c1.7-3.7,1.5-8-0.5-11.5
					c-0.3-0.6-0.9-1.4-0.7-1.8c2.7-5.6-0.7-12.1,2.7-17.6c4.8-7.7,6.7-16.1,6.8-25.1c0.1-7.5,2.9-14.6,3.9-22
					c0.9-6.3,2-12.6,2.9-18.9c0.5-4.1,0.3-8.3-0.6-12.3c-0.9-3.6-2-7.2-0.2-10.9c0.3-0.8,0.1-1.6-0.4-2.3
					c-5.6-10.2-3.6-20.5-0.5-30.8c0.4-1.2,0.9-2.2,2.4-2.3s2.1,1,2.4,2.2c3.1,12.5,6.2,25.1,9.2,37.6
					C320.4,490.1,320.5,490.8,320.5,491.5z M307.9,456.5c-1.1,5.8-1.7,10.8-1.3,15.8c0.6,6.3,5.4,11.9,2.9,18.7
					c-0.2,0.5,0.3,1.3,0.4,1.9c1.8,7,1.4,13.9,0.5,21c-1.6,12-4.9,23.7-6,35.8c-0.8,8-1.4,15.9-5.5,23.1c-2.1,3.6-3.9,7.2-2.6,11.6
					c0.3,1.6,0.1,3.2-0.8,4.7c-0.7,1.3-0.7,2.9,0,4.2c2.4,4.6,2.2,9.3,0.3,13.9c-0.9,2.3-0.3,3.9,1.2,5.8c3,3.8,6.5,7.4,6.3,12.9
					c-0.1,1.8,1.3,3.4,2.4,4.9c1.4,1.9,2.8,2.3,4.4,0.2c1.8-2.5,4.3-4.4,7.1-5.6c4.8-1.8,7-5.6,7.5-10.4c0.6-5.6,0.5-11.2-0.2-16.7
					c-2-16.6-3.9-33.3-6-49.9c-1-8,0.4-16.2-2.1-24c-0.4-1.7-0.3-3.5,0.1-5.2c0.6-2.9,1.1-5.6-1-8.4c-1.1-1.5-0.9-3.7-0.2-5.4
					c0.9-1.8,0.6-4-0.7-5.5c-1.4-1.9-1.6-4,0.3-5.8s1.9-3.6,1.3-5.9c-1.7-7-3.3-14-5.1-20.9C310.4,463.9,310.2,460.4,307.9,456.5
					L307.9,456.5z"/>
				<path d="M375.7,586.1c-0.6,9.3,2.3,18.2,0.9,27.3c-0.9,5.4-1.2,10.5,1.3,15.9c1.5,3.2,0.9,7.3-1.5,10.7c-2.9,4.3-5.7,8.7-8.6,13
					c-0.9,1.3-2.1,2.7-4,2.1c-2.1-0.7-1.5-2.6-1.3-4.1c0.9-6.7-1.3-13.1-1.8-19.6c-0.1-1.5-1.6-2-2.6-2.8c-4.1-3.3-4.1-7.1-0.3-10.8
					c1.7-1.7,1.9-4,1.8-6.3c-1.4-34.2-1.7-68.4-3.6-102.5c-0.1-2-1.3-5.1,0.9-5.8c2.8-1,3.1,2.6,4.2,4.3c1.4,2.1,2.5,4.4,3.9,6.5
					c2,3.3,3.1,6.6,2.2,10.6c-0.7,2.9,0.2,5.8,0.9,8.6C372.6,550.5,375.7,568.2,375.7,586.1z M365.1,649.1l1.3,0.3
					c2-3.2,3.9-6.5,6.1-9.6c3-4.3,3-8.6,0.7-13.1c-1.3-2.5-1.7-5.4-1-8.1c1.3-6.5,1.5-13.3,0.5-19.8c-0.5-4-0.8-7.9-0.8-11.9
					c0-18.2-2.5-36.4-7.4-54c-1-3.2-1.2-6.6-0.6-9.8c0.8-3.9-1.1-6.8-3.7-9.5c-0.2,5.9,0.2,11.8,0.4,17.7c0.7,27.5,1.3,55,1.9,82.6
					c0,2.3-0.4,4.6-2.1,6.2c-3.1,3-3.1,3.8,0.3,6.6c1.5,1.2,3,2.3,3,4.4C364,637,366.4,642.8,365.1,649.1L365.1,649.1z"/>
				<path d="M276.4,271.2c3,1.9,2.3,5.2,4.3,7.3c2.7-3.2,5.6-6.1,9.5-7.7c1.2-0.5,2.7-1.6,3.5,0c0.7,1.3-0.9,2.1-1.8,2.6
					c-3.1,1.8-6,3.9-8.6,6.4c-1.9,1.8-3.9,1.4-5.1-0.5C276.6,276.9,275.9,274,276.4,271.2z"/>
				<path d="M295.4,268.6c-0.2-3.4,1-5.9,2.8-8.5C299.3,263.2,298.4,265.8,295.4,268.6z"/>
				<path d="M276,95c0.1,1.2-0.6,2.4-1.7,2.9c-1.2,0.6-2.7,0.5-3.8-0.4c-1.8-1.4-3.4-3-5.2-4.3c-1.6-1.2-3.3-1.9-4.6,0.6
					c-0.7,1.3-1.8,2.4-3.6,1.4s-2.5,0.9-3.8,1.4s-2.3,0.9-3.2-0.3s0.1-2,0.8-2.8c1.1-1.1,2.4-2.2,3.5-3.3c1.6-1.5,2.8-3.3,3.7-5.2
					c1.4-3.1,1.4,2.9,4.5,2.2c4.5-1.1,8.4,1.7,11.7,4.8C275.3,92.7,275.9,93.8,276,95z"/>
				<path d="M260.6,111.9c0.1-2.5,0.3-2.6,2.3-1.8c0.4,0.1,0.8,0.5,1,0.1c2.4-3.5,6.8-2.3,9.8-4.2c0.7-0.4,1.1-1.1,1.3-1.9
					c0.2-1,0.1-2.7,1.4-2.4c1.6,0.4,2.7,1.8,2.9,3.4c0.2,1.3,0.1,3.2-1.4,3.4c-3.4,0.3-5.5,2.5-8.1,4.1c-0.9,0.6-2.4,2.6-3.8,0
					c-0.5-1-1.2,0.3-1.6,0.9c-0.5,1-1.6,1.5-2.7,1.2C260.3,114.2,261,112.6,260.6,111.9z"/>
				<path d="M283.9,100.3c0,1.3,0.4,3-1.6,2.9c-2.6-0.2-2.4-2.7-2.9-4.5c-0.2-1.1-0.4-2.6,1.4-2.6
					C283.5,96.2,283.9,98.2,283.9,100.3z"/>
				<path d="M287.2,90c0,1.1,0.5,2.4-1.2,2.7c-0.3,0-0.9-0.6-1-1C284.8,89.9,286,89.9,287.2,90L287.2,90z"/>
				<path d="M338.6,67.5c1.1-1.7,3.1-2.6,5.1-2.2c0.8,0,1.5,0.7,1.5,1.5c0,0.2,0,0.3-0.1,0.5c-0.1,0.8-0.7,1.3-1.5,1.2
					c-0.2,0-0.5-0.1-0.6-0.2C341.7,67.4,340.1,67.1,338.6,67.5z"/>
				<path d="M317.2,70.7c1.3-2.1,2.9-2.7,4.8-2c0.9,0.3,1.4,1.2,1.1,2.1c0,0.1-0.1,0.2-0.1,0.3c-0.3,0.9-1.2,1.3-1.9,0.7
					C320,70.6,318.6,71.7,317.2,70.7z"/>
				<path d="M430,5v675.7H40V5H430 M435,0H35v685.7h400V0z"/>
			</g>
		</g>
		<rect x="4" y="493.1" transform="matrix(0.9992 -3.891102e-02 3.891102e-02 0.9992 -20.5942 9.5481)" width="462" height="81.5"/>
		<path class="st0" d="M461.8,486.7l3,76.4L8.2,581l-3-76.5L461.8,486.7 M466.6,481.6L0,499.7l3.4,86.4L470,568L466.6,481.6
			L466.6,481.6z"/>
		<path class="st0" d="M145.2,515.6c-0.3-1.7-0.2-3.8-1.7-5c-1.6-1-3.6-1.5-5.5-1.4c-4.9,0-9.8,1.8-14,3.9c-0.2,0.1-0.2,0.3-0.2,0.4
			c-0.4-0.4-0.9-0.4-1.3,0c-0.2,0.2-0.2,0.4-0.3,0.6c-0.6,9-0.9,18-1.1,26.9c-0.3,0.2-0.5,0.5-0.5,0.9c0,3.4,0.2,6.8,0.3,10.2
			c0,1.9,0,3.8,0,5.6c-0.2,0.2-0.3,0.4-0.2,0.7c0.1,0.9,0.2,1.8,0.3,2.7c0,2.1,0.1,4.2,0.1,6.3c0,0.5,0.3,0.9,0.8,0.9
			c0.1,0,0.3,0,0.4-0.1c0.2,0.3,0.5,0.4,0.9,0.3l0.2-0.1l0.2,0.4c0,0.1,0.2,0.2,0.3,0.2c0.1,0,0.2-0.2,0.2-0.3l0,0
			c0-0.1-0.1-0.3-0.1-0.4c3.6-1.2,6.7-3.5,9.6-5.9c1.6-1.3,3.4-2.9,4.3-4.9c0.2,0.1,0.4,0,0.5-0.1c3.6-5.1-0.8-12.2-3.8-16.5
			c-1.6-2.5-3.5-4.7-5.8-6.6c3.7-2.5,7.4-5.2,10.8-7.9c1.8-1.3,3.4-2.9,4.8-4.6C145.9,519.9,145.5,517.7,145.2,515.6z M142.1,517.8
			c-0.4,4.1-3.6,6.7-6.5,9.3c-2.5,2.3-5.2,4.3-7.7,6.5c-1-0.7-2.2-1.4-3.4-1c-0.2-0.3-0.5-0.4-0.8-0.2c-0.1,0.1-0.2,0.2-0.3,0.4
			c-0.2,0.9-0.3,1.8-0.2,2.8c0,0.5,0.4,0.8,0.9,0.8c0.4,0,0.7-0.3,0.8-0.6c0-0.1,0-0.1,0-0.2c7,4.3,12.8,10.6,12.7,19
			c-0.3,0-0.6,0.2-0.7,0.5c-0.4,1.2-1.1,2.4-2,3.3h-0.1c-1.7,0.2-2.9,1.2-4.4,2c-1.8,1-3.5,2.1-5.3,3.1c-0.1,0.1-0.2,0.2-0.3,0.3
			c-0.5,0.1-0.9,0.4-1.2,0.7c-0.1-4.9-0.2-9.8-0.4-14.6c0.2-0.2,0.3-0.4,0.3-0.7c0-2.4-0.2-4.8-0.7-7.1c0.2-9.3,0.5-18.5,1-27.8
			c0-0.1,0-0.2,0-0.3c0.1,0.1,0.3,0.2,0.4,0.1c3.8-1.9,8-3,12.2-3.4c1.7-0.1,5.6-0.3,6,1.8C142.5,514.2,142.4,516,142.1,517.8z"/>
		<path class="st0" d="M163.1,514c-0.1-0.7-0.2-1.4-0.4-2.1c-0.2-0.6-0.9-0.9-1.5-0.7c-0.3,0.1-0.6,0.4-0.7,0.7
			c-0.4,0.2-0.7,0.6-0.8,1c-0.1,0.7-0.2,1.4-0.3,2c-3.1,3.9-6.1,7.9-8.7,12.1c-1.1,1.9-2.2,3.9-3.2,5.9c-0.4,0.3-0.6,0.7-0.6,1.2
			c-0.2,0.3-0.5,0.6-0.6,0.8c-0.1,0.2-0.1,0.5,0,0.7c-1.1,2.3-2,4.7-2.9,7.1c-0.2,0.6,0.8,1,1.1,0.4c1-2.4,2-4.8,3.2-7.2l0.3-0.2
			c0.1,0,0.3,0,0.4-0.1l0.4-0.3c0.7-0.3,1.4-0.4,2.1-0.3c0.6,0.1,1.1,0.4,1.8,0.4c1.1,0.1,2.1,0,3.1,0l2.7,0.8l0.1,3.3
			c0.3,9.1,1,18.3,2.1,27.3c0.1,1.9,3.1,1.8,3-0.1c-0.3-6.1-0.8-12.1-1.2-18.2c0.3-10.7,1.7-21.5,0.1-32.1c0-0.5,0.1-1,0.1-1.4
			C163,514.9,163.2,514.5,163.1,514z M158.3,534.2c-1.3-0.4-2.6-0.7-4-0.6l-0.7-0.2c-1.4-0.4-2.8-0.8-4.2-0.9
			c0.8-1.4,1.6-2.9,2.4-4.3c2.2-4,4.7-7.8,7.4-11.5C158.5,522.5,158.2,528.3,158.3,534.2L158.3,534.2z"/>
		<path class="st0" d="M195.1,544.5c0.3-0.5,0.3-1.1,0-1.6c-2.8-4-7.1-6.7-11.9-7.8c-1.7-0.4-3.5-0.5-5.2-0.3
			c5.1-4.3,9.6-9.3,13.1-15c0,0,0-0.1,0.1-0.1c2-3.1,3.3-6.6,3.7-10.3c0.2-2.1,0.3-5.5-1.1-7.3c-1.3-1.7-3.5-0.9-5.2-0.5
			c-6.2,1.3-12.1,3.8-17.3,7.3c0-0.1-0.1-0.1-0.1-0.2c-0.4-0.3-1,0-1.4,0.3c-0.2,0.1-0.3,0.3-0.4,0.5c-0.2,0-0.4,0.3-0.4,0.5
			c1.1,9,2.4,17.9,3.3,26.9c-0.1,0.2-0.2,0.4-0.2,0.6c-0.1,0.3,0.1,0.6,0.3,0.8c-0.2,1.8,0,3.6,0.5,5.3c0.9,8.6,1.2,17.2,0.9,25.9
			c-0.1,1.1,1.6,1.1,1.8,0.2c0.1-0.5,0.3-1,0.4-1.5c0.2,0.4,0.7,0.5,1.1,0.5l2-0.2c0.1,0,0.2,0,0.3-0.1c3.4-0.5,6.7-1.7,9.7-3.5
			c3.5-2.1,7.3-5.4,8.4-9.5C198.3,552,196.9,547.9,195.1,544.5z M173.5,533.7c-0.7-7.9-1.9-15.8-3.5-23.6l0.4-0.3l0.1-0.1
			c0,0.2,0.3,0.4,0.5,0.3c0.1,0,0.1,0,0.1-0.1c4.3-2.6,8.9-4.7,13.8-6.3c2.2-0.7,6.6-2.6,8.3-0.3c0.7,0.9,0.6,2.9,0.6,4
			c0,1.4-0.1,2.8-0.5,4.2c-0.6,2.4-1.6,4.8-2.9,6.9l-1.2-0.1c-0.4-0.1-0.8,0.1-1,0.5c-3,5.5-7.2,10.2-12.4,13.8c0,0-0.1-0.1-0.1-0.1
			c-0.5-0.3-1.1-0.3-1.5,0.2L173.5,533.7z M193.4,556.3c-3.1,5.5-10.4,9.1-16.4,9.8c-0.2,0-0.3,0.1-0.5,0.2c1-4.1,1.2-8.4,0.8-12.6
			c-0.3-2.7-0.7-5.4-1.1-8.1c-0.3-2.5-0.3-5.6-1.6-7.8c0-0.1-0.1-0.1-0.1-0.2c0.3-0.2,0.6-0.5,1-0.7c1.5-0.1,3,0,4.4,0.2
			c1.1,0.2,2.1,0.4,3.1,0.7c0,0.8,0.5,1.5,1.2,1.8c2.1,0.7,4.1,1.8,5.9,3.1c0.8,1,1.4,2,1.9,3.1C193.4,549,195.2,553,193.4,556.3z"
			/>
		<path class="st0" d="M225.3,503.4c-2.7,3.8-4,8.8-6.2,12.9c-1.5,2.9-3.6,5.4-5.1,8.3c-0.5-2.3-1.3-4.5-2.4-6.6
			c-0.4-0.8-0.7-1.6-1.1-2.3s-0.5-1.5-0.8-2.3c-1.4-3.6-3-7.5-5.4-10.6c-0.8-1-2.8-0.4-2.3,1.1c0.6,1.8,1.4,3.5,2.1,5.2
			c-0.2,0.4-0.1,0.8,0.1,1.1c0.8,2.3,1.8,4.6,3,6.8c0.9,2.7,1.6,5.4,2.7,8c-0.7,4.1-0.4,8.3,0.8,12.3c-0.1,1.3-0.3,2.5-0.4,3.8
			c-2.4,7.6-3.5,15.4-3.3,23.4c0,0.2,0.3,0.2,0.3,0c0.3-5.3,0.9-10.7,1.9-15.9c-0.2,1.8-0.1,3.7,0.2,5.5c0,0.1,0,0.1,0.1,0.1
			c0,1.3,0.2,2.6,0.4,3.9c0.1,0.6,1.1,0.9,1.2,0.1c0.1-1.2,0.2-2.3,0.3-3.5c0,0.4,0.1,0.9,0.2,1.3c0.1,0.2,0.2,0.3,0.4,0.2
			c0.1,0,0.2-0.1,0.2-0.2c0.1-1.6,0-3.2-0.1-4.7c0-0.2-0.2-0.3-0.4-0.3c-0.1,0-0.1,0-0.2,0c0.1-2.6,0.1-5.2,0.3-7.7
			c0.1-1.4,0.3-2.9,0.4-4.4c0.2-0.1,0.3-0.3,0.4-0.6c0-0.6,0-1.1-0.1-1.7c0.1-0.8,0.2-1.5,0.4-2.3c0.8-3,2-5.9,3.5-8.6
			c0.1-0.2,0.1-0.4-0.1-0.5c0.6-0.8,1.3-1.6,2-2.5c1.3-1.7,2.5-3.5,3.5-5.4c1.1-2.1,2.1-4.3,3-6.5c1-2,1.9-4.1,2.5-6.3
			C227.5,503.4,226,502.4,225.3,503.4z"/>
		<path class="st0" d="M324.6,518.1L324.6,518.1c0-0.2,0-0.4-0.1-0.6c-0.1-0.2-0.2-0.4-0.4-0.4c0,0,0-0.1,0.1-0.2
			c0.3-1.3-0.6-3-1-4.3c-0.1-0.4-0.5-0.6-0.9-0.5c-0.4,0.1-0.6,0.5-0.5,0.9c0.3,1.3,0.4,3.2,1.3,4.2c0.1,0.1,0.2,0.1,0.3,0.2
			c0,0.1,0,0.2,0,0.3c-0.1,0.1-0.2,0.2-0.2,0.4l0.1,1c0,0.1,0,0.2,0,0.3c0,0.9,0.2,1.8,0.6,2.7c0.1,0.1,0.2,0.1,0.3,0
			c0,0,0.1-0.1,0.1-0.1c0-0.5,0-1-0.1-1.5c0-0.2,0-0.3-0.1-0.5c0.1,0,0.1-0.1,0.1-0.1c0-0.1,0-0.1,0-0.2c0.4,0,0.7-0.2,0.7-0.6
			c0,0,0,0,0,0C324.9,518.7,324.8,518.4,324.6,518.1z"/>
		<path class="st0" d="M257.2,520c0-2.7-0.5-5.4-1.4-7.9c0-0.2-0.1-0.5-0.1-0.7c0-0.3-0.2-0.5-0.4-0.6c0-0.1-0.1-0.2-0.1-0.3
			c-0.6-1.2-2.2-0.2-2,0.9c0.7,3.1,0.5,6.5,0.7,9.7c0.2,2.7,0.4,5.4,0.8,8.1c0.1,4,0.2,8.1,0,12.2c-0.1,4-0.5,8-1.2,12
			c-0.4,2.2-1,7.8-3,10.6c-1.9-0.3-3.6,1.3-5.6,1.1c-3.1-0.3-4.9-2.3-7.2-4c-0.1-0.1-0.3,0-0.2,0.2l0.4,0.6
			c-0.1,0.1-0.2,0.2-0.3,0.3c-0.4-0.4-0.9-0.8-1.4-1.2c-0.1-0.1-0.2-0.1-0.2,0c-0.1,0.1-0.1,0.2,0,0.2c0.6,1.1,1.5,2,2.6,2.7
			c2.7,3,6.8,4.7,10.8,3.3c5.7-2,6-7.5,6.5-12.6c0.7-7,1.3-14,1.4-21c0.1-4.2-0.1-8.4-0.5-12.5C257.1,520.7,257.3,520.4,257.2,520z
			 M253.8,556.3c-0.4,1.8-1,3.6-1.8,5.2c0.1-0.3,0.2-0.6,0.3-0.9C252.9,559.2,253.4,557.7,253.8,556.3L253.8,556.3z M247.8,566.1
			l0.3-0.1c0.5-0.1,0.9-0.2,1.3-0.5c0.2-0.1,0.5-0.1,0.7-0.1C249.4,565.7,248.6,566,247.8,566.1L247.8,566.1z"/>
		<path class="st0" d="M282.7,511.7c-2.4-1.3-5.9-0.8-8.6-0.7c-3.2,0-6.4,0.3-9.5,0.7c-0.1-0.4-0.7-0.3-0.7,0.1
			c-0.9,9-1.2,18.1-0.8,27.2c0.2,4.3,0.7,8.5,1.5,12.7c0.4,2,0.9,4,1.6,6c0.6,2.3,1.2,4.6,2,6.9c0.3,1.1,1.8,0.7,1.9-0.2
			c3.9-1.5,7.7-3,11.6-4.6c0.2-0.1,0.3-0.3,0.2-0.5c-0.1-0.2-0.2-0.2-0.4-0.2c-4.1,0.8-8,2.4-11.5,4.5c-2.4-7.5-3.8-15.3-4.1-23.2
			c1.5-0.2,3-0.4,4.5-0.4c1.9,0,3.9,0.1,5.8,0.1c0.7,0,1-1,0.3-1.3c-3.4-1.3-7.1-1.5-10.6-0.6c0-2.5,0-5,0.2-7.5c0-0.6-0.4-1-1-1
			c-0.3,0-0.6,0.1-0.8,0.3c0-5.9,0.2-11.8,0.4-17.8c3.3,0.2,6.5,0.5,9.8,0.8c2.6,0.3,5.6,1.3,8.1,0.6c0.6-0.2,0.9-0.8,0.7-1.4
			C283.1,512,282.9,511.8,282.7,511.7z"/>
		<path class="st0" d="M301.2,526.7c-2.6-2.1-5.6-3.9-8.8-5.1c-1.4-0.5-2.8-1-4.1-1.5c-1.2-0.5-3.7-1.6-4.1-3c-0.6-2,2.4-3.4,4-4
			c1.5-0.5,3-0.7,4.5-0.7c3.4,0,6.6,1.4,9,3.8c0.4,0.5,1.1-0.3,0.7-0.7c-3.3-3.4-8.1-4.8-12.7-3.9c-2.2,0.4-4.8,1.4-6.3,3.1
			c-1.6,1.9-0.2,3.8,1.5,5.1c2.1,1.7,4.7,2.5,7.2,3.5c3.1,1.4,5.9,3.3,8.5,5.6c0.3,0.2,0.5,0.4,0.7,0.6c1.4,2.4,2.8,4.6,3.3,7.3
			c0.3,1.3,0.3,2.7,0.1,4c-0.2,0.7-0.4,1.5-0.6,2.2c-0.4,0.2-0.8,0.4-1.2,0.5c-3.7,1.3-8.1,0.1-11.9-0.4c-1.8-0.3-3.8-0.3-5.6-0.8
			c-0.9-0.2-0.9-0.2-0.9-1s0.5-1.2,1.2-1.8c0.8-0.7,1.7-1.3,2.7-1.8c0.7-0.4,0-1.5-0.7-1.1c-1.7,1-6.1,3.3-5,5.8
			c0.5,0.8,1.3,1.4,2.3,1.7c1.8,0.5,3.6,0.9,5.5,1.1c4.1,0.8,10,2.2,14.3,0.5c0.5,0,1-0.2,1.2-0.6c1.2-0.7,2.2-1.8,2.8-3.1
			C311.8,536,305.8,530.2,301.2,526.7z"/>
		<path class="st0" d="M324.6,522.7c0-0.1-0.2-0.2-0.3-0.1c-0.1,0-0.1,0.1-0.1,0.2c0.5,3.8,1.2,8,0.5,11.8c-0.3,2.5-2,4.6-4.4,5.5
			c-2.3,0.7-4-0.8-5-2.7c-1.7-3-2.2-6.8-2.9-10.2c-0.8-3.9-1.2-7.9-2-11.8c-0.2-1.3-2.2-0.8-2.1,0.4c0.1,5.4,1.4,10.9,2.8,16
			c0.9,3.3,1.9,8.3,5.8,9.3c3.5,0.8,6.4-1.4,7.7-4.5C326.4,532.4,325.7,527.1,324.6,522.7z"/>
		<path class="st0" d="M343.9,509.8c-2.3-2.8-4.8-5.4-7.2-8.1c-2.1-2.3-3.2-6-6.7-6.6c-0.7-0.2-1.4,0.1-1.9,0.6
			c-2.7,3.3-2.1,9.7-0.4,13.3c1,2.1,2.4,4.1,4.1,5.8c2.1,2,6.7,4.2,7.1,7.3c0.7,6.2-4.3,12.3-7.8,16.8c-1.8,2.2-3.8,5.6-6.4,6.9
			c-2.2,1.1-3.5-0.5-4.8-2.3c-0.8-1.3-1.7-2.5-2.7-3.7c-0.6-0.7-1.5,0.1-1.4,0.9c0.5,2.6,3.2,7,5.8,8.2s5.3-1.5,6.9-3.2
			c5.1-5.1,10.6-12.3,12.3-19.5c0.6-2.8,0.9-5.8-1.2-8c-3.1-3.2-7.4-5-9.1-9.5c-0.8-2.1-1.2-4.3-1.1-6.6c0-0.8,0-2.5,0.7-2.6
			c0.4-0.1,1.6,1,2,1.3c4.1,2.7,7.1,6.6,10.6,10C343.4,511.4,344.5,510.5,343.9,509.8z"/>
	</g>
</g>
</svg>
