<?xml version="1.0" encoding="utf-8"?>
<!-- Generator: Adobe Illustrator 22.1.0, SVG Export Plug-In . SVG Version: 6.00 Build 0)  -->
<svg version="1.1" id="Layer_1" xmlns="http://www.w3.org/2000/svg" xmlns:xlink="http://www.w3.org/1999/xlink" x="0px" y="0px"
	 viewBox="0 0 250 137.9" style="enable-background:new 0 0 250 137.9;" xml:space="preserve">
<style type="text/css">
	.st0{fill:#FFFFFF;}
	.st1{enable-background:new    ;}
</style>
<metadata><?xpacket begin="﻿" id="W5M0MpCehiHzreSzNTczkc9d"?>
<x:xmpmeta xmlns:x="adobe:ns:meta/" x:xmptk="Adobe XMP Core 5.6-c143 79.161356, 2017/09/07-01:11:22        ">
   <rdf:RDF xmlns:rdf="http://www.w3.org/1999/02/22-rdf-syntax-ns#">
      <rdf:Description rdf:about=""
            xmlns:xmp="http://ns.adobe.com/xap/1.0/"
            xmlns:xmpGImg="http://ns.adobe.com/xap/1.0/g/img/"
            xmlns:xmpTPg="http://ns.adobe.com/xap/1.0/t/pg/"
            xmlns:stDim="http://ns.adobe.com/xap/1.0/sType/Dimensions#"
            xmlns:xmpG="http://ns.adobe.com/xap/1.0/g/"
            xmlns:dc="http://purl.org/dc/elements/1.1/"
            xmlns:xmpMM="http://ns.adobe.com/xap/1.0/mm/"
            xmlns:stEvt="http://ns.adobe.com/xap/1.0/sType/ResourceEvent#">
         <xmp:CreatorTool>Adobe Illustrator CC 22.1 (Windows)</xmp:CreatorTool>
         <xmp:CreateDate>2018-08-18T13:45:35+02:00</xmp:CreateDate>
         <xmp:Thumbnails>
            <rdf:Alt>
               <rdf:li rdf:parseType="Resource">
                  <xmpGImg:width>256</xmpGImg:width>
                  <xmpGImg:height>144</xmpGImg:height>
                  <xmpGImg:format>JPEG</xmpGImg:format>
                  <xmpGImg:image>/9j/4AAQSkZJRgABAgEASABIAAD/7QAsUGhvdG9zaG9wIDMuMAA4QklNA+0AAAAAABAASAAAAAEA&#xA;AQBIAAAAAQAB/+4ADkFkb2JlAGTAAAAAAf/bAIQABgQEBAUEBgUFBgkGBQYJCwgGBggLDAoKCwoK&#xA;DBAMDAwMDAwQDA4PEA8ODBMTFBQTExwbGxscHx8fHx8fHx8fHwEHBwcNDA0YEBAYGhURFRofHx8f&#xA;Hx8fHx8fHx8fHx8fHx8fHx8fHx8fHx8fHx8fHx8fHx8fHx8fHx8fHx8fHx8f/8AAEQgAkAEAAwER&#xA;AAIRAQMRAf/EAaIAAAAHAQEBAQEAAAAAAAAAAAQFAwIGAQAHCAkKCwEAAgIDAQEBAQEAAAAAAAAA&#xA;AQACAwQFBgcICQoLEAACAQMDAgQCBgcDBAIGAnMBAgMRBAAFIRIxQVEGE2EicYEUMpGhBxWxQiPB&#xA;UtHhMxZi8CRygvElQzRTkqKyY3PCNUQnk6OzNhdUZHTD0uIIJoMJChgZhJRFRqS0VtNVKBry4/PE&#xA;1OT0ZXWFlaW1xdXl9WZ2hpamtsbW5vY3R1dnd4eXp7fH1+f3OEhYaHiImKi4yNjo+Ck5SVlpeYmZ&#xA;qbnJ2en5KjpKWmp6ipqqusra6voRAAICAQIDBQUEBQYECAMDbQEAAhEDBCESMUEFURNhIgZxgZEy&#xA;obHwFMHR4SNCFVJicvEzJDRDghaSUyWiY7LCB3PSNeJEgxdUkwgJChgZJjZFGidkdFU38qOzwygp&#xA;0+PzhJSktMTU5PRldYWVpbXF1eX1RlZmdoaWprbG1ub2R1dnd4eXp7fH1+f3OEhYaHiImKi4yNjo&#xA;+DlJWWl5iZmpucnZ6fkqOkpaanqKmqq6ytrq+v/aAAwDAQACEQMRAD8A8qYq7FXYq7FXYq7FXYq7&#xA;FXYq7FXYq7FWQfl7/wAp95a/7atj/wBRKYq/TTFXYq7FXYq7FXYq7FXYq7FXYq7FXYq7FXYq7FXY&#xA;q7FXYq7FX5V4qz/8jPI2i+d/zIsPLustMun3MVw8ht3CSVihaRaMyuOq+GKs+0ryz/zirrevQ+XL&#xA;a88yWGoXk4s7e6nNv6Kzs3BAxCSbM+24p4kdcVS3yN+R2kP+dOveQvNc08tpotpPdCezZYpJFURS&#xA;Qv8AEJAOcUwJXx74qqaHpH/OLfmXVrbQrKTzTpF9qMi29ne3n1NoFnkYJGHEZlajMQOgHuOuKsf8&#xA;tflJCn57Qflv5jleSBbuS3uZ7U+mzxi3aeKRCwfjzXiaEHFU91m3/wCcWNJ1i+0q5svN73Gn3Etr&#xA;M8bWBQvC5jYqWkU0qu1QMVSj8vPy38nfmH+Z2oWGj3F9pvkqwtn1GWS7EbX4toRGjp+79SPm0km1&#xA;K/D2J2xVk2i2P/OK3mjWYPK1haa9o95ey/VdP1yaRGjeZzxi9RC8vEM1AP3Y678euKpD5N/IhtR/&#xA;N3WfJOuXzW2n+XI57vVL2BaySWsJTgYlIejSrMjbg0FepxVPtFsf+cVvNGsweVrC017R7y9l+q6f&#xA;rk0iNG8znjF6iF5eIZqAfux1349cVeQ+efKV75Q83ar5bvHEk+mTtD6yigkTZo5AN6c0ZWp74qv/&#xA;AC9/5T7y1/21bH/qJTFX6aYq7FXYq7FXYq7FXYq7FXYq7FXYq7FXYq7FXYq7FXYq7FXYq/KvFXsH&#xA;/OJ//k7dI/4wXn/UM+KsktrL/nF7yv5t/TU3mLW9S1DSL03I0wW3FHuIJeQXkYogQHX+cA+OKpj+&#xA;SPnX/G//ADkR5m80XcBtodR0q6P1dSCyQRCCGNa7AsIoxU+OKof8vIv+cVJfPGiJYNryaj9chNgd&#xA;RMS2v1lXBhEhi+Khkp7eO2Ku09dbX/nNEDWmja+/SMhBh5cPQNgxtqct9rfhX3xVKfOGt/8AONae&#xA;bdbTUfLvmCXUFv7oXksVzCI2mEzeoyAyCilq0xVK/wAvZ9Z0nzD5m/Mf8roltvLvlmKL67peqSF7&#xA;iSzuV+KNxGGDVeBmqHFKDFWTaJ5n/wCcd/P+v2Ud1oN35E813U8f1TVNNlVrRbvkDEStPTWslP8A&#xA;dA92HXFVCGy/OXyn+Z3njztHqVrq2qeTxDH5hlugYje2NxEvofuY1Ao0MKNswoVG57qq+ieZ/wDn&#xA;Hfz/AK/ZR3Wg3fkTzXdTx/VNU02VWtFu+QMRK09NayU/3QPdh1xV5V+clj5nsfzM12z80X51TWoJ&#xA;o0n1AosZmjEKeg/BQAtYOG36+uKpX+Xv/KfeWv8Atq2P/USmKv00xV2KuxV2KuxV2KuxV2KuxV2K&#xA;uxV2KuxV2KuxV2KuxV2KuxV+VeKs/wDyM886L5I/Miw8xayszafbRXCSC3QPJWWFo1orMg6t44qw&#xA;7Xb2G+1vUL2GohurmaaLkKNxkkLLUb70OKs4/Inz/oXkfzfeatrSztaz6Zc2SC3QSP6sxQrUMybf&#xA;Aa74qw7ynqdtpXmnRtUugxtrC+trmcIKtwhmV24gkVNF2xV6pefm95Um/wCclV/MhEuv8PCWJyhj&#xA;X6zRNOW1P7vnx/vF/m6YqjdX1P8A5xQ1XVr3VLoeaBc388tzOEFsF5zOXbiCTQVbbFUl8i/mp5Q8&#xA;h+eddh0qxutU/LjXoRZX2nXfAXbwFKF9iqF1Z5AFqAVbqDuFU+0nUv8AnFPy9r9v5n0+bzFe3Onz&#xA;JeWOjyJD6ImjbmiszKhKo3HrJ235Yqlvl3/nIhoPzN8zeYte0v655b84J9U1rR42BcWsaejBwLFA&#xA;7xw/CakBqn7O1FUy0nUv+cU/L2v2/mfT5vMV7c6fMl5Y6PIkPoiaNuaKzMqEqjcesnbfliryn8xv&#xA;Olz5187at5ouYRbvqUwZIAeXpxRosUSFv2iscagnucVU/wAvf+U+8tf9tWx/6iUxV+mmKuxV2Kux&#xA;V2KuxV2KuxV2KuxV2KuxV2KuxV2KuxV2KuxV2KvyrxV2KuxV2KuxV2KuxV2KuxV2KuxV2Kp35Hur&#xA;a086+X7q6kWG2t9Ss5Z5nNFREnRmZiegAFTir9BP+V1/lH/1N+lf9JUX9cVd/wArr/KP/qb9K/6S&#xA;ov64q7/ldf5R/wDU36V/0lRf1xV3/K6/yj/6m/Sv+kqL+uKu/wCV1/lH/wBTfpX/AElRf1xV3/K6&#xA;/wAo/wDqb9K/6Sov64q7/ldf5R/9TfpX/SVF/XFXf8rr/KP/AKm/Sv8ApKi/rirv+V1/lH/1N+lf&#xA;9JUX9cVd/wArr/KP/qb9K/6Sov64q7/ldf5R/wDU36V/0lRf1xV3/K6/yj/6m/Sv+kqL+uKu/wCV&#xA;1/lH/wBTfpX/AElRf1xV3/K6/wAo/wDqb9K/6Sov64qyDy75r8s+ZbR7vQNUttUtonMcstrKsoVx&#xA;+y3Emh8K4qmuKuxV2KuxV8h/84ufk9+XPnjyhq2oeaNI/SF5bagbeCX6xdQcY/RjfjxgliU/Ex3I&#xA;rir2f/oVz8if+pZ/6ftQ/wCyjFXf9CufkT/1LP8A0/ah/wBlGKu/6Fc/In/qWf8Ap+1D/soxV3/Q&#xA;rn5E/wDUs/8AT9qH/ZRirv8AoVz8if8AqWf+n7UP+yjFXf8AQrn5E/8AUs/9P2of9lGKu/6Fc/In&#xA;/qWf+n7UP+yjFXf9CufkT/1LP/T9qH/ZRirv+hXPyJ/6ln/p+1D/ALKMVd/0K5+RP/Us/wDT9qH/&#xA;AGUYq7/oVz8if+pZ/wCn7UP+yjFXf9CufkT/ANSz/wBP2of9lGKu/wChXPyJ/wCpZ/6ftQ/7KMVd&#xA;/wBCufkT/wBSz/0/ah/2UYq7/oVz8if+pZ/6ftQ/7KMVd/0K5+RP/Us/9P2of9lGKu/6Fc/In/qW&#xA;f+n7UP8AsoxV3/Qrn5E/9Sz/ANP2of8AZRirv+hXPyJ/6ln/AKftQ/7KMVd/0K5+RP8A1LP/AE/a&#xA;h/2UYq7/AKFc/In/AKln/p+1D/soxV3/AEK5+RP/AFLP/T9qH/ZRirv+hXPyJ/6ln/p+1D/soxV3&#xA;/Qrn5E/9Sz/0/ah/2UYq7/oVz8if+pZ/6ftQ/wCyjFWH/m//AM49fk/5f/LTzDrWkaB9W1OxtGlt&#xA;bj63eycHDAV4STuh69xir5E8ueZ/MPlrU49U0HUJtOv4vszwMVJH8rD7Lqe6sCDir6c/LH/nMqGT&#xA;0tO/MG19J/sjXLJCUPvPbqCR7tHX/UGKvpXQ9e0XXtNi1PRr2HUNPnFYrm3cOh8RUdCO4O4xVH4q&#xA;7FXzr/zhL/ygOu/9tU/9Q0WKvorFVss0UMbSzOscSCru5CqAO5J2GKpIfPvkYS+kfMWliWvH0ze2&#xA;/Ll0pTnWuKpzb3NvcwrPbSpPC4qksbB1I8QwqDiqpirsVdirsVdirsVdirsVdirsVdirsVdirsVd&#xA;irsVdirsVdirsVdirAPz+/8AJNebP+YFv+JLir86sVdirIPJvn7zf5M1L9IeW9Tl0+c0EqIQ0UoH&#xA;7MsTckcf6wxV9T/ll/zmJ5d1URaf54txot+aKNTgDSWch8XX4pIf+GXxIxV9D2V9ZX9pFeWNxHdW&#xA;k684biB1kjdT+0rqSrD5Yq+e/wDnCX/lAdd/7ap/6hosVey/mP54sPI/kzUvMt6vqpZR/uLevEyz&#xA;uQkUYO9OTsKnsKnFXxCsv5x/nt5nmijkl1Ax/vXg5+hp1nGxIX4SeC+A6u1O+Ks2X/nCf8xTDybW&#xA;tIE3Gvp87kry8OXofjTFWFapov5yfkXr9vP9Yl04TsWguLWQzWF1xpyR1ICP7rIobv4HFX2R+TP5&#xA;oWn5j+SoNcSNbfUImNtqtohPGO5QAtwrU8HVgy18aVJBxV4z+ef5D/mv5u/MjUNd8vPENKuIrdIQ&#xA;936JrHCqP8Hb4lOKsA/6FZ/Pn+eD/pPxV5nDoHnGXzufJaXT/pwag2lFDcN6f1lJTCRzrTjzXrir&#xA;0z/oVn8+f54P+k/FXo35B/kb+afk78woda8yNEdMS2niYJdesecigL8GKvpnFXwr/wA5WeaJPMn5&#xA;vy6VaFpodFii02CNdw1wx9SXiP5ucnpn/VxVjHnbyxq35RfmjZwxOZLjSjY6lZzn4RKQqSN0/Z9V&#xA;XQ/LFX6D6VqVrqml2ep2bc7S+gjubd/5o5kDofpVsVRWKvI/+cq5pofyV1eSF2jkE9nR0JU73Kdx&#xA;ir5K/Lj8sfzK/MOG+m8t3HqJpzRpc+vdNEQZQxWla1+wcVZl/wBCs/nz/PB/0n4qlUuo/wDOQX5K&#xA;alay38t5aWUj0jhnl+uabPTcps0kYYqOxVwPDFX2H+U/5laZ+Ynk228wWaehPyMGo2VeRguUALpX&#xA;upDBlP8AKR32xV4h+ef5D/mv5u/MjUNd8vPENKuIrdIQ936JrHCqP8Hb4lOKsA/6FZ/Pn+eD/pPx&#xA;V5nDoHnGXzufJaXT/pwag2lFDcN6f1lJTCRzrTjzXrir0z/oVn8+f54P+k/FXo35B/kb+afk78wo&#xA;da8yNEdMS2niYJdesecigL8GKvWvz+/8k15s/wCYFv8AiS4q/OrFXYq7FXYqzD8v/wA2PPXkK79b&#xA;y7qLRWzMHuNOm/e2k1OvOImlSNuS0b3xV9Nf84S/8oDrv/bVP/UNFirIP+cvNOvLv8nZ5bZC6WV9&#xA;a3F1x7RVaKp9g8q4q8+/5wx88eVrCy1fytezxWet3t2t1ZtKwQ3KekE9FGPVoyhYL1PLbvir6rxV&#xA;5p/zkf5ftNa/JzzCk8YaXT4RqFq56xyWzByy+5j5p8icVeK/84PajcLq3mrTeRNtJBa3PGuweN3S&#xA;oHuJN/lir61xV2KvgvTP/Wr3/wDAyuP+6g+KvvTFXYql/mLW7XQtA1LWrv8A3l0y1mu5gNiUgQyE&#xA;D3PGgxV8MfkDot557/PWz1LUB63o3M2vam9KjnG/qqT/AK1y6DfxxV6t/wA5teT/AFLHQfN8KfHA&#xA;7aXesOvCSs1v9Cssv/BDFWd/84m+bhrv5TWthLJyvNAmksJAT8XpV9WA08OEnAf6uKvZsVeQf85Y&#xA;f+SS1f8A4z2f/USmKvP/APnBz/jlebv+M9l/xCbFX0/iryz/AJydsLS7/JLzE1wgZrUW89u5pVJV&#xA;uY1DKT0JVivyJxV5R/zg5e3RPm+xJLWi/UZ1H7KyN66n6XVR/wADir6qxV2KvgvTP/Wr3/8AAyuP&#xA;+6g+KvvTFXYqwD8/v/JNebP+YFv+JLir86sVdirsVdirsVfZX/OEv/KA67/21T/1DRYq+gdS02w1&#xA;PT7nTtQgS6sbuNobm3kHJHjccWVh7g4q+PvzP/5xB806VdzX/kZv0xpRJdNPkdUvIRX7ILcUlA7E&#xA;EN7HrirB9P8Aze/Pr8vrhbC61HUrQR7fo/WIWmHFf2VF0rOq/wCoRir1TyT/AM5mrdMunef9Ehaz&#xA;npHNqFgpKhTsTLaymTmvduL/ACU9MVfS3lj/AAnd6bBrHlqOzaxv4w8N5ZRxosiV8UAOx2IPQ7Hf&#xA;FU4xV2KvgvTP/Wr3/wDAyuP+6g+KvvTFXYq8O/5y+83fob8rv0RDJxuvMFyltxGzfV4f30zD2qqI&#xA;f9bFWN/84UeUDa+XNb81zpSTUp0sbNj19G2HKRl9nkkofdMVew/nL5PHm78s9f0RU53Uts01kO/1&#xA;m3/fQgHtydAp9jir5g/5w083/oz8wb3y5K9IPMFqTCvjc2fKVP8Akk0v4Yq+08VeQf8AOWH/AJJL&#xA;V/8AjPZ/9RKYq+ZfyO/Pv/lVtrq8H6C/TH6Vkhk5fWvqvp+iHFKejPy5ep7Yq9PP/Oc5pt5J37f7&#xA;lP8As0xV5n+bX/OSPm78xtLXQ2tINI0RnSSe1hdpHmdDVPVlfiOCtRgoUb7mtBir6W/5xi/LMeS/&#xA;IRu57iC61PX2S7uZbWRJoViVSsMSSoWSTiGYllNKsQKgVKr2DFXYq+C9M/8AWr3/APAyuP8AuoPi&#xA;r70xV2KsA/P7/wAk15s/5gW/4kuKvzqxV2KuxV2KuxV9lf8AOEv/ACgOu/8AbVP/AFDRYqxb/nKX&#xA;8z/zF8q/mTBp2g63daZp8umwXCwQkBGdpZkZ9wevCn0Yq+mPI+rnWfJeg6u0nqvqGn2ty8laktLC&#xA;rNX35HfFU1vbGyvrZ7a9t47q2k2kgmRZEYe6sCDir5t/5yL/AOcc/KMPlXUPOHlO0XSb/TE+sXth&#xA;B8NrNAD+8ZY+kTovxDhRSARSu+KpZ/zhL5sv3l1/ypNI0lnHGmo2aE1Ebc/SmA9n5Iae3vir6rxV&#xA;2KvgvTP/AFq9/wDwMrj/ALqD4q+9MVdir4h/5zB83jWPzNj0WF+Vr5etUgZRuPrNxSaUj/YGNT7r&#xA;irJfy3/5ys8n+S/I+j+WYvLt7L+joAk0yyxASTOxkmcA7gNI7EYqyX/od7yt/wBS1ff8jocVfNlj&#xA;5ytNI/M+PzdoVu9pY2+qfX7WyYrySBpebQErtTgSnyxV+kVrdW93aw3Vs4lt7hFlhlXoyOAysPmD&#xA;iryX/nLD/wAklq//ABns/wDqJTFXkf8AziB5G8neZtO8zv5h0a01V7Wa0W3a7iWUoHWUsF5A0rxG&#xA;KvoY/kn+UZFP8IaV/wBIsf8ATFXjP/ORH/OPH5faT5D1HzZ5atDpGoaZ6UktvG7tbzRvKsTDg5fg&#xA;w51BSg2oRvUKrf8AnCPzJf3Gl+ZPL08jSWdhJb3dkh3EZuPUWZRXoCY1NPGpxV9O4q7FXwXpn/rV&#xA;7/8AgZXH/dQfFX3pirsVYB+f3/kmvNn/ADAt/wASXFX51Yq7FXYq7FXYq+yv+cJf+UB13/tqn/qG&#xA;ixVLv+c0/Ilzd6ZpHnW0jLrp1bDU6CpWGVuUEh8FWQsp93GKob/nF78/fLtl5dh8kea76PTpbFm/&#xA;RF/cMEgeF2L+jJIfhRkZjxLGhXbqN1X0/bXlpdQLcWs8c9uwqs0TK6EeIZSRirxT/nJX83/KWkeQ&#xA;NW8uWmoQX2v6xCbNbKCRZWhjl2lkm4k8KJXiDuTTtXFXn3/OEXlu8N/5j8zOhWzWKLToHPR5GYTS&#xA;gf6iqlf9bFX1jirsVfBemf8ArV7/APgZXH/dQfFX3piqG1PUbXTNNu9Su24WllDJcXD/AMscSF3O&#xA;/gq4q+Bfyw0RvzU/PGJ9Yi9a11K8uNV1eOp4+ipaZoyVKkKzcYtulcVfXP8A0Ld+SX/UrQf8jrn/&#xA;AKq4q7/oW78kv+pWg/5HXP8A1VxV4B/zlb+TnlnydaaHrnlbTl0/Trh5LK/iRpHX1qepC1ZGc1ZV&#xA;kH+xxV7j/wA4webh5j/KHSkkkL3eil9LuancCChh+j0HjGKqH/OWH/kktX/4z2f/AFEpirz/AP5w&#xA;c/45Xm7/AIz2X/EJsVfT+KvNf+ckf/JJeaf+MEP/AFExYq8V/wCcHP8Ajq+bv+MFl/xObFX1pirs&#xA;VfBemf8ArV7/APgZXH/dQfFX3pirsVYB+f3/AJJrzZ/zAt/xJcVfnVirsVdirsVdir7K/wCcJf8A&#xA;lAdd/wC2qf8AqGixV9Bahp9lqNhcWF/AlzZXcbQ3NvIOSPG44srDwIOKvl7z9/zhZLLeTXnkfVoo&#xA;oJGLLpWpcwI678Y7hFkLDsodPmxxV56f+cRPzmEnH6pZFaV9T62nHr06V/DFWW+Uf+cKPMc9zHL5&#xA;t1q2srMEF7bTuU9ww7rzkSOOM+9H+WKvqjyp5U0LypoNroWhWwtNNs1IijBLEljVndjuzMxqScVT&#xA;bFXYq+brT/nGLzbD+dDefG1WwOnHXpdY+qgzev6Ul004T+74c+LU60rir6RxViP5seV9f81+QdV8&#xA;u6FdQ2V7qaLA9zcFwiwlwZh+7Vz8aAp074q8/wD+cev+cf8AUvy01LV9U1m9tb6+voYra0a09Skc&#xA;QYvMGMip9tlj6fy4q9uxV2KsL/OD8vv8f+QdQ8txyx295OY5bK5lrwjmhkDgmgY0ZQVNB0OKsM/5&#xA;x6/Jjzh+WUusw6rqNlfadqawvHHamXmk8JYVpIiCjI++/YYqy/8AOnyFqXnz8vr7y1p1xDa3d1JA&#xA;6TXHL0wIZlkNeAZtwvhirGf+cePyZ138srPW4NWvrW9bVJLd4TaepRRCsgPL1FTrz7Yq9exVif5r&#xA;eT77zl+X2seWrGaK3u9SjjSKafl6alJkkPLiGbonYYqwD/nHj8i/MP5ZXmtz6tf2l6uqR26Qi09W&#xA;qmFpCeXqInXn2xV7XirsVfN1p/zjF5th/OhvPjarYHTjr0usfVQZvX9KS6acJ/d8OfFqdaVxV9I4&#xA;q7FWAfn9/wCSa82f8wLf8SXFX51Yq7FXYq7FXYq+yv8AnCX/AJQHXf8Atqn/AKhosVfRWKuxV2Ku&#xA;xV2KuxV2KuxV2KuxV2KuxV2KuxV2KuxV2KuxV2KuxV2KuxV2KuxV2KsA/P7/AMk15s/5gW/4kuKv&#xA;zqxV2KuxV2KuxV9F/wDONP54eQ/y/wDKmqab5iluI7q7v/rMIghMq+n6KJuQRQ1U4q9f/wChvfyb&#xA;/wCWm+/6RG/rirv+hvfyb/5ab7/pEb+uKu/6G9/Jv/lpvv8ApEb+uKu/6G9/Jv8A5ab7/pEb+uKu&#xA;/wChvfyb/wCWm+/6RG/rirv+hvfyb/5ab7/pEb+uKu/6G9/Jv/lpvv8ApEb+uKu/6G9/Jv8A5ab7&#xA;/pEb+uKu/wChvfyb/wCWm+/6RG/rirv+hvfyb/5ab7/pEb+uKu/6G9/Jv/lpvv8ApEb+uKu/6G9/&#xA;Jv8A5ab7/pEb+uKu/wChvfyb/wCWm+/6RG/rirv+hvfyb/5ab7/pEb+uKu/6G9/Jv/lpvv8ApEb+&#xA;uKu/6G9/Jv8A5ab7/pEb+uKu/wChvfyb/wCWm+/6RG/rirv+hvfyb/5ab7/pEb+uKu/6G9/Jv/lp&#xA;vv8ApEb+uKu/6G9/Jv8A5ab7/pEb+uKu/wChvfyb/wCWm+/6RG/rirv+hvfyb/5ab7/pEb+uKu/6&#xA;G9/Jv/lpvv8ApEb+uKu/6G9/Jv8A5ab7/pEb+uKu/wChvfyb/wCWm+/6RG/rirE/zX/5yZ/K3zL+&#xA;XWvaDpc942oahamG2WS2ZELlgd2J26Yq+QcVdirsVdirsVfaf5n/APOIflTXzNqPlCYaBqjcnazY&#xA;M9jKx3px3aD/AGFV/wAnFXyn55/LXzr5HvxZ+ZNMks+ZIguRR7eWn++5lqjbb0rUdwMVYxirsVdi&#xA;rsVdirsVdirsVdirsVdirsVdirsVdirsVdirsVdirsVdirsVdirsVdirsVdirsVdirsVfqpiqE1X&#xA;SdL1ewm07VLSG+sLheM1rcIskbj3VgRir5w/M7/nDfS7z1tR8g3Q0+5PxHRbtme3Y9xFOeTx+wfk&#xA;K91GKvl7zV5O8z+U9TbTPMWmzabeLXiky/C4G3KNxVJF/wApCRiqTYq7FXYq7FXYq7FXYq7FXYq7&#xA;FXYq7FXYq7FXYq7FXYq7FXYq7FXYq7FXYq7FXYq7FXYq7FX6qYq7FXYqlfmTyt5d8zaY+l6/p0Gp&#xA;WL7mGdA1GpTkh+0jCuzKQcVfNH5h/wDOF0rXRu/IWpIsEjEvpepMw9MH/fVwiuWA/lda0/aOKsL/&#xA;AOhNvzc/39pX/STL/wBUcVd/0Jt+bn+/tK/6SZf+qOKu/wChNvzc/wB/aV/0ky/9UcVd/wBCbfm5&#xA;/v7Sv+kmX/qjirv+hNvzc/39pX/STL/1RxV3/Qm35uf7+0r/AKSZf+qOKu/6E2/Nz/f2lf8ASTL/&#xA;ANUcVd/0Jt+bn+/tK/6SZf8Aqjirv+hNvzc/39pX/STL/wBUcVd/0Jt+bn+/tK/6SZf+qOKu/wCh&#xA;Nvzc/wB/aV/0ky/9UcVd/wBCbfm5/v7Sv+kmX/qjirv+hNvzc/39pX/STL/1RxV3/Qm35uf7+0r/&#xA;AKSZf+qOKu/6E2/Nz/f2lf8ASTL/ANUcVd/0Jt+bn+/tK/6SZf8Aqjirv+hNvzc/39pX/STL/wBU&#xA;cVd/0Jt+bn+/tK/6SZf+qOKu/wChNvzc/wB/aV/0ky/9UcVd/wBCbfm5/v7Sv+kmX/qjirv+hNvz&#xA;c/39pX/STL/1RxV3/Qm35uf7+0r/AKSZf+qOKu/6E2/Nz/f2lf8ASTL/ANUcVd/0Jt+bn+/tK/6S&#xA;Zf8Aqjirv+hNvzc/39pX/STL/wBUcVd/0Jt+bn+/tK/6SZf+qOKu/wChNvzc/wB/aV/0ky/9UcVf&#xA;/9k=</xmpGImg:image>
               </rdf:li>
            </rdf:Alt>
         </xmp:Thumbnails>
         <xmp:MetadataDate>2018-08-18T13:45:35+02:00</xmp:MetadataDate>
         <xmp:ModifyDate>2018-08-18T13:45:35+02:00</xmp:ModifyDate>
         <xmpTPg:MaxPageSize rdf:parseType="Resource">
            <stDim:w>250.000000</stDim:w>
            <stDim:h>137.899994</stDim:h>
            <stDim:unit>Pixels</stDim:unit>
         </xmpTPg:MaxPageSize>
         <xmpTPg:NPages>1</xmpTPg:NPages>
         <xmpTPg:HasVisibleTransparency>False</xmpTPg:HasVisibleTransparency>
         <xmpTPg:HasVisibleOverprint>False</xmpTPg:HasVisibleOverprint>
         <xmpTPg:PlateNames>
            <rdf:Seq>
               <rdf:li>Cyan</rdf:li>
               <rdf:li>Magenta</rdf:li>
               <rdf:li>Yellow</rdf:li>
               <rdf:li>Black</rdf:li>
            </rdf:Seq>
         </xmpTPg:PlateNames>
         <xmpTPg:SwatchGroups>
            <rdf:Seq>
               <rdf:li rdf:parseType="Resource">
                  <xmpG:groupName>Default Swatch Group</xmpG:groupName>
                  <xmpG:groupType>0</xmpG:groupType>
               </rdf:li>
            </rdf:Seq>
         </xmpTPg:SwatchGroups>
         <dc:format>image/svg+xml</dc:format>
         <xmpMM:DerivedFrom rdf:parseType="Resource"/>
         <xmpMM:DocumentID>xmp.did:9d584b37-3611-824d-a95f-76b99144d1b8</xmpMM:DocumentID>
         <xmpMM:InstanceID>xmp.iid:9d584b37-3611-824d-a95f-76b99144d1b8</xmpMM:InstanceID>
         <xmpMM:OriginalDocumentID>xmp.did:9d584b37-3611-824d-a95f-76b99144d1b8</xmpMM:OriginalDocumentID>
         <xmpMM:History>
            <rdf:Seq>
               <rdf:li rdf:parseType="Resource">
                  <stEvt:action>saved</stEvt:action>
                  <stEvt:instanceID>xmp.iid:9d584b37-3611-824d-a95f-76b99144d1b8</stEvt:instanceID>
                  <stEvt:when>2018-08-18T13:45:35+02:00</stEvt:when>
                  <stEvt:softwareAgent>Adobe Illustrator CC 22.1 (Windows)</stEvt:softwareAgent>
                  <stEvt:changed>/</stEvt:changed>
               </rdf:li>
            </rdf:Seq>
         </xmpMM:History>
      </rdf:Description>
   </rdf:RDF>
</x:xmpmeta>
                                                                                                    
                                                                                                    
                                                                                                    
                                                                                                    
                                                                                                    
                                                                                                    
                                                                                                    
                                                                                                    
                                                                                                    
                                                                                                    
                                                                                                    
                                                                                                    
                                                                                                    
                                                                                                    
                                                                                                    
                                                                                                    
                                                                                                    
                                                                                                    
                                                                                                    
                                                                                                    
                           
<?xpacket end="w"?>
	</metadata>
<title>bttn_start_on</title>
<g id="Layer_2_1_">
	<g id="bttn_start_on">
		<polygon points="212.6,37.9 250,57.9 250,137.9 37.4,137.9 0,117.9 		"/>
		<rect x="1.5" y="39.4" class="st0" width="209.6" height="77"/>
		<path d="M209.6,40.9v74H3v-74H209.6 M212.6,37.9H0v80h212.6V37.9z"/>
		<rect width="100.6" height="37.9"/>
		<g class="st1">
			<path d="M10.6,79.7H16c0.3,9.8,3.8,14.2,12.5,14.2c3.8,0,6.4-0.9,7.8-2.4c1.3-1.5,1.8-3.1,1.8-5.2c0-4.3-2.6-6.7-9.8-8.3
				C18,75.6,13,71.7,13,65.2c0-6.7,5.4-11.1,14.5-11.1c10.6,0,15.9,5.2,15.9,15.6c0,0.4,0,0.8,0,1.1H38v-0.4c0-2.7-0.4-5.1-1.1-6.7
				s-2-2.8-3.1-3.4c-1.2-0.6-3-1-4.3-1.1c-0.7,0-1.4-0.1-2.4-0.1c-5.4,0-8.5,2.4-8.5,6c0,1.5,0.7,2.8,1.9,3.8c1.2,1,2.5,1.7,4.3,2.3
				c1.8,0.6,2.9,0.9,4.6,1.3c0.1,0,0.1,0,0.2,0l0.4,0.1c3,0.7,5.1,1.3,7.7,2.8c2.5,1.4,4.1,3.1,5.2,5.8c0.5,1.4,0.8,2.9,0.8,4.6
				c0,3-0.5,5.4-2,7.7c-1.5,2.3-3.8,3.9-7.5,4.8c-1.9,0.5-4.1,0.7-6.6,0.7c-5.1,0-9.1-1.4-11.6-3.8c-2.6-2.3-4.3-5.8-4.9-9.6
				c-0.2-1.4-0.4-3-0.4-4.6C10.6,80.7,10.6,80.2,10.6,79.7z"/>
		</g>
		<g class="st1">
			<path d="M63.5,98.2V59.9H49.1v-4.9h34.3v4.9H69v38.3H63.5z"/>
		</g>
		<g class="st1">
			<path d="M92.7,87.6l-3.4,10.5h-5.7l13.8-43.3h10.4l13.8,43.3H116l-3.4-10.5H92.7z M111.1,82.6l-8.4-26l-8.3,26H111.1z"/>
		</g>
		<g class="st1">
			<path d="M136.3,79.2v19h-5.5V54.9h16c8.4,0,13.5,5.2,13.5,12.8c0,4.3-2,8-5.1,8.9c2.9,0.6,5.1,3.4,5.1,7.3v14.2h-5.4v-14
				c0-1.9-1-3.3-2.8-4c-1.8-0.7-3.8-1-6.6-1H136.3z M145.5,59.9h-9.3v14.4h9.9c6.6,0,8.5-1.7,8.5-6.5
				C154.8,61.8,152.3,59.9,145.5,59.9z"/>
		</g>
		<g class="st1">
			<path d="M180.7,98.2V59.9h-14.4v-4.9h34.3v4.9h-14.4v38.3H180.7z"/>
		</g>
		<g class="st1">
			<path class="st0" d="M15.9,21.2v7.2h-2.3V10.6h6.6c3.3,0,5.1,2.1,5.1,5.3c0,3.3-1.9,5.2-5.6,5.2H15.9z M19.3,12.7h-3.5V19h2.5
				c0.7,0,1,0,1.6,0c0.6,0,0.9-0.1,1.4-0.3c0.5-0.1,0.7-0.4,1-0.7c0.3-0.3,0.4-0.7,0.5-1.2c0-0.3,0.1-0.6,0.1-0.9
				C22.9,13.7,21.9,12.7,19.3,12.7z"/>
		</g>
		<g class="st1">
			<path class="st0" d="M30.9,20.6v7.8h-2.3V10.6h6.6c3.5,0,5.5,2.1,5.5,5.3c0,1.8-0.8,3.3-2.1,3.7c1.2,0.3,2.1,1.4,2.1,3v5.9h-2.2
				v-5.8c0-0.8-0.4-1.4-1.2-1.6c-0.7-0.3-1.6-0.4-2.7-0.4H30.9z M34.7,12.6h-3.8v5.9H35c2.7,0,3.5-0.7,3.5-2.7
				C38.5,13.4,37.5,12.6,34.7,12.6z"/>
		</g>
		<g class="st1">
			<path class="st0" d="M56.2,26.4v2h-11V10.6h11v2h-8.8v5.6h8.7v2h-8.7v6.2H56.2z"/>
		</g>
		<g class="st1">
			<path class="st0" d="M58.6,20.8h2.2c0.1,4.1,1.6,5.9,5.2,5.9c1.6,0,2.6-0.4,3.2-1c0.5-0.6,0.7-1.3,0.7-2.1c0-1.8-1.1-2.8-4-3.4
				c-4.2-1-6.3-2.6-6.3-5.3c0-2.8,2.2-4.6,6-4.6c4.4,0,6.6,2.1,6.6,6.4c0,0.2,0,0.3,0,0.5h-2.2v-0.2c0-1.1-0.2-2.1-0.5-2.8
				c-0.3-0.7-0.8-1.1-1.3-1.4c-0.5-0.3-1.2-0.4-1.8-0.4c-0.3,0-0.6,0-1,0c-2.2,0-3.5,1-3.5,2.5c0,0.6,0.3,1.2,0.8,1.6
				c0.5,0.4,1,0.7,1.8,0.9c0.7,0.3,1.2,0.4,1.9,0.5c0,0,0.1,0,0.1,0l0.2,0c1.2,0.3,2.1,0.6,3.2,1.1c1,0.6,1.7,1.3,2.2,2.4
				c0.2,0.6,0.3,1.2,0.3,1.9c0,1.2-0.2,2.2-0.8,3.2c-0.6,1-1.5,1.6-3.1,2c-0.8,0.2-1.7,0.3-2.7,0.3c-2.1,0-3.7-0.6-4.8-1.5
				c-1.1-1-1.8-2.4-2-3.9c-0.1-0.6-0.1-1.2-0.1-1.9C58.6,21.2,58.6,21,58.6,20.8z"/>
		</g>
		<g class="st1">
			<path class="st0" d="M74.2,20.8h2.2c0.1,4.1,1.6,5.9,5.2,5.9c1.6,0,2.6-0.4,3.2-1c0.5-0.6,0.7-1.3,0.7-2.1c0-1.8-1.1-2.8-4-3.4
				c-4.2-1-6.3-2.6-6.3-5.3c0-2.8,2.2-4.6,6-4.6c4.4,0,6.6,2.1,6.6,6.4c0,0.2,0,0.3,0,0.5h-2.2v-0.2c0-1.1-0.2-2.1-0.5-2.8
				c-0.3-0.7-0.8-1.1-1.3-1.4c-0.5-0.3-1.2-0.4-1.8-0.4c-0.3,0-0.6,0-1,0c-2.2,0-3.5,1-3.5,2.5c0,0.6,0.3,1.2,0.8,1.6
				c0.5,0.4,1,0.7,1.8,0.9c0.7,0.3,1.2,0.4,1.9,0.5c0,0,0.1,0,0.1,0l0.2,0c1.2,0.3,2.1,0.6,3.2,1.1c1,0.6,1.7,1.3,2.2,2.4
				c0.2,0.6,0.3,1.2,0.3,1.9c0,1.2-0.2,2.2-0.8,3.2c-0.6,1-1.5,1.6-3.1,2c-0.8,0.2-1.7,0.3-2.7,0.3c-2.1,0-3.7-0.6-4.8-1.5
				c-1.1-1-1.8-2.4-2-3.9c-0.1-0.6-0.1-1.2-0.1-1.9C74.2,21.2,74.2,21,74.2,20.8z"/>
		</g>
	</g>
</g>
</svg>
