<?xml version="1.0" encoding="utf-8"?>
<!-- Generator: Adobe Illustrator 22.1.0, SVG Export Plug-In . SVG Version: 6.00 Build 0)  -->
<svg version="1.1" id="Layer_1" xmlns="http://www.w3.org/2000/svg" xmlns:xlink="http://www.w3.org/1999/xlink" x="0px" y="0px"
	 viewBox="0 0 799.5 247" style="enable-background:new 0 0 799.5 247;" xml:space="preserve">
<style type="text/css">
	.st0{fill:#FFFFFF;}
</style>
<metadata><?xpacket begin="﻿" id="W5M0MpCehiHzreSzNTczkc9d"?>
<x:xmpmeta xmlns:x="adobe:ns:meta/" x:xmptk="Adobe XMP Core 5.6-c143 79.161356, 2017/09/07-01:11:22        ">
   <rdf:RDF xmlns:rdf="http://www.w3.org/1999/02/22-rdf-syntax-ns#">
      <rdf:Description rdf:about=""
            xmlns:xmp="http://ns.adobe.com/xap/1.0/"
            xmlns:xmpGImg="http://ns.adobe.com/xap/1.0/g/img/"
            xmlns:xmpTPg="http://ns.adobe.com/xap/1.0/t/pg/"
            xmlns:stDim="http://ns.adobe.com/xap/1.0/sType/Dimensions#"
            xmlns:xmpG="http://ns.adobe.com/xap/1.0/g/"
            xmlns:dc="http://purl.org/dc/elements/1.1/">
         <xmp:CreatorTool>Adobe Illustrator CC 22.1 (Windows)</xmp:CreatorTool>
         <xmp:CreateDate>2018-08-29T17:33:22+02:00</xmp:CreateDate>
         <xmp:Thumbnails>
            <rdf:Alt>
               <rdf:li rdf:parseType="Resource">
                  <xmpGImg:width>256</xmpGImg:width>
                  <xmpGImg:height>80</xmpGImg:height>
                  <xmpGImg:format>JPEG</xmpGImg:format>
                  <xmpGImg:image>/9j/4AAQSkZJRgABAgEASABIAAD/7QAsUGhvdG9zaG9wIDMuMAA4QklNA+0AAAAAABAASAAAAAEA&#xA;AQBIAAAAAQAB/+4ADkFkb2JlAGTAAAAAAf/bAIQABgQEBAUEBgUFBgkGBQYJCwgGBggLDAoKCwoK&#xA;DBAMDAwMDAwQDA4PEA8ODBMTFBQTExwbGxscHx8fHx8fHx8fHwEHBwcNDA0YEBAYGhURFRofHx8f&#xA;Hx8fHx8fHx8fHx8fHx8fHx8fHx8fHx8fHx8fHx8fHx8fHx8fHx8fHx8fHx8f/8AAEQgAUAEAAwER&#xA;AAIRAQMRAf/EAaIAAAAHAQEBAQEAAAAAAAAAAAQFAwIGAQAHCAkKCwEAAgIDAQEBAQEAAAAAAAAA&#xA;AQACAwQFBgcICQoLEAACAQMDAgQCBgcDBAIGAnMBAgMRBAAFIRIxQVEGE2EicYEUMpGhBxWxQiPB&#xA;UtHhMxZi8CRygvElQzRTkqKyY3PCNUQnk6OzNhdUZHTD0uIIJoMJChgZhJRFRqS0VtNVKBry4/PE&#xA;1OT0ZXWFlaW1xdXl9WZ2hpamtsbW5vY3R1dnd4eXp7fH1+f3OEhYaHiImKi4yNjo+Ck5SVlpeYmZ&#xA;qbnJ2en5KjpKWmp6ipqqusra6voRAAICAQIDBQUEBQYECAMDbQEAAhEDBCESMUEFURNhIgZxgZEy&#xA;obHwFMHR4SNCFVJicvEzJDRDghaSUyWiY7LCB3PSNeJEgxdUkwgJChgZJjZFGidkdFU38qOzwygp&#xA;0+PzhJSktMTU5PRldYWVpbXF1eX1RlZmdoaWprbG1ub2R1dnd4eXp7fH1+f3OEhYaHiImKi4yNjo&#xA;+DlJWWl5iZmpucnZ6fkqOkpaanqKmqq6ytrq+v/aAAwDAQACEQMRAD8A81+XfLs2tz3I+t2+n2dj&#xA;D9Zvr+7Mghhi9RIgSIUmlYtJKqhUQkk9MVTjX/yv8y6Lp8moSmC7tFnt4YZLMySidLu2N1DcRfAt&#xA;YmjHU0YHYr1xVGx/lHqUUrR6trOm6P6l1+j9Pe8a543V0I4pXSP0oJCixrcRh5JQqAsBXrRV1n+T&#xA;2vSiG1ur+x0/Xr5rldK0C4eb63dm0kkhkCNHFJAnKaF44/VkXmwNMVXD8ndcOk6NfDUbET62LN7e&#xA;xY3CyLFfzCCGQyGH0Xo7D1EjdnQEEr1oqxnzP5dXQb5bMalbamxUl5bSO8jRGDFSh+uW9o5O3VVK&#xA;++Ko3zr5B1ryfLYR6nJbynULf11NszuInViktvLzSPjNEwo4FRuKE4qnWvfkt5p0ix027+s2l7+k&#xA;7+DSoYLf60sgu7mISxpS4ggWReLbvEXUHauKrk/JPzVNrWt6TbXdhcy6Lpq6v68Ukphu7dwnBbRj&#xA;EGeRmk4BWVfiBFcVQ8X5R65IkaDUdPW9uZo7bT7BnuBNdTS2kN4scLej6Qb07pFpJItW2WuKvR/+&#xA;cKv/ACaeq/8AbDuP+oy0xV9qYq7FXYq7FXYq7FXYq7FXYq7FXYq7FXYq7FXYq7FXYq7FXYq7FXYq&#xA;/Mvyn5pi0QalaXtgup6RrFuLW/smkaFiElSaKSKVQxSSOSMEGhFKggg4qn2p/m7rEmlT6ZoUL+Xb&#xA;Z7m2lt/0fcyxskFpam1SF2Xi0pb7bux3bemKq8/5s2WpXBm1/wAvpqrQX36T08tdSRtHM8UMcyTM&#xA;Fb1opDbRsV+Fq1o2+Kr7f85JXvbLXNU0ePUPNWlPcyaXq5nkjVHubiW7VpoAGEvo3FzI6UZewaoG&#xA;KtWH5xy2WmW1pDpCLJHNpst0FuHW1c6XJHIksNpx9OCeb0QJZVrWrbDkcVSXXvO1pq/mnTtantLy&#xA;6t7OWOS4sdR1B70yok3qtEsrRoY0YfDQKadcVX+cfzM1nzfpy22tW9s93Ffz38F5bwQWpH1sD6wj&#xA;pbxxCUyOiMZHq225NcVZRP8An7e1sDbaQFNjd/pJDdXL3YW9ismtLd4EkQRwxxMwlKKvxkAFqUoq&#xA;gbL88dctoopvqFsurQW1vZx3ttHDZxiK01OLU4V+q20UUQo0TRmgFVbfpuqiJPzrsDqL6nH5YhF7&#xA;a3yaloPK6kMNlPFaQWsXKJUT1hH9UR1BIFetRiqf/wDOI3mPQdD/ADK1O913VLXS7WXR54lub6eO&#xA;3jaVrq2YIHlZQWIVjStdjir65/5Wx+Vn/U5aH/3ErP8A6qYq7/lbH5Wf9Tlof/cSs/8Aqpirv+Vs&#xA;flZ/1OWh/wDcSs/+qmKu/wCVsflZ/wBTlof/AHErP/qpirv+VsflZ/1OWh/9xKz/AOqmKu/5Wx+V&#xA;n/U5aH/3ErP/AKqYq7/lbH5Wf9Tlof8A3ErP/qpirv8AlbH5Wf8AU5aH/wBxKz/6qYq7/lbH5Wf9&#xA;Tlof/cSs/wDqpirv+VsflZ/1OWh/9xKz/wCqmKu/5Wx+Vn/U5aH/ANxKz/6qYq7/AJWx+Vn/AFOW&#xA;h/8AcSs/+qmKu/5Wx+Vn/U5aH/3ErP8A6qYq7/lbH5Wf9Tlof/cSs/8Aqpirv+VsflZ/1OWh/wDc&#xA;Ss/+qmKu/wCVsflZ/wBTlof/AHErP/qpirv+VsflZ/1OWh/9xKz/AOqmKu/5Wx+Vn/U5aH/3ErP/&#xA;AKqYq7/lbH5Wf9Tlof8A3ErP/qpirv8AlbH5Wf8AU5aH/wBxKz/6qYq7/lbH5Wf9Tlof/cSs/wDq&#xA;pirz78gPy6/L7VPyf8t3+p+WNJvr6eGUz3dzY200rkXEigvI6MzbADc4qz7/AJVZ+UxVm/whoPFK&#xA;h2/R1nRSvWp9PamKrh+VH5VMAR5O0Ig7gjTbOhH/ACLxVyflT+VLqGTyfoTK24YabZkEfP08Vb/5&#xA;VP8AlZ/1Juh/9w2z/wCqeKrU/Kr8qJEDx+T9CdGFVZdOsyCPEER4qu/5VP8AlZ/1Juh/9w2z/wCq&#xA;eKqcX5XflLKWEXlHQJCh4uF06zbifA0j2xVU/wCVT/lZ/wBSbof/AHDbP/qnirv+VT/lZ/1Juh/9&#xA;w2z/AOqeKrU/Kv8AKh68PJ+gtQkGmnWZ3U0I/u+xxVs/lT+VIYKfJ+hBmrxB02zqadafu8Vc35U/&#xA;lSgq3k/QlBIFTptmN2NAP7vuTirf/Kp/ys/6k3Q/+4bZ/wDVPFXf8qn/ACs/6k3Q/wDuG2f/AFTx&#xA;Vb/yqr8qOfp/4P0LnTlw/R1nWnStPTxVd/yqf8rP+pN0P/uG2f8A1TxV3/Kp/wArP+pN0P8A7htn&#xA;/wBU8VWyflX+U8dDJ5Q0FAxovLTrMVNCabx+AxVd/wAqn/Kz/qTdD/7htn/1TxVr/lVP5U8+H+D9&#xA;C50rx/RtnWnStPTxVpvyq/KhSobyfoSlzxQHTrMVNK0H7vwGKrv+VT/lZ/1Juh/9w2z/AOqeKu/5&#xA;VP8AlZ/1Juh/9w2z/wCqeKu/5VP+Vn/Um6H/ANw2z/6p4q7/AJVP+Vn/AFJuh/8AcNs/+qeKu/5V&#xA;P+Vn/Um6H/3DbP8A6p4q7/lU/wCVn/Um6H/3DbP/AKp4q0fyp/KkFVPk/QgzbKDptnUkCu37vFW/&#xA;+VT/AJWf9Sbof/cNs/8Aqnirh+U/5Vnp5N0L/uG2f/VPFXn35/8A5dfl9pf5P+ZL/TPLGk2N9BDE&#xA;YLu2sbaGVCbiNSUkRFZdiRscVZD/AM43f+SS8rf8YJv+omXFWLy2X5ht5T/MU6ZeaZDo73+vF7W6&#xA;srmW7dSH58JUuoo/iH2P3Rp74qg9K/MX8yLP8ytC8txwIfLzJploliYf3kltNp6yz3vPjypFLVeQ&#xA;cIvEqVLEYqh4PPnmjQtK0zS9O1BraS08s6XfaZpH1QTtfX893cQG2LlS6+qsSrQEHqw2VsVekfmD&#xA;NqNp508jXa6pPp2km+uLe/EaqYJHktyYYpiyt/eshjWvc7UahxV5v5e8zfmJ5X/J63TS3W+uU8tW&#xA;F9psclrx+pFrhLaavGvqLFA/qnmK1Un7J4hVm/5eea/NvmD8qdY1HWYWv9Ttv0hb2b2gED30cKH0&#xA;mibgqB3YmMOiceQqBirzbyOv+Gxql55PaC9OjeX1uJrzT7JrRnW2uoZ5LTU4JBIs1+8KzIkisrD4&#xA;6oDxoqyfQvzN/MfUNX+qJF651L6xr+jxfV+FdGWO8W3tC3EfvXngtuRNGpJiqT+TPzY/M/UPLupS&#xA;61cpBDDdaQk2vx2qsLJL52+uRsnBY+UACD4lb0+X7wk4qraHq+r6XbJfWh9W6ZPO13HqhsfUl5DU&#xA;rd4Z1hPFwjiQyGMH4h40xVX0HzD548zLpN1+lFW+0++1e3h1gW8UyyQxadFIrxFUhhmVpnK8/TT4&#xA;aigYVxVl3nLzDf6l+Suj+ZJ1Wzvrp/LepzhY3kSCR9Rsrhz6debLGa/DWtBirC/Nn5mfmLa+WY7r&#xA;Q9VN16N7qq2uqfUFK6hbWcSPb/EsUkYPqM6cYoqyBCQ0ahnxVmLeb/O0fmh7gTJNpDa5a6MmkGBV&#xA;/d3WjW960wuPt1S4kIFdqFgf2eKrCNN83+aLq/ufMH6UaXXx5UdrgfUCE0u9mvoRLbugX4ktifj5&#xA;BnVVLHlsuKs20DXvM/mT8mdfu3vJpNXWLU4LG/gjjEsohDiJojEqxycqUWSNFr1Cg4qkUX5ieZl1&#xA;LT4LLW3u1B0aLTNPe0jJ1eG8mWO/uHlEYKNbL6gPAqE9Org1xVW/PHSr698wSXMctY9L8oa9fQW0&#xA;ltBdQtNG1sChWeOShmRuJK0biKKRU1VTqDzN51j823vC4WbR4PMDaHb6R9WRR6B0mO9WVZ1o1Vm+&#xA;EV+GhIP7PFVAflPr2q695rh1HU9QN/ey+X4Xv4vqv1YWd3Jc8p7KoChvRb4aH4x1YmoxVIblPMFz&#xA;5qGlNr1yNSh88mS2WaGORrO0k0e7aOaJWUApIG4ryqgK9K8qqoXzd+bX5t2N75WNhFCIrizjluoh&#xA;bMRqN4b5rWW3jUiV1pGivxjYMvMEsVGKvRfzd83eZvK9rp91o6+quoC60yOP0vV46jcw8tOlagLB&#xA;FliZW/ZPLftirCpPzD/Mmfy7rEgvDZ3mgz2miXt39SVlkv1vJo7u5UsrxxRtAICHKui8zRSeIxVU&#xA;sfzP/MI+XtC+tU/Svm62Ww0mZbeiwapBfm2uJJEZE2a1k+scXUD90+wrTFWX/mTd6pYebfJV3Dqc&#xA;9jp4urqK7jRVME8jWxMEMxZWH7519NfnVaNQ4qg/yl83+Ytbv3i1DVTq8b6Za3l8DZi1/R+oSu6y&#xA;2NVVPsgfYkq68dzvirGNNg81XnmVNOj8wTpqdv5p1VUmuYI5ms7d7G6aF442VFKyqRx5fDT7OKpf&#xA;qn5yfmm2reTZrO1hhttX0/S7m404QM31ue+nMd0kZYNIvoItaBxxrVuQxVlnle981Xev2mk6deJo&#xA;+ntqXmm6vxFZxN66WOswRQpVgODSJcvyfq2560IVTD/nJH/ySXmn/jBD/wBRMWKu/wCcbv8AySXl&#xA;b/jBN/1Ey4q9DF/YkIRcxESs6REOtGePlzVd9yvBuQ7UOKqEev6FJY/pCPUbV7CrD62s0ZhqgJce&#xA;oG4/CFJO+1MVU/q+gQ6vPrBaFNSls4op7gyUJtIZJHiqC3EIHmc8qd+uKopdS05r99PW6ha/jQSy&#xA;WYkUzLG2wcx15BT40xVIPNvnuLy7qWm6YmjajrV/qkV1cQW+mJbsyx2ZhErP9Yntx1uEoFqTiqM0&#xA;Xzp5Z1ey0m6tb+FG1u2S8061mdI7iSKReQIhY8zTvTFUfDrWjz3N1awX9vLc2X+9kCSo0kP/ABlU&#xA;Gqf7LFVE+ZfLg039KHVbMabyCfXjcRehzJoF9XlwrXtXFW9e16x0Xy7qPmC4DTWOm2c1/MIOLu8U&#xA;ERlb06lVJKr8NWA98VSPy/8AmTpOqXWp2l9ZXfl+50mCC7u01X6vGn1a6DelMs0E1xCUJjYH46gj&#xA;FWQrrWjMlu639uUvKC0YSoRKSeI9M1+Op22xVdf6rpeniI395BZidxFAZ5Ei5ueiJzI5N7DFVHTf&#xA;MOi6ne6jY2F5HcXekzi11GFD8UUpjSXia9fglXcVFar9oEBVjx/MyxTWhp0uj6jHZtqX6HXWSLVr&#xA;Q3n7KcUuGuQGPwhjCBXFWTRaxpEwuzDfW8gsCVvikqN6BUciJaH4KDf4sVU38waDHp6ak+pWqafI&#xA;peO8aeMQsg2LLIW4ke9cVVX1XS47y3spLyBLy7Uva2zSIJZVUVZo0J5MAOpAxVLtT85+XtOe2WW7&#xA;jkFxdfU5HikiZYH9KaUtOS44IFtnBPj9NFUbJr2hxmzEmo2qHUafo8NNGPrFQCPRqf3mxH2a4qgt&#xA;B84aJrcV+9tL6TabdXdpdxTtGrqbK4ktpJSqs1ImeFuDGlR4dMVTW0vbO8jaS0njuI1YozxOrqGX&#xA;qpKk7jwxVj8HndrrzRqGgWWhajdjSriG11DVI2sVtYnnt47kGkt1HcMqxzry4wn2riqdJrWjut4y&#xA;X9uy6eSt+RKhEBUVYTb/ALug3PKmKpdL558ppcafbJqlvPPqyTPpiQyLItwLenqBJFPp1qaDkwqd&#xA;h3xVDRWHlfWNQ0zzhdiRL+0gjFnDc3LBLRrtDTlbLK1utxIlxwL0LEEAGmKojV/PHl3TdOuL8XKX&#xA;8dpd2thdRWTxTSRT3l1HaRrIvMceMkwLAmtAdidsVX+bPM6+X7K2lTT7rVby9uBaWOn2QjMssxje&#xA;WnKV4o0VY4nYszDp40GKsRvvz78mWWm2GpzW1+LG6to72+maFENhBNcNaobpXkVixnikXhCJGojN&#xA;TiK4qnOo/mt5QsdS1+waaS4l8taadV1Z7dVlRIxy/dAhqmWi8uNKAEVOKoTy/wDm/omrvb276df2&#xA;F/Nqq6K9pcpCWjnks5L+ORnjlkjMbwRVBRmNSNqb4qgP+ckf/JJeaf8AjBD/ANRMWKu/5xu/8kl5&#xA;W/4wTf8AUTLiqE1f8n9X1HUvMsY1KKDQ9SttUOjQqH9a3vtZhhjuZZNgpQPHKy03pK4xVAeSPyQ1&#xA;DSbaKPVRp5hXWbXU30+AyzwCKzspLZN5Y4g0hd1b+7UAKNyd8Vbk/J3zdbaOthpt9p5FxpNxot2J&#xA;/WCwwm+ku4Gg4qeVIpTEUYKF2YE04lVV0z8mNZs/zjfzobq1fTjeXWoeuWk+vN9Ztfq62pTgIxHH&#xA;U/EZGqoA4KfixVlnnP8ALmw82eZ9Cv8AVFWbStKtdQhmtfVmhkeS8a2MZDQlKqot35At3GxxVj2q&#xA;/lLfnzEf0TDplvoMtzo1ylwRIl9Yx6K6FbezVY3jKSLFQEuvHm/wtXFUDH+S+uXFvd6Zdz6fZ2i6&#xA;fqmnW+p2iyPd3g1S5S453sZWFQEEdGQSPzLE8l6Yqu1j8o/MmsWl208WjWE9zqtvepZWhnMEcVva&#xA;G0EiS8I2Wf4uR4RKeI4B1J9QKstPknUD+Tv+BzcRHUT5e/Qn1r4vR9f6j9V9Tpz4c9+laYqwlfyN&#xA;v/0JrVpb2uj6T+kYLCFdKsvVaylexuDO08zPEvGaSvBXELcBvRtqKp/5F/Kd9Cm0OTVfql+2iw6o&#xA;kD8XlZJb/UxexSRNOHcFI/hLFuVe564qs/On8rdU8+21nFYzWkLWtvfQK9z6iOj3kSosiSRh2K/B&#xA;xaP4eVakkLwZVknlTyzqmi65r1xMbaSy1ia3vElTmLgTR2VvaSJICvEoTa+oG5VqxqO+KpBL+Uy/&#xA;pyPzBA0MetR+YP0qt5zlqLJxwmg4fY5vEWX7P04qwLSf+cbPMNtpHmHTJNStI11DThp1pcxvM8ly&#xA;Rei8Ml5VIxH6nDgwXmRzY8v2cVTHSPyn806BFoVvHp+l6jcrqWq6lJZymZ9NgF1aLAkbTmEtU0Lc&#xA;vQAJJAUdcVWv/wA4+a8mv+WrxNQtbmDSbbRoLi6madJ4TpEhkYWkaq4KymnHlKvHeofFWSf8qovb&#xA;Py5ZW9jbaXc6tbeYLjXrz6yrRw3avcXcsEcsqRSPzSO5RQxRuJXYEChVY9qf5CeYLqy0KOK60+K4&#xA;09ZTcMnrRiIy6r+kvRgZV5PDGD6UangBSpDVARVP2/J66WLUXgeziv8AUZvMjzXSqyu8euPI1ukj&#xA;heTelyTmD/LtXFWTeSPJA8sXV00C28NpcWWnW/oWy8F+sWUTxSylQFHxqYwD1ou/QYqpab+XGlR+&#xA;dNe80alaWt3eahe211pk5UmaBbeygt6EkCh9SBmFOxxV5v5c/wCcetf0lfMMclzp06ahYS6fC8hn&#xA;kN4Jb0XTPeLwT0SUUp+7LspYsrCgGKp75d/KPzJpkekXE0unveWl5qktxCWeQLb6mqKvG4EELTTR&#xA;ekDyaJOVe3Uqo63/ACo1aLVvLj/XLcaPZ2+l/wCILQBy1xd6LFILSSKo48TLJGz8t6RJirHdF/Ib&#xA;zHYSaiWvbBEvG04qkHrKhNjrK6k7+mV4x80DBUWtGO7NuxVen+ftP84aj5eksfKl3b2OoXLrHPd3&#xA;DOjR2xB9UwMiTcZjsFYoQtSeoGKvM9e/I7zFdy2f6JbTdPs5NIXR7/TnkmmgtjEJ4Ib22rCGnmjt&#xA;r2dQsnAcm5EmmKsl8w/l95pvdc1yTSpLDT9N1HQH0O0m5StcRuwd1meP0uB/eScT8deIr12xVL/y&#xA;w/KHWPK2m2VrqI08R2utHVoLCzkuJILb/cc9kzRS3C+rI8jvzKvQLU0OKo//AJyR/wDJJeaf+MEP&#xA;/UTFirv+cbv/ACSXlb/jBN/1Ey4qkg87eb4fPyQNqV82nz+Ym0kWs9lbDSlthGTxF4kaTicnaMM5&#xA;5NQU8FUwuvzhuNR0KSbT7CfSpb7T11bQr2UwyiezW8ht3do/j9NqXCHiw6N4jFWW+Qta1LVYdda/&#xA;m9ZrPW9QsrY8UXjBBLxjT4AteI7nfxxViCfmZ50Y6ddPopcvqGvWkunWkkH7+HSppYo2MkzfAyei&#xA;VajfG+4AU0Cqpc/85EeTovNGkaJDb3M8GrRadKNQAREi/S4DWnON2Vz8LqXIHw8h1xVm3mzzQNAh&#xA;04R2cmoX2rXqafYWkbJHymeOSYlpHIVVWKB2r7UxVgOj/mrqVvbx3mrrc3D/AFC+uf0YsdurtMus&#xA;/ULaIupADrzWM78f2iT1xVHeaPzxs/LOnB9V0K8h1YX7ae2m84qErbLdmZLgt6TxmJ1A78/hoKHF&#xA;WY2nm7T73yVH5usoZriwm0/9JwW6qv1h4/R9YRhOXH1KfDTlSvfFWEaJ+eia1aWv1Dy9cT6rd6g2&#xA;mRaelxAQZBp51FZBOxWMoYhQsPcjkKVVUvOn5w3TeVbu68q2VybiPS7LVJr8/Vx9TTUJmjgDxSsw&#xA;kb9zJzCg8QKiuKs/82+ZYvLuj/pBrd7yaS4trO0tIiqtLcXk6W8KcnIVQZJRVj0GKsG0z8xtZXUh&#xA;+lUnipda4G03jak+lpsUTpEZQVFQXPBuXxV+L2VROkfnMNWtYEsdAuZNaub5tPi0wzQpR47QXkrS&#xA;SuVEfpxtxZGXly2pTfFVW8/OW0hhFzHol69pa2dpf640pihlsYr2d4I1aJmJldWgkLBNqLsTUYq3&#xA;qf50aHptrcTXVnP6tgmqy6nbRlWeBdJmWAk9AfrDyxel0qHr2OKoDQfz2tdf0W2u9I0C7udVuNV/&#xA;Q/6I9a3VxKbKW+WX1mcRGL0oTU1BBrttuqyb8w/NWueXdE0290qwjvLu81TTrCW2mfiFjvbhIXow&#xA;Kjn8fFT0BPIggEYqkGi/mrLa3Wo23mK0uY4IrzWVs9SCxGN00t3leBUjIf8Ad26/C7L8TKwJrTkq&#xA;mP5W/m3o/wCYUOoGys57G404W7zwTtG9Y7tWaFg0bNv+7YMp6EYqp6/+b+laJq50q6sZmuY9Vh02&#xA;44MpEdvPFBIL9q/7pU3aK3etfDFUHdfnZZRW8t5Do9zc2Fnavqeo3KSRL6OnC8mtIrlVYj1PUFrJ&#xA;KEX9mnc0xVMv+VqWMWuzadeaZc21nHc3tlDqRMbxy3Gn25u5UVFb1ADAjsGK0qpXrSqrFbv87b7S&#xA;rnV9a1rTLq00i30TSb7T9FrbyTST6ld3MKOJEJ481WNWV2ovE0H8yqd6B+dFp5h/QKaNol3cz601&#xA;8ksRkt4/qv6NmgiuWkZn4un+khkKVLbbb7Kpl5H/ADOtvNes6lpS6dLYTaeglUyyROXiaaSJWZUJ&#xA;Kc/T5p1VlNQxxVdrX5lQ6Zr1xpw0ue5sNOnsLXVtTR4wtvLqcix24ERPqSAGVC5UbA96HFVH8qtf&#xA;80655a1DWNaRmupNR1COztS1uI0jtbqW3SGIxIjAKYeJaVmYtVq8SAFWJ2n5u+b1utJ1HUNIZrGT&#xA;RtV1DUdOsngICWF5bJ9bDysH/dwvKvph/iYjboVVTt/z28tL+Y8fkkWlwzySw2o1P4BCLq4h+sRx&#xA;8CRJx4FVL0+0QKd8Vd/zkj/5JLzT/wAYIf8AqJixV3/ON3/kkvK3/GCb/qJlxVkP1T8vLrUW0cXN&#xA;pLqUeojVm09butwt9GQ/qmISc/hoDxpx9sVas/yt8i2Yulg05gl3H6Lxvc3MiRwib6x6NurystvH&#xA;6vxFIQq1pttiqe6Xoum6Ut0thD6K3lzLe3I5O3KeduUj/GWpyPYbeGKpba+RPK9rey3sFo6zzTXN&#xA;ywNxcNGJr0EXLpE0hjj9WpLcFFW+LrviqXP+WX5dW95o1xJYLFNpi2lrpSNc3CxsdPRvqYaIy+nc&#xA;SQLyMbSKzDrXFU98weW9I8wWcVrqccjpBMlzbyQzTW00U0YIWSKaB4pUYBiKqw2JHQ4qlGneQPy+&#xA;+qGCysILi0hguNMaP1ZJ0WNrkzzwkM7jmtytan4lYUFKYqpT/lN5CuNOawmsJnje5kvZLk3t79ba&#xA;eaL0JHe89b6y3OH92wMlCu3TFU7ttG8uT+Wk0S2t7eby81t9RS0SjwG2CekYtiQV4jjiqUaZ5A8h&#xA;aHqNnJa2/o6j9ae9s2nu7iaaS6FmbOSQevK7St9VJVq1/m+1viqHu/yx/LjUwthJaeoNPtobCa1h&#xA;vLlP9HjJmgiuUimX1ODOXj9WpBNV64qyTXdB0rXtLl0zVITPZzFGZVd4nV4nEkbpJGUdHR1DKysC&#xA;CNsVSJPy+/L+1MNg9mjPMt/6cFzczTPOL9FS/LCaR2m9RQvMtXx74q3bflf5Lt7CWyjtJ6S3P11r&#xA;tr28a8W49IQCRLwzG5QiEemOMg+HboTirU35VeQpVsUOmFItPghtYIYri5iieC2k9aGK4jjkVLlU&#xA;kq4E4fck9ziqKm/L3ybNfa3fTaZHLc+Y4RbayztIyzxKgj48C3BKqoqUCk0BO4GKu0b8vvKWji3+&#xA;oWbq9tetqUc01xc3Exu3tnszLJLPJJJJ/o8rRgOxAHQbDFUy17y/pOv6a+m6rCZrR3jlASSSGRZI&#xA;ZFlikjlhaOSN0dAysjAjFUCnkTyqv1etj6v1aS7mi9aWaWsmoKyXTP6jt6nqrI1edeu2Ku8q+RfK&#xA;3lQXX6DtGt2vPSFzJLPPcyOsCenCnqXEkrhI0+FFBoo6DFVLV/y68m6vql7quo6cJr/ULFtLu5/V&#xA;mQtaMwcoAjqqtyRf3igPsPi2GKoe6/KzyJdRafDLppEGmWsOn20MdxcxRtaW7B4re4SOVVuY0YV4&#xA;zBxWvicVTF/JnlmS5iuZLIPLDd3F/GWeQr9Yu4Htp3KluLB4ZWXiRx32FcVSi3/KLyBb2V1Zpp8r&#xA;wXcFvay+reXkrrDZyma1SKSSZnh9B2rH6ZUrtToMVTHRPIPlPRHsJNMsfQk01btLSQyzSOBfyJLd&#xA;F2kdzK0rwoS0nJttj1xVvy75D8reXb64vdItGguLmNYCXnnmSOFXaRYYEld0hjDuzcIwq79OmKta&#xA;l5C8qalrket3lm0moI0DsVnuI4ZGtHMlu09ukiwTNC5qhkRivbpiqZ6Poum6NY/UdNh9C19We49P&#xA;k7/vLqZ7iZquWb4pZWalaCtBtiqS235a+TLb6x6Vi/G5t7yzkR7m6dVt9RaN7qKJXlZYkkeFWpGB&#xA;xNStOTVVXH8uPJh8xReYTp/+5WFo5Ek9af0vVhhMEczW/qeg8qRHgsjIXA74qxr/AJyR/wDJJeaf&#xA;+MEP/UTFirv+cbv/ACSXlb/jBN/1Ey4qkdz5V8zDzJBqrQGbTY/OHrGwWxZbn0pBwW7+uBi3ooxD&#xA;N8HFlBBamKsV0PzL+f76J5r9T69LrEdgJeMtmwS1vmvQkiWYa3i9XhZ8nVIzKp4qQ1WpiqaaN5q8&#xA;8nRNEg8wanrNtZ3GoapC1/bWTtqE9hb2yvbSekbVbjaYlef1dWIFSADyxVTl8x/ngvmzykt19cgW&#xA;a00gXVlFZkw3DzOf0m1yVhlhieNAOXKeP0+qBqnFU5v7bzfJ5e03WNcvdZMx8zXDzxwWYeWw0+3e&#xA;/to5IYYoDLwkhKMZHDmjBl7Yqk2ra1+cqWfla5s5NWdwjs8f1Ji1xGNUEcT3aRwMVkbT+LSLL6QF&#xA;arVuQVVN9Ls/P+h2+vT6edQK6heea5YrBrYMkLrczz2E8FIhJymc1UszCQMKDZcVZt+Xv+LIZryz&#xA;125u76L6pp93Bd3sKROLi4icXcCmOOJCI3iVuPHkvKhPTFWER/8AKy7ezRtP+vWEWmaM19Bp1vYx&#xA;rBcX66jN+4kT0eXxwAVSMq1G5dd8VZh5/wBI17UPN3kyTSZZLQ209+0+opb/AFhIFezZR6gb4F5n&#xA;4RyPXFWDa/pv5jaXdeZ3s7y/e6vNW0nnq1rZlPWtVsuLqqwx3D8BIFRmhRjy2YopZlVX6ddfnFqW&#xA;kxXk97qum39vpXl1hCtjFxkvLu4lh1JpI5YGJeKEB3QUCVDEdMVd5jh8yw6xocmrXOurZaVd67a/&#xA;puxsmnuxbPHCbQuYoJB8bfAsgT4qdftHFUfY+ZvzQgXT7TWLS/8A0lqaeV5Ea3tDLDFyuYl1v1nj&#xA;QrDSMn1A/wBmtV2FQqlHm3XfzE0fyHFeyanqZ1zXPMc9nFYEW9rNDY21xeNGlqTbtIvqwW6NzZJC&#xA;wIp8JxV6j+XeprdeVtJgOoTazNHp1nPLrbxSpFdmdG+NHkA5NWMl1ryWo5UrirJ8VdirsVdirsVd&#xA;irsVdirsVdirsVdirsVdirzX/nJH/wAkl5p/4wQ/9RMWKsD/ACg/Nu28o/lvonl3VfKvmZtQ0+KR&#xA;JzBpUrx1eZ5BxYlSdnHbFWY/9DD6F/1Kfmv/ALhEn/NeKu/6GH0L/qU/Nf8A3CJP+a8VUpPz88ry&#xA;zw3Enk3zO9xb8vq8zaM5ePmKPwYtVeQ2NOuKqv8A0MPoX/Up+a/+4RJ/zXirv+hh9C/6lPzX/wBw&#xA;iT/mvFXf9DD6F/1Kfmv/ALhEn/NeKu/6GH0L/qU/Nf8A3CJP+a8Vd/0MPoX/AFKfmv8A7hEn/NeK&#xA;u/6GH0L/AKlPzX/3CJP+a8Vd/wBDD6F/1Kfmv/uESf8ANeKu/wChh9C/6lPzX/3CJP8AmvFXf9DD&#xA;6F/1Kfmv/uESf814q7/oYfQv+pT81/8AcIk/5rxV3/Qw+hf9Sn5r/wC4RJ/zXiqC1j86/I+t2Zsd&#xA;Z8h+YdTsiwc2t5oX1iLkv2W4SFlqOxpiqKh/5yB8uQQxwQeUPNMUMShIok0d1VVUUVVUNQADoMVX&#xA;/wDQw+hf9Sn5r/7hEn/NeKu/6GH0L/qU/Nf/AHCJP+a8Vd/0MPoX/Up+a/8AuESf814q7/oYfQv+&#xA;pT81/wDcIk/5rxV3/Qw+hf8AUp+a/wDuESf814q7/oYfQv8AqU/Nf/cIk/5rxV3/AEMPoX/Up+a/&#xA;+4RJ/wA14q7/AKGH0L/qU/Nf/cIk/wCa8Vd/0MPoX/Up+a/+4RJ/zXirv+hh9C/6lPzX/wBwiT/m&#xA;vFXf9DD6F/1Kfmv/ALhEn/NeKu/6GH0L/qU/Nf8A3CJP+a8Vd/0MPoX/AFKfmv8A7hEn/NeKu/6G&#xA;H0L/AKlPzX/3CJP+a8VYd+b/AObdt5u/LfW/LuleVfMy6hqEUaQGfSpUjqkySHkwLEbIe2Kv/9k=</xmpGImg:image>
               </rdf:li>
            </rdf:Alt>
         </xmp:Thumbnails>
         <xmpTPg:MaxPageSize rdf:parseType="Resource">
            <stDim:w>799.500000</stDim:w>
            <stDim:h>246.990005</stDim:h>
            <stDim:unit>Pixels</stDim:unit>
         </xmpTPg:MaxPageSize>
         <xmpTPg:NPages>1</xmpTPg:NPages>
         <xmpTPg:HasVisibleTransparency>False</xmpTPg:HasVisibleTransparency>
         <xmpTPg:HasVisibleOverprint>False</xmpTPg:HasVisibleOverprint>
         <xmpTPg:PlateNames>
            <rdf:Seq>
               <rdf:li>Cyan</rdf:li>
               <rdf:li>Magenta</rdf:li>
               <rdf:li>Yellow</rdf:li>
               <rdf:li>Black</rdf:li>
            </rdf:Seq>
         </xmpTPg:PlateNames>
         <xmpTPg:SwatchGroups>
            <rdf:Seq>
               <rdf:li rdf:parseType="Resource">
                  <xmpG:groupName>Default Swatch Group</xmpG:groupName>
                  <xmpG:groupType>0</xmpG:groupType>
               </rdf:li>
            </rdf:Seq>
         </xmpTPg:SwatchGroups>
         <dc:format>image/svg+xml</dc:format>
      </rdf:Description>
   </rdf:RDF>
</x:xmpmeta>
                                                                                                    
                                                                                                    
                                                                                                    
                                                                                                    
                                                                                                    
                                                                                                    
                                                                                                    
                                                                                                    
                                                                                                    
                                                                                                    
                                                                                                    
                                                                                                    
                                                                                                    
                                                                                                    
                                                                                                    
                                                                                                    
                                                                                                    
                                                                                                    
                                                                                                    
                                                                                                    
                           
<?xpacket end="w"?>
	</metadata>
<title>T_CharacterMenu_Intructions</title>
<g id="Layer_2_1_">
	<g id="Layer_22">
		<rect x="2.5" y="49.9" class="st0" width="794.5" height="194.6"/>
		<path d="M794.5,52.4v189.5H5.1V52.4H794.5 M799.5,47.4H0V247h799.5L799.5,47.4L799.5,47.4z"/>
		<path d="M32.7,87.7v10.9h-3V74.8h3V85h15.1V74.8h3v23.8h-3V87.7H32.7z"/>
		<path d="M56.1,90.5c0-5,3.2-8.5,7.6-8.5c2.2-0.1,4.3,1,5.4,2.8c1,1.7,1.5,3.7,1.4,5.7c0,0.3,0,0.6,0,1H59c-0.1,1.5,0.5,2.9,1.5,4
			c0.9,0.8,2,1.2,3.2,1.2h0.1c2.2,0.1,3.9-1.7,4-3.8c0,0,0,0,0,0h2.8c0,1.3-0.4,2.5-1.1,3.6c-0.7,1.2-1.8,2-3.2,2.4
			c-0.8,0.3-1.7,0.4-2.5,0.4C58.9,99.1,56.1,95.6,56.1,90.5z M59,89h8.8c0-3-1.7-4.5-4.1-4.5C61.1,84.5,59.1,86.4,59,89
			C59,89,59,89,59,89z"/>
		<path d="M78.8,74.8v23.8H76V74.8H78.8z"/>
		<path d="M87.7,85c0.9-2,2.6-3,5.1-3c4,0,6.5,3.5,6.5,8.4c0,5.3-2.6,8.7-6.7,8.7c-2.1,0.2-4.1-1.1-4.9-3.1v8.9H85V82.4h2.7V85z
			 M92.3,96.7c2.7,0,4.3-2.5,4.3-6.6c0-3.8-1.7-5.9-4.3-5.9c-2.8,0-4.5,2.3-4.5,6.3C87.7,94.4,89.5,96.8,92.3,96.7L92.3,96.7z"/>
		<path d="M114.7,93.7v-9h-2.6v-2.2h2.6v-4.7h2.8v4.7h3.8v2.2h-3.8v8.6c0,0.5,0.1,1,0.2,1.5c0.1,0.3,0.3,0.6,0.6,0.9
			c0.2,0.2,0.5,0.3,0.8,0.4c0.3,0.1,0.7,0.1,1,0.1h1.9v2.5h-1c-1,0-1.9,0-2.9-0.2c-0.8-0.1-1.5-0.4-2.1-0.9c-0.6-0.6-1-1.3-1.1-2.2
			C114.8,94.8,114.7,94.2,114.7,93.7z"/>
		<path d="M128.2,90.4v8.3h-2.8V74.9h2.8v10.2c0.9-2,3-3.3,5.2-3.2c3.1,0,5.3,2,5.3,5v11.7h-2.8V87.5c0-2-1-3.1-2.9-3.1
			C130,84.4,128.2,86.7,128.2,90.4z"/>
		<path d="M144,90.5c0-5,3.1-8.5,7.6-8.5c2.2-0.1,4.3,1,5.4,2.8c1,1.7,1.5,3.7,1.4,5.7c0,0.3,0,0.6,0,1h-11.6
			c-0.1,1.5,0.5,2.9,1.5,4c0.9,0.8,2,1.2,3.2,1.2h0.1c2.2,0.1,3.9-1.7,4-3.8c0,0,0,0,0,0h2.7c0,1.3-0.4,2.5-1.1,3.6
			c-0.7,1.2-1.8,2-3.2,2.4c-0.8,0.3-1.7,0.4-2.6,0.4C146.8,99.1,144,95.6,144,90.5z M146.9,89h8.8c0-3-1.7-4.5-4.1-4.5
			C149,84.4,147,86.4,146.9,89C146.9,88.9,146.9,89,146.9,89L146.9,89z"/>
		<path d="M172,88.5h2.9c0.2,5.4,2.1,7.8,6.8,7.8c2.1,0,3.5-0.5,4.2-1.3c0.7-0.8,1-1.8,1-2.8c0-2.4-1.4-3.7-5.3-4.6
			c-5.6-1.3-8.3-3.5-8.3-7.1s2.9-6.1,7.9-6.1c5.8,0,8.7,2.9,8.7,8.6c0,0.2,0,0.4,0,0.6H187v-0.2c0-1.3-0.2-2.5-0.6-3.7
			c-0.3-0.8-0.9-1.5-1.7-1.9c-0.7-0.3-1.5-0.5-2.4-0.6c-0.4,0-0.8,0-1.3,0c-2.9,0-4.6,1.3-4.6,3.3c0,0.8,0.4,1.6,1,2.1
			c0.7,0.6,1.5,1,2.3,1.2c1,0.3,1.6,0.5,2.5,0.7h0.1l0.2,0.1c1.5,0.3,2.9,0.8,4.2,1.5c1.3,0.7,2.3,1.8,2.9,3.2
			c0.3,0.8,0.4,1.7,0.4,2.5c0.1,1.5-0.3,3-1.1,4.3c-0.9,1.4-2.4,2.4-4.1,2.7c-1.2,0.3-2.4,0.4-3.6,0.4c-2.3,0.1-4.6-0.6-6.3-2.1
			c-1.5-1.4-2.4-3.2-2.7-5.3c-0.1-0.8-0.2-1.7-0.2-2.5C172,89,172,88.8,172,88.5z"/>
		<path d="M203.1,98.6h-4.9l-4.4-16.2h2.7l4.1,15.3l3.8-15.3h4.8l3.8,15.3l4.1-15.3h2.7l-4.4,16.2h-4.9l-3.8-15.1L203.1,98.6z"/>
		<path d="M223.2,90.5c0-5,3.1-8.5,7.6-8.5c2.2-0.1,4.3,1,5.4,2.8c1,1.7,1.5,3.7,1.4,5.7c0,0.3,0,0.6,0,1H226
			c-0.1,1.5,0.5,2.9,1.5,4c0.9,0.8,2,1.2,3.2,1.2h0.1c2.2,0,3.9-1.7,4-3.8h2.7c0,1.3-0.4,2.5-1.1,3.6c-0.7,1.2-1.8,2-3.2,2.4
			c-0.8,0.3-1.7,0.4-2.5,0.4C226,99.1,223.2,95.6,223.2,90.5z M226.1,89h8.8c0-3-1.7-4.5-4.1-4.5C228.2,84.4,226.1,86.4,226.1,89
			C226.1,88.9,226.1,89,226.1,89L226.1,89z"/>
		<path d="M248.9,82c2.1-0.1,4.1,1.1,4.9,3.1V74.9h2.8v23.8h-2.7V96c-0.8,2-2.2,3.1-5.1,3.1c-3.9,0-6.5-3.5-6.5-8.4
			C242.1,85.4,244.7,82,248.9,82z M249.2,96.8c2.8,0,4.6-2.4,4.6-6.3c0-3.7-1.8-6.1-4.6-6.1s-4.2,2.5-4.2,6.5
			C245,94.7,246.6,96.8,249.2,96.8L249.2,96.8z"/>
		<path d="M261.9,77.1c0-1.2,1-2.2,2.2-2.2c1.2,0,2.2,1,2.2,2.2c0,1.2-1,2.2-2.2,2.2C262.9,79.2,261.9,78.3,261.9,77.1z M265.5,82.5
			v16.2h-2.8V82.4L265.5,82.5z"/>
		<path d="M270.6,91.5h2.6c0,3.6,1.5,5.4,4.6,5.4c1.9,0,3.4-1.1,3.4-2.7c0.1-0.8-0.3-1.6-1-2c-0.7-0.4-1.5-0.7-2.3-0.9
			c-0.6-0.2-1-0.3-1.3-0.4c-2.8-1-4.9-1.6-5.1-4.2c0-0.1,0-0.2,0-0.3c0-2.7,2.4-4.4,5.5-4.4c4.5,0,6.8,2.1,6.8,6.3h-2.6
			c0-1.6-0.4-2.6-1.1-3.2c-0.9-0.6-1.9-0.9-3-0.8c-1.7,0-2.9,0.7-2.9,2c0,0.4,0.1,0.8,0.4,1.2c0.3,0.3,0.6,0.6,1,0.7
			c0.5,0.2,0.9,0.4,1.4,0.5c0.4,0.1,0.6,0.2,0.8,0.3c3.2,1,4.9,1.3,5.8,3.3c0.2,0.5,0.3,1,0.3,1.6c0,3.5-2.1,5.4-6.1,5.4
			c-1.5,0-3.1-0.4-4.4-1.2c-0.9-0.6-1.7-1.5-2.1-2.6c-0.4-0.9-0.6-1.9-0.7-2.8c0-0.3,0-0.5,0-0.8L270.6,91.5z"/>
		<path d="M292,90.4v8.3h-2.8V74.9h2.8v10.2c0.9-2,3-3.3,5.2-3.2c3.1,0,5.3,2,5.3,5v11.7h-2.8V87.5c0-2-1-3.1-2.9-3.1
			C293.8,84.4,292,86.7,292,90.4z"/>
		<path d="M321.6,85.1c0.8-1.9,2.8-3.2,4.9-3.1c4.1,0,6.7,3.4,6.7,8.7c0,4.9-2.5,8.4-6.5,8.4c-0.9,0-1.7-0.1-2.6-0.4
			c-1.2-0.4-2.2-1.4-2.5-2.7v2.6h-2.7V74.9h2.8V85.1z M326.1,96.8c2.6,0,4.2-2.1,4.2-5.9c0-4.1-1.6-6.6-4.2-6.6s-4.5,2.4-4.5,6.1
			C321.6,94.4,323.3,96.8,326.1,96.8z"/>
		<path d="M337.2,94.6c0-2.9,1.9-4.6,4.8-5.3c3.9-0.9,5.5-1.3,5.5-2.7c0-1.1-0.2-1.6-1.1-2c-0.6-0.2-1.3-0.3-2-0.3
			c-2.6,0-3.9,1.1-3.9,4h-2.8V88c0-3.8,2.6-6.1,6.6-6.1c2.2,0,3.8,0.5,4.6,1.4c0.9,0.9,1.3,2.1,1.3,3.3v12h-2.8v-2.9
			c-0.9,2.1-3.1,3.5-5.4,3.4C339,99.1,337.2,97.2,337.2,94.6z M339.9,94.5c0,1.3,0.9,2.4,2.7,2.4c1.8-0.1,3.4-1,4.2-2.6
			c0.4-0.6,0.6-1.3,0.6-2v-2.7c-0.5,0.3-1,0.5-1.3,0.6l-0.6,0.2l-0.5,0.2l-0.6,0.2L344,91c-1,0.2-1.9,0.6-2.8,1.2
			C340.4,92.6,339.9,93.5,339.9,94.5z"/>
		<path d="M358.8,90.4v8.3H356V82.4h2.8v2.6c0.9-2,3-3.3,5.2-3.2c3.1,0,5.3,2,5.3,5v11.7h-2.8V87.5c0-2-1-3.1-2.9-3.1
			C360.6,84.4,358.8,86.7,358.8,90.4z"/>
		<path d="M381.4,82c2.1-0.1,4.1,1.1,4.9,3.1V74.9h2.7v23.8h-2.7V96c-0.8,2-2.1,3.1-5.1,3.1c-4,0-6.5-3.5-6.5-8.4
			C374.7,85.4,377.3,82,381.4,82z M381.7,96.8c2.8,0,4.6-2.4,4.6-6.3c0-3.7-1.8-6.1-4.6-6.1s-4.2,2.5-4.2,6.6
			C377.5,94.7,379.1,96.8,381.7,96.8z"/>
		<path d="M394.2,91.5h2.6c0,3.6,1.5,5.4,4.6,5.4c1.9,0,3.4-1.1,3.4-2.7c0.1-0.8-0.3-1.6-1-2c-0.7-0.4-1.5-0.7-2.3-0.9
			c-0.6-0.2-1-0.3-1.3-0.4c-2.8-1-4.9-1.6-5.1-4.2c0-0.1,0-0.2,0-0.3c0-2.7,2.4-4.4,5.5-4.4c4.5,0,6.8,2.1,6.8,6.3h-2.6
			c0-1.6-0.4-2.6-1.1-3.2c-0.9-0.6-1.9-0.9-3-0.8c-1.7,0-2.9,0.7-2.9,2c0,0.4,0.1,0.8,0.4,1.2c0.3,0.3,0.6,0.6,1,0.7
			c0.5,0.2,0.9,0.4,1.4,0.5c0.4,0.1,0.6,0.2,0.8,0.3c3.2,1,4.9,1.3,5.8,3.3c0.2,0.5,0.3,1,0.3,1.6c0,3.5-2.1,5.4-6.1,5.4
			c-1.5,0-3-0.4-4.4-1.2c-0.9-0.6-1.7-1.5-2.1-2.6c-0.4-0.9-0.6-1.9-0.7-2.8c0-0.3,0-0.5,0-0.8L394.2,91.5z"/>
		<path d="M422.7,93.7v-9h-2.5v-2.2h2.5v-4.7h2.8v4.7h3.8v2.2h-3.8v8.6c0,0.5,0.1,1,0.2,1.5c0.1,0.3,0.3,0.6,0.6,0.9
			c0.2,0.2,0.5,0.3,0.9,0.4c0.3,0.1,0.7,0.1,1,0.1h1.9v2.5h-1c-1,0-1.9,0-2.9-0.2c-0.8-0.1-1.5-0.4-2.1-0.9c-0.6-0.6-1-1.3-1.1-2.2
			C422.8,94.8,422.7,94.2,422.7,93.7z"/>
		<path d="M432.3,90.4c0-5.1,2.7-8.4,7.4-8.4h0.1c4.7,0,7.4,3.3,7.4,8.4c0,5.3-2.7,8.7-7.4,8.7S432.3,95.7,432.3,90.4z M435.2,90.6
			c0,4,1.6,6,4.5,6s4.5-2,4.5-6s-1.6-6.1-4.5-6.1S435.2,86.5,435.2,90.6L435.2,90.6z"/>
		<path d="M462.1,98.6v-14H460v-2.2h2.2v-2.7c0-1.9,0.2-3.1,1.1-4s2.2-1.3,4.5-1.3h1.1v2.5h-1.1c-1.3,0-1.9,0.1-2.3,0.6
			s-0.5,1.2-0.5,2.8v2.2h9.6v16.2h-2.8v-14h-6.9v14L462.1,98.6z M470.9,77.1c0-1.2,1-2.2,2.2-2.2c1.2,0,2.2,1,2.2,2.2
			c0.1,1.2-0.8,2.3-2.1,2.4c-1.2,0.1-2.3-0.8-2.4-2.1C470.9,77.3,470.9,77.2,470.9,77.1z"/>
		<path d="M483.4,90.4v8.3h-2.8V82.4h2.8v2.6c0.9-2,3-3.3,5.2-3.2c3.1,0,5.3,2,5.3,5v11.7h-2.8V87.5c0-2-1-3.1-2.9-3.1
			C485.2,84.4,483.4,86.7,483.4,90.4z"/>
		<path d="M506,82c2.1-0.1,4.1,1.1,4.9,3.1V74.9h2.8v23.8h-2.7V96c-0.8,2-2.2,3.1-5.1,3.1c-4,0-6.5-3.5-6.5-8.4
			C499.3,85.4,501.9,82,506,82z M506.4,96.8c2.8,0,4.6-2.4,4.6-6.3c0-3.7-1.8-6.1-4.6-6.1s-4.2,2.5-4.2,6.6
			C502.1,94.7,503.8,96.8,506.4,96.8L506.4,96.8z"/>
		<path d="M530,93.7v-9h-2.5v-2.2h2.5v-4.7h2.8v4.7h3.8v2.2h-3.8v8.6c0,0.5,0.1,1,0.2,1.5c0.1,0.3,0.3,0.6,0.6,0.9
			c0.3,0.2,0.5,0.3,0.9,0.4c0.3,0.1,0.7,0.1,1,0.1h1.9v2.5h-1c-1,0-1.9,0-2.9-0.2c-0.8-0.1-1.5-0.4-2.1-0.9c-0.6-0.6-1-1.3-1.1-2.2
			C530.1,94.8,530,94.2,530,93.7z"/>
		<path d="M543.5,90.4v8.3h-2.8V74.9h2.8v10.2c0.9-2,3-3.3,5.2-3.2c3.1,0,5.3,2,5.3,5v11.7h-2.8V87.5c0-2-1-3.1-2.9-3.1
			C545.3,84.4,543.5,86.7,543.5,90.4z"/>
		<path d="M559.3,90.5c0-5,3.1-8.5,7.6-8.5c2.2-0.1,4.3,1,5.4,2.8c1,1.7,1.5,3.7,1.4,5.7c0,0.3,0,0.6,0,1h-11.6
			c-0.1,1.5,0.5,2.9,1.5,4c0.9,0.8,2,1.2,3.2,1.2h0.1c2.2,0,3.9-1.7,4-3.8h2.7c0,1.3-0.4,2.5-1.1,3.6c-0.7,1.2-1.8,2-3.2,2.4
			c-0.8,0.3-1.7,0.4-2.5,0.4C562.1,99.1,559.3,95.6,559.3,90.5z M562.2,89h8.8c0-3-1.7-4.5-4.1-4.5C564.4,84.4,562.3,86.4,562.2,89
			C562.2,88.9,562.2,89,562.2,89L562.2,89z"/>
		<path d="M596.5,98.6h-4.8l-4.4-16.2h2.7l4.1,15.3l3.8-15.3h4.8l3.8,15.3l4.1-15.3h2.7l-4.4,16.2h-4.8l-3.8-15.1L596.5,98.6z"/>
		<path d="M616.2,94.6c0-2.9,1.9-4.6,4.8-5.3c3.8-0.9,5.5-1.3,5.5-2.7c0-1.1-0.2-1.6-1.1-2c-0.6-0.2-1.3-0.3-2-0.3
			c-2.6,0-3.9,1.1-3.9,4h-2.8V88c0-3.8,2.6-6.1,6.7-6.1c2.2,0,3.8,0.5,4.6,1.4c0.9,0.9,1.3,2.1,1.3,3.3v12h-2.8v-2.9
			c-0.9,2.1-3.1,3.5-5.4,3.4C618,99.1,616.2,97.2,616.2,94.6z M619,94.5c0,1.3,0.9,2.4,2.7,2.4c1.8-0.1,3.4-1,4.2-2.6
			c0.4-0.6,0.6-1.3,0.6-2v-2.7c-0.5,0.3-1,0.5-1.3,0.6l-0.6,0.2l-0.5,0.2l-0.6,0.2L623,91c-1,0.2-1.9,0.6-2.8,1.2
			C619.4,92.6,619,93.5,619,94.5L619,94.5z"/>
		<path d="M641.2,98.6h-1.8l-6.3-16.2h2.7l5.3,13.6l0.5,1.2l5.2-14.8h2.8l-7,20.3c-0.3,1-0.9,1.9-1.7,2.5c-0.9,0.6-1.9,0.9-3,0.9
			c-0.6,0.1-1.3,0.1-2.2,0.1h-1v-2.5h1.4c2.1,0,3.3-0.3,3.9-1.9L641.2,98.6z"/>
		<path d="M664.2,93.7v-9h-2.5v-2.2h2.5v-4.7h2.8v4.7h3.8v2.2H667v8.6c0,0.5,0.1,1,0.2,1.5c0.1,0.3,0.3,0.6,0.6,0.9
			c0.2,0.2,0.5,0.3,0.8,0.4c0.3,0.1,0.7,0.1,1,0.1h1.8v2.5h-1c-1,0-1.9,0-2.9-0.2c-0.8-0.1-1.5-0.4-2.1-0.9c-0.6-0.6-1-1.3-1.1-2.2
			C664.3,94.8,664.2,94.2,664.2,93.7z"/>
		<path d="M673.8,90.4c0-5.1,2.7-8.4,7.4-8.4h0.1c4.7,0,7.4,3.3,7.4,8.4c0,5.3-2.7,8.7-7.4,8.7S673.8,95.7,673.8,90.4z M676.7,90.6
			c0,4,1.7,6,4.5,6s4.5-2,4.5-6s-1.6-6.1-4.5-6.1S676.7,86.5,676.7,90.6L676.7,90.6z"/>
		<path d="M704,93.7v-9h-2.5v-2.2h2.5v-4.7h2.8v4.7h3.8v2.2h-3.8v8.6c0,0.5,0.1,1,0.2,1.5c0.1,0.3,0.3,0.6,0.6,0.9
			c0.2,0.2,0.5,0.3,0.8,0.4c0.3,0.1,0.7,0.1,1,0.1h1.8v2.5h-1c-1,0-1.9,0-2.9-0.2c-0.8-0.1-1.5-0.4-2.1-0.9c-0.6-0.6-1-1.3-1.1-2.2
			C704,94.8,704,94.2,704,93.7z"/>
		<path d="M717.5,90.4v8.3h-2.8V74.9h2.8v10.2c0.9-2,3-3.3,5.2-3.2c3.1,0,5.3,2,5.3,5v11.7h-2.8V87.5c0-2-1-3.1-2.9-3.1
			C719.3,84.4,717.5,86.7,717.5,90.4z"/>
		<path d="M733.3,90.5c0-5,3.1-8.5,7.6-8.5c2.2-0.1,4.3,1,5.4,2.8c1,1.7,1.5,3.7,1.4,5.7c0,0.3,0,0.6,0,1h-11.6
			c-0.1,1.5,0.5,2.9,1.5,4c0.9,0.8,2,1.2,3.2,1.2h0.1c2.2,0.1,3.9-1.7,4-3.8c0,0,0,0,0,0h2.7c0,1.3-0.4,2.5-1.1,3.6
			c-0.7,1.2-1.8,2-3.2,2.4c-0.8,0.3-1.7,0.4-2.5,0.4C736.1,99.1,733.3,95.6,733.3,90.5z M736.2,89h8.8c0-3-1.7-4.5-4.1-4.5
			c-2.5-0.1-4.6,1.9-4.7,4.4C736.2,88.9,736.2,88.9,736.2,89L736.2,89z"/>
		<path d="M752.2,77.1c0-1.2,1-2.2,2.2-2.2c1.2,0,2.2,1,2.2,2.2c0,1.2-1,2.2-2.2,2.2C753.2,79.2,752.3,78.3,752.2,77.1z M755.8,82.5
			v16.2h-2.8V82.4L755.8,82.5z"/>
		<path d="M764.7,89.7v8.9h-2.6V82.4h2.5v3.6c0.3-0.9,0.8-1.7,1.5-2.3c0.6-0.5,1.3-0.8,2-1c0.6-0.1,1.2-0.2,1.8-0.3h1.4v2.8h-0.6
			H770c-0.6,0-1.2,0-1.8,0.1c-0.6,0.1-1.2,0.3-1.7,0.6c-0.6,0.3-1,0.8-1.3,1.3C764.8,88.1,764.7,88.9,764.7,89.7z"/>
		<path d="M38.1,139.6h-4.8l-5.4-16.2h2.7l5,15.2l5.1-15.2h2.7L38.1,139.6z"/>
		<path d="M46.5,131.5c0-5,3.1-8.5,7.6-8.5c2.2-0.1,4.3,1,5.4,2.8c1,1.7,1.5,3.7,1.4,5.7c0,0.3,0,0.6,0,0.9H49.4
			c-0.1,1.5,0.5,2.9,1.5,4c0.9,0.8,2,1.2,3.2,1.2h0.1c2.2,0.1,3.9-1.7,4-3.8c0,0,0,0,0,0h2.7c0,1.3-0.4,2.5-1.1,3.6
			c-0.7,1.2-1.8,2-3.2,2.4c-0.8,0.3-1.7,0.4-2.5,0.4C49.3,140.1,46.5,136.6,46.5,131.5z M49.5,130h8.8c0-3-1.7-4.5-4.1-4.5
			C51.6,125.4,49.5,127.4,49.5,130C49.5,129.9,49.4,130,49.5,130L49.5,130z"/>
		<path d="M69.2,131.4v8.3h-2.8v-16.2h2.8v2.6c0.9-2,3-3.3,5.2-3.2c3.1,0,5.3,2,5.3,5v11.7h-2.8v-11.1c0-1.9-1-3.1-2.9-3.1
			C71,125.4,69.2,127.7,69.2,131.4z"/>
		<path d="M85.8,135.1v-11.7h2.8v11.1c0,1.9,1,3.1,2.9,3.1c3,0,4.8-2.5,4.8-5.9v-8.3h2.8v16.2h-2.8v-2.7c-1,2.1-3.1,3.4-5.3,3.2
			c-2.6,0.2-4.9-1.7-5.2-4.3C85.8,135.6,85.8,135.4,85.8,135.1z"/>
		<path d="M104.5,131.5c0-5,3.2-8.5,7.6-8.5c2.2-0.1,4.3,1,5.4,2.8c1,1.7,1.5,3.7,1.4,5.7c0,0.3,0,0.6,0,0.9h-11.6
			c-0.1,1.5,0.5,2.9,1.5,4c0.9,0.8,2,1.2,3.2,1.2h0.1c2.2,0.1,3.9-1.7,4-3.8c0,0,0,0,0,0h2.7c0,1.3-0.4,2.5-1.1,3.6
			c-0.7,1.2-1.8,2-3.2,2.4c-0.8,0.3-1.7,0.4-2.6,0.4C107.3,140.1,104.5,136.6,104.5,131.5z M107.4,130h8.8c0-3-1.7-4.5-4.1-4.5
			C109.5,125.4,107.4,127.4,107.4,130C107.4,129.9,107.4,130,107.4,130L107.4,130z"/>
		<path d="M141.1,130v9.6h-3v-23.8h8.7c4.4,0,6.8,2.8,6.8,7.1s-2.5,7-7.4,7H141.1z M145.7,118.8h-4.6v8.4h3.3c0.9,0,1.3,0,2.1-0.1
			c0.6,0,1.2-0.1,1.8-0.3c0.5-0.2,1-0.5,1.3-0.9c0.4-0.5,0.6-1,0.7-1.7c0.1-0.4,0.1-0.8,0.1-1.2C150.4,120.1,149,118.7,145.7,118.8
			L145.7,118.8z"/>
		<path d="M157.1,131.4c0-5.1,2.7-8.4,7.4-8.4h0.1c4.7,0,7.4,3.3,7.4,8.4c0,5.3-2.7,8.7-7.4,8.7S157.1,136.7,157.1,131.4z
			 M160,131.6c0,4,1.7,6,4.6,6s4.5-2,4.5-6s-1.6-6.1-4.5-6.1S160,127.5,160,131.6L160,131.6z"/>
		<path d="M176.4,131.4c0-5.1,2.7-8.4,7.4-8.4h0.1c4.7,0,7.4,3.3,7.4,8.4c0,5.3-2.7,8.7-7.4,8.7S176.4,136.7,176.4,131.4z
			 M179.3,131.6c0,4,1.7,6,4.6,6s4.6-2,4.6-6s-1.6-6.1-4.6-6.1S179.3,127.5,179.3,131.6z"/>
		<path d="M195.7,131.4c0-5,3.1-8.4,7.8-8.4c2,0,4,0.7,5.4,2.1c1.2,1.3,1.9,3,1.9,4.7c0,0.3,0,0.5,0,0.8H208v-0.4
			c0.1-1.1-0.3-2.3-0.9-3.2c-0.6-0.7-1.5-1.2-2.4-1.4c-0.4-0.1-0.9-0.1-1.3-0.1c-2.8,0-4.8,2.1-4.8,6s1.8,6.1,4.9,6.1
			c0.8,0,1.6-0.2,2.3-0.6c0.9-0.5,1.5-1.3,1.8-2.3c0.2-0.6,0.3-1.3,0.4-2h2.7c-0.2,4.8-2.6,7.4-7.4,7.4c-2.9,0.2-5.6-1.5-6.8-4.2
			C196,134.5,195.7,132.9,195.7,131.4z"/>
		<path d="M214.8,135.6c0-2.9,1.9-4.6,4.8-5.3c3.9-0.9,5.5-1.3,5.5-2.7c0-1.1-0.2-1.6-1.1-2c-0.6-0.2-1.3-0.3-1.9-0.3
			c-2.6,0-3.9,1.1-3.9,4h-2.8V129c0-3.8,2.6-6.1,6.6-6.1c2.2,0,3.8,0.5,4.6,1.4c0.9,0.9,1.3,2.1,1.2,3.3v12h-2.8v-2.9
			c-0.9,2.1-3.1,3.5-5.4,3.4C216.6,140.1,214.8,138.2,214.8,135.6z M217.5,135.5c0,1.4,0.9,2.4,2.7,2.4c1.8-0.1,3.4-1,4.2-2.6
			c0.4-0.6,0.6-1.3,0.6-1.9v-2.7c-0.5,0.3-1,0.5-1.3,0.6l-0.6,0.2l-0.5,0.2l-0.6,0.2l-0.6,0.2c-1,0.2-1.9,0.6-2.8,1.1
			C218,133.6,217.5,134.5,217.5,135.5L217.5,135.5z"/>
		<path d="M256.1,139.6h-8.8v-23.8h8.7c4.2,0,7,2.5,7,5.7c0,1.2-0.3,2.3-0.9,3.3c-0.5,0.6-1.2,1.1-1.9,1.5c-0.3,0.1-0.6,0.2-0.9,0.3
			c1.5,0.3,2.8,1.1,3.6,2.4c0.7,1.1,1,2.5,1,3.8c0.1,2.6-1.4,5-3.8,6C258.8,139.3,257.4,139.6,256.1,139.6z M255.4,118.5h-5.2v7h4.7
			c3.3,0,5-1.3,5-3.7C259.9,119.7,258.3,118.5,255.4,118.5L255.4,118.5z M255.4,128.2h-5.3v8.7h5c3.5,0,5.6-1.6,5.6-4.2
			C260.8,129.8,258.9,128.3,255.4,128.2L255.4,128.2z"/>
		<path d="M267.7,135.6c0-2.9,1.9-4.6,4.8-5.3c3.9-0.9,5.5-1.3,5.5-2.7c0-1.1-0.2-1.6-1.1-2c-0.6-0.2-1.3-0.3-2-0.3
			c-2.6,0-3.9,1.1-3.9,4h-2.8V129c0-3.8,2.6-6.1,6.6-6.1c2.2,0,3.8,0.5,4.6,1.4c0.9,0.9,1.3,2.1,1.2,3.3v12H278v-2.9
			c-0.9,2.1-3.1,3.5-5.4,3.4C269.5,140.1,267.7,138.2,267.7,135.6z M270.4,135.5c0,1.4,0.9,2.4,2.7,2.4c1.8-0.1,3.4-1,4.2-2.6
			c0.4-0.6,0.6-1.3,0.6-1.9v-2.7c-0.5,0.3-1,0.5-1.3,0.6l-0.6,0.2l-0.5,0.2l-0.6,0.2l-0.6,0.2c-1,0.2-1.9,0.6-2.8,1.1
			C270.9,133.6,270.4,134.5,270.4,135.5z"/>
		<path d="M289.2,130.7v8.9h-2.6v-16.2h2.5v3.6c0.3-0.9,0.8-1.7,1.5-2.3c0.6-0.5,1.3-0.8,2-1c0.6-0.1,1.2-0.2,1.9-0.3h1.4v2.8h-0.6
			h-0.8c-0.6,0-1.2,0-1.8,0.1c-0.6,0.1-1.2,0.3-1.7,0.6c-0.6,0.3-1,0.8-1.3,1.3C289.4,129.1,289.2,129.9,289.2,130.7z"/>
		<path d="M311.8,135.6c0-2.9,1.9-4.6,4.8-5.3c3.9-0.9,5.5-1.3,5.5-2.7c0-1.1-0.2-1.6-1.1-2c-0.6-0.2-1.3-0.3-2-0.3
			c-2.6,0-3.9,1.1-3.9,4h-2.8V129c0-3.8,2.6-6.1,6.7-6.1c2.2,0,3.8,0.5,4.6,1.4c0.9,0.9,1.3,2.1,1.2,3.3v12h-2.8v-2.9
			c-0.9,2.1-3.1,3.5-5.4,3.4C313.6,140.1,311.8,138.2,311.8,135.6z M314.6,135.5c0,1.4,0.9,2.4,2.7,2.4c1.8-0.1,3.4-1,4.2-2.6
			c0.4-0.6,0.6-1.3,0.6-1.9v-2.7c-0.5,0.3-1,0.5-1.3,0.6l-0.6,0.2l-0.5,0.2l-0.6,0.2l-0.6,0.2c-1,0.2-1.9,0.6-2.8,1.1
			C315,133.6,314.5,134.5,314.6,135.5z"/>
		<path d="M331.2,134.6v-9h-2.5v-2.2h2.5v-4.7h2.8v4.7h3.8v2.2H334v8.6c0,0.5,0.1,1,0.2,1.5c0.1,0.3,0.3,0.6,0.6,0.9
			c0.2,0.2,0.5,0.3,0.9,0.4c0.3,0.1,0.7,0.1,1,0.1h1.9v2.5h-1c-1,0-1.9,0-2.9-0.2c-0.8-0.1-1.5-0.4-2.1-0.9c-0.6-0.6-1-1.3-1.1-2.2
			C331.3,135.8,331.2,135.2,331.2,134.6z"/>
		<path d="M357.5,129.2v10.4h-3v-23.8h8.7c4.6,0,7.3,2.8,7.3,7c0,2.4-1.1,4.4-2.8,4.9c1.8,0.5,2.9,2.2,2.8,4v7.8h-3v-7.7
			c0-1-0.6-1.9-1.5-2.2c-1.2-0.4-2.4-0.6-3.6-0.6L357.5,129.2z M362.5,118.6h-5v7.9h5.4c3.6,0,4.7-0.9,4.7-3.6
			C367.6,119.6,366.2,118.6,362.5,118.6L362.5,118.6z"/>
		<path d="M375.3,131.5c0-5,3.1-8.5,7.6-8.5c2.2-0.1,4.3,1,5.4,2.8c1,1.7,1.5,3.7,1.4,5.7c0,0.3,0,0.6,0,0.9h-11.6
			c-0.1,1.5,0.5,2.9,1.5,4c0.9,0.8,2,1.2,3.2,1.2h0.1c2.2,0,3.9-1.7,4-3.8h2.7c0,1.3-0.4,2.5-1.1,3.6c-0.7,1.2-1.8,2-3.2,2.4
			c-0.8,0.3-1.7,0.4-2.5,0.4C378,140.1,375.3,136.6,375.3,131.5z M378.1,130h8.8c0-3-1.7-4.5-4.1-4.5
			C380.3,125.4,378.2,127.4,378.1,130C378.2,129.9,378.1,130,378.1,130L378.1,130z"/>
		<path d="M394.2,131.5c0-5,3.1-8.5,7.6-8.5c2.2-0.1,4.3,1,5.4,2.8c1,1.7,1.5,3.7,1.4,5.7c0,0.3,0,0.6,0,0.9h-11.6
			c-0.1,1.5,0.5,2.9,1.5,4c0.9,0.8,2,1.2,3.2,1.2h0.1c2.2,0.1,3.9-1.7,4-3.8c0,0,0,0,0,0h2.7c0,1.3-0.4,2.5-1.1,3.6
			c-0.7,1.2-1.8,2-3.2,2.4c-0.8,0.3-1.7,0.4-2.5,0.4C397,140.1,394.2,136.6,394.2,131.5z M397.1,130h8.8c0-3-1.7-4.5-4.1-4.5
			C399.3,125.4,397.2,127.4,397.1,130C397.1,129.9,397.1,130,397.1,130L397.1,130z"/>
		<path d="M416.8,126c0.9-2,2.6-3,5.1-3c3.9,0,6.5,3.5,6.5,8.4c0,5.3-2.5,8.7-6.7,8.7c-2.2,0.2-4.2-1.1-4.9-3.1v8.9h-2.8v-22.4h2.7
			L416.8,126z M421.4,137.7c2.7,0,4.3-2.5,4.3-6.6c0-3.8-1.6-5.9-4.3-5.9c-2.8,0-4.5,2.3-4.5,6.3
			C416.8,135.4,418.6,137.8,421.4,137.7L421.4,137.7z"/>
		<path d="M432.9,131.5c0-5,3.1-8.5,7.6-8.5c2.2-0.1,4.3,1,5.4,2.8c1,1.7,1.5,3.7,1.4,5.7c0,0.3,0,0.6,0,0.9h-11.6
			c-0.1,1.5,0.5,2.9,1.5,4c0.9,0.8,2,1.2,3.2,1.2h0.1c2.2,0.1,3.9-1.7,4-3.8c0,0,0,0,0,0h2.7c0,1.3-0.4,2.5-1.1,3.6
			c-0.7,1.2-1.8,2-3.2,2.4c-0.8,0.3-1.7,0.4-2.5,0.4C435.6,140.1,432.9,136.6,432.9,131.5z M435.8,130h8.8c0-3-1.7-4.5-4.1-4.5
			C437.9,125.4,435.8,127.4,435.8,130C435.8,129.9,435.8,130,435.8,130L435.8,130z"/>
		<path d="M455.3,130.7v8.9h-2.6v-16.2h2.5v3.6c0.3-0.9,0.8-1.7,1.5-2.3c0.6-0.5,1.3-0.8,2-1c0.6-0.1,1.2-0.2,1.9-0.3h1.4v2.8h-0.6
			h-0.8c-0.6,0-1.2,0-1.8,0.1c-0.6,0.1-1.2,0.3-1.7,0.6c-0.5,0.3-1,0.8-1.3,1.3C455.5,129.1,455.3,129.9,455.3,130.7z"/>
		<path d="M469,126.1c0.8-1.9,2.8-3.2,4.9-3.1c4.1,0,6.7,3.4,6.7,8.7c0,4.9-2.5,8.4-6.5,8.4c-0.9,0-1.7-0.1-2.6-0.4
			c-1.2-0.4-2.2-1.4-2.5-2.7v2.6h-2.7v-23.8h2.8L469,126.1z M473.6,137.8c2.6,0,4.2-2.1,4.2-5.9c0-4.1-1.6-6.6-4.2-6.6
			s-4.5,2.4-4.5,6.1C469,135.4,470.7,137.8,473.6,137.8z"/>
		<path d="M484.6,135.6c0-2.9,1.9-4.6,4.8-5.3c3.9-0.9,5.5-1.3,5.5-2.7c0-1.1-0.2-1.6-1.1-2c-0.6-0.2-1.3-0.3-2-0.3
			c-2.6,0-3.9,1.1-3.9,4h-2.8V129c0-3.8,2.6-6.1,6.6-6.1c2.2,0,3.8,0.5,4.6,1.4c0.9,0.9,1.3,2.1,1.2,3.3v12h-2.8v-2.9
			c-0.9,2.1-3.1,3.5-5.4,3.4C486.4,140.1,484.6,138.2,484.6,135.6z M487.4,135.5c0,1.4,0.9,2.4,2.7,2.4c1.8-0.1,3.4-1,4.2-2.6
			c0.4-0.6,0.6-1.3,0.6-1.9v-2.7c-0.5,0.3-1,0.5-1.3,0.6l-0.6,0.2l-0.5,0.2l-0.6,0.2l-0.6,0.2c-1,0.2-1.9,0.6-2.8,1.1
			C487.8,133.6,487.3,134.5,487.4,135.5z"/>
		<path d="M506.3,131.4v8.3h-2.8v-23.8h2.8v10.2c0.9-2,3-3.3,5.2-3.2c3.1,0,5.3,2,5.3,5v11.7H514v-11.1c0-1.9-1-3.1-2.9-3.1
			C508.1,125.4,506.3,127.7,506.3,131.4z"/>
		<path d="M525.8,131.4v8.3H523v-16.2h2.8v2.6c0.9-2,3-3.3,5.2-3.2c3.1,0,5.3,2,5.3,5v11.7h-2.8v-11.1c0-1.9-1-3.1-2.9-3.1
			C527.5,125.4,525.8,127.7,525.8,131.4z"/>
		<path d="M559.4,128.7v10.9h-3v-23.8h14.2v2.7h-11.2v7.5h11.2v2.7L559.4,128.7z"/>
		<path d="M575.4,131.5c0-5,3.2-8.5,7.6-8.5c2.2-0.1,4.3,1,5.4,2.8c1,1.7,1.5,3.7,1.4,5.7c0,0.3,0,0.6,0,0.9h-11.6
			c-0.1,1.5,0.5,2.9,1.5,4c0.9,0.8,2,1.2,3.2,1.2h0.1c2.2,0.1,3.9-1.7,4-3.8c0,0,0,0,0,0h2.7c0,1.3-0.4,2.5-1.1,3.6
			c-0.7,1.2-1.8,2-3.2,2.4c-0.8,0.3-1.7,0.4-2.5,0.4C578.2,140.1,575.4,136.6,575.4,131.5z M578.3,130h8.7c0-3-1.7-4.5-4.1-4.5
			C580.5,125.4,578.4,127.4,578.3,130C578.3,129.9,578.3,130,578.3,130L578.3,130z"/>
		<path d="M594.3,132.5h2.6c0,3.6,1.5,5.4,4.6,5.4c1.9,0,3.4-1.1,3.4-2.7c0.1-0.8-0.3-1.6-1-2c-0.7-0.4-1.5-0.7-2.3-0.9
			c-0.6-0.1-1-0.3-1.3-0.4c-2.8-1-4.9-1.6-5.1-4.2c0-0.1,0-0.2,0-0.3c0-2.7,2.4-4.4,5.5-4.4c4.5,0,6.8,2.1,6.8,6.3h-2.7
			c0-1.6-0.4-2.6-1.1-3.2c-0.9-0.6-1.9-0.9-3-0.8c-1.7,0-2.9,0.7-2.9,2c0,0.4,0.1,0.8,0.4,1.2c0.3,0.3,0.6,0.6,1,0.7
			c0.5,0.2,0.9,0.4,1.4,0.5c0.4,0.1,0.7,0.2,0.8,0.3c3.2,1,4.8,1.3,5.8,3.3c0.2,0.5,0.3,1,0.3,1.6c0,3.5-2.1,5.4-6.1,5.4
			c-1.5,0-3.1-0.4-4.4-1.2c-0.9-0.6-1.7-1.5-2.1-2.6c-0.4-0.9-0.6-1.9-0.7-2.8c0-0.3,0-0.5,0-0.8L594.3,132.5z"/>
		<path d="M613.4,134.6v-9h-2.5v-2.2h2.5v-4.7h2.8v4.7h3.8v2.2h-3.8v8.6c0,0.5,0.1,1,0.2,1.5c0.1,0.3,0.3,0.6,0.6,0.9
			c0.2,0.2,0.5,0.3,0.8,0.4c0.3,0.1,0.7,0.1,1,0.1h1.8v2.5h-1c-1,0-1.9,0-2.9-0.2c-0.8-0.1-1.5-0.4-2.1-0.9c-0.6-0.6-1-1.3-1.1-2.2
			C613.5,135.8,613.4,135.2,613.4,134.6z"/>
		<path d="M623.3,118.1c0-1.2,1-2.2,2.2-2.2c1.2,0,2.2,1,2.2,2.2c0,1.2-1,2.2-2.2,2.2C624.4,120.2,623.4,119.3,623.3,118.1z
			 M627,123.5v16.2h-2.8v-16.2L627,123.5z"/>
		<path d="M641.7,139.6h-4.8l-5.4-16.2h2.7l5,15.2l5.1-15.2h2.7L641.7,139.6z"/>
		<path d="M649.8,135.6c0-2.9,1.9-4.6,4.8-5.3c3.8-0.9,5.5-1.3,5.5-2.7c0-1.1-0.2-1.6-1.1-2c-0.6-0.2-1.3-0.3-2-0.3
			c-2.6,0-3.9,1.1-3.9,4h-2.8V129c0-3.8,2.6-6.1,6.7-6.1c2.2,0,3.8,0.5,4.6,1.4c0.9,0.9,1.3,2.1,1.2,3.3v12h-2.8v-2.9
			c-0.9,2.1-3.1,3.5-5.4,3.4C651.7,140.1,649.8,138.2,649.8,135.6z M652.6,135.5c0,1.4,0.9,2.4,2.7,2.4c1.8-0.1,3.4-1,4.2-2.6
			c0.4-0.6,0.6-1.3,0.6-1.9v-2.7c-0.5,0.3-1,0.5-1.3,0.6l-0.6,0.2l-0.5,0.2c-0.1,0-0.3,0.1-0.6,0.2l-0.6,0.2c-1,0.2-1.9,0.6-2.8,1.1
			C653.1,133.6,652.6,134.5,652.6,135.5z"/>
		<path d="M671.5,115.8v23.8h-2.8v-23.8H671.5z"/>
		<path d="M693.2,123.4h-2.8c-0.1-5,3-8,7.3-8c4.1,0,6.8,2.7,6.8,6.6c-0.1,1.8-0.5,3.6-1.3,5.3c-0.9,1.6-1.9,3.1-3.2,4.4
			c-1.2,1.2-2.4,2.4-3.7,3.5l-1.8,1.4c-0.1,0.1-0.2,0.2-0.3,0.3h10.6v2.8h-14.4v-2.2l0.6-0.6c1.4-1.2,1.9-1.6,3.5-3.2
			c1.4-1.3,2.7-2.8,3.8-4.3c1.2-1.4,2.1-3,2.6-4.8c0.3-0.8,0.4-1.6,0.4-2.4c0-2.7-1.4-4.2-4-4.2S693.1,119.8,693.2,123.4z"/>
		<path d="M708.5,127.7c-0.1-2.5,0.4-5,1.3-7.3c0.7-1.9,2.1-3.5,4-4.4c1-0.4,2.1-0.6,3.2-0.6c2.7-0.1,5.2,1.3,6.5,3.7
			c1.4,2.7,2.1,5.7,2,8.7c0.1,3-0.6,6-2,8.7c-2.3,3.6-7,4.7-10.6,2.4c-0.6-0.3-1.1-0.8-1.5-1.2c-1.4-1.8-2.3-3.9-2.5-6.1
			C708.6,130.3,708.5,129,708.5,127.7z M711.5,127.7c-0.1,2,0.2,3.9,0.8,5.8l7.8-14.2c-0.8-0.8-1.9-1.2-3.1-1.2
			c-1.5,0-2.9,0.7-3.7,1.9c-0.9,1.4-1.4,3.1-1.6,4.7C711.6,125.8,711.5,126.7,711.5,127.7L711.5,127.7z M721.5,121.5l-7.8,14.3
			c0.8,1,2.1,1.5,3.4,1.5c1.5,0,2.9-0.7,3.7-1.9c0.9-1.4,1.4-3.1,1.6-4.8c0.1-1,0.2-1.9,0.2-2.9
			C722.6,125.6,722.2,123.5,721.5,121.5L721.5,121.5z"/>
		<path d="M729.8,126.4v-3.1c3-1.3,5.1-4.2,5.3-7.5h2.9v21h3.9v2.8h-10.7v-2.8h3.9v-14.4C733.8,124.3,732,125.6,729.8,126.4z"/>
		<path d="M745.9,133.3c-0.1-2.2,1.1-4.3,3-5.5c-2-1.2-3.1-3.3-3-5.6c0-4,2.7-6.7,7.1-6.7s7,2.7,7,6.7c0.2,2.3-1,4.5-3,5.6
			c1.9,1.2,3.1,3.2,3,5.5c0,4.1-2.7,6.9-7,6.9S745.9,137.4,745.9,133.3z M750,119.1c-0.7,0.9-1.1,2-1,3.2c0,2.9,1.3,4.3,3.9,4.3
			s3.9-1.4,3.9-4.3s-1.3-4.2-3.9-4.2C751.8,118,750.8,118.4,750,119.1z M749,133.4c0,2.8,1.3,4.1,3.9,4.1s3.9-1.3,3.9-4.1
			c0-3-1.2-4.3-3.9-4.3S749,130.4,749,133.4z"/>
		<path d="M765,137.6c0-1.1,0.9-2,2-2.1c1.1,0,2,0.9,2,2c0,0,0,0,0,0.1c0,1.1-0.9,2-2,2C765.8,139.7,764.9,138.7,765,137.6
			L765,137.6z M766.3,132.8l-0.8-8.7l-0.1-8.3h3.6l-0.3,8.3l-0.8,8.7H766.3z"/>
		<path d="M32.7,170.2v10.4h-3v-23.8h8.7c4.6,0,7.3,2.9,7.3,7c0,2.4-1.1,4.4-2.8,4.9c1.8,0.5,2.9,2.2,2.8,4v7.8h-3v-7.7
			c0-1-0.6-1.9-1.5-2.2c-1.2-0.4-2.4-0.6-3.6-0.6L32.7,170.2z M37.7,159.6h-5v7.9h5.4c3.6,0,4.7-1,4.7-3.6
			C42.7,160.6,41.4,159.6,37.7,159.6L37.7,159.6z"/>
		<path d="M50.4,172.4c0-5.1,2.7-8.4,7.4-8.4h0.1c4.7,0,7.4,3.3,7.4,8.4c0,5.3-2.7,8.7-7.4,8.7S50.4,177.7,50.4,172.4z M53.2,172.6
			c0,4,1.7,6,4.6,6s4.5-2,4.5-6s-1.7-6.1-4.5-6.1S53.2,168.5,53.2,172.6z"/>
		<path d="M73.3,156.8v23.8h-2.8v-23.8H73.3z"/>
		<path d="M82.3,156.8v23.8h-2.8v-23.8H82.3z"/>
		<path d="M103.3,175.6v-9h-2.5v-2.2h2.5v-4.7h2.8v4.7h3.8v2.2H106v8.6c0,0.5,0.1,1,0.2,1.5c0.1,0.3,0.3,0.6,0.6,0.9
			c0.3,0.2,0.5,0.3,0.9,0.4c0.3,0.1,0.7,0.1,1,0.1h1.8v2.5h-1c-1,0-1.9,0-2.9-0.2c-0.8-0.1-1.5-0.4-2.1-0.9c-0.6-0.6-1-1.3-1.1-2.2
			C103.3,176.8,103.3,176.2,103.3,175.6z"/>
		<path d="M116.8,172.4v8.3H114v-23.8h2.8v10.2c0.9-2,3-3.3,5.2-3.2c3.1,0,5.3,2,5.3,5v11.7h-2.8v-11.1c0-1.9-1-3.1-2.9-3.1
			C118.6,166.4,116.8,168.7,116.8,172.4z"/>
		<path d="M132.6,172.5c0-5,3.1-8.5,7.6-8.5c2.2-0.1,4.3,1,5.4,2.8c1,1.7,1.5,3.7,1.4,5.7c0,0.3,0,0.6,0,0.9h-11.6
			c-0.1,1.5,0.5,2.9,1.5,4c0.9,0.8,2,1.2,3.2,1.2h0.1c2.2,0,3.9-1.7,4-3.8h2.8c0,1.3-0.4,2.5-1.1,3.6c-0.7,1.2-1.8,2-3.2,2.4
			c-0.8,0.3-1.7,0.4-2.5,0.4C135.4,181.1,132.6,177.6,132.6,172.5z M135.5,171h8.8c0-3-1.7-4.5-4.1-4.5
			C137.6,166.4,135.5,168.4,135.5,171C135.5,170.9,135.5,171,135.5,171L135.5,171z"/>
		<path d="M172.6,164c2.1-0.1,4.1,1.1,4.9,3.1v-10.2h2.8v23.8h-2.7V178c-0.8,2-2.2,3.1-5.1,3.1c-3.9,0-6.5-3.5-6.5-8.4
			C165.9,167.4,168.5,164,172.6,164z M172.9,178.8c2.8,0,4.6-2.4,4.6-6.3c0-3.7-1.8-6.1-4.6-6.1s-4.2,2.5-4.2,6.6
			C168.7,176.7,170.3,178.8,172.9,178.8z"/>
		<path d="M185.6,159.1c0-1.2,1-2.2,2.2-2.2c1.2,0,2.2,1,2.2,2.2c0,1.2-1,2.2-2.2,2.2C186.6,161.2,185.7,160.3,185.6,159.1z
			 M189.2,164.4v16.2h-2.8v-16.2H189.2z"/>
		<path d="M194.5,172.4c0-5,3.1-8.4,7.8-8.4c2,0,4,0.7,5.4,2.1c1.2,1.3,1.9,3,1.9,4.7c0,0.3,0,0.5,0,0.8h-2.7v-0.4
			c0.1-1.1-0.3-2.3-0.9-3.2c-0.6-0.7-1.5-1.2-2.4-1.4c-0.4-0.1-0.9-0.1-1.3-0.1c-2.8,0-4.8,2.1-4.8,6s1.8,6.1,4.9,6.1
			c0.8,0,1.6-0.2,2.3-0.6c0.9-0.5,1.5-1.3,1.8-2.3c0.2-0.6,0.3-1.3,0.4-2h2.7c-0.2,4.8-2.6,7.4-7.4,7.4c-2.9,0.2-5.6-1.5-6.8-4.2
			C194.7,175.5,194.4,173.9,194.5,172.4z"/>
		<path d="M214,172.5c0-5,3.1-8.5,7.6-8.5c2.2-0.1,4.3,1,5.4,2.8c1,1.7,1.5,3.7,1.4,5.7c0,0.3,0,0.6,0,0.9h-11.6
			c-0.1,1.5,0.5,2.9,1.5,4c0.9,0.8,2,1.2,3.2,1.2h0.1c2.2,0.1,3.9-1.7,4-3.8c0,0,0,0,0,0h2.7c0,1.3-0.4,2.5-1.1,3.6
			c-0.7,1.2-1.8,2-3.1,2.4c-0.8,0.3-1.7,0.4-2.6,0.4C216.8,181.1,214,177.6,214,172.5z M216.9,171h8.8c0-3-1.7-4.5-4.1-4.5
			C219,166.4,216.9,168.4,216.9,171C216.9,170.9,216.9,171,216.9,171L216.9,171z"/>
		<path d="M246.5,176.6c0-2.9,1.9-4.6,4.8-5.3c3.9-0.9,5.5-1.3,5.5-2.7c0-1-0.2-1.6-1.1-2c-0.6-0.2-1.3-0.3-1.9-0.3
			c-2.6,0-3.9,1.1-3.9,4h-2.8V170c0-3.8,2.6-6.1,6.6-6.1c2.2,0,3.8,0.5,4.6,1.4c0.9,0.9,1.3,2.1,1.2,3.3v12h-2.8v-2.9
			c-0.9,2.1-3.1,3.5-5.4,3.4C248.3,181.1,246.5,179.2,246.5,176.6z M249.3,176.5c0,1.4,0.9,2.4,2.7,2.4c1.8-0.1,3.4-1,4.2-2.6
			c0.4-0.6,0.6-1.3,0.6-1.9v-2.7c-0.5,0.3-1,0.5-1.3,0.6l-0.6,0.2l-0.5,0.2l-0.6,0.2l-0.6,0.2c-1,0.2-1.9,0.6-2.8,1.1
			C249.7,174.6,249.2,175.5,249.3,176.5L249.3,176.5z"/>
		<path d="M268.1,172.4v8.3h-2.8v-16.2h2.8v2.6c0.9-2,3-3.3,5.2-3.2c3.1,0,5.3,2,5.3,5v11.7h-2.8v-11.1c0-1.9-1-3.1-2.9-3.1
			C270,166.4,268.1,168.7,268.1,172.4z"/>
		<path d="M290.7,164c2.1-0.1,4.1,1.1,4.9,3.1v-10.2h2.8v23.8h-2.7V178c-0.8,2-2.2,3.1-5.1,3.1c-3.9,0-6.5-3.5-6.5-8.4
			C284,167.4,286.6,164,290.7,164z M291.1,178.8c2.8,0,4.6-2.4,4.6-6.3c0-3.7-1.8-6.1-4.6-6.1s-4.2,2.5-4.2,6.6
			C286.8,176.7,288.5,178.8,291.1,178.8z"/>
		<path d="M324.9,164c2.1-0.1,4.1,1.1,4.9,3.1v-10.2h2.8v23.8h-2.7V178c-0.8,2-2.2,3.1-5.1,3.1c-4,0-6.5-3.5-6.5-8.4
			C318.2,167.4,320.8,164,324.9,164z M325.3,178.8c2.8,0,4.6-2.4,4.6-6.3c0-3.7-1.8-6.1-4.6-6.1s-4.2,2.5-4.2,6.6
			C321,176.7,322.7,178.8,325.3,178.8L325.3,178.8z"/>
		<path d="M338,159.1c0-1.2,1-2.2,2.2-2.2c1.2,0,2.2,1,2.2,2.2c0,1.2-1,2.2-2.2,2.2C339,161.2,338.1,160.3,338,159.1z M341.6,164.4
			v16.2h-2.8v-16.2H341.6z"/>
		<path d="M346.6,173.5h2.6c0,3.6,1.5,5.4,4.6,5.4c1.9,0,3.4-1.1,3.4-2.7c0.1-0.8-0.3-1.6-1-2c-0.7-0.4-1.5-0.7-2.3-0.9
			c-0.6-0.1-1-0.3-1.3-0.4c-2.8-1-4.9-1.6-5.1-4.2c0-0.1,0-0.2,0-0.4c0-2.6,2.4-4.4,5.5-4.4c4.5,0,6.8,2.1,6.8,6.3h-2.6
			c0-1.6-0.4-2.6-1.1-3.2c-0.9-0.6-1.9-0.9-3-0.8c-1.7,0-2.9,0.7-2.9,2c0,0.4,0.1,0.8,0.4,1.2c0.3,0.3,0.6,0.6,1,0.7
			c0.5,0.2,0.9,0.4,1.4,0.5c0.4,0.1,0.6,0.2,0.8,0.3c3.2,1,4.9,1.3,5.8,3.3c0.2,0.5,0.3,1,0.3,1.6c0,3.5-2.1,5.4-6.1,5.4
			c-1.5,0-3-0.3-4.3-1.1c-0.9-0.6-1.7-1.5-2.1-2.6c-0.4-0.9-0.6-1.9-0.7-2.8c0-0.3,0-0.5,0-0.8L346.6,173.5z"/>
		<path d="M364.3,172.4c0-5,3.1-8.4,7.8-8.4c2,0,4,0.7,5.4,2.1c1.2,1.3,1.9,3,1.9,4.7c0,0.3,0,0.5,0,0.8h-2.8v-0.4
			c0.1-1.1-0.3-2.3-0.9-3.2c-0.6-0.7-1.5-1.2-2.4-1.4c-0.4-0.1-0.9-0.1-1.3-0.1c-2.8,0-4.8,2.1-4.8,6s1.8,6.1,4.9,6.1
			c0.8,0,1.6-0.2,2.3-0.6c0.9-0.5,1.5-1.3,1.8-2.3c0.2-0.6,0.3-1.3,0.4-2h2.7c-0.2,4.8-2.6,7.4-7.4,7.4c-2.9,0.2-5.6-1.5-6.8-4.2
			C364.6,175.5,364.3,173.9,364.3,172.4z"/>
		<path d="M383.9,172.4c0-5.1,2.7-8.4,7.4-8.4h0.1c4.7,0,7.4,3.3,7.4,8.4c0,5.3-2.7,8.7-7.4,8.7S383.9,177.7,383.9,172.4z
			 M386.7,172.6c0,4,1.7,6,4.6,6s4.5-2,4.5-6s-1.6-6.1-4.5-6.1S386.7,168.5,386.7,172.6z"/>
		<path d="M412,180.6h-4.8l-5.4-16.2h2.7l5,15.2l5.1-15.2h2.7L412,180.6z"/>
		<path d="M420.5,172.5c0-5,3.1-8.5,7.6-8.5c2.2-0.1,4.3,1,5.4,2.8c1,1.7,1.5,3.7,1.4,5.7c0,0.3,0,0.6,0,0.9h-11.6
			c-0.1,1.5,0.5,2.9,1.5,4c0.9,0.8,2,1.2,3.2,1.2h0.1c2.2,0.1,3.9-1.7,4-3.8c0,0,0,0,0,0h2.7c0,1.3-0.4,2.5-1.1,3.6
			c-0.7,1.2-1.8,2-3.2,2.4c-0.8,0.3-1.7,0.4-2.5,0.4C423.3,181.1,420.5,177.6,420.5,172.5z M423.4,171h8.8c0-3-1.7-4.5-4.1-4.5
			C425.6,166.4,423.5,168.4,423.4,171C423.4,170.9,423.4,171,423.4,171L423.4,171z"/>
		<path d="M443,171.7v8.9h-2.6v-16.2h2.5v3.6c0.3-0.9,0.8-1.7,1.5-2.3c0.6-0.5,1.3-0.8,2-1c0.6-0.1,1.2-0.2,1.9-0.3h0.1
			c0.3,0,0.6,0,0.9,0h0.4v2.9h-0.6h-0.8c-0.6,0-1.2,0-1.8,0.1c-0.6,0.1-1.2,0.3-1.7,0.6c-0.6,0.3-1,0.8-1.3,1.3
			C443.2,170.1,443,170.9,443,171.7z"/>
		<path d="M468.2,175.6v-9h-2.5v-2.2h2.5v-4.7h2.8v4.7h3.8v2.2H471v8.6c0,0.5,0.1,1,0.2,1.5c0.1,0.3,0.3,0.6,0.6,0.9
			c0.2,0.2,0.5,0.3,0.9,0.4c0.3,0.1,0.7,0.1,1,0.1h1.9v2.5h-1c-1,0-1.9,0-2.9-0.2c-0.8-0.1-1.5-0.4-2.1-0.9c-0.6-0.6-1-1.3-1.1-2.2
			C468.3,176.8,468.2,176.2,468.2,175.6z"/>
		<path d="M481.7,172.4v8.3h-2.8v-23.8h2.8v10.2c0.9-2,3-3.3,5.2-3.2c3.1,0,5.3,2,5.3,5v11.7h-2.8v-11.1c0-1.9-1-3.1-2.9-3.1
			C483.5,166.4,481.7,168.7,481.7,172.4z"/>
		<path d="M497.5,172.5c0-5,3.1-8.5,7.6-8.5c2.2-0.1,4.3,1,5.4,2.8c1,1.7,1.5,3.7,1.4,5.7c0,0.3,0,0.6,0,0.9h-11.6
			c-0.1,1.5,0.5,2.9,1.5,4c0.9,0.8,2,1.2,3.2,1.2h0.1c2.2,0.1,3.9-1.7,4-3.8c0,0,0,0,0,0h2.7c0,1.3-0.4,2.5-1.1,3.6
			c-0.7,1.2-1.8,2-3.2,2.4c-0.8,0.3-1.7,0.4-2.5,0.4C500.3,181.1,497.5,177.6,497.5,172.5z M500.4,171h8.8c0-3-1.7-4.5-4.1-4.5
			C502.5,166.4,500.4,168.4,500.4,171C500.4,170.9,500.4,171,500.4,171L500.4,171z"/>
		<path d="M539.2,180.6h-4.8l-4.4-16.2h2.7l4.1,15.3l3.8-15.3h4.8l3.8,15.3l4.1-15.3h2.6l-4.4,16.2h-4.8l-3.8-15.1L539.2,180.6z"/>
		<path d="M559.3,172.4c0-5.1,2.7-8.4,7.4-8.4h0.1c4.7,0,7.4,3.3,7.4,8.4c0,5.3-2.7,8.7-7.4,8.7S559.3,177.7,559.3,172.4z
			 M562.2,172.6c0,4,1.7,6,4.6,6s4.5-2,4.5-6s-1.7-6.1-4.5-6.1S562.2,168.5,562.2,172.6L562.2,172.6z"/>
		<path d="M582.3,172.4v8.3h-2.8v-16.2h2.8v2.6c0.9-2,3-3.3,5.2-3.2c3.1,0,5.3,2,5.3,5v11.7H590v-11.1c0-1.9-1-3.1-2.9-3.1
			C584.1,166.4,582.3,168.7,582.3,172.4z"/>
		<path d="M604.8,164c2.1-0.1,4.1,1.1,4.9,3.1v-10.2h2.8v23.8h-2.7V178c-0.8,2-2.2,3.1-5.1,3.1c-4,0-6.5-3.5-6.5-8.4
			C598.1,167.4,600.7,164,604.8,164z M605.2,178.8c2.8,0,4.6-2.4,4.6-6.3c0-3.7-1.8-6.1-4.6-6.1s-4.2,2.5-4.2,6.6
			C601,176.7,602.6,178.8,605.2,178.8z"/>
		<path d="M617.8,172.5c0-5,3.1-8.5,7.6-8.5c2.2-0.1,4.3,1,5.4,2.8c1,1.7,1.5,3.7,1.4,5.7c0,0.3,0,0.6,0,0.9h-11.6
			c-0.1,1.5,0.5,2.9,1.5,4c0.9,0.8,2,1.2,3.2,1.2h0.1c2.2,0,3.9-1.7,4-3.8h2.7c0,1.3-0.4,2.5-1.1,3.6c-0.7,1.2-1.8,2-3.2,2.4
			c-0.8,0.3-1.7,0.4-2.5,0.4C620.6,181.1,617.8,177.6,617.8,172.5z M620.7,171h8.8c0-3-1.7-4.5-4.1-4.5
			C622.9,166.4,620.8,168.4,620.7,171C620.7,170.9,620.7,171,620.7,171L620.7,171z"/>
		<path d="M640.3,171.7v8.9h-2.6v-16.2h2.5v3.6c0.3-0.9,0.8-1.7,1.5-2.3c0.6-0.5,1.3-0.8,2-1c0.6-0.1,1.2-0.2,1.8-0.3h0.1
			c0.3,0,0.6,0,0.9,0h0.4v2.9h-0.6h-0.8c-0.6,0-1.2,0-1.8,0.1c-0.6,0.1-1.2,0.3-1.7,0.6c-0.5,0.3-1,0.8-1.3,1.3
			C640.5,170.1,640.3,170.9,640.3,171.7z"/>
		<path d="M650.2,173.5h2.6c0,3.6,1.5,5.4,4.6,5.4c1.9,0,3.4-1.1,3.4-2.7c0.1-0.8-0.3-1.6-1-2c-0.7-0.4-1.5-0.7-2.3-0.9
			c-0.6-0.1-1-0.3-1.3-0.4c-2.8-1-4.9-1.6-5.1-4.2c0-0.1,0-0.2,0-0.4c0-2.6,2.4-4.4,5.5-4.4c4.5,0,6.8,2.1,6.8,6.3h-2.7
			c0-1.6-0.4-2.6-1.1-3.2c-0.9-0.6-1.9-0.9-3-0.8c-1.7,0-2.9,0.7-2.9,2c0,0.4,0.1,0.8,0.4,1.2c0.3,0.3,0.6,0.6,1,0.7
			c0.5,0.2,0.9,0.4,1.4,0.5c0.4,0.1,0.7,0.2,0.8,0.3c3.2,1,4.8,1.3,5.8,3.3c0.2,0.5,0.3,1,0.3,1.6c0,3.5-2.1,5.4-6.1,5.4
			c-1.5,0-3-0.4-4.3-1.2c-0.9-0.6-1.7-1.5-2.1-2.6c-0.4-0.9-0.6-1.9-0.7-2.8c0-0.3,0-0.5,0-0.8L650.2,173.5z"/>
		<path d="M682.2,172.4c0-5.1,2.7-8.4,7.4-8.4h0.1c4.7,0,7.4,3.3,7.4,8.4c0,5.3-2.7,8.7-7.4,8.7S682.2,177.7,682.2,172.4z
			 M685,172.6c0,4,1.7,6,4.6,6s4.5-2,4.5-6s-1.6-6.1-4.5-6.1S685,168.5,685,172.6L685,172.6z"/>
		<path d="M702.2,180.6v-14h-2.2v-2.2h2.2v-2.7c0-1.9,0.3-3.1,1.1-4s2.2-1.3,4.5-1.3h1.2v2.5h-1.1c-1.3,0-1.9,0.1-2.3,0.6
			s-0.5,1.2-0.5,2.8v2.2h4v2.2h-4v14L702.2,180.6z"/>
		<path d="M726.2,175.6v-9h-2.5v-2.2h2.5v-4.7h2.8v4.7h3.8v2.2H729v8.6c0,0.5,0.1,1,0.2,1.5c0.1,0.3,0.3,0.6,0.6,0.9
			c0.3,0.2,0.5,0.3,0.9,0.4c0.3,0.1,0.7,0.1,1,0.1h1.9v2.5h-1c-1,0-1.9,0-2.9-0.2c-0.8-0.1-1.5-0.4-2.1-0.9c-0.6-0.6-1-1.3-1.1-2.2
			C726.3,176.8,726.2,176.2,726.2,175.6z"/>
		<path d="M739.7,172.4v8.3h-2.8v-23.8h2.8v10.2c0.9-2,3-3.3,5.2-3.2c3.1,0,5.3,2,5.3,5v11.7h-2.8v-11.1c0-1.9-1-3.1-2.9-3.1
			C741.5,166.4,739.7,168.7,739.7,172.4z"/>
		<path d="M755.5,172.5c0-5,3.1-8.5,7.6-8.5c2.2-0.1,4.3,1,5.4,2.8c1,1.7,1.5,3.7,1.4,5.7c0,0.3,0,0.6,0,0.9h-11.6
			c-0.1,1.5,0.5,2.9,1.5,4c0.9,0.8,2,1.2,3.2,1.2h0.1c2.2,0.1,3.9-1.7,4-3.8c0,0,0,0,0,0h2.7c0,1.3-0.4,2.5-1.1,3.6
			c-0.7,1.2-1.8,2-3.2,2.4c-0.8,0.3-1.7,0.4-2.5,0.4C758.3,181.1,755.5,177.6,755.5,172.5z M758.4,171h8.8c0-3-1.7-4.5-4.1-4.5
			C760.5,166.4,758.5,168.4,758.4,171C758.4,170.9,758.4,171,758.4,171L758.4,171z"/>
		<path d="M32.7,211.2v10.4h-3v-23.8h8.7c4.6,0,7.3,2.9,7.3,7c0,2.4-1.1,4.4-2.8,4.9c1.8,0.5,2.9,2.2,2.8,4v7.8h-3v-7.7
			c0-1-0.6-1.9-1.5-2.2c-1.2-0.4-2.4-0.6-3.6-0.6L32.7,211.2z M37.7,200.6h-5v7.9h5.4c3.6,0,4.7-1,4.7-3.6
			C42.7,201.6,41.4,200.6,37.7,200.6L37.7,200.6z"/>
		<path d="M50.4,213.5c0-5,3.1-8.5,7.6-8.5c2.2-0.1,4.3,1,5.4,2.8c1,1.7,1.5,3.7,1.4,5.7c0,0.3,0,0.6,0,0.9H53.2
			c-0.1,1.5,0.5,2.9,1.5,4c0.9,0.8,2,1.2,3.2,1.2H58c2.2,0,3.9-1.7,4-3.8h2.7c-0.1,1.3-0.4,2.5-1.1,3.6c-0.7,1.2-1.8,2-3.2,2.4
			c-0.8,0.3-1.7,0.4-2.5,0.4C53.2,222.1,50.4,218.6,50.4,213.5z M53.3,212H62c0-3-1.7-4.5-4.1-4.5C55.4,207.4,53.3,209.4,53.3,212
			C53.3,212,53.3,212,53.3,212L53.3,212z"/>
		<path d="M69.4,213.5c0-5,3.1-8.5,7.6-8.5c2.2-0.1,4.3,1,5.4,2.8c1,1.7,1.5,3.7,1.4,5.7c0,0.3,0,0.6,0,0.9H72.2
			c-0.1,1.5,0.5,2.9,1.5,4c0.9,0.8,2,1.2,3.2,1.2H77c2.2,0.1,3.9-1.7,4-3.8c0,0,0,0,0,0h2.7c0,1.3-0.4,2.5-1.1,3.6
			c-0.7,1.2-1.8,2-3.2,2.4c-0.8,0.3-1.7,0.4-2.6,0.4C72.2,222.1,69.4,218.6,69.4,213.5z M72.3,212H81c0-3-1.7-4.5-4.1-4.5
			C74.4,207.4,72.3,209.4,72.3,212C72.3,211.9,72.3,212,72.3,212L72.3,212z"/>
		<path d="M92,208c0.9-2,2.6-3,5.1-3c3.9,0,6.5,3.5,6.5,8.4c0,5.3-2.6,8.7-6.7,8.7c-2.2,0.2-4.2-1.1-4.9-3.1v8.9h-2.8v-22.5H92V208z
			 M96.5,219.7c2.7,0,4.3-2.5,4.3-6.6c0-3.8-1.7-5.9-4.3-5.9c-2.8,0-4.5,2.3-4.5,6.3C92,217.4,93.7,219.8,96.5,219.7L96.5,219.7z"/>
		<path d="M108,213.5c0-5,3.2-8.5,7.6-8.5c2.2-0.1,4.3,1,5.4,2.8c1,1.7,1.5,3.7,1.4,5.7c0,0.3,0,0.6,0,0.9h-11.6
			c-0.1,1.5,0.5,2.9,1.5,4c0.9,0.8,2,1.2,3.2,1.2h0.1c2.2,0.1,3.9-1.7,4-3.8c0,0,0,0,0,0h2.7c0,1.3-0.4,2.5-1.1,3.6
			c-0.7,1.2-1.8,2-3.2,2.4c-0.8,0.3-1.7,0.4-2.6,0.4C110.8,222.1,108,218.6,108,213.5z M110.9,212h8.8c0-3-1.7-4.5-4.1-4.5
			C113,207.4,111,209.4,110.9,212C110.9,211.9,110.9,212,110.9,212L110.9,212z"/>
		<path d="M130.5,212.7v8.9h-2.6v-16.2h2.5v3.6c0.3-0.9,0.8-1.7,1.5-2.3c0.6-0.5,1.3-0.8,2-1c0.6-0.1,1.2-0.2,1.9-0.3h0.1
			c0.3,0,0.6,0,0.9,0h0.4v2.9h-0.6h-0.8c-0.6,0-1.2,0-1.8,0.1c-0.6,0.1-1.2,0.3-1.7,0.6c-0.6,0.3-1,0.8-1.3,1.3
			C130.7,211.1,130.5,211.9,130.5,212.7z"/>
		<path d="M144.2,208.1c0.8-1.9,2.8-3.2,4.9-3.1c4.1,0,6.7,3.4,6.7,8.7c0,4.9-2.6,8.4-6.5,8.4c-0.9,0-1.7-0.1-2.6-0.4
			c-1.2-0.4-2.2-1.4-2.5-2.6v2.6h-2.7v-23.8h2.8V208.1z M148.7,219.8c2.6,0,4.2-2.1,4.2-5.9c0-4.1-1.6-6.6-4.2-6.6s-4.5,2.4-4.5,6.1
			C144.2,217.4,145.9,219.8,148.7,219.8z"/>
		<path d="M159.7,217.6c0-2.9,1.9-4.6,4.8-5.3c3.9-0.9,5.5-1.3,5.5-2.7c0-1-0.2-1.6-1.1-2c-0.6-0.2-1.3-0.3-1.9-0.3
			c-2.6,0-3.9,1.1-3.9,4h-2.8V211c0-3.8,2.6-6.1,6.6-6.1c2.2,0,3.8,0.5,4.6,1.4c0.9,0.9,1.3,2.1,1.2,3.3v12H170v-2.9
			c-0.9,2.1-3.1,3.5-5.4,3.4C161.6,222.1,159.7,220.2,159.7,217.6z M162.5,217.5c0,1.4,0.9,2.4,2.7,2.4c1.8-0.1,3.4-1,4.2-2.6
			c0.4-0.6,0.6-1.3,0.6-1.9v-2.7c-0.5,0.3-1,0.5-1.3,0.6l-0.6,0.2l-0.5,0.2l-0.6,0.2l-0.6,0.2c-1,0.2-1.9,0.6-2.8,1.1
			C163,215.6,162.5,216.5,162.5,217.5z"/>
		<path d="M181.4,213.4v8.3h-2.8v-23.8h2.8v10.2c0.9-2,3-3.3,5.2-3.2c3.1,0,5.3,2,5.3,5v11.7h-2.8v-11.1c0-1.9-1-3.1-2.9-3.1
			C183.2,207.4,181.4,209.7,181.4,213.4z"/>
		<path d="M200.9,213.4v8.3h-2.8v-16.2h2.8v2.6c0.9-2,3-3.3,5.2-3.2c3.1,0,5.3,2,5.3,5v11.7h-2.8v-11.1c0-1.9-1-3.1-2.9-3.1
			C202.7,207.4,200.9,209.7,200.9,213.4z"/>
		<path d="M225.8,200.1c0-1.2,1-2.2,2.2-2.2c1.2,0,2.2,1,2.2,2.2c0,1.2-1,2.2-2.2,2.2C226.8,202.2,225.8,201.3,225.8,200.1z
			 M229.4,205.4v16.2h-2.8v-16.2H229.4z"/>
		<path d="M238.4,213.4v8.3h-2.8v-16.2h2.8v2.6c0.9-2,3-3.3,5.2-3.2c3.1,0,5.3,2,5.3,5v11.7h-2.8v-11.1c0-1.9-1-3.1-2.9-3.1
			C240.2,207.4,238.4,209.7,238.4,213.4z"/>
		<path d="M267,210.7v10.9h-3v-23.8h3V208h15.1v-10.2h3v23.8h-3v-10.9L267,210.7z"/>
		<path d="M290.2,217.6c0-2.9,1.9-4.6,4.8-5.3c3.9-0.9,5.5-1.3,5.5-2.7c0-1-0.2-1.6-1.1-2c-0.6-0.2-1.3-0.3-2-0.3
			c-2.6,0-3.9,1.1-3.9,4h-2.8V211c0-3.8,2.6-6.1,6.7-6.1c2.2,0,3.8,0.5,4.6,1.4c0.9,0.9,1.3,2.1,1.2,3.3v12h-2.8v-2.9
			c-1,2.1-3.1,3.5-5.4,3.4C292,222.1,290.2,220.2,290.2,217.6z M292.9,217.5c0,1.4,0.9,2.4,2.7,2.4c1.8-0.1,3.4-1,4.2-2.6
			c0.4-0.6,0.6-1.3,0.6-1.9v-2.7c-0.5,0.3-1,0.5-1.3,0.6l-0.6,0.2l-0.5,0.2l-0.6,0.2L297,214c-1,0.2-1.9,0.6-2.8,1.1
			C293.4,215.6,293,216.5,292.9,217.5L292.9,217.5z"/>
		<path d="M311.8,213.4v8.3h-2.8v-16.2h2.8v2.7c0.9-2,3-3.3,5.2-3.2c2.1-0.1,4.1,1.2,4.9,3.2c1-2.1,3.2-3.3,5.5-3.2
			c2.7-0.2,5,1.8,5.1,4.5c0,0.2,0,0.3,0,0.5v11.7h-2.8v-11.1c0.2-1.5-0.9-2.9-2.4-3.1c-0.2,0-0.3,0-0.5,0c-2.9,0-4.7,2.5-4.7,5.9
			v8.3h-2.8v-11.1c0.2-1.5-0.9-2.9-2.4-3.1c-0.2,0-0.3,0-0.5,0C313.7,207.4,311.8,209.9,311.8,213.4z"/>
		<path d="M341.5,208.1c0.8-1.9,2.8-3.2,4.9-3.1c4.1,0,6.7,3.4,6.7,8.7c0,4.9-2.5,8.4-6.5,8.4c-0.9,0-1.8-0.1-2.6-0.4
			c-1.2-0.4-2.2-1.4-2.5-2.6v2.6h-2.7v-23.8h2.8L341.5,208.1z M346,219.8c2.6,0,4.2-2.1,4.2-5.9c0-4.1-1.6-6.6-4.2-6.6
			s-4.5,2.4-4.5,6.1C341.4,217.4,343.1,219.8,346,219.8z"/>
		<path d="M358.3,217.1v-11.7h2.8v11.1c0,1.9,1,3.1,2.9,3.1c3,0,4.9-2.5,4.9-5.9v-8.3h2.8v16.2h-2.8v-2.7c-1,2.1-3.1,3.4-5.4,3.2
			c-2.6,0.2-4.9-1.8-5.1-4.4C358.3,217.6,358.3,217.3,358.3,217.1z"/>
		<path d="M380.5,212.7v8.9h-2.6v-16.2h2.5v3.6c0.3-0.9,0.8-1.7,1.5-2.3c0.6-0.5,1.3-0.8,2-1c0.6-0.1,1.2-0.2,1.9-0.3h0.1
			c0.3,0,0.6,0,0.9,0h0.4v2.9h-0.6h-0.8c-0.6,0-1.2,0-1.8,0.1c-0.6,0.1-1.2,0.3-1.7,0.6c-0.5,0.3-1,0.8-1.3,1.3
			C380.6,211.1,380.4,211.9,380.5,212.7z"/>
		<path d="M404.1,222.3c0.1,2.2-1.3,4.1-3.4,4.7c-1.2,0.4-2.4,0.6-3.6,0.5c-4.5,0-6.9-1.6-6.9-4.9c0-1.4,0.8-2.6,1.9-3.3
			c-0.6-0.4-1-1-1.2-1.6c-0.1-0.3-0.1-0.5-0.1-0.8c0-0.4,0.1-0.8,0.2-1.1c0.3-0.7,0.8-1.2,1.5-1.5c-0.8-1-1.2-2.2-1.2-3.5
			c-0.1-3.1,2.4-5.8,5.5-5.8c0.1,0,0.3,0,0.4,0c1.2,0,2.4,0.3,3.4,0.9v-2h2.6v7c0.2,3.1-2.2,5.7-5.3,5.9c-0.2,0-0.4,0-0.7,0
			c-1.3,0.1-2.6-0.4-3.6-1.3c-0.3,0.3-0.5,0.7-0.5,1.1c0,0.8,0.6,1.4,1.8,1.4h4.1C402.2,218,404.1,219.6,404.1,222.3z M401.6,222.5
			c0-1.6-1-2.3-2.8-2.3h-5.2c-0.6,0.6-0.9,1.4-0.9,2.3c0,1.8,1.6,2.9,4.5,2.9C399.9,225.3,401.6,224.3,401.6,222.5L401.6,222.5z
			 M394.1,210.8c0,2.3,1.1,3.5,3.2,3.5s3.3-1.1,3.3-3.5c0-2.6-1.4-3.5-3.2-3.5h-0.1C395.4,207.3,394.1,208.4,394.1,210.8z"/>
		<path d="M408.2,219.6c0-1.1,0.9-2,2-2.1c1.1,0,2,0.8,2,1.9c0,0,0,0.1,0,0.1c0,1.1-0.9,2-2,2C409,221.7,408.1,220.7,408.2,219.6
			L408.2,219.6z"/>
		<rect width="265" height="48"/>
		<path class="st0" d="M14.7,26.3c-0.1-2.8,0.8-5.6,2.5-7.9c1.6-1.9,4-3,6.5-2.9c2,0,4,0.7,5.6,2c1.4,1.3,2.3,2.9,2.7,4.8
			c0.1,0.7,0.2,1.3,0.2,2c0,0.3,0,0.5,0,0.8h-2.7c0-0.2,0-0.4,0-0.6c0-1.7-0.5-3.3-1.6-4.6c-1-1.2-2.5-1.9-4.1-1.9
			c-3.8,0-6.4,3-6.4,7.8c0,1.7,0.3,3.4,1,4.9c0.5,1,1.3,1.8,2.2,2.4c0.7,0.4,1.5,0.7,2.4,0.8c0.3,0,0.6,0.1,0.9,0
			c1.1,0.1,2.2-0.3,3.1-0.9c1-0.7,1.8-1.8,2.1-3.1c0.2-0.8,0.4-1.7,0.4-2.6h2.7c0,5.5-3.2,9-8.2,9C21.9,36.6,20,36,18.4,35
			c-1.2-0.9-2.1-2.1-2.7-3.5c-0.5-1.2-0.8-2.5-0.9-3.8C14.8,27.3,14.7,26.8,14.7,26.3z"/>
		<path class="st0" d="M39.1,26.8v9.2h-2.5V15.9h2.5v8.6h12.8v-8.6h2.5v20.2h-2.5v-9.2H39.1z"/>
		<path class="st0" d="M58.9,25.9c0-6.5,3.5-10.4,9.2-10.4s9.2,4,9.2,10.4c0,6.7-3.3,10.6-9.2,10.6S58.9,32.6,58.9,25.9z M61.6,26.1
			c0,4.8,2.6,7.8,6.6,7.9s6.6-3.1,6.6-7.9c0-5-2.4-8-6.6-8.1S61.6,21.1,61.6,26.1z"/>
		<path class="st0" d="M81,25.9c0-6.5,3.5-10.4,9.2-10.4s9.2,4,9.2,10.4c0,6.7-3.3,10.6-9.2,10.6S81,32.6,81,25.9z M83.7,26.1
			c0,4.8,2.6,7.8,6.6,7.9s6.6-3.1,6.6-7.9c0-5-2.4-8-6.6-8.1S83.6,21.1,83.7,26.1L83.7,26.1z"/>
		<path class="st0" d="M102.7,27.4h2.5c0.2,4.6,1.8,6.6,5.8,6.6c1.8,0,3-0.4,3.6-1.1c0.6-0.7,0.9-1.5,0.8-2.4c0-2-1.2-3.1-4.5-3.9
			c-4.8-1.1-7.1-2.9-7.1-6s2.5-5.2,6.7-5.2c4.9,0,7.3,2.4,7.3,7.3c0,0.2,0,0.4,0,0.5h-2.5v-0.2c0-1.1-0.1-2.1-0.5-3.1
			c-0.3-0.7-0.8-1.2-1.4-1.6c-0.6-0.3-1.3-0.5-2-0.5c-0.3,0-0.7,0-1.1,0c-2.5,0-3.9,1.1-3.9,2.8c0,0.7,0.3,1.3,0.9,1.8
			c0.6,0.5,1.3,0.8,2,1c0.8,0.3,1.3,0.4,2.1,0.6h0.1l0.2,0c1.2,0.2,2.4,0.7,3.5,1.3c1.1,0.6,2,1.5,2.4,2.7c0.3,0.7,0.4,1.4,0.4,2.1
			c0.1,1.3-0.3,2.5-0.9,3.6c-0.8,1.2-2.1,2-3.5,2.3c-1,0.2-2,0.3-3.1,0.3c-1.9,0.1-3.9-0.5-5.4-1.8c-1.2-1.2-2-2.8-2.3-4.5
			c-0.1-0.7-0.2-1.4-0.2-2.1C102.7,27.9,102.7,27.7,102.7,27.4z"/>
		<path class="st0" d="M135,33.8v2.3h-12.4V15.9H135v2.3h-9.8v6.3h9.8v2.3h-9.8v7L135,33.8z"/>
		<path class="st0" d="M151.2,31.1l-1.6,4.9H147l6.4-20.2h4.8l6.4,20.2H162l-1.6-4.9H151.2z M159.7,28.8l-3.9-12.1l-3.9,12.1H159.7z
			"/>
		<path class="st0" d="M184.1,36.1h-7.5V15.9h7.4c3.6,0,6,2.1,6,4.8c0,1-0.3,2-0.8,2.8c-0.4,0.5-1,1-1.6,1.3
			c-0.2,0.1-0.5,0.2-0.8,0.3c1.2,0.2,2.3,1,3.1,2c0.6,1,0.9,2.1,0.9,3.2c0.1,2.2-1.2,4.2-3.2,5.1C186.4,35.9,185.3,36.1,184.1,36.1z
			 M183.6,18.2h-4.4v5.9h4c2.8,0,4.3-1.1,4.3-3.1C187.3,19.1,186,18.2,183.6,18.2z M183.6,26.4h-4.5v7.4h4.2c3,0,4.7-1.3,4.7-3.5
			C188.1,27.8,186.5,26.4,183.6,26.4L183.6,26.4z"/>
		<path class="st0" d="M197.9,31.1l-1.6,4.9h-2.6l6.3-20.2h4.8l6.4,20.2h-2.6l-1.6-4.9H197.9z M206.3,28.8l-3.9-12.1l-3.9,12.1
			H206.3z"/>
		<path class="st0" d="M217.9,16.6v19.5h-2.5V15.9h5l6.8,19.4V15.9h2.5v20.2h-4.9L217.9,16.6z"/>
		<path class="st0" d="M241.1,36.1h-6V15.9h5.6c3.1,0,5.5,1,7,2.8c1.6,2.1,2.3,4.7,2.2,7.3C249.9,32.3,246.8,36.1,241.1,36.1z
			 M240.7,18.4h-3.1v15.1h3.4c3.9,0,6.2-2.8,6.2-7.5C247.1,21.2,244.9,18.4,240.7,18.4z"/>
	</g>
</g>
</svg>
