<?xml version="1.0" encoding="utf-8"?>
<!-- Generator: Adobe Illustrator 22.1.0, SVG Export Plug-In . SVG Version: 6.00 Build 0)  -->
<svg version="1.1" id="Layer_1" xmlns="http://www.w3.org/2000/svg" xmlns:xlink="http://www.w3.org/1999/xlink" x="0px" y="0px"
	 viewBox="0 0 470 686.4" style="enable-background:new 0 0 470 686.4;" xml:space="preserve">
<style type="text/css">
	.st0{fill:#FFFFFF;}
	.st1{clip-path:url(#SVGID_2_);}
</style>
<polyline class="st0" points="430.4,4.3 430.4,681.4 39.6,681.4 39.6,4.3 430.4,4.3 "/>
<g id="Layer_2_1_">
	<g id="Layer_15">
		<g>
			<defs>
				<rect id="SVGID_1_" x="35" width="400" height="685.7"/>
			</defs>
			<clipPath id="SVGID_2_">
				<use xlink:href="#SVGID_1_"  style="overflow:visible;"/>
			</clipPath>
			<g class="st1">
				<path d="M436,464c-1.4-0.2-1.9-1.3-2.5-2.4c-3.3-5.8-6.1-11.8-8.5-18.1c-0.2-0.4-0.3-0.7-0.3-1.1c1.6-10-6.3-15.8-10.3-23.2
					c-2-3.7-4.7-7.1-6.7-10.9c-3-5.6-6.2-10.8-12.9-12.8c-3.2-1-5.2-4-7.7-6.3c-6.3-5.7-13.9-8.9-21.6-11.9
					c-18.6-7.3-37.2-14.5-55-23.7c-0.5-0.2-1-0.4-1.9-0.7c0.7,3.8,3.3,6.2,5.7,8c7.7,5.7,11,13.9,13.3,22.6c1.4,5.2,3.7,10,5.5,15
					c0.8,2.2,2.6,3.7,4.4,5c1.4,1,3.1,1.9,2.5,4.1s-2.6,2.2-4.3,2.3c-9.9,0.7-19.4-0.7-27.9-6.3c-6.6-4.3-13.5-8-19.8-12.8
					c-3.5-2.7-8-3.4-13-4.5c1.6,2.1,2.7,3.6,3.9,5.1c2.1,2.6,2.1,5.1,0,7.6s-4.2,4.4-6.4,6.6c-0.7,0.7-1.6,1.3-2.5,0.6
					s-0.6-2,0.1-2.9c1.4-1.6,2.9-3.1,4.4-4.6c2.4-2.2,2.9-4.3,0.5-6.8c-1.5-1.5-2.9-3.1-4.4-4.7c-1-1.1-2.5-2.1-1.7-3.7
					c0.7-1.4,2.5-1.6,3.9-1.5c6.4,0.7,12.9,1.4,18.2,5.1c6.5,4.5,13.4,8.3,20,12.5c5.9,3.8,12.3,5.1,19.8,5
					c-5.7-9.3-7.4-19.6-11.3-29c-1.6-4-4.2-7.4-7.5-10.1c-4.6-3.8-8.5-8.1-9.6-14.3c-0.4-2.3-2-3.3-3.9-4.2c-3.3-1.5-6.1-4-7.9-7.1
					c-0.5-1-0.8-2.1,0.3-2.9c0.8-0.6,2-0.4,2.6,0.4c0.1,0.1,0.1,0.2,0.2,0.3c3.4,5.5,9.5,7.3,14.6,10c17.5,9.4,35.9,16.8,54.5,23.9
					c11.5,4.4,22.7,9.2,31.5,18.3c0.8,0.9,1.9,1.5,3,1.9c6.4,2,9.8,6.8,12.9,12.3c4.8,8.4,9.8,16.8,16,24.3c2.3,2.7,2.3,5.7,2.4,9
					c0.3,6.2,2.9,12.2,7.2,16.7V464z"/>
				<path d="M35.6,351.4c19.1,1.6,33-8.4,45.5-20.9c7-6.8,13.4-14,19.3-21.8c6-8.1,14-12.7,24.5-14c-1,2.3-2.9,2.6-4.5,3.1
					c-7.1,2.3-13.3,6.8-17.7,12.9c-9.6,12.8-20.6,24.4-32.9,34.6c-9.8,8.1-21.5,11.3-34.2,10.8L35.6,351.4z"/>
				<path d="M149.1,411.2c5.5-0.8,10.6-0.2,14.9,3.7c0.5,0.5,1.4,1.3,1.9,0.3c0.8-1.7,2.8-3,2.2-5.3c-0.3-1.1-1.4-2.4,0.2-3.1
					c1.7-0.8,2.6,0.8,3.5,1.9c3.9,4.8,6.6,10.3,9.3,15.8c0.6,1.3,1.4,2.9,0,4c-1.6,1.3-3,0-4.2-1c-5-3.9-9.3-8.7-14.8-12.2
					c-7.8-4.9-21.8,0.5-24.2,9.5c-0.2,1,0,2.1,0.6,3c4.5,9.3,9,18.7,13.6,28c1.8,3.7,3.7,3.8,6.3,0.5c2.9-3.7,2.8-5.4-0.5-8.8
					c-2.7-3-5.5-5.8-8.6-8.4c-0.9-0.7-2.2-1.7-1.2-2.9s2,0.1,2.7,0.8c6.4,6.3,14.9,10.2,20.1,17.9c0.5,0.6,1,1.3,1.3,2
					c4.6,12.6,12.5,23.7,16.4,36.7c4.9,16.3,14.4,29.9,27.5,40.8c3.6,3,7.2,5.9,10.9,8.8c11.4,8.9,19.1,20.6,25.4,33.4
					c4.8,9.8,10.2,19.3,15.6,28.8c0.7,1.5,2.2,2.5,3.8,2.5c4.6,0.2,8.9,2,12.3,5c1.4,1.2,2,1.1,2.8-0.7c3.1-7.7,8.9-13.2,15.5-17.8
					c2.5-1.7,3.2-2.9,2-6.3c-3.4-8.7-2.9-18.4,1.2-26.8c4.7-9.7,6-19.8,5.8-30.3c0.1-2.4-0.9-4.7-2.7-6.3
					c-11.4-10.3-20.1-22.6-27.3-36.2c-6.8-12.9-8.9-27-10.9-41.1c-1.4-10.3-2.5-20.6-4-30.9c-1.4-8.9-5.4-17.1-11.4-23.8
					c-9.5-10.8-16-23.5-23-35.9c-0.6-1-1.8-2.4-0.4-3.1s2.2,0.8,2.9,1.9c0.6,0.9,1,1.8,1.7,3c1.6-1,2.8-2.5,3.5-4.3
					c2.1-5.9,6.7-10.5,8.7-16.5c0.4-1.2,0.9-3,2.6-2.3c1.8,0.7,0.5,2.4,0.1,3.4c-2.7,7-7,13.1-10.8,19.5c-1.5,2.6-2.2,4.4-0.1,7.1
					c5.2,6.5,8.5,14.4,14.2,20.9c3.3-4.1,5-9.2,4.8-14.5c0-6.1,0.1-12.3,0.4-18.4c0-1.2-0.2-3.2,1.6-3c1.5,0.1,0.9,2,0.9,3.1
					c0,7.3,0,14.6,0.5,21.9c4.4-6.8,8-13.7,8.8-21.8c0.1-1.1,1.4-4.1-2.3-2.3c-1.6,0.8-1.2-1.3-0.9-2c2.5-5.8,3.3-12,5.2-17.9
					c0.2-0.7,0.6-1.3,1.3-1.3c0.8,0,1.5,0.6,1.8,1.3c1.1,2.2,0.7,4.7,1.4,7.3c1.2-3.2,1.5-6.7,0.8-10.1c-0.2-1.1-0.2-2.4,1.1-2.7
					c1.6-0.4,2,1.1,2.2,2.2c0.7,3.1,0.4,6.3,0.6,9.5c1.4-3.1,2.1-6.5,2.2-9.9c0.1-1.3,0.2-2.7,0.4-4c0.1-0.8,0.5-1.6,1.5-1.6
					c1.4,0,1.2,1.2,1.2,2.1c0,2.1,0,4.2,0,7c1.8-2.5,1.8-4.9,2.5-6.9s-0.5-5.1,3.7-4.8c1.3,0.1,0.7-3,1.3-4.6
					c0.3-0.8,0.5-1.6,1.6-1.5c0.8,0.1,1,0.9,0.9,1.6c-0.7,6.3,0.1,12.7,0.2,19.1c-3.8-2.7-2.7-7-4-10.8c-0.8,3-1.5,5.9-2.4,8.7
					c-0.8,2.4-0.9,2.3-4,2.7c-1.1,0.1-0.7,1.2-0.9,1.8c-1.3,3.2-1.5,7.1-4.7,9.3c-1.3-0.6-0.6-1.7-1-2.5c-5.5,1.7-5.8,6.3-6.6,11.1
					c-1.9,11.9-7.4,23-15.8,31.7c-2.1,2.2-1.9,3.3-0.1,5.5c9.6,11.1,12.2,24.8,13.9,38.8c1.5,12.1,2.7,24.3,6.1,36.2
					c5.5,19.5,16,36,30.1,50.1c5.7,5.7,8.5,11.6,8.4,19.7c-0.1,9-1.3,17.4-5.3,25.5c-3.5,7.2-4.1,14.8-2.5,22.6
					c0.5,2.6,1.3,3.4,3.8,1.3c7.5-6.7,13.1-15.1,16.6-24.6c2.1-5.7,3.7-11.7,5.5-17.5c0.6-1.8,0.8-3.7,0.7-5.5
					c-0.2-4.9-2.9-7-7.7-5.9c-0.8,0.2-1.5,0.5-2.3,0.8c-1,0.5-2.2,0.1-2.8-0.8c-0.8-1.2-0.3-2.3,0.7-3.2c2.4-2.4,6-3.3,9.3-2.4
					c11.7,2.8,21.4,8.2,25.2,20.7c1,3.8,3.5,7,6.9,8.9c8.7,5.1,11.9,12.8,11.7,22.8c-0.3,17.6-7.2,32.8-16,47.5
					c-4.8,8-9.6,16-16.4,22.5c-5.5,5.2-11.1,10-18.8,11.4c-2.9,0.5-1.4,1.9-0.6,3c4.3,6,8.8,11.7,12.3,18.2c2.3,4.2,2.3,3.9-2.3,4.3
					c-7.5,0.6-13.8-1.7-20.4-5.1c-9.9-5-18.8-11.7-26.4-19.7c-4.8-5.2-8.7-10.8-10.7-17.6c-3.8-13.3-9.1-26.1-16-38.1
					c-9.7-16.5-16.3-34.8-29.2-49.4c-2.5-3-5.3-5.7-8.4-8c-9-6.4-17.2-13.9-24.4-22.3c-7.8-9.1-13-19.8-16.4-31.2
					c-1.9-6.3-3.9-12.5-7.4-18c-2.5-4.4-4.5-9-6.1-13.8c-1.4-3.8-3.5-7.2-6.1-10.2c-2,3.6-3.8,7.1-7.7,8.8c-1.9,0.8-0.3,2.4,0.2,3.4
					c4.2,9.4,7.8,19,12.1,28.3c6.1,13.4,8.3,27.5,8.7,41.9c0.4,14.6,1.4,29.3,1.2,43.9c-0.1,8.4,2.5,16.6,3.8,24.8
					c1.8,10.8,2.9,21.6,3.2,32.5c0.4,15.4,1.9,30.9,0.4,46.3c-0.1,1.1,0.8,3.2-1.1,3.2s-1.1-2.1-1.2-3.3c-0.5-10-1.1-20-1.3-29.9
					c-0.3-17.3-0.9-34.6-3.7-51.7c-0.4-2.6-0.4-5.3-1.3-8c-0.1,1.4-0.3,2.9-0.4,4.3c-2.7,28.4-5.4,56.7-8.2,85.1
					c-0.2,1.7,0.4,3.9-2.7,3.8c-2.5,0-3.2-0.6-2.9-3.2c3-31.1,6.2-62.3,8.8-93.5c1.3-15.7,0-31.4-0.3-47.1
					c-0.1-5.2-0.6-10.4-0.6-15.6c-0.3-15.9-7.1-29.9-13.1-44.1c-9.4-22.4-20.4-44-31.2-65.6c-8.5-17-15.3-34.6-18.4-53.4
					c-1.7-10.9-1.6-22.1,0.2-33c1-5.4,4.2-10.1,8.9-12.9c3.6-2,6.2-5.5,6.9-9.6c1-5,1.6-10,2.5-15c1.1-5.8,4.7-10.1,8.9-14.3
					c0.3,0.7,0.6,1,0.5,1.1c-7.9,7.1-7.8,17-9.3,26.4c-0.9,5.9-2.7,11-8.9,13.6c-2.9,1.2-3.6,4.5-4,7.4
					c-3.2,26.5,1.6,53.3,13.8,77.1c2.8,5.7,5.2,11.6,8.2,18.3c3-6.6,8.8-8.5,13.4-12L149.1,411.2z M342.5,536.7
					c-0.4,9.8-3.7,18.6-6.9,27.2c-4.9,13.1-12.2,24.5-24.4,32.2c-5.1,3.2-9.7,7.1-13.6,11.6c-2.5,2.9-4.9,5.9-5.8,9.9
					c-0.4,1.8-0.4,3,1,4.3c9.9,8.7,16.3,20.3,24.6,30.3c3.5,4.2,4.2,4.6,9.3,2.3c1-0.5,1.9-1,2.7-1.7c11.5-7.7,20.3-17.8,27.1-29.8
					c8.1-14.3,14.5-29,14.5-45.9c0-6.3-2.1-11.3-7.5-14.5c-6-3.5-9.4-8.7-11.4-15.2C350.6,542.7,347.2,539.4,342.5,536.7z
					 M327.9,680.3c-1.8-4.4-4.4-7.1-6.4-10.1c-12.1-17.8-23.6-36.1-39.5-51c-2.3-2.2-4.2-4.9-8-5c3.7,9.2,7.2,18.1,10.8,26.9
					c2.5,5.9,5,12,9.9,16.3C304.6,666,316.1,672.4,327.9,680.3z M170.4,414.3c-3.7,3.4-3.2,4.6,3.8,7.1
					C172.8,418.8,172.5,416.1,170.4,414.3L170.4,414.3z"/>
				<path d="M149.2,411.1c-0.4,0.1-1,0.4-1.1,0.3c-6.7-8.1-14.2-15.6-17.9-25.8c-1.3-3.4-2.1-6.9-2.4-10.5c-0.9-9.1-3-18.1-6.3-26.7
					c-3-7.9-3.8-16-1.5-24.3c0.3-1.1,0.3-2.9,1.8-2.6s1,1.9,1,3c-0.1,11,2.9,21.8,8.8,31c2.8,4.4,4.1,9.6,3.7,14.9
					c-0.7,12.3,3.6,22.4,12.9,30.7c3.1-6.9,7.9-12.8,12-19c6.1-9.1,13.7-10.2,22.2-3.2c3.4,2.8,6.6,5.8,10.1,8.4s5.6,6.3,8.9,9.1
					c2-2,1-3.5-0.5-4.9c-4.3-3.8-7.9-8.3-10.6-13.4c-2.8-5.2-8.4-6.9-12.5-10.6s-7.9-7-10.9-11.5c-2.5-3.6-5.3-7-8.4-10.1
					c-10.6-10.7-19.6-22.4-25.8-36.2c-2-4-2.6-8.5-1.9-12.8c0.2-0.7,0.2-2.2,1.5-1.8c0.4,0.1,0.6,1.3,1,2.1c1.9-3,2.2-6.3,2.9-9.5
					c2.6-12.3,2.7-24.9,4.4-37.3c0.1-0.8,0.2-1.6,0.3-2.4c1.4-5.5,1.9-9.9-4.7-13.4c-4.9-2.6-6.9-8.9-8.8-14.4
					c-4.9-13.9-4.9-28.3-3.6-42.6c0.8-9.9,6.2-18,11.9-25.8c1.5-2.1,3.7-3.6,6.3-4c9.3-1.2,15.5-7.7,22.6-12.6
					c-4.1,0.6-6.9,4.1-10.9,5c-0.8-1.5,1.1-1.9,0.9-3l-0.1,0.1c10.5-6.2,21.4-11.7,32.6-16.4c2.7-1.2,5.5-2.1,8.3-2.7
					c2.2-0.4,4.1,0.1,2.5,3.1c-4.1,0.7-7.1,3.5-10.4,5.6c-6.9,4.2-13.2,9.1-19,14.8c7.3-1.8,23.7-13.5,29.2-20.4
					c3,0.8,0.9,2.2,0.3,3.1c-3.2,3.6-6.8,6.8-10.8,9.5c-7.3,5.1-14.9,9.8-22.8,14c11.3-2.7,20.5-9.5,30.3-15.2
					c-1.4,3.6-5.4,4.5-7.3,7.5c1.9,1,5.1-1.6,5.4,0.9s-3.2,1.9-5,2.7c-4,1.7-8.2,3.1-12.2,5c4.4,0,8.6-1.2,12.9-2.2
					c1.1-0.3,2.7-1,3.1,0.5s-1.4,1.7-2.5,2c-7.3,2.3-14.7,3.6-22.3,4.1c-3.7,0.3-7.3,0.6-11,1c0.1,1.6,0.8,3.1,1.9,4.2
					c0.8,1.1,2,3.6,2.8-0.1c0.3-1.4,1.5-0.7,2.3-0.8c4.3-0.3,8.5-0.5,12.7-0.7s7.7-2.4,11.3-4.6c0.5,1.5-0.5,1.6-1,2.1
					c-1.5,1.5-1.1,2.3,0.9,2.4c9.2,0.6,17.6,3.7,26,7.2c2.7,1.1,5.5,1.9,8.4,2.6c2.6,0.7,4.9,0.6,7.3-1.5c3-2.6,7.3-2,11-3.2
					c6.2-2,12.6-3.1,18.9-4.7c0.9-0.2,1.9,0,2.7,0.5c1.4,1.1,3.3,1.5,5.1,1c3-0.7,4.8,2.5,7,3.9c1.9,1.2,4.1,2.1,6.4,2.4
					c5.8,0.5,6.4,5.7,9,8.9c1.6,1.9,1.6,5,2.6,7.5c1.5,3.8,3.6,7.1,8.2,7.8c2.4,0.4,4.7,1.1,6.9,1.9c4.3,1.4,8.2,2.5,12.7-0.4
					c4.1-2.7,9.2-2.6,14-1.4c6.3,1.6,12.8,2.8,18.2,6.8c1.4,1.1,2.2,0.7,2.9-1c1.9-3.8,3.1-7.9,3.5-12.2c0.7-7.7,1.4-15.4,2.2-23
					c0.1-0.9-0.2-2.2,1.1-2.1c1.1,0.1,1.4,1.2,1.2,2.2c-1.5,11.8,0.2,24.1-5,35.3c-1,2.1-0.6,3.4,1.5,4.5
					c6.5,3.3,11.5,8.6,16.9,13.3c4.6,3.9,2.9,12.7-3,14.9c-2.7,1-5,3.1-6.2,5.8c-2.4,4.6-5.4,8.9-8.8,12.8c-4.3,4.9-10.1,6.8-16.1,8
					c-2.5,0.5-3.3,1.7-4,4c-3.3,11.6-6.3,23.4-13.2,33.7c-0.9,1.3-1.5,2.8-3.4,3.6c-0.1-2.7,1.4-4.6,2.5-6.6
					c5.5-9.5,8.3-20.1,11.7-30.5c0.9-2.6,0.3-3.4-2.6-3.4c-6.5,0.1-12.8-0.9-18.6-4c-4.8-2.4-8.4-6.8-9.9-12
					c-0.5-1.7-0.8-3.6,1.4-4.4s2.8,1.1,3.3,2.6c1.6,5.2,5.8,7.5,10.4,9.2c9.6,3.5,19.2,5.3,28.4-1.4c-4.9,1.6-10,2.4-15.2,2.2
					c-18.4-0.9-25.2-9.2-22.7-27.6c1.1-7.9,5-13.2,12.4-16.2c11.1-4.4,22-3.5,32.3,2.3c7.4,4.2,9.8,11,7.1,19.2
					c-1,3.3-2.6,6.4-3.6,9.9c1.9-2.6,4-5.2,5.8-7.9c1.5-2.4,3-4.8,5.5-6.3c2-1.2,2.1-2.2,0.6-4c-12.9-16.4-30-21-49.9-17.6
					c-2.6,0.5-5.3,0.4-7.8-0.3c-5.6-1.6-11.1-3.7-17-4.3c-1.5-0.1-2.9-0.9-3.7-2.1c-6.8-10.1-17.5-13.9-28.2-17.6
					c-8.4-3-17.5-3.9-26.3-2.5c-9.1,1.5-18.5,0.3-27-3.5c-9.7-4.2-20.1-6.4-30.6-6.5c-5-0.1-9.7,1.2-14.5,2.1
					c-0.4,0.9,0.4,1.4,0.7,2.1s0.6,1.6-0.2,2.2s-1.5,0-2.2-0.4c-3.5-2.3-6.2-5.4-8.9-8.5c-0.5-0.6-0.9-1.3-1.4-1.9
					c-6.4-7.3-10.8-7-15.5,1.5c-7,12.5-8.6,26.1-7.7,40.2c0.6,8.8,2.4,17.4,6.7,25.3c2.9,5.3,6.7,9,13.4,7.5c0.4-0.1,0.8-0.1,1.2,0
					c4.8,3.6,4.8-1,5.7-3.5c1.4-3.7,3.2-7.3,5.2-10.8c0.6-1,1.3-2.4,2.8-1.4c1.2,0.8,0.2,1.9-0.3,2.8c-2.8,5.1-5.3,10.5-7.4,15.9
					c-3.4,8.3-5.2,17.1-5.3,26c0,1.2-0.2,2.4-0.7,3.5c-2-9.1-0.2-18,2.4-26.9c-4.4,0.5-4.4,0.5-5.1,4.7c-2.3,14.1-2.1,28.4-4.6,42.5
					c-1.4,7.4-2.2,15.1-7.9,20.9c-1.4,1.4-0.1,2.5,0.5,3.6c5.3,9.5,11.9,18.3,19.4,26.2c5.4,5.6,10.9,10.9,15.4,17.3
					c1.1,1.6,2,2,3.8,0.7c8.3-6,17.5-9.5,28-9c1.9,0.1,2.8-1,3.9-2.2c3.1-3.6,3.8-6.2,2.7-10.7c-0.1-0.5-0.1-1,0-1.5
					c1.8-0.7,1.4,1.8,3,1.6c-0.8-6.3-1.1-12.8,0.1-19c1.3-6.5,5.4-11.6,11.1-16c0.7,2.7-0.9,3.6-1.8,4.7c-3.6,4.2-7.4,8.7-7.4,14.3
					c0,6.6-0.4,13.5,4,20.5c1-6.5,3.3-12.7,6.9-18.2c1.9-3,4-6,7.2-7.9c0.9-0.5,2-1.5,2.8-0.3s-0.6,1.9-1.3,2.5
					c-6.7,5.7-10.3,13.1-12.2,21.5c-0.6,2.7-0.6,5.6,0.1,8.3c0.4,1.6,1.2,4.2-2.2,1.9c-1.4-0.9-3.1-0.1-4.7,0.1
					c-1.3,0.1-3,0.4-3.3,1.8s1.4,1.7,2.3,2.3c3.4,2.5,5.9,5.8,7.5,9.7c3.4,8.8,8.2,17.1,14.1,24.4c0.2,0.2,0.3,0.4,0.5,0.6
					c0.7,1.2,1.9,2.5,0.4,3.9s-3.1,0.5-4.1-0.8c-4.8-6-10.3-11.6-13.2-18.9c-0.5-1.4-1.1-2.7-1.7-4c-4.9-11.4-11.7-15-23.9-12.2
					c-5.8,1.3-11,4-16.1,7c-1.8,1.1-1.4,2-0.2,3c3.4,2.8,6,6.5,10,8.9c2.6,1.5,4.3,4.7,6,7.4c2.7,4.6,6.2,8.7,10.3,12.1
					c2.4,2,3.2,4.6,1.8,7.1c-1.6,2.8-0.6,4.4,1.5,6c0.7,0.6,1.4,1.3,1.9,2c0.6,0.7,1.4,1.4,0.5,2.4s-1.8,0.4-2.5-0.2
					c-1.9-1.6-4.1-3.1-5.6-5.1c-6.3-8.2-15-13.5-23-19.7c-5.1-4-9.3-3.3-12.9,2.1C159.4,392.9,151.9,400.6,149.2,411.1L149.2,411.1z
					 M324.3,218.4c2.8,0.8,5.9,0.4,8.4-1.1c1.1-0.6,2.5-0.9,3.2,0.4c0.9,1.6-0.5,2.5-1.7,3c-5.1,2.4-10.1,2.1-14.6-1.5
					c-2.1-1.7-3.1-1.4-3.7,1.2c-2.1,8.6,0.6,21.3,14.5,21c7.8-0.1,7.3,0.2,9.1-7.3c2.1-8.6,2.1-18.5,11.6-23.9
					c-6.5-2.9-12.7-4.4-19.6-2.2c0.3,0.8,1,1,1.5,1.4c1.4,1.4,3.5,3.4,1.9,5s-2.6-1.2-3.8-2.2c-1.7-1.5-2.9-1.7-3.5,0.9
					C327.1,215.1,325.6,216.3,324.3,218.4z M357.7,219.4c0.2-2.6-0.9-5.1-2.9-6.7c-0.6-0.5-1.4-1.5-2-0.7c-1.9,2.4-5.3,3.3-6.2,6.6
					c-1.6,6-4,11.8-4.7,18.1c-0.1,1.1-0.9,2.6,0.2,3.3c0.9,0.6,2-0.3,2.9-0.8C352.5,234.6,356.2,227.6,357.7,219.4L357.7,219.4z
					 M185.4,125.1l-0.4-0.8c-5.2,2.5-10.3,5.1-15.5,7.6c-0.3,0.2-0.5,0.5-0.6,0.8c3.8,3.2-0.8,3.6-1.8,4.3
					c-5.4,4.3-11.1,8.2-17.1,11.6c3.7,4.1,5.2,4.5,7.5,2.1c0.8-0.8,0-1.9,1.1-2.7c6.4-5.4,11.4-12.2,18.5-16.9
					C179.9,129.2,182.6,127.1,185.4,125.1z M323.9,212.4c-1.5,1.1-4,0.1-4.6,2.4c-0.1,0.3,0.6,1,1,1C322.5,216,323,214,323.9,212.4z
					"/>
				<path d="M227.7,190.7c3-6.7,7.8-10.6,12.5-14.5c1.5-1.3,3.5-2,5.5-2.1c11.9-0.5,23.7,2.9,33.6,9.6c7.3,4.9,10.1,12,8,20.9
					c-3.1,13.7-13.4,22.1-27.4,22.1h-0.8c-17.3,0-22.5-2.9-31.9-18.1c0.9,4.7,3.3,9,6.8,12.3c9,8.9,27.6,12.1,38.3,5.6
					c7.9-4.8,14.3-11.4,17.5-20.6c1.1-3.3,1.7-7.2,6.3-7.9c5.8-0.8,11.1,0.1,15.8,3.9c1.3,1,1.8,2.8,1,4.4c-0.8,2-1.9,4.2-4.1,4.6
					c-2.7,0.5-2.9-1.8-2.2-3.4c1.2-2.7-0.4-3.2-2.3-3.8c-6.1-2.1-7.7-1.3-9.8,4.8c-1.9,5.6-4.2,10.9-8.3,15.4
					c-14.7,15.9-44.3,15.4-58.3-1.4c-5.6-6.8-7.9-15-7.3-23.9c0.2-3.4,0.4-6.9,0.6-10.4s-1.5-5.7-4.9-6.8
					c-5.7-1.8-11.7-2.8-17.7-2.7c-8.9-0.1-17.8-1.6-26.3-4.5c-1.4-0.5-3.6-0.9-3.1-2.9c0.6-2.4,2.6-1.5,4.3-1.3
					c11.1,1.2,22.3,1.7,33.3,3.5c2.6,0.4,5.3,0.9,7.8,1.6C225.1,177.5,226.7,179.4,227.7,190.7z M257.7,221
					c13.7,0.6,20.4-3.9,25.2-18c2.3-6.6,0.3-12-5.5-15.9c-7.8-5.2-16.8-8.3-26.2-8.8c-5-0.4-9.9,1.6-13.3,5.3
					c-5.6,5.8-6.9,12.8-6.1,20.3s5.2,12.6,12.3,15.3C248.5,220.9,253.2,221.1,257.7,221z"/>
				<path d="M305.9,41.2c6.4,1.5,13.2-1.4,19.4,2.1c-0.9,1.6-2.4,0.9-3.5,1c-3.3,0.2-6.7-0.1-10,0.3c-9.5,0.9-15,5.6-16.4,15.1
					c-1.8,12.2-0.6,24.1,5.6,35.8c0.9-2.3,0.9-4.8,0.1-7.1c-3-9.7-1.3-19,2.7-27.9c1.7-4.3,5.7-7.2,10.3-7.7
					c-8.8,6-11.1,14.8-11.1,24.5c1.9-6.2,4.5-12.2,8-17.7c3-4.6,6.7-8.6,11.9-10.9c7.8-3.3,15-0.8,22.6,2.4
					c-1.8,1.7-3.4,0.9-4.8,0.7c-4.2-0.5-8.6-3.3-12.4-1c-5.1,3.2-10.1,7-13.3,12.5c-0.7,1.1-1.2,2.2-1.5,3.4
					c7.1-7,14.8-12.7,25.6-14c-1.3,2.1-2.9,2.3-4.3,3c-7,3-13.3,7.5-18.4,13.1c-7.6,8.7-8.2,18.6-5.7,29.3c1.6-0.8,1.3-2.1,1.5-3.2
					c2-9.3,5.1-17.9,12.1-24.7c3.8-3.8,8.6-6.4,13.8-7.6c2.2-0.7,4.6-0.3,6.5,1c-18.1,3.3-26.2,14.9-28.7,31.4
					c1.4-2.7,2.7-5.4,4.1-8.1c3.2-6.5,7.7-12.2,13.4-16.7c1.3-1,2.8-3.4,4.9-0.6c0.5,0.7,1.7-0.3,2.5-0.7c3.8-2,7.9-2.1,12.3-2.6
					c-0.6,2.4-3,2.3-4.1,3.7c0.5,0.9,1.2,0.3,1.8,0.3c1.3,0.1,3.3,0,3.3,1.4c0.1,2-2.1,1.4-3.1,1.2c-8.7-1.2-13.8,4.2-18.7,9.9
					c-5.9,6.9-11.8,13.7-15.6,22.1c-1.1,2.3-2.5,4.6-5.6,4.4s-3.5-2.9-4.4-5c-1.1-2.5-1.8-5.2-2.8-8c-0.9,1-1,2.5-0.3,3.7
					c0.5,1,0.2,2.2-0.6,2.9c-1,0.7-2.3,0.8-3.4,0.2c-2.4-1.1-4.3-3.1-5.2-5.6c-1-2.3-0.3-6.1-4.5-6.4c-0.3,0-0.7-1.6-0.8-2.5
					c-0.8-13.5-1.4-26.9,4.4-39.8c-2.4,1.6-2.7,1.9-4,4.5c-3,6.1-3.9,12.7-3.7,19.4c0.1,3.3-0.1,6.7-0.2,10c0,0.8-0.2,1.7-1.3,1.6
					c-0.8-0.1-1-0.9-1-1.5c-1.1-11.6-2.7-23.7,4.9-33.5c6.9-8.9,16.4-14.6,28.5-13.5c2.8,0.2,5.4,1.3,7.5,3.2
					C317.8,39.4,311.4,37.1,305.9,41.2z"/>
				<path d="M238,27.9c-3.7,12.3,2.4,22.1,7.5,32.3c-0.3-8.9-2.2-17.7-1.6-26.6c4.7,9,3.8,19.2,6.2,28.7c3.4-10.5,1.8-20.8-1.4-31.1
					c1.8-0.1,3.3,1.1,3.8,2.8c3.3,8.9,3.7,18.7,1.2,27.8c-0.9,3.4-4.6,3.2-6.9,4.9c-0.8,0.6-1.9-0.6-2.6-1.5
					c-0.9-1.1-1.7-2.3-2.8-3.7c-0.4,3,0,7.6-3.9,2.2c-10.4-1-20-6.6-31.1-4.2c-10.8,2.4-21,5.7-30.5,11.3c-0.6,0.3-1.1,0.8-1.4,1.4
					c7.7-2.1,15.4-4.2,23.2-5.7c9-1.7,18-3.4,27.3-2.8c2.8,0.2,5.6,0.6,7.8,2.5c0.6,0.4,0.9,1.1,0.6,1.7c-0.3,0.7-1.1,0.6-1.8,0.4
					c-29.4-4.8-55.1,5.5-80.1,19.1c-3.4,1.9-6.5,4.5-10.4,5.7c5.1-6.6,10.1-13.2,16.6-18.9c-1.6-0.4-2.7,2.1-3.8,0.7
					c-0.9-1.1,0.2-2.5,0.7-3.7c3.4-7.6,10.3-11.4,17.2-14.9c8.6-4.5,18-7.6,27.6-9.1c9.3-1.4,18.5-1.7,27,4c4.2,2.8,8,5.7,10.2,10.3
					c-2.7-15.7-15.8-19.4-28.5-24.1c6.2-2.7,13.3,0.2,27.2,10.7C234.3,41,230.9,33.7,238,27.9z M156.3,80.2
					c7.6-2.3,12.2-8.8,18.9-12.4c6.7-3.7,13.7-6.9,20.9-9.5C180.1,60.7,167.5,69.2,156.3,80.2z M196.5,54.3
					c10.5,1.6,21.5,1.3,33.1,4c-1.8-2.2-4.2-3.8-6.9-4.8c-2.3-0.8-5.1-4.9-7,0.6c-0.3,0.8-1.7,0.1-2.6,0
					C207.6,53.2,202,53.3,196.5,54.3z"/>
				<path d="M351.7,119.3c-2.6,0.4-5,2-7.7,1.8c-1-0.1-2.4,0.2-2.6-1.2s1.2-1.6,2.2-1.9c6-1.5,11.1-5.6,13.8-11.2
					c0.3-0.6,0.8-1.1,0.2-2.1c-3.4,3-6.9,5.7-10.6,8.3c-4,2.5-8,4.2-12.8,2.8c-1-0.3-2.1-0.1-3.1,0.4c-4.5,2.4-8-0.6-11.4-2.6
					c-2.7-1.5,0.6-3.2,1-5c-1.3-0.5-2.8,1.5-3.6-0.2s1.2-2.1,2.1-2.8c3.4-2.4,5.7-5.9,6.7-9.9c1.6-6,5.9-10,10.8-13.4
					c5.1-3.2,10.7-5.5,16.5-6.7c5-1.2,10.1,1.9,15-0.8c0.3,1.6-0.3,1.9-0.9,2.2c-7.7,4.2-12.5,10.9-16.5,18.5
					c-3.3,6.4-6.4,12.9-12.8,17.2c4.9-0.4,8.3-3.5,11.8-6.2c3.8-3,7.2-6.3,10.2-10.1c2.9-3.5,5.8-7.1,9-11c0.3,2.3-1.4,3.3-1.6,5.5
					c2.3-1.5,4.2-3,6.2-4.2s4.1-2.6,6.9-1.8c-0.4,1.8-1.6,3.4-3.3,4.3c-4.4,2.8-7.8,6.9-9.8,11.7c-3.3,7.8-9.4,13.4-16.1,18.3
					L351.7,119.3z M331.1,112.6c5.9-2.4,10-5.7,12.8-10.6c4.4-7.8,7.9-16.2,15.4-23.3c-6.4,1.4-10.4,4.1-13.3,8.4
					c-3.5,5.3-7,10.6-10.4,16C333.6,106.1,332.1,109.3,331.1,112.6z M323.4,114.3c2.9,1.2,4-0.2,4.6-2.3c1.8-5.9,5-11.1,8.5-16.2
					c2-3,3.9-6.1,5.8-9.2c-5.8,3.2-10.3,7.2-12.3,13.6C328.5,105.2,327.2,110.2,323.4,114.3z"/>
				<path d="M181.9,262.7c-9.8,9.5-14.2,21.2-14.3,34.7c0,3,0.3,6.1-0.8,9.7c-8.2-9.7-10.9-20.8-12.5-33.4
					c-0.6,6.6,0.8,12.2,1.2,18.5c-2.5-2.7-2.6-5.6-3.1-8.3c-1.8-11,1-21.7,2.6-32.4c1.6-10.4,5.1-20.5,10.2-29.7
					c0.8-1.4,0.9-4.4,2.9-3.4c2.1,1.1-0.1,3.3-0.9,4.7c-4.6,8.9-8.3,18.2-9.8,28.2c-0.1,0.8-0.1,1.6,0,2.4c3.5-8.2,7.6-16.1,11.5-24
					c0.8-1.7,1.6-4.9,3.5-4c2.3,1.1-0.3,3.4-0.9,5c-4.6,11.3-10.1,22.3-11.6,34.7c-1.3,10.6,0.2,21.3,4.5,31
					c0.9-6.4,1.1-11.9,3.3-17.9c-2.4,1.7-2.9,4.1-4.8,5c-2.2-10.1,4.4-17.3,8.7-25c4-7.1,8.3-13.9,11.6-21.4
					c0.3-0.7,0.7-1.4,1.1-2.1c0.5-0.8,1.3-1.6,2.3-1s0.3,1.4,0,2.1c-1,2.4-2,4.9-3.2,7.6c2.5-1,3.9-0.8,3,2
					c-1.2,3.1-2.7,6.1-4.6,8.8c-1.4,2.3-2.9,4.6-4.2,7c4.6-3.9,6.5-9.8,10.8-13.9c-0.3,6-4.6,10.1-6.8,15.1L181.9,262.7z"/>
				<path d="M183.1,107.2c7.3-1.4,13.3-6.2,20.5-7.9c0.6,1.9-0.5,2.1-1.3,2.5c-13.9,7-28,13.7-43.1,17.7c-2.7,0.7-4.7,2.3-7,3.7
					c-2.5,1.5-4.9,3.4-9.1,3.2c3.4-2,6-3.5,8.5-5.1c0.7-0.5,1.6-1.3,1.7-2c0.1-1.3-1.3-1.1-2.1-1.2c-3.4-0.6-1.9-1.7-0.5-3.2
					c4.3-4.5,8.9-8.7,13.6-12.8c-7.4,4-14.2,8.7-19.1,16.6c-1.4-3.1,0.4-4.7,1.6-6.2c8.2-10,17.9-17.6,30.5-21.4
					c9.5-2.8,18.9-5.6,28.8-6.3c2.3-0.2,5.7-1.5,6.5,1c0.6,1.8-1.4,4.9-3.4,6.5c-3.2,2.6-6.8,4.7-10.6,6.2
					C193,100.7,188.1,104,183.1,107.2z M199.3,91.4c-17.8,0.4-31.3,9.4-43.1,21.4C172.3,109.1,184.5,97.6,199.3,91.4z"/>
				<path d="M215.2,72.1c2.3,0.5,4,0.8,5.6,1.3s2.8,1.3,2.6,3.1s-1.8,1.8-3.1,1.8c-2,0-4-0.1-6-0.4c-9.8-1.9-20-1.4-29.6,1.4
					c-13.4,4.1-26,10.5-37.1,19.1c-1.6,1.2-3.1,2.8-5.6,3.3c0.5-2.9,2.7-4.3,4.5-5.9c15.6-14,33.7-22.4,54.7-24.6
					c7-0.7,13.8-3.2,20.9-2.3c1.9,0.2,5.4-0.4,5.3,1.9c-0.1,2-3.4,0.7-5.3,0.8C220.1,71.7,218,71.1,215.2,72.1z"/>
				<path d="M236.1,275.5c3.3,0.1,4.9-2.5,7.1-4c1.1-0.8,2.1-1.7,3.2-2.4c0.6-0.6,1.6-0.5,2.1,0.1c0,0,0,0,0,0
					c0.4,0.6,0.2,1.4-0.3,1.8c-4.1,3.8-8.2,7.6-12.3,11.3c-1.5,1.4-2.2-2.6-4.2-0.5s-4.6,3.5-7.2,5.5c2,0.6,3-1.3,5.1-0.5
					c-1.3,3.1-4.4,3.9-6.9,5.8c2.1,0.7,3.8-1.3,6.1-0.4c-1.9,3.3-5,3.9-8.1,3.9c-2.5,0-3.8,1.1-5,3.1c-6,9.6-7.9,20.2-8.3,31.2
					c-0.1,1.7,0.4,3.4-0.8,5.5c-1.8-2.9-1.8-5.8-1.8-8.5c-0.1-10.7,3-21.2,8.7-30.2c0.7-1.1,2.4-2,1.1-4.1c-0.8-1.2,1.3-1.6,2.3-1.9
					c2.6-0.6,3.4-2.1,4.4-4.7c1.8-5,4-10.2,10.4-11.7c2.1-0.5,3.6-3.4,5.6-5c1-0.9,2.5-2.5,3.8-1.1s-0.6,2.5-1.5,3.5
					C238.5,273.4,237.2,274.4,236.1,275.5z"/>
				<path d="M153.6,129.1c1.6-3.1,4.9-3.2,7-5.1c-0.2-1.7-2.2-0.6-2.9-2.4c16.1-6.6,33.5-9.2,49.1-17.3c-0.8,1.6-4.1,1.8-1.6,4.6
					c0.3,0.3-1.3,1.1-2.1,1.4c-3.8,1.3-7.5,2.6-12.3,4.2c4.8,0.3,8.5-1.6,12.4,0.3C186.4,118.2,170,123.6,153.6,129.1z"/>
				<path d="M181.7,262.8c2.9-2.2,4.5-5.5,7-8c0.9-0.9,1.7-3.2,3.2-1.9c1.3,1.1-0.4,2.7-1.2,3.8c-3,4.1-6.1,8-9.1,12.2
					c-4.8,6.7-8.7,13.7-9.4,22.1c-0.1,1-0.4,2,0.4,3.3c0.6-3.6,1.3-6.9,4.1-10c0.6,3.8-0.7,6.7-0.8,9.7c-0.3,7.6,0.1,14.9,5.2,21.2
					c0.6,0.8,1.7,1.8,0.4,2.7c-1,0.7-2-0.1-2.8-0.9c-3.2-3.3-5.2-7.5-5.7-12c-0.4-2.3-0.7-4.6-1.1-7.8c-0.8,5.8,0.8,10.8-0.3,16.8
					c-2.8-5.9-2.9-11.1-2.9-16.4c-0.1-11.5,3.9-21.6,10.7-30.7c0.9-1.2,2.3-2.3,2.4-4L181.7,262.8z"/>
				<path d="M263.2,334.5c-0.8,2.2-3.8,3.9-0.7,6.9c1.4,1.4-3,9-5.8,10.5c-0.7-2.8,2.1-4.8,1.7-7.9c-2.3,2.7-4.3,5.1-6.5,7.4
					c-1,1-2.2,1.9-3.4,2.7c-0.9,0.6-2.1,1.1-2.8-0.1c-0.6-1,0.4-1.6,1.1-2.3l0.3-0.3c3.5-3.1,6.5-6.1,6.7-11.5
					c0.2-3.7,1.2-7.4,3-10.7c0.9,1.5,0.9,2.6,0.7,8.3c1.4-3.4,4.1-6.1,3.4-10.3c-0.3-1.7,1.1-2,1.9-1c2.3,2.4,5.2,4.8,6.4,7.5
					c2.7,6-0.3,11.9-2.9,17.4c-0.3,0.6-1,1.2-1.6,0.7c-1-0.8-0.7-2-0.4-2.9C265.8,344,263.9,339.3,263.2,334.5z"/>
				<path d="M254.7,30.7c6.7,4.7,6.4,11.9,8,19.2c2.5-7.8,3.8-15.5,13-17c-0.3,0.6-0.7,1.1-1.1,1.6c-8.8,8-9.6,18.2-8.4,29
					c0.2,1.8,1.6,4.8-0.6,5.2s-1.9-3-2.4-4.8c-0.4-1.6-0.7-3.3-0.9-5l-1.2,5.2c-0.3,1.2-0.4,2.7-2,2.4s-1.2-1.8-1.1-3
					c0-0.3,0-0.5,0.1-0.8c1.4-9.9,0.8-19.7-3.2-29c-0.2-0.5-0.3-1-0.4-1.5C254.4,31.7,254.5,31.2,254.7,30.7z"/>
				<path d="M275.8,62.1c-1.5,4-1.4,7.9-2,11.6c-0.2,1.4,0.1,3.5-1.8,3.5c-2.2,0-1.4-2.2-1.4-3.4c0.1-8.2,1.4-16.1,6.1-23.2
					c1.7-2.5,2.6-5.5,4.1-8.2c1.6-2.9,4-5.3,7-6.8c-0.1,0.6-0.3,1.1-0.5,1.7c-7.8,10.2-8.7,21.7-6.9,33.8c0.4,3,0.5,6.1,0.5,9.2
					c0,1.2,0.3,3.1-1.6,3c-1.5,0-1.5-1.7-1.4-2.9c0.2-5.8-1.3-11.4-1.7-17.1C276.2,62.9,276,62.5,275.8,62.1z"/>
				<path d="M195.1,269.8c-5.8,9.9-10.7,19.2-11.6,29.9c-0.2,2.4,0,4.9,0,7.9c2-2.4,0.4-6.5,3.3-6.2c1.9,0.2,0.5,3.9,0.8,6.1
					c0.5,4,2,7.7,3.7,11.3c0.7,1.6,1.8,3.2,1.3,5.3c-2.9-4.6-8.9-6.2-10.7-11.9c-1.3-4.1-1.8-8.3-1.4-12.6c0.9-9.2,4-18,9.2-25.6
					C190.7,271.9,192.7,270.4,195.1,269.8z"/>
				<path d="M156.1,187.6c0,3.2-0.4,6.4-1.4,9.5c-1.4,3.8-1.1,8,0.9,11.6c0.8,1.4,2.1,3.6,0.1,4.6s-2.8-1.6-3.6-3
					c-2.4-3.6-3-8.1-1.8-12.3c3.9-13.7,0.4-26.3-5.4-38.6c-0.6-1.2-2.3-2.7-0.5-3.8c1.9-1.2,2.8,1,3.5,2.2
					C153.1,167.1,155.2,177.2,156.1,187.6z"/>
				<path d="M220,81c-28.1-0.1-53,8.2-74.4,27.3c-0.1-1.9,0.9-2.8,1.6-3.7c5.6-7.1,13.4-11.3,21.3-15.1c14.6-7,30.5-10.6,46.6-10.7
					C217,78.7,218.9,78.3,220,81z"/>
				<path d="M303,286.2c1.3-0.4,0.6-3,2.5-2.5c1.6,0.5,1.1,2.2,1.3,3.5c0.8,6.7,3.2,12.9,5.3,19.2c0.9,2.7,0,6.2,3.5,8
					c0.9,0.4,0,1.5-0.9,1.4c-1.5-0.1-3.5-1-3.3-2.3c0.4-3.4-1.8-5.5-3.4-7.6c-3.8-4.9-2-11-4.3-16.3c-0.8,2.5,0.5,5.2-0.9,7.5
					c-0.3,0-0.8,0-0.8-0.1c-1.5-6.4-7-11.6-6.1-18.8c0.1-1.1-0.5-2.9,0.9-3.1c1.9-0.3,1.5,1.6,1.8,2.9s0.5,2.3,0.8,3.5
					c0.1,0.3,0.2,0.9,0.4,0.9c2.5,0.3,2.5,0.3,3,3.2C302.8,285.7,302.9,286,303,286.2z"/>
				<path d="M232.9,343.5c4.7-4.1,7.2-9.3,9.9-14.3c1.2-2.1,2.2-6.2,4.4-5.2c2,0.9-0.9,4.2-1.9,6.3c-2.8,6.6-6.7,12.7-11.4,18.2
					c-0.7,0.9-1.5,2.3-2.8,1.9s-1.4-1.9-1.4-3.1c-0.5-10.6,3-19.8,10.2-27.6c0.6-0.6,1.5-1.5,2.4-0.8s0,1.8-0.5,2.4
					c-4.1,5.5-7.2,11.5-8.5,18.3C233.1,340.9,233,342.2,232.9,343.5z"/>
				<path d="M256.8,287.6c-3.3,0.7-7,0.3-10.6-0.5c-1.1-0.2-2.8-0.5-2.6-1.9c0.2-1.7,1.9-0.9,2.9-0.7c3.5,0.7,7.1,0.9,10.7,0.4
					c2.5-0.3,5.1,0.3,7.2,1.7c5.6,3.6,12,5.8,18.6,6.5c4.9,0.4,7.8,3.7,11,6.7c0.9,0.6,1.1,1.9,0.5,2.8c-0.1,0.1-0.2,0.3-0.4,0.4
					c-1.2,1-2.4,0.5-3-0.7c-2.6-4.6-6.7-5.9-11.6-6.5c-5.8-0.8-11.2-3.2-16.3-6.2C261.4,288.1,259.1,287.5,256.8,287.6z"/>
				<path d="M200.4,336.3c1.4-3.5-0.5-5.7-2.3-8.2c-2-3-3.3-6.4-3.7-10c-1.3-8.1-3.2-16.2,0.4-24.3c1.8-4.3,4.7-8,8.4-10.8
					c-1.6,2.7-3.2,5.4-4.6,8.1c-2.6,4.9-4.1,9.9-2.7,15.7c1,4.1,1,8.4,2.1,12.6c0.7,3.1,2,6.1,3.9,8.6
					C204.3,331.1,204.1,333.4,200.4,336.3z"/>
				<path d="M229.7,352.5c-5.3-2.5-8-8-6.8-14.8c1.3-8,5.4-15.2,11.7-20.3c1-0.9,2.5-2.6,3.7-1.1s-1,2.1-1.9,3
					c-3.7,3.4-6.7,7.6-8.7,12.3c-2.7,6.3-2.9,12.4,1.3,18.1C229.5,350.4,230.2,351.1,229.7,352.5z"/>
				<path d="M257.9,280.3c-1.5-1.5,0.2-2.4-0.4-3.5c-0.3,0.1-0.7,0.2-1,0.4c-2.5,1.7-5,3.5-7.5,5.1c-0.7,0.5-1.9,0.9-2.4-0.3
					c-0.4-0.8,0.4-1.5,1-2c5.4-4.1,10.8-8.1,16.1-12.3c2.3-1.8,4.7,0.4,7.1-0.2c0.8-0.2,0.5,1.3-0.1,1.8
					C266.1,272.6,262.2,276.6,257.9,280.3z"/>
				<path d="M163.5,270.2c-2.3-14,6.8-35,16.7-38.1C170.4,242.9,165.8,256,163.5,270.2z"/>
				<path d="M267.5,309c-0.4,2-1,3.9-2,5.7c-0.4,0.9-2,1.6-2.2,1c-1.2-4-6.1,1.1-7-3c-0.4-2,3.1-8.5,4.9-9.2
					C263.3,302.7,267.5,306.2,267.5,309z"/>
				<path d="M364.7,156.5c-5.2-2.5-7-6.6-5-11.5c0.5-1.2-0.5-1.7-1-2.3c-2.1-2.8-4.3-5.4-6.4-8.2c-0.9-1.2-2.2-2.4-1.8-5.5
					c6,6.1,11.1,11.8,15,18.6c-2.3,1-3-1.2-4.6-1.2C360.5,150.3,365,152.5,364.7,156.5z"/>
				<path d="M138.5,197.7c-6.2-4.7-5.4-11.1-4.5-17.5c0.7-5.2,2.9-9.6,8-12C135.5,177.4,134.5,187.1,138.5,197.7z"/>
				<path d="M236.8,350.5c-0.3-0.1-0.8-0.2-1-0.4c-0.4-0.6-0.2-1.4,0.4-1.8c5.8-4.3,7.6-11,10.7-17c0.6-1.1,1.2-2.1,2-3
					c0.4-0.5,1-1,1.7-0.6c0.6,0.4,0.8,1.1,0.5,1.7c-2.8,6.7-4.9,13.8-10.4,19.1C239.6,349.6,238.2,350.3,236.8,350.5z"/>
				<path d="M368.6,145.1c-3.4-1-4.6-3.4-6.1-5.4c-3.2-4.3-6.3-8.6-10.9-11.4c-0.8-0.4-1.9-1-1.2-2.1s1.8-0.9,2.8-0.5
					c3.8,1.4,6.4,4.3,8.7,7.3C364.6,136.6,367.8,139.9,368.6,145.1z"/>
				<path d="M273.3,250.7c-0.1,0.5-0.2,1-0.2,1.6c0,1.4,1.8,3.6-0.5,4.1c-2.2,0.5-2.4-2.1-2.7-3.7c-0.3-1.9-1-4.2,1.1-5.5
					s3.9,0.1,5.5,1.2c3.8,2.5,4.7,6.9,6.6,10.7c0.3,0.6,0.1,1.4-0.5,1.7c-0.7,0.4-1.3,0-1.8-0.4c-1.2-1-1.6-2.4-2.3-3.7
					C277.3,254.3,276,252,273.3,250.7z"/>
				<path d="M148.8,206.9c-0.6,1.5-1.2,3.4-1.9,5.3c-0.9,2.4-0.8,4.2,2.4,4.4c0.5,0,1.1,0.2,1.6,0.3c0.9,0.3,2.5,0.2,2.3,1.6
					s-1.6,1.3-2.6,1.4c-6,0.6-8.8-3-6.7-8.6c1.2-3.2,2.6-6.2-0.6-9.1c-0.5-0.4-0.6-1.2-0.2-1.7c0,0,0.1-0.1,0.1-0.1
					c0.5-0.5,1.3-0.6,1.8-0.1C147.5,201.6,148.5,203.8,148.8,206.9z"/>
				<path d="M202.5,272c-6.6,7.8-10.4,16.9-12.9,27.5C186.6,291.1,194.3,275.3,202.5,272z"/>
				<path d="M201.5,315.4c-2-3.7-1.4-7.7-1-11.6c0.7-5.9,2.9-11.4,6.5-16.1c0.6-0.7,1.3-1.6,2.3-1.1s0.5,1.4,0,2.1
					c-5.5,7.4-6.8,16-6.8,25C202.5,314.3,202.5,315,201.5,315.4z"/>
				<path d="M251,308.8c0.6-1.2,0.9-2.3-0.7-3.6c-1.1-0.9,2.6-7.3,4-7.4c1.3-0.1,4.3,4.9,3.6,6.3c-1,2.1-2.2,4.2-3.3,6.3
					c-0.5,1-1.2,1.9-2.4,1.5S250.7,310.2,251,308.8z"/>
				<path d="M301.2,299c0.5,0.5,1,1,1.4,1.5c3,3.9,5.1,8.4,6.1,13.2c0.4,2.1,0.4,4.2,2.3,5.7c0.5,0.3,0.7,1,0.4,1.6
					c0,0.1-0.1,0.1-0.1,0.2c-0.6,0.6-1.5,0.7-2.2,0.2c-1.8-0.7-3-2.4-3.2-4.3c-0.3-5.5-2.8-10.1-5.3-14.8c-0.5-0.8-0.6-1.8-0.4-2.7
					C300.3,299.4,300.8,299.3,301.2,299z"/>
				<path d="M218,327.6c-1-3,0.3-5.5,1.4-7.9c2.5-5.2,6-9.8,10.3-13.6c1-0.9,2.4-2,3.5-0.8c1.3,1.4-0.6,2.2-1.4,3.1
					c-5.2,5.2-10.3,10.5-12.3,17.9c-0.1,0.4-0.3,0.7-0.6,1C218.7,327.4,218.4,327.5,218,327.6z"/>
				<path d="M351.7,101.4c-0.4-2.8,1.1-4.6,2.3-6.4c3.4-4.9,7.5-9.3,12.1-13.1c1-0.8,2.3-2.2,3.4-1c1.4,1.6-0.8,2.1-1.6,2.8
					c-5,4.2-9.3,9.1-12.9,14.5C354.2,99.4,353.6,100.8,351.7,101.4z"/>
				<path d="M243.2,280.8c-0.6,0.1-1.2,0-1.3-0.5c-0.1-0.5,0.1-1,0.4-1.4c5.4-3.6,10.1-8.1,15.1-12.2c0.4-0.3,1-0.3,1.4-0.1
					c0.6,0.3,0.4,0.9,0.2,1.4C258.3,270.3,245.6,280.6,243.2,280.8z"/>
				<path d="M289.1,282.2c-2.2-1.2-1.4-3.2-2.4-4.4c-1.3,0.8-0.5,2.7-1.8,3.4c-2.4-3.6,0.5-10.8,4.7-11.7c1.1-0.2,1.5,0.4,1.4,1.3
					C290.5,274.5,289.8,278.2,289.1,282.2z"/>
				<path d="M169.7,197.2c-1.2,0.1-1.8,0-1.9-0.9c-0.5-3.3,5.2-11.6,8.5-12.4c0.5-0.1,1-0.1,1.4,0.2c0.5,0.4,0.6,1.1,0.2,1.6
					c0,0.1-0.1,0.1-0.1,0.1c-0.9,1.1-2,2.1-3,3.2s-2.2,1.4-1.4,3.7S171.1,196.2,169.7,197.2z"/>
				<path d="M181.8,282.2c1.5-7.4,4.5-14.4,8.9-20.6c0.5-0.7,1.3-1.6,2.3-0.8c0.7,0.5,0.2,1.2-0.1,1.8c-3.7,6-6.5,12.4-9.6,18.7
					C183.1,281.6,182.6,281.7,181.8,282.2z"/>
				<path d="M273,311.9c-0.2,1.1-0.5,2.9-0.9,4.5c-0.2,0.9-1.1,1.6-2.1,1.5c-1,0-1.8-0.7-2-1.6c-0.7-2.7-0.5-5.6,0.6-8.2
					c0.3-1.1,1.4-1.8,2.5-1.5c0.1,0,0.3,0.1,0.4,0.1C273.6,307.7,273,309.6,273,311.9z"/>
				<path d="M300.4,317.3c0.2-1.3,0-3,1.4-3.1c1.6-0.2,1.5,1.5,1.6,2.6c0.4,3.7,2,7.2,4.6,9.9c0.6,0.6,1.6,1.4,0.8,2.3
					s-1.8,0.2-2.5-0.3C302,326,300.9,321.7,300.4,317.3z"/>
				<path d="M154.7,137.2c-3.7,1.2-5.9,4.8-9.8,5.5c5.8-5.4,11.2-11.3,20-14.6c-3.3,4.4-8,5.6-10.4,9.3L154.7,137.2z"/>
				<path d="M299.9,65.1c-1.2-8.8,5.7-17.9,13.5-17C305,51.3,301.9,57.8,299.9,65.1z"/>
				<path d="M351.5,119.4c2.2-0.2,4.4-0.5,6.6-0.6c1.6-0.1,3.2,0.6,4.2,1.9c0.4,0.5,0.9,1.2,0.4,1.8c-0.4,0.3-0.9,0.4-1.4,0.3
					c-3.1-1.3-6.6-1.1-9.6,0.5c-0.7,0.4-1.7,0.5-2.1-0.4c-0.9-1.9,1.4-2.2,2-3.5L351.5,119.4z"/>
				<path d="M163.9,210.9c-1.3,0-1.2-0.9-0.9-1.7c1.4-3.6,3.3-6.9,5.8-9.9c0.4-0.6,1.2-0.7,1.8-0.4c0.6,0.3,0.9,0.9,0.6,1.5
					c0,0,0,0.1-0.1,0.1c-1.8,3.5-3.9,6.9-6.4,9.9C164.5,210.7,164.2,210.8,163.9,210.9z"/>
				<path d="M279.3,314c-0.2,1.8,0.6,4.4-1.7,4.4c-2.9-0.1-2.9-3-3-5.2c-0.1-1.8-0.3-4.4,2.3-4.1C279.8,309.3,278.9,312.3,279.3,314
					z"/>
				<path d="M223.3,309.3c0.6-4.7,3-9.1,6.7-12.1c0.6-0.5,1.6-1.3,2.5-0.3c0.5,0.6,0,1.2-0.4,1.8L223.3,309.3z"/>
				<path d="M295.3,280.8c-0.5,1.5,1.5,4.7-0.8,4.9c-2,0.2-2.1-3.2-2.3-5.3c-0.1-1.7,0-3.4,0.1-5.1c0-0.8,0.7-1.5,1.5-1.5
					c0,0,0,0,0,0c1,0,1.3,0.8,1.4,1.6C295.4,277.1,295.3,278.9,295.3,280.8z"/>
				<path d="M140.6,145.7c0.3-5.3,4.2-10.2,10.2-12.9L140.6,145.7z"/>
				<path d="M270.8,277.1c-1.3,0-1.4-0.5-1.4-1.3c0-2.1,4.2-6.8,6.3-7.1c0.9-0.1,2,0.4,1.6,1C275.3,272.4,272.9,274.8,270.8,277.1z"
					/>
				<path d="M276.9,277c0.6-3.1,2-5.9,4-8.3c0.4-0.5,1-1,1.7-0.5s0.3,1.2,0.1,1.8c-1.1,2.5-2.2,5.1-3.3,7.6
					c-0.3,0.7-0.6,1.7-1.5,1.5C276.4,278.8,277.3,277.5,276.9,277z"/>
				<path d="M172.4,182.1c-1-0.1-2.4,0.2-2.7-1c-0.4-1.5,1.2-1.3,2.1-1.6c1.9-0.7,3.7-1.4,5.6-2.1c0.8-0.3,1.6-0.4,2.1,0.5
					s-0.1,1.6-0.7,2.1C176.9,181.3,174.7,182.1,172.4,182.1z"/>
				<path d="M245.7,301c-1.2,0.1-1.8-0.3-1.5-1.3c0.1-0.5,0.4-1,0.8-1.3c1.7-1.4,3.1-3.3,5.6-3.2c0.4,0,0.7,0.4,0.7,0.9
					c0,0.1-0.1,0.2-0.1,0.3C249.8,298.4,247.6,299.7,245.7,301z"/>
				<path d="M321.9,307.2c-1.7-0.4-3.3-0.9-3.6-3c-0.1-0.7,0.4-1.5,1.1-1.3c1.6,0.6,3.7,0.9,4.4,2.7
					C324.1,306.6,322.8,307,321.9,307.2z"/>
				<path d="M327.9,298c-0.6,1.6-1.9,1.7-3.2,1.6c-1.1,0-2.7-0.2-2.5-1.8s1.7-1.3,2.9-1.3S327.5,296.5,327.9,298z"/>
				<path d="M302.4,259.8c-0.1,0.4-0.2,0.7-0.3,1.1c-1.4,1.6-3,2.8-5.2,2.7c-0.2-0.3-0.3-0.6-0.2-1
					C297.8,260.5,299.8,260,302.4,259.8z"/>
				<path d="M318.6,309c1,0.3,2.7-0.6,2.7,1.2c0,1.4-1.4,1.8-2.6,1.8s-2.6-0.3-2.7-1.6C315.9,308.5,317.6,309.3,318.6,309z"/>
				<path d="M283.9,313c-0.1,0.9-0.6,1.6-1.5,1.3c-1.4-0.5-2.2-1.9-2.1-3.4c0-1,0.5-1.8,1.7-1.5C282.9,309.7,284,311.9,283.9,313z"
					/>
				<path d="M259.2,194c1.9,0.4,3.9-0.2,5.5,0.9c1.1,0.7,2,1.5,1.6,2.9s-1.7,1.1-2.7,0.7c-3.9-1.3-7.9-0.3-11.9-0.7
					c-4.6-0.5-8.9-1.5-12.7-4.1c-0.8-0.5-1.6-1.1-1.4-2.2s1.1-1,1.9-1.1c2.7-0.6,1.8-2.6,1.2-3.9c-0.8-1.6-0.8-2.6,1-2.9
					c8.4-1.4,16.4-1.1,23.4,4.7c0.7,0.6,1.3,1.3,1.9,2.1c0.6,1,1.7,2.2,0.4,3.2c-1,0.8-2.1-0.2-2.7-1
					C261.8,188.9,260.6,191.1,259.2,194z M248.9,186.5c-1.4,0.4-3.9-1.3-4.6,1.1c-0.5,1.8-0.8,4.3,1.4,5.7c3.2,2,9.8,0.4,11.8-2.8
					c0.9-1.4,0.9-2.4-1-2.9C254.1,186.8,251.5,186.5,248.9,186.5L248.9,186.5z"/>
				<path d="M255.8,189.9c-2.8,1.7-5.2,3.1-7.8,0.7c-0.8-0.5-1.1-1.6-0.7-2.5c0.6-1.1,1.7-0.8,2.4-0.1
					C251.3,189.6,253.6,188.1,255.8,189.9z"/>
				<path d="M430,5v675.7H40V5H430 M435,0H35v685.7h400V0z"/>
			</g>
		</g>
		
			<rect x="194.3" y="301.6" transform="matrix(4.344498e-02 -0.9991 0.9991 4.344498e-02 -307.1327 744.0859)" width="81.4" height="461.7"/>
		<path class="st0" d="M8.6,484.4l456.2,19.8l-3.3,76.3L5.2,560.7L8.6,484.4 M3.7,479.1L0,565.5l466.3,20.3l3.8-86.4L3.7,479.1
			L3.7,479.1z"/>
		<path class="st0" d="M432.9,571.6c-0.5-3.8,0-13.6,0.2-18.7c0.3-7.7-1.2-10.6-4.4-12.3l0.1-0.1c0.5-0.4,1-0.8,1.4-1.3
			c2.3-1.6,4.3-4.8,4.5-11.4l0.1-2.6c0.5-10.3-4.2-14.4-13.4-14.8l-11.5-0.5l-2.8,2.6l-2.6,60.7l7.5,0.3l2.8-2.6l1.1-25.2h0.5
			c5.8,0.3,6.8,2.3,6.4,10c-0.2,4.3-0.8,14.4-0.2,18.2l7.3,0.3C430,573.8,432.9,571.6,432.9,571.6z M417.2,519.2h0.5
			c5.8,0.3,7,3.5,6.7,8.7l-0.1,2.5c0,2.1-0.4,4.1-1.2,6c-1.1,0.4-2.3,0.5-3.5,0.4l-3.3-0.1L417.2,519.2z"/>
		<polygon class="st0" points="44.3,528.6 55.1,529 57.9,526.5 58.2,519.5 44.7,518.9 45.4,503.7 56.9,504.2 59.7,501.6 60,494.6 
			38.3,493.6 35.4,496.2 32.8,556.9 54.7,557.8 57.6,555.2 58.9,548.4 43.4,547.7 		"/>
		<path class="st0" d="M89.7,495.9L79,495.4l-2.8,2.6l-12.5,60.2l7.6,0.3l2.8-2.6l2.9-15.4l7.6,0.3l2.1,18.3l7.9,0.3l2.8-2.6
			L89.7,495.9z M82,514.3c0.4,4.8,1,10.5,1.7,16.9l-4.9-0.2C79.8,525.7,81,519.6,82,514.3z"/>
		<path class="st0" d="M122.4,522.1c-5.3-4.3-6.2-6.5-6-11.6c0-1.7,0.3-3.3,0.9-4.9c0.4-0.1,0.9-0.1,1.3-0.1
			c3.8,0.2,4.5,3.2,4.3,7.9l-0.1,2.8l7.5,0.3l2.8-2.6l0.1-3c0.3-7.3-1.5-14.1-11.4-14.6c-4.4-0.2-7.4,1.2-9.4,3.4
			c-0.5,0.4-1,0.8-1.4,1.3c-3.6,2.7-4.8,7.7-5,12.7c-0.4,9,2.8,12.3,9.1,17.6s7.6,7.9,7.3,14.7c0,2-0.4,4-1.2,5.8
			c-0.6,0.2-1.3,0.3-1.9,0.3c-4-0.2-5.6-3.1-5.4-8.4l0.2-3.6l-7.5-0.3l-2.8,2.6l-0.2,3.5c-0.3,8,2.1,14.8,12.4,15.2
			c4.7,0.2,7.9-1.2,10.1-3.6c0.5-0.4,1-0.8,1.4-1.3c3.8-2.9,5.1-8.1,5.3-13.6C133.3,532.8,130.8,529,122.4,522.1z"/>
		<path class="st0" d="M160.6,501.7c-2.1,6.9-4.6,14.9-6.4,21.2c-1.2-6.6-3.3-16.1-5.1-24.4l-8.3-0.4l-2.9,2.6l9.6,37.1
			c0.2,0.6,0.2,1.2,0.2,1.8l-1,22.2l7.5,0.3l2.8-2.6l0.9-21.5c0-0.7,0.1-1.3,0.3-2l13-36.7l-8-0.4
			C162.5,500,161.6,500.9,160.6,501.7z"/>
		<path class="st0" d="M209.1,500.2c-4.5-0.2-8.1,1.1-10.6,3.8c-0.5,0.4-1,0.8-1.4,1.3c-3.2,2.5-5.1,6.8-5.4,13.1l-1.3,29.9
			c-0.5,10.4,3.1,16.5,12.7,16.9c4.8,0.2,8.4-1,10.9-3.8c0.5-0.4,1-0.8,1.4-1.3c3.3-2.5,5-6.9,5.3-13.3L222,517
			C222.5,506.6,218.2,500.6,209.1,500.2z M200.9,546.7l1.4-31.1c0-1.9,0.4-3.9,1.2-5.6c0.8-0.3,1.6-0.4,2.4-0.3c4.2,0.2,6,3.2,5.7,9
			l-1.3,30.9c0,2-0.4,4-1.2,5.8c-0.8,0.2-1.6,0.3-2.4,0.3C202.8,555.6,200.7,552.9,200.9,546.7z"/>
		<path class="st0" d="M246.9,548.5l-0.1,2.9c0,2-0.3,4-1,5.9c-0.5,0.1-1.1,0.2-1.6,0.2c-4.2-0.2-5.1-3.9-4.9-9.2l1.4-31.7
			c0-1.7,0.3-3.4,0.9-5c0.6-0.2,1.2-0.2,1.7-0.2c4.2,0.2,4.9,3.6,4.7,8.1l-0.1,3.2l7.6,0.3l2.8-2.6l0.1-2.5
			c0.4-8.1-1.3-15.5-11.9-16c-4.4-0.2-7.6,1.1-9.9,3.6c-0.5,0.4-1,0.8-1.4,1.3c-3.1,2.4-4.8,6.7-5.1,12.4l-1.3,30.8
			c-0.4,9,1.3,16.4,12.1,16.9c4.9,0.2,8-1.2,10-3.5c0.5-0.4,1-0.8,1.4-1.3c4-3,4.9-8.6,5.1-13.6l0.1-2.2l-7.7-0.3L246.9,548.5z"/>
		<polygon class="st0" points="263.8,506.2 263.5,513.2 273.3,513.6 270.9,567.2 278.5,567.6 281.3,565 283.5,514 290.5,514.3 
			293.4,511.7 293.7,504.8 266.6,503.6 		"/>
		<path class="st0" d="M315,504.8c-4.5-0.2-8.1,1.1-10.6,3.8c-0.5,0.4-1,0.8-1.4,1.3c-3.2,2.5-5.1,6.8-5.4,13.1l-1.3,29.9
			c-0.5,10.5,3.1,16.5,12.7,16.9c4.8,0.2,8.5-1,10.9-3.8c0.5-0.4,1-0.8,1.4-1.3c3.3-2.5,5-6.9,5.3-13.3l1.3-29.7
			C328.4,511.3,324.1,505.2,315,504.8z M306.8,551.3l1.4-31.1c0-1.9,0.4-3.8,1.2-5.6c0.8-0.2,1.6-0.4,2.4-0.3c4.2,0.2,6,3.2,5.7,9
			l-1.3,30.9c0,2-0.4,4-1.2,5.8c-0.8,0.2-1.6,0.4-2.4,0.3C308.6,560.2,306.5,557.5,306.8,551.3L306.8,551.3z"/>
		<path class="st0" d="M359.1,536.1c0.5-0.4,1-0.8,1.4-1.3c2.1-1.5,3.9-4.4,4.2-11l0.1-2.5c0.4-8.5-3.1-13.6-13-14l-11.3-0.5
			l-2.8,2.6l-2.6,60.6l11.7,0.5c5.3,0.2,9-1,11.4-3.7c0.5-0.4,1-0.8,1.4-1.3c3.2-2.4,4.7-6.7,5-12.8l0.2-4.5
			C365.2,540.4,362,537.4,359.1,536.1z M345.5,561.5l0.9-20.2h0.6c5.9,0.3,7.8,3.1,7.5,9.4l-0.2,4.1c0,2.1-0.4,4.3-1.2,6.3
			c-1.3,0.4-2.6,0.6-4,0.5L345.5,561.5z M347.5,516.1h0.8c4.9,0.2,6.8,2.7,6.5,8l-0.1,2.6c0,1.8-0.3,3.7-1,5.4
			c-1.2,0.3-2.4,0.4-3.6,0.3l-3.4-0.2L347.5,516.1z"/>
		<polygon class="st0" points="383.6,543.3 394.4,543.8 397.3,541.2 397.5,534.3 384,533.7 384.7,518.4 396.3,518.9 399.1,516.3 
			399.4,509.4 377.6,508.4 374.8,511 372.1,571.6 394.1,572.6 396.9,570 398.2,563.1 382.8,562.5 		"/>
		<path class="st0" d="M435.2,569.5c-0.5-3.8,0-13.6,0.2-18.7c0.3-7.7-1.2-10.6-4.4-12.3l0.1-0.1c0.5-0.4,1-0.8,1.4-1.3
			c2.3-1.6,4.3-4.8,4.5-11.4l0.1-2.6c0.5-10.3-4.2-14.4-13.4-14.8l-11.5-0.5l-2.8,2.6l-2.6,60.6l7.5,0.3l2.8-2.6l1.1-25.2h0.5
			c5.8,0.3,6.8,2.3,6.4,10c-0.2,4.3-0.8,14.4-0.1,18.2l7.3,0.3C432.3,571.7,435.2,569.5,435.2,569.5z M419.5,517.1h0.6
			c5.8,0.3,7,3.5,6.7,8.7l-0.1,2.5c0,2.1-0.4,4.1-1.2,6c-1.1,0.4-2.3,0.5-3.5,0.4l-3.3-0.1L419.5,517.1z"/>
		<polygon class="st0" points="46.5,526.5 57.3,527 60.1,524.4 60.4,517.5 46.9,516.9 47.6,501.6 59.1,502.1 62,499.5 62.3,492.5 
			40.5,491.6 37.7,494.2 35,554.8 57,555.8 59.8,553.2 61.1,546.3 45.7,545.6 		"/>
		<path class="st0" d="M91.9,493.8l-10.7-0.5l-2.8,2.6l-12.5,60.2l7.6,0.3l2.8-2.6l2.9-15.4l7.6,0.3l2.1,18.3l7.9,0.3l2.8-2.6
			L91.9,493.8z M84.2,512.2c0.4,4.8,1,10.5,1.7,16.9L81,529C82,523.7,83.2,517.5,84.2,512.2L84.2,512.2z"/>
		<path class="st0" d="M124.6,520c-5.3-4.3-6.2-6.5-6-11.6c0-1.7,0.3-3.3,0.9-4.8c0.4-0.1,0.9-0.1,1.3-0.1c3.8,0.2,4.5,3.2,4.3,7.9
			l-0.1,2.8l7.5,0.3l2.8-2.6l0.1-3c0.3-7.3-1.5-14.1-11.4-14.6c-4.5-0.2-7.5,1.2-9.4,3.4c-0.5,0.4-1,0.8-1.4,1.3
			c-3.6,2.7-4.8,7.7-5,12.7c-0.4,9,2.8,12.3,9.1,17.6s7.6,7.9,7.3,14.7c0,2-0.4,4-1.2,5.9c-0.6,0.2-1.3,0.3-1.9,0.3
			c-4-0.2-5.6-3.1-5.4-8.4l0.2-3.6l-7.5-0.3l-2.8,2.6l-0.2,3.5c-0.3,8,2.1,14.8,12.4,15.2c4.7,0.2,7.9-1.2,10.1-3.6
			c0.5-0.4,1-0.8,1.4-1.3c3.8-2.9,5.1-8.1,5.3-13.6C135.6,530.7,133,526.9,124.6,520z"/>
		<path class="st0" d="M162.9,499.6c-2.1,6.9-4.6,14.9-6.4,21.2c-1.2-6.6-3.3-16.1-5.1-24.4l-8.3-0.4l-2.8,2.6l9.6,37.1
			c0.2,0.6,0.2,1.2,0.2,1.8l-1,22.2l7.5,0.3l2.8-2.6l0.9-21.5c0-0.7,0.1-1.3,0.3-2l13-36.7l-8-0.4
			C164.8,498,163.9,498.8,162.9,499.6z"/>
		<path class="st0" d="M211.4,498.2c-4.5-0.2-8.1,1.1-10.6,3.8c-0.5,0.4-1,0.8-1.4,1.3c-3.2,2.5-5.1,6.8-5.4,13.1l-1.3,29.9
			c-0.4,10.4,3.1,16.5,12.7,16.9c4.8,0.2,8.4-1,10.9-3.8c0.5-0.4,1-0.8,1.4-1.3c3.3-2.5,5-6.9,5.3-13.3l1.3-29.7
			C224.7,504.6,220.4,498.6,211.4,498.2z M203.2,544.7l1.4-31.1c0-1.9,0.4-3.8,1.2-5.6c0.8-0.3,1.6-0.4,2.4-0.3c4.2,0.2,6,3.2,5.7,9
			l-1.4,30.9c0,2-0.4,4-1.2,5.8c-0.8,0.2-1.6,0.3-2.4,0.3C205,553.5,202.9,550.8,203.2,544.7z"/>
		<path class="st0" d="M249.1,546.4l-0.1,2.9c0,2-0.3,4-1,5.9c-0.5,0.1-1.1,0.2-1.6,0.2c-4.2-0.2-5.1-3.9-4.9-9.2l1.4-31.7
			c0-1.7,0.3-3.4,0.9-5c0.6-0.2,1.2-0.2,1.8-0.2c4.2,0.2,4.9,3.6,4.7,8.1l-0.1,3.2l7.6,0.3l2.8-2.6l0.1-2.5
			c0.4-8.1-1.3-15.5-11.9-16c-4.4-0.2-7.6,1.1-9.9,3.6c-0.5,0.4-1,0.8-1.4,1.3c-3.1,2.4-4.8,6.7-5.1,12.4l-1.3,30.8
			c-0.4,9,1.3,16.4,12.1,16.9c4.9,0.2,8-1.2,10-3.5c0.5-0.4,1-0.8,1.4-1.3c4-3,4.9-8.6,5.1-13.6l0.1-2.2l-7.6-0.3L249.1,546.4z"/>
		<polygon class="st0" points="266,504.1 265.7,511.1 275.5,511.5 273.2,565.2 280.7,565.5 283.5,562.9 285.7,512 292.8,512.3 
			295.6,509.7 295.9,502.7 268.8,501.5 		"/>
		<path class="st0" d="M317.3,502.8c-4.5-0.2-8.1,1.1-10.6,3.8c-0.5,0.4-1,0.8-1.4,1.3c-3.2,2.5-5.1,6.8-5.4,13.1l-1.3,29.9
			c-0.5,10.5,3.1,16.5,12.7,16.9c4.8,0.2,8.4-1,10.9-3.8c0.5-0.4,1-0.8,1.4-1.3c3.3-2.5,5-6.9,5.3-13.3l1.3-29.7
			C330.6,509.2,326.3,503.2,317.3,502.8z M309,549.3l1.4-31.1c0-1.9,0.4-3.9,1.2-5.6c0.8-0.2,1.6-0.4,2.4-0.3c4.2,0.2,6,3.2,5.7,9
			l-1.3,30.9c0,2-0.4,4-1.2,5.8c-0.8,0.2-1.6,0.4-2.4,0.3C310.9,558.1,308.8,555.4,309,549.3z"/>
		<path class="st0" d="M361.4,534c0.5-0.4,0.9-0.8,1.3-1.3c2.1-1.5,3.9-4.4,4.2-11l0.1-2.5c0.4-8.5-3.1-13.6-13-14l-11.3-0.5
			l-2.8,2.6l-2.6,60.6l11.7,0.5c5.3,0.2,9-1,11.4-3.7c0.5-0.4,1-0.8,1.4-1.3c3.2-2.4,4.7-6.7,5-12.8l0.2-4.5
			C367.4,538.4,364.3,535.4,361.4,534z M347.8,559.5l0.9-20.2h0.6c5.9,0.3,7.8,3.1,7.5,9.4l-0.2,4.1c0,2.1-0.4,4.3-1.2,6.3
			c-1.3,0.4-2.6,0.6-4,0.5L347.8,559.5z M349.8,514.1h0.8c4.9,0.2,6.8,2.7,6.5,8l-0.1,2.6c0,1.8-0.3,3.7-1,5.4
			c-1.2,0.3-2.4,0.4-3.5,0.3l-3.4-0.2L349.8,514.1z"/>
		<polygon class="st0" points="385.9,541.3 396.6,541.8 399.5,539.2 399.8,532.2 386.3,531.7 387,516.4 398.5,516.9 401.3,514.3 
			401.6,507.3 379.8,506.4 377,509 374.4,569.6 396.3,570.5 399.1,568 400.5,561.1 385,560.4 		"/>
		<polygon points="38.5,551.6 41.1,492.3 61.5,493.2 61.3,498.8 47,498.2 46.2,517.5 59.7,518.1 59.4,523.7 45.9,523.1 44.9,546.3 
			60.2,547 59.2,552.5 		"/>
		<path class="st0" d="M60.8,493.8l-0.2,4.3l-12.9-0.6l-1.4-0.1l-0.1,1.4l-0.8,18l-0.1,1.4l1.4,0.1l12.1,0.5l-0.2,4.2l-12.2-0.5
			l-1.3-0.1l-0.1,1.3l-1,21.8l-0.1,1.4l1.4,0.1l13.8,0.6l-0.8,4.2l-19.4-0.8l2.5-57.9L60.8,493.8 M62.2,492.5l-21.8-1l-2.6,60.6
			l22,1l1.3-6.9l-15.4-0.7l1-21.8l13.5,0.6l0.3-6.9l-13.5-0.6l0.8-18l14.3,0.6L62.2,492.5L62.2,492.5z"/>
		<path d="M92.3,553.9l-2.1-18.3l-11.1-0.5l-3.4,18.1l-6.3-0.3l12.2-58.9l9.5,0.4l7.5,59.7L92.3,553.9z M85.3,500.6
			c-0.4,3.9-2.3,14-3.9,22.8l-1.2,6.3l9.5,0.4l-0.1-0.8c-1.5-14.4-2.4-23.2-2.6-28.6V500l-1.6-0.1L85.3,500.6z"/>
		<path class="st0" d="M90.7,495.1l7.3,58.3l-5.1-0.2L91,536.1l-0.2-1.1l-1.2,0l-9.9-0.4l-1.2,0l-0.2,1.2l-3.2,16.9l-4.9-0.2
			l12-57.5L90.7,495.1 M79.4,530.2l1.6,0.1l8,0.3l1.6,0.1l-0.2-1.6c-1.5-14.4-2.4-23.2-2.7-28.6l-0.1-1.2l-1.2,0h-0.3l-1.3-0.1
			l-0.1,1.3c-0.4,3.9-2.3,13.9-3.9,22.7c-0.4,1.9-0.7,3.7-1,5.5L79.4,530.2 M92,493.8l-10.7-0.5l-12.6,60.2l7.6,0.3l3.4-18.1
			l9.9,0.4l2.1,18.3l7.9,0.3l-7.7-61.1L92,493.8z M81,529c1.9-10.2,4.6-23.5,5-28.3h0.3c0.3,6.2,1.4,16.3,2.7,28.7L81,529z"/>
		<path d="M121.1,556c-8.5-0.4-12.2-5-11.8-14.5l0.1-2.8l6.2,0.3l-0.1,2.9c-0.3,5.8,1.8,8.9,6,9.1c5.6,0.2,6.4-5.2,6.6-9.3
			c0.3-7-1-9.7-7.6-15.3c-6.1-5.2-9.3-8.4-8.9-17.1c0.4-9.9,4.4-14.5,12.3-14.2s11.2,4.8,10.8,13.9l-0.1,2.3l-6.1-0.3l0.1-2.1
			c0.2-4.1-0.3-8.4-5-8.6s-5.6,4.6-5.8,8.2c-0.2,5.6,0.9,7.8,6.2,12.2c8.2,6.7,10.7,10.4,10.2,20.2C134,551.4,129.6,556.4,121.1,556
			z"/>
		<path class="st0" d="M124,494.3v1.4c7.3,0.4,10.4,4.4,10.1,13.2l-0.1,1.6l-4.8-0.2l0.1-1.4c0.1-2.7,0.4-9.1-5.6-9.4
			s-6.4,6.6-6.5,8.9c-0.3,5.8,1,8.3,6.5,12.7c8.1,6.7,10.4,10,10,19.7c-0.4,10.3-4.4,14.9-12.6,14.6s-11.5-4.7-11.1-13.8l0.1-2.2
			l4.8,0.2l-0.1,2.2c-0.3,7.8,3.4,9.7,6.7,9.8c6.9,0.3,7.2-7.4,7.3-10c0.3-7.6-1.6-10.5-7.8-15.8s-9-8.1-8.7-16.5
			c0.4-9.6,4.1-13.9,11.6-13.6L124,494.3 M124,494.3c-10-0.4-12.7,7.1-13,14.9c-0.4,8.9,2.8,12.2,9.1,17.6s7.6,7.9,7.3,14.8
			c-0.3,5.6-1.8,8.8-5.9,8.7s-5.6-3.1-5.4-8.4l0.2-3.6l-7.5-0.3l-0.2,3.5c-0.3,8,2.1,14.8,12.4,15.3c10.6,0.5,13.6-7.3,14-15.9
			c0.4-10.1-2.1-13.9-10.5-20.8c-5.3-4.3-6.2-6.5-6-11.6c0.2-4.5,1.3-7.7,5-7.6s4.5,3.2,4.3,7.9l-0.1,2.8l7.5,0.3l0.1-3
			C135.7,501.6,133.8,494.7,124,494.3L124,494.3z"/>
		<path d="M152.6,556.5l0.9-21.5c0-0.7,0-1.4-0.2-2l-9.4-36.2l6.9,0.3l0.2,0.7c2.3,10.4,4.9,22.2,5.6,28l0.1,0.6l1.1,0l0.2-0.5
			c1.1-4.8,3.6-13.1,6.1-21.1c0.7-2.4,1.4-4.7,2.1-7l6.5,0.3L160,533.9c-0.2,0.7-0.3,1.4-0.3,2.2l-0.9,20.8L152.6,556.5z"/>
		<path class="st0" d="M171.7,498.7l-12.4,35v0l0,0c-0.2,0.7-0.3,1.5-0.4,2.3l-0.9,20.1l-4.8-0.2l0.9-20.8c0-0.7,0-1.5-0.3-2.2
			l-9.1-35.4l5.4,0.2l0.1,0.2c2.3,10.4,4.9,22.2,5.5,27.9l0.2,1.2h1.1h0.1h1.1l0.3-1.1c1.1-4.7,3.6-13,6.1-21.1
			c0.7-2.2,1.3-4.4,2-6.5L171.7,498.7 M173.7,497.3l-8-0.4c-3,10.1-6.9,22.3-8.4,28.6h-0.1c-0.7-6-3.5-18.6-5.8-29.2l-8.3-0.4
			l9.6,37.1c0.2,0.6,0.2,1.2,0.2,1.8l-1,22.2l7.5,0.3l0.9-21.5c0-0.7,0.1-1.3,0.3-2L173.7,497.3L173.7,497.3z"/>
		<path d="M208.2,559.8c-8.6-0.4-12.5-5.5-12-16.2l1.3-29.9c0.4-10.1,5.2-15.3,13.9-14.9c10.7,0.5,12.6,9,12.2,16.1l-1.3,29.7
			C221.8,555.4,217.3,560.2,208.2,559.8z M210.9,504.4c-4.5-0.2-6.8,2.8-7.1,9.2l-1.4,31.1c-0.3,6.3,1.9,9.5,6.3,9.7
			s6.9-2.8,7.2-9.4l1.4-30.9C217.5,507.8,215.4,504.6,210.9,504.4z"/>
		<path class="st0" d="M211.3,499.5c8.1,0.4,12,5.5,11.6,15.3l-1.3,29.7c-0.4,10.3-4.7,14.9-13.4,14.5c-8.3-0.4-11.8-5.1-11.4-15.5
			l1.3-29.9C198.4,507,201,499.1,211.3,499.5 M208.7,555c6.6,0.3,7.7-5.6,7.9-10l1.4-30.9c0.4-8.4-3.6-10.3-7-10.5
			c-4.9-0.2-7.5,3.1-7.8,9.8l-1.4,31.1C201.4,553,205.4,554.9,208.7,555 M211.4,498.2c-8.8-0.4-14.1,4.8-14.6,15.5l-1.3,29.9
			c-0.4,10.4,3.1,16.5,12.7,16.9s14.3-4.8,14.8-15.8l1.3-29.7C224.7,504.6,220.4,498.6,211.4,498.2L211.4,498.2z M208.8,553.7
			c-3.8-0.2-5.9-2.8-5.7-9l1.4-31.1c0.3-6.1,2.4-8.7,6.4-8.5c4.2,0.2,6,3.2,5.7,9l-1.4,30.9C214.9,551.5,212.8,553.9,208.8,553.7
			L208.8,553.7z"/>
		<path d="M245.8,561.4c-10.6-0.5-11.8-8-11.4-16.2l1.3-30.8c0.3-6.6,2.8-14.5,12.9-14c10.5,0.5,11.6,8,11.3,15.3l-0.1,1.8l-6.2-0.3
			l0.1-2.5c0.2-4.2-0.3-8.6-5.4-8.8s-6,4.4-6.2,8.4l-1.4,31.7c-0.2,4.1,0.2,9.7,5.6,9.9c5.1,0.2,6-4.3,6.2-9.3l0.1-2.2l6.3,0.3
			l-0.1,1.5C258.4,554.1,256.6,561.9,245.8,561.4z"/>
		<path class="st0" d="M248.5,501.2c8,0.3,11,4.6,10.6,14.6l0,1.1l-4.9-0.2l0.1-1.8c0.1-2.8,0.4-9.2-6-9.5s-6.8,6.5-6.9,9.1
			l-1.4,31.7c-0.1,2.5-0.4,10.3,6.2,10.6c6.5,0.3,6.8-6.6,6.9-9.9l0.1-1.5l4.9,0.2v0.8c-0.3,7.8-2.1,14.9-12.3,14.5
			c-9.5-0.4-11.2-6.5-10.8-15.5l1.3-30.8C236.8,505.3,240.9,500.8,248.5,501.2 M248.6,499.8c-8.7-0.4-13.1,5.1-13.6,14.7l-1.3,30.8
			c-0.4,9,1.3,16.4,12.1,16.9c11.6,0.5,13.3-8.3,13.7-15.8l0.1-2.2l-7.6-0.3l-0.1,2.8c-0.2,5.3-1.3,8.8-5.5,8.6s-5.2-3.9-4.9-9.2
			l1.4-31.7c0.2-4.9,1.5-7.9,5.5-7.8c4.2,0.2,4.9,3.6,4.7,8.1l-0.1,3.2l7.6,0.3l0.1-2.5C260.9,507.7,259.3,500.3,248.6,499.8
			L248.6,499.8z"/>
		<polygon points="276.7,562 279,508.3 269.2,507.9 269.5,502.2 295.2,503.4 294.9,509 285.2,508.5 282.8,562.2 		"/>
		<path class="st0" d="M294.5,504l-0.2,4.3l-8.4-0.4l-1.4-0.1l-0.1,1.4l-2.3,52.3l-4.8-0.2l2.3-52.3l0.1-1.4l-1.4-0.1l-8.4-0.4
			l0.2-4.3L294.5,504 M295.9,502.7l-27.1-1.2l-0.3,7l9.8,0.4l-2.3,53.6l7.5,0.3l2.3-53.7l9.8,0.4L295.9,502.7L295.9,502.7z"/>
		<path d="M314,564.4c-8.7-0.4-12.5-5.5-12-16.2l1.3-29.9c0.4-10.1,5.2-15.3,13.9-14.9c10.7,0.5,12.5,9,12.2,16.1l-1.3,29.7
			C327.6,560,323.2,564.8,314,564.4z M316.8,509c-4.5-0.2-6.8,2.8-7.1,9.2l-1.4,31.1c-0.3,6.3,1.9,9.5,6.3,9.7s6.9-2.8,7.2-9.4
			l1.3-30.9C323.4,512.5,321.3,509.2,316.8,509z"/>
		<path class="st0" d="M317.1,504.1c8.1,0.4,12,5.5,11.6,15.4l-1.3,29.7c-0.5,10.3-4.7,14.9-13.4,14.5c-8.3-0.4-11.8-5.1-11.4-15.5
			l1.3-29.9C304.3,511.7,306.8,503.7,317.1,504.1 M314.6,559.6c6.6,0.3,7.7-5.6,7.9-10l1.3-30.9c0.4-8.4-3.6-10.3-7-10.5
			c-4.9-0.2-7.5,3.1-7.8,9.8l-1.4,31.1C307.3,557.6,311.2,559.5,314.6,559.6 M317.3,502.8c-8.8-0.4-14.1,4.8-14.6,15.6l-1.3,29.9
			c-0.5,10.4,3.1,16.5,12.7,16.9s14.3-4.8,14.8-15.8l1.3-29.7C330.6,509.2,326.3,503.2,317.3,502.8L317.3,502.8z M314.7,558.3
			c-3.8-0.2-5.9-2.8-5.7-9l1.4-31.1c0.3-6.1,2.4-8.7,6.4-8.5c4.2,0.2,6,3.2,5.7,9l-1.3,30.9C320.9,556.1,318.7,558.4,314.7,558.3
			L314.7,558.3z"/>
		<path d="M340.8,564.7l2.6-59.3l10.6,0.5c8.8,0.4,12.7,4.6,12.3,13.3l-0.1,2.5c-0.4,8.5-3.2,10.5-5.7,11.4l-1.8,0.6l1.7,0.7
			c4.2,1.7,6.1,5.5,5.9,11.8l-0.2,4.5c-0.5,10.6-4.7,14.9-14.3,14.5L340.8,564.7z M347,560.1l4.3,0.2c7,0.3,8.5-3.4,8.8-10l0.2-4.1
			c0.3-6.9-2.1-9.9-8.1-10.1l-4-0.2L347,560.1z M348.3,531l4.1,0.2c5.8,0.3,7.8-1.9,8-9l0.1-2.6c0.3-5.8-2-8.5-7.2-8.8l-4.2-0.2
			L348.3,531z"/>
		<path class="st0" d="M354,506.6c8.4,0.4,12,4.3,11.6,12.6l-0.1,2.5c-0.4,8-2.8,10-5.2,10.8l-3.5,1.2l3.5,1.4
			c2.5,1,5.8,3.2,5.4,11.1l-0.2,4.5c-0.4,10.2-4.4,14.2-13.6,13.8l-10.3-0.5l2.5-57.9L354,506.6 M347.6,531.7l1.4,0.1l3.4,0.2
			c7,0.3,8.5-3.3,8.8-9.7l0.1-2.6c0.3-6.2-2.2-9.2-7.8-9.5l-3.5-0.1l-1.4-0.1l-0.1,1.4l-0.8,19L347.6,531.7 M346.3,560.8l1.4,0.1
			l3.6,0.2c7.5,0.3,9.2-3.8,9.5-10.6l0.2-4.1c0.3-7.3-2.3-10.6-8.8-10.8l-3.3-0.2l-1.4,0l-0.1,1.3l-1,22.9L346.3,560.8 M354,505.2
			l-11.3-0.5l-2.6,60.6l11.7,0.5c10.4,0.5,14.5-4.7,15-15.1l0.2-4.5c0.4-8.5-3.3-11.3-6.3-12.5c2.9-1,5.8-3.4,6.2-12l0.1-2.5
			C367.3,510.7,363.8,505.6,354,505.2L354,505.2z M349,530.4l0.8-19l3.5,0.2c4.9,0.2,6.8,2.7,6.5,8.1l-0.1,2.6
			c-0.3,6.7-2,8.6-7.3,8.3L349,530.4L349,530.4z M347.7,559.5l1-22.9l3.3,0.2c5.9,0.3,7.8,3.1,7.5,9.4l-0.2,4.1
			c-0.3,6.8-1.9,9.6-8,9.3L347.7,559.5L347.7,559.5z"/>
		<polygon points="377.9,566.3 380.5,507.1 400.9,508 400.6,513.6 386.4,513 385.5,532.3 399,532.9 398.8,538.5 385.3,537.9 
			384.3,561 399.6,561.7 398.5,567.3 		"/>
		<path class="st0" d="M400.2,508.6l-0.2,4.3l-12.9-0.6l-1.4-0.1l-0.1,1.4l-0.8,18l-0.1,1.4l1.4,0.1l12.1,0.5l-0.2,4.2l-12.1-0.5
			l-1.4-0.1l-0.1,1.4l-1,21.8l-0.1,1.3l1.4,0.1l13.9,0.6l-0.8,4.2l-19.4-0.8l2.5-57.9L400.2,508.6 M401.6,507.3l-21.8-0.9l-2.6,60.6
			l22,1l1.3-6.9l-15.4-0.7l1-21.8l13.5,0.6l0.3-6.9l-13.5-0.6l0.8-18l14.3,0.6L401.6,507.3L401.6,507.3z"/>
		<path d="M428.4,568.5c-0.4-3.5-0.1-11.1,0.2-15.7l0.1-1.8c0.3-7.8-0.6-10.4-7.1-10.7l-3.8-0.2l-1.2,27.8l-6.2-0.3l2.6-59.3
			l10.8,0.5c9.3,0.4,13.1,4.6,12.7,14.1l-0.1,2.6c-0.3,6.6-2.4,10.6-6.3,11.8l-1.7,0.5l1.6,0.7c3.2,1.5,5,3.9,4.7,12l-0.1,1.7
			c-0.2,5.1-0.6,12.5-0.2,16.4L428.4,568.5z M417.9,535.2l4,0.2c6.4,0.3,7.9-3.7,8.2-9.7l0.1-2.5c0.2-4.7-0.5-9.1-7.4-9.4l-4-0.2
			L417.9,535.2z"/>
		<path class="st0" d="M423.7,509.6c9,0.4,12.5,4.3,12.1,13.4l-0.1,2.6c-0.3,6.3-2.2,10.1-5.8,11.2l-3.3,1.1l3.2,1.5
			c3,1.4,4.6,3.6,4.3,11.4l-0.1,1.7c-0.2,4.8-0.5,11.6-0.3,15.7l-4.6-0.2c-0.3-3.7,0-10.9,0.2-15l0.1-1.8c0.3-7.8-0.7-11.1-7.7-11.4
			l-3.2-0.1l-1.4-0.1l-0.1,1.4l-1.2,26.5l-4.8-0.2l2.5-57.9L423.7,509.6 M417.2,535.8l1.4,0.1l3.3,0.1c7.4,0.3,8.7-4.8,8.9-10.3
			l0.1-2.5c0.2-4.8-0.6-9.8-8-10.1l-3.3-0.1l-1.4-0.1l-0.1,1.4l-0.9,20.2L417.2,535.8 M423.8,508.2l-11.5-0.5l-2.6,60.6l7.5,0.3
			l1.2-27.9l3.2,0.1c5.8,0.3,6.8,2.3,6.4,10c-0.2,4.3-0.8,14.4-0.1,18.2l7.3,0.3c-0.5-3.8,0-13.5,0.2-18.7c0.4-8.2-1.4-11-5.1-12.7
			c3-1,6.4-3.8,6.7-12.5l0.1-2.6C437.6,512.7,432.9,508.6,423.8,508.2L423.8,508.2z M418.7,534.5l0.9-20.2l3.3,0.1
			c5.8,0.3,7,3.5,6.7,8.7l-0.1,2.5c-0.3,6.5-2,9.2-7.5,9L418.7,534.5L418.7,534.5z"/>
	</g>
</g>
</svg>
