<?xml version="1.0" encoding="utf-8"?>
<!-- Generator: Adobe Illustrator 22.1.0, SVG Export Plug-In . SVG Version: 6.00 Build 0)  -->
<svg version="1.1" id="Layer_1" xmlns="http://www.w3.org/2000/svg" xmlns:xlink="http://www.w3.org/1999/xlink" x="0px" y="0px"
	 viewBox="0 0 470 686.2" style="enable-background:new 0 0 470 686.2;" xml:space="preserve">
<style type="text/css">
	.st0{fill:#FFFFFF;}
	.st1{clip-path:url(#SVGID_2_);}
</style>
<polyline class="st0" points="430.4,4.3 430.4,681.4 39.6,681.4 39.6,4.3 430.4,4.3 "/>
<g id="Layer_2_1_">
	<g id="Layer_18">
		<g>
			<defs>
				<rect id="SVGID_1_" x="35" width="400" height="685.7"/>
			</defs>
			<clipPath id="SVGID_2_">
				<use xlink:href="#SVGID_1_"  style="overflow:visible;"/>
			</clipPath>
			<g class="st1">
				<path d="M136.1,320.9l7.7,2.8c1.3-2.5,2.8-4.8,4.7-6.8c-5.8-4.1-12.6-5.1-18.9-6.9s-12.6-3.9-20.2-3.9c3-2.5,5.6-2,8.1-1.4
					c7.7,2,15.5,3.6,23,5.9c-6.4-5.1-14.1-6.1-21.9-7c-7.6-0.9-15.1-2.7-22.7-0.6c-0.4-2.3,0.9-2.4,1.8-2.6c4.4-1.2,9-1.4,13.4-0.5
					c7.4,1.7,15.1,1.1,22.4,3.4c-3.4-3-6.9-5.6-11.5-6.4c-7.6-1.3-15.2-2.7-22.9-0.8c-1.9,0.5-3.9,0.7-5.5,2.1
					c-0.7,0.6-1.6,1.1-2.5,0.3c-0.7-0.7-0.8-1.8-0.3-2.6c0.1-0.3,0.2-0.5,0.3-0.7c3.6-4.1,6.5-9,12.7-10.2c4.4-0.9,8.9-1.5,13.4-1.7
					c-6.1-3.4-11.8-2.3-17.6-1.7c-0.1-2.2,1.3-2.7,2.7-2.8c6.3-0.7,12.6-1.1,17.7,3.8c1.3,1.3,3,1,4.5,1c5.2,0.1,10.4,0.7,15.1,3.1
					l2.1,0.1c0.1,0.5,0.4,0.9,0.8,1.1c-0.2,1.7-2.3,0.9-3.2,2.4c9.7,4.8,16.1,14.3,26.8,17.6c-4.4-3.2-8-7.3-12-11
					c-3.5-3.4-7.4-6.4-11.7-9l-0.7-1.1c-0.7-0.2-1.4-0.5-2.1-0.2c0.4-1.8-1.3-2.1-2.3-2.8c-5.3-3.8-11.6-5.3-17.7-7
					c-3.6-1-7.3-1.7-10.9-2.6c-1.5-0.4-3.1-0.6-4.1-2.3c10.2-2.4,19.5,2,29.3,4.5c-8.9-10-17.1-11.7-29.2-6.2
					c-2.2,1-4.1,1.6-6.7,0.6c-3-1.1-6.3-1.6-9.5-1.3c2.4,2.3,6.2,2,7.3,5.3c-1.9,1-3.3,0-4.7-0.6c-4.2-1.7-8.6-2.9-13-3.7
					c-3-0.6-4.2-0.3-7.4,1.9c8.8,2.1,18,1.7,25.6,7.6c-2,1.3-3.3,0.7-4.6-0.4l-0.7,0.1l0.7-0.1c-0.5,1.1-1.4,2.1-2.4,2.8
					c0.2,2,3.3,3.7,0.3,6.3c-3.4-6.9-9-9.9-16.4-10c5.5,2.9,11.9,4.7,15.9,10.8c-2.9,1.1-4-0.5-5.3-1.4c-5.1-3.6-10.5-6.2-16.9-6.6
					c-2.4-0.1-3.8,0.6-4.4,3.5c6.2-1.9,11.7-0.4,17,2.2c1.2,0.5,2.4,1.2,3.4,2c1.3,1.1,4,2.2,2.8,4.1c-1.3,2.1-3-0.3-4.3-1.1
					c-5.8-3.1-12-4.4-18.4-4.8c-1-0.1-2-0.3-2.2,1s1,1.4,1.8,1.6c5.7,1.3,11.3,3,16.7,5.2c1.8,0.8,3.7,1.5,4.5,3.8
					c-1.5,1.9-3.1,1.1-4.6,0.4c-3.8-1.8-8-2.8-12.2-2.9c-5.8,0-9.5,3-11.9,7.8c-1,2-1.6,4.2-1.7,6.5c2.8-3.2,4.5-7.4,8.6-9.9
					c0.4,2.2-1,3.2-1.9,4.2c-3.7,4.3-5.8,9.7-6,15.3c-0.4,4.5-0.5,9-0.3,13.6c1.1,14.4-2.6,27.7-9.3,40.3c-2.2,4.4-4.8,8.7-7.7,12.7
					c-1.1-4-1.1-4.4,0.9-7.8c5.8-9.8,10.4-20.1,12.4-31.4c0.7-4.1,1.1-8.2,1-12.3c-0.1-4.5,0-8.9,0.3-13.8c-2.7,2.5-2.5,5.4-2.3,8.1
					c1,14.1-3.4,26.8-10.2,38.8c-0.5,0.9-1.1,1.8-1.7,2.7c-0.1,0.2-0.4,0.2-0.9,0.5c-0.3-1.9-0.7-3.8,0.5-5.4c5.1-7,4.6-15,3.7-23.5
					c-1.9,2.6-1.8,5.8-4.2,8.4c-0.3-3.1-0.6-5.8,0.1-8.3c2.2-7.5,2-15.3,1.9-23c0-6.1,0-12.1,0-18.1c-1.1-0.2-1.1,0.9-2,0.9
					c-0.2-1.8-0.7-3.8,0.4-5.4c3.9-6.1,4.8-13.2,6.8-19.9c3.5-11.3,11.2-18.7,21.9-23.3c1.7-0.7,3.6-0.8,4.8-2.5
					c0.5,0.2,1.1,0.4,1.5-0.3c-0.5-0.2-1.1,0-1.4,0.4c-1.6-0.1-3.1,0.7-4.9,0.1c0.3-1.9,1.8-2.2,3.1-2.6c6.3-1.9,11.8-5.1,17.4-8.7
					c8.8-5.6,18.8-8.6,28.4-12.5c9.4-3.7,17.8-9.6,24.5-17.2c4.4-5,8.7-10,13-15.1c0.8-1,1.9-1.9,1.5-3.5c0.3,0,0.3,0.2,0.1,0.1
					c-0.5-0.2,0,0.3,0-0.2c-3.6,3-5.5,3.4-9.3,1.5c0-1.3,1.1-1.5,1.9-1.6c4.4-0.3,6.9-3,8.8-6.6c1.6-3,3.3-5.6,2.2-9.6
					c-0.8-3.1,0.9-6.5,2.1-9.6c6.7-16.8,10.8-34.3,15.3-51.6c2.7-10.3,5.1-20.7,8.7-30.7c0.5-1.4,0.7-2.9,0.4-4.3L173,98.6
					c-0.6-2.9,0.4-4.8,1.3-6.5c2.6-5.1,4.4-10.5,6.3-15.9c3.6-9.9,9.9-18.4,15.5-27.3c2.1-3.4,5.7-5.5,9-7.8
					c2.1-1.5,4.3-3.1,6.3-4.8c-4.8,0.3-9.1,3.7-14.1,2.2c-0.6-2,1.6-1.6,2-2.7c-0.7-1.4-2.7-1.3-3.1-3c0.6-1.5,1.8-0.7,2.7-0.4
					c7,2.1,14.5-0.1,19.3-5.6c3.3-3.6,7.5-5,11.6-6c3.9-1,8.2-3,12.4-0.3c0.9,0.5,1.8-0.1,2.6-0.5c5-2.2,9.7-1.2,14,1.8
					c4.5,3.3,9.5,5.9,14.7,8c6.1,2.4,11.1,6.2,14.1,12.3c-4.3-2.7-8.1-6-13.1-7.4c3.7,2.9,7.7,5.4,10.9,8.9c2,2.2,5.1,4,3.9,8
					c-0.3,1,1.2,1.6,1.8,2.5c9,11.9,16.6,24.4,18.4,39.7c0.3,2.9,1.5,5.7,3.6,7.8c7.2,7.6,11.7,16.4,11.7,27.2c0,2.6,1.3,4.2,3,5.8
					c5.6,5.2,12,9.2,18.2,13.7c2.3,1.7,4.9,3.2,5.9,6.4c-4.8-1.4-8.5-4.8-12.6-7.5c-4.5-3-8.7-6.2-12.7-9.8c0.8,3.9,2.8,6.2,4.5,8.5
					c2.6,3.2,4.3,7.1,4.9,11.2c0.2,2,1.5,3.8,3.4,4.5c3.1,1.5,6.4,2.6,9.9,3.2c6.1,0.9,12.2,1.4,18.3,1.4c0.1-3.9-1.9-7.6,0.5-11.5
					c1.7,2.4,1.4,4.9,1.8,7.1c0.9,5,1.3,5.3,6.8,4.4c-1.8-4.2-4.2-8.4-0.9-13.3c1.1,1.3,0.5,2.5,0.5,3.5c-0.1,2.7,0.6,5.3,2.2,7.5
					c1.7,2.1,4.6,2.9,7.2,2c1.5-0.6,1.1-1.9,1.2-3.1c0.2-2.8-0.4-5.8,2.1-8.8c1.1,3.8-0.9,7.4,0.9,10.8c5.9-0.3,10.7-4.2,17-5.6
					c-1.9,3.9-5.4,4.7-8.3,7.1c6.1,1.8,11.8,4.5,17.2,7.9c7.5,5,13.3,11,14.8,20.3c0.5,3.3,1.7,6.5,3.5,9.3c0.6,1,1,2.3,2.6,2.1v4
					c-1.5,0.2-2-1.6-3.5-1.7c-0.3,5,0.9,9.6,2,14.3c0.2,0.8,0.8,0.9,1.5,1v10.4c-1.9-0.5-2.1-2.2-2.6-3.7c-1.1-3.6-2.1-7.3-3.2-10.9
					c-3.6,6.9,1.3,12.8,2.8,19.6c-3.9-1.2-4.2-4.6-6.6-7.1c0.8,6.3,4.5,10.4,7.4,15.7c-4.4-1-5-4.7-7.5-6.3
					c-0.3-2.7-1.4-5.2-2.4-8.4c-3.3,6.3-3.1,12.8-5.4,18.7c-2-5.3-0.4-10.6,0.2-15.9c-3.9,5.8-4.9,12.5-6,19.5
					c-2.1-1.7-1.7-3.5-1.6-5.1c0.3-3.7,1.2-7.3,2.7-10.8c0.6-1.4,1.5-2.9,1-4.6l0.2,0.1c-0.5,0,0.2,0.3-0.1-0.2
					c-2.4,3-4,6.7-7.8,8.3c-1.6,0.6-2.5,1.3-2.5,3c0.2,0.7-0.3,1.4-1,1.6c-0.1,0-0.2,0-0.3,0c-1.1,0.1-1.6-0.3-2.1-1.3
					c-2-4.6-4.7-8.9-6.3-13.8c-0.8-2.5-1.8-4.9-2.7-7.3c-1.7,9.2,1.8,17.7,3,26.5c-3.7-3.1-3.4-7.8-5.6-12.2
					c-3,8.2-4.7,16.3-9.9,23.3c-1.3-2.3,0-3.4,0.6-4.6c3.4-7,5.9-14.3,7.7-21.8c0.7-3,1.2-6.1,0.3-9.2c-0.7,1.3-1.3,2.6-1.7,4
					c-1.8,5.9-4.7,11.4-8.4,16.2c-0.9,1.1-1.7,2.7-4,2.3c1.9-3.7,4.6-6.7,5.7-10.5c-2.4,2.3-5.2,4.2-8.3,5.6
					c-2.8,1.3-3.6,5.4-7.6,6.4c0.2-2.4,1.7-3.9,2.7-5.5c1.3-2.3,3.4-4.1,4.1-6.8l0.1-0.1v0.2c-6,0.9-7.4,7.5-12.3,10.9
					c0.1-3.6,1.8-5.7,3.1-7.9c4.3-7.7,8.1-15.6,10.2-24.2c1.4-5.3,1.7-10.9,0.7-16.4c-2,1.4-3.9,2.6-4.1,4.6
					c-0.2,2.9-0.2,5.8-0.1,8.8l1.9-0.3c0.6,2,0,3.8-0.7,5.5c-4,10.6-9.6,20.5-16.6,29.5c-1.5,1.9-3,3.5-2.8,6.4
					c-10.8-9.2-5-44,8.3-50.5c-0.8,3.5-3.7,5.5-4.5,8.7c6.5-5.2,12.7-10.4,18-16.9c4.2-4.9,7.2-10.6,9-16.8c0.8-3.1,0.9-6.1-0.8-8.9
					c-0.5-0.9-1.2-1.8-2.9-0.8c2.3,6.4-0.5,11.7-4.4,16.7c-0.7,1-1.4,1.9-2.2,2.8c-6.5,7.5-13.7,14.3-22.7,18.6
					c-2.7,1.3-3.9,2.6-4.2,5.4c-0.3,2.6-0.1,5.5-2.3,7.8l-1.5-2.6c-2.5,6-3.6,12.4-3.3,18.8c0.3,6.3,3.9,11.7,4.7,17.9
					c-6.7-5.8-8.1-13.7-8.3-21.4c-2.3,8.5,2,16.4,4.9,24.7c-5-3-6.7-8.4-10.2-13.2c-0.3,1.7-0.5,2.7-0.6,3.7c-0.9,7-2.9,13.8-6,20.2
					c-1.2,2.1-1.3,4.6-0.3,6.9c2.7,6,1.5,13,5.2,18.7c0.2,0.6,0.3,1.3,0.2,2c0,3.1,1.7,4.7,5,5.7c-1.1-5.7-2-11.1-3.1-16.8
					c1.1,0.7,1.8,1.8,2,3c2.2,7.5,4.8,14.9,5.9,22.6c0.5,3.5,2.3,6.5,2.8,10c0.3,1.8,1.7,3.8,1.8,5.9c0.1,2.3,3,3.1,3,5.4
					c0,1.6,0.4,2.5,2.1,2.7c0.7,0.1,1.5,0.6,1.4,1.3c-0.7,3.6,2.6,5.3,3.7,8l-0.1-0.1c-0.5,9.6,2.8,18.9,9.1,26.1
					c0.7,0.8,1.3,1.7,1.7,2.7c6.3,12.7,14.6,24.4,20,37.7c0.1,0.2,0.3,0.3,0.7,0.6c1.3-3.6,4.2-5.4,7.5-6.6c2.4-0.9,4.8-1.6,7.1-2.6
					c4.1-1.9,7.8-4.4,8.8-9.1c1.4-6.4,3.1-12.7,5.1-18.8c2.9-8.6,5.3-17.3,11.4-24.3c1.6-1.9,1.8-3.8,1.1-6.3c-2-7.5-4.9-15-4.2-23
					c0.1-1.9-0.7-2.6-2.4-2.9c-0.3,0-0.4-0.6-0.6-0.8c0.3-1.6,2-0.7,2.7-2c-0.5-4.9-2.3-10.1-0.4-15.2c1.9-4.9,0.9-11.1,6.2-15.1
					c1.1,3.3-1.1,5.8-0.5,9.1c1-1.6,0.6-4,2.8-3.8s1.2,3,2.7,4.2c1.6-1.7,3-3.7,3.9-5.9c0.5-1,0.6-2.4,2.2-2.5v5.6
					c-3.2,2.3-4.8,6.2-8,8.5c-2-0.6-3-2.9-5.4-2.5c-1,2.6-1.5,5.4-1.3,8.2c0.2,7.3,0.7,14.6,1,21.9c0,1.6,1,3.1,2.5,3.7
					c4.3,2.5,8.2,5.5,9.8,10.6c0.2,0.5,0.8,0.6,1.3,0.7v9.6c-3.5-1.1-2.9,2-3.3,3.5c-4.1,15.7-10.8,30.3-18.7,44.4
					c-2,3.5-4,7.1-6,10.6c6.5,3.8,8.2,3.3,11.5-2.6c0.5-0.8,0.9-1.7,1.2-2.5c5.3-11.7,9.6-23.7,13.1-36c0.4-1.4,0.1-3.4,2.3-3.8v8
					c-2.3,0-1.8,2-2.2,3.2c-4.1,12.1-8.2,24.2-14.2,35.6c-1.5,2.9-3.2,3.8-6.3,3c-10-2.4-9.1-3.9-4.9-10.9
					c9.5-15.8,17.4-32.3,22.2-50.3c1-3.9,2.7-7.4,1.1-11.6c-1.2-3.6-3.8-6.5-7.2-8.1c0.2,2.8,0.7,5.5,1.7,8.1c1.2,3.1,0.6,6.5-1.6,9
					c-6.2,7.8-9.5,16.8-11.4,26.5c-1.1,5.5-2.4,10.9-3.8,16.3c-1.5,5.5-5.7,8.9-10.7,11.1c-2.7,1.2-5.5,2.1-8.2,3
					c-3.1,1.1-4.4,3.2-3.8,6.5c0.3,1.4,0.5,2.9,0.5,4.4c0,1.7-0.4,3.3-2.4,3.6c-1.8,0.3-2.6-1-3.2-2.5c-2.7-6.2-5-12.7-8.1-18.7
					c-5.5-10.7-10.9-21.4-17.3-31.5c-4.2-6.6-7.9-13.3-7.6-21.5c0-1.3-0.5-2.6-1.4-3.6c-7.5-10.2-11.5-21.9-13.8-34.1
					c-0.3-2.4-1.6-4.5-3.6-5.8c-3.5-2.3-6.3-5-5.7-9.7c0-0.3,0-0.5-0.1-0.8c-3.4-5.3-2.4-11.6-4.2-17.3c-0.4-1.1,0-2.7-2-3
					c-1.4-0.2-0.6-1.5-0.4-2.3c3-8.2,1-15.7-2.9-23.1c-5.9-11.2-7.7-23.4-7.6-36c0.2-9,1-18.1,2.4-27c0.4-3.9,0.4-7.9,0-11.8
					c-3.1,25.3-8.5,50.5-2.6,76.2c-2.1-1.1-2.7-3.1-3.3-4.9s-1.2-4.1-2-7.1c-3.2,5.2-5.9,9.7-8.6,14.2c-1.2,1.9-2.3,3.9-3.5,5.8
					c-1.2,2.2-3.3,3.9-5.7,4.7c-2.2,0.6-4,2.1-5.9,3.3c-1,0.6-2.2,1.4-3.3,0.5c-1.4-1-0.8-2.5-0.4-3.7c0.9-2.5,2.3-4.8,4-6.9
					c4.8-6.2,9.7-12.3,14.6-18.5c1.3-1.7,2.5-3.5,3.7-5.2c2.4-3.5,2.3-3.6-1.1-6.9c-8.8,11.9-19.7,22.3-23.9,37.2
					c-1.4,4.8-2.8,5.1-6.6,3.6c-2.7-1.1-3.1-3-2.5-5.5c1.4-5.3,3.8-10.3,7.1-14.6c5.1-6.7,9.3-14,13.6-21.2c1.3-2.3,2.8-4.5,4.5-6.6
					c2.1-2.6,3.2-5.1,1.8-8.4c-0.6-1.4-0.4-3.2-1.4-4.8c-1.8,1.4-2.7,3.3-3.9,5c-6.9,10.6-13.9,21.1-19.2,32.7
					c-4.8,10.4-6.9,21.3-7.5,32.5c-0.7,12.2-3.5,23.9-6.8,35.6c-0.3,1.2-0.8,2.4-2.3,2.4c-1.8-0.1-2-1.6-2-2.9
					c-0.1-6.7-0.2-13.3,0.7-20c0.5-3.7,0.4-7.4,0.5-11.2c0.1-2.3-0.8-4-3.2-4.3c-4.7-0.7-7.4-3.9-9.8-7.6c-2.8-4.2-5.2-8.7-7.1-13.4
					c-5.9-15.2-14.1-29.3-21.1-43.9c-3.7-7.7-7-15.5-12.1-22.4c-0.5-0.6-0.6-1.5-1.7-1.7c0.3,3.3,1.5,6.2,2.5,9.2
					c1.8,5.2,2.8,10.5,3,16c0,1.5,0.5,2.9,1.3,4.1c7,10,13.2,20.7,18.3,31.8c3.2,6.9,7.5,13.3,12.8,18.7c0.9,0.9,1.7,1.8,1,3.1
					s-1.9,1.3-3.1,1.2c-4.7-0.1-9.2-2-12.5-5.4c-6.8-6.6-12.4-14.3-16.6-22.8c-2.1-4.5-3.3-9.3-3.5-14.3c-0.6-7.6,0.4-15.2-0.8-22.7
					c-0.7-4.3-2.1-8.5-4-12.5c-1,7-1.6,14-1.6,21c0.1,12.8,5.6,23.7,10.9,34.7c4.6,9.6,7.5,20,8.5,30.6c0.2,2,0.9,3.9,2,5.5
					c8.8,13.1,12.2,29.1,9.5,44.6c-0.4,1.4-0.2,2.9,0.4,4.2c0.3,0.5,0.6,1.1,0.5,1.5c-2,7.3,3.4,13.2,3.9,20.1
					c0.4,5.3,0.9,10.6,0.2,15.9c-1.6,13.1,0,25.4,7.1,36.9c3.5,5.7,6.1,11.9,7.5,18.4c0.5,2.2,0.9,4.5-0.9,7
					c-2.9-3.5-2-8.3-4.7-11.9c-1.6,10.5-0.4,19.9,7.6,27.9c-2.6,0.2-5.1-0.5-7.1-2.1c-5.7-4.3-10-9.9-14.3-15.5h-0.1l0.2-0.1
					c-0.5,1.7,0.7,2.7,1.5,3.9c2.5,3.8,5.3,7.3,8.5,10.6c1.1,1.3,2.4,2.5,2.8,4.4c-4.6,2.2-9.2,2.9-13.8-0.6
					c-1.4,3.7-1.7,7.2-3.5,10.2c-0.8,1.3,0.1,2.2,0.9,3.2s2.4,1.4,2,3.6c-5.7-1.3-6.7-7-10.3-10.7c-2.8,6.2-2.8,12.8-3.9,19.3
					c-4.7-5.6-6.6-12.3-7.6-26.6c-1.4,0.6-0.8,2.5-2.2,3.1c-1.2-0.5-0.5-1.6-0.7-2.4c0.5-3.5,2.5-7,0.9-11.5
					c-1.7,4.3-1.1,8-0.9,11.6c-1.9,3.7-3.9,7.4-2.3,11.8c1,2.9,0.4,5.8-0.7,8.6c-0.8,2.3-1.3,4.6-1.6,7
					c-2.5,16.4-8.7,31.5-17.2,45.6c-4,6.7-6.8,13.8-9.8,20.9c-3.1,7.4-2.4,14.8-3,22.3c-0.9,11.5-4.5,21.5-14.6,28.3
					c-5.5,3.7-9,9.4-12.9,14.6c-2.2,2.9-4.5,5.6-7.1,8.1c-3.9,4.2-9.7,6-15.3,4.9c-20.8-3.8-41.5-8.5-60.6-18
					c-4.2-1.9-8.2-4.4-11.8-7.3c-1-0.8-1.9-1.5-1.3-3c1-0.4,1.7,0.4,2.4,0.9c12.5,8.8,26.6,14,41.2,17.8c8.2,2.2,16.6,4,24.8,6
					c11.3,2.8,18.7-2.1,24.8-10.6c4.7-6.5,10-12.5,15.7-18.1c6.7-6.5,10.9-15.2,11.6-24.6c0.2-2.3,0.2-4.6,0.4-7.8
					c-4,4.8-5.7,10.2-10.1,13.9c-1.5-2.3-0.4-4,0.4-5.6c1.7-3,3.6-5.9,5.3-8.9c3.2-5.8,6.3-11.7,8.3-18.1c1.6-5.4,4-10.5,7.2-15.1
					c8.4-12.1,12.5-26.1,17.4-39.8c0.4-1.3,0.6-2.6,0.5-3.9c-0.1-3.6,0.6-7.2,1.9-10.5c0.6-1.9,1-3.9,1.1-5.9
					c0.5-2.4-0.8-4.8-3.1-5.8c-4.3-2.3-7.4-6.1-10.4-9.8c-6.1-7.3-14-9.8-23-10c-2,0-4-0.1-6-0.1c-7.1-0.1-10.1,2.7-10.5,9.7
					c-0.2,3.4-0.8,7-3.2,9.7c-2.2,2.2-3.1,5.4-2.7,8.5c0.6,4.1-1,7.2-4.1,9.7c-3.2,2.6-6.3,5.3-9.3,8.2c-2.1,2.1-4.5,4.4-1.9,7.9
					c0.9,1.3,0.2,2.8-0.7,4.1c-1.3,1.7-2.8,3.2-4.6,4.5c-1.7,1.3-2.8,2.7-2.7,5s-1.2,3.4-3.4,3.5c-1.4,0-3,0.3-3.5,1.6
					c-1.7,4.5-6.4,7.1-7.3,12.1c-0.1,1.1-0.8,2.1-1.8,2.5c-2.3,0.9-4.6,1.8-5.5,4.3c-1.2,3.5-2.1,7.1-1.4,11c0.7,4.6,2,9.1,4,13.3
					c0.9,1.5,1.3,3.2,1.1,4.9c-5.7-4.2-5.9-10.6-8-16.4c-3.9,3.4-3.7,8.5-5.8,12.7c-2.1-1.4-1.7-3.2-1.4-4.8c0.7-3.7,2.4-7.1,4.7-10
					c2.2-2.9,2.9-6.1,3.1-10.3c-7.4,4.3-10.7,11.8-17,17.2c-0.5-2.4,0.1-4.9,1.8-6.7c4.4-6,8.8-12,16.5-14.4c4.8-1.5,7.7-5.2,9.2-10
					c0.5-1.5-0.1-2.6-0.9-3.7c-3.4-4.7-7.4-9.1-10.7-14c-1.9-2.9-4.2-5.6-5.7-8.6c-6-11.8-15.4-20.2-26.7-26.7
					c-3.5-2.2-6.9-4.5-10.2-7.1c-2.1-1.5-3.1-3.2-2.2-5.8c1.3-0.2,1.9,0.8,2.6,1.5c4.6,3.7,9.4,7,14.4,10
					c10.2,6.2,18.6,14.1,24.3,24.8c4.8,9,11.4,16.6,17.7,25c2.4-2.8,4.4-6,8.5-5.9c-0.1-3.1,1.4-6,4-7.6c2.5-1.8,5.3-3.6,2.8-7.6
					c-0.8-1.3,0.3-3.1,1.1-4.5c1.5-2.5,3.5-4.7,5.8-6.6c2.6-2.3,5.2-4.6,7.8-6.9c1.1-1,2.2-2,1.7-4.1c-3-0.6-5.3-2.8-7.8-4.8
					c-2.8-2.2-6.1-3.9-9.5-4.9c-9.4-2.8-17.8-7.7-25.7-13.5c-4.7-3.5-9.8-6.5-14-11.5c-2.1,3.7-3.8,7.1-5.8,10.3
					c-0.9,1.4,0.4,2.8,1.1,4c1.4,2.6,3.4,5,4.6,8.4c-4.3-1-5.8-3.9-7.3-6.6c-1-1.7-2-2.7-4.4-1.9c1.3-3.1,1.4-5.8-0.4-8.6
					c-3.5,1.4-5.9,5.2-10.6,5.7c1-2.3,2.8-4.2,5-5.4c5.6-3.3,5.2-8.2,4.3-14.2c-3.7,6.2-5.5,13-12,16.3c0.9-5.4,5.5-9.1,6.8-14.9
					c-4.9,1.4-9.8,2.5-14.8,3.3c-0.9-2.1-0.9-3.5,1.9-3.9c4.2-0.6,8.3-1.7,12.3-3.2c1.7-0.6,3.1-1.4,3.8-3.3
					c5.1-15.9,7.2-32.2,4.5-48.8c-0.1-0.9-0.6-1.7-1.4-2.1c0.4,7-2.5,12.8-5.9,18.3s-6.8,10.6-13,14.4c0.3-2.7,1.5-3.8,2.4-5
					c2-2.5,4-5,5.9-7.5c7.2-9.1,9-19.6,7.8-30.9c-0.3-4.2-0.3-8.5,0-12.8c0.1-2.2,0.6-4.4,1.5-6.5c1.3,1.3,0.8,2.6,0.7,3.8
					c-0.8,5.9-0.1,11.8,2.1,17.3c4.9,12.6,5.2,25.4,3.5,38.5c-0.1,0.6-0.3,1.3,0.2,1.9c3.1-4.5,1-10.1,3.1-15.1
					c2.2,1.4-0.5,5.6,3.8,4.8c-4.6,6.2-4,13.6-6.5,20c-2.6,6.7-3.6,14-2.9,21.1c3.5-3.7,6.2-8.1,8-12.9c1.9-4.5-0.1-9.9,3.6-14.5
					c5.1,6.9,5.3,15.5,10.6,22.2c0.6-0.7,0.5-2.2,1.8-2.1c1.3,0.4,0.8,2.3,2.2,2.6c0,0.3-0.4,0.6,0.1,0.8l-0.1-0.7
					c0.1-1,0.7-1.5,1.6-1.1c0.4,0.2,0.7,0.7,1,1.1c2.8,3.7,3.2,3.7,5.5,0c2.5,0.5,2.6,5.1,6.5,3.5c-1.6-3.1-2.9-6.3,0.2-9.5
					c2.8,1.4,4.3,4.2,6.5,6.3s5.4,3.1,5.1,6.9c0,0.4,0.8,1,1.3,1.4c5.7,4.4,12.2,7.5,17.6,12.1c1.2-1.6,0.7-3,1.2-4.3
					c0.9-2.4,2.2-4.5,4.6-5.8c5.4-2.7,7.7-6.5,8.1-13c-11.5,0.3-22.8-0.1-32.3-8.6c1.7-1.3,2.7-0.5,3.5,0.1
					c5.3,3.3,11.2,4.1,17.2,4.7c3.1,0.3,6.1,0.6,9.1,0.8c1.4,0.1,2.8,1.7,4.1,0.2c1.3-1.3,2.3-3,2.7-4.9c0.4-1.9,0.3-3.9-0.3-5.8
					l-10.7,4c3.2,0.6,5.9-1.6,8.8-0.6c-2.9,4.9-18.3,5.4-23.5,1c10.9-1.6,20.8-5,25.9-9c-3.6-2.2-6.7,1.7-10,1.1
					c-1.2-1.7,0.8-2.1,1-3.4c-2.6-2.1-6.1-3.5-7.8-7c3-1.1,4,2.4,6.4,2c0,0.1,0,0.3,0.1,0.3c0.3,0.1,0.4,0,0.2-0.2c0,0-0.2,0-0.3,0
					c-0.1-1.9-1.9-2.7-2.8-4.1s-2.5-2.4-1.9-5.3c4.3,2,6,6.3,9.4,8.6l1,0.8c0.3,0.9,0.1,2.1,1.9,2.1c-0.1-1.4-1-1.7-2-2
					c-0.1-0.4-0.5-0.8-1-0.8c-0.8-4-3.9-6.8-5.4-10.4c-0.8-1.8-3.7-4-1.6-5.4c2.4-1.7,2.8,2.2,4.3,3.3c0.2,0.1,0.5,0.2,0.7,0.2
					c-0.2,0.7,0.2,1.3,0.4,2l0.2-0.1l-0.3,0.1c0.1-0.7,0.4-1.4-0.4-1.9c0-4-1-7.8-2.9-11.3c-0.9-1.9-1.2-4.1-0.9-6.2
					c1.1-8.1,1.7-16.3,2.1-24.5c0.1-1.6,0-3.4,0.8-4.6c2.1-3.5,1-5.8-2-7.8c-0.3-0.2-0.4-0.6-0.6-1c0.7-1.5,1.9-0.4,2.8-0.8
					c0,0.5,0.3,0.9,0.7,1.1c0.3,0.7,0.6,1.6,1.7,1.2c-0.3-0.7-1-1.2-1.8-1.1l-0.7-1.1c-1.9-1.3-2.4-2.4,0.2-3.4l0.3,1.5l0.2-0.1H142
					l-0.2-1.4c-0.5-0.3-1-0.6-0.9-1.3l-0.1,0.1c0.7-0.2,1.5,0.5,2.4-0.4C141.6,322.9,137.6,323.6,136.1,320.9L136.1,320.9z
					 M411.1,191.4l0.7,0.9c1.7,4.8,4.8,8.9,6.1,13.9c2.3-9.5-2.3-22.5-10.3-29.9c-4.3-4-13.9-8.2-16.8-7.3c2,9,9.3,14.1,14.7,20.6
					c-0.2,1.8,1.1,2.9,1.9,4.3c2.3,3.8,3.8,7.9,4.4,12.3c0.2,1.5,0.5,3-0.7,4.7c-1.2-2-2.2-4.2-3-6.5c-0.8-2.1-1.7-4.2-2.7-6.2
					c-0.8-2-2-3.7-3.6-5.1c2.1,11,6.3,20.9,14.9,29.1c1-4,0.1-7.1-0.4-10.2c-1.3-8.6-4.3-16.4-11-22.4c-0.1-0.6-0.4-1.3,0.4-2
					c1.7,0.3,2.8,1.9,4.3,2.8L411.1,191.4z M58.4,261.6l0.2,0.1L58.4,261.6L58.4,261.6z M418.3,179.1c0,0.3,0,0.4-0.2,0.1h0.3
					l0.5,1.2c0.2,0.4,0.5,0.6,1,0.6l0.6,0.8l0.9,0.9c0.7,2.1,2,4,3.8,5.4c-0.5-2.3-1.9-4.2-3.9-5.4l-0.9-0.9l-0.6-0.8l-0.9-0.6
					L418.3,179.1z M150.4,206.6l1.2-0.5l0.3-1.9l0.2-0.2v0.2l-0.1-0.1l-0.3,2c-0.4,0.1-0.9,0.1-1.1,0.6l-1.1,0.6
					c-6.7,8.2-14.8,15.3-19.3,26.1c3.3-0.7,5.3-2.1,7.5-2.9c2.6-0.8,4.4-3.1,4.6-5.8c0.8-4.6,2.8-8.8,5.1-12.9
					c0.8-1.4,2.4-2.6,2-4.5c0.4,0.2,0.9,0.1,1.1-0.3C150.3,206.8,150.4,206.7,150.4,206.6z M214.2,37l0.2,0l-0.1,0.2l-0.8,0.9
					c-7.9,4.3-14.9,10.2-20.3,17.4c4.9-3,9.1-6.8,14.3-9.3c-0.4,1.9-1.8,2.9-2.9,4.1c-1.5,1.6-3.8,2.5-4.5,4.8
					c-7.5,4-11.1,11-14.8,18c5-5.9,10.6-11.5,14.7-18.2c3-0.3,5.3-1.4,6.8-4.4c3.3-6.5,10.1-9.1,15.6-13.2c0.2-0.2,0.5-0.4,0.7-0.3
					c4.2,0.8,7.7-2.9,11.9-1.6c1,0.3,1.5-0.3,1.6-1.2c0.2-0.7-0.2-1.5-1-1.6c-0.1,0-0.2,0-0.3,0c-5-0.9-10-1.4-14.7,1.6
					c-2.9,1.9-5.2,4.5-7.6,7c-0.9,0.9-1.9,1.8-3.2,3.1c0.8-3,3.3-3.8,3.5-6.2C213.9,37.9,214.1,37.5,214.2,37z M245,35.2h1.8
					c2.9-0.3,5.2-2.3,8.1-2.9c3.6-0.6,7.2-0.9,10.8-1c-5.8-2.9-14.2-1.6-18.4,2.4c-0.4,0.4-0.6,0.9-0.4,1.4L245,35.2l0.1-0.2
					L245,35.2z M169,280.9l-1.1-0.6c-0.1-1.8-1.4-3.4-3.1-4c0-0.6-0.2-0.9-0.8-0.8c-0.1-1.2-0.8-1.5-1.8-1.2l0.1-0.2l-0.2,0.1l2,1.2
					c0,0.5,0.2,0.9,0.8,0.8c0.4,1.7,1.6,3.2,3.1,4c0.1,0.4,0.5,0.7,0.9,0.6c0.1,0,0.2,0,0.2-0.1c-0.1,0.7,0,1.5,0.4,2.1
					c0-0.3,0.2-0.2,0.1,0c-0.3,0.4,0.3,0.1-0.2-0.1L169,280.9z M161.2,183.3c-0.3,0.3-0.5,0.1-0.3-0.1
					C161.2,182.8,160.7,183.2,161.2,183.3l0.3-2.4c2.1-0.4,1.2-2.4,1.9-3.6l-0.1-0.2v0.3c-1.1,0.8-1.8,2.2-1.8,3.6
					C160.9,181.7,161,182.5,161.2,183.3L161.2,183.3z M296.6,71.9c0-0.3,0.2-0.2,0.1-0.1c-0.3,0.5,0.3,0.1-0.2,0l-0.5-2l-0.7-1.7
					c-3.9-9.5-11.7-15.8-18.6-22.8c-0.1-0.7-0.5-0.8-1.1-0.6v-2.2l-1.3-0.6c-0.8-2.4-1.9-4.5-4.9-4.5c-0.2-0.2,0-0.3,0-0.2
					c0.2,0.5,0.3-0.2-0.1,0.1c1.9,1.3,3,3.5,5,4.5l1.3,0.7l0.1,2.1l1.1,0.6c0.1,1.6,1.2,2.6,2,3.9c5.8,9.7,11.3,19.6,14.5,30.6
					c1.7,5.9,3.2,11.8,4.8,17.7c4.5,17.4,10,34.5,14,52c1.5,6.8,3.9,13.3,7,19.5c1.8,3.5,3.7,6.9,6.8,9.5
					c-1.7-6.8-2.6-13.6-5.4-19.9c-4.3-10-7.8-20.4-10.4-31c-3-12.3-5.4-24.7-10.6-36.3c-1.1-2.7-1.9-5.5-2.4-8.4
					c-0.6-3.7-1.9-7.2-4-10.3c-2.4-3.7-4.2-7.8-5.5-12c2.8,1,3.5,3,4.9,4.4c1,1.1,1.2,3,3.1,3.3c-0.3,0.7-0.4,1.4,0.7,1.6
					L296.6,71.9z M418.7,187.2c-0.1-0.1-0.1-0.2-0.1-0.3c0-0.1,0.1-0.2,0.2-0.3L418.7,187.2l0.9,1.3c1.7,6,3.1,12.1,2,18.4
					c-0.4,2.2-2.4,3.8-2.5,5.7c-0.1,4,0.6,8,0.7,12c3.4-4.6,5.7-17.6,4.3-24.1c-0.9-4.2-1.5-8.5-4.6-11.8
					C419.7,187.8,419.6,187.3,418.7,187.2z M60.7,260l2-0.3v-0.2l0.1,0.3c-0.6-0.2-1.4-0.1-1.9,0.3v0.2L60.7,260z M184.6,90.5
					c1-0.5,0.9-1.4,0.9-2.3l7.8-19.4c-3,3.4-7.8,5.7-6.4,11.7c0.6,2.4-0.8,5.2-1.3,7.8c-0.7,0.6-0.7,1.5-0.9,2.3
					c-0.6,0.9-0.8,2-0.3,3c-1.3,0.4-1.3,1.3-0.8,2.3c-0.9,0.1-1.6,1-1.5,1.9c0,0.2,0.1,0.3,0.1,0.4c0.9-0.6,0.7-1.7,1.3-2.4
					c0.1-0.8,0.4-1.6,0.9-2.3L184.6,90.5z M84.2,431.9L84.2,431.9c-0.2-0.4,0.1-1.1-1.1-1.4C83.4,431.2,83.2,431.9,84.2,431.9z
					 M53.5,296c0.6-0.2,1.1-0.5,0.4-1.4L53.5,296c0.1,0.3-0.4,0.4,0.1,0.7L53.5,296z M203.7,414.7c0.3-0.7,0.2-1.6-0.2-2.2
					c-0.5,0.7-0.3,1.6,0.3,2.1c0.2,0.8-0.6,1.9,1,2.4C204.6,416.1,204.8,415.1,203.7,414.7z M67.2,257c-0.8,0.1-1.8-0.1-2.3,1.1
					c1-0.1,1.8-0.1,2.2-1.2c0.2,0,0.5,0.1,0.7,0s0.2-0.4-0.1-0.4S67.4,256.9,67.2,257z M107.2,431.2c0,0.1,0,0.2,0,0.3
					c0,0,0.1,0,0.2,0l-0.3-0.2c-0.4-1.6-1.6-2.8-3.3-3.1c0.1-0.3,0.1-0.5-0.2-0.3l0.3,0.2C104.4,429.9,105,431.4,107.2,431.2
					L107.2,431.2z M312.2,224.7c-2,1-1,2.6-1.1,4.6C312.3,227.5,311.7,226,312.2,224.7c-0.3-0.8,0.5-1.6-0.1-2.3
					C311.8,223.2,311.9,224,312.2,224.7z M73.1,263.8c-2.2,0-3.2,1.5-4.6,3.4C71.1,266.8,71.5,264.5,73.1,263.8l0-0.3L73.1,263.8z
					 M239.8,25.3c0.2,0.1,0.3,0.7,0.6,0.1h-0.7c-1.7-2.5-4.3-2-6.6-2.4l-0.2,0.9L239.8,25.3z M160.5,172.8c3.2-3.1,3.4-7.3,4.5-11.2
					C163,165.1,161.5,168.9,160.5,172.8l0,0.4C160.5,173,160.5,172.9,160.5,172.8L160.5,172.8z M57.6,286.5
					c2.1-3.2,3.8-6.7,4.9-10.3c-2.3,3.1-5.5,5.9-4.8,10.4c-1.2,0.9-2,2.2-2.2,3.6C56.8,289.3,57.5,288,57.6,286.5z M319.5,198.4
					c3.5-3.4,4.9-8,6.6-12.4C322.9,189.6,321.2,194,319.5,198.4l-0.1,1.1C319.7,199.2,319.8,198.7,319.5,198.4
					C319.5,198.4,319.5,198.4,319.5,198.4z M326.6,164.1c0-0.5,0.5-1-0.1-1.5L326.6,164.1c1.7,3.6,0.8,8,3.2,11.7
					c1.1-0.7,2-1.7,1.5-2.9C330.1,169.8,329.5,166.3,326.6,164.1z M99.3,446.3l0.1,0.2l-0.3-0.1c-4.6-7.1-10.2-12.3-13.4-11.8
					c4.2,3.9,8.1,7.6,12.1,11.2C98.2,446.2,98.8,446.2,99.3,446.3z M208.9,59.9c3.8-6.3,8.8-11.8,12.6-18.2
					c-4.8,4.1-8.3,9.1-11.6,14.3c-0.9,1-1.2,2.4-0.8,3.7l-0.2-0.1C209.4,59.7,208.7,59.4,208.9,59.9z M308.8,106.5
					c-0.2,1-0.1,2,0.4,2.9c2.8,11.2,3.6,23,11.4,33.3c0.8-4.1,0.9-7.4-1-10.6c-3.6-6.2-6.6-12.8-8.9-19.6c-0.4-1.1-0.3-2.4-1.6-3
					c0.2-1,0.1-2-0.4-2.8c-1.2-6.3-3.2-12.5-5.8-18.4c-0.7-1.6-1.1-3.6-3.1-4.3l-0.1-0.3v0.2C302.1,91.6,305.2,99.2,308.8,106.5z
					 M313.3,107c0.1-0.3,0.4-0.7-0.3-0.7l0.4,0.6c0.3,5.3,4.1,9.4,5.4,14.3c0.2,0.9,0.4,2.1,1.9,2.4c0.1-3.3-0.7-6.6-2.3-9.5
					C317,111.5,316.3,108.3,313.3,107L313.3,107z M127.5,291l0.5-0.1L127.5,291c-0.2-1.8-1.8-1.9-2.9-2.2c-5.9-1.4-12.1-1.3-18,0.5
					c-1.7,0.4-3.1,1.3-4.2,2.7l1.9-0.3C112,290.5,119.7,289.4,127.5,291z M198.2,282.8l0.1-0.2v0.1c3,6.8,5.2,13.8,6.7,21.1
					c0.5-2.1,0.6-4.2,1-6.3C207.1,290.6,202.7,286.7,198.2,282.8z M397.8,192c0.2-1.8,0.4-3.6-0.8-5.3
					C397.3,188.4,397.6,190.2,397.8,192c0.1,1,0.3,2,0.4,3.1c1.3,8.8,1.6,17.4-2.5,25.7c-0.7,1.4-0.5,2.7,0.8,4.3
					c4-8.5,5.3-18.1,3.5-27.4C399.7,195.7,399.8,193.4,397.8,192z M174.9,250.2l0.2-0.1L174.9,250.2c0.1-0.6,0.4-1.1,0.3-1.6
					c-1.2-4.9-1.6-10-1.2-15c0.1-0.6-0.2-1.1-0.7-1.4c-1.1,0.1-1.7,1.1-2.6,1.6c-2.8,1.4-3.2,3.3-1.7,6.1
					C170.8,243.4,172.8,246.8,174.9,250.2z M361.5,181.3c-7.5,2.8-16.8,15.1-15.1,20.6C351.8,195.1,357.8,189,361.5,181.3l-0.1-0.2
					L361.5,181.3z M64.1,263.5c-9.1,3.9-15.4,10.3-17.9,20.2c1.3,0.1,1.7-0.7,2.2-1.3c3.6-4.4,7.6-8.5,11.9-12.2
					c2.1-1.7,3.4-4.1,3.7-6.8l0.2-0.1L64.1,263.5z M175,201.5c1,0.1,1.3-0.7,1.7-1.4c6.3-12.1,6-24.4,1.2-36.9
					C178.3,176.1,178.1,189,175,201.5l0.1,0.3L175,201.5z M350.3,203.6c2.5-2,4.9-4,7.4-6.1c6-4.9,11.2-10.6,15.5-17
					c1.6-2.5,2.5-5.1,1.4-8.1c-0.6,0-0.9,0-1,0.1c-0.3,0.2-0.6,0.5-0.8,0.9c-2.1,5.5-6.1,9.6-9.9,13.9c-3.6,4.1-7,8.3-10.5,12.5
					c-0.9,1.1-2.2,2-2,3.7l-0.3,0.1H350.3z M231.9,440l0.2,0.1h-0.3c0-2.9-1.7-5.3-2.9-7.7c-3.3-6.4-5.8-13.2-7.3-20.2
					c-0.4-1.9-0.7-3.8-1.1-6.1C215.6,417.2,220.8,432.1,231.9,440z M405,213.6l0.1-0.6L405,213.6c3.8,8.7,3.9,17.7,2.3,27
					c3.9-3.3,7-7.6,8.9-12.4c0.6-1.6-0.3-2.5-1.2-3.5c-2.8-2.8-5.4-5.9-7.5-9.3C406.8,214.6,406.4,213.4,405,213.6z M177.6,284.9
					c0,0.1,0.1,0.2,0.1,0.3c0.1,0.1,0.1,0.1,0.2,0.2l-0.4-0.4c0.1-1.1-0.1-2.1-0.5-3.1c-3.7-13.8-12-24.7-21.6-34.8
					c-1-1.1-2-2.4-4.1-2.3c1,2.3,2.2,4.5,3.7,6.4C162.7,262.3,171.7,272.6,177.6,284.9z M355.4,243.2c-1.4-1.2-2.6,1.3-4,0.4
					c-0.2-1.7,0.8-2.8,1.5-4.1c0.6-1,1.4-2,1.1-3.3c-1-5.6-1.1-11.4-0.1-17c-6.2,3-8.7,21.7-4.2,30.3
					C352.5,248.2,353,244.8,355.4,243.2l-0.2-0.9L355.4,243.2z M336.6,204.4c-0.8-0.4-1.4,0.8-2.4,0.1c0.9-5.3,7.2-7.7,7.9-13.9
					c-12.5,9.6-18.8,32.9-12.2,43.8c0.3-1.5,0.4-3,0.3-4.5c-0.9-7.2,1.4-13.6,4.1-20.1C335.1,207.9,336.5,206.4,336.6,204.4
					c0-0.1,0.1-0.1,0.2-0.2c0,0,0-0.1,0-0.2L336.6,204.4z M378.3,235.6c2.7-3.8,6.1-7.4,7-12c1.2-6.5,3.1-12.9,3.6-19.6
					c0.4-5.8,0.3-11.5-1.6-17c-0.5,7.1-3.6,13.6-2.7,21.1c1,8.1-2,16-5.2,23.5c-0.6,1.3-1.6,2.5-1,4.1h-0.6c0.1,0,0.1,0.1,0.2,0.1
					C378.1,235.8,378.2,235.7,378.3,235.6L378.3,235.6z M197,69.7c-2.3,1.7-2.9,4.4-3.8,6.8c-4.7,13-9.3,26.1-13.1,39.4
					c-3.1,11.1-4.4,22.7-3.7,34.3c0.3-6.5,1.8-12.9,2.8-19.3c1.3-9.6,4.7-18.5,7.7-27.6C190.5,92.1,193.6,80.8,197,69.7V69V69.7z
					 M105.9,453.3L105.9,453.3c-2.6-0.8-4.9-2.1-7.1-3.7c-7.3-6.1-14.4-12.5-20.3-20.1c-0.6-0.7-1-1.5-1.1-2.5c0-3-1.9-5.8-1.3-9
					c0.2-1.3-0.7-2.5-2-2.8c-0.8,3.9-1.5,7.8-2.4,11.6c-0.8,2.3-0.1,4.9,1.8,6.4c8.8,8.1,18.9,14.7,29.7,19.7
					C104,453.5,105,453.6,105.9,453.3z M132.3,223.1c-2.2-0.6-3.3,1.3-4.8,2.3c-8,5-16.9,7.9-25.4,11.5c-4,1.7-8,3.2-11.5,5.9
					c10-1.4,20-2.4,29.7-5.6c1.1-0.2,2-1,2.4-2c1.8-5.3,6.5-8.2,9.8-12.2l-0.1-0.2L132.3,223.1z M173.4,264.6v-0.3V264.6
					c3.6,6.1,5.9,12.9,8.4,19.7c2,5.4,3.3,11,3.7,16.7c0.3,4.4,0.5,4.8,4.7,5.7c1.6,0.3,3.2,1.3,5,0.7c-2.3-10.4-5.9-20.5-10.9-30
					C181.7,272.3,178.4,267.7,173.4,264.6L173.4,264.6z M296.9,176.6c-2.8,3.3-3,7.5-3.9,11.4c-3,12.5-0.9,25.6,5.9,36.5
					c0.6,0.9,0.8,2.3,2.8,2.2c0-13.3,1.1-26.5,3.2-39.6c-2.2,3.9-2.9,8.5-6.1,12.3c-0.6-1.7-0.5-3.5,0.1-5.2c1.1-4,2.1-8,3.6-11.9
					c4.6-12.4,5.1-25.2,4.4-38.2c-0.1-2.5-0.2-2.5-1.8-4c-0.4,9.5-0.4,19.2-2.3,28.6s-4.7,18.6-6.9,27.9c-1.2-2.7-1.6-5.8-1.2-8.7
					C295,184.1,296.2,180.4,296.9,176.6c-0.1-0.5,0.8-0.9-0.1-1.5L296.9,176.6z M295.9,121c0.1,0.2-0.3,0.8,0.4,0.7l-0.5-0.6
					c0-3.7-1.7-6.9-3-10.3c-0.2-0.5-0.3-1.2-1-1.1c-2.7,0.2-2.8-2.1-3.5-3.6c-2-4.8-2.5-10.1-3.9-15.1c-0.9-3.1-1.8-5.6-4.7-8
					c-5.4-4.6-10.5-5.6-16.7-2.6l0.1-0.1c-2.8,0-5.6-0.2-8.3,0c-5.1,0.4-7-2.2-5.1-7c0.5-1.2,1-2.8,2.6-2.5c2.2,0.4,0.2,2.2,0.9,3.3
					c6.6-1.4,13.6-0.7,19.7,2.3c2.6,1.2,4.8,3.2,7.7,3.9l0.1,0.2l-0.2-0.1c0.4-1.4-0.5-2.6-0.9-3.8c-3.1-9.2-9.9-16.4-14.3-24.8
					c-3.3-6.2-10.5-6.2-14.4-11c-3.1,2-4.3-1.1-5.8-2.3c-1.3,0.4-0.1,1.7-1.4,2.1l-2.7-3.1c-1.3,0.3-0.9,2-2,2
					c-2.8-0.2-4.6,1.8-6.9,2.6c-4.9,1.8-9.7,4-13,8.2c-4.2,5.3-8.1,10.9-11.5,16.8c-6.1,11.1-7.6,23.5-9.9,35.6
					c-1.7,8.9-2.6,17.9-3.9,26.8l0.1,1.8c0.4-0.8,0.1-1.3-0.1-1.8c2.4,0,1.4-2.9,3.5-3.8c0,5.1-1.2,9.8-2.3,14.5
					c-0.1,0.4-0.4,0.9-0.6,0.9c-2.8-0.1-2.2,2.1-2.4,3.6c-0.4,2.5-0.5,5-0.7,7.6c-1.1,13.6,1.4,26.4,8.6,38.2c3,4.9,7.6,8.1,12,11.5
					c1.6,1.2,3.6,2.2,4.1,5c-4.2,0-6.9-3-10.4-4.6c0.2,1.5,0.7,2.9,1.5,4.1c4.2,7.7,8.9,15.2,12.5,23.1c2.3,5,5.9,6.7,10.7,7.5
					c5.7,1,11.4,1.1,17.1,1.6c4.6,0.4,9.2,1.3,13.9,1.1c1.6-0.1,2.7-0.4,3.5-2c6-12.7,14.2-24,21.9-35.7c0.8-0.9,1.3-2,1.4-3.2
					c0.3-11.5,3.9-22.1,8.5-32.6c3.2-7.2,5.5-14.8,3.2-22.9c-2,0.7-3.2-1.4-5-1.4c-0.4,0.9,0.7,2.2-1.3,2.8
					c-2.5-2.8-3.9-6.3-4.1-9.9c1.4-1.4,2.1,0.4,3,0c0.7-2.6-3.4-6.1,1.6-7.5c-0.3-3.7-3.9-6.5-3-10.6
					C294.2,117,294.1,120.1,295.9,121L295.9,121z M173.1,311.7c2.4,3.4,4.5,6.9,3.5,10.7c-1.4,5.1-2,10.5-4.1,15.3
					c-3.3,7.5-6.9,15-10.4,22.4c-0.6,1.4-1.4,2.7-3.2,2.6c-2-0.2-2.4-1.9-2.7-3.5c-0.9-3.9,0.2-7.4,1.8-10.8
					c2.6-5.5,2.9-11.3,1.7-17.2c-0.8-4.2-3.4-7.9-7-10.3c-2-1.4-3.4-1-4.6,1c-1.1,1.9-1.3,4.1-0.6,6.2c1.1,2.9,0.5,6.2-1.3,8.7
					c-1.6,2.3-2.4,5.1-2.4,7.9c-0.4,7.7-0.7,15.4-1.9,23c-0.4,2.5-0.1,5.1,1,7.4c3.5,7.6,6.4,15.5,10.5,22.8
					c1.1,1.9,1.9,2.6,4.2,2.5c10.8-0.5,21.2,0.5,30.8,6.1c3.5,2.2,7.3,4,11.2,5.4c0-3,0-5.5,0-8c0.1-4.9,1-9.8,2.7-14.4
					c1.8-4.7,3.6-9.5,5.7-14.1c5.1-11.5,8.1-23.6,11.1-35.7c0.6-1.7,0.2-3.5-0.9-4.9c-2.2-2.3-4.8-4-7.7-5.2
					c3.5,7.4,2.1,14.2,1,21.1c-1.7-1.4-1.3-3.1-1.3-4.8c0.1-2.9,0.4-5.9,0.2-8.8c-0.2-3.1-1-6.1-4.1-8c-1.9,5.7-0.1,11.7-2.2,17.5
					c-2.6-1.9-2.2-4-2.3-5.9c0-6,1.3-11.9,2.4-17.8c1.5-8.3-3.1-13.5-11.8-13.1c2.8,8.8-0.1,17.4-0.4,26.2c0,1-0.3,2-1.5,1.9
					s-1.4-1.1-1.4-2c0-0.8,0.1-1.6,0.2-2.4c0.6-5.1,1.4-10.3,1.7-15.5c0.3-6-0.1-9.2-6.9-10c-0.5,0.6-0.2,1.3-0.3,1.9
					s0.2,1.4-0.6,1.8c-2-1.3-2-1.3-2.7-2.6c-1.5-2.7-3.7-3.6-6.1-2.1c-3.1,1.9-5.4,4.9-6.5,8.3c-0.2,0.8-0.3,1.6-0.2,2.4
					c0.4,2.1,2,3,3.9,3.6c0.9,0.3,2,0.5,2.5-0.5c0.9-1.6,0.1-3-0.8-4.4S171.4,313.7,173.1,311.7z M250.2,299.1l0.6,0.2
					c0.3-0.6,0.5-1.1,0.7-1.8c2.2-6.6,2.9-13.5,3.3-20.4c0.5-10.7,1.7-21.2,6.3-31.1c0.4-0.6,0.5-1.4,0.1-2
					c-11.9-2.1-24.2-1.5-36.7-4.7c2.2,5.1,4.2,9.4,5.9,13.9c1.9,4.7,4.2,9.2,7,13.4c2.1,3.2,4.4,5.8,8.5,6.6
					c3.9,0.8,4.9,2.5,5.2,6.5c0.1,1.6,0,3.2-0.1,4.8C250.8,289.4,250.5,294.2,250.2,299.1L250.2,299.1z M177.5,303.3
					c0-0.4-0.1-0.8-0.2-1.2c-0.4-1-0.9-1.9-1.5-2.8c-6.2-10.6-14.1-19.9-22.4-29c-5.7-6-12-11.3-19-15.7c-2.1-1.4-3.8-1.4-5.6,0.4
					c0.3,1.5,1.1,2.8,2.3,3.7c3.5,3.5,7,6.9,11.4,9.3c5.2,3,9.8,6.9,13.6,11.5c3.8,4.5,6.5,9.7,9.3,14.8c1.9,3.6,3.9,7.2,6,10.9
					C173.6,304,175.7,304.4,177.5,303.3L177.5,303.3z M201.4,430.7c1.9-1,1.8-2.3,1.5-3.6c-0.7-2.7-1.5-5.4-2-8.1
					c-0.3-1.7-1.5-3.2-3.1-3.9c-3.6-1.8-7.2-3.5-10.6-5.5c-8.8-5.3-18.4-6.4-28.4-6.2c-3.7,0.1-4.1,0.6-3.4,4.4
					c8.9,0.8,17.6,3,25.8,6.3C189.7,417.4,195.3,424.4,201.4,430.7L201.4,430.7z M186.5,222.7c-5.2,17.5,8.5,45.4,18.6,54.1
					c-1.3-8.2-3.1-15.9-6.6-23.2c-3.4-7.1-7.5-13.8-9.6-21.4C188,229,187.3,225.8,186.5,222.7L186.5,222.7z M191.2,449.4
					c2-6.8,1.4-8.8-4-11.9c-6.3-3.6-12.6-7.4-19.2-10.5c-4.8-2.3-9.9-3.9-15.3-3.8c-3.4,0.1-3.8,0.8-3.8,4.7
					C166.6,427.8,177.8,440.9,191.2,449.4L191.2,449.4z M225,266.6c-11-14.3-15.3-31.4-26.3-45.5C197.5,237.3,212.7,264.2,225,266.6
					z M153,415.7c5.6-0.9,11.3-0.2,16.5,2.1c8.8,3.8,17.3,8.2,24.3,14.9c1.8,1.7,3.4,1.9,5-0.3c-3-4.7-6.8-8.9-11.3-12.3
					c-6.8-5.1-14.8-7-22.8-8.9c-2.6-0.6-5.1-1.7-7.8-1.4C153.4,410.3,152.7,411.2,153,415.7z M324.4,232.9
					c-0.9,3.1,1.4,6.4-0.4,10.2c-1.5-2.4-2.3-5-2.5-7.8c-0.9-6.6,0.4-13,1.8-19.4c1.1-5.5,1.7-11.2,1.7-16.8
					c-2.8,4.8-5,9.9-6.8,15.2c-1.4,4.3-2.1,8.8-2,13.4c0.3,10.9,5,21,5.9,31.9C325.9,250.8,326.1,241.9,324.4,232.9L324.4,232.9z
					 M215.1,364.2c-1.4,5.8-4,10.6-6,15.7c-2.2,5.5-4.7,11-5.8,17c-0.6,3-1.5,6.6,0,9c2.4,3.8,3.1,8.1,5,12.1
					c0.3,0.6,0.2,1.6,1.5,1.7c0.9-1.9-0.2-3.6-0.7-5.3c-2-7.5-3.9-15-2.9-22.8c0.2-1.9,0.2-4.2,3.4-4.9c-1,6.2-2,12.1,0.4,18.6
					c0.9-12.1,1.8-23.4,5.2-34.4c1.3,6.1-0.3,12.1-0.7,18.1S213,401,214.2,407C218.3,393.1,219.5,379.2,215.1,364.2z M56.5,278.6
					c-1.8-0.1-2.4,1.3-3.3,2.2c-1.7,1.8-3.2,3.9-5,5.7c-3.7,3.4-5.6,8.4-5,13.3c0.1,1.5,0,2.9,0.2,4.4c1.3,12.9,0.8,25.8,0,38.7
					c-0.2,2.4,0,4.9,0,7.3c2.1-4.8,3.2-9.9,3.2-15.1c0.1-6.5-0.9-13.1-0.2-19.5c0.9-8.3,2-16.9,5.6-24.8
					C53.7,286.9,55,282.8,56.5,278.6z M165.9,311.6c-6.1-1.4-11.8-4.3-16.5-8.4c-6.8-5.6-15-7.9-23.2-10c-1.6-0.5-3.3-0.4-4.8,0.3
					c4.2,0.5,7.8,2.4,11.4,4.5c4.9,3,9.4,6.5,13.5,10.5c4.8,4.5,10.1,8.2,15.5,11.9c1.1,0.8,2.3,1.7,4.2,1.5
					C163.8,318.5,164.6,315.3,165.9,311.6L165.9,311.6z M164.5,238.6l-9.7,4c2.8,2,5.1,3.8,7.5,5.5c3.7,2.6,7.1,5.6,10.1,9
					c3,3.6,6.2,7,9.1,10.6c9.3,11.7,15.1,24.8,15.8,40.4c1.2,0.8,2.5,1.3,3.9,1.5c0.2-0.3,0.3-0.5,0.3-0.8c0-0.7-0.1-1.3-0.2-2
					c-1.9-15.2-8.6-29.4-19-40.5C174.9,258.1,168.3,249.6,164.5,238.6L164.5,238.6z M101.8,433.9c-0.6,0.9-0.4,2,0.3,2.7
					c8.5,7.5,16.5,15.7,26,23.1c0.3-0.6,0.6-1.2,1-1.7c4.2-5.2,4.2-5.4-1.2-9.5c-5.9-4.5-12.9-7.5-18.4-12.6
					C107.3,433.9,104.6,433.6,101.8,433.9z M182.6,220.6c-2,2.7-4.6,5.1-5.1,8.5c-1.5,11,0.4,21.4,6.6,30.8c2.5,3.9,5.8,7.3,9.6,10
					C184.8,254.5,179.6,238.6,182.6,220.6z M256.6,38.8c7.5,1,11.2,6.5,14.6,12.1c1.7,2.8,2.9,6,4.7,8.8c7.5,11.9,11.8,25,14.5,38.7
					c0.6,3.1,1,6.1,4.5,7.3c0.1-0.3,0.1-0.5,0.1-0.8c-3.5-19.2-10.5-37.5-20.5-54.3c-2.4-4.1-5.6-7.8-9.4-10.6
					C262.4,38,259.9,37.2,256.6,38.8z M189.3,456.2c2.1-2.6,0.8-4.5-1.4-6.3c-6.2-5.1-12.7-9.7-19.4-14c-3.8-2.5-7.9-4.4-12.3-5.6
					c-6.4-1.8-8.3-0.7-10.3,5.6c2.5,0,5-0.1,7.5,0c9.1,0.3,17.3,2.5,23.5,9.9c2.5,2.9,5.4,5.5,8.1,8.2
					C186.2,455.1,187.4,456.3,189.3,456.2z M152.2,420.4c7.9,1.2,15.5,3.3,22.4,7.5c5.3,3.3,10.9,6.1,16.4,9.1
					c0.8,0.4,1.6,1.2,2.5,0.2s0.1-2-0.6-2.7s-1.3-1.3-2.1-1.9c-7.1-5.8-15.2-10.4-23.8-13.5c-3.7-1.5-7.8-2-11.8-1.4
					C153.7,417.8,151.9,417.9,152.2,420.4z M291.5,219.2c-1.2,0.4-1.5,1.4-2,2.1c-6.3,8.4-10.3,18.3-17,26.5
					c-2.8,3.6-5,7.6-6.5,11.8c-0.6,1.7-2.5,4.2-0.1,5.2c3,1.3,3.1-2.1,3.8-3.8c3.8-9.8,8.7-18.8,16.3-26.2c2.4-2.3,4-5.3,5.9-8
					S293.7,221.8,291.5,219.2z M182,163.2l1.2-0.1c0-6.2,0.2-12.5,0-18.7c-0.4-12.1,3-23.4,6.6-34.7c0.2-0.5,0.3-1.2,0.6-1.4
					c3.9-2.1,3.1-6.1,3.8-9.4c1.4-6.8,2.6-13.5,3.9-20.3c-0.6,0.9-1.1,2-1.4,3.1c-2.6,8.6-4.9,17.4-8,25.9
					c-4.3,11.4-6.5,23.3-8.1,35.3C179.7,149.6,180.2,156.6,182,163.2z M122.3,263.9c-0.5-2.5-0.7-6.1-3-6.4
					c-3.4-0.3-7.4-0.3-10.4,1.8c-3.2,2.3-6.5,2.7-10.1,2.2c-2.7-0.3-5.4-0.6-8.1-1c3.1,1.9,6.8,1.3,10.2,3.5
					c-3.3,1.7-6.4,0.1-9.3,0.9c3,1.1,6,1.7,8.9,2.7c3.5,1.2,6-1.6,9-2.2C113.6,264.6,117.9,264.6,122.3,263.9z M170.2,165.5
					c-4,13.3-6.3,26.6-4.1,40.4C173.6,193.1,170.6,179.2,170.2,165.5L170.2,165.5z M213.7,326.8c-0.4-9.2,1.9-18.8-3.8-27.3
					c-0.4,3.4-0.8,6.6-1.4,9.9c-0.7,3.6-1.9,7.1-1.9,10.9c0,6.5-0.2,6.5,6.1,6.9C213,327.1,213.3,326.9,213.7,326.8L213.7,326.8z
					 M126.8,464.8c0.9-1.4,0.2-2.4-0.9-3.3c-9.6-7.8-18.4-16.5-27.3-25c-1-0.9-1.8-2-2.7-2.9c-0.6-0.6-1.4-1-2.1-0.4
					c-0.6,0.6-0.7,1.5-0.1,2.2c0.4,0.5,0.9,1,1.3,1.5c8.9,9.8,18.8,18.7,29.5,26.6C125.1,464,125.7,464.9,126.8,464.8L126.8,464.8z
					 M159.1,358.4c4.8-9,9.9-16.9,12.5-26.3c-3.3-0.3-6.1-1.7-8.9-2.9c-0.1,0.4-0.2,0.9-0.2,1.4c1.3,7.3,0.8,14.3-2.6,21
					C158.7,353.6,158.4,356.1,159.1,358.4z M366.6,208.3c-9.5,5.9-12.6,14.1-9.5,25.1C362.3,225.5,366.1,217.8,366.6,208.3z
					 M277.9,263.6c4.5-1.6,8.5-3.4,11-8c3.5-6.7,7.2-13.4,12-19.3c1-1.2,1-2.6-0.5-4.2C293.9,243.6,284.4,252.4,277.9,263.6z
					 M205.3,434.1c-5.2,11.7-7.2,25.6-2,33.3c0.4-4.8,1.8-8.9,2.9-13.1c0.3-0.9,0.3-1.8,0.1-2.7C205,445.8,204.6,439.9,205.3,434.1z
					 M403.2,241.5c3.1-9.2,2.3-17.6-0.3-25.9c-1.7,4.1-2.6,8.4-5.3,12.1c-0.3,0.4-0.4,1-0.2,1.5
					C398.9,233.1,400.1,237.3,403.2,241.5z M336.9,173.5c1.4,2.7,3,5.2,5,7.4c5.2-4.3,9.5-9.6,16.3-11.4
					C350.5,167.2,343.8,169.5,336.9,173.5L336.9,173.5z M335.1,177.2c-3.1,7.7-6.5,14.9-5.4,23.8c2.8-4.5,5.9-8,7.7-12.5
					C339.8,182.6,340,182.2,335.1,177.2L335.1,177.2z M394,215c0.3-0.6,0.6-1.2,0.8-1.9c2-10.7,0.1-21.1-2.8-31.4
					c-0.8-2.7-2.8-4.6-5.3-5.9c4.8,9.2,6,18.9,5.6,29C392.2,207.9,392.9,211,394,215z M117.2,252.8c-4.4-0.6-8.7-2.3-13.5-2.2
					c-4.9,0.1-9.2,1.6-13.9,4.9c6.7,0,12.4,0.3,18-0.3c3.3-0.3,6.6-0.9,9.9-1.3c1.6-0.2,2-1,1.8-2.4s-0.4-2.5-2.2-1.7
					C116.8,250.7,118.5,251.4,117.2,252.8z M162.5,224.1c-4.7,4.2-9.1,8.2-13.5,12.2c-1.5,1.4-0.6,2.6,0.4,3.8
					c3.1-0.7,5.6-2.6,8.3-4C162.6,233.6,164.1,229.8,162.5,224.1z M186.4,168.7c-1.3,7.3-0.8,14.7-1.8,22.1S182,205.5,181,213
					C189.1,199,187.2,183.8,186.4,168.7z M145.5,225.5c1.8-0.2,3.4-1.4,4.2-3c2.6-4.9,5.3-9.8,7.6-14.9c1.3-2.8,2.6-5.6,2-8.9
					C154.7,207.5,147.1,214.7,145.5,225.5L145.5,225.5z M127.2,243.5c3.3,0,6.5-0.8,9.4-2.4c4.6-2.4,5.1-3.4,3.6-8.8
					c-2.9,1.3-5.7,2.8-8.6,3.8C128.1,237.3,127,239.7,127.2,243.5L127.2,243.5z M186.4,153.8l0.8-0.1c1.6-13.1,3.2-26.1,4.8-39.2
					C186.2,127.2,185.6,140.4,186.4,153.8L186.4,153.8z M161.2,265.6l0.6-0.6c-0.6-0.9-1.2-1.7-1.8-2.5c-3.3-5-7.1-9.6-10.1-14.7
					c-0.6-1-1.1-2.3-2.7-1.6s-1.2,2.1-0.8,3.4c0.4,1.1,1,2.2,1.6,3.2C151.2,258.3,156.2,261.9,161.2,265.6z M376.9,208.8
					c4.5-7.6,7.5-19.1,6.4-24c-2,4.3-4.3,8.4-7,12.3c-0.5,0.7-0.6,1.5-0.4,2.3C376.6,202.2,376.4,205.2,376.9,208.8z M312.7,171.4
					c1.1,12.5-2.1,24.7-2.2,37.1C313.7,196.3,317.4,184.1,312.7,171.4L312.7,171.4z M381.3,209.3c-6.1,7.3-7.2,16.3-10.5,24.4
					C376.6,226.6,381.8,219.3,381.3,209.3L381.3,209.3z M224.3,403c-0.2,8.7,2.3,16.6,6.2,24.2C232.7,418,227.1,410.9,224.3,403z
					 M133.2,270.2c7.5,6.7,16,11.4,22.5,18.3c0.4-0.3,0.4-0.9,0.1-1.2c0,0,0,0,0,0c-4.6-7.4-11.2-12.7-18.6-17.2
					C136.1,269.4,135,269.7,133.2,270.2z M163.4,215.5c-3.6,3.8-7.7,6.9-11.7,10.1c-2.1,1.6-2.4,4.3-2.4,6.9
					C154.5,227.2,161.9,223.8,163.4,215.5L163.4,215.5z M167.3,228.5c7.7-4.6,11.2-11.5,10-19.8c-3,5.5-4.9,11.6-9.6,16.1
					C166.8,225.6,166.9,226.9,167.3,228.5L167.3,228.5z M324.7,181.8c-3.2-1.7-4.5-4.9-7.1-7.1c1,5.9,0.9,11.7,1.3,17.6L324.7,181.8
					z M220,355.5c2.1,2.9,1,6.6,2.6,9.6c0.5-6.1,0.6-12.1-2.2-18.2c-1.7,3.2-1.6,6.4-2.8,9.1c-1.4,3.2-1.2,6,1.5,8.6
					C219.5,361.5,218.4,358.4,220,355.5z M216,444.3c1.6-7.4-0.9-14-4.6-20.3C213.3,430.7,211.1,438.3,216,444.3z M120,240.4
					c-11,3.5-22.3,4-33,7.4c10.1-1.7,20.2-2.7,30.4-3.5C119.4,244,120.3,243.1,120,240.4z M153.3,220.4c9.1-5.1,11.5-10.6,7.7-17.4
					C159.7,209.3,156.1,214.1,153.3,220.4L153.3,220.4z M213.9,459.1c3.7-7.4,3.3-11.6-1.5-13.9C211.2,450,208.2,454.9,213.9,459.1
					L213.9,459.1z M230.1,450.9c-4-3.5-6.6-7.1-9.8-10.9C218.9,449.6,221.3,452.4,230.1,450.9L230.1,450.9z M345.4,189.4
					c4.6-5.6,9.1-10.4,12.6-16.8C353.1,174.2,344.6,185.5,345.4,189.4z M358.1,178.9l11.9-8.6C361.8,167.8,360,173.5,358.1,178.9z
					 M62.3,440.9c2.9-3.7,4.8-8,5.4-12.7C66,432.2,59,434,62.3,440.9z M127.6,251.3c3.9-1.7,7.6-2.9,11.7-5.5
					c-3.6-0.1-7.1,0.4-10.6,1.3C126.3,247.8,126.6,249.2,127.6,251.3L127.6,251.3z M331.3,154.9c-0.5-4.7-3.1-8.6-6-12.3
					C327,146.8,326.1,152.1,331.3,154.9L331.3,154.9z M336.6,163.5c0.2,2.5-0.4,4.5,0.6,6.7l7.7-3.4L336.6,163.5z M136.3,251.8
					l7.9,4.9l0.7-0.5c-1.5-2.1-1.8-4.7-3-7.1C139.9,249.6,138,250.5,136.3,251.8z M173.9,160.1c-0.5,6.2-0.4,12.5,0.5,18.7
					C175.2,172.5,175.1,166.2,173.9,160.1z M164.7,326.3c1.9,2.2,4.3,2.7,6.7,3.6c1.1,0.4,2.2,0.6,2.4-1s-0.9-1.7-2-1.8
					C169.4,326.9,167,326.6,164.7,326.3z M131.2,265c-2.3-2.7-4.6-5.4-6.7-8.1C125.4,260.8,126.2,264.7,131.2,265z M341.7,204.2
					c-2.5,3.1-4.3,6.6-5.3,10.4C338.5,211.3,342.3,208.9,341.7,204.2L341.7,204.2z M200.9,435.3c-2.9,1.1-3,1.6-1.9,7.9
					c0.6-2.1,1.2-3.7,1.6-5.3C200.9,437.1,201.5,436.2,200.9,435.3z M208.1,446.6c2.1-4.3,2.1-5.8-0.3-8.1
					C207.1,441.2,207.6,443.7,208.1,446.6z M218,322c-0.5,2.6-2.4,5.1-0.9,7.9C218.4,327.4,218.1,324.7,218,322z M329.4,158.1
					c0.8,2.6,1.2,4.6,2.9,6.2C332.9,161.7,332.6,159.7,329.4,158.1z M367.1,176.6c-1.5,1.1-4,1.2-3.9,4.8
					C365.4,180.1,366.7,178.8,367.1,176.6z M145.2,234.8c1.1-1.9,1.7-4,1.8-6.1C143.6,230.3,144.9,232.7,145.2,234.8z M250.8,22.2
					c-2.4,0.1-4.2-0.4-5.6,2C247.3,24.2,249.2,23.5,250.8,22.2z M226.4,27.8c-1.9,0.2-3.2,0.3-4.2,1.9
					C223.9,29.7,225.4,29,226.4,27.8z M427.2,199.8c0.3,1.6,0.6,3.1,0.9,4.7C428,202.9,428.8,201.2,427.2,199.8z M74.9,255.3
					c1.7,0,3.2-0.8,4.1-2.2C77.3,253.1,75.7,253.9,74.9,255.3z M251.4,26.1c-1.8,0.4-3.2,0.3-4.4,2.3
					C248.8,28,250.1,27.8,251.4,26.1z M385.3,169.4c0.6,1.1,1.2,2,2.7,1.9C387.9,169.2,387,168.7,385.3,169.4z M149.9,400.9
					c0.7-2-0.1-2.6-1.4-3.4C148.1,398.8,148.7,400.2,149.9,400.9z M204.1,422c0,1.4,0.2,2.3,1.3,3.1
					C205.6,423.8,205.6,422.9,204.1,422z M61.2,293.1c-1.3-0.8-2.1-0.6-2.5,0.9C59.6,294.3,60.6,294,61.2,293.1z M302.6,133.9
					c-0.4,0.9-0.5,1.6,0.6,2.1C304,135.1,303.4,134.5,302.6,133.9z M146.3,240c-0.2-0.2-0.4-0.6-0.7-0.7c-0.8-0.2-0.8,0.5-0.9,1
					c-0.1,0.4,0.2,0.7,0.6,0.8c0,0,0,0,0,0C146,241.2,146.2,240.7,146.3,240z M214.9,415.8h-0.2v1.3L214.9,415.8z M209.1,433.9
					c0.3-0.3,0.4-0.8,0.1-1.1c0,0-0.1-0.1-0.1-0.1c-0.3,0.3-0.4,0.8-0.1,1.1C209.1,433.8,209.1,433.8,209.1,433.9L209.1,433.9z
					 M122.7,250.5c0.1-0.1,0.2-0.1,0.2-0.1c0-0.2-0.1-0.4-0.1-0.6c-0.1,0.1-0.2,0.1-0.2,0.1C122.6,250,122.7,250.3,122.7,250.5z
					 M426.6,229.1h-0.2l0.1,0.3L426.6,229.1z M182.7,303.6l0.1-0.2h-0.2L182.7,303.6z M292.9,137.1h0.2l-0.1-0.3L292.9,137.1z"/>
				<path d="M436.5,603.9c-4.4-1-8.8-2-13.2-3.2c-3.8-1-5.7-3.7-6.2-7.5c-0.5-3.5,1.2-5.7,4.8-5.9s7.4,0.4,11.8,1.1
					c-1.8-1.5-3.3-1.4-4.6-1.7c-3-0.6-6-1-9-1.8c-5.3-1.4-7.6-4.5-7.1-9.9c0.2-2.3,0.1-3.9-1.8-5.6c-2.7-2.4-1.8-5.6-0.9-8.6
					c0.4-1.2,0.9-2.4,1.8-4.4c-3.6,1.4-6.4,1.7-8.6-1c-0.8-1-1.7-2-1.3-3.2c1.2-4.5,1.9-9.3,6-12.3c6.3-4.7,13-7.2,20.8-3.7
					c2.4,1.1,4.9,2.2,7.6,2v3.2c-4,0.5-7.4-1.8-11.1-2.8c-8.6-2.4-18.4,3.7-19.8,12.4c-0.4,2.4,1.2,3.8,3.6,3.2
					c1.4-0.5,2.7-1.2,3.7-2.2c1.5-1.3,3.4-2.2,5.4-2.4c4.7-0.4,9.3-0.3,13.7,1.7c1.4,0.7,2.9,1.5,4.5,1.4v5.6
					c-5.1,0.4-9.9-1.7-14.9-2.1c-5.5-0.4-8.1,1.3-9.4,6.7c-1,4.2,0.5,6.2,4.8,5.8s8.2,0.5,12.2,1.1c2.5,0.3,4.6,2.2,7.2,2.1v3.2
					c-1.6-0.5-3.3-1.1-4.9-1.6c-4-1.4-8.2-2-12.5-1.9c-1.3,0-2.6,0.1-3.4,1.6c-1.4,3,0.4,7.5,3.6,8.5c5.6,1.7,11.3,2.7,17.1,3v6.4
					c-4.2-1-8.6-1.6-12.9-1.5c-3.8,0.1-4.9,2-3.4,5.4c0.7,1.6,2.1,2.8,3.8,3.2c4,1.2,8.3,1.8,12.5,1.7L436.5,603.9z M434,555.7
					c-6.3-4.2-13.7-5-17.5-2C422.6,553.3,428.2,554.9,434,555.7z"/>
				<path d="M436.5,404.1c-2,0.1-3.1,2-4.8,2.7c-1.2,0.6-2.6,1.2-3.8,0.3c-1.4-1.1-0.5-2.5,0.2-3.6c3-4.7,4-10.1,6-15.2
					c0.5-1.3,0.5-3,2.3-3.4v8.8c-2.9,1.9-2.3,5.2-3.7,7.9c1.6,0.2,2.5-1.1,3.7-0.7L436.5,404.1z"/>
				<path d="M436.5,273.8c-1.6-0.4-2.2,0.1-1.9,1.8s-0.2,3.2-2,3.8c-2.2,0.6-2.3,3.7-5,4c-1.5-2-0.1-3.8,1-5.2
					c1.3-1.6,1.9-3,0.6-4.9c-0.4-0.7-0.6-1.5-0.5-2.3c-0.1-1.3,0.2-2.4,1.6-2.8c1.1-0.3,2.2,0.3,2.6,1.4c0.3,0.5,0.5,1,0.7,1.4
					c1.6,0.2,1.2-2.5,3-2L436.5,273.8z"/>
				<path d="M427,241c0.1,3.9,2.5,6.6,4.9,9.3c1.5,1.7,3.1,1,4.7,0.4v2.4c-3.7,0.2-4.4,3.9-6.8,6c-1.7-1.4-3-3.2-3-5.2
					c0-3.4-0.5-6.8-1.7-10C424.5,242.4,424.6,240.8,427,241z M430.1,255.1c1.6-1.2,1-2.1-0.4-2.9c-0.1-0.1-0.5,0.1-0.8,0.2
					C428.5,253.5,429,254.7,430.1,255.1L430.1,255.1z"/>
				<path d="M436.5,261c-1.5-0.1-1.4,2.2-2.9,2.1c-1.3-2.9-0.4-4.8,2.9-6.1V261z"/>
				<path d="M436.5,245.1c-0.4-0.4-1.4-0.4-1.3-1.2c0.1-0.5,0.8-0.5,1.3-0.4V245.1z"/>
				<path d="M288.9,550.5c16-8,32.7-8.6,49.3-8.8c7.1-0.1,14.3,1.4,21.4,2.3c3.9,0.5,7.4,2.6,9.8,5.7c2.1,2.6,1.7,4.3-1,6.3
					c-2.1,1.5-4.4,1.6-6.9,1.3c-4.9-0.6-9.8-1.4-14.7-1.7c-6.6-0.4-12.8,1.2-19.6,3.3c1.6,1,2.7,0.6,3.8,0.6
					c8.8,0.1,17.5-1,26.3,0.3c3.6,0.5,6.2,2.6,8.3,5.1c3,3.3,0.3,9.5-4.3,10.1c-4.1,0.7-8.3,0.6-12.3-0.2c-1.3-0.3-2.5-0.9-3.8-0.2
					c-0.2,1.5,0.7,2.5,1.4,3.6c3.1,5,2,9.2-3.1,11.9c-2.3,1.2-3.4,2.4-3.2,5.2c0.3,4.1-1.7,7-5.6,8.8c-3.3,1.5-6.6,2.7-10.4,2.5
					c-4.5-0.3-9.1,0.6-13.2,2.4c-2.4,1.1-5.1,1.3-8,1.9c1.9,7.7,3.7,15.2,5.5,22.6c2.1,8.7,4.5,17.3,6.2,26
					c1.7,8.5,0.7,17.2,1.7,25.9c-2.7,1.2-3.9,0.7-4-2.2c-0.1-6.5-0.1-13.1-0.8-19.5c-0.9-10-4.5-19.4-6.7-29.1
					c-6.5-28.8-13.6-57.5-20.4-86.2c-3-13-3.8-26.3-7.2-39.3c-0.3-1.6-0.8-3.1-1.5-4.5c-1.4,11.3-2.5,22.3-5.2,33
					c-4.4,17.3-5.4,35.3-9.2,52.7c-2.7,12.2-5.5,24.4-11,35.8c-1.2,2.7-1.8,5.7-1.7,8.7c1.8-1.9,3.3-4.1,4.5-6.5
					c4.1-7.3,6.1-15.3,8.2-23.3c2.9-11.1,6.6-21.9,8.1-33.4c0.6-4.9,3.4-9.1,6.1-13.3c0.4,0.5,0.4,1.2,0.1,1.7
					c-5.4,18.2-8.4,37.1-14.2,55.2c-2.7,8.6-6.1,16.8-12,23.7c-0.8,1.1-1.2,2.4-1,3.7c0.2,13.5-0.9,26.9-1.8,40.3
					c0,0.4-0.1,0.8,0,1.2c0,1.3-0.5,2-1.9,1.9s-1.4-1.1-1.3-2c0.3-4.5,0.4-9,0.9-13.5c1-10.9,1.1-21.8,1-32.7
					c0.1-5.5,1.3-10.8,3.6-15.8c4.9-11.3,7.8-23.2,10.1-35.2c2-10.7,3.4-21.6,5-32.3s4.8-21.3,6.4-32.1c1.1-7.1,1.6-14.3,3.3-21.3
					c0.4-1.5,0-3.5,2.3-3.6s2.5,2,2.9,3.6c4,14,5.7,28.4,8.3,42.7C287.9,546,288.4,548.1,288.9,550.5z M310.5,559.8
					c0.4-0.7,1.3-1,2-0.7c2.6,0.9,4.9,0.1,7.3-0.8c13.1-5.2,26.6-7.2,40.7-4c1.7,0.5,3.4,0.5,5.1,0.1c2.3-0.7,2.6-2.1,1-3.7
					c-2-2.2-4.7-3.6-7.7-4c-8.3-1-16.6-2.3-25-2.3c-8.7,0-17.3,1.2-25.8,2.6c-5.5,0.9-10.9,2.3-15.8,5.2c-1.8,1.1-2.7,2.3-2.1,4.5
					c4.6,16,7.9,32.3,11.5,48.5c0.8,3.4,1.3,3.6,4.7,2.8c0.7-0.1,1.3-0.3,1.9-0.6c5.3-2.5,11.2-3.6,17.1-3.3
					c3.9,0.1,7.2-1.6,10.3-3.8c2-1.4,1.9-3.7,1.7-5.8c-0.1-1.2-0.9-1.5-2-1.5c-6.8,0.2-13.6-1.4-20.3,0.7c-1.1,0.3-2.3,1-3.3-0.4
					c0.5-1.8,2.1-1.8,3.4-2.2c4.6-1,9.3-1.2,13.9-0.7c4.7,0.4,9.3,0.2,13.5-2.5c2.9-1.8,3.8-3.9,2.6-7c-0.6-1.5-1.4-2.9-2.5-4
					c-1.6-1.7-3.8-1.8-5.9-1.3c-1.2,0.2-2,1.2-1.8,2.4c0,0.2,0.1,0.4,0.1,0.5c1.2,1.4,3.7-0.2,4.4,2.3c-1,1.4-2.5,1.2-3.9,1.1
					c-3.1-0.1-6.1-0.1-9.2-0.5c-4.1-0.5-8.3-0.4-12.3-1.4c-1-0.3-2.2-0.4-2.5-1.7s0.9-1.8,1.6-2.5c2-1.8,4.5-3,7.2-3.2
					c11.9-1.8,23.9-1.9,35.8-0.2c1.6,0.3,3.2,0.1,4.7-0.4c3.5-1.2,4-3.6,1.5-6.3c-2.9-3-7-4.6-11.1-4.3c-6.3,0.1-12.5,0.2-18.8,0.3
					c-4.8,0.1-9.6,0.3-14.4,0.3C315.6,561.9,312.8,561.8,310.5,559.8L310.5,559.8z M317.2,577c3.7,1.6,7.5,1.3,11.3,1.6
					s3.9,0.2,4.6-4.3C327.6,574.5,322.3,574.7,317.2,577z"/>
				<path d="M340.7,376.8c0.3,6.7,2,13.3,5,19.3c2.4,4.6,3.7,9.7,7,13.9c0.5,0.6,0.9,1.4,0.1,2.1c-0.5,0.6-1.5,0.8-2.2,0.4
					c-3.8-2.1-7.7-4.3-11.5-6.4c-0.9-0.6-1.5-1.6-1.7-2.6c-2-6.3-4.1-12.6-6-19c-2.1-7.4-0.8-10.8,5.7-14.8c2.6-1.5,5.1-3.3,7.4-5.3
					c1.8-1.6,2.7-1.1,3.6,0.9c1.7,4,3.3,8.1,5.3,12.1c5.8,11.8,11.4,23.7,17.6,35.3c1,1.9,3.2,3.9,1.8,6.2s-3.9,0.3-5.9,0.5
					c-3.6,0.2-5.6-1.8-7.8-4.5c-7.9-9.9-11.3-21.9-15.8-33.4c-0.5-1.2-1-2.5-1.5-3.7C341.6,377.4,341.3,377.3,340.7,376.8z
					 M368.7,415.9c-6.2-17-15.3-32.3-22.8-48.3c-2.5,0.9-4.3,1.7-3.4,4.4c4.9,14.2,9.1,28.6,18.5,40.8
					C363.1,415.3,365.2,416.5,368.7,415.9z M346.9,406.7c-2.1-6.1-5.3-11-7-16.6s-1.8-11.5-1.5-17.9c-5.2,3.3-6.3,5.3-4.9,10.5
					c1.8,6.5,4,12.9,6.3,19.3C340.8,404.9,343.6,405.7,346.9,406.7L346.9,406.7z"/>
				<path d="M113,353.1c-5.1-2.8-6.2-2.6-11.2,2.3c0.5,1.1,1.7,1.1,2.5,1.6s1.8,0.7,1.8,1.9c-4.3,0.4-7.3-2-7.1-5.6
					c-2.3,0.4-2.7,1.7-1.7,3.7c1.3,2.5,2.8,4.8,4.4,7.1c0.7,1,2.1,1.7,2,3.5c-6.7-0.7-11-5.1-14.9-9.6c-2.7-3.2-1.1-6.4,3.1-7.2
					c5.5-1,11.1-0.9,16.6-1.1c2.7-0.1,5.3,0.9,7.3,2.8c2.2,2,4.4,3.9,6.5,5.7c-1.8,3.8-3.6,4.8-7.5,4.2c1-2.4,4-2,5.4-4.1
					c-2.3-2-4.5-4.3-7.5-5.3L113,353.1z"/>
				<path d="M278,679.2c4-4.3,9.7-5.6,14.9-9.4c-2.8-0.2-5.5,0.3-8,1.5c-8,3.2-15,8-22,12.9c-1.4,1-2.8,2.5-5.4,1.5
					c9.3-6.7,18-13.5,28.6-17.1c3.3-1.1,6.8-1.5,10.3-1.1c1,0.1,1.9,0.4,2.1,1.5c0.1,0.8-0.3,1.6-1.1,1.9c-5.7,2.7-11.3,5.3-17,8
					C279.5,679.1,278.8,679.2,278,679.2z"/>
				<path d="M91.8,346.3c2.2-3.3,5.7-4.1,9.2-4.6c7.4-1.2,14.9-2.2,20.8,4.2c1,1.1,3.4,0.1,3.6,2.7c-2.5,0.2-4.1-1.7-6-2.4
					c-3.8-1.3-7.8-1.6-11.7-0.7C102.5,346.3,97.2,346.6,91.8,346.3L91.8,346.3z"/>
				<path d="M101.4,399.4c-1.3,1.3-2.2,2.6-4.4,1.1c-1.9-1.3-4.3,0-6.5,0.1c-2.6,0.1-4.6-0.3-6.1-2.6s-0.8-5,1.9-4.9
					c5.2,0.1,10.2,1.8,14.4,4.9C101.1,398.2,101.2,398.7,101.4,399.4z"/>
				<path d="M66.7,342.1c-0.2,1.2,0.9,2,0.3,3c-1.1,0.4-1.4-0.5-1.7-1.1c-1.7-2.8-1.6-3.1,1.9-5.1c-2.4-2.5-4.2-5.7-8.6-6.7
					c2-0.9,4.4-0.5,6,1c4.4,3.6,8.5,7.7,12.1,12.1c0.9,1.1,2.1,2.6,0.2,3.7c-1.7,0.9-2.7-0.5-3.5-1.8c-0.4-1-0.8-2-1.1-3
					C71,341.5,69.6,341,66.7,342.1z"/>
				<path d="M268,686c5.7-5.3,21.7-6.1,29.1-1.6c-5.1,0-9.7,0-14.3,0C278,684.4,273.4,686,268,686z"/>
				<path d="M134.3,428.7c-5.9,3-19.5-2.2-21.2-7.5c0.3-0.2,0.7-0.3,1.1-0.4c0.4,0,0.8,0,1.1,0.2
					C120.9,425.2,127.7,426.5,134.3,428.7z"/>
				<path d="M114.1,403.7c-5.7,2.1-12.1-1.8-11.6-6.9c3.4,0.5,3.4,0.5,5.3,2.3c1-0.4,0.3-1.1,0.2-1.6c-0.2-0.5-0.1-1.1,0.2-1.5
					C109.7,394.9,112.6,398.6,114.1,403.7z"/>
				<path d="M106.6,419.9l16.8,11.2C118.3,433.4,108.3,426.9,106.6,419.9z"/>
				<path d="M80.1,402.6c1.4,0.1,2.8,0.5,4.3,0c6.8-2.1,13.4-0.4,19.9,1.6c0.5,0.2,1,0.4,1.4,1.6c-4.5-0.9-9.2-1.3-13.8-1.1
					c-3.2,0.1-6.4,0.6-9.4-0.9c-0.8-0.4-1.6-0.9-2.4-1.4L80.1,402.6z"/>
				<path d="M123.2,309.5c7.3,2.4,14.3,5.3,20.2,10.4l-0.6,1.2l-20.4-10L123.2,309.5z"/>
				<path d="M277.3,554.8c5.1,2.5,4,15-1,20.8c-1.4-0.6-0.9-1.7-0.6-2.7c0.8-2.4,1.8-4.7,2.4-7.1C279,562.4,279.9,558.9,277.3,554.8
					z"/>
				<path d="M309.8,685.7c-3.8,0.5-6.3-1.2-8.5-6.1C305.6,680.1,307.5,683,309.8,685.7z"/>
				<path d="M81.1,389.9c4.4-1.6,8.8,1.7,13.2-0.3C90,393.5,85.4,390.2,81.1,389.9z"/>
				<path d="M79.4,397.9c-1.9,0.5-2.5-0.4-2.3-1.6c0.2-1.4,0.7-3.1,2.5-3c1.4,0,2.6,1,2.7,2.5C82.3,398.1,80.6,398.2,79.4,397.9z"/>
				<path d="M112.8,353c0.1,2,2.1,2.5,3.2,3.9c-0.9,1.7-2,1.6-3.3,0.8c-1.4-0.9-2.4-2.2-2.1-3.9c0.2-1.3,1.4-0.8,2.3-0.6L112.8,353z
					"/>
				<path d="M75.8,393.8c-0.2,0.9-0.4,2.1-1.5,2s-2.8-0.4-3-1.9c-0.2-0.9,0.4-1.8,1.3-1.9c0.2,0,0.4,0,0.6,0
					C74.2,392.1,75.7,392.2,75.8,393.8z"/>
				<path d="M73.9,353.8c0.8-1.8,2.4-3.1,4.3-3.4C78,352.8,76.4,353.5,73.9,353.8z"/>
				<path d="M95.3,381.9c1.8,0.7,2,1.9,1.5,3.3c-0.2,0.4-0.7,0.7-1.1,0.5c-0.1,0-0.2-0.1-0.2-0.1C94.1,384.6,94.3,383.4,95.3,381.9z
					"/>
				<path d="M136.2,320.8c-1.9,0.3-3-1-3.9-2.6L136.2,320.8L136.2,320.8z"/>
				<path d="M76.2,400.1c1.4,0.7,3,1.1,3.9,2.5l0.1-0.1c-1.6-0.2-3-1.1-3.9-2.5L76.2,400.1z"/>
				<path d="M76.3,400c-0.5,0-1,0.1-1.2-0.5c0.7-0.3,0.8,0.4,1.1,0.6L76.3,400z"/>
				<polygon points="140.9,325.7 140.8,325.7 140.9,325.8 				"/>
				<polygon points="91.9,346.2 91.9,346.5 91.8,346.3 				"/>
				<path d="M395.8,270.7v5.1c-3.3,1.4-4,1.2-6.4-1.5c0.4-1.6,2.1,0.1,2.5-0.9c0.5-1.2,0.9-2.6,0-3.8s-1.9-0.5-2.9,0
					c-1.9,0.9-4.2,1.6-3.8,4.4c0.3,2.5,2.5,2.9,4.4,3.4c2.6,0.6,5.3,1,8.2,1.6c-2,0.8-4,1.7-6,2.5c-2.5,1-3.7,2.5-2.2,5.2
					c0.5,0.9,1.3,2,0.1,2.8c-1,0.7-2,0-2.9-0.6c-2.4-1.7-4.5-3.8-6-6.3c-2.2-3.5-1.1-8.3,2.7-11.4c5.1-4.1,11.2-5.5,17.5-5.3
					c4.6,0.1,7,2.5,7.5,6.4c-2.7,0.3-4.5-2.2-7.1-2.3c-0.6,1.5,2,1.7,1.2,3.4C400.5,272.5,399.2,269.6,395.8,270.7z"/>
				<path d="M348.3,276.9l-0.6-3.4c-1.2-0.9-2.7,0-3.8-1c-0.5-1.7,1.5-1.6,2-2.9c-2.4-1.7-5.2-3-8.1-3.6c-3-0.9-5.8,1-9.4,1.4
					c1.9-3.5,4.6-5.1,7.4-4.7c7.8,1.1,15.8,2.2,21.7,8.4c1.4,1.4,2.3,3.2,2.7,5.2l-1.7-0.6c1.4,4.7,0.8,6.3-3.8,8.4
					c-2.4,1.1-4.6,3-8,2.4c3.7-2.9,5.8-6.8,9.4-8.7c0-1.1-0.5-2.1-1.5-2.7c-1.4-1.2-2.9-2.3-3.9,0.5c-0.4,1.2-1.7,1-2.7,1.3
					L348.3,276.9z"/>
				<path d="M382.2,267.7c2.8-3.5,5.9-5.7,10-6.6c2-0.4,3.6-1.7,5.2-2.9c2.7-2,5.5-2.6,8.5-1.1c1.9,1,4.5,0.5,5.9,2.2
					c-0.2,1-0.8,1.2-1.2,1.1c-4.6-0.8-8.5,1.1-12.5,3.1C393.1,266,387.9,267,382.2,267.7z"/>
				<path d="M368.2,327.7c1.3-1.7,3.2-1.2,4.8-1.3c5.9-0.4,11.9-0.6,17.8-0.4C383.3,327.6,375.6,326.6,368.2,327.7L368.2,327.7z"/>
				<path d="M369.5,339.2c4.1-2.5,5.8-2.2,8.6,1C375.2,341.5,372.9,339.4,369.5,339.2z"/>
				<path d="M365.5,355.9c1.4-0.6,3.1-0.6,4.4,0.2c0.8,0.4,1.2,1.3,0.8,2.1c0,0.1-0.1,0.2-0.2,0.3c-0.3,0.7-1,1-1.7,0.7
					c-0.1,0-0.2-0.1-0.3-0.2C367.6,358.1,365.7,358,365.5,355.9z"/>
				<path d="M389.9,356c-1.8-0.6-3-2.2-3.1-4.1c-0.1-0.7,0.2-1.3,0.9-1.6c0.6-0.3,1.4,0,1.7,0.6C390,352.5,391,354,389.9,356z"/>
				<path d="M348.2,276.8c1.8,1.7,3.6,0.3,5.8-0.2c-2.6,3.4-4.4,3.4-7.8,0.5l-0.1,0.1l2.3-0.3L348.2,276.8z"/>
				<path d="M378.5,354.4c1,0.1,1.7,0.9,1.7,1.9c0,0.1,0,0.2-0.1,0.3c-0.1,0.9-0.4,2-1.5,1.9s-1.6-1.2-1.7-2.3
					c-0.1-0.9,0.5-1.7,1.5-1.8C378.4,354.4,378.5,354.4,378.5,354.4z"/>
				<path d="M394.5,353.9c-2.3-0.4-2.9-1.7-2.5-3.6c0.1-0.5,0.6-0.8,1.1-0.7c0.1,0,0.1,0,0.2,0C395.1,350.5,395.5,351.9,394.5,353.9
					z"/>
				<path d="M375.7,350.6c-2.9,0.2-3.1-1.9-3.9-4.3c2.7,0.8,4.1,2,3.8,4.5L375.7,350.6z"/>
				<path d="M341.1,271.1c-1.6,1.3-3.1,2.8-5.3,3.3C336.6,272,336.6,272,341.1,271.1z"/>
				<path d="M396.8,344.9c1.1,0,2,1,2,2.1c0.1,0.9-0.3,1.6-1.3,1.6c-1.1,0-2-0.9-2-2c0,0,0,0,0-0.1
					C395.4,345.8,396,345.1,396.8,344.9C396.8,344.9,396.8,344.9,396.8,344.9z"/>
				<path d="M428,264.6c-1.9-2.6-2-4.4-0.8-6.9C428.2,259.9,428.5,262.3,428,264.6z"/>
				<path d="M403.4,344.1c-2.1-0.6-2.9-1.6-2.4-3.4c0.2-0.5,0.8-0.8,1.3-0.6c0,0,0,0,0.1,0C404.1,341,404,342.3,403.4,344.1z"/>
				<path d="M384.4,356c-1.6-0.8-2.2-1.7-1.5-3.2c0.2-0.5,0.7-0.7,1.2-0.5c0,0,0.1,0,0.1,0.1C385.5,353.3,385.7,354.5,384.4,356z"/>
				<path d="M371.2,316l3.8-0.5l-0.1-0.1c-2.2,0.7-1.9,3.1-3,4.8c-1.8-1.4-0.7-2.9-0.5-4.2L371.2,316z"/>
				<path d="M370.4,351.3c-0.1,1-0.5,1.4-1.2,1.5c-0.7,0.1-1.4-0.5-1.5-1.2c-0.1-0.7,0.5-1.4,1.2-1.5
					C369.9,350.1,370.2,350.8,370.4,351.3z"/>
				<path d="M357.2,349.3c-0.8-0.1-1.4-0.8-1.3-1.6c0-0.1,0-0.1,0-0.2c0-0.7,0.6-1.1,1.3-1.1c0,0,0.1,0,0.1,0c0.7,0,1.3,0.6,1.3,1.3
					c0,0.1,0,0.3-0.1,0.4C358.5,348.8,357.9,349.3,357.2,349.3C357.2,349.3,357.2,349.3,357.2,349.3z"/>
				<path d="M362.4,348.8c0.8,0,1.3,0.6,1.3,1.5c0,0.7-0.2,1.4-0.9,1.5c-1.1,0.1-1.6-0.7-1.7-1.7
					C361.1,349.4,361.5,348.9,362.4,348.8z"/>
				<path d="M383.3,317.3c0.7,0,1.2,0.6,1.3,1.2c0.1,0.7-0.1,1.4-1,1.3c-0.7-0.1-1.2-0.7-1.2-1.4
					C382.3,317.8,382.7,317.3,383.3,317.3C383.3,317.3,383.3,317.3,383.3,317.3z"/>
				<path d="M351.5,345.4c0.3-0.2,0.7-0.4,1-0.6c0.7-0.6,1.4-0.8,2-0.1c0.4,0.3,0.4,0.9,0.1,1.3c0,0-0.1,0.1-0.1,0.1
					c-0.7,0.7-1.4,0.4-2.1-0.1C352.1,345.7,351.8,345.5,351.5,345.4L351.5,345.4z"/>
				<path d="M344,281c-1.5-0.4-2.6-1.7-2.8-3.2C342.5,278.5,343.5,279.6,344,281z"/>
				<path d="M407.5,337.1c0.5,0.1,0.9,0.6,0.9,1.1c0,0,0,0,0,0c0,0.7-0.5,1.2-1.3,1c-0.5-0.2-0.8-0.7-0.7-1.2c0,0,0,0,0,0
					C406.4,337.5,406.9,337.1,407.5,337.1C407.5,337.1,407.5,337.1,407.5,337.1z"/>
				<path d="M398.5,331.1c0.5-0.1,1.1,0.3,1.2,0.8c0,0,0,0,0,0c0.1,0.5-0.2,1.1-0.7,1.2c-0.1,0-0.3,0-0.4,0c-0.6,0-1-0.4-1-1
					C397.5,331.7,397.9,331.2,398.5,331.1C398.5,331.2,398.5,331.2,398.5,331.1z"/>
				<path d="M391.4,321.3c-0.5,0-1-0.4-1.1-0.9c-0.1-0.5,0.2-1,0.7-1.1c0.1,0,0.1,0,0.2,0c0.5-0.1,1,0.2,1.1,0.7c0,0,0,0.1,0,0.1
					C392.3,320.7,392,321.2,391.4,321.3C391.4,321.3,391.4,321.3,391.4,321.3z"/>
				<path d="M416.3,323.3c-0.2,0.1-0.6,0.4-0.9,0.3c-0.4,0-0.7-0.4-0.6-0.8c0-0.1,0.1-0.2,0.1-0.3c0.2-0.3,0.5-0.4,0.9-0.4
					C416.3,322.2,416.5,322.6,416.3,323.3z"/>
				<path d="M414.7,327.2c0,0.4-0.3,0.8-0.8,0.8c-0.1,0-0.2,0-0.3,0c-0.3-0.1-0.7-0.5-0.7-0.8c0.1-0.4,0.3-0.7,0.7-0.8
					C414.3,326.3,414.6,326.6,414.7,327.2z"/>
				<path d="M358.8,351.8c0,0.4-0.3,0.8-0.7,0.8s-1-0.3-0.9-0.9c0.1-0.3,0.5-0.5,0.9-0.6S358.7,351.3,358.8,351.8z"/>
				<path d="M380.4,319c0,0.3-0.2,0.5-0.5,0.5c-0.1,0-0.1,0-0.2,0c-0.3-0.1-0.6-0.4-0.7-0.7c-0.1-0.5,0.2-0.7,0.6-0.6
					C380.1,318.2,380.4,318.6,380.4,319z"/>
				<path d="M397.4,326.1c0,0.4-0.4,0.6-0.8,0.6c-0.4,0-0.7-0.3-0.7-0.7c0,0,0,0,0-0.1c0-0.4,0.2-0.7,0.6-0.7c0,0,0.1,0,0.1,0
					C397.1,325.3,397.4,325.6,397.4,326.1z"/>
				<path d="M368.1,327.7l-3.4,0.4C365.7,327.4,367,327.3,368.1,327.7L368.1,327.7z"/>
				<path d="M374.1,353.1c-0.1,0.2-0.2,0.7-0.4,0.7c-0.6,0-0.9-0.4-0.9-0.9s0.2-0.7,0.6-0.7S374.1,352.5,374.1,353.1z"/>
				<path d="M354,324.9l-0.3,0.6l-0.6-0.3c0.1-0.2,0.1-0.5,0.3-0.6S353.8,324.8,354,324.9z"/>
				<path d="M367.2,320c-0.2-0.1-0.5-0.3-0.5-0.4c-0.1-0.3,0.1-0.6,0.4-0.7c0.1,0,0.1,0,0.2,0c0.2,0,0.4,0.3,0.4,0.4
					c0.1,0.3,0,0.6-0.3,0.7C367.3,320,367.2,320,367.2,320z"/>
				<path d="M357.3,321.7l0.5,0.5c-0.2,0.1-0.4,0.2-0.6,0.3c-0.1,0-0.3-0.2-0.3-0.2C357,322,357.2,321.8,357.3,321.7z"/>
				<path d="M417.1,311.5l0.7,0.3c-0.1,0.2-0.2,0.5-0.3,0.6s-0.4-0.1-0.6-0.3C416.9,311.9,417,311.7,417.1,311.5z"/>
				<path d="M387.4,320.5c-0.2,0-0.4,0-0.7,0c0-0.1,0-0.2,0-0.3c0.2,0,0.4,0,0.6,0C387.4,320.2,387.4,320.4,387.4,320.5z"/>
				<path d="M375.6,350.7c0.5-0.3,0.9-0.3,1.3,0.2c0.1,0.1-0.1,0.5-0.3,0.5c-0.7,0.2-0.9-0.3-0.9-0.8L375.6,350.7z"/>
				<path d="M381.4,348.4c0,0.1,0,0.2,0,0.2c-0.1,0.1-0.2,0.1-0.3,0.1c-0.3-0.1-0.3-0.3,0-0.4C381.2,348.3,381.3,348.4,381.4,348.4z
					"/>
				<path d="M371.3,316c-0.7,0.2-1.4,0-1.8-0.5l-0.1,0.1L371.3,316L371.3,316z"/>
				<polygon points="368.7,314.3 368.5,314.3 368.6,314.4 				"/>
				<polygon points="375.7,314.4 375.8,314.3 375.6,314.3 				"/>
				<path d="M369.4,315.4l-0.8-1.1l-0.1,0.1l0.8,1.1L369.4,315.4z"/>
				<path d="M375.6,314.3l-0.8,1.1l0.1,0.1l0.8-1.1L375.6,314.3z"/>
				<path d="M346.2,277.1v-0.2V277.1L346.2,277.1z"/>
				<path d="M249.9,174.3c1.6-0.5,2.5-1.8,3.4-3.1c0.6-0.9,1.3-1.4,2.3-1.1c0.8,0.3,1.2,1.2,1.1,2c0,2,0,4,0,6.8
					c1.1-1.9,1.8-3.9,2-6.1c0.3-1.3,0.1-3,2-2.9s1.7,1.8,1.8,3.1c0.3,1.8,0.5,3.6,0.7,5.6c3.1-4.1,2.3-8.4-3.3-13.3
					c-1.1,0.1-0.3,1.5-1.5,1.8c-1.3,0.1-1.7-1.2-2.1-2.2c-1.4-3-2.2-6.3-2.3-9.6c0-1.6,0.1-3.1,2.8-2.3c-1.1-2-1.9-2.6-4-2.5
					c-2.2,0.1-5.4,0.1-5.5-4.2c0,4.6-3.8,4.9-6.8,7.4c-0.8-4.5,1.3-7.8,3.5-10.2c2.7-3.1,7.1-2.9,10.8-2c3.4,0.8,5,4,6.2,7
					c-1.5,1.5-2.8-0.6-4,0.4l0.1-0.2l-0.1,0.1c1.5,1,1.1,2.6,1.3,4c1.6-0.2,2.9,1.4,4.8,0.3c1-0.6,1.7,1,2.4,1.8
					c2,2.7,4.3,5.1,6.9,7.1c1.1-1.5,1.7-2.7-0.5-3.4c-1.9-0.7-3.5-2-4.6-3.6c-0.8-1-2.3-2-1.2-3.8s2.5-2.9,4.8-1.9
					c0.6,0.5,1.3,0.6,2,0.2l0.6,1.3l2.2,0.3c-0.7,1.3-0.2,1.8,1,2c0.5-1.3-0.9-1.3-1.1-2l-2.2-0.2l-0.6-1.3c-0.6-0.2-1.3-0.7-2-0.3
					c-0.5-2.3,1.5-3.9,1.1-6.6c4.4,2,8.3,3.3,9.6,8.4s3.2,9.9,3.9,15c0.5,3,0.1,5.7-3,7.4c-1.8,0.9-0.3,3-1.5,4.5
					c-3.9-0.8-3.7,5.2-7.7,5c-0.2-0.2-0.5-0.5-0.5-0.6c1.9-3.2,0.5-6.3,0-9.5c-0.5-3-0.7-6.1-1.1-9.5c-3.6-0.2-5.5-3.3-8.4-5.3
					c1.3,2.6,2.5,5.1,3.8,7.6c-1.4,0.6-1,1.6-0.4,3.1c0.1-1.5,0.2-2.3,0.3-3.2c1.4-0.2,2.8-0.2,3.2,1.4c1.2,4.6,2,9.3,1.3,14.2
					c0,0.3-0.5,0.6-0.7,0.8c-1.8-0.1-1.2-2.3-2.6-2.7c-0.9,1.2-0.7,2.6-1,3.9s-0.2,3.3-2.2,3.3c-2.1,0.1-1.4-2.2-2.2-3.4
					c-1,0.9-2.3,0-3.3,0.4c-0.9,1.4-0.5,3.3-2.7,4.6c-0.1-3.2-2.3-4.9-3.7-7.3c-2.7,4.3-7.4,3.5-11.3,4.6c-0.6,0.2-0.9-0.4-1.3-0.8
					c-2.3-2.5-2.4-11.2,0.1-14.7c2.2,3.1,0.5,6.9,2.4,10.2c1.6-8.3,1-16.4,2-24.5c2.1,0.5,1.4,1.8,2,2.5c3.6,0.9,2.9-2.7,4-4.3
					c2.8,3,4,11.4,2.1,14.4c-0.2,0.5-0.5,0.9-0.9,1.2C249.6,171.4,249.5,171.4,249.9,174.3c-0.9-0.1-1.7-0.9-3-0.7
					c-0.6,2.6-0.8,5.2-0.5,7.8C248.1,179.1,247.8,176.1,249.9,174.3z M277.1,166.6c-0.5,5.6-0.5,5.6,0.8,8
					C279.1,171.5,277.9,169.1,277.1,166.6z M277,163.6c1.7-2.5,1.7-3.2-0.4-7.2C276.8,159,276.3,161.2,277,163.6L277,163.6z
					 M270.1,153.4c0.9,1,1.5,2.6,3.7,2.2C273,153.8,271.6,153.6,270.1,153.4L270.1,153.4z M277,148.9l-0.3-0.2v0.2L277,148.9z"/>
				<path d="M225.8,146.3c1.6-0.9,2.2,0,1.4,1.2c-1.7,2.8-2.6,6.3-5.8,7.9c-1.3,0.6-1.4,1.8-1.9,2.9c-1.4,3.2-2.8,6.3-4,9.6
					c-1.5,4-5.8,6.4-6.1,11.3c-2.8-7.3-0.6-14.6-0.9-21.8c-2.6-0.3-3.2,1-3.3,3.1c-0.2,4,0,8,0.5,11.9c0.1,1,0.8,2-0.5,3.3
					c-2.8-3.2-3-7-3-10.7c0.1-16.9,2-24.6,11.9-33.7l-3.8,6.6c-0.5,0.6-0.6,1.6-0.2,2.3c-1.2-0.2-1.6,0.9-2.4,1.4l0.1,0.7l-0.1-0.8
					c1.1,0,1.5-1,2.3-1.4l0.2-2.3c1.9,0.1,2-1.8,3.1-2.7c1.2-1,1.8-2.8,4.4-3.4c-2.9,4.1-2.3,8.4-2.8,12.4l0.2,0.2l-0.1-0.3
					c4,0.8,4.6,2.1,2.6,5.5c-1.2,2.1-2.4,4.1-3.8,6c-3,4-2.8,8.5-2.4,13.8c2.9-4.7,4.3-9.2,6.3-13.5s2.5-9.2,6.3-12.2
					c1.9,0.3,1.1,1.9,1.9,2.5l-0.2-0.1C226.2,146.2,225.6,145.8,225.8,146.3z M221.1,153.2l-0.1-0.5c-0.1,0.1-0.3,0.1-0.3,0.2
					c0,0.2,0.1,0.4,0.1,0.5L221.1,153.2z M206.1,154.6l-0.1-0.3c-0.1,0-0.2,0.1-0.2,0.2c0.1,0.2,0.2,0.3,0.3,0.4L206.1,154.6z"/>
				<path d="M240.7,157.2c-2.2,6.1-4.2,12.2-4,18.8c0.1,3.2,0.6,6.6-0.6,10.1c-1.6-0.9-3.3-1.7-4.1,1.7c-3.3-6-0.8-11.1-0.7-16.2
					c-0.1-0.2,0.6-0.5,0-0.6l0.1,0.7c-2.8,2.4-4,5.8-5.6,8.9c-0.6,1.1-0.6,2.6-2.2,3.4c-1.7-1.1-1.2-2.6-0.7-4.1
					c0.9-2.4,2.2-4.6,3.9-6.5c2.2-2.9,3.2-6.5,2.6-10.1c-3.6,2.4-1.9,7.1-4.9,9.6c-2.6,2.2-3.9,5.9-7.7,7.3c-1-5,5.5-7,3.8-12.1
					c-2.4,2.9-3,6.8-6.1,9.1c-0.5-3.8,8.9-22.4,13.7-26.9c-0.4,3.5-3.1,6.2-4.3,10.1c3.7-1.2,3.2-5.3,6.1-6.3c1,1.6-1.5,3,0,4.7
					c2.2-0.5,1.4-3.7,3.8-4.1c1.4,0.5,0,1.9,0.6,2.7c1.7,0.8,2.9,0.8,4.2-1.1s1.9-0.5,2.1,0.9L240.7,157.2z M236.1,161.6l0.1-0.3
					c-0.2,0-0.4,0-0.6,0c-0.1,0-0.1,0.2-0.2,0.3L236.1,161.6z"/>
				<path d="M281.4,127.3c1.2,2.7,2.4,5.3,3.6,8c0.2,0.4,0.2,1,0.5,1.1c4,1.7,4.5,5.5,5.7,8.9c0.4,1.1,1.7,1.2,2.4,2
					c1.1,1.1,2.5,2.1,2.4,3.9c-3.3,0.4-6-0.9-7.3-3.8c-0.8-1.7-1.2-3.5-1.9-5.2c-0.5-1.1-0.5-2.6-2.7-2.9c1.2,4.4,2.3,8.6,4.4,12.4
					s5.9,6.3,8.9,9.8c-1.6,1.2-4,1.5-2.4,3.9c-2.1,0.7-2.8-1.1-4.3-1.1c-0.5,2.3,0.8,4.9-1.2,7.2c-1.2-1-1.8-2.5-1.8-4
					c-1-8.9-3.5-17.4-6.4-25.9c-0.6-1.9-1.3-3.8-0.4-5.8c0.9-2.2-1-3.7-1.7-5.5c-0.8-2.3-0.3-3.4,2.3-2.8L281.4,127.3z"/>
				<path d="M231,90.8c-1.4-1.2-3.2-1.9-5-2.2c-1.8-0.4-3.7-0.3-5.5,0.1c-1.7,0.4-3,2.1-5.7,1.8c3.7-3.8,7.5-5,12.1-4
					c1.4,0.3,2.6,1.3,4.2,1c0.1,0.3,0.2,0.4,0.2,0.1H231c0-0.3,0.1-0.6,0-0.8c-2.2-3.1-6.2-3.5-9.2-5.4c-2.5-1.6-6.7,0.1-9.9,1.6
					c-1.9,0.9-3.4,2.4-5.6,2.6c-0.9-1.5,0-2.3,0.9-2.8c3.1-2,5.9-4.6,9.6-5.5c2.6-0.7,4.6-2.5,7.2-3.3c3.3-0.9,5.9-0.9,8.2,1.8
					c0.4,0.6,1,1,1.7,1.1c1.1-0.7,0.6-1.9,0.9-2.8s0.3-2.3,1.8-2.1s1.2,1.6,1.3,2.6c0.3,3.5-0.9,5.1-4.4,5.4
					c-1.6,0.1-2.6,1.9-5.3,1.2c3.8,1.7,6.4,3.2,6.9,7.2L231,90.8L231,90.8z"/>
				<path d="M255.1,120.7c2.6-5,3.4-5.7,7-6.3c-0.1,1.9-2.4,1.9-2.9,3.4c2.4,0.8,4.5-1.8,7.1-0.8c-0.3,1.8-2.3,1.2-3,2.2
					c0.3,0.5,1,0.8,1.6,0.6c3.2-0.3,5.4,1,6.6,4.3c0.3,0.8,0.4,1,1.1,1c2.3,0,4.2,0.2,2.7,3.3c-0.1,0.5,0.1,1.1,0.5,1.4
					c4.9,3.2,2.6,8.8,5,12.9c-3,1.2-4.6-0.2-6.2-1.8c2.8-3.8,2.5-5.6-1.7-8.1c-4.7-2.8-8.5-6.9-13.7-8.8
					C257.6,123.5,257,121.2,255.1,120.7z M267.1,122.8c0.2-0.5-0.1-0.8-0.6-0.8c-0.2,0-0.6,0.3-0.5,0.4c0,0.4,0.2,0.9,0.4,1
					C266.9,123.7,267,123.1,267.1,122.8L267.1,122.8z"/>
				<path d="M198.6,170.6c-5.2-4-4.8-25,0.4-32.7c1.3-0.5,0.8,1.7,2.2,1.3c3.8-5.2,8.2-9.8,13.2-13.9c0.5,2.7-1,3.4-1.9,4.4
					c-3.6,3.9-7.4,7.6-10,12.3c-0.8,1.4-1.4,2.8-1.7,4.4c-1.5,7.2-3,14.3-1.8,21.7C199.3,168.9,199.1,169.8,198.6,170.6z"/>
				<path d="M270.2,139.8c-1.6,0.7-2.4-0.2-3.2-0.8c-3.1-2.3-6.3-4.5-9.6-6.4c-2.9-1.8-5.6-2.3-8.6-0.7c-1.5,0.9-3.2,1.3-5,1.2
					c-6.3-0.9-10.6,2.6-14.6,6.6c-0.5,0.5-0.9,1-1.4,1.4c-0.3,0.2-0.6,0.3-0.9,0.4c-0.4-1.5,0.5-2.5,1.4-3.4
					c4.1-4.2,8.3-7.9,14.8-7.2c2,0.2,3.9-0.7,5.7-1.4c2.9-1.4,6.4-1.1,9.1,0.8c3.4,2.3,7.1,4.1,10.3,6.8
					C269,137.7,270.1,138.2,270.2,139.8z"/>
				<path d="M218.1,140.6c0.7-2.6,3.1-3.9,3.5-6.9c0.2-1.7,2.9-2.9,5-3.4c1-0.2,2.1-0.2,2.3-1.7c-2.1-0.5-3.9,1.8-6,0.6
					c1.3-4.7,7.6-7.9,14.4-7.4c0.2,2.4-0.6,3.7-3.3,3c-0.6,1.9-0.6,3.8-1.9,5.4c-0.9,1.1-1.6,2-3.2,1.8c-2.9-0.4-4.8,1.4-6.2,3.5
					C221.5,137.3,219.9,139.1,218.1,140.6z"/>
				<path d="M230.9,90.7c0.7,0.9,1.9,1.5,1.5,2.9c-1.8,0.9-3.1-1-4.9-0.5c-0.9,0.3-0.4,2-1.9,2.4c-0.7-2.7-2.4-3.7-5.2-2.4
					c-2,1-4.8,1.4-3.4,5.6c-3.6-2.6-4.9,1-7.2,1.5c0.6-6.5,10.9-11,21.2-9.4L230.9,90.7z"/>
				<path d="M251.6,120.6c-2,0.4-3.7,1.7-5.8,0.4c-1.7-1-2.2,1.8-3.8,1.4c-1.8-0.7,0-2.5-1.2-3.6c-3,0.3-5.9,2.7-9.3,1.2
					C235.6,115.1,248.7,115.4,251.6,120.6z"/>
				<path d="M270.2,91.6l-2.7-0.4c-0.9,0.4-0.8,1.3-1,2c-0.2,0.8-0.3,1.5-0.4,2.3c-2.5,0.6-4.7-1.1-7.2,0c-1,0.4-2.7-0.9-3.2-2.5
					c-0.5-1.8,0.9-2.3,2-2.9c4.5-2.4,8.6-1.3,12.4,1.6L270.2,91.6z M262.9,90.9c-0.5,0.1-1.1,0.3-0.9,0.9c0.2,0.5,0.5,0.8,1,1
					c0.7,0.2,0.8-0.4,0.9-0.9C263.8,91.3,263.4,90.9,262.9,90.9C262.9,90.9,262.9,90.9,262.9,90.9z M259.4,91.9
					c-0.2,0.1-0.5,0.2-0.6,0.4c0,0.2,0.1,0.5,0.3,0.6c0.4,0.3,0.7,0,0.7-0.5C259.8,92.3,259.5,92.1,259.4,91.9L259.4,91.9z"/>
				<path d="M263.1,80.4l2,0.2c-2,2.3-4.7,3.7-5.6,6.6c-0.3,1-2.7,1.6-4.2,1.8c-1.9,0.2-2.9-2.2-1.8-4.2s3.3-2.6,5.4-3.1
					c1.5-0.4,3.3,0,4.4-1.5L263.1,80.4z"/>
				<path d="M281.4,127.4c-0.1-4.1-3.2-7.1-4.6-10.9c4.5,0,9.4,8,8.4,13.1c-1.9,0.2-2.8-1.1-3.8-2.3L281.4,127.4z"/>
				<path d="M251.4,103.9c1.5,0.3,3,0.8,4.5,1.4c1.1,0.4,1.7,1.7,1.3,2.9c0,0,0,0.1,0,0.1c-0.4,1.2-1.6,1.9-2.9,1.6
					c-0.1,0-0.2-0.1-0.3-0.1c-1.6-0.6-3-1.6-4.3-2.8c-0.7-0.5-0.9-1.3-0.6-2.1C249.5,103.7,250.4,103.7,251.4,103.9z"/>
				<path d="M194.5,171c2.9,2.9,4.9,6.1,7.8,8.6c0.6,0.5,1,1.4,0.4,2.1s-1.7,0.6-2.5,0c-2.8-1.9-4.3-4.9-5.7-7.9
					C193.9,172.9,193.9,171.9,194.5,171z"/>
				<path d="M240.6,157.3c0.9-0.5,1-1.9,2.9-1.9c-0.1,4.3-0.9,8.5-2.3,12.5c-2.3-3.6-0.8-7.2-0.5-10.8L240.6,157.3z"/>
				<path d="M234.1,150.4c1.3-3.4,4-5.7,6.3-8.4C242,144.4,238.3,149.5,234.1,150.4z"/>
				<path d="M203.9,130.6c1.4-5.1,4.1-7.1,7.8-6.3C209.6,127,206.9,129.1,203.9,130.6z"/>
				<path d="M241.6,106.7c-0.1,1.8-2.2,4.3-3.5,4.1c-1.1-0.2-1.4-1-1.4-2c0-1.8,2.2-4.3,3.6-4.1
					C241.3,104.8,241.6,105.7,241.6,106.7z"/>
				<path d="M265.9,86.6c4.3-0.9,7.4,0.7,9.3,4.9C271.5,90.5,269.5,87.1,265.9,86.6z"/>
				<path d="M276.7,96.3c-1.8-0.9-3.7-1.3-5.9,0.4c0-2.1,1.4-3.9-0.6-5.1l-0.1,0.1c3,0.5,4.8,2.5,6.5,4.7L276.7,96.3z"/>
				<path d="M237.6,114.4c1.9-2.1,3.6-1.9,5.5-0.2C241.4,116.6,239.8,116.8,237.6,114.4z"/>
				<path d="M222.9,141.6c-1-2.1-0.7-3.3,1.6-4C225.4,139.6,224.7,140.7,222.9,141.6z"/>
				<path d="M222.4,98.4c-1.6,0.3-2.8-0.4-3.6-2.1l3.8,1.3L222.4,98.4z"/>
				<path d="M222.2,96.5c-0.7,0-1.3-0.6-1.2-1.3c0,0,0,0,0,0c-0.1-0.6,0.4-1.2,1-1.2c0,0,0.1,0,0.1,0c0.9,0,1.5,0.5,1.4,1.4
					C223.4,96,222.8,96.5,222.2,96.5z"/>
				<path d="M254.3,115.3c0.6-1.4,1.2-1.9,2.4-1.4C256.5,115.4,255.9,116,254.3,115.3z"/>
				<path d="M276.6,96.4l0.3,0.2c-0.2,0.2-0.2,0.1-0.2-0.3L276.6,96.4z"/>
				<path d="M411,191.5l-0.9-0.7c-2.6-8.8-9.4-14.1-16.1-19.5c4.9,1.5,9.3,4.4,12.7,8.3c2.4,2.7,4.3,5.8,5.7,9.1
					c0.5,1.3,1.4,2.8-0.6,3.8L411,191.5z"/>
				<path d="M430,5v675.7H40V5H430 M435,0H35v685.7h400V0z"/>
			</g>
		</g>
		
			<rect x="194.4" y="296.6" transform="matrix(7.045291e-02 -0.9975 0.9975 7.045291e-02 -306.9083 723.9588)" width="81.1" height="460.1"/>
		<path class="st0" d="M10.7,472.6l454,32.1l-5.4,76l-454-32.1L10.7,472.6 M6.1,467.3L0,553.2L463.9,586l6.1-85.9L6.1,467.3
			L6.1,467.3z"/>
		<path class="st0" d="M60.2,528.4l-7.3,6.3l-26.3-1.9h-0.3l0.7-9.7l2.6,0.2l1.7-23.6l-2.6-0.2l0.7-9.6l26.3,1.9h0.3l6.3,7.3
			l-0.8,11l-3,2.6l2.6,3L60.2,528.4z M61.8,499.4l-6.2-7.1l-25.9-1.8l-0.6,8.8l2.6,0.2l-1.7,24.4l-2.6-0.2l-0.6,8.8l25.9,1.8
			l7.1-6.2l0.8-12.1l-2.8-3.2l3.3-2.8L61.8,499.4z M58.6,516.7l-0.7,10.3l-6.1,5.3l-23-1.6l0.4-4.9l2.6,0.2l1.9-26.3l0.1-2l-2.6-0.2
			l0.4-4.9l23,1.6l5.3,6l-0.6,8.8l-4.1,3.6L58.6,516.7z M48.1,527.1l2.8-2.4l0.5-7.1l-2.4-2.8l-9.3-0.7l-0.9,12.4L48.1,527.1z
			 M49.3,509.8l2.9-2.5l0.4-5.6l-2.5-2.9l-9.3-0.6l-0.8,11L49.3,509.8z M48,516.6l1.4,1.7l-0.4,5.5l-1.7,1.4l-6.5-0.5l0.6-8.6
			L48,516.6z M47.7,517l-5.9-0.4l-0.5,7.7l5.9,0.4l1.5-1.2l0.3-5L47.7,517z M49.1,500.7l1.4,1.6l-0.3,4l-1.7,1.4l-6.5-0.5l0.5-7
			L49.1,500.7z M48.8,501.1l-5.8-0.4l-0.4,6.2l5.8,0.4l1.5-1.3l0.2-3.4L48.8,501.1z"/>
		<path class="st0" d="M82.9,493.8l18.9,1.3l6.3,7.3l-1.8,26.3l-0.2,2.9l-7.3,6.3l-18.9-1.3l-6.4-7.3l1.9-26.3l0.2-2.9L82.9,493.8z
			 M80.1,536.3l18.4,1.3l7.2-6.2l0.2-2.4l1.9-26.3l-6.2-7.1l-18.4-1.3l-7.2,6.1l-0.2,2.4l-1.9,26.3L80.1,536.3z M83.9,496.2
			l16.5,1.2l5.3,6l-1.8,26.3v0.6l-6.1,5.3l-16.5-1.2l-5.3-6l1.8-26.4v-0.6L83.9,496.2z M96,502l-8.4-0.6l-2.9,2.5l-1.6,23l2.5,2.8
			l8.4,0.6l2.9-2.4l1.6-23L96,502z M93.4,528.3l-6.8-0.5l-1.4-1.7l1.5-21.4l1.7-1.4l6.8,0.5l1.4,1.6L95,527L93.4,528.3z M94.8,504.3
			l-6.3-0.4l-1.5,1.3L85.5,526l1.3,1.4l6.3,0.4l1.4-1.2l1.5-20.8L94.8,504.3z"/>
		<path class="st0" d="M148,510.7l0.2-2.6l-2.6-0.2l-1.7,23.6l2.6,0.2l-0.7,9.7l-17-1.2l0.7-9.7l2.6,0.2l1.7-23.6l-2.6-0.2l-0.2,2.6
			l-9.7-0.7l0.9-12.2l26.3,1.9l9.9,0.7l-0.9,12.2L148,510.7z M157.2,510.9l0.8-11.4l-9.1-0.6l-26.3-1.9l-0.8,11.4l8.8,0.6l0.2-2.6
			l3.4,0.2l-1.7,24.5l-2.6-0.1l-0.6,8.8l16.1,1.1l0.6-8.8l-2.6-0.2l1.7-24.5l3.5,0.3l-0.2,2.6L157.2,510.9z M150.7,505.9l-7.3-0.5
			l-1.9,26.3l-0.1,2l2.6,0.2l-0.4,4.9l-12.2-0.9l0.4-4.9l2.6,0.2l1.9-26.3l0.1-2l-7.3-0.5l-0.2,2.6l-4.9-0.3l0.5-7.5l26.3,1.9
			l5.2,0.4l-0.5,7.5l-4.9-0.4L150.7,505.9z"/>
		<path class="st0" d="M196.8,514.1l0.2-2.6l-2.6-0.2l-1.7,23.6l2.6,0.2l-0.7,9.7l-17-1.2l0.7-9.7l2.6,0.2l1.7-23.6l-2.6-0.2
			l-0.2,2.6l-9.6-0.7L171,500l26.3,1.9l9.9,0.7l-0.9,12.2L196.8,514.1z M206,514.3l0.8-11.4l-9.1-0.6l-26.3-1.9l-0.8,11.4l8.8,0.6
			l0.2-2.6l3.4,0.2l-1.7,24.5l-2.6-0.2l-0.6,8.8l16.1,1.1l0.6-8.8l-2.6-0.2l1.8-24.4l3.5,0.3l-0.2,2.6L206,514.3z M199.5,509.3
			l-7.4-0.5l-1.9,26.3l-0.1,2l2.6,0.2l-0.4,4.9l-12.2-0.9l0.4-4.9l2.6,0.2l1.9-26.3l0.1-2l-7.2-0.5l-0.2,2.6l-4.9-0.4l0.5-7.5
			l26.3,1.9l5.2,0.4l-0.5,7.5l-4.9-0.3L199.5,509.3z"/>
		<path class="st0" d="M231.9,537.7l7.7,0.5l0.2-2.6l9.7,0.7l-0.9,12.2l-26.3-1.9l-5.4-0.4l0.7-9.7l2.6,0.2l1.7-23.6l-2.6-0.2
			l0.7-9.6l16.9,1.2l-0.7,9.6l-2.6-0.2L231.9,537.7z M236.4,505.1l-16.1-1.1l-0.6,8.8l2.6,0.2l-1.7,24.5l-2.6-0.2l-0.6,8.8l4.6,0.3
			l26.3,1.8l0.8-11.3l-8.8-0.6l-0.2,2.6l-8.6-0.6l1.7-24.5l2.6,0.2L236.4,505.1z M229.5,537.9l-0.1,2l12.4,0.9l0.2-2.6l5,0.4
			l-0.5,7.5l-26.3-1.9l-0.7,0l0.3-4.9l2.6,0.2l1.9-26.3l0.1-2l-2.6-0.2l0.4-4.9l12.2,0.9l-0.3,4.9l-2.6-0.2L229.5,537.9z"/>
		<path class="st0" d="M283.8,541.4l0.1-1.7l9.7,0.7l-0.8,11.4l-26.3-1.9l-5.2-0.4l0.7-9.7l2.6,0.2l1.7-23.6l-2.6-0.2l0.7-9.6
			l26.3,1.9l5.2,0.4l-0.8,11.3l-9.7-0.7l0.1-1.7l-7.5-0.5l-0.5,7l1.7,0.1l0.1-1.7l9.7,0.7l-0.9,13l-9.7-0.7l0.1-1.7l-1.8-0.1
			l-0.5,6.9L283.8,541.4z M279,533.6l-0.1,1.7l8.8,0.6l0.9-12.2l-8.8-0.6l-0.1,1.7l-2.6-0.2l0.5-7.8l8.3,0.6l-0.1,1.7l8.8,0.6
			l0.7-10.5l-4.4-0.3l-26.3-1.9l-0.6,8.8l2.6,0.2l-1.7,24.5l-2.6-0.2l-0.6,8.8l4.4,0.3l26.3,1.8l0.7-10.5l-8.8-0.6l-0.1,1.7
			l-8.3-0.6l0.6-7.9L279,533.6z M290.7,549.2l-26.3-1.8h-0.5l0.4-4.9l2.6,0.2l1.9-26.3l0.1-2l-2.6-0.2l0.3-4.9l26.3,1.8h0.5
			l-0.5,6.7l-5-0.3l0.1-1.7l-12.2-0.9l-0.8,11.8l6.4,0.5l0.1-1.8l4.9,0.3l-0.6,8.3l-4.9-0.3l0.1-1.7l-6.4-0.5l-0.8,11.6l12.2,0.9
			l0.1-1.7l5,0.3L290.7,549.2z"/>
		<path class="st0" d="M328.8,527.7l0.4-5.5l-1.2-1.5l-6.3-0.4l-1.5,1.3l-1.5,20.8l1.3,1.4l6.3,0.4l1.4-1.2l0.4-5.1l11.8,0.8
			l-0.7,9.3l-7.3,6.3l-19-1.3l-6.4-7.3l1.9-26.3l0.2-2.9l7.3-6.4l18.9,1.3l6.4,7.3l-0.7,9.6L328.8,527.7z M334.7,512l-18.4-1.3
			l-7.1,6.2l-0.2,2.4l-1.9,26.3l6.2,7.2l18.4,1.3l7.1-6.2l0.6-8.6l-10.9-0.8l-0.4,5l-1.6,1.4l-6.8-0.5l-1.4-1.7l1.5-21.4l1.6-1.4
			l6.8,0.5l1.4,1.7l-0.4,5.2l11,0.8l0.6-8.9L334.7,512z M331.3,525.5l0.3-4.2l-2.5-2.9l-8.4-0.6l-2.9,2.5l-1.6,23l2.5,2.8l8.4,0.6
			l2.9-2.4l0.3-3.8l7.1,0.5l-0.4,5.8l-6.1,5.2l-16.5-1.2l-5.3-6l1.9-26.3v-0.6l6-5.3l16.5,1.2l5.3,6l-0.4,6.1L331.3,525.5z"/>
		<path class="st0" d="M386,524.9l-2.2-0.2l6.1,24.1l2.6,0.2l-0.7,9.7l-16.5-1.2l0.7-9.7l1.4,0.1l-0.5-2l-8.2-0.6l-0.8,1.9l1.4,0.1
			l-0.7,9.7l-16.4-1.2l0.7-9.7l2.6,0.2l9.5-23l-1.9-0.1l0.7-9.6l22.8,1.6L386,524.9z M363.7,522.9l2,0.1l-9.8,23.9l-2.5-0.2
			l-0.6,8.8l15.6,1.1l0.6-8.8l-1.6-0.1l1.1-2.8l8.8,0.6l0.7,2.9l-1.5-0.1l-0.6,8.8l15.6,1.1l0.6-8.8l-2.5-0.2l-6.4-25l2.4,0.2
			l0.6-8.8l-22-1.6L363.7,522.9z M383.9,522.3l-3-0.2l6.9,26.9l0.6,2l1.8,0.1l-0.4,4.9l-11.8-0.8l0.4-4.9l2.4,0.2l-1.8-6.8
			l-11.7-0.8l-2.7,6.5l2.3,0.2l-0.3,4.9l-11.7-0.8l0.4-4.9l1.9,0.1l10.6-25.7l0.8-2l-2.7-0.2l0.3-4.9l18.1,1.3L383.9,522.3z
			 M378,540.2l-3.7-14.4l-5.7,13.7L378,540.2z M375.5,538.1l-4-0.3l2.4-5.8L375.5,538.1z M374.9,537.6l-1.1-4.2l-1.6,4L374.9,537.6z
			"/>
		<path class="st0" d="M420,544.4l-0.5,6.6l2.6,0.2l-0.7,9.7l-16.9-1.2l0.7-9.7l2.6,0.2l1.7-23.6l-2.6-0.2l0.7-9.6l26.3,1.8h0.3
			l6.4,7.3l-0.9,13l-7.3,6.3L420,544.4z M440,526.1l-6.1-7.1l-26-1.8l-0.6,8.8l2.6,0.2l-1.7,24.5l-2.6-0.2l-0.6,8.8l16.1,1.1
			l0.6-8.8l-2.6-0.2l0.5-7.5l12.4,0.9l7.1-6.2L440,526.1z M417.8,541.8l-0.8,11.3l2.6,0.2l-0.4,4.9l-12.2-0.9l0.4-4.9l2.6,0.2
			l1.9-26.3l0.1-2l-2.6-0.2l0.4-4.9l23,1.6l5.3,6l-0.8,10.6l-6.1,5.3L417.8,541.8z M430.3,535.1l0.5-6.7l-2.5-2.9l-9.3-0.7
			l-0.9,12.1l9.3,0.7L430.3,535.1z M427.3,527.4l1.4,1.7l-0.4,5.1l-1.6,1.5l-6.5-0.5l0.6-8.2L427.3,527.4z M426.5,535.1l1.5-1.3
			l0.3-4.6l-1.3-1.5l-5.9-0.4l-0.5,7.3L426.5,535.1z"/>
	</g>
</g>
</svg>
