<?xml version="1.0" encoding="utf-8"?>
<!-- Generator: Adobe Illustrator 22.1.0, SVG Export Plug-In . SVG Version: 6.00 Build 0)  -->
<svg version="1.1" id="Layer_1" xmlns="http://www.w3.org/2000/svg" xmlns:xlink="http://www.w3.org/1999/xlink" x="0px" y="0px"
	 viewBox="0 0 233.6 129.3" style="enable-background:new 0 0 233.6 129.3;" xml:space="preserve">
<style type="text/css">
	.st0{fill:#FFFFFF;}
	.st1{enable-background:new    ;}
</style>
<metadata><?xpacket begin="﻿" id="W5M0MpCehiHzreSzNTczkc9d"?>
<x:xmpmeta xmlns:x="adobe:ns:meta/" x:xmptk="Adobe XMP Core 5.6-c143 79.161356, 2017/09/07-01:11:22        ">
   <rdf:RDF xmlns:rdf="http://www.w3.org/1999/02/22-rdf-syntax-ns#">
      <rdf:Description rdf:about=""
            xmlns:xmp="http://ns.adobe.com/xap/1.0/"
            xmlns:xmpGImg="http://ns.adobe.com/xap/1.0/g/img/"
            xmlns:xmpTPg="http://ns.adobe.com/xap/1.0/t/pg/"
            xmlns:stDim="http://ns.adobe.com/xap/1.0/sType/Dimensions#"
            xmlns:xmpG="http://ns.adobe.com/xap/1.0/g/"
            xmlns:dc="http://purl.org/dc/elements/1.1/">
         <xmp:CreatorTool>Adobe Illustrator CC 22.1 (Windows)</xmp:CreatorTool>
         <xmp:CreateDate>2018-08-18T13:46:35+02:00</xmp:CreateDate>
         <xmp:Thumbnails>
            <rdf:Alt>
               <rdf:li rdf:parseType="Resource">
                  <xmpGImg:width>256</xmpGImg:width>
                  <xmpGImg:height>144</xmpGImg:height>
                  <xmpGImg:format>JPEG</xmpGImg:format>
                  <xmpGImg:image>/9j/4AAQSkZJRgABAgEASABIAAD/7QAsUGhvdG9zaG9wIDMuMAA4QklNA+0AAAAAABAASAAAAAEA&#xA;AQBIAAAAAQAB/+4ADkFkb2JlAGTAAAAAAf/bAIQABgQEBAUEBgUFBgkGBQYJCwgGBggLDAoKCwoK&#xA;DBAMDAwMDAwQDA4PEA8ODBMTFBQTExwbGxscHx8fHx8fHx8fHwEHBwcNDA0YEBAYGhURFRofHx8f&#xA;Hx8fHx8fHx8fHx8fHx8fHx8fHx8fHx8fHx8fHx8fHx8fHx8fHx8fHx8fHx8f/8AAEQgAkAEAAwER&#xA;AAIRAQMRAf/EAaIAAAAHAQEBAQEAAAAAAAAAAAQFAwIGAQAHCAkKCwEAAgIDAQEBAQEAAAAAAAAA&#xA;AQACAwQFBgcICQoLEAACAQMDAgQCBgcDBAIGAnMBAgMRBAAFIRIxQVEGE2EicYEUMpGhBxWxQiPB&#xA;UtHhMxZi8CRygvElQzRTkqKyY3PCNUQnk6OzNhdUZHTD0uIIJoMJChgZhJRFRqS0VtNVKBry4/PE&#xA;1OT0ZXWFlaW1xdXl9WZ2hpamtsbW5vY3R1dnd4eXp7fH1+f3OEhYaHiImKi4yNjo+Ck5SVlpeYmZ&#xA;qbnJ2en5KjpKWmp6ipqqusra6voRAAICAQIDBQUEBQYECAMDbQEAAhEDBCESMUEFURNhIgZxgZEy&#xA;obHwFMHR4SNCFVJicvEzJDRDghaSUyWiY7LCB3PSNeJEgxdUkwgJChgZJjZFGidkdFU38qOzwygp&#xA;0+PzhJSktMTU5PRldYWVpbXF1eX1RlZmdoaWprbG1ub2R1dnd4eXp7fH1+f3OEhYaHiImKi4yNjo&#xA;+DlJWWl5iZmpucnZ6fkqOkpaanqKmqq6ytrq+v/aAAwDAQACEQMRAD8A8qYq7FXYq7FXYq7FXYq7&#xA;FXYq7FXYq7FXYq9L/wCcbv8Aydvlb/jPN/1DS4q/QnFXYq7FXYq7FXYq7FXYq7FXYq7FXYq7FXYq&#xA;7FXYq7FXYq/KvFXYq7FXoX5sflnY+SbPyrPa3st2fMOlx6jMsqqojeRVPBePUfF3xV57ir6IT8jP&#xA;yIfyfJ5xXz9fHy3Fc/UnvvqEu05APD0vS9X9ob8KYqwb8mfyr8vee77zENT1WfT9N0K0N79ZhjV2&#xA;aJWPIsr9PgWuKpX+c/5Zt+XXnaXQY7h7ywkgiurC8kUK0sUi0YkL8PwyK67eGKo385fys0/yD5/t&#xA;fLFnfS3sFxb287XEyqrgzyOhFF224YqofnB+V8fkn8wh5S0iafVXkit3gJjHrSSXHRFSOtTXYUxV&#xA;NvP/AOUGhfl/5N0+XzLq0v8AjzU0E0Xl22EbRwRFqc7iWpOwBG3VtlqAWxV5RirsVel/843f+Tt8&#xA;rf8AGeb/AKhpcVfoTirsVdirsVdirsVdirsVdirsVdirsVdirsVdirsVdirsVflXirsVdir3X/nJ&#xA;z/jlflp/4Dlv/wAQjxV4Vir3Wy/9Y+v/APwI1/4jFirv+cY/+OV+Zf8A4Dlx/wAQkxVE/mP/AM73&#xA;/wA47+U/OyD1NV8qSHRNacEE+keMcbuepNRCfnIcVXf85Z/+Tx0z/mBsf+oiXFX0XrHlXyra/mVe&#xA;eYYrmzn/ADG1LTXTyvYXzUSIWsRUuqKeXxs3xON+AIXo2KvhHzxf+ar/AM2apcebHmfzD67pqAn2&#xA;dJEPEpxGyqlKKF2A6bYqkWKuxV6X/wA43f8Ak7fK3/Geb/qGlxV+hOKuxV2KuxV2KuxV2KuxV2Ku&#xA;xV2KuxV2KuxV2KuxV2KuxV+VeKuxV2Kvqb8yPIOlfmL5f8j3Fh5y0DTW0rQ7a1uYL69RZBIY0JHF&#xA;OVKUoQcVeOfmH+UH+DNFh1T/ABVomuetcrbfVNLufXmXlG7+oy0HwD06E+JGKvbYPyy0qP8AI25/&#xA;L0+efLh1ObVRqK3Yvk9ARgIOJ/b5fB/Lirz3/nHjUtK0qz/MiC/v7a2abQbi3tjLKkYmk4yALFzI&#xA;5k9gMVb/AOccdf0W6sPOH5e+Yr2Cx0nzLp7PbXN3IsUUV5COKkMxA5EOH/55jFVX/nKLWdI1P85t&#xA;OvNNvre9tFsrNWuLeVJYwyzyFgXQstQDviqh/wA5KebBH+d6a/5a1SOSayt7OS0v7OVJVWWME7Mh&#xA;ZTQ9R9+Ko/8ANebyj+aPkO1/MnTLqz07zpYItt5n0RpY4pLgRAD1oY3YM/EGqkVqnw15JTFXgeKu&#xA;xV6X/wA43f8Ak7fK3/Geb/qGlxV+hOKuxV2KuxV2KuxV2KuxV2KuxV2KuxV2KuxV2KuxV2KuxV+V&#xA;eKuxV2KuxV2KuxV2KuxV2KuxV2KuxV2KvS/+cbv/ACdvlb/jPN/1DS4q/QnFXYq7FXYq7FXYq7FX&#xA;Yq7FXYq7FXYq7FXYq7FXYq7FXYq/LD6zJ4J/yLT/AJpxV31mTwT/AJFp/wA04q76zJ4J/wAi0/5p&#xA;xV31mTwT/kWn/NOKu+syeCf8i0/5pxV31mTwT/kWn/NOKu+syeCf8i0/5pxV31mTwT/kWn/NOKu+&#xA;syeCf8i0/wCacVd9Zk8E/wCRaf8ANOKu+syeCf8AItP+acVd9Zk8E/5Fp/zTirvrMngn/ItP+acV&#xA;RujeY9Z0XU4NU0m5+pahbEtb3UKIroSpUlTx/lYjFWXf8r+/OT/qbL7/AIJf+acVd/yv785P+psv&#xA;v+CX/mnFXf8AK/vzk/6my+/4Jf8AmnFXf8r+/OT/AKmy+/4Jf+acVd/yv785P+psvv8Agl/5pxV3&#xA;/K/vzk/6my+/4Jf+acVd/wAr+/OT/qbL7/gl/wCacVd/yv785P8AqbL7/gl/5pxV3/K/vzk/6my+&#xA;/wCCX/mnFXf8r+/OT/qbL7/gl/5pxV3/ACv785P+psvv+CX/AJpxV3/K/vzk/wCpsvv+CX/mnFXf&#xA;8r+/OT/qbL7/AIJf+acVd/yv785P+psvv+CX/mnFXf8AK/vzk/6my+/4Jf8AmnFX3l+W+oXuo/l3&#xA;5W1C+ma4vbzSLC4up3+1JLLbRu7t7sxJxVkWKuxV+VeKuxV2KuxV2KuxV2KuxV2KuxV2KuxV2Kux&#xA;V2KuxV2KuxV2KuxV2KuxV2KuxV2KuxV2KuxV2Kv0q/Kf/wAlZ5N/7Yem/wDUHHirKsVdir8q8Vdi&#xA;rsVdirsVdirsVdirsVdirsVdirsVdirsVdirsVdirsVdirsVdirsVdirsVdirsVdirsVfpV+U/8A&#xA;5Kzyb/2w9N/6g48VZVirsVflXiqa+V/K+ueadcttC0K3F3qt5z+rW5kih5mNDIwDzNGn2VJ3bFUT&#xA;5y8j+afJerrpHmaxOn6i0S3CwmSKWsTkqrB4XkTqhHXFUhxVOPKflHzF5t1yHQ/L1mb7VLhXaK3D&#xA;xxgrGhdyXlZEWir3b264qreavI3mjyprw0DXrMWerssb/VRNDMQJfsVeF5EFfAnFWb/9Cufnt/1L&#xA;P/T9p/8A2UYqkvm/8j/zR8n6M2teY9F+o6YkiRNcfWrSajyGijhDNI+/yxVg8MM080cEEbSzSsEi&#xA;iQFmZmNFVVG5JPQYq9d0D/nFL85NXtVuZNOg0uOQckW/nWOQj3jjErofZgDiqh5n/wCcXfzh0Czk&#xA;vTpceqW8I5SnTZRO4HiISElb/YqcVeTsrKxVgVZTRlOxBHY4q9K0n/nHD859X0qz1XT/AC969hqE&#xA;EV1ZzfXLFOcMyCSNuLzqy8lYGjAHFXat/wA44fnPpGlXmq6h5e9Cw0+CW6vJvrli/CGFDJI3FJ2Z&#xA;uKqTRQTirF/JP5e+cPPGoT6f5X0/9IXltF9Yni9aCDjHyCcuU7xKfiYbA1xVmX/Qrn57f9Sz/wBP&#xA;2n/9lGKu/wChXPz2/wCpZ/6ftP8A+yjFUPqP/ONf516dp9zqF55c9Kzs4nuLmX67YNxjiUu7cVnL&#xA;GijoBXFXmWKuxVm2p/k5590zyNB54vLKNPLtxHDNFcieJnKXJCxn0w3PcsO2KsJxVH6Doeo69rVl&#xA;o2mxiXUNQmS3tY2YIGkkPFQWYgDfxxVOPPv5b+bPIepW+neZbVLW7uofrEKJLHMDHyKVrGWA+JTi&#xA;qSaRo+q6xqMGmaVaS32oXLcILWBDJI567KvgNz4Yq9e0z/nET85L23E09tY6exAIhurpS+//ABgW&#xA;ZfxxVj3nb/nHn81fJ9lLqGo6T9Z02AFpr2xdbhEVerOq0kRab8mQDFXm2KuxV+lX5T/+Ss8m/wDb&#xA;D03/AKg48VZVirsVflXiqb+UvMNx5c80aTr9uC0ul3cN0EBpyEThmQ+zAFTir6b/AOczPLtvqnlv&#xA;y15508CSFD9UmmUVLQXSevbNX+VSr/S+Kvk3FX0//wA4TeUlfUPMHm+4SiWsaabZyN9nnJSa4PsV&#xA;VI/obFXhn5mecZfM/wCY+t+ZonJW5vWeyY7kQQkR2/Wo2jjXFX0z/wA4sfm5+YXnnX9ctPNOrfpG&#xA;3s7SKW2T6vbQcXaTiTWCKInbxxV4b+cP5w/mNr+ra95V1bV/rOg22qXCQWf1e1j4rbTusQ9SOJJD&#xA;xA7tv3xVmX/OGHlrStS89arq95Gk1xo9ojWKOASks78TKoI6qqla9uWKoT85f+ci/wA0v8e6zpOk&#xA;6jLoWmaTeTWdvawIiyN6DmMySyMrOS/HlSvED7yqivyR/wCclvP0fnfTNF806i2saNq1xHZkzqnq&#xA;wSzuEjlSRVViA7DkrEjj03xVC/8AOYXkrT9C/MG01mwjWCLzDbtNcxIAB9ahfjLJQfzq6E+LVPfF&#xA;U4/5xl/OH8xtW8+6D5O1DV/X8t29nLbw2P1e1TjHaWpEK+qkSynhwXcvU964q7/nJr84fzG0nz7r&#xA;3k7T9X9Dy3cWcVvNY/V7V+Ud3agTL6rxNKOfNtw9R2pirxDyT+YXnDyPqE+oeV9Q/R95cxfV55fR&#xA;gn5R8g/HjOkqj4lG4FcVZ1p3/OT355TahbRSeZeUckqI6/UdPFQzAEbW+KvoD/nKr8zfO/kXT/Ls&#xA;vlXUv0dJfy3SXbehbz8xEsZQfv45aU5npir5v1H/AJyU/OvUdPudPvPMfq2d5E9vcxfUrBeUcqlH&#xA;XksAYVU9Qa4q8yxV2KvsD8xf/WNtI/5gdI/5OxYq+P8AFWa/kp/5Nzyh/wBtW1/5OjFXqv8Azm1/&#xA;yn2hf9sof9RMuKsp/wCcLNC0yHy95k80G39fVEnFlE1AXWGOJZmSM9vUZxX/AFRiryDzJ/zkx+cO&#xA;sarNdw63JpVuzH0LCzVI44krstSvNyP5mJOKvV/+cav+cgvN3mHzbH5M83XS6pFqEMv6OvJERZlk&#xA;hQyNG5QKHV41bdt698VeOf8AOQvkux8ofmtq+m6dGIdNuPTvbOBRRY0uF5MijoFWTkFHhTFXm+Kv&#xA;0q/Kf/yVnk3/ALYem/8AUHHirKsVdir8q8Vdir7J/L0D8zv+cVbzy+w9bU9Lt5rCBep+sWNLiyA7&#xA;iqemn3/LFXxtir7Jsv8AkF//ADiU81DDq2r2Zcb8X+s6sQqEeDRQOp/2GKvjbFX0r/zhD/ylPmX/&#xA;AJgYf+T2KvCvzD/5T/zN/wBtW+/6iXxVN/yh/NDU/wAuPN8Wu2kQurWRDbajZE8RNbswYgH9l1Kh&#xA;lb+BOKvp6+i/5xq/O8R3015HY+YpkVHb1VsNSBpQKyScopyuwDUenQHFWHeZP+cM9Z0yRNV8k6+l&#xA;5c2rrPbWOoRiJi0ZDrxnQtGzEjoyKPE4q8Z/Nzz5+ZvmPVYdJ8/nhqWgvNGls0EVu0bT+mXr6ary&#xA;DCJCp3FNx1xVkX/OJ/8A5O3SP+MF5/1DPirv+csP/J26v/xgs/8AqGTFXj+KovSf+OrZf8Z4v+Jj&#xA;FX1V/wA5x/8AHK8o/wDGe9/4hDir5KxV2KuxV9gfmL/6xtpH/MDpH/J2LFXx/irNfyU/8m55Q/7a&#xA;tr/ydGKvVf8AnNr/AJT7Qv8AtlD/AKiZcVYZ+QP53y/lnrNzHe273nl3VOH1+CKnrRvHUJNFyIUk&#xA;BiGUkch32xV71qH5df8AONn5v3D6pomqRWet3hLzDT5ltbl5D1aWynU7lj8TCMFj+0cVYbqP/OLX&#xA;5ieQtVg81/l5rEOr3+ml5YLaeFYrgVRkIRXMkMp4sevH2FcVeC/mB5282ecPMDal5qk9TV7eMWcg&#xA;9FbcoIWb4GjVVoysxrUVxVjWKv0q/Kf/AMlZ5N/7Yem/9QceKsqxV2KvyrxV2KvpD/nCrzb9T826&#xA;z5YmakWrWy3VsCf932hIZVHi0cpJ/wBXFWGeafyoc/8AORsnkeGMrZajqiSxBRTjY3NLl+NP99Ql&#xA;h/scVelf85seakT/AA55NtiEjjVtTuol2UDe3tgAPACXFXyxir6V/wCcIf8AlKfMv/MDD/yexV4V&#xA;+Yf/ACn/AJm/7at9/wBRL4q+j/yE8h+UvNv/ADj/AK6g0PT7zzKP0lZW9/NawSXUc724a3KTMpkX&#xA;j6qlTUUPTFXyiQVJBFCNiD1BxV6X+S35uedPKHmzSbSz1CafRLm6ht7zSJXLwNFLIEb00aojccqq&#xA;y0361G2KvUP+c4NGsINa8q6xFGFvb+C8trmQCnNLVoWir4kfWGxVgf8Azif/AOTt0j/jBef9Qz4q&#xA;7/nLD/ydur/8YLP/AKhkxV4/iqL0n/jq2X/GeL/iYxV9Vf8AOcf/AByvKP8Axnvf+IQ4q+SsVdir&#xA;sVfYXnmJ73/nDPTXtR6og0/TGl49hFPEkh/2J64q+PcVZ1+RltcXP5weUY4IzI66lBKVXchIj6kj&#xA;fJUUk4q9O/5zZkQ/mFocYPxrpCsy9wGuZgD/AMKcVZRrHkHypq//ADibb65o2hWC69BptvcS6lDa&#xA;wLdMbSdVu2adU9QnhHIW3374q+T8VfQP/OLn5uedIPP+m+Uby/m1HQtVEsQtrlzKbd44XlR4WarK&#xA;P3dCoPGhrSuKpN/zlvo9jp35xXMtpGIzqNnb3lwqigMzcomag/m9IE++KvF8VfpV+U//AJKzyb/2&#xA;w9N/6g48VZVirsVflXirsVZN+WfmtvKXn7QvMVSI9Pu43uadTbv+7nAp4xOwxV9v3iflhc/mnp/n&#xA;5vM2kG6stLm00RG9t683lDRyg8+0ckyH5jFXxt+eXnBPNv5p6/q0Mvq2S3H1SwYGqmC1AhRkp+y/&#xA;Av8A7LFWE2kUct1DFI3COSRVd9hRSQCd8VfcP5S+R/yd/LPUb++0nztbXsmoQrBKt1fWXFVRuQK+&#xA;nw3xV41+fP5V/lfpOjap5t0HzWuq61e6h6zacl1aTKBdSs8hVIh6lFrtviqQf843fnVb/l35gubL&#xA;WS58taxwF3IgLtbTJUJOEFSy0Yq4XelCK8aFV7d5o/5x1/KT8zb+bzL5V19bOe+PrXZ05obq2d2N&#xA;Wcw1Vo3Y/a+Ib9q1xVQ8s/8AOOv5T/llq0HmfzX5mW5l05xcWaXzQ2kCyIao/p8neR1YVQBuvY4q&#xA;8N/5yN/Nuy/MTzlC+khv0BpETW+nyOCrTM7BpZ+J3UOQoUHeigmhNAq9k/Iv8uPyj8sP5c88/wCM&#xA;oV1uXTo5rnTri8sljjlvLUCWMr8Mi8DIRQmvjirvz0/Lj8o/M7+Y/PP+MoW1uLTpJrbTre8smjkl&#xA;s7UiKML8UjczGBQGvhir5DxVFaWyrqdozEKqzRlmOwADjc4q+mv+czfMfl7WNM8rLpOqWmotDNeG&#xA;ZbSeKcoGSKhb02alad8VfLeKuxV2Kvpf/nHH89vKun+WpPy889ukekuZE0+7uF52xhuCTLbXGx4q&#xA;WZiGPw7kGlBirLrr/nEL8q9fnbUfLXmG4h06b41itpYL2FeXQRyfa4/6zMffFU30Dyz+Q35DRXGr&#xA;Xerrda+Y2jDzyRz3xH7UdtbRAcAx2LEf6zUxV8o/mp+YV75/87X/AJkuY/QjnKxWVrXl6NvEOMaV&#xA;7n9pj/MTir17/nGX8+NC8t6fP5I84yCLQ7iR5NPvpRzhiM20sEy0NInPxBqUBJ5bHZVnOsf84i/l&#xA;n5muW1byl5hksbG4Yv6NsYr+1XlvSFgysq+xdsVTDyl+Wf5M/kbdS+ZNd8xpc63FE6QPdNGsiKw4&#xA;v9WtI+crOw+En4tvDfFXy5+bv5gy+fvPupeY/TaC1mKw2Fu9OSW0I4xhqVHJvtNv1JxVhuKv0q/K&#xA;f/yVnk3/ALYem/8AUHHirKsVdir8q8VdirsVdirsVdirsVdirsVdirsVdirsVdirsVdirsVdirsV&#xA;dirsVdirsVdirsVdirsVdirsVfpV+U//AJKzyb/2w9N/6g48VZVirsVflXirsVdirsVdirsVdirs&#xA;VdirsVdirsVdirsVdirsVdirsVdirsVdirsVdirsVdirsVdirsVdir9Kvyn/APJWeTf+2Hpv/UHH&#xA;irKsVdir8q8VdirsVdirsVdirsVdirsVdirsVdirsVdirsVdirsVdirsVdirsVdirsVdirsVdirs&#xA;VdirsVfpV+U//krPJv8A2w9N/wCoOPFWVYq7FWFf8qU/KP8A6lDSv+kWL+mKu/5Up+Uf/UoaV/0i&#xA;xf0xV3/KlPyj/wCpQ0r/AKRYv6Yq7/lSn5R/9ShpX/SLF/TFXf8AKlPyj/6lDSv+kWL+mKu/5Up+&#xA;Uf8A1KGlf9IsX9MVd/ypT8o/+pQ0r/pFi/pirv8AlSn5R/8AUoaV/wBIsX9MVd/ypT8o/wDqUNK/&#xA;6RYv6Yq7/lSn5R/9ShpX/SLF/TFXf8qU/KP/AKlDSv8ApFi/pirv+VKflH/1KGlf9IsX9MVd/wAq&#xA;U/KP/qUNK/6RYv6Yq7/lSn5R/wDUoaV/0ixf0xV3/KlPyj/6lDSv+kWL+mKu/wCVKflH/wBShpX/&#xA;AEixf0xV3/KlPyj/AOpQ0r/pFi/pirv+VKflH/1KGlf9IsX9MVd/ypT8o/8AqUNK/wCkWL+mKu/5&#xA;Up+Uf/UoaV/0ixf0xV3/ACpT8o/+pQ0r/pFi/pirv+VKflH/ANShpX/SLF/TFXf8qU/KP/qUNK/6&#xA;RYv6Yq7/AJUp+Uf/AFKGlf8ASLF/TFXf8qU/KP8A6lDSv+kWL+mKu/5Up+Uf/UoaV/0ixf0xV3/K&#xA;lPyj/wCpQ0r/AKRYv6Yq7/lSn5R/9ShpX/SLF/TFXf8AKlPyj/6lDSv+kWL+mKsvsbK0sLK3sbKF&#xA;LeztI0gtreMBUjijUKiKo6BVAAGKq2KuxV2KuxV2KuxV2KuxV2KuxV2KuxV2KuxV2KuxV2KuxV2K&#xA;uxV2KuxV2KuxV2KuxV2KuxV2KuxV2KuxV2KuxV//2Q==</xmpGImg:image>
               </rdf:li>
            </rdf:Alt>
         </xmp:Thumbnails>
         <xmpTPg:MaxPageSize rdf:parseType="Resource">
            <stDim:w>233.600006</stDim:w>
            <stDim:h>129.300003</stDim:h>
            <stDim:unit>Pixels</stDim:unit>
         </xmpTPg:MaxPageSize>
         <xmpTPg:NPages>1</xmpTPg:NPages>
         <xmpTPg:HasVisibleTransparency>False</xmpTPg:HasVisibleTransparency>
         <xmpTPg:HasVisibleOverprint>False</xmpTPg:HasVisibleOverprint>
         <xmpTPg:PlateNames>
            <rdf:Seq>
               <rdf:li>Cyan</rdf:li>
               <rdf:li>Magenta</rdf:li>
               <rdf:li>Yellow</rdf:li>
               <rdf:li>Black</rdf:li>
            </rdf:Seq>
         </xmpTPg:PlateNames>
         <xmpTPg:SwatchGroups>
            <rdf:Seq>
               <rdf:li rdf:parseType="Resource">
                  <xmpG:groupName>Default Swatch Group</xmpG:groupName>
                  <xmpG:groupType>0</xmpG:groupType>
               </rdf:li>
            </rdf:Seq>
         </xmpTPg:SwatchGroups>
         <dc:format>image/svg+xml</dc:format>
      </rdf:Description>
   </rdf:RDF>
</x:xmpmeta>
                                                                                                    
                                                                                                    
                                                                                                    
                                                                                                    
                                                                                                    
                                                                                                    
                                                                                                    
                                                                                                    
                                                                                                    
                                                                                                    
                                                                                                    
                                                                                                    
                                                                                                    
                                                                                                    
                                                                                                    
                                                                                                    
                                                                                                    
                                                                                                    
                                                                                                    
                                                                                                    
                           
<?xpacket end="w"?>
	</metadata>
<title>bttn_goto_press</title>
<g id="Layer_2_1_">
	<g id="bttn_goto_press">
		<polygon class="st0" points="212.6,37.9 233.6,49.3 233.6,129.3 21,129.3 0,117.9 		"/>
		<rect x="1.5" y="39.4" width="209.6" height="77"/>
		<path d="M209.6,40.9v74H3v-74H209.6 M212.6,37.9H0v80h212.6V37.9z"/>
		<g class="st1">
			<path class="st0" d="M29.5,94.2h-7.3l-9.5-30.2h4l9.1,29l9.1-29h4L29.5,94.2z"/>
		</g>
		<g class="st1">
			<path class="st0" d="M56.1,94.2H43.6v-3.4h4.4V67.3h-4.4v-3.4h12.5v3.4h-4.3v23.4h4.3V94.2z"/>
		</g>
		<g class="st1">
			<path class="st0" d="M60.8,81.2h3.8c0.2,6.9,2.7,10,8.8,10c2.7,0,4.5-0.6,5.4-1.7c0.9-1,1.2-2.2,1.2-3.6c0-3-1.8-4.7-6.8-5.8
				c-7.2-1.7-10.7-4.4-10.7-9c0-4.7,3.8-7.8,10.1-7.8c7.4,0,11.1,3.6,11.1,10.9c0,0.3,0,0.5,0,0.8H80v-0.3c0-1.9-0.3-3.5-0.8-4.7
				s-1.4-1.9-2.2-2.4c-0.8-0.5-2.1-0.7-3-0.8c-0.5,0-1,0-1.7,0c-3.7,0-5.9,1.7-5.9,4.2c0,1.1,0.5,2,1.3,2.6c0.8,0.7,1.7,1.2,3,1.6
				c1.3,0.4,2,0.6,3.3,0.9c0.1,0,0.1,0,0.1,0l0.3,0.1c2.1,0.5,3.6,0.9,5.4,1.9c1.8,1,2.9,2.2,3.7,4.1c0.4,1,0.6,2.1,0.6,3.2
				c0,2.1-0.4,3.8-1.4,5.4c-1.1,1.6-2.6,2.7-5.3,3.4c-1.3,0.3-2.9,0.5-4.6,0.5c-3.5,0-6.3-1-8.1-2.6c-1.8-1.6-3-4-3.4-6.7
				c-0.2-1-0.2-2.1-0.2-3.2C60.8,82,60.8,81.6,60.8,81.2z"/>
		</g>
		<g class="st1">
			<path class="st0" d="M101.1,94.2H88.6v-3.4h4.4V67.3h-4.4v-3.4h12.5v3.4h-4.3v23.4h4.3V94.2z"/>
			<path class="st0" d="M116.7,94.2V67.4h-10.1v-3.4h24v3.4h-10.1v26.8H116.7z"/>
			<path class="st0" d="M147.3,84.7V63.9h3.8v20.4c0,4.3,2.9,6.7,7.9,6.7s7.9-2.4,7.9-6.7V63.9h3.8v20.8c0,6.3-4.4,10.1-11.7,10.1
				C151.8,94.8,147.3,91,147.3,84.7z"/>
			<path class="st0" d="M176.5,81.2h3.8c0.2,6.9,2.7,10,8.8,10c2.7,0,4.5-0.6,5.4-1.7c0.9-1,1.2-2.2,1.2-3.6c0-3-1.8-4.7-6.8-5.8
				c-7.2-1.7-10.7-4.4-10.7-9c0-4.7,3.8-7.8,10.1-7.8c7.4,0,11.1,3.6,11.1,10.9c0,0.3,0,0.5,0,0.8h-3.8v-0.3c0-1.9-0.3-3.5-0.8-4.7
				c-0.5-1.1-1.4-1.9-2.2-2.4c-0.8-0.5-2.1-0.7-3-0.8c-0.5,0-1,0-1.7,0c-3.7,0-5.9,1.7-5.9,4.2c0,1.1,0.5,2,1.3,2.6
				c0.8,0.7,1.7,1.2,3,1.6c1.3,0.4,2,0.6,3.3,0.9c0.1,0,0.1,0,0.1,0l0.3,0.1c2.1,0.5,3.6,0.9,5.4,1.9c1.8,1,2.9,2.2,3.7,4.1
				c0.4,1,0.6,2.1,0.6,3.2c0,2.1-0.4,3.8-1.4,5.4c-1.1,1.6-2.6,2.7-5.3,3.4c-1.3,0.3-2.9,0.5-4.6,0.5c-3.5,0-6.3-1-8.1-2.6
				c-1.8-1.6-3-4-3.4-6.7c-0.2-1-0.2-2.1-0.2-3.2C176.5,82,176.5,81.6,176.5,81.2z"/>
		</g>
		<rect width="100.6" height="37.9"/>
		<g class="st1">
			<path class="st0" d="M33.6,26.4v2H22.8V10.6H25v15.8H33.6z"/>
			<path class="st0" d="M44,28.4h-7.4v-2h2.6V12.6h-2.6v-2H44v2h-2.5v13.8H44V28.4z"/>
			<path class="st0" d="M50.3,11.2v17.2h-2.2V10.6h4.4l6.1,17.1V10.6h2.2v17.8h-4.4L50.3,11.2z"/>
			<path class="st0" d="M67.8,22.3v6.1h-2.2V10.6h2.2v8.3l8-8.3h3l-7.3,7.7l7.6,10.1h-2.8L70,19.9L67.8,22.3z"/>
		</g>
	</g>
</g>
</svg>
