<?xml version="1.0" encoding="utf-8"?>
<!-- Generator: Adobe Illustrator 22.1.0, SVG Export Plug-In . SVG Version: 6.00 Build 0)  -->
<svg version="1.1" id="Layer_1" xmlns="http://www.w3.org/2000/svg" xmlns:xlink="http://www.w3.org/1999/xlink" x="0px" y="0px"
	 viewBox="0 0 250 137.9" style="enable-background:new 0 0 250 137.9;" xml:space="preserve">
<style type="text/css">
	.st0{fill:#FFFFFF;}
	.st1{enable-background:new    ;}
</style>
<metadata><?xpacket begin="﻿" id="W5M0MpCehiHzreSzNTczkc9d"?>
<x:xmpmeta xmlns:x="adobe:ns:meta/" x:xmptk="Adobe XMP Core 5.6-c143 79.161356, 2017/09/07-01:11:22        ">
   <rdf:RDF xmlns:rdf="http://www.w3.org/1999/02/22-rdf-syntax-ns#">
      <rdf:Description rdf:about=""
            xmlns:xmp="http://ns.adobe.com/xap/1.0/"
            xmlns:xmpGImg="http://ns.adobe.com/xap/1.0/g/img/"
            xmlns:xmpTPg="http://ns.adobe.com/xap/1.0/t/pg/"
            xmlns:stDim="http://ns.adobe.com/xap/1.0/sType/Dimensions#"
            xmlns:xmpG="http://ns.adobe.com/xap/1.0/g/"
            xmlns:dc="http://purl.org/dc/elements/1.1/">
         <xmp:CreatorTool>Adobe Illustrator CC 22.1 (Windows)</xmp:CreatorTool>
         <xmp:CreateDate>2018-08-18T13:46:50+02:00</xmp:CreateDate>
         <xmp:Thumbnails>
            <rdf:Alt>
               <rdf:li rdf:parseType="Resource">
                  <xmpGImg:width>256</xmpGImg:width>
                  <xmpGImg:height>144</xmpGImg:height>
                  <xmpGImg:format>JPEG</xmpGImg:format>
                  <xmpGImg:image>/9j/4AAQSkZJRgABAgEASABIAAD/7QAsUGhvdG9zaG9wIDMuMAA4QklNA+0AAAAAABAASAAAAAEA&#xA;AQBIAAAAAQAB/+4ADkFkb2JlAGTAAAAAAf/bAIQABgQEBAUEBgUFBgkGBQYJCwgGBggLDAoKCwoK&#xA;DBAMDAwMDAwQDA4PEA8ODBMTFBQTExwbGxscHx8fHx8fHx8fHwEHBwcNDA0YEBAYGhURFRofHx8f&#xA;Hx8fHx8fHx8fHx8fHx8fHx8fHx8fHx8fHx8fHx8fHx8fHx8fHx8fHx8fHx8f/8AAEQgAkAEAAwER&#xA;AAIRAQMRAf/EAaIAAAAHAQEBAQEAAAAAAAAAAAQFAwIGAQAHCAkKCwEAAgIDAQEBAQEAAAAAAAAA&#xA;AQACAwQFBgcICQoLEAACAQMDAgQCBgcDBAIGAnMBAgMRBAAFIRIxQVEGE2EicYEUMpGhBxWxQiPB&#xA;UtHhMxZi8CRygvElQzRTkqKyY3PCNUQnk6OzNhdUZHTD0uIIJoMJChgZhJRFRqS0VtNVKBry4/PE&#xA;1OT0ZXWFlaW1xdXl9WZ2hpamtsbW5vY3R1dnd4eXp7fH1+f3OEhYaHiImKi4yNjo+Ck5SVlpeYmZ&#xA;qbnJ2en5KjpKWmp6ipqqusra6voRAAICAQIDBQUEBQYECAMDbQEAAhEDBCESMUEFURNhIgZxgZEy&#xA;obHwFMHR4SNCFVJicvEzJDRDghaSUyWiY7LCB3PSNeJEgxdUkwgJChgZJjZFGidkdFU38qOzwygp&#xA;0+PzhJSktMTU5PRldYWVpbXF1eX1RlZmdoaWprbG1ub2R1dnd4eXp7fH1+f3OEhYaHiImKi4yNjo&#xA;+DlJWWl5iZmpucnZ6fkqOkpaanqKmqq6ytrq+v/aAAwDAQACEQMRAD8A8qYq7FXYq7FXYq7FXYq7&#xA;FXYq7FXYq7FWQfl7/wAp95a/7atj/wBRKYq/TTFXYq7FXYq7FXYq7FXYq7FXYq7FXYq7FXYq7FXY&#xA;q7FXYq7FX5V4q7FU18p6Zbar5p0bS7osLa/vra2nKGjcJplRuJINDRtsVTz83/Kel+UfzI1vy7pR&#xA;lbT9PljSAzsHko8KSHkwCg7ue2Kpf5Gk8hx60zed4tRm0b0XCppJhFx69V4E+syrwpyrvXpir0b8&#xA;/wDyJ+U3kS8by5oCaw3maMwTvPdPBJZfVpVYkArwk9SvH9mmKsxuP+ccvIt1+VNrqulTXx853Xlu&#xA;DzBBbNKjwylYopbhEiCBusnFfi2LL1xV5b+XXkDQvMP5e/mB5gv2nF95YtrSbTRE4WMtcNMH9VSr&#xA;Fh+6FKEYq7T/ACBoVx+Q2p+epGn/AE3Z64umRKHHoegYYZN0415VlO/LFU88q/k/5f0nyFcefvzO&#xA;muLHS7iPj5e0W2dYb2+lYVRvjV+CMOnw/Z+P7NOSryGdonnkeFPSiZiY4yeRVSdl5bVoO+KqeKsg&#xA;/L3/AJT7y1/21bH/AKiUxV+mmKuxV2KuxV2KuxV2KuxV2KuxV2KuxV2KuxV2KuxV2KuxV2KvyrxV&#xA;2Ksg/Lz/AJT/AMs/9tWx/wColMVZX/zkj/5O3zT/AMZ4f+oaLFXmmKva/wDnL3/yclz/AMwNp/xE&#xA;4q9NvPOQ8pav+Ql/K/Gxu9Bi0+/qaL6N3bWkfJvaNysn+xxVJYPJh8m6H+f+hInp2kUOnzWA7fVZ&#xA;2uZYQKfyo3E+4xVv8iLvyNYf849axqvnWMz6LpnmU3Ys1Ac3FxHa2voQ+mdn5Ofskhf5vhrirG/+&#xA;cprHV9av9I/MGx1BtW8kazbImkOu0dm4X95AyjZWdlLGu9QVP2cVeCYq7FWQfl7/AMp95a/7atj/&#xA;ANRKYq/TTFXYq7FXYq7FXYq7FXYq7FXYq7FXYq7FXYq7FXYq7FXYq7FX5V4q7FU18p6nbaV5p0bV&#xA;LoMbawvra5nCCrcIZlduIJFTRdsVe3+cvNn/ADi35u8zX3mLVR5mXUNQZXnEC26R1RFjHFSWI2Qd&#xA;8VeetH+RMnnmRTLr0Pkn6qDE8YtzqH1uoqDzVo/T69q4qyX8/wDz3+U3nu8bzHoD6wvmaQwQPBdJ&#xA;BHZfVolYEgLzk9SvH9qmKpL+bf5i+X/NnlbyBpelrOtz5Z0hNP1EzIqKZlhgQ+mQzclrE25pir0X&#xA;zB/zkN5F1z8sdVsbqC9HnXWdEs9K1Cb0k+ryS2TSMr8/U5UZp3NePemKvM9P8/6Fb/kNqfkWRZ/0&#xA;3ea4upxMEHoegIYY935V5ViO3HFUf+Uf5r6Louiav5J87282o+R9ZjYmKAB5rW6oCssAYqBUgd9m&#xA;Abxqq8yv0s4764SxleezWRhbTSJ6bvGD8DMgLcWI6ipxVD4qyD8vf+U+8tf9tWx/6iUxV+mmKuxV&#xA;2KuxV2KuxV2KuxV2KuxV2KuxV2KuxV2KuxV2KuxV2KvyrxV2KuxV2KuxV2KuxV2KuxV2KuxV2Kp3&#xA;5Hura086+X7q6kWG2t9Ss5Z5nNFREnRmZiegAFTir9BP+V1/lH/1N+lf9JUX9cVd/wArr/KP/qb9&#xA;K/6Sov64q7/ldf5R/wDU36V/0lRf1xV3/K6/yj/6m/Sv+kqL+uKu/wCV1/lH/wBTfpX/AElRf1xV&#xA;3/K6/wAo/wDqb9K/6Sov64q7/ldf5R/9TfpX/SVF/XFXf8rr/KP/AKm/Sv8ApKi/rirv+V1/lH/1&#xA;N+lf9JUX9cVd/wArr/KP/qb9K/6Sov64q7/ldf5R/wDU36V/0lRf1xV3/K6/yj/6m/Sv+kqL+uKu&#xA;/wCV1/lH/wBTfpX/AElRf1xV3/K6/wAo/wDqb9K/6Sov64qyDy75r8s+ZbR7vQNUttUtonMcstrK&#xA;soVx+y3Emh8K4qmuKuxV2KuxV8h/84ufk9+XPnjyhq2oeaNI/SF5bagbeCX6xdQcY/RjfjxgliU/&#xA;Ex3Irir2f/oVz8if+pZ/6ftQ/wCyjFXf9CufkT/1LP8A0/ah/wBlGKu/6Fc/In/qWf8Ap+1D/sox&#xA;V3/Qrn5E/wDUs/8AT9qH/ZRirv8AoVz8if8AqWf+n7UP+yjFXf8AQrn5E/8AUs/9P2of9lGKu/6F&#xA;c/In/qWf+n7UP+yjFXf9CufkT/1LP/T9qH/ZRirv+hXPyJ/6ln/p+1D/ALKMVd/0K5+RP/Us/wDT&#xA;9qH/AGUYq7/oVz8if+pZ/wCn7UP+yjFXf9CufkT/ANSz/wBP2of9lGKu/wChXPyJ/wCpZ/6ftQ/7&#xA;KMVd/wBCufkT/wBSz/0/ah/2UYq7/oVz8if+pZ/6ftQ/7KMVd/0K5+RP/Us/9P2of9lGKu/6Fc/I&#xA;n/qWf+n7UP8AsoxV3/Qrn5E/9Sz/ANP2of8AZRirv+hXPyJ/6ln/AKftQ/7KMVd/0K5+RP8A1LP/&#xA;AE/ah/2UYq7/AKFc/In/AKln/p+1D/soxV3/AEK5+RP/AFLP/T9qH/ZRirv+hXPyJ/6ln/p+1D/s&#xA;oxV3/Qrn5E/9Sz/0/ah/2UYq7/oVz8if+pZ/6ftQ/wCyjFWH/m//AM49fk/5f/LTzDrWkaB9W1Ox&#xA;tGltbj63eycHDAV4STuh69xir5E8ueZ/MPlrU49U0HUJtOv4vszwMVJH8rD7Lqe6sCDir6c/LH/n&#xA;MqGT0tO/MG19J/sjXLJCUPvPbqCR7tHX/UGKvpXQ9e0XXtNi1PRr2HUNPnFYrm3cOh8RUdCO4O4x&#xA;VH4q7FXzr/zhL/ygOu/9tU/9Q0WKvorFXYq7FXYq7FXYq7FXYq7FXYq7FXYq7FXYq7FXYq7FXYq7&#xA;FXYq7FXYq7FXYq7FWAfn9/5JrzZ/zAt/xJcVfnVirsVZB5N8/eb/ACZqX6Q8t6nLp85oJUQhopQP&#xA;2ZYm5I4/1hir6n/LL/nMTy7qoi0/zxbjRb80UanAGks5D4uvxSQ/8MviRir6Hsr6yv7SK8sbiO6t&#xA;J15w3EDrJG6n9pXUlWHyxV89/wDOEv8AygOu/wDbVP8A1DRYq+isVdirsVdirsVdirsVdirsVdir&#xA;sVdirsVdirsVdirsVdirsVdirsVdirsVdirsVYB+f3/kmvNn/MC3/ElxV+dWKuxV2KuxVmH5f/mx&#xA;568hXfreXdRaK2Zg9xp03720mp15xE0qRtyWje+Kvpr/AJwl/wCUB13/ALap/wCoaLFWe/8AORp8&#xA;0W/5V6jqnlrUrnTNR0mSK9aW0kaJ3gUmOVCykfCEk5/7HFVn/ON3nu785flbY3moXD3WrafLLYaj&#xA;PKeTvJGQ6OxO5JhkSp8a4q9QxV8wfm1578565/zkLo3kDyvrV5ptjE1rbaktlM8fJpP9JuZDwIqY&#xA;7cj5EHFXrX50eUPzN8y6ZpsHkLXk0G7t53e9me4nthJGUoq1gjlJo2++KvmHyrP/AM5B+ZvzC1Xy&#xA;JYeebiLV9Ie6S5nnvrpbZjZTCCTgyRu5qx+GqDbwxV9i+RNL8w6V5Q0rTvMd6NR1y2gCX96rvKJZ&#xA;Kklg8io7beKjFXzDf/mN+c351+dtQ0L8vr9tE8uWRJE8crWtIQ3FJri4jDTcpe0aduxoWxVH3v8A&#xA;zj9/zkho8Iv9G89SX93EpZrZNQvYnYjfgnq/u3r/AJZUYqzT/nG/88df83Xd/wCUPOCgeZtLRpI7&#xA;gxiF5o4nEcqTRiirLE5FaAVHaoJKqn+fXlD87m1DV/NvlfzYNK8saZpzXUunJd3UMp+qRNJMUjji&#xA;aPkwXarivemKvLvyj0//AJyI/MWxl1jSfPMsNjYXa29zFe312jsQqyNxWOKZSCr03IxV9J/nJ5X/&#xA;ADC8yeWLWx8iaymh6vHexzz3bzzW4a2WKVWj5wJKxq7oaUptirw/Wfyp/wCcp9J0e+1W5/MKN7fT&#xA;7eW6mSPUb8uUhQyMFDW6jlRdqkYqxP8AKyy/5yL/ADK0++vtC89y20WnyrBMt9f3cbFnXkCvpRTC&#xA;lPEjFXsv5W/ll+f2hec7TUvOHnGLV9BiSZbiwS9vJy7PGyxnhNBGh4uQd2xV7lirEvzb1G+038sf&#xA;NF/YTva3trptzLb3ETFXjdYyVZWG4IOKsB/5xL80eYvMn5c6jfa/qVxql5HrE0EdxdSNK6xLa2zB&#xA;AzV+EM7Gnvir2vFXzP8Am/55846Z/wA5KeUNC0/Wbu10a8m0hbrT4pWWCQTXxSUOgNDzXY+2KvoH&#xA;zf5lsvK/lfVPMN8C9tpdvJcvGuzPwHwote7tRRir5R8vS/8AORP553F7q2n68fL/AJet5jEqxTzW&#xA;lsGFH9JFtwZZmQFSWkP09sVRfmL8r/8AnJf8vLO48x6T5vn1ezsUM1zFFd3EziNBVne1ug0Uiqu+&#xA;3I+2KvbfyC/N0/mT5Qe8vI44Nc02QW+qQxVCMWHKOZASSqyCuxP2ge2Ko78/v/JNebP+YFv+JLir&#xA;86sVdirsVdirsVfZX/OEv/KA67/21T/1DRYq+gNV0201TS7zTLxPUs76CS2uU/mjmQo4+lWxV8sf&#xA;84mandeVvzI81/l3qTkTMZDEp2U3OnyNHJwH/Fkb8vkuKvqnUb+107T7nULt/TtbOJ57iQ9FjiUu&#xA;5+hRir5T/wCcVrC683/mx5q/MTUE3iMrxV3C3GoyM1EJ/wB9wo6ewIxV9aYq+S/yP/8AWr/PH/Gf&#xA;W/8AuoLir6ykjSSNo5ByRwVZT0IIoRir4o8s695s/wCccPzC1XT9W0t7/wAv6oVT1R8H1iGFmMFx&#xA;BLQpzRZW5xnxoabHFX0H5Y/5yf8Ayc14RI2snSbqT/j31ONrfj/rTDnbj/kZiqQ+WvyU8wWf5+3H&#xA;5mWN/psnlbUGnnWKGWV7hxdWxUsAIhCeUx519Q7e+KvSvzY/8lZ5y/7Yepf9QcmKvH/+cJf+UB13&#xA;/tqn/qGixV9FYqx/8w/+UA8zf9sq+/6hnxV4X/zhD/yi3mX/AJjof+TOKvpTFXYqwr86/wDyUfm/&#xA;/tlXX/Jo4q81/wCcKv8AyVmq/wDbcuP+oO0xV7/ir5L/ADw/9av8j/8AGfRP+6g2Kvo/8yvKTeb/&#xA;ACHrfltHEU2o2rx28jfZWZaPEWp+z6irX2xV8r/lD+d2rfk2935F88aHcpZw3DzAxgC5gd6BqI5V&#xA;JonK8lZWHcgsCMVfRPln8+vyg82BbO01+3Se5Hpmxvw1q7F9vT/fhEcmtKIxxVi//OO/5I+afyz1&#xA;DzDJq95ZXFpqq262qWcs0jD0GlNZRJFCK8ZdqV74qy38/v8AyTXmz/mBb/iS4q/OrFXYq7FXYq7F&#xA;X2V/zhL/AMoDrv8A21T/ANQ0WKvorFXyJ+dyt+XP/OSehed4gYtP1JoLu6ZRQUX/AES9Qe5h+I+7&#xA;Yq9c/wCcpvOC6D+UF/DBJS51549NtyprWOWskx2/ZMMbL/ssVb/5xX8pf4f/ACh0+4lThd65JJqc&#xA;1RvwlokG/gYY0b6Tir17FXyX+R//AK1f54/4z63/AN1BcVfQf5web9Z8nflxrPmXRoYJ9R05YXhi&#xA;uldoSr3EccnJY3jbaN2Iow3xVIvyh82Qfm3+WKaj5q02wunluJ7e9sFh52waJvgpHO05r6bqak/L&#xA;FUj83f8AOJP5Ua3DI2lQTeX75gSk1pI0kXLsWgmLrx9kKYq8z/5xz1zzV5E/OK//ACn1a5NxYSvc&#xA;xxQgkxpcQRG4WeGu6rNChJXatRXcYq+jPzY/8lZ5y/7Yepf9QcmKvH/+cJf+UB13/tqn/qGixV9F&#xA;Yqx/8w/+UA8zf9sq+/6hnxV4X/zhD/yi3mX/AJjof+TOKvpTFXYqwr86/wDyUfm//tlXX/Jo4q81&#xA;/wCcKv8AyVmq/wDbcuP+oO0xV7/ir5L/ADw/9av8j/8AGfRP+6g2KvWv+civzY80fltoGlanoNrZ&#xA;3LXt21tcfXkldVHpl14iKWE1PE+OKsnsdL8q/mV5E0LU/Mmk2eppqNjb3ZSSIMIpJ4leQRMSzx0Y&#xA;02avviryz8wf+cO/JOoadPceTZJtG1WNGa3tJJWntJWAqEYylpU5HblzIH8pxVDf84d/mFrur6Zq&#xA;/lHWZpLg6GIpdOklJaRIXLI8DMd+MbKOFelSOgGKvUPz+/8AJNebP+YFv+JLir86sVdirsVdirsV&#xA;fZX/ADhL/wAoDrv/AG1T/wBQ0WKvorFXg3/OYvlL9LflpBrkScrny9drI7dSLa6pDKB/z09JvkMV&#xA;eBebPO1/+akf5Z+TbZ2a6tbeLT7wkH/euWcW3qN/NSCCOQntyPvir7u06wtdO0+20+0T07WziSC3&#xA;jHRY4lCIPoUYqwv82vzf0T8s9OsL7VrK5vY9QmaCJbX0+Ssi8iW9Rk2xV8jfl5+c2heWfzo8w+fL&#xA;uxuptO1iTUHgtYvT9dBe3QnTnyYJ8KihoeuKvsa3n0f80PyxZ/SkttM8z2EiKkoUyxLKGQNRSV5I&#xA;3xDfFXyp5A/MDzj/AM4+eadT8r+aNKkutIupBK8Ubcaso4rd2jsODrIoAYGnQA8SpGKvW73/AJzS&#xA;/LGOyaW003Vri7K/u7Z4oIhypsHk9Zwo8Sob5Yqw7/nHfQfNHnr84dR/NrWLNrPT0NxJaPRhHJPP&#xA;GbZYoi1PUWKBmDN407nFWcf85A/n35c8u23mHyBdafeTalqWkTQRXUXpegrX1u8aFuTh6KW3+HFX&#xA;j/8Azjr+fflz8vNCvND1PT7y7uNSvxPFLbelwVWjSKjc3Q1qvYYq+2MVY/8AmH/ygHmb/tlX3/UM&#xA;+KvC/wDnCH/lFvMv/MdD/wAmcVfSmKuxVL/MWiWmvaBqWiXlfqup2s1nOV+0EnjMZK+4DVGKvjby&#xA;P5687/8AOPPmjUvLnmTSXvNEvJudFJjWQp8AurSRgUYOlOSnwAPEjFXp+of85teQUsWfTtC1W4vq&#xA;fBBcC2ghLU7ypLOwFf8AivFWG/kx5b86/mr+b6/ml5itjbaPYzC4hfiUieSFeFtb23L7SxEBmb23&#xA;3OKvfPz1/Lib8wPy7vdEtCo1SF0vdLMhov1iGo4k9ucbule1a4q+ePyh/wCcjb/8srB/I/nnR7x7&#xA;fS5HS3aIKLu35NyaF4pmjDpyYlTyFOm4pRVnPmv/AJzS8mxaTOvljTL661Z0ZbZ7xI4beNyKK78Z&#xA;JHbid+IXfpUYqqf84f8A5c67omlav5r1yCW1n1z0o7CGdSkpgjLO8zK29JWcca9hXoRir0v8/v8A&#xA;yTXmz/mBb/iS4q/OrFXYq7FXYq7FX2V/zhL/AMoDrv8A21T/ANQ0WKvorFVO4t7e5heC4iSaCQUk&#xA;ikUMjDwKmoOKoK38ueXradJ7bS7SCeM1SWOCJHU9KhlUEYqmOKoa+0zTb9FS/tIbtENUWeNJApO1&#xA;QHBpiqD/AMJ+Vf8AqzWP/SND/wA04qmNvb29tCkFvEkMEYpHFGoVFHgFFAMVQ2r6Homs2v1TWNPt&#xA;tSta19C7hjnjr48ZAwxVj1p+UP5WWc4nt/KWkJMN1f6lAxU9aryU0PyxVlkcccUaxxqEjQBURQAq&#xA;qBQAAdAMVQd5oGhXsxnvNOtbmcgAyzQxyPQdByZScVUR5U8rKQRo9iCNwRbQ1B/4HFU0xVbJHHLG&#xA;0cih43BV0YAqykUIIPUHFVCx0zTbBGSwtIbRHNXWCNIwxG1SEAriqJxV2KuxVCanpGk6ratZ6pZQ&#xA;X9o/2re6iSaM/NHDLirHbb8o/wArbW5+sweUdISevIOLK3PE1rVQUov0YqyxESNFjjUIiAKiKKAA&#xA;bAADFW8VSfX/ACd5S8xKq69o1lqnDaM3lvFMy/6rOpK/RiqB0j8sfy50e4W50vyxpdpdIeSXEVpC&#xA;JVP+TJx5Dp2OKsmxVgH5/f8AkmvNn/MC3/ElxV+dWKuxV2KuxV2Kvsr/AJwl/wCUB13/ALap/wCo&#xA;aLFX0VirsVdirsVdirsVdirsVdirsVdirsVdirsVdirsVdirsVdirsVdirsVdirsVdirAPz+/wDJ&#xA;NebP+YFv+JLir86sVdirsVdirsVfRf8AzjT+eHkP8v8Aypqmm+YpbiO6u7/6zCIITKvp+iibkEUN&#xA;VOKvX/8Aob38m/8Alpvv+kRv64q7/ob38m/+Wm+/6RG/rirv+hvfyb/5ab7/AKRG/rirv+hvfyb/&#xA;AOWm+/6RG/rirv8Aob38m/8Alpvv+kRv64q7/ob38m/+Wm+/6RG/rirv+hvfyb/5ab7/AKRG/rir&#xA;v+hvfyb/AOWm+/6RG/rirv8Aob38m/8Alpvv+kRv64q7/ob38m/+Wm+/6RG/rirv+hvfyb/5ab7/&#xA;AKRG/rirv+hvfyb/AOWm+/6RG/rirv8Aob38m/8Alpvv+kRv64q7/ob38m/+Wm+/6RG/rirv+hvf&#xA;yb/5ab7/AKRG/rirv+hvfyb/AOWm+/6RG/rirv8Aob38m/8Alpvv+kRv64q7/ob38m/+Wm+/6RG/&#xA;rirv+hvfyb/5ab7/AKRG/rirv+hvfyb/AOWm+/6RG/rirv8Aob38m/8Alpvv+kRv64q7/ob38m/+&#xA;Wm+/6RG/rirv+hvfyb/5ab7/AKRG/rirv+hvfyb/AOWm+/6RG/rirv8Aob38m/8Alpvv+kRv64qx&#xA;P81/+cmfyt8y/l1r2g6XPeNqGoWphtlktmRC5YHdidumKvkHFXYq7FXYq7FX2n+Z/wDziH5U18za&#xA;j5QmGgao3J2s2DPYysd6cd2g/wBhVf8AJxV8p+efy186+R78WfmTTJLPmSILkUe3lp/vuZao229K&#xA;1HcDFWMYq7FXYq7FXYq7FXYq7FXYq7FXYq7FXYq7FXYq7FXYq7FXYq7FXYq7FXYq7FXYq7FXYq7F&#xA;XYq7FX6qYqhNV0nS9XsJtO1S0hvrC4XjNa3CLJG491YEYq+cPzO/5w30u89bUfIN0NPuT8R0W7Zn&#xA;t2PcRTnk8fsH5CvdRir5e81eTvM/lPU20zzFps2m3i14pMvwuBtyjcVSRf8AKQkYqk2KuxV2KuxV&#xA;2KuxV2KuxV2KuxV2KuxV2KuxV2KuxV2KuxV2KuxV2KuxV2KuxV2KuxV2KuxV+qmKuxV2KpX5k8re&#xA;XfM2mPpev6dBqVi+5hnQNRqU5IftIwrsykHFXzR+Yf8AzhdK10bvyFqSLBIxL6XqTMPTB/31cIrl&#xA;gP5XWtP2jirC/wDoTb83P9/aV/0ky/8AVHFXf9Cbfm5/v7Sv+kmX/qjirv8AoTb83P8Af2lf9JMv&#xA;/VHFXf8AQm35uf7+0r/pJl/6o4q7/oTb83P9/aV/0ky/9UcVd/0Jt+bn+/tK/wCkmX/qjirv+hNv&#xA;zc/39pX/AEky/wDVHFXf9Cbfm5/v7Sv+kmX/AKo4q7/oTb83P9/aV/0ky/8AVHFXf9Cbfm5/v7Sv&#xA;+kmX/qjirv8AoTb83P8Af2lf9JMv/VHFXf8AQm35uf7+0r/pJl/6o4q7/oTb83P9/aV/0ky/9UcV&#xA;d/0Jt+bn+/tK/wCkmX/qjirv+hNvzc/39pX/AEky/wDVHFXf9Cbfm5/v7Sv+kmX/AKo4q7/oTb83&#xA;P9/aV/0ky/8AVHFXf9Cbfm5/v7Sv+kmX/qjirv8AoTb83P8Af2lf9JMv/VHFXf8AQm35uf7+0r/p&#xA;Jl/6o4q7/oTb83P9/aV/0ky/9UcVd/0Jt+bn+/tK/wCkmX/qjirv+hNvzc/39pX/AEky/wDVHFXf&#xA;9Cbfm5/v7Sv+kmX/AKo4q7/oTb83P9/aV/0ky/8AVHFXf9Cbfm5/v7Sv+kmX/qjirv8AoTb83P8A&#xA;f2lf9JMv/VHFX//Z</xmpGImg:image>
               </rdf:li>
            </rdf:Alt>
         </xmp:Thumbnails>
         <xmpTPg:MaxPageSize rdf:parseType="Resource">
            <stDim:w>250.000000</stDim:w>
            <stDim:h>137.899994</stDim:h>
            <stDim:unit>Pixels</stDim:unit>
         </xmpTPg:MaxPageSize>
         <xmpTPg:NPages>1</xmpTPg:NPages>
         <xmpTPg:HasVisibleTransparency>False</xmpTPg:HasVisibleTransparency>
         <xmpTPg:HasVisibleOverprint>False</xmpTPg:HasVisibleOverprint>
         <xmpTPg:PlateNames>
            <rdf:Seq>
               <rdf:li>Cyan</rdf:li>
               <rdf:li>Magenta</rdf:li>
               <rdf:li>Yellow</rdf:li>
               <rdf:li>Black</rdf:li>
            </rdf:Seq>
         </xmpTPg:PlateNames>
         <xmpTPg:SwatchGroups>
            <rdf:Seq>
               <rdf:li rdf:parseType="Resource">
                  <xmpG:groupName>Default Swatch Group</xmpG:groupName>
                  <xmpG:groupType>0</xmpG:groupType>
               </rdf:li>
            </rdf:Seq>
         </xmpTPg:SwatchGroups>
         <dc:format>image/svg+xml</dc:format>
      </rdf:Description>
   </rdf:RDF>
</x:xmpmeta>
                                                                                                    
                                                                                                    
                                                                                                    
                                                                                                    
                                                                                                    
                                                                                                    
                                                                                                    
                                                                                                    
                                                                                                    
                                                                                                    
                                                                                                    
                                                                                                    
                                                                                                    
                                                                                                    
                                                                                                    
                                                                                                    
                                                                                                    
                                                                                                    
                                                                                                    
                                                                                                    
                           
<?xpacket end="w"?>
	</metadata>
<title>bttn_goto_on</title>
<g id="Layer_2_1_">
	<g id="bttn_goto_on">
		<polygon points="212.6,37.9 250,57.9 250,137.9 37.4,137.9 0,117.9 		"/>
		<rect x="1.5" y="39.4" class="st0" width="209.6" height="77"/>
		<path d="M209.6,40.9v74H3v-74H209.6 M212.6,37.9H0v80h212.6V37.9z"/>
		<rect width="100.6" height="37.9"/>
		<g class="st1">
			<path d="M29.5,94.2h-7.3l-9.5-30.2h4l9.1,29l9.1-29h4L29.5,94.2z"/>
		</g>
		<g class="st1">
			<path d="M56.1,94.2H43.6v-3.4h4.4V67.3h-4.4v-3.4h12.5v3.4h-4.3v23.4h4.3V94.2z"/>
		</g>
		<g class="st1">
			<path d="M60.8,81.2h3.8c0.2,6.9,2.7,10,8.8,10c2.7,0,4.5-0.6,5.4-1.7c0.9-1,1.2-2.2,1.2-3.6c0-3-1.8-4.7-6.8-5.8
				c-7.2-1.7-10.7-4.4-10.7-9c0-4.7,3.8-7.8,10.1-7.8c7.4,0,11.1,3.6,11.1,10.9c0,0.3,0,0.5,0,0.8H80v-0.3c0-1.9-0.3-3.5-0.8-4.7
				s-1.4-1.9-2.2-2.4c-0.8-0.5-2.1-0.7-3-0.8c-0.5,0-1,0-1.7,0c-3.7,0-5.9,1.7-5.9,4.2c0,1.1,0.5,2,1.3,2.6c0.8,0.7,1.7,1.2,3,1.6
				c1.3,0.4,2,0.6,3.3,0.9c0.1,0,0.1,0,0.1,0l0.3,0.1c2.1,0.5,3.6,0.9,5.4,1.9c1.8,1,2.9,2.2,3.7,4.1c0.4,1,0.6,2.1,0.6,3.2
				c0,2.1-0.4,3.8-1.4,5.4c-1.1,1.6-2.6,2.7-5.3,3.4c-1.3,0.3-2.9,0.5-4.6,0.5c-3.5,0-6.3-1-8.1-2.6c-1.8-1.6-3-4-3.4-6.7
				c-0.2-1-0.2-2.1-0.2-3.2C60.8,82,60.8,81.6,60.8,81.2z"/>
		</g>
		<g class="st1">
			<path d="M101.1,94.2H88.6v-3.4h4.4V67.3h-4.4v-3.4h12.5v3.4h-4.3v23.4h4.3V94.2z"/>
			<path d="M116.7,94.2V67.4h-10.1v-3.4h24v3.4h-10.1v26.8H116.7z"/>
			<path d="M147.3,84.7V63.9h3.8v20.4c0,4.3,2.9,6.7,7.9,6.7s7.9-2.4,7.9-6.7V63.9h3.8v20.8c0,6.3-4.4,10.1-11.7,10.1
				C151.8,94.8,147.3,91,147.3,84.7z"/>
			<path d="M176.5,81.2h3.8c0.2,6.9,2.7,10,8.8,10c2.7,0,4.5-0.6,5.4-1.7c0.9-1,1.2-2.2,1.2-3.6c0-3-1.8-4.7-6.8-5.8
				c-7.2-1.7-10.7-4.4-10.7-9c0-4.7,3.8-7.8,10.1-7.8c7.4,0,11.1,3.6,11.1,10.9c0,0.3,0,0.5,0,0.8h-3.8v-0.3c0-1.9-0.3-3.5-0.8-4.7
				c-0.5-1.1-1.4-1.9-2.2-2.4c-0.8-0.5-2.1-0.7-3-0.8c-0.5,0-1,0-1.7,0c-3.7,0-5.9,1.7-5.9,4.2c0,1.1,0.5,2,1.3,2.6
				c0.8,0.7,1.7,1.2,3,1.6c1.3,0.4,2,0.6,3.3,0.9c0.1,0,0.1,0,0.1,0l0.3,0.1c2.1,0.5,3.6,0.9,5.4,1.9c1.8,1,2.9,2.2,3.7,4.1
				c0.4,1,0.6,2.1,0.6,3.2c0,2.1-0.4,3.8-1.4,5.4c-1.1,1.6-2.6,2.7-5.3,3.4c-1.3,0.3-2.9,0.5-4.6,0.5c-3.5,0-6.3-1-8.1-2.6
				c-1.8-1.6-3-4-3.4-6.7c-0.2-1-0.2-2.1-0.2-3.2C176.5,82,176.5,81.6,176.5,81.2z"/>
		</g>
		<g class="st1">
			<path class="st0" d="M33.6,26.4v2H22.8V10.6H25v15.8H33.6z"/>
			<path class="st0" d="M44,28.4h-7.4v-2h2.6V12.6h-2.6v-2H44v2h-2.5v13.8H44V28.4z"/>
			<path class="st0" d="M50.3,11.2v17.2h-2.2V10.6h4.4l6.1,17.1V10.6h2.2v17.8h-4.4L50.3,11.2z"/>
			<path class="st0" d="M67.8,22.3v6.1h-2.2V10.6h2.2v8.3l8-8.3h3l-7.3,7.7l7.6,10.1h-2.8L70,19.9L67.8,22.3z"/>
		</g>
	</g>
</g>
</svg>
