<svg xmlns="http://www.w3.org/2000/svg" viewBox="0 0 609.99 230.88"><defs><style>.cls-1{fill:#fff;stroke:#fff;stroke-miterlimit:10;}</style></defs><title>T_countdown_04</title><g id="Layer_2" data-name="Layer 2"><g id="T_countdown_04"><path d="M37,28.83c9,0,17.15,4.11,15.93,15.62C51.73,55.58,42.6,59.38,33.12,59.71c12.1,26.55,21.68,54.28,35.3,80.1C75.7,153.58,84.23,167,94.75,178.5a158.88,158.88,0,0,0,13,12.73c1.13,1,24.93,16.89,26.39,16.89,0,0,.06,0,.07,0,.41-5.14,5.15-8.4,9.51-8.4a7.07,7.07,0,0,1,7.22,6.13c2.37,11.77-5.35,20.07-16.25,20.07a23.52,23.52,0,0,1-5.29-.62c-17.81-4.1-35.55-21.25-46.57-34.8C51.11,151.53,40.56,101,19.74,56.42c-1.82-3.9.7-8.06,4.77-8.06a6.9,6.9,0,0,1,1.32.14Q36,38.95,33,39a12.57,12.57,0,0,0-4.11,1.36,20,20,0,0,0-12.59,9c-3.15,5.76-1.39,12.93.09,18.84.22.87.49,1.73.72,2.59A6.4,6.4,0,0,1,20.25,75c7,27.44,12.26,55.35,14.35,83.6.47,5.66-3.72,8.48-8.15,8.48s-9.08-2.83-9.5-8.48c-2-26.9-4.85-53.4-10.2-79.87a7,7,0,0,1,.7-4.9A82.76,82.76,0,0,1,5.39,64C3,47,11.51,34.72,27.93,30.11a34,34,0,0,1,9-1.28m0-5h0a39,39,0,0,0-10.4,1.47C7.52,30.65-2.25,45.36.44,64.65a82.57,82.57,0,0,0,1.75,8.76,12.1,12.1,0,0,0-.34,6.28C6.49,102.61,9.61,127.06,12,158.94c.63,8.61,7.76,13.11,14.48,13.11a13.56,13.56,0,0,0,10-4.16,12.33,12.33,0,0,0,3.11-9.73A454.48,454.48,0,0,0,30,94.5q1.71,4.5,3.37,9c11.68,31.16,23.75,63.38,45.53,90.14,7.57,9.31,27.54,31.49,49.33,36.51a28.38,28.38,0,0,0,6.41.75,21.85,21.85,0,0,0,17.11-7.62c4-4.9,5.45-11.45,4.05-18.43a12.07,12.07,0,0,0-12.13-10.15A15.08,15.08,0,0,0,131.54,201c-6.71-4.16-18.82-12.24-20.62-13.61a153.78,153.78,0,0,1-12.48-12.26c-9.12-10-17.49-22.32-25.59-37.66C64.56,121.77,57.63,105,50.92,88.71c-3.37-8.19-6.84-16.6-10.49-24.9C50.59,61.49,56.83,54.87,57.88,45c.8-7.54-1.81-12.21-4.14-14.8C50,26,44.21,23.83,37,23.83Z"/><path d="M114.52,75.28a37,37,0,0,1,5.66.44c25,4,41.24,30.53,34.15,54.53-5.33,18.06-23.13,32.94-41.86,32.94A34.52,34.52,0,0,1,98,160c-17.48-8-21.77-25.84-18.91-42.85l-.37,0a2.52,2.52,0,0,1-2.66-2.27c-3.32-22,17.44-39.65,38.44-39.65m-3.39,78.16c14.53,0,28.58-12.32,32.58-26.11,5.15-17.75-7.13-37.93-25.83-40.35a29.72,29.72,0,0,0-3.94-.26c-10.59,0-18.66,5.83-24.43,14a3.17,3.17,0,0,1-.19.87c-6.77,15.66-7.71,38.81,9.37,48.57a24.88,24.88,0,0,0,12.44,3.32m3.39-83.16A46.11,46.11,0,0,0,80,86.13a36.5,36.5,0,0,0-8.88,29.55,7.62,7.62,0,0,0,2.5,4.64c-2.18,20.43,6,36.81,22.31,44.26a39.57,39.57,0,0,0,16.53,3.61c20.45,0,40.51-15.7,46.66-36.52a48,48,0,0,0-5.79-39.17A47.24,47.24,0,0,0,121,70.78a41.65,41.65,0,0,0-6.44-.5ZM94.19,102.73c5.48-7.31,12.12-11,19.75-11a26.71,26.71,0,0,1,3.3.21,25.71,25.71,0,0,1,18,11.71,27,27,0,0,1,3.68,22.29c-3.6,12.41-16.06,22.51-27.78,22.51a19.86,19.86,0,0,1-10-2.67c-15-8.58-12.57-30-7.26-42.24a7,7,0,0,0,.28-.8Z"/><path d="M216.59,81.15a37.09,37.09,0,0,1,13.84,2.52c6.15,2.47,4.48,11.71-1,11.71a6.09,6.09,0,0,1-2.11-.41,30.37,30.37,0,0,0-10.89-2c-12.95,0-25.5,8-32.7,19.07-7.07,10.86-3.36,22.5,8.88,27.39a20.91,20.91,0,0,0,7.83,1.58c7.48,0,13.93-4.43,19.08-10.69a5,5,0,0,1,4-1.94c4.23,0,8.56,5.1,5.73,9.41C222.49,148,210.8,153,199.35,153c-16,0-31.54-9.79-32.28-28.89-.93-24.19,26-42.95,49.52-42.95m0-5c-15.21,0-31.38,7-42.18,18.21-8.48,8.8-12.74,19.15-12.32,29.93.4,10.39,4.64,19.14,12.26,25.3a39.69,39.69,0,0,0,25,8.4c14.12,0,26.84-6.53,34-17.46a10.36,10.36,0,0,0,.41-10.79,12.13,12.13,0,0,0-10.31-6.36h0a10,10,0,0,0-7.81,3.77c-4.84,5.88-10,8.86-15.22,8.86a16.13,16.13,0,0,1-6-1.22c-4.53-1.81-7.65-4.79-8.8-8.4s-.32-7.67,2.25-11.63C194.54,104.56,205.73,98,216.42,98a25.5,25.5,0,0,1,9.12,1.67,10.93,10.93,0,0,0,3.88.74c4.75,0,8.74-3.51,9.71-8.54A11.29,11.29,0,0,0,232.29,79a42,42,0,0,0-15.7-2.88h0Z"/><path d="M234.23,5a5.32,5.32,0,0,1,5.37,4.67C243.19,38.2,248,66.7,253.29,95,268,74.75,289.38,55.09,311.08,43a7.55,7.55,0,0,1,3.7-1c6,0,9.33,8.74,3.4,13.19-1.89,1.42-3.9,2.86-6,4.33C297.77,70.26,285.34,82.67,272,94.39c-3.09,5.07-3.4,9.47.46,17.34,2.94,6,8.14,12.53,12.34,17.45C301.66,149,323.9,162,344.25,177.7c6,4.66.44,13.35-5.88,13.35a6.81,6.81,0,0,1-3.62-1c-29-17.71-60.06-43-74.79-74.35a66.08,66.08,0,0,1-4.2-10.54,5.43,5.43,0,0,1-.58-.13c.67,3.55,1.32,7.12,2,10.67q4.62,23.94,10,47.75c2.44,10.94,4.11,35.05,12.67,44.09l.64.16a5.78,5.78,0,0,1,4.2,5.51c0,.42,0,.84,0,1.26-.09,3-2.59,6.26-5.83,6.26l-.41,0c-11.23-.94-14.74-12.06-17.23-21.74-5.2-20.21-8.65-41-12.43-61.53-6.79-37-12-74-16.75-111.23a21.74,21.74,0,0,1-10.5,3h-.2c-4.11,0-4.93-6.64-.82-7.48l9.39-12.06A4.17,4.17,0,0,1,234.23,5m0-5V0a9.34,9.34,0,0,0-6.86,2.83,9,9,0,0,0-2.39,5l-3.76,4.82-3.82,4.91a8.54,8.54,0,0,0-4.59,8.67,8.56,8.56,0,0,0,8.48,8h.45a30.57,30.57,0,0,0,6.13-.92c4.12,31.74,9.22,68.41,16,105,.63,3.42,1.24,6.85,1.87,10.28,3.07,17,6.25,34.58,10.63,51.59,2.17,8.46,6.22,24.19,21.65,25.48a7.81,7.81,0,0,0,.83,0c6.29,0,10.68-5.75,10.83-11.12v-.23l0-1a10.88,10.88,0,0,0-7-10.23c-4.91-6.41-7.26-21-8.84-30.87-.62-3.85-1.15-7.17-1.76-9.9-2-8.91-3.84-17.47-5.57-25.8,17.94,25.24,44.56,44.87,65.66,57.76a12,12,0,0,0,6.23,1.77,14,14,0,0,0,12.79-9.46,11.25,11.25,0,0,0-3.86-12.84c-5.74-4.44-11.69-8.71-17.45-12.83-15.16-10.87-29.49-21.13-41.28-35-5.72-6.73-9.53-12.09-11.65-16.41-3.21-6.54-2.62-9.16-1.05-11.9,4-3.49,7.9-7.08,11.7-10.55,8.76-8,17.82-16.27,27.59-23.57,1.7-1.2,3.91-2.78,6-4.37a12.42,12.42,0,0,0,4.47-14A11.62,11.62,0,0,0,314.78,37a12.5,12.5,0,0,0-6.13,1.68C290,49,271,65.23,256.19,83.12,251.06,54.77,247.33,31,244.56,9a10.26,10.26,0,0,0-10.33-9Z"/><path d="M323.86,86.64c3.32,0,6.58,2,8.74,5.32,4.81,7.39,6.13,16.93,8.1,25.33,1,4.42,2,9.11,4.1,13.19,1.9,3.74,5,6.63,6.75,10.43,2.28,4.93-.91,9.86-6,9.86a8.58,8.58,0,0,1-1.49-.13c-12.69-2.31-16.65-18.34-18.68-29.13-.66-3.48-1.56-7.1-2.34-10.71-1.48,4.5-2.93,9-4.58,13.44a6.65,6.65,0,0,1-6.22,4.41,5.89,5.89,0,0,1-5.74-4.41C304,116,301,107.87,298.15,99.72c-1.41-4.06,1.75-6.6,5.06-6.6a5.76,5.76,0,0,1,5.5,3.69q1.1,2.75,2.17,5.51c1.51-5,3.48-9.74,6.44-12.74a9.09,9.09,0,0,1,6.54-2.94m0-5h0a14,14,0,0,0-10.1,4.43,23.26,23.26,0,0,0-3.46,4.59,10.87,10.87,0,0,0-7.09-2.54h0a10.6,10.6,0,0,0-8.69,4.27,9.66,9.66,0,0,0-1.1,9q1.14,3.27,2.29,6.54c2.06,5.83,4.18,11.86,6,17.82a10.91,10.91,0,0,0,10.52,7.93,11.49,11.49,0,0,0,9.51-5c2.39,10.11,7.61,24.39,21.42,26.89a12.86,12.86,0,0,0,2.38.22,11.66,11.66,0,0,0,9.92-5.32,12.07,12.07,0,0,0,.6-11.64,35.92,35.92,0,0,0-4-6.34,32.15,32.15,0,0,1-2.81-4.26c-1.64-3.22-2.56-7.2-3.46-11l-.23-1c-.36-1.5-.68-3-1-4.65-1.56-7.25-3.32-15.46-7.75-22.27-3.09-4.75-7.92-7.59-12.93-7.59Z"/><path d="M364.05,77.18c4.09,0,7.65,5.34,4,9.25l-4.73,5.08c-1.66,1.79-3.29,4-5.53,5.07a6.12,6.12,0,0,1-2.65.64c-3.71,0-6.3-3.9-4.56-7.85,1-2.25,3.2-4,4.92-5.68l4.91-4.89a5.08,5.08,0,0,1,3.63-1.62m0-5a10.15,10.15,0,0,0-7.16,3.07l-2.53,2.53L352,80.15c-.33.33-.69.66-1,1A19.46,19.46,0,0,0,346,87.36a10.81,10.81,0,0,0,.72,10.29,10,10,0,0,0,8.42,4.57,11,11,0,0,0,4.81-1.13,19.7,19.7,0,0,0,6.11-5.15l.92-1,4.73-5.08a10.19,10.19,0,0,0,2-11.14,10.75,10.75,0,0,0-9.65-6.52Z"/><path d="M379.74,16.81a5.23,5.23,0,0,1,1.77.32c12.56,4.48,45,7.37,44.88,26.64-.05,7.64-10.46,12-10.82,16.45h0c.34,0,8.26,10.91,8.41,11.28,4,10.23,4.72,21.77,8,32.31a135.42,135.42,0,0,0,23.85,44.86c8.61,10.57,19.11,20.45,31.07,27.13a47.6,47.6,0,0,0,24,6.54c7.89,0,15.87-1.84,24.82-4.34a6.88,6.88,0,0,1,1.91-.27c5.52,0,8.51,7.11,4.6,11.46a34.94,34.94,0,0,1-26.92,12.09c-21.8,0-45.7-17.13-59-32a148,148,0,0,1-27.93-45.87,128.39,128.39,0,0,1-7.47-29C419.92,86,422.78,66.24,410.48,64c-1.78-.32-2.28-2.83-1.05-4q14-7.63,1.7-18.1Q410.05,32.27,402.2,31c-4-2.16-9.46-2.94-14.64-3,14.37,47.5,23.38,100.4,24.05,149.73.05,3.82-3.43,6.06-6.69,6.06a5.12,5.12,0,0,1-5.42-4.42c-8-51.91-15.78-103.46-25.05-155.19-.6-3.39,1.75-7.38,5.29-7.38m0-5h0a9.87,9.87,0,0,0-7.63,3.67,11.9,11.9,0,0,0-2.58,9.59c8.31,46.36,15.56,93.51,22.57,139.1l2.46,16a10.07,10.07,0,0,0,10.36,8.66,12.2,12.2,0,0,0,8.64-3.53,10.6,10.6,0,0,0,3.05-7.6c-.62-45.59-8.47-96.45-22.17-144a18.87,18.87,0,0,1,5.38,1.75l.75.41.84.13c1.43.23,4.09.66,4.75,6.56l.23,2,1.5,1.28c3.08,2.63,4.08,4.56,4,5.49s-1.41,2.55-4.84,4.42l-.57.31-.47.44a7.46,7.46,0,0,0-1.92,7.52,7.09,7.09,0,0,0,5.52,5c5.24,1,5.85,9.12,6.08,18.91.06,2.64.12,5.13.38,7.19a133.88,133.88,0,0,0,7.76,30.12,151.9,151.9,0,0,0,28.87,47.42c14.95,16.77,40.14,33.68,62.7,33.68A39.77,39.77,0,0,0,546,192.52a12,12,0,0,0,2-12.94,11.25,11.25,0,0,0-10.32-6.86,12.26,12.26,0,0,0-3.26.45c-8.94,2.5-16.35,4.16-23.47,4.16a42.78,42.78,0,0,1-21.59-5.91c-10.36-5.79-20.33-14.51-29.62-25.92a129.69,129.69,0,0,1-23-43.2,132.49,132.49,0,0,1-3.23-13.78c-1.23-6.25-2.5-12.71-4.92-18.86-.23-.6-.38-1-4.76-6.91-.63-.86-1.48-2-2.28-3.07.56-.57,1.21-1.2,1.73-1.7,3.39-3.23,8-7.66,8.06-14.18.13-19.15-23.17-24.92-38.59-28.74-3.7-.91-7.2-1.78-9.61-2.64a10.33,10.33,0,0,0-3.45-.61Z"/><path d="M509.2,75.38c11.55,0,22.57,4.69,29.29,15.94,10.45,17.49,7.29,47.84-9.33,60.81a33.72,33.72,0,0,1-21.07,7c-17.17,0-35.22-11.07-42.44-26-6.91-14.25-2.89-30.72,7.54-41.33a4.83,4.83,0,0,1,1.44-2.38,51.92,51.92,0,0,1,34.57-14m-30.8,22a5.8,5.8,0,0,1-1-.1c-7.79,10.64-7.51,26.43,1.88,37.24a37.29,37.29,0,0,0,27,12.41c8,0,15.55-3.17,20.36-10.72,6.59-10.33,7.79-28,1-38.52-4.69-7.25-11-9.75-17.79-9.75-9.85,0-20.76,5.25-29.4,9a5.18,5.18,0,0,1-2,.42m30.8-27a56.55,56.55,0,0,0-38,15.41,10.08,10.08,0,0,0-2.35,3.33c-11.88,12.72-15,31.13-7.68,46.18,8.09,16.68,27.83,28.79,46.94,28.79a38.73,38.73,0,0,0,24.14-8c19.5-15.21,21.68-48.67,10.55-67.31-7.07-11.85-19-18.38-33.58-18.38Zm-29.11,31.84a10.24,10.24,0,0,0,2.35-.7l2.49-1.1c7.59-3.34,17-7.5,24.91-7.5,6,0,10.3,2.37,13.59,7.47,5.39,8.33,4.9,23.8-1,33.12-4.43,6.94-11.23,8.4-16.15,8.4A32.15,32.15,0,0,1,483,131.22a25.58,25.58,0,0,1-2.93-29Z"/><path d="M562.77,82.37a5.4,5.4,0,0,1,5.26,3.8c2.79,9.22,2.4,19,3.12,28.58.78,10.26,3.48,21.42,2.17,31.58a6.81,6.81,0,0,1-6.62,6.29,6.52,6.52,0,0,1-6.09-4.57c-3.65-9.57-3.24-20.88-3.8-31s-1.73-20.8,1-30.84a5,5,0,0,1,5-3.8m0-5a10,10,0,0,0-9.84,7.51c-2.53,9.48-1.94,19-1.36,28.27.09,1.38.17,2.76.25,4.13.1,1.94.17,3.9.25,6,.31,8.89.64,18.09,3.87,26.57a11.5,11.5,0,0,0,10.76,7.79A11.79,11.79,0,0,0,578.27,147c1-7.58,0-15.36-1-22.88-.44-3.39-.87-6.59-1.1-9.72-.18-2.4-.29-4.89-.4-7.31-.33-7.33-.68-14.91-2.93-22.34a10.38,10.38,0,0,0-10-7.35Z"/><path d="M592.13,81a4.06,4.06,0,0,1,4.3,3.36c1.89,11.55,4,23.09,5.7,34.66,1.4,9.39,4.79,19.71,1.44,28.8a5.23,5.23,0,0,1-4.87,3.54,4.93,4.93,0,0,1-4.17-2.36c-5.34-8.14-4.4-18.75-5.14-28.25-.92-11.7-1.48-23.43-2.23-35.13-.19-2.95,2.45-4.62,5-4.62m0-5a10.35,10.35,0,0,0-7.55,3.16,9,9,0,0,0-2.41,6.78c.26,4,.49,8,.72,12,.44,7.6.9,15.46,1.51,23.2.15,1.93.23,3.91.31,6,.32,8,.68,17,5.64,24.6a9.9,9.9,0,0,0,8.35,4.61,10.18,10.18,0,0,0,9.56-6.81c3.1-8.41,1.39-17.33-.11-25.21-.41-2.11-.79-4.11-1.08-6-1.14-7.67-2.46-15.42-3.73-22.92q-1-5.91-2-11.82A9,9,0,0,0,592.13,76Z"/><path class="cls-1" d="M150.9,205.81c-2-10-16-6.75-16.73,2.27-.09,1-25.3-15.84-26.46-16.85a158.88,158.88,0,0,1-13-12.73c-10.52-11.53-19-24.92-26.33-38.69C54.8,114,45.22,86.26,33.12,59.71c9.48-.33,18.61-4.13,19.79-15.26,1.63-15.41-13.55-17.54-25-14.34C11.51,34.72,3,47,5.39,64A82.76,82.76,0,0,0,7.45,73.8a7,7,0,0,0-.7,4.9c5.35,26.47,8.21,53,10.2,79.87.84,11.29,18.6,11.31,17.65,0-2.09-28.25-7.37-56.16-14.35-83.6a6.4,6.4,0,0,0-3.14-4.25c-.23-.86-.5-1.72-.72-2.59-1.48-5.91-3.24-13.08-.09-18.84a20,20,0,0,1,12.59-9q10.92-5-3.06,8.19c-4.82-1-8.1,3.62-6.09,7.92,20.82,44.62,31.37,95.11,63.05,134,11,13.55,28.76,30.7,46.57,34.8C142.9,228.38,153.64,219.42,150.9,205.81Z"/><path class="cls-1" d="M120.18,75.72C97.45,72.13,72.46,91,76.08,114.93a2.57,2.57,0,0,0,3,2.25c-2.86,17,1.43,34.87,18.91,42.85,23.2,10.6,49.6-7.08,56.31-29.78C161.42,106.25,145.22,79.68,120.18,75.72Zm23.53,51.61c-5.15,17.76-27,33.09-45,22.79-17.08-9.76-16.14-32.91-9.37-48.57a3.17,3.17,0,0,0,.19-.87C96,91.57,105.32,85.35,117.88,87,136.58,89.4,148.86,109.58,143.71,127.33Z"/><path class="cls-1" d="M227.31,95c7.1,2.7,10-8.54,3.12-11.3-25-10-64.48,11.24-63.36,40.43,1.26,32.75,46.06,38.13,62.12,13.69,3.78-5.76-5.2-12.92-9.68-7.47-6.87,8.35-16,13.45-26.91,9.11-12.24-4.89-15.95-16.53-8.88-27.39C192.94,97.85,210.93,88.73,227.31,95Z"/><path class="cls-1" d="M344.25,177.7C323.9,162,301.66,149,284.77,129.18c-4.2-4.92-9.4-11.45-12.34-17.45-3.86-7.87-3.55-12.27-.46-17.34,13.37-11.72,25.8-24.13,40.24-34.92,2.07-1.47,4.08-2.91,6-4.33,7.06-5.3,1-16.67-7.1-12.14C289.38,55.09,268,74.75,253.29,95,248,66.7,243.19,38.2,239.6,9.67c-.76-6-10-6.42-9.74,0l-9.39,12.06c-4.18.85-3.26,7.69,1,7.47a21.74,21.74,0,0,0,10.5-3c4.79,37.22,10,74.26,16.75,111.23,3.78,20.51,7.23,41.32,12.43,61.53,2.49,9.68,6,20.8,17.23,21.74,3.43.29,6.15-3.09,6.24-6.24,0-.42,0-.84,0-1.26a5.78,5.78,0,0,0-4.2-5.51l-.64-.16c-8.56-9-10.23-33.15-12.67-44.09q-5.32-23.81-10-47.75c-.69-3.55-1.34-7.12-2-10.67a5.43,5.43,0,0,0,.58.13,66.08,66.08,0,0,0,4.2,10.54C274.69,147,305.74,172.3,334.75,190,342.14,194.52,351.41,183.25,344.25,177.7Z"/><path class="cls-1" d="M351.55,140.91c-1.76-3.8-4.84-6.69-6.75-10.43-2.07-4.08-3.07-8.77-4.1-13.19-2-8.4-3.29-17.94-8.1-25.33-3.62-5.57-10.32-7.41-15.28-2.38-3,3-4.93,7.69-6.44,12.74q-1.08-2.76-2.17-5.51c-2.55-6.4-12.91-3.87-10.56,2.91,2.82,8.15,5.81,16.28,8.36,24.52,1.89,6.13,9.87,5.63,12,0,1.65-4.44,3.1-8.94,4.58-13.44.78,3.61,1.68,7.23,2.34,10.71,2,10.79,6,26.82,18.68,29.13C350,151.71,354,146.3,351.55,140.91Z"/><path class="cls-1" d="M360.42,78.8l-4.91,4.89c-1.72,1.71-3.93,3.43-4.92,5.68-2.13,4.84,2.23,9.6,7.21,7.21,2.24-1.07,3.87-3.28,5.53-5.07l4.73-5.08C372.78,81.35,365.37,73.87,360.42,78.8Z"/><path class="cls-1" d="M535.79,178c-17.79,5-31.74,7.35-48.84-2.2-12-6.68-22.46-16.56-31.07-27.13A135.42,135.42,0,0,1,432,103.8c-3.32-10.54-4-22.08-8-32.31-.15-.38-8.39-11.72-8.42-11.27.36-4.43,10.77-8.81,10.82-16.45.13-19.27-32.32-22.16-44.88-26.64-4.49-1.6-7.76,3.14-7.06,7.06,9.27,51.73,17.05,103.28,25.05,155.19,1.07,7,12.2,5.17,12.11-1.64-.67-49.33-9.68-102.23-24.05-149.73,5.18.06,10.66.84,14.64,3q7.85,1.26,8.93,10.93,12.28,10.45-1.7,18.1c-1.23,1.16-.73,3.67,1.05,4C422.78,66.24,419.92,86,421,94.41a128.39,128.39,0,0,0,7.47,29,148,148,0,0,0,27.93,45.87c19.22,21.55,60.75,47.83,85.89,19.92C546.65,184.35,542.48,176.12,535.79,178Z"/><path class="cls-1" d="M538.49,91.32c-14-23.38-46.52-18.42-63.86-1.91a4.83,4.83,0,0,0-1.44,2.38c-10.43,10.61-14.45,27.08-7.54,41.33,10.39,21.42,43.12,34.92,63.51,19C545.78,139.16,548.94,108.81,538.49,91.32Zm-11.88,44.87c-10.82,17-35.64,11.79-47.36-1.69-9.39-10.81-9.67-26.6-1.88-37.24a5.22,5.22,0,0,0,3.07-.32c14.6-6.36,35.72-17,47.19.73C534.4,108.15,533.2,125.86,526.61,136.19Z"/><path class="cls-1" d="M571.15,114.75c-.72-9.56-.33-19.36-3.12-28.58-1.5-4.94-8.89-5.19-10.27,0-2.68,10-1.51,20.56-1,30.84s.15,21.47,3.8,31c2.7,7.06,11.77,5.53,12.71-1.72C574.63,136.17,571.93,125,571.15,114.75Z"/><path class="cls-1" d="M602.13,119c-1.73-11.57-3.81-23.11-5.7-34.66-.86-5.22-9.61-4-9.27,1.26.75,11.7,1.31,23.43,2.23,35.13.74,9.5-.2,20.11,5.14,28.25a5,5,0,0,0,9-1.18C606.92,138.71,603.53,128.39,602.13,119Z"/></g></g></svg>