<svg xmlns="http://www.w3.org/2000/svg" viewBox="0 0 147.36 222.26"><defs><style>.cls-1{fill:#fff;stroke:#fff;stroke-miterlimit:10;}</style></defs><title>T_countdown_01</title><g id="Layer_2" data-name="Layer 2"><g id="T_countdown_01"><path d="M69,5A3.38,3.38,0,0,1,72.4,7.59a4.47,4.47,0,0,1,2.11-.54A4.82,4.82,0,0,1,77,7.79,171.57,171.57,0,0,0,138.7,30c6.1,1,3.92,9.81-1.77,9.81a5.67,5.67,0,0,1-.91-.07A178.79,178.79,0,0,1,71.94,16.51a5.18,5.18,0,0,1-1.1-.88c-14.66,63.9-21,130.64-16.39,196,.24,3.37-2.78,5.6-5.8,5.6a5.51,5.51,0,0,1-2.74-.7C24.31,204.42,9.58,183,5.11,158.66a5.73,5.73,0,0,1,5.42-7,6,6,0,0,1,2.77.71,26.55,26.55,0,0,1,13.36,15.29C28,171.1,25,173.51,22,173.51l-.34,0a75.74,75.74,0,0,0,21.15,27C41.43,134.94,48.46,70.66,66.07,7.31A3,3,0,0,1,69,5m0-5h0a7.93,7.93,0,0,0-7.78,6C45,64.35,37.27,124.24,37.63,188.7a70.41,70.41,0,0,1-9-12.53,9.22,9.22,0,0,0,1.78-1.91,9,9,0,0,0,1-8.36,31.46,31.46,0,0,0-15.75-18,11.09,11.09,0,0,0-5.07-1.26,10.44,10.44,0,0,0-8,3.78,11.11,11.11,0,0,0-2.32,9.13c4.83,26.25,20.6,48.61,43.26,61.36a10.6,10.6,0,0,0,5.2,1.34,11.15,11.15,0,0,0,8.15-3.49,9.82,9.82,0,0,0,2.64-7.46c-4.27-60.64.69-123.76,14.74-187.73A184,184,0,0,0,135.24,44.7,10.46,10.46,0,0,0,147.33,35a9,9,0,0,0-7.85-9.87A167.48,167.48,0,0,1,79.59,3.49a9.82,9.82,0,0,0-5-1.44A8.61,8.61,0,0,0,69,0Z"/><path class="cls-1" d="M138.7,30A171.57,171.57,0,0,1,77,7.79a4.53,4.53,0,0,0-4.63-.2c-.58-3-5.35-3.81-6.33-.28C48.46,70.66,41.43,134.94,42.79,200.45a75.74,75.74,0,0,1-21.15-27c3.08.2,6.36-2.26,5-5.84A26.55,26.55,0,0,0,13.3,152.36c-4.53-2.34-9.07,1.49-8.19,6.3,4.47,24.29,19.2,45.76,40.8,57.9,3.53,2,8.85-.46,8.54-4.9-4.6-65.39,1.73-132.13,16.39-196a5.18,5.18,0,0,0,1.1.88A178.79,178.79,0,0,0,136,39.76C142.38,40.77,145.12,31,138.7,30Z"/></g></g></svg>