<svg xmlns="http://www.w3.org/2000/svg" viewBox="0 0 167.13 235.3"><defs><style>.cls-1{fill:#fff;stroke:#fff;stroke-miterlimit:10;}</style></defs><title>T_countdown_02</title><g id="Layer_2" data-name="Layer 2"><g id="T_countdown_02"><path d="M151.2,5a28.85,28.85,0,0,1,4.23.3c5.57.83,7.3,9.14,3.33,12.63-.63.55-1.29,1.06-2,1.55,2.19,15.6,2.38,31.74,3.25,47.4,1,17.2,1.49,34.42,1.73,51.64.37,26.64,2.83,59.38-12.77,82.73-3.51,5.25-7,7.4-10.43,7.4-13.19,0-24.55-32.41-26.15-42.53-1.18-7.41-2-21.41,8.87-21.73h.3c10,0,13.69,14.78,14.36,22.42.26,3-2.28,4.64-4.8,4.64a4.41,4.41,0,0,1-4.57-3.38,25.93,25.93,0,0,0-2.68-8c-.52-.84-.91-1.48-1.2-2-1.23,2.26,2.33,12.35,3.07,14.74a73.6,73.6,0,0,0,5.94,13.95q1.65,2.91,3.45,5.73c1.36,2.06,2.52,3.1,3.47,3.1s1.66-1,2.21-2.9c5.54-4.34,7.41-19.66,8.42-26.22A196.68,196.68,0,0,0,151.05,140c.36-20.41,0-40.83-.66-61.23-.55-18.14-2.33-36.75-1.92-55-6.71,2.53-14.22,3.75-20.85,5.53q-17,4.56-34.09,8.75-33.47,8.22-67.25,15A663.44,663.44,0,0,1,40.63,139c3,28.8,7.39,59.64,0,88.05a4.63,4.63,0,0,1-4.46,3.28,3.83,3.83,0,0,1-3-1.32C18.84,212.38,9.58,191.24,5.1,169.85c-.71-3.4,2.45-6.29,5.32-6.29A3.84,3.84,0,0,1,14,166.08a67.36,67.36,0,0,1,2.7,7.08,3.28,3.28,0,0,1-.15,2.46c4,14.36,10.24,27.23,18.19,39.77,2.15-10.72,1.57-21.94,1.09-32.84q-1-21.83-3.13-43.58c-2.83-28.51-7.37-56.81-12.47-85-9.75-.51-9.85-16.4-.4-16.4H20Q54.6,30.08,88.87,21.19q18-4.68,35.83-9.78C133.45,8.92,142.18,5,151.2,5m0-5C143.75,0,136.77,2.29,130,4.5c-2.31.76-4.5,1.48-6.7,2.1C111.55,10,99.54,13.24,87.61,16.35,65.79,22.05,42.85,27.5,19.42,32.58,12.88,32.81,8.06,38,7.87,45c-.15,6,3.12,11.07,8.06,13,5.81,32.39,9.47,57.6,11.84,81.39,1.43,14.38,2.47,29,3.11,43.32l0,1c.23,5.15.46,10.39.39,15.58a130.57,130.57,0,0,1-9.52-23.73,8.51,8.51,0,0,0-.28-4,70,70,0,0,0-2.89-7.56,8.78,8.78,0,0,0-8.2-5.53,10.65,10.65,0,0,0-8.13,4,9.94,9.94,0,0,0-2.08,8.32c5,23.86,15.12,45.09,29.27,61.38a8.77,8.77,0,0,0,6.73,3,9.64,9.64,0,0,0,9.3-7c6.91-26.73,3.87-54.82.94-82-.29-2.63-.57-5.25-.84-7.84A672.26,672.26,0,0,0,32.33,57c21.51-4.41,42.47-9.11,62.39-14,11.38-2.79,22.88-5.74,34.2-8.78,2.14-.57,4.39-1.09,6.76-1.63,2.55-.59,5.15-1.19,7.73-1.88.05,9.66.57,19.39,1.09,28.86.34,6.4.7,13,.9,19.43.51,16.74,1,38.8.65,61a192.3,192.3,0,0,1-1.73,25.79c-.08.51-.16,1.07-.25,1.68-.65,4.33-2.54,17-5.72,20.78-.78-1.27-1.54-2.56-2.27-3.85a69.28,69.28,0,0,1-3.76-8,10,10,0,0,0,6.31-3.11,9,9,0,0,0,2.3-6.91c-1.08-12.45-6.8-27-19.34-27h-.44a13.48,13.48,0,0,0-10.32,4.8c-3.87,4.67-5,12.31-3.35,22.72.91,5.77,4.45,17,9.2,26.51,6.72,13.42,14.08,20.23,21.89,20.23,5.41,0,10.32-3.24,14.58-9.63,14.94-22.34,14.32-51.66,13.77-77.53q-.09-4.09-.15-8C166.52,100,166,83.08,165,66.6c-.22-4-.4-8.13-.58-12.11-.47-10.8-1-21.94-2.33-32.86a12.44,12.44,0,0,0,3.23-12.85A11.47,11.47,0,0,0,156.16.36a33.77,33.77,0,0,0-5-.36Z"/><path class="cls-1" d="M161.77,118.52c-.24-17.22-.78-34.44-1.73-51.64-.87-15.66-1.06-31.8-3.25-47.4.68-.49,1.34-1,2-1.55,4-3.49,2.24-11.8-3.33-12.63-10.54-1.55-20.63,3.23-30.73,6.11q-17.85,5.1-35.83,9.78Q54.61,30.13,20,37.57c-9.57-.13-9.51,15.89.28,16.4,5.1,28.19,9.64,56.49,12.47,85q2.16,21.74,3.13,43.58c.48,10.9,1.06,22.12-1.09,32.84-8-12.54-14.19-25.41-18.19-39.77a3.28,3.28,0,0,0,.15-2.46,67.36,67.36,0,0,0-2.7-7.08c-2.31-5.32-10-1.35-8.94,3.77C9.58,191.24,18.84,212.38,33.26,229c2.21,2.55,6.62,1.12,7.41-2,7.35-28.41,3-59.25,0-88.05A663.44,663.44,0,0,0,26.28,53.08q33.78-6.82,67.25-15,17.1-4.19,34.09-8.75c6.63-1.78,14.14-3,20.85-5.53-.41,18.24,1.37,36.85,1.92,55,.63,20.4,1,40.82.66,61.23a196.68,196.68,0,0,1-1.79,26.46c-1,6.56-2.88,21.88-8.42,26.22q-1.67,5.89-5.68-.2-1.8-2.82-3.45-5.73a73.6,73.6,0,0,1-5.94-13.95c-.74-2.39-4.3-12.48-3.07-14.74.29.49.68,1.13,1.2,2a25.93,25.93,0,0,1,2.68,8c1.16,5.16,9.84,4.15,9.37-1.26-.67-7.72-4.39-22.72-14.66-22.42-10.92.32-10.05,14.32-8.87,21.73,2,12.73,19.46,60.73,36.58,35.13C164.6,177.9,162.14,145.16,161.77,118.52Z"/></g></g></svg>