<svg xmlns="http://www.w3.org/2000/svg" viewBox="0 0 195.01 245.95"><defs><style>.cls-1{fill:#fff;stroke:#fff;stroke-miterlimit:10;}</style></defs><title>T_countdown_03</title><g id="Layer_2" data-name="Layer 2"><g id="T_countdown_03"><path d="M151.27,5a19.92,19.92,0,0,1,5.8.81,6.86,6.86,0,0,1,4.57,9q3.24,7,5.8,14.37c1-.15,1.94-.31,2.91-.43l.34,0c3.12,0,4.32,5.11,1.4,6.47-.76.36-1.56.67-2.34,1,5.65,18.45,8.78,38.05,11.52,56.61,4.12,27.92,6,56,8.12,84.11.68,9,2.7,20.64-7,25.6a12.81,12.81,0,0,1-6,1.48c-6.75,0-13-5.29-17.29-10.4-14.63-17.45-23.88-42-20.8-64.87.38-2.83,3.11-4.22,5.72-4.22a6.33,6.33,0,0,1,3,.69,27,27,0,0,1,13.17,14.9c.92,2.61-1.31,4.43-3.56,4.43a3.76,3.76,0,0,1-2.49-.91c-1-.91-2-1.74-3-2.52,2.32,16.25,7,31.32,18.41,44.39,1.57,1.8,2.11,2.9,3.64,2.9a6.84,6.84,0,0,0,2.07-.43c3.54-1.16,2.57-2,2.46-5.4-.16-5-.49-10-.8-15-.6-10.05-1.26-20.1-2-30.14-1.68-21.41-3.85-42.83-7.51-64-2-11.32-4.68-22.42-7.43-33.51-8.84,2.89-18.08,5.06-26.81,7.68C120.44,51.37,107.69,55.14,95,59.09l-4.38,1.38c1.54,8.07,2.83,16.21,4.34,24.17q4.14,21.9,8.12,43.84,4.2,22.94,8.41,45.86c2.54,13.83,5.38,27.67,4.2,41.79a6.48,6.48,0,0,1-6,5.77,4.65,4.65,0,0,1-3.62-1.77c-13-15.32-28.7-41-25.08-62,.37-2.15,2.49-3.33,4.56-3.33A4.1,4.1,0,0,1,89.38,157c3.86,8.32,4.65,17.77,7.94,26.39a99.6,99.6,0,0,0,7.24,15c-.81-9.79-2.82-19.49-4.51-29.23q-3.8-22-7.6-44c-3.5-20.23-8.33-41-11.22-61.72-14.76,4.66-29.52,9.35-44.3,13.93,5.82,24.75,12.56,49.27,17.88,74.14a345.59,345.59,0,0,1,6.95,45.83c.93,12.22,1.53,27.71-5.75,38.41-2.5,3.68-5.63,5.23-9.09,5.23-15.16,0-36.74-29.56-40.48-39.5-3.42-9.09-1-20.29,9.84-22.45a16.51,16.51,0,0,1,3.31-.33c9.21,0,16.5,7.79,20.17,15.84,2.32,5.08-1.41,9.26-5.52,9.26a6.57,6.57,0,0,1-5.33-2.92c-1.15-1.58-4.56-8.15-7.74-8.15-1.07,0-2.12.75-3,2.68-1,2.19,6.77,11.2,7.77,12.45a106.51,106.51,0,0,0,8.87,9.76c2.15,2.11,7.35,8.21,10.57,9.42.37-.76,1-1.88,1.85-3.42a44.28,44.28,0,0,0,1.63-6.31,73.31,73.31,0,0,0,.78-14.8,238.78,238.78,0,0,0-3.12-31.35c-4.8-30.59-13.68-60.4-19.37-90.8-4,1.23-8,2.46-12.06,3.66a3,3,0,0,1-.85.13c-2.6,0-3.25-4-.53-5.12Q19.82,76.51,26,74.15q-1.43-8.27-2.43-16.6c-3.42-3.28-3.14-10.78,2.08-12.21,10.16-5.45,22-8.37,32.9-12s21.72-7.09,32.61-10.55q17.28-5.52,34.61-10.88c7.8-2.41,17-6.91,25.49-6.91M88.89,52.23,92.75,51c13.31-4.25,26.63-8.48,40-12.42,8.19-2.41,16.59-5.32,25.06-7.43q-1.18-4.85-2.3-9.72c-7.64,4.79-18.77,6.06-26.91,8.44Q112.21,34.67,95.8,39.6l-9,2.72.56,1.46a2.27,2.27,0,0,1-.05,2q.83,3.18,1.54,6.41M35.37,70.6C50.19,65.09,65.14,60,80.18,55.06q-.59-5.22-.94-10.43-9.06,2.77-18.13,5.53C51.76,53,42.35,56.54,32.7,58.33Q34,64.48,35.37,70.6M151.27,0V0c-7.1,0-14.28,2.62-20.61,4.93-2.25.81-4.37,1.59-6.36,2.21C112.73,10.72,101.07,14.38,89.65,18,79.6,21.22,68.21,24.85,57,28.59c-2.64.88-5.29,1.71-8.1,2.58-8.45,2.62-17.19,5.33-25.15,9.54a10.72,10.72,0,0,0-7,7.79,13.69,13.69,0,0,0,2.07,11.13c.46,3.67,1,7.41,1.62,11.32-3.17,1.24-6,2.35-8.62,3.42a7.74,7.74,0,0,0-4.73,8.74,7.27,7.27,0,0,0,7.14,6,8.17,8.17,0,0,0,2.27-.34l6.79-2c2.31,11.61,5,23.21,7.69,34.48,3.9,16.56,7.92,33.68,10.59,50.68,1.15,7.37,2,13.89,2.47,19.89-4.25-8.88-12.79-18.12-24.42-18.12a22.28,22.28,0,0,0-4.29.42,18.11,18.11,0,0,0-12.72,9c-3.12,5.63-3.43,13.13-.82,20.08,2.34,6.21,9.45,16.75,16.92,25.06,7.25,8.06,18,17.68,28.24,17.68,3.73,0,9.06-1.29,13.23-7.42,7.72-11.35,7.73-26.7,6.59-41.6a350.41,350.41,0,0,0-7-46.5c-3.25-15.2-7.08-30.47-10.79-45.24-2-8-4.08-16.27-6-24.46,9.2-2.87,18.47-5.79,27.47-8.64L77.14,70c1.69,10.87,3.83,21.76,5.91,32.34,1.54,7.81,3.12,15.88,4.47,23.69l4.55,26.32a9.75,9.75,0,0,0-16,4.94c-4.7,27.29,18.86,57.52,26.19,66.13a9.65,9.65,0,0,0,7.43,3.53,11.53,11.53,0,0,0,11-10.35c1.15-13.8-1.34-27.24-3.74-40.22l-.53-2.9L108,127.58l-.49-2.65c-2.48-13.51-5-27.48-7.64-41.22-.72-3.8-1.41-7.74-2.07-11.55-.47-2.71-1-5.48-1.46-8.25l.14,0c9.81-3,19.82-6,29.51-8.93l8.64-2.59c3.56-1.07,7.31-2.09,10.93-3.08s7.23-2,10.86-3c2.16,8.81,4.42,18.41,6.08,28,4,23.11,6.08,46.1,7.46,63.56.68,8.72,1.31,18,2,30l.14,2.15c.23,3.78.47,7.67.61,11.5-7.33-8.65-12.1-18.78-15-32a8.85,8.85,0,0,0,6.21-3.61,8.06,8.06,0,0,0,.95-7.42A32,32,0,0,0,149.4,120.8a11.3,11.3,0,0,0-5.32-1.28c-5.61,0-10,3.51-10.68,8.55a82.07,82.07,0,0,0,4,36.74,99.72,99.72,0,0,0,17.94,32C160,202.38,167.43,209,176.45,209a17.94,17.94,0,0,0,8.26-2c11.77-6,10.62-19.24,9.87-28-.08-.83-.15-1.65-.21-2.44q-.31-4.26-.64-8.5c-1.86-24.92-3.79-50.69-7.51-76-2.57-17.38-5.49-35.74-10.49-53.3a8.32,8.32,0,0,0,2.81-8.4,8.19,8.19,0,0,0-7.76-6.66q-1.83-4.89-3.89-9.46a12.17,12.17,0,0,0-1.18-7.38A11.82,11.82,0,0,0,158.51,1a25,25,0,0,0-7.24-1ZM38.63,62.18c5.57-1.34,11-3.11,16.32-4.82,2.51-.81,5.1-1.65,7.62-2.41l12.19-3.72,0,.33C61.69,55.88,49.9,60,39,63.93c-.13-.58-.25-1.17-.38-1.75ZM34.24,208.77A11.25,11.25,0,0,0,44.59,202c0,.21,0,.42,0,.62a68.29,68.29,0,0,1-.71,13.8c-.17.93-.38,1.87-.62,2.8-1.23-1.22-2.42-2.47-3.1-3.19s-1.37-1.45-1.91-2q-2.69-2.62-5.07-5.3c.34,0,.69.05,1,.05Z"/><path class="cls-1" d="M189.39,176.93c-2.13-28.11-4-56.19-8.12-84.11-2.74-18.56-5.87-38.16-11.52-56.61.78-.34,1.58-.65,2.34-1,3-1.41,1.63-6.84-1.74-6.45-1,.12-1.94.28-2.91.43q-2.56-7.37-5.8-14.37a6.86,6.86,0,0,0-4.57-9c-10-3-21.68,3.13-31.29,6.1q-17.34,5.37-34.61,10.88C80.28,26.25,69.4,29.73,58.56,33.34s-22.74,6.55-32.9,12c-5.22,1.43-5.5,8.93-2.08,12.21q1,8.34,2.43,16.6Q19.81,76.52,13.67,79c-3,1.22-1.9,6,1.38,5,4-1.2,8-2.43,12.06-3.66,5.69,30.4,14.57,60.21,19.37,90.8a238.78,238.78,0,0,1,3.12,31.35,73.31,73.31,0,0,1-.78,14.8,44.28,44.28,0,0,1-1.63,6.31c-.87,1.54-1.48,2.66-1.85,3.42-3.22-1.21-8.42-7.31-10.57-9.42a106.51,106.51,0,0,1-8.87-9.76c-1-1.25-8.81-10.26-7.77-12.45,3.66-7.67,9.24,3.36,10.78,5.47,4.78,6.55,14.23,1.06,10.85-6.34-4.1-9-12.71-17.66-23.48-15.51S3,192.36,6.44,201.45c4.6,12.22,36.13,54,49.57,34.27,7.28-10.7,6.68-26.19,5.75-38.41a345.59,345.59,0,0,0-6.95-45.83c-5.32-24.87-12.06-49.39-17.88-74.14,14.78-4.58,29.54-9.27,44.3-13.93C84.12,84.12,89,104.9,92.45,125.13q3.8,22,7.6,44c1.69,9.74,3.7,19.44,4.51,29.23a99.6,99.6,0,0,1-7.24-15C94,174.76,93.24,165.31,89.38,157c-1.61-3.48-7.77-2.71-8.43,1.1-3.62,21.08,12,46.72,25.08,62,3.46,4.08,9.28.44,9.65-4,1.18-14.12-1.66-28-4.2-41.79q-4.2-22.93-8.41-45.86-4-21.93-8.12-43.84c-1.51-8-2.8-16.1-4.34-24.17L95,59.09c12.7-4,25.45-7.72,38.19-11.54,8.73-2.62,18-4.79,26.81-7.68,2.75,11.09,5.47,22.19,7.43,33.51,3.66,21.18,5.83,42.6,7.51,64,.79,10,1.45,20.09,2,30.14.31,5,.64,10,.8,15,.11,3.39,1.08,4.24-2.46,5.4-3.36,1.1-3.58,0-5.71-2.47-11.41-13.07-16.09-28.14-18.41-44.39,1,.78,1.94,1.61,3,2.52,2.49,2.21,7.34.12,6.05-3.52A27,27,0,0,0,147,125.21c-3-1.58-8.14-.46-8.68,3.53-3.08,22.89,6.17,47.42,20.8,64.87,5.52,6.6,14.35,13.5,23.26,8.92C192.09,197.57,190.07,185.91,189.39,176.93ZM35.37,70.6Q34,64.48,32.7,58.33c9.65-1.79,19.06-5.33,28.41-8.17q9.08-2.74,18.13-5.53.36,5.2.94,10.43C65.14,60,50.19,65.09,35.37,70.6Zm97.41-32c-13.4,3.94-26.72,8.17-40,12.42l-3.86,1.25q-.72-3.23-1.54-6.41a2.27,2.27,0,0,0,.05-2l-.56-1.46,9-2.72q16.4-4.93,32.83-9.75c8.14-2.38,19.27-3.65,26.91-8.44q1.11,4.88,2.3,9.72C149.37,33.24,141,36.15,132.78,38.56Z"/></g></g></svg>