<svg xmlns="http://www.w3.org/2000/svg" viewBox="0 0 541.43 531.81"><defs><style>.cls-1{fill:#fff;}.cls-2{font-size:113.85px;}.cls-2,.cls-6,.cls-9{stroke:#000;stroke-width:4.22px;font-family:Meriva-Extra, Meriva;}.cls-3{letter-spacing:-0.01em;}.cls-4{letter-spacing:0.02em;}.cls-5{letter-spacing:-0.02em;}.cls-6{font-size:91.1px;stroke-miterlimit:10;}.cls-7{letter-spacing:-0.02em;}.cls-8{letter-spacing:0em;}.cls-9{font-size:149.1px;letter-spacing:0.05em;}.cls-10{letter-spacing:0.08em;}.cls-11{letter-spacing:0.05em;}</style></defs><title>T_dice_03</title><g id="Layer_2" data-name="Layer 2"><g id="T_dice_03"><polygon class="cls-1" points="7.21 299.15 158.61 61.29 477.62 5.57 270.56 302.16 7.21 299.15"/><path d="M468.87,11.15l-200.37,287L14.41,295.24,161,64.91,468.87,11.15M486.37,0,156.19,57.66,0,303.05l272.62,3.12L486.37,0Z"/><polygon class="cls-1" points="270.01 302.61 484.21 9.7 537.26 279.64 416.94 523.84 270.01 302.61"/><path d="M482.06,19.39l51,259.7L416.43,515.86,274.86,302.72,482.06,19.39M486.37,0,265.15,302.5l152.3,229.31,124-251.61L486.37,0Z"/><polygon class="cls-1" points="186.93 484.96 9.46 306.9 271.27 303.12 409.33 526.25 186.93 484.96"/><path d="M269.07,307.14,401.2,520.69,188.88,481.27l-170-170.53,250.15-3.6m4.4-8L0,303.05l185,185.6,232.46,43.16-144-232.7Z"/><text class="cls-2" transform="matrix(1.06, -0.62, 0.13, 0.99, 93.02, 287.44)"><tspan class="cls-3">D</tspan><tspan class="cls-4" x="76.61" y="0">R</tspan><tspan class="cls-5" x="151.82" y="0">E</tspan><tspan x="221.37" y="0">I</tspan></text><text class="cls-6" transform="matrix(1.16, 0.54, 0.13, 0.99, 117.92, 392.11)">D<tspan class="cls-7" x="62.18" y="0">O</tspan><tspan class="cls-8" x="131.22" y="0">S</tspan></text><text class="cls-9" transform="matrix(0.33, -0.64, 0.49, 0.87, 385.24, 454.07)">F<tspan class="cls-10" x="99.27" y="0">I</tspan><tspan class="cls-11" x="175.25" y="0">V</tspan><tspan class="cls-10" x="293.45" y="0">E</tspan></text></g></g></svg>