<svg xmlns="http://www.w3.org/2000/svg" viewBox="0 0 650 646.48"><defs><style>.cls-1{fill:#fff;}</style></defs><title>T_dice_mix</title><g id="Layer_2" data-name="Layer 2"><g id="T_dice_mix"><path class="cls-1" d="M45,609.56a20.14,20.14,0,0,1-19-14.5,5.23,5.23,0,0,0-1.44-2.31A60.68,60.68,0,0,1,7.22,563.44,62.54,62.54,0,0,1,18,509.85C28,496.92,42,489.8,57.4,489.8c.66,0,1.33,0,2,0,19.71.79,38.88,14.21,48.83,34.17a5,5,0,0,0,.59.92c12.1,15.22,15.59,34.09,9.55,51.78-5.71,16.74-17.68,28.26-32.84,31.59a44,44,0,0,1-9.38,1,41.53,41.53,0,0,1-5.47-.36,5.34,5.34,0,0,0-.69-.05h-.35c-1.31.09-2.63.14-4,.14A59.6,59.6,0,0,1,54.42,608a5.33,5.33,0,0,0-1-.09,5.19,5.19,0,0,0-1.94.37,17.63,17.63,0,0,1-4,1.12A18,18,0,0,1,45,609.56Z"/><path d="M57.39,495c.6,0,1.2,0,1.8,0,17.84.72,35.26,13,44.37,31.29a10.46,10.46,0,0,0,1.18,1.84c11,13.8,14.15,30.87,8.7,46.85-5.11,15-15.69,25.24-29,28.17a37.65,37.65,0,0,1-13,.6,10.39,10.39,0,0,0-1.37-.09c-.23,0-.47,0-.71,0-1.18.08-2.39.12-3.59.12a54.08,54.08,0,0,1-10.28-1,10,10,0,0,0-2-.19,10.34,10.34,0,0,0-3.88.75,12.31,12.31,0,0,1-2.82.8,11.88,11.88,0,0,1-1.79.13,15.09,15.09,0,0,1-14-10.78,10.44,10.44,0,0,0-2.88-4.63,55.46,55.46,0,0,1-15.8-26.8,57.28,57.28,0,0,1,9.81-49.09c9-11.63,21.56-18,35.31-18m0-10.43C19.07,484.58-8,525,2.17,564.74A65.52,65.52,0,0,0,21,596.56a25.45,25.45,0,0,0,24,18.22,22.07,22.07,0,0,0,8.49-1.68,64.46,64.46,0,0,0,12.25,1.18c1.43,0,2.87,0,4.3-.14a46.74,46.74,0,0,0,6.16.4,48.78,48.78,0,0,0,10.49-1.15c17.42-3.82,30.61-17.22,36.67-35,7.13-20.9,1.64-41.56-10.41-56.72-10.38-20.83-30.61-36.14-53.29-37-.74,0-1.48-.05-2.22-.05Z"/><path class="cls-1" d="M43.59,279.61a8.36,8.36,0,0,1-2-.24,4.54,4.54,0,0,0-1-.14l-.06,0-.46-.06-.23,0-.49-.07h0l-.27-.05-3.09-.45L32.56,277c-3-1.8-5.65-5.61-6.69-9.77a18.89,18.89,0,0,1,0-9.09,14.24,14.24,0,0,1,1.26-3.47c.05-.09.1-.19.14-.28a16,16,0,0,1,2.77-4.2,14.18,14.18,0,0,1,6.31-4,17.71,17.71,0,0,1,4-.67h.25a11.41,11.41,0,0,1,1.36.18l1,.17.52,0c.54.06,1.51.19,1.82.26l.16.05c.58.2,3,1.31,3.93,1.83,1.16.9,2.3,1.85,3.39,2.83l2.65,3.71c.4.87,1.37,3.39,1.57,4.06a12.37,12.37,0,0,1,.25,6.07,5.93,5.93,0,0,0-.1.72,19.32,19.32,0,0,1-.23,2l0,0c-.21.65-1.27,3.37-1.63,4.19s-1.87,2.66-2.41,3.36l-.14.15a13.66,13.66,0,0,1-6.19,3.91l-.16.06a8.72,8.72,0,0,1-2.8.48Z"/><path d="M40.35,250.69h0l.74.12,1.14.18h.07l.76.08.88.11c.67.29,1.92.88,2.64,1.24.79.62,1.56,1.26,2.32,1.93l.88,1.23,1.1,1.54c.37.88,1,2.42,1.15,3a7.22,7.22,0,0,1,.13,3.51,10.1,10.1,0,0,0-.19,1.45c0,.35-.06.71-.11,1.06-.28.76-.85,2.2-1.18,3s-1.32,1.85-1.77,2.46A8.49,8.49,0,0,1,45,274.08l-.32.11a3.46,3.46,0,0,1-1.13.2,3.25,3.25,0,0,1-.74-.09,10.49,10.49,0,0,0-1.57-.26l-.57-.07-.22,0-.35-.05-.23,0-2.36-.34L35,272.36a11.36,11.36,0,0,1-4.09-6.43,13.65,13.65,0,0,1,0-6.54,9.79,9.79,0,0,1,.8-2.28c.1-.18.19-.36.28-.55a11.3,11.3,0,0,1,1.85-2.85,9.1,9.1,0,0,1,3.93-2.55,13.88,13.88,0,0,1,2.55-.47m0-10.43a22.51,22.51,0,0,0-5.38.85,19.59,19.59,0,0,0-8.76,5.52,21.75,21.75,0,0,0-3.64,5.52,19.51,19.51,0,0,0-1.74,4.67,24.13,24.13,0,0,0,0,11.64c1.33,5.34,4.76,10.56,9.35,13.15l4.42,2,3.83.55c.18,0,.37.06.56.09l.52.07h0c.29,0,.57.09.85.11a14.05,14.05,0,0,0,3.2.38,13.82,13.82,0,0,0,4.48-.76,18.86,18.86,0,0,0,8.49-5.35l.2-.19c.47-.57,2.79-3.76,3.14-4.41.26-.49,1.87-4.6,2-5.18,0-.09.06-.17.08-.26a26.06,26.06,0,0,0,.37-2.93,17.71,17.71,0,0,0-.36-8.61,50.9,50.9,0,0,0-2.1-5.28l-3.12-4.37a1.07,1.07,0,0,0-.14-.16l-.1-.1q-2-1.8-4.09-3.42a4,4,0,0,0-.56-.35,45,45,0,0,0-5-2.26l-.28-.09a27.55,27.55,0,0,0-3-.45l.06,0h0a24.82,24.82,0,0,0-2.93-.4Z"/><path class="cls-1" d="M288.12,82.77c-15,0-28.5-9-33.47-22.34-.3-.81-.57-1.65-.82-2.58a4.73,4.73,0,0,0-1.59-2.45c-7.18-5.85-6.36-14.75-5.68-18.31,3.12-16.3,23.14-26.38,39.9-26.38a40.49,40.49,0,0,1,8.79.93c19.91,4.44,31.87,22.42,27.82,41.83a26.93,26.93,0,0,1-1.94,5.78,5.44,5.44,0,0,0-.29.8c-2.36,9.06-9.73,16.68-19.7,20.37a37.36,37.36,0,0,1-13,2.35Z"/><path d="M286.46,15.45a36.06,36.06,0,0,1,7.76.82c8.85,2,15.87,6.73,20.29,13.76a30.32,30.32,0,0,1,3.92,22.47,22.34,22.34,0,0,1-1.6,4.75,9.24,9.24,0,0,0-.57,1.6c-2,7.57-8.25,14-16.76,17.12a32.82,32.82,0,0,1-11.38,2c-12.87,0-24.81-7.91-29-19.24-.25-.67-.47-1.38-.68-2.15a9.44,9.44,0,0,0-3.17-4.91c-5.2-4.23-4.55-11-4-13.74,1.13-5.91,5.37-11.5,11.93-15.72a44.09,44.09,0,0,1,23.31-6.81m0-9.49c-19.93,0-41.08,12.11-44.56,30.23-1.6,8.34.38,17.21,7.35,22.89.27,1,.58,2,.95,3,5.68,15.23,21.09,25.42,37.92,25.42a42.07,42.07,0,0,0,14.67-2.65c11.86-4.39,20-13.45,22.64-23.61a31.35,31.35,0,0,0,2.28-6.81C332,33.81,320.08,12.31,296.29,7a45.19,45.19,0,0,0-9.83-1Z"/><path class="cls-1" d="M379,25.42c-6.68,0-8.46-6.34-8.46-10.09S372.35,5.22,379,5.22s8.46,6.34,8.46,10.09S385.71,25.42,379,25.42Z"/><path d="M379,10.43a2.27,2.27,0,0,1,2.09.84,6.84,6.84,0,0,1,1.15,4,6.81,6.81,0,0,1-1.16,4,2.24,2.24,0,0,1-2.08.84,2.27,2.27,0,0,1-2.09-.83,6.87,6.87,0,0,1-1.16-4A6.86,6.86,0,0,1,377,11.27a2.24,2.24,0,0,1,2.08-.84M379,0c-18.22,0-18.25,30.63,0,30.63S397.28,0,379,0Z"/><path class="cls-1" d="M294,616.67a35,35,0,0,1-10.74-1.78,5.45,5.45,0,0,0-1.6-.25h-.33c-2.11.13-4.25.2-6.35.2a96,96,0,0,1-27.74-4c-24.13-7.27-51.16-27.18-57.17-55.27a88.68,88.68,0,0,1,0-35.78,5.23,5.23,0,0,0-4.74-6.21c-.82-.06-1.57-.13-2.29-.22s-1.71-.24-2.56-.39a5.14,5.14,0,0,0-.88-.07h-.13a50.31,50.31,0,0,1-18.87-3.58A45.6,45.6,0,0,1,145.11,499a5.07,5.07,0,0,0-1.47-1.05c-8-3.8-18.6-10.91-24-23.21A57.62,57.62,0,0,1,116.23,438a5.21,5.21,0,0,0-5.07-6.47,5.12,5.12,0,0,0-.67,0,27.7,27.7,0,0,1-3.51.23c-6.43,0-12.75-2.33-18.77-6.93-14.44-11-22.88-28.7-22-46.12a74.54,74.54,0,0,1,8.11-30.06,5.49,5.49,0,0,0,.45-1.31,66.76,66.76,0,0,1,5.82-16.74,5.47,5.47,0,0,0,.56-2.2,59.81,59.81,0,0,1,7.12-26.57,50.11,50.11,0,0,1,29.85-24.59,5.22,5.22,0,0,0,2.27-8.52,94.79,94.79,0,0,1-19.65-33.13c-10.23-29.08-3.86-61.34,16.24-82.18a57,57,0,0,1,27.8-15.67,5.3,5.3,0,0,0,1.89-.89,73.73,73.73,0,0,1,13.43-8,46.59,46.59,0,0,1,19.47-4.09c16.65,0,35.68,7.9,52.2,21.68a5.21,5.21,0,0,0,7.21-.51,47.44,47.44,0,0,1,33.55-15.21,5.27,5.27,0,0,0,1.71-.35,45.22,45.22,0,0,1,8.47-2.37,59.93,59.93,0,0,1,10.27-.89,58.62,58.62,0,0,1,27.42,6.79,5.18,5.18,0,0,0,4.46.2,5.2,5.2,0,0,0,3-3.33A107.65,107.65,0,0,1,350,90.06a91.75,91.75,0,0,1,6.59-6.67,5.68,5.68,0,0,0,.78-.91,70.66,70.66,0,0,1,24.55-22.41c12-6.59,24.7-10.06,36.76-10.06a56.27,56.27,0,0,1,19.2,3.26,76.18,76.18,0,0,1,15.7,7.93,5.2,5.2,0,0,0,1.6.7c1,.24,2.05.53,3.22.88a4.91,4.91,0,0,0,.76.17c10.36,1.46,19.91,6.7,27.63,15.13,10.1,11,18.5,25.58,24.29,42a5,5,0,0,0,.58,1.16C522,136.87,528.21,156.58,528.19,174a80.28,80.28,0,0,1-4.94,28.08,5.16,5.16,0,0,0,0,3.73A28.26,28.26,0,0,1,524.46,221a5.19,5.19,0,0,0,.54,3.39A160.48,160.48,0,0,1,533.13,242c19.22,49.29,15.22,99.71-10.72,134.86a82.74,82.74,0,0,1-27,23.68,5.17,5.17,0,0,0-2.32,2.6c-1.4,3.39-2.62,6.15-3.86,8.7a108.2,108.2,0,0,1-8.78,14.79,5.1,5.1,0,0,0-.91,2.32c-2.9,21.58-12.71,39.91-28.38,53a5.21,5.21,0,0,0-1.32,6.34c4.23,8.42,4.91,18.68,1.93,28.88a5.47,5.47,0,0,0-.19,1c-.07.79-.15,1.58-.26,2.35a4.84,4.84,0,0,0,0,1.14c1.23,15.62-3.45,29.87-13.18,40.12a47.14,47.14,0,0,1-34.47,15h0A48.88,48.88,0,0,1,374,566.66a5.21,5.21,0,0,0-3.18-1.09,5.06,5.06,0,0,0-.68,0,5.19,5.19,0,0,0-3.46,2,123.13,123.13,0,0,1-47.38,37.51,5.2,5.2,0,0,0-1.49,1C310.57,613.13,302.54,616.67,294,616.67Z"/><path d="M418.67,55.22a51.17,51.17,0,0,1,17.43,3,70.63,70.63,0,0,1,14.61,7.38,10.45,10.45,0,0,0,3.21,1.4c.92.23,1.89.5,3,.82a9.8,9.8,0,0,0,1.52.33c9.15,1.3,17.62,6,24.51,13.49,9.63,10.54,17.66,24.45,23.22,40.24a11,11,0,0,0,1.15,2.3C517.13,138.94,523,157.56,523,174a75.27,75.27,0,0,1-4.61,26.25,10.4,10.4,0,0,0,0,7.47,23.06,23.06,0,0,1,.92,12.36,10.34,10.34,0,0,0,1.08,6.77,157.23,157.23,0,0,1,7.86,17.06c8.7,22.3,12.63,45.7,11.38,67.68-1.36,23.83-8.57,44.75-21.44,62.19a77.48,77.48,0,0,1-25.27,22.2,10.44,10.44,0,0,0-4.65,5.2c-1.35,3.29-2.53,6-3.72,8.39a101.83,101.83,0,0,1-8.35,14.06,10.45,10.45,0,0,0-1.82,4.64c-2.72,20.27-11.91,37.46-26.56,49.7a10.43,10.43,0,0,0-2.63,12.68c3.63,7.24,4.19,16.14,1.58,25.08a10.82,10.82,0,0,0-.37,1.95c-.08.86-.16,1.53-.24,2.11a10.88,10.88,0,0,0-.07,2.28c1.11,14.13-3.07,27-11.76,36.12a42,42,0,0,1-30.69,13.39,43.58,43.58,0,0,1-26.44-9,10.46,10.46,0,0,0-6.36-2.16,10.44,10.44,0,0,0-8.28,4.09,117.93,117.93,0,0,1-45.37,35.92,10.54,10.54,0,0,0-3,2c-6.27,6-13.08,9.09-20.25,9.09a29.72,29.72,0,0,1-9.13-1.53,10.63,10.63,0,0,0-3.22-.51l-.64,0c-2,.13-4,.19-6,.19a90.8,90.8,0,0,1-26.23-3.81c-22.66-6.83-48-25.36-53.58-51.37a83.79,83.79,0,0,1,0-33.69,10.43,10.43,0,0,0-9.46-12.41c-.73-.05-1.39-.12-2-.2-.77-.1-1.56-.21-2.35-.35a10.37,10.37,0,0,0-1.76-.15h-.14a45.09,45.09,0,0,1-16.91-3.2,40.35,40.35,0,0,1-13.73-9.16,10.2,10.2,0,0,0-2.94-2.1c-7.17-3.42-16.71-9.76-21.45-20.59a52.36,52.36,0,0,1-3.14-33.37,10.43,10.43,0,0,0-10.12-12.94,10.2,10.2,0,0,0-1.35.09,22.68,22.68,0,0,1-2.84.18c-5.26,0-10.51-2-15.6-5.85-13.1-10-20.76-26-20-41.73a69.66,69.66,0,0,1,7.55-28,10.43,10.43,0,0,0,.91-2.6A61.59,61.59,0,0,1,85.21,333a10.5,10.5,0,0,0,1.12-4.39,54.73,54.73,0,0,1,6.51-24.28,44.47,44.47,0,0,1,26.81-22.07,10.43,10.43,0,0,0,4.55-17,89.6,89.6,0,0,1-18.57-31.32C96,206.64,102,176.48,120.7,157.06A51.86,51.86,0,0,1,146,142.83a10.45,10.45,0,0,0,3.8-1.79,68.17,68.17,0,0,1,12.47-7.43,41.37,41.37,0,0,1,17.3-3.62c15.45,0,33.26,7.46,48.86,20.46a10.43,10.43,0,0,0,14.41-1,42.25,42.25,0,0,1,29.87-13.5,10.47,10.47,0,0,0,3.41-.7,40.6,40.6,0,0,1,7.5-2.09,54.37,54.37,0,0,1,9.36-.82,53.48,53.48,0,0,1,25,6.18,10.43,10.43,0,0,0,14.9-6.25,102.14,102.14,0,0,1,21.07-38.74,85.5,85.5,0,0,1,6.22-6.29,10.8,10.8,0,0,0,1.56-1.81,65.55,65.55,0,0,1,22.75-20.78c11.21-6.16,23.06-9.42,34.25-9.42m0-10.43c-13.6,0-27.26,4.11-39.28,10.71a76.1,76.1,0,0,0-26.34,24,96.63,96.63,0,0,0-7,7,113.33,113.33,0,0,0-23.28,42.7,64,64,0,0,0-41-6.42,50.63,50.63,0,0,0-9.45,2.63,52.48,52.48,0,0,0-37.25,16.93c-15.9-13.25-36.12-22.88-55.54-22.88a51.74,51.74,0,0,0-21.64,4.56,79.16,79.16,0,0,0-14.38,8.57,62.07,62.07,0,0,0-30.32,17.12c-21.86,22.66-28.14,57-17.41,87.54a100.27,100.27,0,0,0,20.74,34.93,55.14,55.14,0,0,0-32.89,27.11,65.07,65.07,0,0,0-7.74,28.87,72.32,72.32,0,0,0-6.27,18.06A79.58,79.58,0,0,0,61,378.47C60,398.65,70.12,417.6,85.05,429c7.18,5.48,14.6,8,21.93,8a32.49,32.49,0,0,0,4.18-.28,63.09,63.09,0,0,0,3.71,40.06c5.32,12.16,15.37,20.51,26.52,25.83a51,51,0,0,0,17.26,11.52,55.45,55.45,0,0,0,20.81,4h.14c.92.16,1.85.3,2.78.42s1.71.19,2.57.25a94.56,94.56,0,0,0,0,37.88c6.45,30.14,34.75,51.33,60.77,59.18A101.33,101.33,0,0,0,275,620.06c2.23,0,4.45-.07,6.68-.2a40.1,40.1,0,0,0,12.34,2c10.55,0,19.81-4.62,27.48-12a128.71,128.71,0,0,0,49.4-39.1A53.94,53.94,0,0,0,403.66,582a52.29,52.29,0,0,0,38.26-16.64c11.43-12.06,15.84-28.28,14.59-44.12.12-.85.21-1.72.3-2.59,3.24-11.12,2.73-22.7-2.28-32.69,17.47-14.59,27.3-34.68,30.21-56.31a111.9,111.9,0,0,0,9.2-15.51c1.45-3,2.76-6,4-9a88.18,88.18,0,0,0,28.66-25.17c29.55-40,29.22-94.12,11.39-139.85a166.84,166.84,0,0,0-8.39-18.2,33.43,33.43,0,0,0-1.47-18A85.28,85.28,0,0,0,533.41,174c0-18.64-6.49-39.16-17.42-55.6-5.86-16.62-14.42-31.84-25.36-43.8C481.79,64.9,471,59.36,459.88,57.78c-1.15-.34-2.3-.66-3.46-1a81,81,0,0,0-16.78-8.46,61.49,61.49,0,0,0-21-3.58Z"/><path class="cls-1" d="M586.12,510.63a50.48,50.48,0,0,1-23.8-6,5.32,5.32,0,0,0-1.11-.43c-8.93-2.35-24.54-9.15-28.77-28.28a47.77,47.77,0,0,1-1.07-10.22,5.4,5.4,0,0,0-.19-1.38,77,77,0,0,1,.29-42.35c4.3-14.29,12.68-26.06,24.22-34a44.39,44.39,0,0,1,25.5-8.35c12.48,0,25.06,5.62,35.41,15.81a4.52,4.52,0,0,0,.72.59,63.74,63.74,0,0,1,19.77,21.9c13.41,24.46,9,56.82-10.24,75.29-11.7,11.22-26.17,17.41-40.73,17.41Z"/><path d="M581.19,384.85c11.11,0,22.38,5.08,31.75,14.31a10.8,10.8,0,0,0,1.43,1.18,58.29,58.29,0,0,1,18.14,20.09A60,60,0,0,1,639,457c-1.71,12.81-7.31,24.34-15.79,32.47-10.73,10.29-23.91,16-37.12,16a45.25,45.25,0,0,1-21.36-5.35,10.52,10.52,0,0,0-2.22-.86c-7.78-2.05-21.37-7.94-25-24.36a43.37,43.37,0,0,1-.94-9.12,10.89,10.89,0,0,0-.39-2.77,71.62,71.62,0,0,1,.27-39.44c3.95-13.14,11.62-23.94,22.19-31.23a39.24,39.24,0,0,1,22.53-7.43m0-10.43a49.62,49.62,0,0,0-28.46,9.27c-26.34,18.18-34.81,52.64-26.58,82.07a53.37,53.37,0,0,0,1.2,11.33c3.93,17.79,17.24,28.17,32.53,32.19a55.79,55.79,0,0,0,26.24,6.56c15.92,0,31.73-6.76,44.34-18.86,21.18-20.32,25.5-55.48,11.2-81.56a69,69,0,0,0-21.4-23.7c-10.8-10.63-24.62-17.3-39.07-17.3Z"/><path class="cls-1" d="M503.11,576.7c-10.15,0-19.62-6.06-24.72-15.82-4.69-9-4.94-20.66-.64-30.48,3.46-7.92,9.34-13.35,16.55-15.3a20.05,20.05,0,0,1,5.31-.7c.59,0,1.18,0,1.78.07l.42,0a5.36,5.36,0,0,0,1.64-.26,17.94,17.94,0,0,1,5.67-1,14.15,14.15,0,0,1,8.51,2.7,32.84,32.84,0,0,1,13.9,27.14c0,9.11-3.37,18.3-9,24.6a25.91,25.91,0,0,1-19.39,9Z"/><path d="M509.12,518.5a9.09,9.09,0,0,1,5.44,1.69,27.48,27.48,0,0,1,11.75,22.93,32.25,32.25,0,0,1-7.69,21.12,20.4,20.4,0,0,1-15.52,7.24c-8.19,0-15.89-5-20.09-13-3.92-7.5-4.11-17.7-.49-26,1.64-3.73,5.51-10.29,13.14-12.36a15.29,15.29,0,0,1,3.95-.52q.67,0,1.35.06c.28,0,.57,0,.85,0a10.36,10.36,0,0,0,3.27-.52,13,13,0,0,1,4-.68m0-10.43a23.52,23.52,0,0,0-7.31,1.2c-.73-.06-1.46-.09-2.2-.09a25.42,25.42,0,0,0-6.67.88c-20.9,5.66-29.3,33.87-19.17,53.24,6.29,12,17.77,18.61,29.33,18.61a31,31,0,0,0,23.29-10.7,42.87,42.87,0,0,0,10.36-28.09,37.92,37.92,0,0,0-16-31.36,19.47,19.47,0,0,0-11.58-3.69Z"/><path class="cls-1" d="M592.94,234.63A23.55,23.55,0,0,1,576,227.24c-3.61-3.63-5.51-9.61-5-15.59a5.23,5.23,0,0,0-.06-1.37,19.48,19.48,0,0,1,.38-8.5,28.7,28.7,0,0,1,9.48-14.71,25,25,0,0,1,15.87-6,22,22,0,0,1,16.35,7.34c10.28,11,7.26,28.91-1.88,38.15a25.81,25.81,0,0,1-18.26,8.11Z"/><path d="M596.73,186.25a17,17,0,0,1,12.55,5.68c8,8.57,5.67,23.39-1.78,30.92a20.68,20.68,0,0,1-14.56,6.56,18.47,18.47,0,0,1-13.21-5.84c-2.51-2.53-3.88-7-3.48-11.45a10.08,10.08,0,0,0-.11-2.74,14.21,14.21,0,0,1,.27-6.23,23.33,23.33,0,0,1,7.8-12.08,19.75,19.75,0,0,1,12.52-4.82m0-10.44a30,30,0,0,0-19.21,7.26,33.8,33.8,0,0,0-11.17,17.33,24.54,24.54,0,0,0-.48,10.78c-.65,7.16,1.56,14.8,6.46,19.74a28.81,28.81,0,0,0,20.61,8.92c7.84,0,15.69-3.31,22-9.66,11.57-11.68,13.73-32.83,2-45.38a27.38,27.38,0,0,0-20.16-9Z"/><path class="cls-1" d="M151.6,622.08a7,7,0,0,1-3.55-1,5.86,5.86,0,0,0-1.06-.46,3.28,3.28,0,0,1-1.53-1,4.7,4.7,0,0,0-.82-.72,8.52,8.52,0,0,1-2.7-3.13l-1.43-3.68-.38-2.61c0-.17-.06-.33-.1-.5a15.6,15.6,0,0,1,0-7.74,14.32,14.32,0,0,1,3.36-6.24l.12-.13a8,8,0,0,1,3.51-2.46,5.33,5.33,0,0,0,.84-.39,7.41,7.41,0,0,1,3.73-1h.54a11.46,11.46,0,0,1,6,1.67l3,2.53a14.48,14.48,0,0,1,3.17,6,15.76,15.76,0,0,1,0,7.69,3,3,0,0,0-.1.5l-.44,3a9.16,9.16,0,0,1-2,4,6.63,6.63,0,0,0-.49.69,8.31,8.31,0,0,1-2.82,2.89l-3.2,1.46-3.57.52Z"/><path d="M151.59,596.33h.53a6.14,6.14,0,0,1,3,.75l.37.31,2,1.63a9.59,9.59,0,0,1,1.79,3.6,10.52,10.52,0,0,1,0,5.17,8.56,8.56,0,0,0-.19,1l-.4,2.73a3.89,3.89,0,0,1-.82,1.61,11.12,11.12,0,0,0-1,1.38,3.4,3.4,0,0,1-.88,1l-.36.16-1.8.82-1,.15-1.41.2a1.79,1.79,0,0,1-.77-.25,10,10,0,0,0-1.63-.75,10.53,10.53,0,0,0-1.36-1.14,3.14,3.14,0,0,1-.95-1.07l-.19-.47-.91-2.35-.29-2c0-.34-.12-.68-.2-1a10.52,10.52,0,0,1,0-5.17,9.27,9.27,0,0,1,2.15-4c.08-.09.16-.17.23-.26a2.84,2.84,0,0,1,1.29-.94,11.69,11.69,0,0,0,1.69-.77,2.06,2.06,0,0,1,1.15-.31m0-10.43a12.55,12.55,0,0,0-6.31,1.67,13.19,13.19,0,0,0-5.73,4,19.68,19.68,0,0,0-4.59,8.5,21.2,21.2,0,0,0,0,10.26l.47,3.19,1.75,4.48a13.82,13.82,0,0,0,4.46,5.26,8.58,8.58,0,0,0,3.83,2.42,12.25,12.25,0,0,0,6.13,1.62h.55l4.61-.67,4.14-1.89a13.66,13.66,0,0,0,4.87-4.83,14.6,14.6,0,0,0,3.1-6.38c.16-1.07.31-2.13.47-3.19a21,21,0,0,0,0-10.26,19.68,19.68,0,0,0-4.59-8.5l-3.6-3a16.76,16.76,0,0,0-9-2.63Z"/><path class="cls-1" d="M46.43,339.27c-4.54,0-8.73-2.13-12.12-6.17a19.58,19.58,0,0,1-2.88-4.69,5.1,5.1,0,0,0-.76-1.24c-.31-.37-.63-.76-.89-1.12-3.87-5.48-6-14.37-1.5-21,5.24-7.7,12.24-12.7,20.23-14.44a14.39,14.39,0,0,1,14.17,5.11,28.29,28.29,0,0,1,3.31,5.8,5.14,5.14,0,0,0,.66,1.13l.14.18c6.17,8.17,7.32,22.24-.89,29.47l-.08.06a5.89,5.89,0,0,0-.72.78,10.5,10.5,0,0,1-4.45,3.61,18.83,18.83,0,0,1-6.78,1.5h0l-.73,0H52.8a5.44,5.44,0,0,0-1.55.23c-.54.17-1,.3-1.44.4A15.85,15.85,0,0,1,46.43,339.27Z"/><path d="M51.42,295.56a8.94,8.94,0,0,1,7.08,3.32,23,23,0,0,1,2.69,4.73,10.37,10.37,0,0,0,1.32,2.25l.17.22c4.73,6.33,5.64,17.13-.19,22.31l-.05,0A10.47,10.47,0,0,0,60.93,330a5.67,5.67,0,0,1-2.18,1.89,14,14,0,0,1-4.88,1.15l-.39,0-.68,0a10.61,10.61,0,0,0-3.11.47c-.4.13-.74.22-1,.29a10.32,10.32,0,0,1-2.24.25c-3.73,0-6.48-2.34-8.13-4.3a14.53,14.53,0,0,1-2.09-3.44,10.56,10.56,0,0,0-1.53-2.48c-.24-.28-.49-.59-.64-.79-2.86-4.06-4.54-10.48-1.45-15s8.61-10.45,17-12.28a8.79,8.79,0,0,1,1.8-.19m0-10.43a18.61,18.61,0,0,0-4,.43c-9.64,2.09-17.66,8.12-23.44,16.6-5.62,8.26-3.82,19.28,1.56,26.9.36.5.75,1,1.14,1.45a24.63,24.63,0,0,0,3.66,5.95c4.3,5.12,9.93,8,16.11,8A20.82,20.82,0,0,0,51,344c.61-.14,1.23-.31,1.85-.51.36,0,.71,0,1.07,0a24,24,0,0,0,8.68-1.87,15.58,15.58,0,0,0,6.71-5.32l0,0c10.42-9.11,9.55-26.19,1.59-36.65l-.11-.14a33.19,33.19,0,0,0-3.93-6.87,19.32,19.32,0,0,0-15.43-7.5Z"/><path class="cls-1" d="M43,243.34l-2-1.08-2-1.89a6.48,6.48,0,0,1-1.32-2.68,4.91,4.91,0,0,0-.33-1,2.91,2.91,0,0,1-.26-1.41,5.17,5.17,0,0,0-.07-1.24,3,3,0,0,1,.09-1.51,5.68,5.68,0,0,0,.23-1.23,2.71,2.71,0,0,1,.41-1.33,5,5,0,0,0,.52-1.13,2.4,2.4,0,0,1,.65-1.05,5.45,5.45,0,0,0,.69-.82,5.62,5.62,0,0,1,2-1.79l2.45-.92,2.48-.18,2.07.25.24,0a5.33,5.33,0,0,1,2.66.91l1.68,1.61a8.66,8.66,0,0,1,1.36,5.17l0,2.81a6.84,6.84,0,0,1-.88,3.25,5.38,5.38,0,0,0-.42,1,2.52,2.52,0,0,1-.64,1.06,4.48,4.48,0,0,0-.69.81,5.73,5.73,0,0,1-2,1.79l-2.44.92-2.24.16Z"/><path d="M46.42,229.34l1.56.19.47.05.64.62a5.13,5.13,0,0,1,.24,1.79l0,1.86v.88a1.65,1.65,0,0,1-.21.83,10,10,0,0,0-.63,1.32,10.46,10.46,0,0,0-.88,1.11l0,.07-.55.21-.65.24-.74.05-.75-.16-.72-.39-1.17-1.12a1.32,1.32,0,0,1-.15-.39,9.87,9.87,0,0,0-.44-1.43,11.64,11.64,0,0,0-.09-1.45,11.43,11.43,0,0,0,.26-1.42,9,9,0,0,0,.53-1.13,10.67,10.67,0,0,0,.89-1.12l.05-.07,1.2-.45,1.23-.09m-3.16,1.14h0m-.69,1.17h0m4.1-12.79-3.74.28-3.43,1.28A10.82,10.82,0,0,0,35.34,224a7.59,7.59,0,0,0-2,3.2A7.9,7.9,0,0,0,32.16,231a8.25,8.25,0,0,0-.24,4,8,8,0,0,0,.72,3.88A11.62,11.62,0,0,0,35.23,244l2.68,2.56,3.24,1.76,3.68.81,3.75-.28L52,247.52a10.85,10.85,0,0,0,4.15-3.61,7.7,7.7,0,0,0,2-3.21A12.22,12.22,0,0,0,59.72,235c0-.93,0-1.86,0-2.8.06-3.08-.73-6.54-2.77-8.85l-2.16-2.06a10.65,10.65,0,0,0-5.59-2.07l-2.57-.32Z"/><path class="cls-1" d="M236.49,641.26a15.61,15.61,0,0,1-6.39-1.34c-5.95-2.63-10.44-8.28-12.32-15.48-2.06-7.87-.62-16.14,3.85-22.14a30.32,30.32,0,0,1,17.51-11.5,15.84,15.84,0,0,1,3.78-.47c7.69,0,14.29,6,16.05,14.68a26.79,26.79,0,0,1-2.71,17.72,5.07,5.07,0,0,0-.51,1.41,22.74,22.74,0,0,1-6.13,11.59,19.31,19.31,0,0,1-13.13,5.53Z"/><path d="M242.92,595.55c5.27,0,9.66,4.22,10.94,10.5a21.54,21.54,0,0,1-2.19,14.22,10.36,10.36,0,0,0-1,2.8A17.62,17.62,0,0,1,246,632a14,14,0,0,1-9.52,4.08,10.52,10.52,0,0,1-4.28-.89c-4.48-2-7.91-6.37-9.39-12a20.94,20.94,0,0,1,3-17.7,24.91,24.91,0,0,1,14.58-9.55,10.57,10.57,0,0,1,2.53-.32m0-10.43a20.92,20.92,0,0,0-5,.62,35.43,35.43,0,0,0-20.44,13.44c-11,14.77-5.72,38.3,10.54,45.51a21,21,0,0,0,8.5,1.79,24.48,24.48,0,0,0,16.75-7,28,28,0,0,0,7.62-14.29A32,32,0,0,0,264.08,604c-2.29-11.25-11-18.85-21.16-18.85Z"/><path class="cls-1" d="M520,499.77a30.91,30.91,0,0,1-11.75-2.24c-16-6.51-26-27-21.76-44.67a5.38,5.38,0,0,0,.08-2c-1.72-11.3,1.88-23.11,9.85-32.39,7.42-8.62,17.46-13.57,27.55-13.57a31.42,31.42,0,0,1,4.54.33,34.85,34.85,0,0,1,18.05,8.43,5.84,5.84,0,0,0,.64.47,29.28,29.28,0,0,1,6.93,6.15c7.38,8.92,10.9,22.76,9,35.26-1.63,10.57-6,25.17-17.57,34.69A41.07,41.07,0,0,1,520,499.77Z"/><path d="M524,410.11a26.6,26.6,0,0,1,3.78.28,29.74,29.74,0,0,1,15.39,7.2,10.76,10.76,0,0,0,1.27,1,23.94,23.94,0,0,1,5.7,5.06c6.47,7.83,9.55,20,7.84,31.14-1.49,9.68-5.42,23-15.72,31.47A35.83,35.83,0,0,1,520,494.55a25.84,25.84,0,0,1-9.79-1.85c-13.78-5.6-22.32-23.29-18.65-38.62a10.56,10.56,0,0,0,.17-4c-1.49-9.8,1.66-20.08,8.65-28.21,6.42-7.47,15-11.76,23.59-11.76m0-10.43c-25,0-46.54,25.75-42.55,52-4.71,19.64,5.8,43,24.86,50.72A36.35,36.35,0,0,0,520,505a46.3,46.3,0,0,0,28.86-10.72c11.18-9.2,17.15-23.27,19.4-37.93,2.1-13.59-1.55-29-10.1-39.38a34.63,34.63,0,0,0-8.17-7.22,40.25,40.25,0,0,0-20.72-9.66,36.66,36.66,0,0,0-5.3-.39Z"/><path class="cls-1" d="M444.16,221.24a13.08,13.08,0,0,1-1.53-.09l-.26,0a9.94,9.94,0,0,1-5-1.77l-2.61-2.5a8,8,0,0,1-1.68-3.41,5.61,5.61,0,0,0-.26-.79,8.84,8.84,0,0,1-.6-4.29c0-.14,0-.28,0-.42v-.53c.11-.68.24-1.36.38-2a3.7,3.7,0,0,0,.1-.58,9.14,9.14,0,0,1,1.58-4.34l.06-.11.73-1.08.51-.76a13,13,0,0,1,4.82-4.58,11.12,11.12,0,0,1,5.35-1.37l.82,0h.19a7.4,7.4,0,0,1,4,1.26,6.35,6.35,0,0,0,.81.44,8,8,0,0,1,3.32,2.68l.11.13a14.48,14.48,0,0,1,2.89,6.13l.27,4.39a14.65,14.65,0,0,1-2.19,6.7,12.89,12.89,0,0,1-4.79,4.55l-.76.45-1.11.65a10.47,10.47,0,0,1-5.12,1.27Z"/><path d="M445.77,197.77l.47,0,.38,0a2.13,2.13,0,0,1,1.23.38,10.16,10.16,0,0,0,1.62.88,2.93,2.93,0,0,1,1.22,1l.21.27a9.24,9.24,0,0,1,1.78,3.62l.11,1.8.11,1.74a9.67,9.67,0,0,1-1.37,4,7.65,7.65,0,0,1-2.88,2.75l-.28.16-.65.39-1,.59a5.13,5.13,0,0,1-2.54.6,6.51,6.51,0,0,1-.88-.06l-.52-.05a4.69,4.69,0,0,1-2.14-.68l-2-1.9a2.92,2.92,0,0,1-.48-1.09,9.67,9.67,0,0,0-.5-1.58,3.59,3.59,0,0,1-.24-1.81c0-.28,0-.56,0-.84v-.18c.07-.46.16-.91.26-1.36a11,11,0,0,0,.19-1.15,4,4,0,0,1,.7-2c.05-.06.09-.13.14-.2.21-.33.43-.65.65-1l.45-.66.16-.25a7.75,7.75,0,0,1,2.87-2.77,6,6,0,0,1,2.89-.75m-8.31,9.62h0m8.31-20a16.52,16.52,0,0,0-7.86,2,18.32,18.32,0,0,0-6.72,6.38c-.4.6-.82,1.19-1.21,1.8a14.45,14.45,0,0,0-2.45,6.74c-.19.88-.36,1.77-.49,2.67,0,.31,0,.62,0,.93a14,14,0,0,0,1,6.77,13.21,13.21,0,0,0,3,5.81l3.07,2.94a15.14,15.14,0,0,0,7.94,2.94,17.6,17.6,0,0,0,2.18.14,15.53,15.53,0,0,0,7.68-2c.61-.34,1.21-.71,1.82-1.07a18.21,18.21,0,0,0,6.72-6.37,20,20,0,0,0,3-9.42c-.11-1.7-.21-3.4-.32-5.1a19.78,19.78,0,0,0-4-8.72,13.39,13.39,0,0,0-5.42-4.33,12.49,12.49,0,0,0-6.67-2.12c-.39,0-.78,0-1.17,0Z"/><path class="cls-1" d="M464.5,609.13c-.35,0-.7,0-1.06,0-9.54-.68-17.06-10.16-16.41-20.71.6-10,8.51-18.15,17.61-18.15.35,0,.7,0,1.06,0,9.54.68,17.06,10.16,16.41,20.71-.61,10-8.51,18.15-17.61,18.15Z"/><path d="M464.64,575.45c.23,0,.46,0,.69,0,6.63.47,12,7.57,11.58,15.2-.44,7.18-6.12,13.25-12.41,13.25l-.69,0c-6.63-.47-12-7.57-11.58-15.2.44-7.18,6.12-13.24,12.41-13.24m0-10.44c-11.72,0-22,10.27-22.82,23-.81,13.35,8.91,25.36,21.25,26.24.48,0,.95.05,1.43.05,11.72,0,22-10.26,22.82-23.05.81-13.35-8.91-25.36-21.25-26.23-.48,0-1-.06-1.43-.06Z"/><path class="cls-1" d="M379.11,162.34a31.41,31.41,0,0,1-26.6-14.05,44.36,44.36,0,0,1-4.39-8.18,5.48,5.48,0,0,0-.64-1.13,42.16,42.16,0,0,1-4.34-7.22c-7.65-16.22-4.33-35.74,8.06-47.47A39,39,0,0,1,390.88,76c12.09,4.32,21.75,14.09,26.5,26.82a45.68,45.68,0,0,1-2.86,38.51c-7.22,12.77-21.11,21-35.41,21Z"/><path d="M377.85,79a33.39,33.39,0,0,1,11.27,1.94c10.65,3.79,19.17,12.44,23.37,23.72A40.47,40.47,0,0,1,410,138.76c-6.21,11-18.62,18.36-30.87,18.36a26,26,0,0,1-22.3-11.78,39.11,39.11,0,0,1-3.87-7.22,10.59,10.59,0,0,0-1.27-2.25,37.65,37.65,0,0,1-3.82-6.33c-6.59-14-3.67-31.42,6.94-41.46A33.37,33.37,0,0,1,377.85,79m0-10.44a43.91,43.91,0,0,0-30.23,12C333.53,93.84,330,116,338.42,134a47.66,47.66,0,0,0,4.87,8.1,50,50,0,0,0,4.92,9.15,36.53,36.53,0,0,0,30.9,16.31c15.56,0,31.58-8.86,39.95-23.66,15.72-27.8,1.43-62.87-26.43-72.81a44.15,44.15,0,0,0-14.78-2.55Z"/><path class="cls-1" d="M366.79,559.5a66.76,66.76,0,0,1-19.57-3A59.61,59.61,0,0,1,320,538.49a5.23,5.23,0,0,0-2.33-1.53A18.13,18.13,0,0,1,307.36,528a68.66,68.66,0,0,1-5.52-13,5.21,5.21,0,0,0-5-3.69,5.34,5.34,0,0,0-.69.05c-1.33.17-2.67.31-4,.4a5.25,5.25,0,0,0-2.72,1c-8.7,6.41-17.34,9.66-25.68,9.66a32,32,0,0,1-15.38-4,35.69,35.69,0,0,1-14.62-15.28,5.21,5.21,0,0,0-3.08-2.57,5.47,5.47,0,0,0-1.54-.23,5.3,5.3,0,0,0-2.46.61,62.27,62.27,0,0,1-29.69,7.5h-.86c-16.23-.22-33.24-9-45.52-23.55a5.2,5.2,0,0,0-4-1.85h-.08a5.22,5.22,0,0,0-4,2c-.14.17-.27.35-.4.52l-.38.49a6.3,6.3,0,0,0-.57.85,38.54,38.54,0,0,1-3.26,5.19c-9.36,12.44-22.28,18.75-38.37,18.75H99a57,57,0,0,1-25.58-6.69,4.88,4.88,0,0,0-.66-.29,56.12,56.12,0,0,1-21.51-14c-16.78-17.45-22.49-48.83-13-71.44,10.4-24.81,33.23-41.47,56.81-41.47a50.68,50.68,0,0,1,6.63.44l.43.07.53.08a5.09,5.09,0,0,0,.77.06,5.22,5.22,0,0,0,4.88-7.06,39.11,39.11,0,0,1-1.87-6.66,18,18,0,0,1-.25-3.91,5.17,5.17,0,0,0-.25-1.79c-3.3-10.25-2-21.08,3.71-31.3A39.52,39.52,0,0,1,124.07,312a5.21,5.21,0,0,0-.4-9.17,55,55,0,0,1-27-29c-8.75-22.27-2-49.3,16.11-64.26a50.8,50.8,0,0,1,32.14-12,44.33,44.33,0,0,1,29.25,11,55.09,55.09,0,0,1,5.43,5.38l.15.17a49,49,0,0,1,10.23,16,5.24,5.24,0,0,0,4.85,3.29,5.42,5.42,0,0,0,1.26-.15,5.23,5.23,0,0,0,3.93-5.64,74.91,74.91,0,0,1,.55-20.08s0-.06,0-.1a76.58,76.58,0,0,1,2.72-12.14,4.6,4.6,0,0,0,.21-1c2.73-26.79,22.82-49.19,47.78-53.26a62.21,62.21,0,0,1,10-.82c24.43,0,46.86,15,58.54,39.16a82,82,0,0,1,7.79,31.19,5.21,5.21,0,0,0,5.21,4.94h1.34c22.29,0,42.86,13.7,51.19,34.09a57.88,57.88,0,0,1,2,5.65,5.21,5.21,0,0,0,5,3.77,5.93,5.93,0,0,0,.84-.06,60.41,60.41,0,0,1,9.62-.77,67.52,67.52,0,0,1,30.62,7.64,5.24,5.24,0,0,0,1.33.46c23.74,4.93,42.46,21.13,51.35,44.46,12.59,33,2,70.14-25.69,90.29a5.11,5.11,0,0,0-1.25,1.29c-8.9,13.11-21.53,22.63-35.55,26.8a5.22,5.22,0,0,0-2.57,8.28,59.7,59.7,0,0,1,13.52,34.36,56.19,56.19,0,0,1-1.82,18.1,4.89,4.89,0,0,0-.18,1.32c-.11,15.42-4.52,29.87-12.41,40.71-12.77,17.54-32.2,27.6-53.3,27.6Z"/><path d="M261.25,145.45A56,56,0,0,1,292.3,155a66.7,66.7,0,0,1,22.79,26.7,76.9,76.9,0,0,1,7.28,29.19,10.43,10.43,0,0,0,10.41,9.89H333l1.1,0c20.2,0,38.83,12.4,46.36,30.86a48,48,0,0,1,1.77,5.11,10.44,10.44,0,0,0,10,7.55,10.32,10.32,0,0,0,1.66-.13,55,55,0,0,1,8.8-.7A62.3,62.3,0,0,1,431,270.47a10.44,10.44,0,0,0,2.65.93c22,4.56,39.29,19.58,47.54,41.21a73.31,73.31,0,0,1,1.9,47.26,70.43,70.43,0,0,1-25.79,36.95,10.35,10.35,0,0,0-2.49,2.58c-8.23,12.12-19.85,20.9-32.73,24.73a10.44,10.44,0,0,0-5.13,16.56,54.47,54.47,0,0,1,12.36,31.4,51,51,0,0,1-1.65,16.43,10.62,10.62,0,0,0-.36,2.63c-.1,14.34-4.15,27.72-11.4,37.68C404.1,545,386.2,554.28,366.79,554.28a61.9,61.9,0,0,1-18.05-2.71,54.57,54.57,0,0,1-24.86-16.51,10.34,10.34,0,0,0-4.65-3.06,13,13,0,0,1-7.3-6.47,63.32,63.32,0,0,1-5.1-12,10.43,10.43,0,0,0-10-7.38,10.62,10.62,0,0,0-1.37.09c-1.24.16-2.47.29-3.65.37a10.49,10.49,0,0,0-5.44,2c-7.68,5.66-15.49,8.64-22.59,8.64a26.49,26.49,0,0,1-12.89-3.39,30.61,30.61,0,0,1-12.48-13.11,10.44,10.44,0,0,0-14.17-4.38A57.14,57.14,0,0,1,197,503.25h-.79c-14.74-.2-30.29-8.32-41.61-21.71a10.42,10.42,0,0,0-8-3.7h-.17a10.47,10.47,0,0,0-8,4l-.46.6-.25.33a9.79,9.79,0,0,0-1.14,1.71,34.21,34.21,0,0,1-2.83,4.5C125.48,500,114,505.62,99.6,505.62h-.52a51.76,51.76,0,0,1-23.22-6.11,11,11,0,0,0-1.32-.57A50.8,50.8,0,0,1,55,486.21c-7.37-7.67-12.68-18.66-15-30.94s-1.23-24.79,3-34.88c9.6-22.89,30.5-38.26,52-38.26a45.35,45.35,0,0,1,5.94.39l.26,0,.62.1a10.06,10.06,0,0,0,1.54.11,10.42,10.42,0,0,0,9.76-14.11,33.28,33.28,0,0,1-1.62-5.77,12.55,12.55,0,0,1-.17-2.77,10.31,10.31,0,0,0-.49-3.58c-2.89-9-1.78-18.1,3.29-27.15a34.35,34.35,0,0,1,12.54-12.9,10.44,10.44,0,0,0-.81-18.35A49.74,49.74,0,0,1,101.5,272c-8-20.23-1.81-44.77,14.59-58.34A45.58,45.58,0,0,1,144.9,202.8a39.17,39.17,0,0,1,25.85,9.72,50.18,50.18,0,0,1,4.92,4.87l.3.33a43.8,43.8,0,0,1,9.15,14.36,10.43,10.43,0,0,0,20.06-5,69.45,69.45,0,0,1,.52-18.68l0-.2a70.91,70.91,0,0,1,2.53-11.32,10.32,10.32,0,0,0,.42-2.06A57.24,57.24,0,0,1,223,162.6a50.53,50.53,0,0,1,29.09-16.4,56.35,56.35,0,0,1,9.14-.75m0-10.43a67.46,67.46,0,0,0-10.82.88c-27.23,4.44-49.17,28.86-52.12,57.88a90.23,90.23,0,0,0-3.5,34.45,54.24,54.24,0,0,0-11.32-17.74,62.13,62.13,0,0,0-5.93-5.88,49.62,49.62,0,0,0-32.66-12.24,55.87,55.87,0,0,0-35.46,13.22C89.72,221.9,82.06,251,91.8,275.78a60.16,60.16,0,0,0,29.6,31.75,45.1,45.1,0,0,0-16.29,16.76c-7,12.42-7.58,24.71-4.12,35.45a23.11,23.11,0,0,0,.33,5.05,43.91,43.91,0,0,0,2.12,7.55c-.35,0-.7-.12-1-.16a54.71,54.71,0,0,0-7.31-.48c-26.5,0-50.77,18.8-61.62,44.66-10.41,24.81-4,58.32,14.06,77.08a61,61,0,0,0,23.53,15.33A62.32,62.32,0,0,0,99,516.05h.62c16.86,0,31.74-6.48,42.54-20.83a44.06,44.06,0,0,0,3.7-5.87c.28-.35.55-.72.83-1.08,12.71,15,31,25.16,49.44,25.41H197a67.93,67.93,0,0,0,32.15-8.11A41,41,0,0,0,245.94,523a37.13,37.13,0,0,0,17.87,4.65c10.11,0,19.95-4.17,28.77-10.66,1.43-.11,2.86-.26,4.28-.44a73.33,73.33,0,0,0,5.93,14A23.31,23.31,0,0,0,316,541.93a64.61,64.61,0,0,0,29.66,19.61,72,72,0,0,0,21.09,3.18c22,0,43.36-10.3,57.52-29.75,8.89-12.21,13.29-28,13.4-43.74a61.07,61.07,0,0,0,2-19.79A64.73,64.73,0,0,0,425,434.13c15.61-4.65,29-15.12,38.38-28.87,28.63-20.82,41.27-60.22,27.49-96.36-10-26.21-31.28-42.76-55.17-47.71a72.34,72.34,0,0,0-33-8.21,65.72,65.72,0,0,0-10.45.83,61.92,61.92,0,0,0-2.14-6.18c-9.62-23.54-32.81-37.34-56-37.34l-1.34,0a86.88,86.88,0,0,0-8.31-33.19C311.86,151,287.77,135,261.25,135Z"/><path class="cls-1" d="M433.12,313.82c-7.42,0-14.39-4.18-19.11-11.46a5.26,5.26,0,0,0-.7-.86,35.24,35.24,0,0,1-9.61-31c2.65-13.37,13.37-22.71,26.07-22.71a25.27,25.27,0,0,1,13.28,3.84,29.55,29.55,0,0,1,11.14,12.88,5.31,5.31,0,0,0,1.8,2.13c3.38,2.3,4.83,7.69,3.22,12a10.13,10.13,0,0,1-.93,1.82,5.19,5.19,0,0,0-.8,2.45,38.7,38.7,0,0,1-1.52,8.54,4.44,4.44,0,0,0-.18.88,27.46,27.46,0,0,1-2.2,8,22.35,22.35,0,0,1-20.46,13.49Z"/><path d="M429.77,242.55V253a19.81,19.81,0,0,1,10.54,3.06,24.4,24.4,0,0,1,9.15,10.63,10.38,10.38,0,0,0,3.6,4.25c1.27.86,2.1,3.63,1.26,5.9a4.31,4.31,0,0,1-.44.84,10.31,10.31,0,0,0-1.6,4.9A33.84,33.84,0,0,1,451,290a10.45,10.45,0,0,0-.36,1.75,22.18,22.18,0,0,1-1.79,6.48A17,17,0,0,1,435,308.49a16.54,16.54,0,0,1-1.85.11c-7.7,0-12.53-5.69-14.73-9.08a11.07,11.07,0,0,0-1.4-1.72,29.89,29.89,0,0,1-8.17-26.31C411,260.6,419.59,253,429.77,253V242.55m0,0c-14.29,0-27.89,10.26-31.19,26.92a40.32,40.32,0,0,0,11.05,35.72c5.31,8.18,13.58,13.84,23.49,13.84a28.59,28.59,0,0,0,3-.17,27.37,27.37,0,0,0,22.18-16.41A32.88,32.88,0,0,0,461,293a45,45,0,0,0,1.73-9.69,15.3,15.3,0,0,0,1.41-2.8c2.39-6.44.37-14.38-5.17-18.16a34.66,34.66,0,0,0-13.14-15.12,30.21,30.21,0,0,0-16-4.63Z"/><path class="cls-1" d="M291.83,236.44a2.76,2.76,0,0,1-.4-.06,4.81,4.81,0,0,0-.85-.09,2.7,2.7,0,0,1-1.46-.5c-.18-.13-.88-.7-1.27-1l-1.16-1.61c-.28-.63-.52-1.25-.75-1.86s-.28-1.74-.31-2.13c0-.2.06-.59.09-.85a2.63,2.63,0,0,0,.06-.39l.06-.64c0-.21,0-.43.07-.64a9.54,9.54,0,0,1,.74-1.9,6.06,6.06,0,0,1,2.09-2.28,5.18,5.18,0,0,1,1.59-.67,2.14,2.14,0,0,0,.34-.09,3.61,3.61,0,0,1,1.08-.13h.11a5.47,5.47,0,0,1,2.81.8,6.54,6.54,0,0,1,2.79,3.67l.27,1.95-.21,2c0,.05-.06.46-.06.46v-.07a4.45,4.45,0,0,0-.08.81,4,4,0,0,1-.54,1.93l-.08.14a5.9,5.9,0,0,1-2,2.24c-.34.17-1,.49-1.42.67S292.24,236.38,291.83,236.44Z"/><path d="M291.87,226.77h0m0,0a.19.19,0,0,1,.09,0,1.49,1.49,0,0,1,.41.45l.12.81-.11,1s0,.09,0,.14,0,.09,0,.14,0,.07,0,.1,0,.23-.05.35c0,.33-.08.67-.1,1v0a1.43,1.43,0,0,1-.14.22l-.23.11-.12,0-.24-.32-.18-.25c-.09-.22-.18-.44-.26-.66s-.09-.55-.12-.8v0l.06-.38c0-.06,0-.12,0-.18h0v-.05c0-.26,0-.5.07-.75v0c0-.12.12-.29.24-.54a.83.83,0,0,1,.23-.27l0,0,.31-.07m-.79.62h0m-.17,1.51h0m1-12.57h-.22a8.9,8.9,0,0,0-2.53.36,10.49,10.49,0,0,0-3.21,1.36,11.32,11.32,0,0,0-3.9,4.3,14.15,14.15,0,0,0-1.21,3.25c-.11.58-.13,1.15-.2,1.74h0a.1.1,0,0,0,0,0,18.09,18.09,0,0,0-.19,1.8,1,1,0,0,0,0,.17,28.75,28.75,0,0,0,.44,3.17c0,.12.06.24.09.36.35,1,.72,1.9,1.14,2.82l0,.08.06.1c.58.8,1.16,1.59,1.73,2.39a25.14,25.14,0,0,0,2.32,1.92,7.89,7.89,0,0,0,4.2,1.37,9.21,9.21,0,0,0,1.48.18h.14c.31,0,2.55-.38,2.83-.47s2.25-1,2.59-1.22a.57.57,0,0,0,.13-.08,11.14,11.14,0,0,0,3.78-4.18,9.18,9.18,0,0,0,1.22-4.37c0-.17,0-.34.06-.5v0l0-.31c0-.11,0-.23,0-.34.08-.76.17-1.52.25-2.28l-.4-2.82a11.65,11.65,0,0,0-5.21-7.17,10.74,10.74,0,0,0-5.52-1.56Z"/><path class="cls-1" d="M151,365.79l-.93,0a20.41,20.41,0,0,1-19.14-20.64c0-10.83,9-21.45,18-21.45.34,0,.68,0,1,0,1.84.16,6.36,1,8.39,5.09a5.25,5.25,0,0,0,2.11,2.22c.46.27.87.53,1.27.8,8.65,6,11,18.27,5.13,26.79a15.37,15.37,0,0,1-12.45,6.94h-.38a5.52,5.52,0,0,0-.81.06A14.54,14.54,0,0,1,151,365.79Z"/><path d="M149,328.88h0a5.63,5.63,0,0,1,.58,0c.76.06,3.29.41,4.17,2.19a10.4,10.4,0,0,0,4.2,4.46,9.46,9.46,0,0,1,.87.54c6.34,4.4,8.09,13.35,3.82,19.55a10.18,10.18,0,0,1-8.16,4.68h-.38a10,10,0,0,0-1.63.13,8.93,8.93,0,0,1-1.44.12l-.57,0a15.24,15.24,0,0,1-14.28-15.42c0-7.9,6.62-16.26,12.82-16.26m0-10.43c-12.53,0-23.2,13.57-23.26,26.65a25.59,25.59,0,0,0,24,25.86c.43,0,.86.05,1.29.05a19.66,19.66,0,0,0,3.07-.25h.38a20.49,20.49,0,0,0,16.75-9.21c7.76-11.26,4.23-26.62-6.46-34-.55-.38-1.1-.72-1.67-1-2.44-4.95-7.45-7.53-12.63-8q-.73-.06-1.47-.06Z"/><path class="cls-1" d="M124.67,393.18a3.13,3.13,0,0,1-2.4-1.13,3,3,0,0,1-.4-2.71c.43-1.85,1.36-2.09,2.13-2.09a3.15,3.15,0,0,1,2.4,1.13,3,3,0,0,1,.4,2.71C126.37,392.94,125.43,393.18,124.67,393.18Z"/><path d="M124,382c-3.14,0-6.21,1.86-7.21,6.12a8.05,8.05,0,0,0,7.88,10.24c3.14,0,6.21-1.85,7.21-6.11A8.06,8.06,0,0,0,124,382Z"/><path class="cls-1" d="M259.61,525c-14.36,0-29.54-6-42.76-16.78a77.78,77.78,0,0,1-7.34-6.84,5.22,5.22,0,0,0-3.48-1.62,9.71,9.71,0,0,1-5.67-2.11,5.21,5.21,0,0,0-3.3-1.18,5.16,5.16,0,0,0-.79.06,30.23,30.23,0,0,1-4.49.34,33.44,33.44,0,0,1-8.8-1.21c-8-2.19-16.33-8.06-22.28-15.72a5.08,5.08,0,0,0-1-.95A62.34,62.34,0,0,1,143,460a28.22,28.22,0,0,1-3.48-16.88c0-.22,0-.45,0-.67,0-.64,0-1.27,0-1.91a5.32,5.32,0,0,0-.2-1.53,48.34,48.34,0,0,1-1.72-9.76c-.68-10,3.15-21,10.51-30.13a35.66,35.66,0,0,1,13.45-10.44,5.51,5.51,0,0,0,1.07-.64,43.77,43.77,0,0,1,4-2.75,47.69,47.69,0,0,1,21.78-6.89,5.23,5.23,0,0,0,4.78-6.2,38.68,38.68,0,0,1,2.1-21.59,27.68,27.68,0,0,1,2.16-4.28,5.19,5.19,0,0,0,.61-1.41c1.85-7,5.89-12.84,11.1-16.11a5.21,5.21,0,0,0,2.07-6.35c-5-12.57-7.44-30.21.84-42a40.1,40.1,0,0,1,5.47-6.34,5.28,5.28,0,0,0,1.14-1.58,31.81,31.81,0,0,1,10.72-13.05,32.62,32.62,0,0,1,18.34-5.69,34.67,34.67,0,0,1,21,7.31,47.55,47.55,0,0,1,13,15,5.23,5.23,0,0,0,4.57,2.7h0a5.23,5.23,0,0,0,4.56-2.73c2.46-4.54,7-10.44,14.74-12.8a24.54,24.54,0,0,1,7.17-1.1,23.16,23.16,0,0,1,5.36.63,5.23,5.23,0,0,0,2.6-.05,27.12,27.12,0,0,1,7.3-1l.87,0h.17a5.14,5.14,0,0,0,1.4-.19,32,32,0,0,1,8.54-1.21,28.42,28.42,0,0,1,6,.64c7.78,1.66,14.61,8.31,17.81,17.34a18.46,18.46,0,0,1,.28,12.61,5.2,5.2,0,0,0,4.91,7h.37a23.25,23.25,0,0,1,15.38,6.23c4.82,4.3,6.71,10.91,7.46,15.69a5,5,0,0,0,.51,1.57,26.87,26.87,0,0,1,2.79,9.65,33.07,33.07,0,0,1-.76,10.89,6.35,6.35,0,0,0-.13.76q-.06.73-.15,1.47c-.05.43-.11.86-.18,1.28a5.2,5.2,0,0,0,4.92,6.07A36.39,36.39,0,0,1,414.57,356c12.19,6.79,17.95,24.27,18.26,38.58a65.3,65.3,0,0,1-2.65,19.68,5.19,5.19,0,0,0-.21,1.66,19.27,19.27,0,0,1-8.16,17.21,5,5,0,0,0-1.21,1.25,66.29,66.29,0,0,1-24,21.51,5.21,5.21,0,0,0-2.53,6.39c4.51,12.59.1,27.26-10.26,34.13a19.81,19.81,0,0,1-11.11,3.38,22.27,22.27,0,0,1-7.87-1.47,5.26,5.26,0,0,0-1.29-.3c-.34,0-.69-.09-1-.15a5.79,5.79,0,0,0-.83-.06h-.32q-.57,0-1.14,0a14.68,14.68,0,0,1-10.64-4.24,5.21,5.21,0,0,0-7.06-.29,36.1,36.1,0,0,1-23.59,8.84,38.15,38.15,0,0,1-4.26-.24,5.83,5.83,0,0,0-.59,0,5.21,5.21,0,0,0-2.19.48,48.47,48.47,0,0,1-8,2.9c-1.35.35-2.81.67-4.61,1a5.15,5.15,0,0,0-3.11,1.86,42.53,42.53,0,0,1-14.5,11.7A49.51,49.51,0,0,1,259.61,525Z"/><path d="M247.73,259a29.49,29.49,0,0,1,17.89,6.25,42.45,42.45,0,0,1,11.57,13.4,10.45,10.45,0,0,0,9.14,5.4h0a10.42,10.42,0,0,0,9.14-5.46c2.9-5.35,6.83-8.81,11.67-10.29a19.38,19.38,0,0,1,5.65-.88,18.33,18.33,0,0,1,4.16.49,10.28,10.28,0,0,0,2.4.28,10.17,10.17,0,0,0,2.8-.38,22,22,0,0,1,5.9-.81h1a10.53,10.53,0,0,0,2.79-.37,26.59,26.59,0,0,1,7.14-1,22.88,22.88,0,0,1,4.89.52c5.93,1.27,11.42,6.76,14,14a13.12,13.12,0,0,1,.28,9.11A10.44,10.44,0,0,0,368,303.15h.37a18.07,18.07,0,0,1,11.9,4.9c3.67,3.27,5.17,8.66,5.78,12.6a10.6,10.6,0,0,0,1,3.14,21.67,21.67,0,0,1,2.25,7.8,27.83,27.83,0,0,1-.65,9.17,9.81,9.81,0,0,0-.24,1.52c0,.43-.08.86-.13,1.28s-.09.67-.16,1A10.42,10.42,0,0,0,398,356.75a31.3,31.3,0,0,1,14,3.81c10.33,5.76,15.32,21.73,15.59,34.14a60.1,60.1,0,0,1-2.45,18.11,10.68,10.68,0,0,0-.41,3.33,14.13,14.13,0,0,1-6,12.79,10.68,10.68,0,0,0-2.43,2.5,61,61,0,0,1-22.1,19.83,10.43,10.43,0,0,0-5.05,12.79c3.72,10.39.18,22.44-8.23,28a14.65,14.65,0,0,1-8.23,2.51,17.29,17.29,0,0,1-6-1.13,10.35,10.35,0,0,0-2.57-.61l-.75-.1a10.33,10.33,0,0,0-1.66-.14l-.65,0-.81,0a9.46,9.46,0,0,1-6.95-2.72,10.44,10.44,0,0,0-14.12-.58A30.55,30.55,0,0,1,318.92,497a32.69,32.69,0,0,1-3.68-.21,9.18,9.18,0,0,0-1.17-.07,10.44,10.44,0,0,0-4.39,1,42.54,42.54,0,0,1-7.14,2.59c-1.22.32-2.56.61-4.23.92a10.37,10.37,0,0,0-6.22,3.72,37.58,37.58,0,0,1-12.73,10.29,44.47,44.47,0,0,1-19.75,4.56c-13.16,0-27.17-5.54-39.46-15.59a72.56,72.56,0,0,1-6.85-6.39,10.49,10.49,0,0,0-7-3.25,4.6,4.6,0,0,1-2.69-.94,10.45,10.45,0,0,0-6.6-2.35,11.72,11.72,0,0,0-1.57.11,23.91,23.91,0,0,1-3.71.28,28,28,0,0,1-7.42-1c-7-1.9-14.26-7.09-19.54-13.89a10.21,10.21,0,0,0-1.93-1.9,57,57,0,0,1-15.34-17.32,23,23,0,0,1-2.86-13.77,10,10,0,0,0,.06-1.34c0-.62,0-1.18,0-1.7a10.47,10.47,0,0,0-.39-3.05,43.1,43.1,0,0,1-1.53-8.7c-.6-8.74,2.81-18.4,9.36-26.51a30.59,30.59,0,0,1,11.49-8.94,10.69,10.69,0,0,0,2.16-1.28,39.87,39.87,0,0,1,3.51-2.44,43.2,43.2,0,0,1,19.4-6.13,10.43,10.43,0,0,0,9.55-12.4,33.37,33.37,0,0,1,1.82-18.64,22.22,22.22,0,0,1,1.75-3.48,10.15,10.15,0,0,0,1.22-2.83c1.51-5.7,4.74-10.45,8.84-13a10.43,10.43,0,0,0,4.13-12.7c-5.67-14.2-5.57-28.77.27-37.12a35.73,35.73,0,0,1,4.78-5.52,10.5,10.5,0,0,0,2.28-3.17,26.66,26.66,0,0,1,8.92-10.94,27.45,27.45,0,0,1,15.42-4.8m0-10.43a37.73,37.73,0,0,0-21.26,6.59,36.93,36.93,0,0,0-12.53,15.16,46.57,46.57,0,0,0-6.16,7.14c-9,12.85-7.46,31.82-1.4,47-6.58,4.14-11.26,11.22-13.37,19.19a32.75,32.75,0,0,0-2.57,5.09,43.82,43.82,0,0,0-2.38,24.52,53.29,53.29,0,0,0-24.18,7.66,52.29,52.29,0,0,0-4.41,3.05,41.17,41.17,0,0,0-15.4,11.94c-7.41,9.18-12.5,21.34-11.65,33.77a53.85,53.85,0,0,0,1.9,10.82c0,.71,0,1.41,0,2.12a33.44,33.44,0,0,0,4.12,20,67.34,67.34,0,0,0,18.14,20.54c6.62,8.52,15.84,15,25,17.55A38.36,38.36,0,0,0,191.78,502a35.64,35.64,0,0,0,5.27-.39,15,15,0,0,0,8.66,3.27,82.94,82.94,0,0,0,7.83,7.3c13.41,11,29.69,18,46.07,18A54.94,54.94,0,0,0,284,524.54a48.11,48.11,0,0,0,16.26-13.13c1.66-.3,3.32-.65,5-1.08a53.58,53.58,0,0,0,8.88-3.22,41.23,41.23,0,0,0,31.81-9.8,19.9,19.9,0,0,0,14.33,5.77c.48,0,1,0,1.46-.05s.88.14,1.32.18a27.65,27.65,0,0,0,9.7,1.81,25,25,0,0,0,14-4.26c13-8.64,17.31-26.18,12.28-40.23a71.48,71.48,0,0,0,25.93-23.19,24.51,24.51,0,0,0,10.29-21.61A70.35,70.35,0,0,0,438,394.48c-.34-16.07-7-35.24-20.93-43a41.86,41.86,0,0,0-18.65-5.12c.08-.5.16-1,.22-1.51s.12-1.11.17-1.66a38.06,38.06,0,0,0,.88-12.61A32.21,32.21,0,0,0,396.39,319c-1.11-7.14-3.87-14.06-9.13-18.77a28.55,28.55,0,0,0-18.86-7.55H368a23.51,23.51,0,0,0-.28-16.1c-3.59-10.14-11.55-18.55-21.62-20.7a33.69,33.69,0,0,0-7.08-.75,37.14,37.14,0,0,0-9.93,1.39h-1a32.7,32.7,0,0,0-8.7,1.19,28.58,28.58,0,0,0-6.56-.77,29.49,29.49,0,0,0-8.7,1.33c-8,2.45-13.91,8.13-17.79,15.3a53.2,53.2,0,0,0-14.4-16.68,40.09,40.09,0,0,0-24.2-8.37Z"/><path class="cls-1" d="M309.56,600.89a27.21,27.21,0,0,1-19.85-8.78,34.6,34.6,0,0,1-7.61-13.49,4.71,4.71,0,0,0-.32-.81c-4.72-9.58-6.1-23.56,4.21-34a28.11,28.11,0,0,1,20.4-8.69,31.21,31.21,0,0,1,17,5.17,5.3,5.3,0,0,0,1.45.66,18.18,18.18,0,0,1,4.24,1.73c7.78,4.41,8.86,13.5,8.82,18.52a5.06,5.06,0,0,0,.09,1A34.29,34.29,0,0,1,324.47,596,25,25,0,0,1,309.56,600.89Z"/><path d="M306.39,540.29h0a26,26,0,0,1,14.19,4.32,10.62,10.62,0,0,0,2.89,1.31,13.47,13.47,0,0,1,3.07,1.24c5.46,3.1,6.22,10.07,6.18,13.94a11,11,0,0,0,.19,2.07,29,29,0,0,1-11.53,28.65,19.82,19.82,0,0,1-11.82,3.85,22,22,0,0,1-16-7.1,29.44,29.44,0,0,1-6.44-11.46,9.17,9.17,0,0,0-.63-1.6c-3.93-8-5.15-19.55,3.25-28.09a23,23,0,0,1,16.68-7.13m0-10.43a33.42,33.42,0,0,0-24.12,10.25c-11.21,11.4-11.41,27.35-5.16,40a39.71,39.71,0,0,0,8.77,15.54,32.41,32.41,0,0,0,23.68,10.45,30.23,30.23,0,0,0,18-5.89,39.32,39.32,0,0,0,15.59-39c.09-9.37-3.23-18.44-11.46-23.11a24.51,24.51,0,0,0-5.41-2.22,36.6,36.6,0,0,0-19.89-6Z"/><path class="cls-1" d="M368,547.89a14.23,14.23,0,0,1-3.7-.49c-5.78-1.59-8.47-6.37-9.7-10.1a8.84,8.84,0,0,1,.92-7,5.21,5.21,0,0,0,.6-1.71,12.18,12.18,0,0,1,1.11-3.52,11.79,11.79,0,0,1,10.82-6.55,13.36,13.36,0,0,1,9.56,4,15.89,15.89,0,0,1,4.18,12.92,14.15,14.15,0,0,1-6.4,10.43,14,14,0,0,1-7.39,2.07Z"/><path d="M368.07,523.69a8.07,8.07,0,0,1,5.81,2.41,10.64,10.64,0,0,1,2.75,8.66,8.93,8.93,0,0,1-4,6.63,8.8,8.8,0,0,1-4.63,1.28,8.89,8.89,0,0,1-2.32-.3c-2.86-.79-4.92-3-6.13-6.71a3.8,3.8,0,0,1,.52-2.85,10.24,10.24,0,0,0,1.2-3.43,7,7,0,0,1,.63-2,6.57,6.57,0,0,1,6.15-3.66m0-10.43a17,17,0,0,0-15.49,9.45,17.43,17.43,0,0,0-1.59,5,14.09,14.09,0,0,0-1.33,11.22c2.23,6.72,6.78,11.7,13.28,13.49a19.4,19.4,0,0,0,15.23-2.18c10.66-6.64,11.95-22.36,3.21-31.4a18.53,18.53,0,0,0-13.31-5.59Z"/><path class="cls-1" d="M189,552.89a9.71,9.71,0,0,1-8.79-5.15,13.37,13.37,0,0,1,3.25-16.46,11.14,11.14,0,0,1,6.89-2.87h.24a5.64,5.64,0,0,1,2.57.63,5.26,5.26,0,0,0,1.5.48,7,7,0,0,1,5,3.61,13.87,13.87,0,0,1-4.44,17.81A11,11,0,0,1,189,552.89Z"/><path d="M190.63,533.62a.43.43,0,0,1,.23.08,10.44,10.44,0,0,0,3,1,1.86,1.86,0,0,1,1.23.82,8.68,8.68,0,0,1-2.77,11.16,5.77,5.77,0,0,1-3.28,1,4.6,4.6,0,0,1-4.2-2.42,8.16,8.16,0,0,1,2-10,5.92,5.92,0,0,1,3.73-1.63h0m0-10.43h-.45a16.39,16.39,0,0,0-10.05,4.1,18.54,18.54,0,0,0-4.46,22.93A15,15,0,0,0,189,558.11a16.25,16.25,0,0,0,9.24-2.89,19.12,19.12,0,0,0,6.11-24.45,12.21,12.21,0,0,0-8.84-6.39,10.86,10.86,0,0,0-4.92-1.19Z"/><path class="cls-1" d="M446.17,344.51a4.35,4.35,0,0,0-.51,0h-.09a4.15,4.15,0,0,1-2.26-.63,5,5,0,0,1-1.57-1.63l-.72-1.79a6.17,6.17,0,0,1,0-2.77l0-.16a3.06,3.06,0,0,1,.65-1.42,4.88,4.88,0,0,0,.49-.7,2.43,2.43,0,0,1,.89-.91l.15-.09a4,4,0,0,1,2.15-.67,4.09,4.09,0,0,1,2.2.63,4.11,4.11,0,0,0,.51.27l.91.42,1.21,1a2.59,2.59,0,0,1,.56,1,5.3,5.3,0,0,0,.4.95.3.3,0,0,1,0,.15,4.8,4.8,0,0,0,.12,1,3.15,3.15,0,0,1,0,1.4l-.62,1.67-.93,1.34a1.87,1.87,0,0,1-.73.49,4.47,4.47,0,0,0-.83.39,1.64,1.64,0,0,1-.7.22Z"/><path d="M445.4,328.5h-.15a9.3,9.3,0,0,0-4.81,1.5,7.63,7.63,0,0,0-2.74,2.76A8.23,8.23,0,0,0,436,336.5,11.41,11.41,0,0,0,436,342l1,2.49a10.17,10.17,0,0,0,3.57,3.79,9.29,9.29,0,0,0,4.9,1.38h.15l1.63.16h.12a6.7,6.7,0,0,0,3.44-.92,7.17,7.17,0,0,0,3-2.16l1.49-2.13c.32-.85.64-1.71.95-2.56a8.38,8.38,0,0,0,.11-4.07,5.52,5.52,0,0,0-.67-2.53,7.88,7.88,0,0,0-2-3.29l-2-1.61-1.51-.7a9.24,9.24,0,0,0-4.9-1.39Z"/></g></g></svg>