<svg xmlns="http://www.w3.org/2000/svg" viewBox="0 0 541.43 531.81"><defs><style>.cls-1{fill:#fff;}</style></defs><title>T_dice_01</title><g id="Layer_2" data-name="Layer 2"><g id="T_dice_01"><polygon class="cls-1" points="7.21 299.15 158.61 61.29 477.62 5.57 270.56 302.16 7.21 299.15"/><path d="M468.87,11.15l-200.37,287L14.41,295.24,161,64.91,468.87,11.15M486.37,0,156.19,57.66,0,303.05l272.62,3.12L486.37,0Z"/><polygon class="cls-1" points="270.01 302.61 484.21 9.7 537.26 279.64 416.94 523.84 270.01 302.61"/><path d="M482.06,19.39l51,259.7L416.43,515.86,274.86,302.72,482.06,19.39M486.37,0,265.15,302.5l152.3,229.31,124-251.61L486.37,0Z"/><polygon class="cls-1" points="186.93 484.96 9.46 306.9 271.27 303.12 409.33 526.25 186.93 484.96"/><path d="M269.07,307.14,401.2,520.69,188.88,481.27l-170-170.53,250.15-3.6m4.4-8L0,303.05l185,185.6,232.46,43.16-144-232.7Z"/><path d="M254.66,106c-42.86,48.05-57.59,32.18-75.44,48.36-18.91,17.14-29.25,47.56,20.2,48.09,0,0-1.4,22-27.18,22.06l48.6,16.74S191.9,217.46,209,205.58c0,0,49.81,23.64,54.91-21.33C268,148.28,231.79,161.43,254.66,106Z"/><path d="M86.92,321.24c33.08,23.53,35.78,15.52,48.53,23.41C149,353,162,368.05,138.8,368.72c0,0,6.55,10.92,18.72,10.74l-18.43,8.72s7.27-12.07-4-17.83c0,0-17.16,12.16-31.61-10.15C92,342.36,112.55,348.6,86.92,321.24Z"/><path d="M192.41,369.51C225.48,393,228.18,385,240.93,392.92c13.51,8.37,26.53,23.4,3.35,24.07,0,0,6.55,10.92,18.73,10.74l-18.44,8.71s7.28-12.06-3.95-17.82c0,0-17.16,12.15-31.61-10.15C197.46,390.63,218,396.86,192.41,369.51Z"/><path d="M284.51,420.81c33.07,23.53,35.77,15.52,48.52,23.41,13.51,8.37,26.53,23.4,3.35,24.07,0,0,6.55,10.92,18.73,10.74l-18.44,8.71s7.27-12.06-3.95-17.82c0,0-17.16,12.15-31.61-10.15C289.56,441.93,310.13,448.16,284.51,420.81Z"/><path d="M392.39,278.24c11.68,57.26-.44,56.14,2.51,77.53,3.13,22.66,15.32,48.57,29.72,18.45,0,0,10.56,15,3.22,30.91L450.07,386s-20.13,2.54-21.16-15.6c0,0,26-15.5,5.08-47.53C417.24,297.2,413.45,327.93,392.39,278.24Z"/><path d="M483.33,258.55c-23.24-53.63-11.15-55-18.46-75.35-7.74-21.53-25-44.36-32.88-11.91,0,0-13.43-12.5-9.53-29.59l-17.79,23.36s19.17-6.64,23.92,10.9c0,0-22.25,20.53,4.84,47.55C455.1,245.12,452.47,214.27,483.33,258.55Z"/></g></g></svg>