<svg xmlns="http://www.w3.org/2000/svg" viewBox="0 0 541.43 531.81"><defs><style>.cls-1,.cls-2{fill:#fff;}.cls-2{stroke:#000;stroke-linejoin:round;stroke-width:8.44px;}</style></defs><title>T_dice_04</title><g id="Layer_2" data-name="Layer 2"><g id="T_dice_04"><polygon class="cls-1" points="7.21 299.15 158.61 61.28 477.62 5.57 270.56 302.16 7.21 299.15"/><path d="M468.87,11.15l-200.37,287L14.41,295.24,161,64.91,468.87,11.15M486.37,0,156.19,57.66,0,303.05l272.62,3.12L486.37,0Z"/><polygon class="cls-1" points="270.01 302.61 484.21 9.7 537.26 279.64 416.94 523.84 270.01 302.61"/><path d="M482.06,19.39l51,259.7L416.43,515.86,274.86,302.72,482.06,19.39M486.37,0,265.15,302.5l152.3,229.31,124-251.61L486.37,0Z"/><polygon class="cls-1" points="186.93 484.96 9.46 306.9 271.27 303.12 409.33 526.25 186.93 484.96"/><path d="M269.07,307.14,401.2,520.69,188.88,481.27l-170-170.53,250.15-3.6m4.4-8L0,303.05l185,185.6,232.46,43.16-144-232.7Z"/><path class="cls-2" d="M371.59,247.53l119.17-51.62-4.91,83.64c-3.37,57.41-18.79,97.09-60.78,115.28l-8.31,3.6c-38.95,16.87-53.41-10.5-53.41-10.5"/><path class="cls-2" d="M379.91,308.14h0c-6.73,2.91-11.75-2.18-11.21-11.38l4.42-75.39c.54-9.2,6.44-19,13.17-21.93h0c6.73-2.92,11.74,2.17,11.2,11.37l-4.42,75.39C392.53,295.4,386.64,305.22,379.91,308.14Z"/><path class="cls-2" d="M442.92,283.93h0c-6.73,2.92-11.74-2.18-11.21-11.38l4.8-81.73c.54-9.2,6.43-19,13.16-21.93h0c6.73-2.92,11.75,2.18,11.21,11.37L456.09,262C455.55,271.2,449.65,281,442.92,283.93Z"/><path class="cls-2" d="M411,303.33h0c-6.73,2.91-11.75-2.18-11.21-11.38l5.46-93.15c.54-9.2,6.44-19,13.17-21.93h0c6.73-2.92,11.74,2.18,11.2,11.38l-5.46,93.14C423.61,290.59,417.72,300.41,411,303.33Z"/><path class="cls-2" d="M475,261.79h0c-6.73,2.92-11.75-2.18-11.21-11.38l3.55-60.59c.54-9.2,6.44-19,13.17-21.94h0c6.73-2.91,11.74,2.18,11.2,11.38l-3.55,60.59C487.64,249.05,481.75,258.87,475,261.79Z"/><path class="cls-2" d="M363.35,387.93s-38-105.24,6.8-115.8l65.74-15.48s-.19,26.09-20.62,38.43l-47.73,21.51"/><path class="cls-2" d="M299.93,154.14c-2.74-.11-3.86-1.79-2.51-3.75L341.75,86c3.67-5.33.62-9.89-6.82-10.19h0c-7.43-.31-16.44,3.76-20.11,9.09L270,150a7.58,7.58,0,0,1-6,2.7h0c-2.2-.09-3.11-1.45-2-3L311.2,78.28c3.58-5.19,1.09-9.89-6-10.43-7.55-.57-17,3.58-20.75,9.06L235.1,148.55a7.57,7.57,0,0,1-6,2.7h0c-2.21-.09-3.11-1.44-2-3l42.27-61.37c3.67-5.32.62-9.89-6.82-10.19h0c-7.43-.3-16.43,3.77-20.1,9.1L198.22,150,182,173.47l-6.88,10c-1.33,1.93-5.25,2.78-6.25,1.35L152,160.8c-11.06-10.58-33.29.54-33.29.54l23.49,69.94s4.44,20.72,47.48,22.47l9.17.37c46.41,1.9,74.75-17.1,97.65-50.34l33.37-48.42Z"/><path class="cls-2" d="M293.6,187.94h0c-7.44-.31-10.49-4.87-6.82-10.2L311,142.66c3.67-5.32,12.67-9.4,20.11-9.09h0c7.43.3,10.49,4.86,6.82,10.19l-24.17,35.08C310,184.17,301,188.24,293.6,187.94Z"/><path class="cls-2" d="M241.27,326.91h0c-6.34.16-8.73,4.24-5.33,9.11l28.92,41.43c1.05,1.51.31,2.77-1.65,2.82l-85.84,2.17,21.36,30.61c1.23,1.76-.9,2.72-3.41,1.54l-42.24-20c-21.52-8.62-26.16,2.38-26.16,2.38l102.32,59.83s28.28,17.86,65,16.93l7.83-.19c39.6-1,39.77-19.24,18.56-49.63l-15.92-22.79-15-21.47-30.83-44.16C255.52,330.57,247.62,326.75,241.27,326.91Z"/><path class="cls-2" d="M213.2,417h0c-6.35.16-14.24-3.66-17.64-8.52l-27.85-39.9c-3.4-4.87-1-9,5.33-9.11h0c6.35-.16,14.25,3.66,17.65,8.53l27.85,39.89C221.94,412.78,219.55,416.86,213.2,417Z"/><path class="cls-2" d="M274,417.19h0c-6.35.16-14.25-3.66-17.64-8.52l-30.2-43.26c-3.4-4.87-1-8.94,5.34-9.1h0c6.34-.16,14.24,3.65,17.64,8.52l30.2,43.25C282.71,413,280.32,417,274,417.19Z"/><path class="cls-2" d="M246.28,421h0c-6.35.16-14.25-3.66-17.65-8.53l-34.41-49.29c-3.39-4.87-1-8.95,5.34-9.11h0c6.35-.16,14.25,3.66,17.65,8.53l34.41,49.29C255,416.73,252.63,420.8,246.28,421Z"/></g></g></svg>