<svg xmlns="http://www.w3.org/2000/svg" viewBox="0 0 541.43 531.81"><defs><style>.cls-1{fill:#fff;}</style></defs><title>T_dice_05</title><g id="Layer_2" data-name="Layer 2"><g id="T_dice_05"><polygon class="cls-1" points="7.21 299.15 158.61 61.28 477.62 5.57 270.56 302.16 7.21 299.15"/><path d="M468.87,11.15l-200.37,287L14.41,295.24,161,64.91,468.87,11.15M486.37,0,156.19,57.66,0,303.05l272.62,3.12L486.37,0Z"/><polygon class="cls-1" points="270.01 302.61 484.21 9.7 537.26 279.64 416.94 523.84 270.01 302.61"/><path d="M482.06,19.39l51,259.7L416.43,515.86,274.86,302.72,482.06,19.39M486.37,0,265.15,302.5l152.3,229.31,124-251.61L486.37,0Z"/><polygon class="cls-1" points="186.93 484.96 9.46 306.9 271.27 303.12 409.33 526.25 186.93 484.96"/><path d="M269.07,307.14,401.2,520.69,188.88,481.27l-170-170.53,250.15-3.6m4.4-8L0,303.05l185,185.6,232.46,43.16-144-232.7Z"/><path d="M311.24,200.42l-10.93-13.21-15,15.33,7.94-.65a33.49,33.49,0,0,1-20.07,16c-11.59,3.19-38.91,4.62-55.33,5.22,10-19.09,28.77-56.39,43.35-85.55l34.08-2.7c.47,4.93,5.56,8.59,13.87,9.06,11.81.66,25.7-5.36,31-13.42s-.07-15.17-11.88-15.84c-10.37-.58-22.33,4-28.66,10.55l-34.78,5.18,13.75-27.56c15.59-1,32.15-9.07,38.9-19.43,7.63-11.71-.1-22-17.25-23s-37.3,7.76-44.93,19.47c-7.15,10.95-.83,20.68,14,22.68-4.19,6.37-11.35,17.25-19.82,30.1l-21.6,3.21c.05-3.78-3.62-6.65-9.83-7-8.35-.47-18.18,3.79-21.9,9.49s0,10.73,8.41,11.21,17.87-3.67,21.72-9.25l19.15-1.52c-19.73,30-44.65,67.82-56.12,85.26-18.54.41-53.77.61-64.77-3.32-7.62-2.72-8-9.07-6.47-14.7l18.13,1.2-12.35-18.94L90.79,204.21l16.2,1.08c-8.08,12.44-16.43,31.88,7.25,35.38,23.9,3.53,48.1,7.57,61.25,9.82-2,7.06-1.78,13.15,3.71,13.46,6.11.34,14.08-6.52,20.89-14.21,13.66-3.41,40.9-10.13,65-15.51,25.24-5.64,33.9-24.06,36.67-33ZM324.75,120c7.47.42,10.85,4.92,7.52,10s-12.12,8.92-19.6,8.5-10.85-4.92-7.52-10S317.27,119.59,324.75,120ZM264.57,80.39c5.35-8.2,19.49-14.33,31.51-13.65s17.44,7.91,12.09,16.12-19.49,14.33-31.51,13.65S259.22,88.6,264.57,80.39Zm-57.12,64.77c-4.81-.27-7-3.16-4.83-6.44s7.79-5.74,12.6-5.46,7,3.16,4.83,6.44S212.26,145.44,207.45,145.16Z"/><path d="M176.83,358.22c-34,.55-42.74,22.78-19.49,49.66S227,456.11,261,455.56s42.74-22.78,19.49-49.66S210.84,357.68,176.83,358.22Zm78.69,88.19c-25.86.42-61.15-15.81-78.83-36.25s-11-37.34,14.82-37.76,61.15,15.82,78.82,36.26S281.37,446,255.52,446.41Z"/><path d="M230.69,415.26c4.21-2,2.36-7.45-4.15-12.07s-15.19-6.72-19.4-4.67-2.36,7.45,4.15,12.08S226.48,417.31,230.69,415.26ZM211,401.59c2.52-1.23,7.71,0,11.6,2.79s5,6,2.48,7.22-7.71,0-11.6-2.79S208.44,402.81,211,401.59Z"/><path d="M151.43,330.23c-7.78.12,8.25,12.09,14.42,19.22l5.91-.09C167.08,344,162,330.06,151.43,330.23Z"/><polygon points="160.23 348.8 175.69 348.8 176.35 350.28 162.65 350.5 160.23 348.8"/><polygon points="165.4 349.01 210.44 399.39 213.92 399.56 170.51 348.93 165.4 349.01"/><path d="M283.18,482.58c-7.78.12-12.6-12-18.77-19.16l5.91-.09C275,468.74,293.77,482.41,283.18,482.58Z"/><polygon points="260.07 464.24 275.11 463.75 273.21 462.28 259.51 462.5 260.07 464.24"/><polygon points="264.73 463.87 222.59 413.44 225.68 413.16 269.84 463.78 264.73 463.87"/><path d="M121.71,408.31c5.32,6.15,16.74,1.48,25.77,1.34l-4-4.68C136.59,405.08,114.48,400,121.71,408.31Z"/><polygon points="149.95 413.6 139.84 401.54 142.13 402 151.49 412.82 149.95 413.6"/><polygon points="146.97 409.7 209.74 407.53 207.79 404.94 143.47 405.67 146.97 409.7"/><path d="M314.48,405.21c5.31,6.16-13.77,2-22.79,2.12l-4.05-4.68C294.49,402.54,307.24,396.85,314.48,405.21Z"/><polygon points="296.02 411.25 285.29 399.2 283.85 399.72 293.21 410.55 296.02 411.25"/><polygon points="292.29 407.37 227.53 407.25 224.99 404.66 288.8 403.33 292.29 407.37"/><path d="M102.94,353.89c-1.74,4.44,17.67,9.6,28.41,14.54l1.33-3.37C124.52,361.31,105.31,347.86,102.94,353.89Z"/><polygon points="129.13 370.76 132.91 362.23 134.99 363.61 131.93 371.42 129.13 370.76"/><polygon points="130.67 368.16 206.91 402.25 207.99 400.53 131.82 365.25 130.67 368.16"/><path d="M332.4,459.43c-1.74,4.44-18.64-7.11-29.39-12.05l1.33-3.37C312.49,447.76,334.77,453.39,332.4,459.43Z"/><polygon points="303.01 450.73 306.05 441.86 303.69 441.19 300.63 449 303.01 450.73"/><polygon points="303.66 447.72 228.08 411.98 228.47 409.95 304.81 444.81 303.66 447.72"/><path d="M196.76,461.61c9.26,4.26,6-7.5,8-12.65l-7-3.24C196.21,449.63,184.16,455.82,196.76,461.61Z"/><polygon points="210.51 452.22 192.42 443.69 193.58 442.97 209.88 450.46 210.51 452.22"/><polygon points="204.74 449.31 217.28 412.16 213.44 410.19 198.66 446.51 204.74 449.31"/><path d="M239.9,351.69c9.27,4.26-.82,9.89-2.84,15l-7-3.24C231.55,359.59,227.3,345.9,239.9,351.69Z"/><polygon points="243.2 368.92 224.97 360.75 225.3 362.16 241.6 369.65 243.2 368.92"/><polygon points="237.26 366.45 221.26 402.01 217.29 400.38 231.18 363.65 237.26 366.45"/><polygon points="292.74 335.77 488.6 41.11 496.02 80.52 304.15 354.04 292.74 335.77"/><polygon points="321.29 380.88 502.87 110.21 509.73 145.04 357.26 432.27 321.29 380.88"/><polygon points="367.54 453.4 518.29 186.73 524 210.14 381.82 478.52 367.54 453.4"/><polygon points="395.52 495.08 526.29 228.98 533.71 263.25 406.94 513.36 395.52 495.08"/></g></g></svg>