<svg xmlns="http://www.w3.org/2000/svg" viewBox="0 0 160.63 230.06"><defs><style>.cls-1{fill:#fff;}</style></defs><title>T_dice_num_04</title><g id="Layer_2" data-name="Layer 2"><g id="T_dice_num_04"><path class="cls-1" d="M99.15,226.56V174.12H3.5V146.94L75.3,3.5h57.81V142.81h24v31.31h-24v52.44Zm0-83.75V31.51L43.57,142.81Z"/><path d="M129.61,7V146.31h24v24.31h-24v52.44h-27V170.62H7V147.77L77.46,7h52.15M37.91,146.31h64.74V16.67L37.91,146.31M136.61,0H73.13L71.2,3.87.74,144.64,0,146.12v31.5H95.65v52.44h41V177.62h24V139.31h-24V0ZM49.23,139.31l46.42-93v93Z"/></g></g></svg>