<svg xmlns="http://www.w3.org/2000/svg" viewBox="0 0 145.73 234.46"><defs><style>.cls-1{fill:#fff;}</style></defs><title>T_dice_num_02</title><g id="Layer_2" data-name="Layer 2"><g id="T_dice_num_02"><path class="cls-1" d="M4.72,231V206.13l7-6.32,5-4.45c8.72-7.76,14-12.44,26.54-24.75,14-13.72,21.75-22.45,34.55-38.9,11.44-14.58,18-26.45,23.47-42.35a65.87,65.87,0,0,0,3.62-20.54c0-22.76-11.14-34.3-33.12-34.3C61.48,34.52,53.14,37.69,47,44c-7.55,7.73-11.36,20.1-11,35.77l.08,3.58H3.65l-.1-3.39C2.87,56.75,9.61,37.21,23,23.39,35.67,10.38,53.14,3.5,73.55,3.5c19.22,0,35.67,6.09,47.55,17.61s18.06,27.19,18.06,45.51c0,21.56-8.32,41.91-11.9,49.66-6.74,14.61-22.6,33.52-29.1,41-8.47,9.67-28.16,27-34.38,32.17l-11.23,9.05h89.68V231Z"/><path d="M73.55,7c37.5,0,62.11,24.46,62.11,59.62,0,16.84-5.42,34.86-11.57,48.19S103.58,145.72,95.52,155s-27.68,26.51-34,31.79L45.72,199.48A25.81,25.81,0,0,1,42.64,202h96.09v25.49H8.22V207.68l5.86-5.27c12.3-11,16.84-14.79,31.64-29.3a336,336,0,0,0,34.86-39.25c12.3-15.68,18.75-28,24-43.36a69.82,69.82,0,0,0,3.81-21.68c0-24.76-12.74-37.8-36.62-37.8-24.17,0-40,16.7-39.26,48.78H7C5.73,34.69,33.85,7,73.55,7m0-7c-21.38,0-39.72,7.24-53,21C6.42,35.47-.66,55.89.05,80l.2,6.79H39.69l-.16-7.16c-.33-14.71,3.12-26.21,10-33.24C55,40.84,62.45,38,71.79,38c9.93,0,17.42,2.52,22.24,7.49s7.38,12.88,7.38,23.31A62.72,62.72,0,0,1,98,88.27c-5.31,15.47-11.73,27-22.9,41.26-12.7,16.34-20.38,25-34.25,38.58-12.5,12.25-17.44,16.65-26.41,24.63l-5,4.45-5.88,5.29-2.31,2.09v29.89H145.73V195H62.47l3.46-2.78,0,0,0-.05c6.27-5.25,26.16-22.71,34.76-32.54,6.61-7.57,22.72-26.79,29.65-41.81,3.67-8,12.22-28.88,12.22-51.13,0-19-6.79-36.07-19.12-48C111,6.43,93.7,0,73.55,0Z"/></g></g></svg>