<svg xmlns="http://www.w3.org/2000/svg" viewBox="0 0 151.72 238.41"><defs><style>.cls-1{fill:#fff;}</style></defs><title>T_dice_num_03</title><g id="Layer_2" data-name="Layer 2"><g id="T_dice_num_03"><path class="cls-1" d="M79.24,234.91c-21.45,0-40.65-6.71-52.69-18.42C16.08,206.3,8.35,191.26,5.34,175.22a110.63,110.63,0,0,1-1.82-22.54l.07-3.43H36l0,3.46c.16,13,1.71,21.38,5.55,30,4.23,9.44,10.19,14.92,19.94,18.34a55.34,55.34,0,0,0,18.62,2.88c8.75,0,16.26-2.61,21.14-7.36,4.37-4.37,7.56-11.09,9-18.9a69.87,69.87,0,0,0,1-12.57c0-27.32-17.78-40.6-54.36-40.6h-3.5V96.16l3.56.07,2,0a66.17,66.17,0,0,0,21.24-3.38c9.9-3.15,15.68-7.67,20-15.61a32.54,32.54,0,0,0,3.39-15c0-18.64-9.06-27.7-27.7-27.7-8.08,0-14.24,2.25-18.81,6.87-6.74,6.8-10.08,19-9.91,36.33l0,3.53H14.59l-.08-3.42c-.59-25.47,6-46,18.54-57.71C45,8.94,59.72,3.5,78.07,3.5s33.64,5.44,44.5,15.74c10.65,10.09,16.27,24.09,16.27,40.49,0,13.57-4.61,26.34-12.64,35a70.45,70.45,0,0,1-14.11,12c23.09,8.38,36.13,29,36.13,57.7,0,18.3-6,35.08-17.23,48.54C119.17,226.94,100.31,234.91,79.24,234.91Z"/><path d="M78.07,7C114,7,135.34,28.83,135.34,59.73c0,13.33-4.69,25.05-11.72,32.67A63.52,63.52,0,0,1,103,107.78c26.95,5.86,41.75,26.95,41.75,56.69a71.42,71.42,0,0,1-16.41,46.29c-10.69,12.6-28.12,20.65-49.07,20.65-21.83,0-39.55-7-50.25-17.43s-17.57-25.34-20.21-39.4A107.52,107.52,0,0,1,7,152.75H32.51c.15,12.16,1.46,21.54,5.86,31.35s10.69,16.26,22,20.21a58.23,58.23,0,0,0,19.78,3.08c10.1,0,18.31-3.22,23.58-8.35s8.5-12.6,10-20.8a73.15,73.15,0,0,0,1-13.18q0-44.17-57.86-44.1V99.72q1,0,2,0a69.41,69.41,0,0,0,22.3-3.54c9.67-3.08,16.85-7.76,22-17.29a36,36,0,0,0,3.8-16.7c0-20.5-10.69-31.2-31.2-31.2C53.9,31,43.2,46.55,43.5,77.75H18c-.59-25.19,6-44.38,17.43-55.08S60.93,7,78.07,7m0-7C58.79,0,43.28,5.74,30.66,17.56,17.37,30,10.39,51.43,11,77.91l.16,6.84H50.56l-.06-7.06C50.34,61.35,53.34,50,59.39,43.85,63.28,39.93,68.62,38,75.72,38c8.28,0,14.46,2,18.34,5.86s5.86,10.06,5.86,18.34a29.23,29.23,0,0,1-3,13.44c-3.79,7-9,11-17.9,13.88a62.83,62.83,0,0,1-20.18,3.21l-1.88,0-7.13-.14V128h7c45.59,0,50.86,21.17,50.86,37.1a66.11,66.11,0,0,1-.91,11.91c-1.28,7.13-4.11,13.18-8,17.09-4.23,4.08-10.86,6.33-18.67,6.33a51.93,51.93,0,0,1-17.41-2.66h-.05c-8.87-3.11-14.06-7.88-17.9-16.47-3.63-8.1-5.1-16.11-5.25-28.57l-.08-6.92H.16L0,152.61A114.85,114.85,0,0,0,1.9,175.87C5,192.6,13.13,208.32,24.11,219c12.69,12.34,32.78,19.41,55.13,19.41,22.1,0,41.93-8.42,54.41-23.12,11.83-14.13,18.07-31.69,18.07-50.82,0-16.2-4.19-30.52-12.11-41.41a54.7,54.7,0,0,0-20.4-17,79.17,79.17,0,0,0,9.56-8.88c8.62-9.35,13.57-23,13.57-37.42,0-17.38-6-32.27-17.36-43C113.45,5.77,97.23,0,78.07,0Z"/></g></g></svg>