<svg xmlns="http://www.w3.org/2000/svg" viewBox="0 0 157.73 234.61"><defs><style>.cls-1{fill:#fff;}</style></defs><title>T_dice_num_05</title><g id="Layer_2" data-name="Layer 2"><g id="T_dice_num_05"><path class="cls-1" d="M80.27,231.11c-33,0-58.22-14.65-69.28-40.2-5.25-11.86-7.77-25.81-7.47-41.45L3.59,146H36v3.5c0,12.43,1.53,21,5.27,29.5,4.06,9.23,10.06,14.66,20.08,18.17A55,55,0,0,0,80,200.08c33.31,0,40.3-26.85,40.3-49.38,0-13.54-2.73-24.85-8.12-33.61-5.35-8.56-14.44-13.28-25.59-13.28-19.9,0-29.61,5.83-37.09,22.27l-1,2.11-28.65-.74L27.46,3.5H142.8V36.13H58.34L55,84.35c9.34-7.88,21.6-11.86,36.57-11.86a57.55,57.55,0,0,1,45.31,21.6c11.2,13.7,17.37,33,17.37,54.27C154.23,201.72,128,231.11,80.27,231.11Z"/><path d="M139.3,7V32.63H55.07L50.82,93.72C60.05,81.85,73.53,76,91.55,76c34.71,0,59.18,30,59.18,72.37,0,50.24-24,79.25-70.46,79.25-33,0-56.11-15.09-66.07-38.09C9.07,178,6.73,164.62,7,149.53H32.51c0,11.86,1.32,21.24,5.57,30.91s10.84,16.11,22.12,20.07A58.38,58.38,0,0,0,80,203.58c29.45,0,43.8-19.63,43.8-52.88,0-14.06-2.78-25.93-8.64-35.45s-15.82-14.94-28.57-14.94c-20.65,0-32.08,6.3-40.28,24.32L23.58,124,30.75,7H139.3m7-7H24.17l-.4,6.57-7.18,117-.44,7.24,7.25.19,22.7.58,4.63.12,1.92-4.21c6.88-15.12,15.44-20.22,33.91-20.22,10,0,17.87,4,22.63,11.65,5,8.16,7.58,18.85,7.58,31.74,0,30.45-12.38,45.88-36.8,45.88a51.76,51.76,0,0,1-17.41-2.66h-.05c-9-3.16-14.4-8-18-16.28-3.54-8-5-16.18-5-28.09v-7H.16L0,149.39C-.29,165.53,2.32,180,7.79,192.33A66.65,66.65,0,0,0,35,223.2c12.69,7.57,27.91,11.41,45.24,11.41,25,0,44.49-7.8,57.91-23.18,13-14.86,19.55-36.08,19.55-63.07,0-22.1-6.45-42.16-18.15-56.49A61,61,0,0,0,91.55,69C78.83,69,67.94,71.73,59,77.16L61.6,39.63h84.7V0Z"/></g></g></svg>