<svg xmlns="http://www.w3.org/2000/svg" viewBox="0 0 541.43 531.81"><defs><style>.cls-1{fill:#fff;}</style></defs><title>T_dice_02</title><g id="Layer_2" data-name="Layer 2"><g id="T_dice_02"><polygon class="cls-1" points="7.21 299.15 158.61 61.29 477.62 5.57 270.56 302.16 7.21 299.15"/><path d="M468.87,11.15l-200.37,287L14.41,295.24,161,64.91,468.87,11.15M486.37,0,156.19,57.66,0,303.05l272.62,3.12L486.37,0Z"/><polygon class="cls-1" points="270.01 302.61 484.21 9.7 537.26 279.64 416.94 523.84 270.01 302.61"/><path d="M482.06,19.39l51,259.7L416.43,515.86,274.86,302.72,482.06,19.39M486.37,0,265.15,302.5l152.3,229.31,124-251.61L486.37,0Z"/><polygon class="cls-1" points="186.93 484.96 9.46 306.9 271.27 303.12 409.33 526.25 186.93 484.96"/><path d="M269.07,307.14,401.2,520.69,188.88,481.27l-170-170.53,250.15-3.6m4.4-8L0,303.05l185,185.6,232.46,43.16-144-232.7Z"/><path d="M280.86,224.47l-40.62-.17c11.25-22.67,44.65-90,54.89-110.79l42.53,1,6.87-14.16s-167.55-.73-170-.67-7.15,11-7.15,11l44,1L150,223.93c-22.16-.09-38.4-.15-39.16-.13-2.49.06-7.15,11-7.15,11L274,238.63Zm-47.1-112.35,38.92.88L211.9,224.18,178.32,224C189.9,200.69,224.39,131.15,233.76,112.12Z"/><path d="M401.23,430.11l-3-12.83c14.29-26,67.12-122.1,82.13-149.52L486,294l10.58-17.11s-37-159.73-37.58-162-8.6,11.52-8.6,11.52l6.95,32.71L368,286.49c-2.53-10.89-4.17-17.92-4.29-18.38-.59-2.27-8.61,11.52-8.61,11.52l35.6,167.59Zm-9.25-40c-2.07-8.95-4.36-18.8-6.7-28.92,16.53-23.8,74-106.53,88-126.84l2.4,11.27Zm71.24-203.24,5.4,25.41L379,334c-2.1-9.05-4.13-17.84-6-25.89C388.46,287.34,449.1,205.88,463.22,186.91Z"/><path d="M326.56,461.43l-26.77,0c-8.31-17.65-40.79-86.65-49.91-105.74l11.06.23-9.63-13.19s-126.77.18-128.59.24,6.08,10.22,6.08,10.22l20.76.43L223,461.59c-14.38,0-24.53.06-25,.08-1.82.06,6.08,10.21,6.08,10.21l132.14,2.73Zm-55.42-29.87c-25.21-28-58.49-65-69.16-76.82l30.58.63ZM166.88,354l12.73.27L280.69,461.5l-36.15.06C230.76,442.45,179.24,371.06,166.88,354Z"/></g></g></svg>