<svg xmlns="http://www.w3.org/2000/svg" viewBox="0 0 124.74 230.06"><defs><style>.cls-1{fill:#fff;}</style></defs><title>T_dice_num_01</title><g id="Layer_2" data-name="Layer 2"><g id="T_dice_num_01"><path class="cls-1" d="M16.68,226.56V194.08H51.84V77.14a109.86,109.86,0,0,1-43.67,29L3.5,107.76V72.65l2.32-.83C27.73,64,52.13,35.44,52.13,7V3.5H85.79V194.08h35.45v32.48Z"/><path d="M82.29,7V197.58h35.45v25.48H20.18V197.58H55.34V67.35C44.06,82.73,26.34,95.92,7,102.8V75.12C31.17,66.47,55.63,35.86,55.63,7H82.29m7-7H48.63V7c0,26.21-23.22,54.1-44,61.52L0,70.18v42.54l9.35-3.32a114,114,0,0,0,39-23.76V190.58H13.18v39.48H124.74V190.58H89.29V0Z"/></g></g></svg>