<?xml version="1.0" encoding="utf-8"?>
<!-- Generator: Adobe Illustrator 22.1.0, SVG Export Plug-In . SVG Version: 6.00 Build 0)  -->
<svg version="1.1" id="Layer_1" xmlns="http://www.w3.org/2000/svg" xmlns:xlink="http://www.w3.org/1999/xlink" x="0px" y="0px"
	 viewBox="0 0 541.4 531.8" style="enable-background:new 0 0 541.4 531.8;" xml:space="preserve">
<style type="text/css">
	.st0{fill:#FFFFFF;}
	.st1{enable-background:new    ;}
	.st2{fill:none;stroke:#000000;stroke-width:4.22;}
	.st3{fill:none;stroke:#000000;stroke-width:4.22;stroke-miterlimit:10;}
</style>
<metadata><?xpacket begin="﻿" id="W5M0MpCehiHzreSzNTczkc9d"?>
<x:xmpmeta xmlns:x="adobe:ns:meta/" x:xmptk="Adobe XMP Core 5.6-c143 79.161356, 2017/09/07-01:11:22        ">
   <rdf:RDF xmlns:rdf="http://www.w3.org/1999/02/22-rdf-syntax-ns#">
      <rdf:Description rdf:about=""
            xmlns:xmp="http://ns.adobe.com/xap/1.0/"
            xmlns:xmpGImg="http://ns.adobe.com/xap/1.0/g/img/"
            xmlns:xmpTPg="http://ns.adobe.com/xap/1.0/t/pg/"
            xmlns:stDim="http://ns.adobe.com/xap/1.0/sType/Dimensions#"
            xmlns:xmpG="http://ns.adobe.com/xap/1.0/g/"
            xmlns:dc="http://purl.org/dc/elements/1.1/">
         <xmp:CreatorTool>Adobe Illustrator CC 22.1 (Windows)</xmp:CreatorTool>
         <xmp:CreateDate>2018-08-18T13:43:17+02:00</xmp:CreateDate>
         <xmp:Thumbnails>
            <rdf:Alt>
               <rdf:li rdf:parseType="Resource">
                  <xmpGImg:width>256</xmpGImg:width>
                  <xmpGImg:height>252</xmpGImg:height>
                  <xmpGImg:format>JPEG</xmpGImg:format>
                  <xmpGImg:image>/9j/4AAQSkZJRgABAgEASABIAAD/7QAsUGhvdG9zaG9wIDMuMAA4QklNA+0AAAAAABAASAAAAAEA&#xA;AQBIAAAAAQAB/+4ADkFkb2JlAGTAAAAAAf/bAIQABgQEBAUEBgUFBgkGBQYJCwgGBggLDAoKCwoK&#xA;DBAMDAwMDAwQDA4PEA8ODBMTFBQTExwbGxscHx8fHx8fHx8fHwEHBwcNDA0YEBAYGhURFRofHx8f&#xA;Hx8fHx8fHx8fHx8fHx8fHx8fHx8fHx8fHx8fHx8fHx8fHx8fHx8fHx8fHx8f/8AAEQgA/AEAAwER&#xA;AAIRAQMRAf/EAaIAAAAHAQEBAQEAAAAAAAAAAAQFAwIGAQAHCAkKCwEAAgIDAQEBAQEAAAAAAAAA&#xA;AQACAwQFBgcICQoLEAACAQMDAgQCBgcDBAIGAnMBAgMRBAAFIRIxQVEGE2EicYEUMpGhBxWxQiPB&#xA;UtHhMxZi8CRygvElQzRTkqKyY3PCNUQnk6OzNhdUZHTD0uIIJoMJChgZhJRFRqS0VtNVKBry4/PE&#xA;1OT0ZXWFlaW1xdXl9WZ2hpamtsbW5vY3R1dnd4eXp7fH1+f3OEhYaHiImKi4yNjo+Ck5SVlpeYmZ&#xA;qbnJ2en5KjpKWmp6ipqqusra6voRAAICAQIDBQUEBQYECAMDbQEAAhEDBCESMUEFURNhIgZxgZEy&#xA;obHwFMHR4SNCFVJicvEzJDRDghaSUyWiY7LCB3PSNeJEgxdUkwgJChgZJjZFGidkdFU38qOzwygp&#xA;0+PzhJSktMTU5PRldYWVpbXF1eX1RlZmdoaWprbG1ub2R1dnd4eXp7fH1+f3OEhYaHiImKi4yNjo&#xA;+DlJWWl5iZmpucnZ6fkqOkpaanqKmqq6ytrq+v/aAAwDAQACEQMRAD8A9U4q7FXYq7FXYq7FXYq7&#xA;FXYq7FXYq7FXYq7FXYq7FXYq7FXYq7FXYq7FXYqx3WfzH8gaID+lvMem2bLv6Ut1CJD8o+XM/QMV&#xA;YJrP/OVn5LabyWLVptSlTYx2VtM33PKsUZ+hsVYJrH/Ob2gISmh+V7u8LVCNeTx2xr2+GJbmvyri&#xA;qU/9DBf85IeZQR5Y8lfV7d6cLlLG6npXp++lZYPvXFWGfmb5t/5ye0Gwtrzzjrlxoy38jR2dpa3F&#xA;rbzuFFWZUsSHCpUAljWpGKsH/Lbzvq9r+aXljWdU1C5uzDqNutxNczPKwhlkEcu7k/sO2Kv0ZxV2&#xA;KuxV2KuxV2KuxV2KuxV2KuxV2KuxV2KuxV2KuxV2KuxV2KpZq/mfy1oy8tY1ay01R1a7uIoB/wAl&#xA;GXFWC6z/AM5KfktpVRJ5kiupQKiOyimua/J40aP72xVges/85r+QrfkukaLqWoOvRpvRtYz8mDzP&#xA;96Yqxs/85W/m75iPHyb5FEgeoVhFd6kR7gwC3Xb3GKtep/zmp5pX4VfRbSQA9LKxK/8ABVuhirf/&#xA;AEKz+c3mIlvOHnpWSQ1ZDPeagQD1+CX0E+gGmKsh0X/nCbyPb8W1jXdR1BwPiFusNqhPyZbhqf7L&#xA;FWeaN/zjP+S2lUZPLqXkooTJezTXFaeKO/p/8LirO9H8p+VtFp+htGsdNpUD6pbRQdev92q4qra/&#xA;rulaBo15rOrTrbadYRNNczN0Cr4DuxOygbk7Yq/O780vzE1n8x/O1xrU6OI5GFvpOnj4zDbhiI4l&#xA;C9XYnk1OrH6MVZj+aP5F3P5f/lb5Z169LL5gvL101ZVO0JnhElvACDSsQgfkw/aY7kAYq+2fKOtL&#xA;rnlTRtaVgw1Kxt7uo23miVzt23bpiqbYq7FXYq7FXYq7FXYq7FXYq7FXYq7FXYqh73UdPsITPfXM&#xA;VpAOss7rGg/2TEDFWF6z+fH5PaPUXnmuwcqaMto5vCD8rUTHFWB61/zmV+VdkGXT7bUtUkp8DRwp&#xA;DET7tM6OP+AOKsOuf+cy/M+qzG28p+SvWmFAvqyy3bmvSsVvHGR/wRxVS/xr/wA5leaf+ObobaLH&#xA;JUUFpDZ0Hz1Jmcffirj+Q3/OTPmbfzJ5z+qW7j47d7+5k/5IwKIf+GxVM9I/5wh0YMJNc803V0zG&#xA;si2lukB36/HK1xX58cVZ3o3/ADif+S+m8TPplxqki9HvbqU7+JWAwIfpXFWd6N+WX5d6LxOleWtN&#xA;tHWlJktYfV26VkKlzT3OKofz/wDml5I8g6f9a8xagsEjLW2sIqSXU1O0cQNaduTUUdzirFPyO/PB&#xA;/wA0L7zJTT10200lrX6lEXMkzxz+qC8jbLWsQ2Vfhr1OKvWMVdirsVdir4z/AOcsPzm/T+st5H0S&#xA;eui6VJXVJoz8NxeIaent1SA7e71/lU4qm/8AziX+Sv1u4j/MPXoP9Gt2I8vW0g2eVTRrsg9kNRH/&#xA;AJVW7DFXrv8AzlHoR1b8l9aZF5Tac0F9EP8AjFKqyH6InfFXf84ua6dW/JfRVduU2nNPYyn/AIxS&#xA;s0Y+iJ0xV6xirsVdirsVdirsVdirsVdirsVUNQv7PTrC5v76ZbeytInnuZ3NFSONSzs3sFFcVfKb&#xA;f85C/nx571nUoPy20SM6TazcYJ47YSzJExIia4kndoFdwpNOIp70riqr/wAq0/5y/wDNBH6Z8yto&#xA;8bkmRDfLbih61TTVZT8sVRFl/wA4WanfTfWvM/nJp5yAHEEDzOf+e08gP/CYqzXRv+cPPyisSrXv&#xA;6Q1YihZbm59ND7UtkgYD/ZYqzvRvyT/KXRgv1Hypp3JPsyXEK3Ug+T3Hqt+OKsytrW2tYVhtokgh&#xA;TZYo1CKB7KtBiqpirsVdirsVfLf50/8AOWWp6bqmo+V/JdobS8sJ5bO91i7VWdZYWMcgt4DyXZl+&#xA;3JX/AFe+KvnHRbXVPPXnnTrDU9UkfUNdvYbWTU7otO4edxGrNyYFtyKCuKvvX8p/yZ8qflrp80Ok&#xA;GW51C8CDUNRnY85fTqVAjHwIqljQAV33JxVnuKuxV2KvGv8AnJb85B5E8rfonSpuPmjWo2S1Kn4r&#xA;a3NVkuf9bqsf+Vv+zTFXy3+RP5R3v5k+cFgnDp5fsCs+tXYqDwJPGFG/35KQR7CrdsVfoHY2VnYW&#xA;UFjZQpb2drGsNvBGAqJHGAqIoHQKBQYqgPNuiprvlbWNFcArqdlcWm//ABfEyA/RyxV89/8AOEWt&#xA;FtC8z+X5Phezu4b1UOxrcRmJ9v8AJ+rLX54q+mcVdirsVdirsVdirsVdirsVdir5k/5yr/Mi/wBT&#xA;1Cy/KfyvyudS1GWH9LJCfiLSMDb2n+yJWR/bj74q9o/KT8t9P/L3yTZ6Bb8ZLunr6ndqKetdOB6j&#xA;dAeIoFSv7IGKszxV2KuxV2KuxV2KtMyqpZiFVRVmOwAHc4q8K/NX/nLDyf5X9bTfLATzFraVUyI3&#xA;+gwt/lyr/ekfyx7f5QOKp5/zjT+Yuv8AnzyPf6rr9wtxqcGqTQNwRY1WL0opI1VV/ZHqECu+29eu&#xA;KqMf/OMfkK584a75p1wNqt3q9xPcQWco421uZySTwBrK9STVjT/J74q+IvL95LoXm3Tb2X93Lpd/&#xA;BM/+S1vMrHceBXFX6e4q7FXYqkXnfzlo3k3yvf8AmLV5OFpZRlggI5yyHaOKMHq7tsPvO2Kvz71G&#xA;+84/m1+ZHqBDda5rtwI7a3BPpwxj7KDrxihjFSfAFj3xV96/lh+XWj/l/wCULTy/p1JHjHqX14Rx&#xA;e4uWHxyt+pR2UAYqyzFXYq+T/wAk/wDnU/8AnKTzZ5Z3S21A38dtF7CVbyA/RAG+/FX1hirsVdir&#xA;sVdirsVdirsVdirC/wA3fzJsPy98k3mvT8ZL0j0NLtGP99dODwWgoeK05P8A5IPfFXjP/OKf5bX9&#xA;/eXn5reaOVxqepSTfol5t2YyMRcXfzc1RPbl2IxV9NYq7FXYq7FXYq7FXnv5nfnp5C/L2J4tTu/r&#xA;es8QYtGtCHuDUVUyb8YlPi5+QOKvkX8w/wA9fzM/NG+GjWqy2umXTcLby9pgd2m7hZWUepO3tTjt&#xA;UKMVeiflV/zh3f3Zh1T8wZjZ22zrodswM7jrSeZaiMeKpVv8pTir6m8veW9B8uaXFpehWEOnafD9&#xA;i3gQIte7N3Zj3Ztz3xVMsVfmp+aemfov8y/NNgBxSDVbwRD/AIrM7NH/AMIRir9EfJOp/pXyZoGp&#xA;1r9f060ua/8AGaBH8B/N4YqnWKuJAFTsB1OKvhT/AJyY/OVvPXmgaNpE/Pyvo0jJbFD8N1c/Ze42&#xA;6qPsx+1T+1ir3j/nGD8lv8GeX/8AEmtQcfM+sRikbj4rS1PxLF4h5Nmk+hexqq9zxV2KuxV8ofm0&#xA;x8p/85Z+V/MFfTh1U2Dzy9AFkLadNU+0S7+2Kvq/FXYq7FXYq7FXYq7FXYq07pGjSSMERAWd2NAA&#xA;NySTir471+71D/nIX87YdHsZJE8kaEWBnSoX6sjD1rgVG0l0wCx7bLTbZsVfX1jY2dhZW9jZQrb2&#xA;drGkNtBGOKJHGoVEUdgAKYqr4q7FXYq7FXYqhtTt57nTbu2glaGeeGSOKZCVZHdCqsrDcEE1qMVf&#xA;mJp8H6Q162g1GeRBd3Ucd5cN8UiiSQLI55ndhUnc4q/RH8uvyi8jfl/ZCHQLBReOvG51Sekl3N48&#xA;pKDiu32EAX2riql+ZP5yeRfy+tC2uXofUXTnbaTb0kupfA8K0RT/ADOQPDfFXm/5H/8AOQ2vfmR+&#xA;ZupaXdWsOnaJHp0lxp1knxyc45olrLMaFmKSH7IVfbvir6AxV8A/85Q6X9Q/O3zBxXjHd/VrqPal&#xA;fUto+Z2A/wB2BsVfRX5a/nN5I8p/kN5W1LzFqKxTLaSW8GnxUku5jazSQARxCh/3X9pqL4nFXuFt&#xA;cRXNvFcQnlFMiyRt4q4qD9xxV8/f85X/AJy/4e0U+StEn463q8ddSmQ/FbWbbcKjo8/T2SvipxV5&#xA;t/zip+Sn+I9WXztrsHLQdLlppsEg+G6u0NedD1jhP0FtuzDFX2dirTMqqWYhVUVZjsAB3OKt4q7F&#xA;XzD/AM5t6NItj5V8xwDhJa3E9nJMOvKRVmh39vRcjFX0b5c1ePWfL2l6xHT09StILtKdOM8SyD/i&#xA;WKpjirsVdirsVdirsVdir58/5yv/ADWm0jR4vIWguz69r6hb4Q/FJFaOeIiAG/O4Pwgfy1/mGKs5&#xA;/IP8qYfy88jw2twinX9R43WszChIkI+CAMK/DCp49aFuR74q9KxV2KuxVSurq1tLaS6u5kt7aFS8&#xA;08rBERRuWZmIAA8TirwPz7/zmL5J0S5ksvLVjJ5juIzxe6D/AFa0r/kSFZHkp7IAezYqkvkX/nNC&#xA;z1DW4NP816NHpdlcuIxqltMzpCW2Bljda8K9WDbDscVfTYIYAg1B3BHQjFX5mfmDpp0jz95j05Rw&#xA;+papeQx02+GOdwpFAvYAjbFXt35k/wDOYev6naDTfJdu2kxtGoudWnCtdM9PjEKfEka16Mat4cTi&#xA;rDvy3/5x8/Mf8ybsazqDS6dpN03qz65qPOSa45bl4UciSYn+YkKf5sVfXn5Z/kz5G/Lu1polp6mp&#xA;SJ6d1q9zSS6lBIJXlQBEqB8KADYVqd8VZZreu6NoWmzanrN7Dp+nwCstzcOI0HgKnqT2A3PbFXwV&#xA;/wA5GfmD5Z89/mH+mPLolNjBZxWb3Eyen60kUkjGRFPxBCrqByAO3TFVL8rvyA8+/mC8dza2/wCj&#xA;dBP2tZvFZYiAd/QTZpj1+z8NerDFX2Z55866V+VX5ax3t/N9bn0+2isdOjf4Xu7pIuEYIFaV4F38&#xA;Frir4v8Ay/8AJ3mj85vzMlN9PJIbuU3uv6oRtDDy3C12BOyRJ2/1VNFX3/omi6ZomkWmkaXbra6d&#xA;YxLBbQJ0VEFB7k9yTuTucVRuKvBf+cufzJPl3yRH5YsZeGq+Y+STcTRo7GMj1jt09U0j915eGKsl&#xA;/wCca/zFu/O35a28uoc21TR5P0be3DA0mMSK0cvLuxjZee9eVT3GKvVcVeQ/85WaF+lPyY1SVV5y&#xA;6XNbX0YH+TKInP0RzMcVRn/OMuujV/yX0BmblNYLLYzDw+ryssY/5FFMVepYq7FXYq7FXYq7FWPe&#xA;f/O2k+SfKWoeZNUb9xZR1jhBAeaZvhiiT3djT2G/QYq+dP8AnG/yTq/n7zzqP5u+bl9cJcs2lq4P&#xA;F7sbc0B/3XapRI/8r3TFX1ZirsVdiryv82P+civJH5fNLp5Y6t5jQD/cTbNT0yy8l+sSkFY6gg03&#xA;b/Jpvir5L83fmT+a/wCcWtx6WFmu0kblaeX9ORxAlD9tkBJfjXeSQmnsMVeu/l7/AM4XCS1S88+a&#xA;nJDM4qNK01krH/xluHWRSfEItP8AKOKvAfzU8mR+S/zB1vyzFI8tvp84FtJLT1DDKizRcyoALenI&#xA;tSAN+2Kv0E/LKa5n/LbynPdMz3Mujae87v8AaMjWsZYt71xV8O/85J6YNO/OzzNEq0SaaG5U9j9Y&#xA;t45WP/BscVe9f843fkN+X0nlLSPO+pQ/prVb9DNDHdKDbWzI7JRITs7qyH4nr4qBir6MZkjQsxCI&#xA;gqzHYADucVeOeaP+coPIem+atM8s6K/6cvLy+t7O8vIHAtLeOWZUkYTbiV1VqgJ8Piw6Yqnn/OQf&#xA;kbV/Ov5Z3ei6NAtxqpubWa0iZlQVWdVkYs5AAWJ3Y+w23xVhX5Vf84leVPLno6n5uaPzBrK0cWpB&#xA;+oQsPBGAM/zkHH/JxV7vNNZ2NnJNM6W1naxl5HaiRxxRrUknYKqqMVfBX5y/mLrX5vfmNBY6JFJP&#xA;psUv1Hy7YKDykLtQzsDSjSkVNfsqAD0JxV9f/kx+Venflx5Oh0mLjLqtzSfWL1f923BFCqk7+nH9&#xA;lB9PUnFWeYqpXd3bWdrNd3Uiw21vG0s8zmipGgLMzHwAFcVfnT+ZPm/VvzN/My61G2jkmfUbhLLR&#xA;bP8AaEPL07eIDszV5N/lMcVfeX5Y+RLHyN5I0zy5ahWe1jDXs6j++uX+KaTx3b7Nei0HbFWU4qkn&#xA;nfQxr/k3XNEpVtSsLm1T2eWJlQ/QxBxV4N/zhHrgm8q+Y9CLVaxvYrxVP8t3F6Zp7Vtfx98VfSmK&#xA;uxV2KuxV2KuxV8hfm75g1X86/wA3rD8u/LUx/wAP6TMy3F0oLR+pH8N1dtTYrEtY4/E9D8eKvqzy&#xA;55f0ry7oVjoekwi307T4lgt4h14r3Y92Y/Ex7k1xVMcVdirsVfBv/OWWmCz/ADq1OYLxGoW1pcjw&#xA;NIFhJ++E4q+kf+cU7HQk/J7Sb+xsoLfULlrhNTuI0AllkiuZET1Hpyb92FoO2Ksv/Mr82fJv5e6U&#xA;15rl2DdupNlpcRDXNww/kT9la9Xaij57Yq+AvNPm9vOHny78zeYEdYtSu1lvIbahdLdeKCKIvQEp&#xA;CoVS3hir9Dfy+81eWvNHlDTtX8tEjSJIxFbwsvB4fR/dmF1q3Fk406n2JG+Kvkf/AJzM0z6r+atp&#xA;eKPgv9KgkZv8uOWWIjr2VFxVmn5M/wDOQHknyJ+SFhaavO1zq9ncXcVro9sA07q8xmDtWixpylPx&#xA;MfGlemKvKPzB/PH8zvzT1AaNapLb6ddPwtfL2mB3Mteiyso9SdvmOPcKMVem/lF/ziFqQuLTXPPd&#xA;y1l6LrNBoto4M3JCGUzzqSqbj7MdT/lKdsVfWGKuxV8tf85c/nN6aN+XWhz0kcK/mG4jJBCmjR2g&#xA;I/m2aT2ovdhiqc/84ofkr+g9LTz1r0FNY1KP/cPbyD4re1cf3pB6POOngn+sRir6MxV2KvDf+cvv&#xA;M+uaP+WKWOmxSLba1dLZ6jeoaCOEKZPSNDy/fFaeHEMD1xV5L/zht5DsdY83ah5pvTHIPLyItlbE&#xA;gt9ZuQwExXwREYCv7RqPs4q+yLi4gtreW4uJFighRpJpXNFVEFWZiegAGKvJ/wAkvz5sPzG1bzDp&#xA;jRrbXFjcPNpSdGm00sER2B/3Yppz/wBYYq9cxV8ofkED5U/5yT84+VWoltd/XY7ZOlfRuBPAf+RB&#xA;bbFX1firsVdirsVdirxb/nJ783P8FeTzo2lzcPMmvI8UDKfit7U/DNPturGvCM+NSPs4qv8A+cY/&#xA;yj/wR5OGq6nDw8ya6qTXQYUe3t6cobffod+b/wCUaH7IxV6xrWuaPoemzanrF7DYafbjlNc3DhEX&#xA;wFT1J6ADc9sVfO3nr/nNLQ7KeS08m6S2qldhqV6WggJHdIQPVdf9YofbFWDad/zmr+Y8V8JNQ0nS&#xA;rqzLAyW0KXEDhR1Echll418WVsVfUn5Z/mT5f/MLyxFrujMyDkYryzkp6tvOoBaN6bHY1Vh1H0gK&#xA;vmb/AJzb030/O3l/U6bXWmtb18Tbzu/j/wAvGKsF8l/85DebfJn5cyeUfL8MVvdSXU041eT948UU&#xA;yoOEUTDgGDKx5Ny6/ZrvirvIv5J/mn+at/Jrcxkjs7p+dx5g1VpKSnuY68pJj2HH4e3IYqqfnv8A&#xA;kan5WjQTFqj6qmrJcCaVoRCEltzHXiA0nwsswoCexxV7l/zhPqnreQNb00tVrPUzMB3CXEEYH0co&#xA;WxVjf/OcWmUn8paoo+0t5bSHw4mF0/4k2KvPvyq/5xf88edDDqGqq3l/y89G+s3CH6zMnX9xAaGh&#xA;/nei9xy6Yq+vvy8/KfyR5Asfq/l6wVLl1CXOpTUku5qb/HLQbV/ZUBfbFWYYq7FXnX55/mxZ/lz5&#xA;NlvkZX12+5QaLatvylp8UrD+SIHkfE0Xvir5j/5xy/KK8/MXzdP5q8yq9zoNhcGe8kn+L69esfU9&#xA;Ji32lqecv0L+1sq+4QABQbAdBirsVQ2qanY6Vpt1qd/MtvY2UL3F1O32UiiUu7GngBirFry28tfm&#xA;x+V/ChbSPMdkJIWYD1IZCOSNStPUglXxpVfDFXxh+W/mjWfyZ/N94NYVo4LaZtN1+BakNbsw/eoP&#xA;2uPwyp4jbvir6A/5y1/NGPRvJFt5a0m5Vr7zOhaaSNgaacPtkEdpyQg8V5Yq86/5w0/L+6v/ADVd&#xA;+dpmeKw0ZXtLXiSFmubiMq6mn2ljiapB7sp7Yq+xsVfKH5kEeUv+cv8Ay7rQHpxay1k0j9Fpcq2m&#xA;yH6AtTir6vxV2KuxV2Kpb5k8xaV5b0G+13VpvQ07ToWnuJOp4r0VR3ZjRVHcmmKvlX8nfLuq/nR+&#xA;bd/+Y/meI/oLSpla2tWq0RlTe2tUrsUhWkkni1Kj4zir2H89vz9tPyyjtrGDTX1HXNQiaa0Eh4Wq&#xA;IrFOUjj4mIb9hR/shir5B1fzD+af5v8AmeKCVrnXNRck2mnW68YIEJ3KRikcSjbk7f7JsVe3+R/+&#xA;cKEktEuPOutSQ3EgqdP0vhWOo6NcSrIrHxCx08GOKsF/P/8A5xzH5dWdvruh3k1/5emkFvOLrgbi&#xA;3lYEoWaNUV0fid+Iodu+Kov/AJw481XGm/mZPoJkP1PXrSRTDXY3FqDNG/zEYlH04q9A/wCc4NN9&#xA;Ty95W1On+8t3c21f+YmJH8f+XfFWB/8AOIvkPyV5p8wa3P5jsE1G50qO2m063mPKD42kEjSRdJKc&#xA;UoGqvXbpir7URERFRFCooAVQKAAbAADFXzr/AM5s6X6vkPQtTAqbTU/QJpUhbiB2J6dKwDFWPf8A&#xA;ODx1GOXzWrW8v6OuFtGS6Kt6PrQmUMiv9nkVlBI67Yq+m9V8u6Fq1xZXGqWEF7Lp0hmsWnRZPSlI&#xA;pzQNUBqdD2xVMcVdirsVQWt6zpuiaReavqc622n2ETz3MzdFRBU/M9gB1O2KvhXU7zzZ/wA5A/nA&#xA;sNqGgtJCUtkbeOx02Jvikfty35N/M5oNqUVfcHlLyro3lTy7Y+X9Gh9DT7CMRxL+0x6vI52q7sSz&#xA;HxOKpvirsVeUf85RWetXP5L61+i5GQQtBNfxp9qS1SVfUWvYDZ2/yVIxVhH/ADhd51+veU9U8pXE&#xA;lZ9Gn+tWSk/8e10SXVR4JMrMf9fFUB/zmN+Vv1qxt/zB0yH9/ZhbTXAo3aFjxgnP+ox4MetCvZcV&#xA;fLyy+YfNGqaXpvqS6hflbfS9LhY1IQH04IU8FBagxV+i35Z+RrLyP5I0vy3bcXazirdzqP725f4p&#xA;pN96M5PGvRaDtirIri+s7aW3iuJ44ZbuQw2qOwUyyBGkKID9puEbNQdgcVfMf/Oa+lS27+UfM9qT&#xA;HPbyz2ryjqGHCeCnyKyHFX0romqQ6to1hqkH9zf20N1F/qzRiRfwbFUbirsVdir5Q/5yO86at+YP&#xA;n3Tvyj8pN6yRXKrqTqTwe8FeSuR/uu1SrP8A5Vdqrir6P8heS9J8l+U9P8uaWv8Ao9jHR5SAHllb&#xA;4pJX/wAp2JPt06DFXzz/AM5xaZWHylqij7LXttIfHkIXT/iLYqif+cHr6J9H812FF9WC4tJ60HIr&#xA;MkidaVoDDir6dxV57/zkHpseofkz5rhdQwjs/rK17NbSLMD9Hp4q+Ov+cavV/wCV3+V/S5cvVuK8&#xA;a14/VJuXTtxrX2xV9N/85f6Ybz8nJbjjX9Haha3JPhyLW9f+S9MVeJ/84Y6n9W/NK+smPwX+lTKB&#xA;/lxTRSA/8CGxV9sYqkfnHyT5b846XHpXmG1+u6fHcR3XoFmUGSKvGpUg0+I1Fd8VTTTtO0/TbKGw&#xA;0+2is7K3XhBbQIscaKOyooAGKojFXYq7FXYq+P8A/nKn827nzLr0f5ceWme4s7W4SPUvQqzXV/y4&#xA;pbKF+0sTU27yf6oxV7j+QP5QW35c+UVS6RX8yamFm1e4FDxNKpbow/Yiqfm1T0pir0/FXYq7FUNq&#xA;em2ep6bd6bex+rZ30MltcxHo0UyFHX6VY4q+Ffyk1K8/Kz8/49K1GQxwJeS6HqLn4FeGZ+EUpr+x&#xA;6gjl/wBXFX3VqmmWOq6bdaZfwrcWN7C9vdQN9l4pVKOpp4g4q/P7V9N1n8lPznib0xcnRbpbqxaU&#xA;ClzZSVCncMAzxMykj7L1puMVffega5puvaJY61pkvrafqEKXFtJ0JSQVFR2YdCOxxV8df85N/nDf&#xA;X35oWVn5fuzHb+TJgYJozUHUVYNK/v6ZUR0PcN2OKvV/+cgHuPOn/ONdt5kms2s7pF0/WGs2FWja&#xA;WkL09gtySCf2cVZl/wA4367+mfyY8tys/KWzhewkHdfqkjRID/zyVDir0vFXYq8z/P8A/NeL8vPJ&#xA;EtxbSL/iDU+Vto8RoSHp+8nI/lhU1/1io74qwn/nE/8AKmXRtEk8964jPruvoTZmUlnjs3If1CT+&#xA;3cN8ZP8ALTxOKvoLFXg3/OZmm/WvyqtLtR8VhqsEjH/IkiliI6/zOuKvMP8AnCXU/S89a9phNBd6&#xA;YLgDxNvOi0+dJzir7IxV4/8A85V+a7fQ/wAodRsyw+ua5JHYWqGlSC4kmangI4yK9iRirwb/AJw3&#xA;8rzal+Zk+uNHW10Kzkb1aVAuLoGGNfpjMp+jFX03+fejyav+T3mqyijMsn1M3CRqCzE2rrcCgAJr&#xA;+6xV4b/zjJ+Q3n7R/Nlh541xBo9jbxzLHp04P1u4WeFoxyT/AHSoLhvi+LanGhrir6wxV2KuxV2K&#xA;uxV2KvH/APnJH8418g+VP0fpcwXzTrKNHYcd2t4fsyXJ8CK0j8W334nFXnf/ADiZ+SzKE/MbzDCT&#xA;NJy/w/byjejbPeMD3apWOvard1OKvqTFXYq7FWM3f5keUbTz1beR7i9WPzBeWxuoITTgRUgR8q7S&#xA;sFLKvdRXwqqybFXxp/zmZ5MOmedtO812ycYNcg9K5cdrqzAXkSOnKEpT/VOKvpn8n/Og85flvoev&#xA;M/O7mtxFf77/AFqA+lMSO3J0LD2IxV5//wA5Xfld/iryT/iLT4uWt+XFeYhR8Utkd509zHT1F+TA&#xA;btirw/8AJ7/nIi58kflz5i8uTlpLuOJpvKzU5LHcTsEkRtqcVZ/XFetGHUjFWK/kP+Xkv5g/mVZ2&#xA;V4rTaXasdQ1qR6tyhjYHgxPUzSEIe9CT2xV91/mFoA13yF5g0REDPfadcwQJTpI0TekQPZ6EYq8T&#xA;/wCcJtc+seSte0VjVtOv0uV8Ql3EFA+XK2Y4q+jcVQ+oahZadYXGoX0y29laRvPczuaKkcalmYnw&#xA;AGKvkLy3Zah/zkJ+ds+t6jG6+SdCKkW7VCi2Rj6Fv/r3LKXk9uQB2XFX2IiIiKiKFRQAqgUAA2AA&#xA;GKt4q8z/AOclNMOofkn5miVavDFDcqe4+r3EcrH/AIBTir5X/wCcUdT+pfnXpMRbit/Bd2rHoP7h&#xA;plB3HVoh9OKvtzzX5v8ALnlPRptZ8wX0dhYQj7ch+J2pUJGg+J3PZVFcVfB35vfmdrn5teeIWs7W&#xA;X6kjfU9A0lBzlpIwHJlWoMszUrTpsu9KlV9jfkX+Vyfl35Fg0ufi+s3bfW9XmTceu4A9NW7rEoCj&#xA;xNT3xV6HirsVdirsVdirsVdiqS+c/N2j+UPLN/5i1iT07Gwj5sBTm7E0SNAeruxCjFXx7+XPlTzB&#xA;+fX5rXvmfzIGXQbWRZdQALemI1/uLCE7dQPiI7VY/Ewqq+2be3gt4I7e3jWKCFVjiiQBVVFFFVQN&#xA;gABtiq/FXYq7FXwt/wA5NeRPOPlf8ybnzXc3Mt1Y6zc/WdM1aOqNDIm8dsxX7DwIg4H9pRUbhgFX&#xA;0B/zjp+fEHn7SRomtSrH5u0+OstaKLyFaD10AAAcf7sUfMbGgVTn/nJLyV/iv8ptWiiTnfaSBqll&#xA;TrytgTKB48oGkAHjTFXkX/OE/nXjLrnky4k2cDVNPUkfaHGG4UV8R6ZA9icVfVpAYEEVB2IPQjFX&#xA;58/85CflefIHn+4t7SPjoOqcrzSCPspGzfvIP+eLniP8nie+Kvqb/nGD8tv8HflzBe3kXDWvMPC+&#xA;vOQoyQlf9GhP+qjciD0ZiMVewYq+T/8AnHAf4V/5yB86eTyDHbyi7jtk8fqlyGhNPAwOxxV9YYq+&#xA;Y/8AnKr8ydQ1TULP8p/K3K41HUJYf0ssJFWeRgbe09uRKyP0249q4q9p/KT8t9P/AC98k2egW/GS&#xA;7p6+p3ainrXTgeo3QHiKBUr+yBirM8VdirH/AMw9M/SvkLzJpvHk15pl5Cg6nk8DhSNm3B6bYq/O&#xA;Pyh5p1Lyp5lsPMOmCNr/AE6T1bdZQWjLcStGClSRRvHFWSKv5rfnJ5q/4+tf1M9SaJbW0bH/AGMM&#xA;Ee3tU+JxV9bfkb/zjtov5dxrq2pSJqfmyRCrXYB9G2VhRktgwDVPRpDuRsAoqCq9ixV2KuxV2Kux&#xA;V2KuxV2KvjL86POus/nP+Zdj5B8nt6+i2VwY4JVJMM06gie8kK1HpRLyCHf4akfbpir6q/L3yJov&#xA;kbypZeXNJX9xarWa4IAeedt5JpKftMfuFANgMVZHirsVdirxX84P+cg7TyH+YXlvy8vGSydvX8zM&#xA;ByaK2mBjhC0rRlNZWHWgUftYq9Q80eWPL3nHy1c6Nq0SXmlahGPiUg0qKpLE+9GX7SsMVfBP5g+R&#xA;POH5O+fYPRuJIngk+taFrUQKrKinY7inNa8ZE3+lSKqvsT8kfzj0j8zfLJ9ZY4PMFmgj1nTTQq1R&#xA;T1olNawyeB+yfhPYlV8oD1vyb/5yF/aSw0rUd+vx6Zdj7mP1eX/gh7Yq++kdHRXRgyMAVYGoIO4I&#xA;IxVjHn38uPLPni302DXYPVXS72K+t6U3MZ+OJq9Y5V+Fx/TFWUAACg2A6DFXYq+UPOpHlH/nMjRd&#xA;Ur6cOuNaFh0Wl7E2nNX25oW+eKvevzg/Mqx/L3yRea7NxkvmH1fSrVv93XTg8ARUfCtC7/5IPemK&#xA;vGv+cU/y2v7+8vPzW8z8rjUtSkm/RLTD4mMjH6xdn3ckonty8Rir6axV2KuxVplVlKsAysKMp3BB&#xA;7HFXyZ+Xf/OG17cahJe+d7o2mmRzN9X0q1dWuJo1Y8TNMKrGrADZatv1U4q+oPLflfy95Z0uPStA&#xA;0+HTrCL7MEC0qf5nY1Z2PdmJJxVNMVdirsVdirsVdirsVdir58/5yr/OVvL2jnyPoM3+5/WI6ahJ&#xA;Hu1vZyVXgKdJZ+g7hKnaqnFU+/5xs/JdPIXlr9K6tCB5r1iNWu+Qq1tAfiS2B7N0aT/K234g4q9l&#xA;xV2KuxVKvNfmTTfLHlvUdf1J+FlpsD3Evi3EfCi1/adqKvucVfnDqms3nnbz1Jqet3qW0+uXy/Wr&#xA;2UkxW6SuEqe/pwpQAfyrir9JdC0iy0bRNP0ixqLLTreK1tuR5N6cKBEqe5ouKpH+ZX5ceX/zA8sT&#xA;6FrCU5fHZ3qqDLbTgfDLGT9zD9obYq+Erm38/fkv+ZAFfqms6Y4aOReRtru2c/7H1IZQKEdQdtmX&#xA;ZVm//OQmtaD+YPl3y7+ZuiqIrhh+h/MNiSDJb3KhpoA1PtKw9Xg9N1A71AVfSH/ONvnX/Ff5TaTL&#xA;K/O+0kHS72vXlbACInx5QNGSfGuKvUMVdirsVfI//OVl6uq/m/5T0Xy6vr+abNIo2C7hZp51ktYz&#xA;TcFftn/JYYq85/5yA/Ng+ffP5kjDSeWtHc2+m21TH6qBh60xqKq0xXbbZQu1a4qzix/5zQ16wsre&#xA;xsvKmnW9naxpDbQRyyqiRxqFRFHYACmKoqH/AJzg8xh6zeV7N0/lS4lQ1+ZV/wBWKoj/AKHj1X/q&#xA;UYP+k1/+qOKu/wCh49V/6lGD/pNf/qjiqtB/znLcKp9fyYkjV2KaiUFPkbZ8VVP+h5/+/J/7mn/Z&#xA;nirv+h5/+/J/7mn/AGZ4qiU/5zj04oC/lCZXp8QW+VgD7EwLX7sVXf8AQ8elf9SjP/0mp/1RxVtf&#xA;+c4tI5Dl5SuAtfiIvEJA9h6IxVFf9DveVv8AqWr7/kdDirv+h3vK3/UtX3/I6HFVSD/nN3ycXIn8&#xA;u6jGlNikkDmvyLJ+vFVb/odryD/1YtV+62/6q4qo3v8Azm35NFnObHQNRa9EbfVVn9BYjLxPD1Cs&#xA;jMF5daCtMVY3/wA4zfl9d+e/Neofmt5umXUHhvHNpG9G534CuZWQbIkCuvprTbalAoxV9aYq7FXY&#xA;q7FWFfnH5Cfz1+Xeq+XoJDFezIs1i3LipuIGEkaP24Oy8TXpWvUDFXwrqf5SecNM/L2HzxeWrQ6d&#xA;JfS2EsDqyyxemeCyuOyNMrx79GX/AChir60/5xY/NL/F3kZdE1Cbnrvl1Ut5Cxq0tpSkEu/UqB6b&#xA;fIE/axV7Xirz386Pyf0f8yvLLWc3G21uzDPpGpEbxyHrG9NzFJSjDt1G4xV8DazYeZPK2oar5a1J&#xA;JLG5DC31OyanFjE4kQ9wRUBkdeoOxocVfQP/ADhFqesLr/mTTEhZ9GltYrmef9mK5jk4RL85Ed/+&#xA;AxV9dYq7FUp82eZdP8seWtS8wai3Gz023e4kFaFio+FF/wAp2oq+5xV80/8AOLflfUvOXnvXPzX8&#xA;wr6siTypYsw+E3k4rKyV/ZghYIo/yv8AJxVMv+ckf+cbhqQuvOnku1pqI5Taxo8K/wC9Hdp4FH+7&#xA;e7oPt9R8X2lXmf5D/ll+Tn5hq2j61qOraZ5ti5OttFcWqwXMY35QCS2dgyD7aFif2htXiq9rg/5w&#xA;v/KiMkvfazMD0D3FsAP+AtkxVW/6E2/KP/f2q/8ASTF/1RxVfD/zhz+UKOGZtTlA/Ye6QA/8DEp/&#xA;HFUR/wBChfk3/wAs19/0lt/TFW1/5xE/JoMCbW+YA1Km7eh9jQA4qiv+hT/yS/6tE/8A0mXP/NeK&#xA;u/6FP/JL/q0T/wDSZc/814qih/zi3+RQAB8tVI7m+1Cp+64xV3/Qrn5E/wDUs/8AT9qH/ZRiqIi/&#xA;5xq/JCKMIvleIqOhe4u3O5ruzTE4qv8A+hbvyS/6laD/AJHXP/VXFVaD/nHn8l4VKp5UtCCa/GZZ&#xA;D97uxxVV/wCVA/k1/wBSnY/8C3/NWKuP5B/k76UsY8qWCiZGjZuBLAMKVQkniw7Eb4q+evy61vUf&#xA;yG/Oa98m6/M3+FNXkRVupKBAjki0vamgFK+nNTYb9eAxV9iYq7FXYqkfnjzdpnk/ynqXmTUj/oun&#xA;QmTgDQySEhY4l/ypHYKPnirxn/nFz87dQ84/pby95juBLrcU0uo2MpNPUt55C0sSg/74kf4RX7BA&#xA;Gy4q9u8y+W9K8x+XtQ0DVIvU0/UoXguEFAQH35qezq3xKex3xV8G+X9S8wfkh+crJeBm/RdwbbUY&#xA;0FBdWEpB5ID2ePjIlf2qYq+/tO1Cy1GwttQsZluLK8iSe2nT7LxSKGRh7FTXFURiryD/AJyE/Iy1&#xA;/MPRf0lpaJD5t06M/U5T8IuYlq31WQkgCpPwMfsn2JxVNv8AnH/8tT5C/LuzsbuIR63qB+u6v0LL&#xA;NIBxiqP99IAvWnKpHXFXpOKuxV8wf85b+dL7VtV0X8rNBJmvb+aGbUIkP2pJW4WkBp7n1GB/yDir&#xA;378vvJth5M8naX5bsqGPT4QksoFPVmb4ppT/AK8jFvwxVkOKvmz/AJyC/wCcfbx7x/zC/L1Htddt&#xA;X+t6hp9pVHkdDy+tWvHcTA7so+11HxfaVZf/AM4//n7YfmBpyaNrDpa+cLOP9/EaKt2iDeeEbfF3&#xA;kQdOo26KvZMVdirsVQurXFzbaVe3NqqvcwwSyQI/2WkRCVDbrsSPHFXjX5ef85Z/l55l9O010ny1&#xA;qjUFLpudo7H+W5AAX/noqj3OKvbIZoZ4kmhkWWGRQ0ciEMrKRUFSNiDiq/FXYq7FXYq7FXYq7FXj&#xA;3/OTH5S/468lNf6bDz8x6Er3FiFHxTw0rNb7CpLBeSD+YU/aOKpP/wA4p/m9/iryx/hTVpuWv6DE&#xA;ogd/tXFitER692hqEb24nck4q95xV2KvkP8A5zJ/MwX2rWnkLT5a2+mlbvWCp2a5dP3MW3++43LH&#xA;3Yd1xVl3/OHX5aNpXl66876hDxvdaH1fTOQ+JbKNqu48PWlX7kB74q+jsVfOv/OX/wCVv6Z8uRed&#xA;9Nh5aloi+nqaoPiksWbZzQVJgc1/1SxPTFUF/wA4d/ml9f0m48g6nNW704Nc6Mznd7VmrLCD4xO3&#xA;Jf8AJbwXFX0virsVdirsVSvzR5i0/wAt+XNS17UG42emW8lzNuAWEa1CLX9pz8K+5xV8yf8AOMXl&#xA;vUvPP5i65+a/mFPU9CeRbKu6G8nX4uFf2beBgqjtyWnTFX1firsVdir5u/P78gb9b9vzF/LpXtPM&#xA;Fo/1u/sLSqvI6nkbm2C/7t7ug+31HxVDKsu/IH8/rD8wbBdI1dktPOFon7+DZUu0UbzQj+b+dO3U&#xA;bdFXseKuxV2KvzO/wlNc/mG3lCGSO2uJdVbSoZJuQjSQ3BgTnxDsF5Uqd8VegQXn58/kNqSLMk1t&#xA;pLyGkEh+taVcHqeJU8UduvwlJPHFX1P+Tn56eV/zKsWjtx+j/MFsnO90iVuTBenqwvQepHU06VXu&#xA;OhKr0rFXYq7FXYq7FXYq7FXxt+e3lLWPyj/NWw/MTyqvo6bqFwbhEUUijujU3Nq4B/u50LMBtsWA&#xA;+zir6s8j+cdJ85eVdP8AMelPW0v4g5jJq0Ug2kif/KjcFT942xVU86eYx5a8pav5gNu91+i7SW6F&#xA;vGCWcxoWA26D+Y9hvir89/Jnl/WfzP8AzOtdPuZy97rt49xqV0SAVjq01zIK7VCBuK/IYq/RnTtP&#xA;s9N0+206xiWCys4kgtoV+ykcahEUfJRirDJvzf8ALcX5sRflw5/3Iy2f1j6zyHAXBHqLakfzmH95&#xA;9w6nFWb3Vtb3dtLa3MSzW06NFPC4DI6OOLKwOxBBocVfAHnvy9rv5K/nCk2lsyRWU66hoczEkS2c&#xA;hI9Nz3+HlDJ47+IxV7f+W3/OUX+Jvzjm0u9X6n5Y1mKG00SKXiGhu4wSC7A0JuHdk+fpjxxV9KYq&#xA;7FXYq+ZP+cufO19qN3o35W6DWfUNTmhn1CGM7szvwtLc/wCs/wC8IPghxV7v+XHkmx8k+S9K8tWl&#xA;GFjCBcTAU9W4f45pfH4pCSK9BQdsVZJirsVdirsVfN35/fkDfrft+Yv5dK9p5gtH+t39haVV5HU8&#xA;jc2wX/dvd0H2+o+KoZVl35A/n9YfmDYLpGrslp5wtE/fwbKl2ijeaEfzfzp26jboq9jxV2Kvz3/N&#xA;9T5a/P7XbpQVa11hdSAHWsrJd1HTrzxV9+6npmlazps1hqNvFfaddpwmt5VEkciMO4O3yxV8SfnX&#xA;+WGsfk153sPMnlO4mt9HuJTLpF0GLPbTru9tIxryXifh5fbSoNaNir6y/KH8ybH8w/JFnr8AWK8H&#xA;+j6par/um7jA9RR1+FgwdP8AJI74qzQkAVOwHU4qshngnT1IZFlTpyQhhUe4xVfirsVdirsVY5+Y&#xA;fkfSvO/lHUPLmpCkV5H+4npVoZ13imX3RvvFR3xV8pfkD5/1T8qvzHv/ACB5sP1bS7y6+rXPM/Bb&#xA;XoosVwp6enMvFWbpTi1aDFX2dLFFLE8UqLJFIpWSNgGVlYUIIOxBGKvgP81fKOr/AJO/m4l1orND&#xA;axzLqfl6c1I9EtUwtvv6bco2BPxLuftYq+wU/OHy4/5Rt+ZAYfUVszO1tyHIXQPp/Va/zev+7r9P&#xA;TFXxL5Kg83/mF+b9jcWl08XmDU9R+vy6glf9H4P6zzL1oIlX4R7BcVfovir5x/5zVHlf/B+im7H/&#xA;ADsZu2GlFKcvQCj6zzr/ALr/ALv/AGVPfFXlP/OJ/wCW3+KPP4169i56R5a4XJ5D4XvGJ+rJ/sCp&#xA;k/2I8cVfcmKuxVLfMvmDTvLvl/UNd1J+FjpsD3M5HUrGteKjuzHZR3OKvl//AJxq8val+YP5n65+&#xA;a3mBOaWs7/U1O6fXJloqpXqttbkKPCqntir6yxV2KuxV2KuxV2Kvm78/vyBv1v2/MX8ule08wWj/&#xA;AFu/sLSqvI6nkbm2C/7t7ug+31HxVDKsu/IH8/rD8wbBdI1dktPOFon7+DZUu0UbzQj+b+dO3Ubd&#xA;FXseKvhb/nL3TPqf5yXFxxp+krG0uq+PFTb16D/lnp3xV9k/l7qn6W8heXNTLcmvNMs53P8AlPAj&#xA;MDudw3virGf+chfLFt5h/KDzHBKoMthavqds56pJZAzEr7tGrJ9OKvnj/nC/zZNY+e9R8tyOfqms&#xA;2hmjT/l5tDyUjwrE8lfkMVQn/OWf5ma/qfn678oQXUlvoOjLFG9rGxRJ55IlleSUCnPj6gRQdhSo&#xA;6nFXnvlPyH+ciWEfmfyrpOsRWxBaDUNPWVHdVNCY/TIkcV/lBxV6x+W3/OXXmnRLyPR/zBtm1G0j&#xA;b0pb9Y/Sv4CNv3sfwrLx77K3ux2xV9ZeX/MOi+YdIttY0W7jvtNu15wXERqpHQg91ZTsyncHY4qm&#xA;GKuxV2Kvm3/nL38pTqukJ5+0mGuoaWgi1mNBvJZg/DNQdWhJ+L/INeiYqyH/AJxb/OH/ABj5X/w7&#xA;q8/PzJoUarzc1e5sxRY5t9y0eySf7Ek1bFU//wCci/yuHn3yBOtnFz1/R+d5pJA+JyF/e24/4zKu&#xA;3+UFxV8KL5r19PK0vlQXTjQ5LxdQez7fWEjMXLx3U7jxAPbFX1f/AM4dflo2leXrrzvqEPG91ofV&#xA;9M5D4lso2q7jw9aVfuQHvir6OxV4f/zlV+VVx5w8nw65pMDT69oBZ0giUs89pIR6saqBVmQgOvsG&#xA;HU4qzj8l/wAvIfIX5faboZVRqLL9Z1aRafHdzAGTcdQm0anwUYqzjFXYq+aP+cu/PN5dNpH5Y6Fy&#xA;n1HV5Yp9QhjPxMGk42lv/wA9JfjI/wAlfHFXt/5ZeRrPyP5I0vy3bcWa0iBu5lH97cyfFNJ47uTx&#xA;r0Wg7YqyjFXYq7FXYq7FXYq7FXzd+f35A3637fmL+XSvaeYLR/rd/YWlVeR1PI3NsF/3b3dB9vqP&#xA;iqGVZd+QP5/WH5g2C6Rq7JaecLRP38Gypdoo3mhH8386duo26Kse/wCcnvyL82ee9Q0/zD5ZEFzd&#xA;WFobS4sJHEUsiiRpEMTPSM0MjbMwxV455K/P382Pyqmj8ta9YvdabZUQaPqcbwTwxg9IJqcgv8vI&#xA;OtOgxV6B56/5zC8ra35C1XSNL0fULfWtUtJbOs/o/V4hcIY3cSpIZGKqxK/uxviryz/nFeCeX88v&#xA;L7xqWSBL2SYjoqGymQE/7N1GKrP+co9LuLD87NeaUfu70W11Ax/aR7eNT9zoy/Rir7g8hGzPkby6&#xA;bIKLM6ZZm24fZ9M26FKe3HFWMfmz+SHk/wDMXT5DewLZ68iEWetQqBMrAfCstKerH/kt0/ZIxV8s&#xA;fl75283/AJEfmRdeX/MCMdJaVYtYslLPG0bU4Xlt0qeO42+JfhND0Vfctle2l9ZwXtnMtxaXMazW&#xA;88Z5I8bgMrKR1BBriqtirsVU7i3gubeW2uI1mt5kaOaFwGR0cUZWU7EEGhGKvhDz/wCXdf8AyL/O&#xA;GDUtDLCwWQ3miyOSUmtXPGW1lPfiCY270o21Rir7X8k+cNH84+V7DzFpD8rO/jD8D9uOQbSRPT9q&#xA;NwVP4bYq+Nf+cqvyu/wl55Ou6fFw0PzGz3CBRRYbsb3EW3QMW9RfmQPs4q+ofyC89aZ5w/LLSbmz&#xA;jjt7jTYk06+sohRYZbZAo4r2R04uvsadsVei4q7FXYq7FUv8w67p2gaFf63qUnpWGnQPc3D9+Ma8&#xA;qKO7HoB3OKvlz/nHHRNT/MX82db/ADV11Kw2UzmzU7p9bmTjHGpPVba3oPmUOKvrPFXYq7FXYq7F&#xA;XYq7FXYq7FXzd+f35A3637fmL+XSvaeYLR/rd/YWlVeR1PI3NsF/3b3dB9vqPiqGVZd+QP5/WH5g&#xA;2C6Rq7JaecLRP38Gypdoo3mhH8386duo26KvSvNPkzyr5rsPqHmLS7fU7Xfgs6VZCRQtHIKPG3uh&#xA;BxV4br//ADhT5Iu7lptF1q+0uJjU28qx3aKPBCfSen+szYqz/wDKD8hPKf5afWLuyll1HWrtBFPq&#xA;VwFUrFUMY4kXZFZlBO5J8cVebf8AOZn5czaho+n+eLCIvNpQ+p6qFFT9VkblDIfaOViD/r+2Kp1/&#xA;ziP+Zlrr3koeUbuYDWfLwIhjY/FLYs1Y3Xx9Jm9NqdBx8cVe94q+cP8AnM/yPbXnlXTvOMEYF9pU&#xA;62d3INi9rcV4cvH05qcf9c4qif8AnEjz3f6t+Wuq+X+Xral5aY/UA5JrBcq7wodiTxlRx7CgxV8p&#xA;WX+NfOHnCMW0tzqXmnUZWMbmTjO8gBdqOzLxoAe4AxV6poH54fnn+VWox6X5strq+sRt9Q1kSeoU&#xA;Xqba7NWNOg3dB4Yq+qvyw/Nzyh+Y2lNeaHOUu4Av1/TJ6LcQM38wGzIf2XXY+x2xVAfnr+VsH5ie&#xA;RrjTolUa3ZVutGnagpOo3iZuySr8J96Htir5n/5xg/NibyR5ul8o68zW+i6vP6TrMCv1TUB+7VmB&#xA;+yHoI5K9PhO1Dir6t/Nj8vrPz95G1Hy7PxS4lX1tOuGFfRu4wTE/y3Kt/kk4q+Pv+ce/zBvfy0/M&#xA;6TR9c5WmmajL+jNagkNBBcRuUimbt+6kJVj/ACsx8MVfeGKuxV2KuxV81/8AOX/nq5lt9J/LXRQZ&#xA;9S1mWKe+hj3dk9TjawU8ZZhyp/kr2OKvaPys8iWnkXyLpflyDi01tHzvpl/3bdSfFM9etORotf2Q&#xA;BirLMVdirsVdirsVdirsVdirsVdir5u/P78gb9b9vzF/LpXtPMFo/wBbv7C0qryOp5G5tgv+7e7o&#xA;Pt9R8VQyrLvyB/P6w/MGwXSNXZLTzhaJ+/g2VLtFG80I/m/nTt1G3RV7HirsVUL+xs9QsrixvYVu&#xA;LO6jeG5gkHJHjkUq6MO4INMVfEf5q/lN5x/JjzdD5s8pzz/oJJvU0/Uo6s9qzH/ea66gqQeNW+Fx&#xA;sd6jFXuP5W/85WeR/M1rDZ+Zpo/Luu0CyGduNlKf5o522jr/ACyEU8TirX/OUXn/AMnH8odT0iDV&#xA;bS81HV2tUsrW3mSZ2EdzHO0hEbEhFSI/Edq0HfFXjX/OIXmCPQ/Mvmy/ulkbTbHQZr+89IBm42ks&#xA;bUVdqtwZ6CuKpX+aeg6Xa6//AMrS/KvVY7vR2uFvrhLU8brS7tnDVmt2AdIZJD8JZeNTx6caqvcv&#xA;y3/Oz8u/zf0RfKfneztYdcmULJp9yP8AR7pxt6lpIxqkncLyDj9knrirw38x/KfmH8hfzRstU8tX&#xA;cn6Pnrc6TLIa+pCGAns7gCnMLUBvEFW2boq+0fJHmzT/ADd5T0vzJp9Ra6nAswjJqUepWSNiO8ci&#xA;sp9xir5X/wCcvfyl/RWsJ590mGmn6q4i1iNBtFd0+Gag7TAfFt9sb7tir1X/AJxf/OH/ABp5W/QG&#xA;rT8vMuhxqjs5q9zaD4Y599yy7JJ70P7WKvMv+cxfyt+o6pb+f9Mhpa6gVtdaVBslyq0hmNO0iLxY&#xA;/wAyju2KvX/+cYfzCvvOP5aQrqCyNqGhyDTZ7p6kTrGitE/I9XEbAP3rv3xV65irsVQOua1p+h6N&#xA;faxqUvo2GnwSXNzJ4JGpY0Hc7bDucVfLP/OPOk6l+Zf5w63+aOuRVtbCVntEb4lW5kXhBEleotoB&#xA;9B4nFX1pirsVdirsVdirsVdirsVdirsVdirsVfNf/OQf5DXsF435k/l6slprtnJ9b1GxtKq7sp5G&#xA;6twvSQdZFH2uv2q8lWY/kB+f+n/mFp66Rq7R2nm+0jrNCKKl2ijeaEfzfzp26jboq9jxV2KqV1a2&#xA;t3bS2t3ClxbTqY5oJVDxujCjKysCGBHUHFXzv+ZH/OHHl3VpJb/yVeDRLxyWOnXHKSyYn+Rhylh/&#xA;4ceAGKvEdQ/5xa/O60uhBHoK3iseKXFvdWpjPv8AvJI2Uf6yjFX0T+QX/OP0/kvy1rX+JXjk1rzF&#xA;AbO6hhPNLe1KsDGH6M7l6v22AHclV82/lbcj8u/zwtdP8yIgtre7n0fWElA9IxXAa3LuH2MVWWTf&#xA;quKvXfzl/wCcRubz67+XQCsSZJ/LztxFepNpIxoP+Mbmn8p6LirxLW/O/mjzFplh5I883bW8mi3L&#xA;i01LUIpWurVmX03t7k/3vpcgpJ4s606MKAKvrb/nGHy15p8seQbrRdfiQLFfvPpVzDKk9vPZ3EMU&#xA;iSQyIWBRnLMPn0xV6X5m8uaV5l8v3+g6tF62n6jC0E6d6N0ZT2ZGoynsRXFX5/3Efmz8lvzYIjYj&#xA;UNFuKxsarHd2j9K0r8E0R3/lP+UMVfcdvceU/wA1/wAtSy/v9D8w2hSRdvUifuD1AlglX/glxVFf&#xA;lt5F0/yL5M07y1ZESCzStzc8eJmuHPKWUjf7THYVNBQdsVZNirsVfN3/ADmD57nGnaX+XWkFpdT1&#xA;uWOe+hi3YwiTjbw0HUyzCtP8j3xV7D+UvkG28ieQtM8vRhTcwx+rqMy/7su5fimavcA/Cv8AkgYq&#xA;zDFXYq7FXYq7FXYq7FXYq7FXYq7FXYq7FXzJ+f8A+QGoWOoN+Y35crJaaraSfW9Q0+0qr81PI3Vq&#xA;F/a7ug69RvUFVnH5Afn/AKf+YWnrpGrtHaeb7SOs0IoqXaKN5oR/N/OnbqNuir2PFXYq7FXYq7FX&#xA;zn/zlF+Qt35lVvOvle29bW7eMLqthGPjuoYxRZYwBVpY1249WUADcAFVjX5G/wDOVVvpdjbeVvzA&#xA;Miw2iiCy10K0jKibLHdoKueI2Eign+YdWxVkn/OT/k7yR5t/LqX8xdDurSbUNL9LlqNo8bpdQSSJ&#xA;D6UjpXk6FwUruN174qhv+cMvzCvtR0jU/Jd/I0o0hVu9LdjUrbytxli/1UkIZf8AWPYDFX0tirw3&#xA;/nKn8pT5u8o/4j0uHn5g8vxtJxUVaeyFWli26tH/AHif7IDdsVeJ/wDOK35vHyn5o/wvq0/Dy9rs&#xA;gWN3NFt70gLHJU9Fl2R/9iegOKvt7FXYqg9Z1aw0fSbzVtQlENjYQyXFzKf2Y4lLMfuGKvlb8gtM&#xA;v/zR/OjWvzN1uImx0yX1bKN91W4ccLWIV6/V4V5bftcT3xV9a4q7FXYq7FXYq7FXYq7FXYq7FXYq&#xA;7FXYq7FXYq+Zfz8/5x+1K01I/mJ+W6SW2r20n1q/02zqsnqKeRubVV3513eMfa6jeoKqWaP/AM5m&#xA;6/pSRWHnDymzXsSKs9zFK1rIzLszm3liIBbrswGKs90X/nML8ob+gvW1DSG2DG6tvUUfI2zTsR/s&#xA;cVegaJ+cX5Wa3Qad5p02SRtlhkuEglPyjmMbn7sVZdFLFLGskTrJGwqrqQVI8QRiq7FXYq8j/Nb/&#xA;AJxp8jefJZdSgB0PzDJUtqFqgMcreNxBVVc/5SlW8ScVfNfmn/nFf84tBlkjsbJNbsGI/f6fMvxA&#xA;Gq84ZTHJX5KQPHFXrX/OKP5Mec/Ket6p5n8zWbaYZ7Q6fZ2crKZXDyxyySMqluABhUCu532p1VfS&#xA;2KuIBFDuD1GKvgz/AJyX/Kb/AAL51a+06Hh5b11nuLEKPghmrWa322AUnkg/lNP2Tir6J/5xi/OH&#xA;/G3lT9CarPz8zaFGqTsx+K4tR8MU++5YfYk96E/axV7Vir5x/wCcwvPs0Gjab+X+lM0mp67Ik97D&#xA;Fu5tkfjDFQb/AL6cbU/k98Vetfk/+X0HkLyBpnl8Bfrqp9Y1SVd+d3MAZTUdQuyKf5VGKs0xV2Ku&#xA;xV2KuxV2KuxV2KuxV2KuxV2KuxV2KuxV2Koe+07T9QgNvf2sN3A32op41kQ/NXBGKsH1v8gfyd1k&#xA;N9b8q2UTP1ezVrI18f8ARmi/z64qwDW/+cMPy0vC76XqGpaXIfsp6kdxCv8AsZEEh/5GYqxCX/nE&#xA;T8yNBkaXyZ53WNweSVa505vH7Vu1xv8A57YqtNl/zmj5T/up5NbtENW+O0v+VO370C5+7FWx/wA5&#xA;UfnJ5aPDzn5HVURqM7Q3enMR/ryidN+xC0xVk+if85reQrkKusaNqOnSN1aH0rqJfm3KF/uTFWf6&#xA;J/zkb+S+r8Vh8zW9tI2xS9WW04n3edEj+5qYqzzS9c0TV4fW0rULbUIf9+Ws0cy/fGWGKo3FXYqx&#xA;L81Py907z/5KvvLt3xjmlX1dPuiK+hdR1MUnQmlfhanVSRir4E8t695p/LH8wI75I2ttY0S5aG9s&#xA;pCQsiqeE0ElOqutRUezDtir9BdD8/wDlnWPI8fnS3ulXQ2tXvJpm6wrEpMySAdGiKsrDxGKvmz8i&#xA;9OvPzX/O7WPzK1mI/o7SJRNYwPuqzGqWcQ7fuIk5kj9sKe+KvrbFXYq7FXYq7FXYq7FXYq7FXYq7&#xA;FXYq7FXYq7FXYq7FXYq7FXYq7FXYq4gMCCKg7EHoRirF9b/K78uNc5HVfLWm3UjGrTNbRLLU/wDF&#xA;qhZPxxVgGt/84j/k3qPI2tneaS7EmtldORU/5NyLgD6MVYJqn/OE3oS/WfLnm6W3mjJMK3Vv8QPb&#xA;9/DIhH0R4qgR+VH/ADlv5VoNB8zNqsMf91DHf+qoHh6WoqkY+WKuH5zf85V+VqDzB5TOpQptLcSa&#xA;fIRtv/fWTLCD9GKpjo//ADm7YB/R8weVZ7Z0NJHs7hZTXv8Aupkhp8ueKvLP+chPOn5ZefNQs/Nf&#xA;lZ7i11uVRb6vp91B6bSKi/upucbSR8lA4N8W4406YqwfRfP/AJus/JupeRdPmZ9J124gkltlBZ/U&#xA;Q7pFTp6xCBx34geOKvvL8mPy8i8hfl9puhFV/SDL9a1WRaHldzAGTcdQlBGp8FGKs4xV2KuxV2Ku&#xA;xV2KuxV2KuxV2KuxV2KuxV2KuxV2KuxV2KuxV2KuxV2KuxV2KuxV2KuxV2Ksc83f8q69Ef4w/Q/o&#xA;0PH9L/VePHvT6xtTFXgnnX/oS34/X+r/AFqh4/oT65+Hof6N/wAFirBvyv8A+VAf8rh8tfoP9Oen&#xA;9aP1f9MfVfq/1r02+r09H4/77hxr+1TFX2virsVdirsVdirsVdir/9k=</xmpGImg:image>
               </rdf:li>
            </rdf:Alt>
         </xmp:Thumbnails>
         <xmpTPg:MaxPageSize rdf:parseType="Resource">
            <stDim:w>541.400024</stDim:w>
            <stDim:h>531.799988</stDim:h>
            <stDim:unit>Pixels</stDim:unit>
         </xmpTPg:MaxPageSize>
         <xmpTPg:NPages>1</xmpTPg:NPages>
         <xmpTPg:HasVisibleTransparency>False</xmpTPg:HasVisibleTransparency>
         <xmpTPg:HasVisibleOverprint>False</xmpTPg:HasVisibleOverprint>
         <xmpTPg:PlateNames>
            <rdf:Seq>
               <rdf:li>Cyan</rdf:li>
               <rdf:li>Magenta</rdf:li>
               <rdf:li>Yellow</rdf:li>
               <rdf:li>Black</rdf:li>
            </rdf:Seq>
         </xmpTPg:PlateNames>
         <xmpTPg:SwatchGroups>
            <rdf:Seq>
               <rdf:li rdf:parseType="Resource">
                  <xmpG:groupName>Default Swatch Group</xmpG:groupName>
                  <xmpG:groupType>0</xmpG:groupType>
               </rdf:li>
            </rdf:Seq>
         </xmpTPg:SwatchGroups>
         <dc:format>image/svg+xml</dc:format>
      </rdf:Description>
   </rdf:RDF>
</x:xmpmeta>
                                                                                                    
                                                                                                    
                                                                                                    
                                                                                                    
                                                                                                    
                                                                                                    
                                                                                                    
                                                                                                    
                                                                                                    
                                                                                                    
                                                                                                    
                                                                                                    
                                                                                                    
                                                                                                    
                                                                                                    
                                                                                                    
                                                                                                    
                                                                                                    
                                                                                                    
                                                                                                    
                           
<?xpacket end="w"?>
	</metadata>
<title>T_dice_03</title>
<g id="Layer_2_1_">
	<g id="T_dice_03">
		<polygon class="st0" points="7.2,299.1 158.6,61.3 477.6,5.6 270.6,302.2 		"/>
		<path d="M468.9,11.1l-200.4,287l-254.1-2.9L161,64.9L468.9,11.1 M486.4,0L156.2,57.7L0,303l272.6,3.1L486.4,0z"/>
		<polygon class="st0" points="270,302.6 484.2,9.7 537.3,279.6 416.9,523.8 		"/>
		<path d="M482.1,19.4l51,259.7L416.4,515.9L274.9,302.7L482.1,19.4 M486.4,0L265.1,302.5l152.3,229.3l124-251.6L486.4,0z"/>
		<polygon class="st0" points="186.9,485 9.5,306.9 271.3,303.1 409.3,526.3 		"/>
		<path d="M269.1,307.1l132.1,213.5l-212.3-39.4l-170-170.5L269.1,307.1 M273.4,299.1L0,303l185,185.6l232.5,43.2L273.4,299.1
			L273.4,299.1z"/>
		<g class="st1">
			<path d="M130.2,265.7l-25.7,15l-10.7-81.3l24.2-14.2c13.3-7.8,24.2-9.7,31.5-6.3c7.3,3.6,11.7,11.5,13.3,23.8
				C166.2,228.5,155,251.2,130.2,265.7z M119.5,195.4l-13.5,7.9l8,61l14.5-8.5c16.7-9.8,25.2-26.8,22.7-45.6
				C148.6,190.5,137.6,184.8,119.5,195.4z"/>
		</g>
		<g class="st1">
			<path class="st2" d="M130.2,265.7l-25.7,15l-10.7-81.3l24.2-14.2c13.3-7.8,24.2-9.7,31.5-6.3c7.3,3.6,11.7,11.5,13.3,23.8
				C166.2,228.5,155,251.2,130.2,265.7z M119.5,195.4l-13.5,7.9l8,61l14.5-8.5c16.7-9.8,25.2-26.8,22.7-45.6
				C148.6,190.5,137.6,184.8,119.5,195.4z"/>
		</g>
		<g class="st1">
			<path d="M192,191.2l4.7,35.6l-11,6.4L175.1,152l31.8-18.6c16.7-9.8,28.1-5.9,30,8.4c1.1,8.1-1.9,17.4-8,22.8
				c5.9-2.2,11,0.5,11.9,7.7l3.5,26.7l-10.8,6.3l-3.4-26.3c-0.5-3.5-2.9-5-6.6-4.2c-3.8,0.8-7.9,2.6-13.4,5.8L192,191.2z
				 M205.6,144.2L187.2,155l3.6,27.1l19.8-11.6c13.2-7.7,16.6-13.2,15.4-22.2C224.4,137,219.1,136.3,205.6,144.2z"/>
		</g>
		<g class="st1">
			<path class="st2" d="M192,191.2l4.7,35.6l-11,6.4L175.1,152l31.8-18.6c16.7-9.8,28.1-5.9,30,8.4c1.1,8.1-1.9,17.4-8,22.8
				c5.9-2.2,11,0.5,11.9,7.7l3.5,26.7l-10.8,6.3l-3.4-26.3c-0.5-3.5-2.9-5-6.6-4.2c-3.8,0.8-7.9,2.6-13.4,5.8L192,191.2z
				 M205.6,144.2L187.2,155l3.6,27.1l19.8-11.6c13.2-7.7,16.6-13.2,15.4-22.2C224.4,137,219.1,136.3,205.6,144.2z"/>
		</g>
		<g class="st1">
			<path d="M317.4,146.2l1.2,9.2l-53.2,31.1l-10.7-81.2l53.3-31l1.2,9.2l-42.4,24.8l3.3,25.4l42.3-24.7l1.2,9.2l-42.3,24.7L275,171
				L317.4,146.2z"/>
		</g>
		<g class="st1">
			<path class="st2" d="M317.4,146.2l1.2,9.2l-53.2,31.1l-10.7-81.2l53.3-31l1.2,9.2l-42.4,24.8l3.3,25.4l42.3-24.7l1.2,9.2
				l-42.3,24.7L275,171L317.4,146.2z"/>
		</g>
		<g class="st1">
			<path d="M371.8,124.4l-35.7,20.9l-1.2-9.1l12.4-7.3L339,66l-12.4,7.3l-1.2-9.1l35.7-20.9l1.2,9.1L350,59.6l8.3,62.9l12.3-7.2
				L371.8,124.4z"/>
		</g>
		<g class="st1">
			<path class="st2" d="M371.8,124.4l-35.7,20.9l-1.2-9.1l12.4-7.3L339,66l-12.4,7.3l-1.2-9.1l35.7-20.9l1.2,9.1L350,59.6l8.3,62.9
				l12.3-7.2L371.8,124.4z"/>
		</g>
		<g class="st1">
			<path d="M150.5,407.3L128,396.8l-8.5-65l21.2,9.9c11.6,5.4,21.1,12.9,27.4,21.3c6.3,8.4,10.1,17.5,11.4,27.3
				C182.2,410.8,172.2,417.4,150.5,407.3z M141.8,349.8l-11.8-5.5l6.4,48.8l12.7,5.9c14.6,6.8,22.1,1.9,20.2-13.1
				C167.2,370.2,157.7,357.2,141.8,349.8z"/>
		</g>
		<g class="st1">
			<path class="st3" d="M150.5,407.3L128,396.8l-8.5-65l21.2,9.9c11.6,5.4,21.1,12.9,27.4,21.3c6.3,8.4,10.1,17.5,11.4,27.3
				C182.2,410.8,172.2,417.4,150.5,407.3z M141.8,349.8l-11.8-5.5l6.4,48.8l12.7,5.9c14.6,6.8,22.1,1.9,20.2-13.1
				C167.2,370.2,157.7,357.2,141.8,349.8z"/>
		</g>
		<g class="st1">
			<path d="M192.1,395.9c-2.7-20.8,8.8-27.4,30.4-17.4c21.5,10,36.4,28.9,39.1,49.7c2.8,21.5-8.2,28.2-30.2,17.9
				C209.3,435.9,194.9,417.4,192.1,395.9z M202.2,401.2c2,15.4,13.2,29.8,28.1,36.9c14.8,6.8,23.4,1.6,21.4-13.8
				c-2.1-16.3-12.6-30.2-28.1-37.6C208.1,379.6,200.1,384.9,202.2,401.2z"/>
		</g>
		<g class="st1">
			<path class="st3" d="M192.1,395.9c-2.7-20.8,8.8-27.4,30.4-17.4c21.5,10,36.4,28.9,39.1,49.7c2.8,21.5-8.2,28.2-30.2,17.9
				C209.3,435.9,194.9,417.4,192.1,395.9z M202.2,401.2c2,15.4,13.2,29.8,28.1,36.9c14.8,6.8,23.4,1.6,21.4-13.8
				c-2.1-16.3-12.6-30.2-28.1-37.6C208.1,379.6,200.1,384.9,202.2,401.2z"/>
		</g>
		<g class="st1">
			<path d="M270.8,437.2l9.4,4.4c2.5,15.1,9.4,24.5,24.7,31.6c6.6,3.1,11,3.9,13,2.7c2-1.2,2.5-3.2,2.1-6.3
				c-0.8-6.5-5.9-12.2-18.7-20.5c-18.4-11.9-27.9-21.9-29.2-31.7c-1.3-10,7.2-12.3,23-4.9c18.5,8.6,28.8,20.7,30.8,36.4
				c0.1,0.6,0.2,1.1,0.2,1.7l-9.4-4.4l-0.1-0.6c-0.5-4.1-1.7-8-3.3-11c-1.6-3-4-5.8-6.1-7.7c-2.2-1.9-5.5-3.9-7.8-5.2
				c-1.2-0.6-2.5-1.3-4.1-2c-9.3-4.3-14.3-3.3-13.6,2.1c0.3,2.3,1.7,4.8,4,7.2c2.3,2.4,4.6,4.5,7.9,6.9s5.2,3.7,8.4,5.8
				c0.2,0.1,0.3,0.2,0.4,0.2l0.7,0.5c5.3,3.4,9.2,6.2,13.9,10.4c4.7,4.2,7.8,8,10.3,13c1.2,2.5,2,5.1,2.3,7.6c0.6,4.5,0.2,7.7-2,10
				s-5.8,2.8-12.2,1.1c-3.3-0.9-7-2.3-11.4-4.3c-8.8-4.1-16.1-9.5-21-15.1c-5-5.6-8.6-12.1-10.4-18.3c-0.7-2.3-1.2-4.8-1.5-7.2
				C271,438.8,270.9,438,270.8,437.2z"/>
		</g>
		<g class="st1">
			<path class="st3" d="M270.8,437.2l9.4,4.4c2.5,15.1,9.4,24.5,24.7,31.6c6.6,3.1,11,3.9,13,2.7c2-1.2,2.5-3.2,2.1-6.3
				c-0.8-6.5-5.9-12.2-18.7-20.5c-18.4-11.9-27.9-21.9-29.2-31.7c-1.3-10,7.2-12.3,23-4.9c18.5,8.6,28.8,20.7,30.8,36.4
				c0.1,0.6,0.2,1.1,0.2,1.7l-9.4-4.4l-0.1-0.6c-0.5-4.1-1.7-8-3.3-11c-1.6-3-4-5.8-6.1-7.7c-2.2-1.9-5.5-3.9-7.8-5.2
				c-1.2-0.6-2.5-1.3-4.1-2c-9.3-4.3-14.3-3.3-13.6,2.1c0.3,2.3,1.7,4.8,4,7.2c2.3,2.4,4.6,4.5,7.9,6.9s5.2,3.7,8.4,5.8
				c0.2,0.1,0.3,0.2,0.4,0.2l0.7,0.5c5.3,3.4,9.2,6.2,13.9,10.4c4.7,4.2,7.8,8,10.3,13c1.2,2.5,2,5.1,2.3,7.6c0.6,4.5,0.2,7.7-2,10
				s-5.8,2.8-12.2,1.1c-3.3-0.9-7-2.3-11.4-4.3c-8.8-4.1-16.1-9.5-21-15.1c-5-5.6-8.6-12.1-10.4-18.3c-0.7-2.3-1.2-4.8-1.5-7.2
				C271,438.8,270.9,438,270.8,437.2z"/>
		</g>
		<g class="st1">
			<path d="M370.2,393.5l24.2,42.9L390,445l-52.7-93.5l21.2-41.1l6,10.6l-16.8,32.5l16.5,29.3l16.7-32.4l6,10.6L370.2,393.5z"/>
		</g>
		<g class="st1">
			<path class="st2" d="M370.2,393.5l24.2,42.9L390,445l-52.7-93.5l21.2-41.1l6,10.6l-16.8,32.5l16.5,29.3l16.7-32.4l6,10.6
				L370.2,393.5z"/>
		</g>
		<g class="st1">
			<path d="M436,355.7l-14.5,28.2l-5.9-10.5l5.1-9.8l-40.8-72.4l-5.1,9.8l-5.9-10.5l14.5-28.2l5.9,10.5l-5,9.7l40.8,72.4l5-9.7
				L436,355.7z"/>
		</g>
		<g class="st1">
			<path class="st2" d="M436,355.7l-14.5,28.2l-5.9-10.5l5.1-9.8l-40.8-72.4l-5.1,9.8l-5.9-10.5l14.5-28.2l5.9,10.5l-5,9.7
				l40.8,72.4l5-9.7L436,355.7z"/>
		</g>
		<g class="st1">
			<path d="M465.5,298.5l-8.5,16.4l-63.6-72.1l4.6-8.9l61.1,69.1l-39.9-110.2l4.6-9L465.5,298.5z"/>
		</g>
		<g class="st1">
			<path class="st2" d="M465.5,298.5l-8.5,16.4l-63.6-72.1l4.6-8.9l61.1,69.1l-39.9-110.2l4.6-9L465.5,298.5z"/>
		</g>
		<g class="st1">
			<path d="M502.5,204.5l6,10.6l-21.7,42.1l-52.6-93.4l21.7-42.1l6,10.6l-17.3,33.5L461,195l17.2-33.4l6,10.6L467,205.7l18.2,32.3
				L502.5,204.5z"/>
		</g>
		<g class="st1">
			<path class="st2" d="M502.5,204.5l6,10.6l-21.7,42.1l-52.6-93.4l21.7-42.1l6,10.6l-17.3,33.5L461,195l17.2-33.4l6,10.6L467,205.7
				l18.2,32.3L502.5,204.5z"/>
		</g>
	</g>
</g>
</svg>
