<svg xmlns="http://www.w3.org/2000/svg" viewBox="0 0 600 600"><title>T_dice_highlight</title><g id="Layer_2" data-name="Layer 2"><g id="T_dice_highlight"><polygon points="485.12 106.79 498.06 6.54 438.7 77.02 422.88 0 402.74 52.9 373.97 15.56 358.86 93.35 299.88 0 284.57 101.76 233.7 30.34 224.33 79.29 149.56 2.91 156.83 105.13 97.63 93.89 127.75 150.06 15.58 115.24 94.51 227.56 3.12 247.78 63.35 280.36 17.66 302.82 52.97 315.18 0 366.85 118.4 381.45 34.27 446.6 141.25 435.37 84.13 553.31 202.28 471.05 204.89 595.29 266.68 471.99 336.3 600 338.91 460.69 493.82 536 443.35 396.69 578.24 396.69 459.88 330.8 579.11 310.1 485.99 262.09 564.32 245.15 490.34 218.79 550.39 204.68 501.66 178.32 600 96.43 485.12 106.79"/><polygon points="10.75 26.99 48.35 6.66 82.06 73.26 10.75 26.99"/><polygon points="31.97 63.93 73.73 87.89 22.8 75.71 31.97 63.93"/></g></g></svg>