<svg xmlns="http://www.w3.org/2000/svg" viewBox="0 0 541.43 531.81"><defs><style>.cls-1{fill:#fff;}.cls-2,.cls-3,.cls-4{stroke:#fff;stroke-miterlimit:10;}.cls-2{stroke-width:1.78px;}.cls-3{stroke-width:2.81px;}.cls-4{stroke-width:1.55px;}</style></defs><title>T_dice_06</title><g id="Layer_2" data-name="Layer 2"><g id="T_dice_06"><polygon class="cls-1" points="7.21 299.15 158.61 61.28 477.62 5.57 270.56 302.16 7.21 299.15"/><path d="M468.87,11.15l-200.37,287L14.41,295.24,161,64.91,468.87,11.15M486.37,0,156.19,57.66,0,303.05l272.62,3.12L486.37,0Z"/><polygon class="cls-1" points="270.01 302.61 484.21 9.7 537.26 279.64 416.94 523.84 270.01 302.61"/><path d="M482.06,19.39l51,259.7L416.43,515.86,274.86,302.72,482.06,19.39M486.37,0,265.15,302.5l152.3,229.31,124-251.61L486.37,0Z"/><polygon class="cls-1" points="186.93 484.96 9.46 306.9 271.27 303.12 409.33 526.25 186.93 484.96"/><path d="M269.07,307.14,401.2,520.69,188.88,481.27l-170-170.53,250.15-3.6m4.4-8L0,303.05l185,185.6,232.46,43.16-144-232.7Z"/><ellipse cx="429.92" cy="286.58" rx="107.57" ry="63.32" transform="translate(104.22 687.68) rotate(-84.61)"/><ellipse class="cls-1" cx="431.11" cy="280.13" rx="51.44" ry="30.28" transform="translate(111.72 683.02) rotate(-84.61)"/><ellipse cx="430.46" cy="288.11" rx="6.91" ry="4.07" transform="translate(103.18 689.6) rotate(-84.61)"/><path class="cls-1" d="M397.5,370.47a40.59,40.59,0,0,0,12.82,9.47,28.77,28.77,0,0,0,15.48,2.31,35.72,35.72,0,0,0,14.66-5.49,57.26,57.26,0,0,0,12-10.36,74.16,74.16,0,0,0,4.95-6.22l1.18-1.61,1.1-1.66c.72-1.12,1.51-2.19,2.17-3.34a128.41,128.41,0,0,0,7.47-14.11c2.21-4.85,4.13-9.83,5.86-14.87s3.17-10.19,4.3-15.4c.64-2.59,1.11-5.22,1.62-7.83.28-1.31.43-2.63.64-3.95s.43-2.63.58-4c.27-2.66.66-5.3.79-8l.27-4,.11-4a126.72,126.72,0,0,0-3.06-31.73c-2.44-10.32-6.36-20.48-12.81-29a48.18,48.18,0,0,0-5.29-6,39.53,39.53,0,0,0-6.32-4.82,32.32,32.32,0,0,0-15.18-4.65,31.33,31.33,0,0,1,15.54,4,40.06,40.06,0,0,1,6.67,4.69,49.87,49.87,0,0,1,5.65,5.88,60.7,60.7,0,0,1,4.66,6.7,76.23,76.23,0,0,1,3.78,7.22,94.08,94.08,0,0,1,5.38,15.38,108.63,108.63,0,0,1,2.87,16,129.8,129.8,0,0,1,.74,16.25,152.22,152.22,0,0,1-3.94,32.25c-1.17,5.3-2.75,10.49-4.43,15.65-.93,2.54-1.78,5.12-2.83,7.62-.52,1.26-1,2.53-1.55,3.77l-1.67,3.71C467,350.36,461.4,359.8,454,367.83a59.27,59.27,0,0,1-12.6,10.42,37,37,0,0,1-15.44,5.35,29.74,29.74,0,0,1-15.93-3A38.82,38.82,0,0,1,397.5,370.47Z"/><path class="cls-1" d="M382.15,327.68c2,9.39,4.85,18.69,9.87,26.81a47.85,47.85,0,0,0,9,10.93,30.76,30.76,0,0,0,12.16,6.75,28.68,28.68,0,0,0,13.78.27A40.93,40.93,0,0,0,439.79,367a59.4,59.4,0,0,0,10.89-8.94c.8-.87,1.65-1.69,2.4-2.61l2.27-2.72c1.41-1.9,2.85-3.78,4.1-5.79.66-1,1.31-2,1.89-3s1.2-2,1.78-3.08c1.06-2.12,2.2-4.2,3.12-6.39.46-1.1,1-2.16,1.41-3.28l1.26-3.33.63-1.66.54-1.7,1.07-3.41a118.91,118.91,0,0,0,4.7-28.11,111.13,111.13,0,0,0-2.19-28.47,76.62,76.62,0,0,0-10.78-26.44l2.05,3,1,1.49.89,1.57,1.76,3.16,1.51,3.29c1.08,2.17,1.79,4.48,2.65,6.74.45,1.12.71,2.31,1.07,3.46s.71,2.32,1,3.49A112.05,112.05,0,0,1,477.71,293a114.26,114.26,0,0,1-4.35,28.68l-1.07,3.49-.54,1.74-.64,1.7-1.28,3.42c-.4,1.14-.95,2.23-1.42,3.35-.93,2.25-2.09,4.39-3.18,6.57-.59,1.07-1.21,2.11-1.82,3.17s-1.25,2.09-1.93,3.1c-1.29,2.07-2.79,4-4.25,6l-2.35,2.8c-.78.94-1.67,1.79-2.5,2.69A59.62,59.62,0,0,1,441,368.94a42.84,42.84,0,0,1-13.62,5.57,29.57,29.57,0,0,1-14.74-.55,32.55,32.55,0,0,1-12.66-7.4,48.54,48.54,0,0,1-9-11.47,68,68,0,0,1-5.67-13.33A89.58,89.58,0,0,1,382.15,327.68Z"/><path class="cls-1" d="M441.29,211.9a27.74,27.74,0,0,0-13.27-.5,33.18,33.18,0,0,0-12.09,5.34,50.72,50.72,0,0,0-9.82,8.92,74.3,74.3,0,0,0-7.58,10.94c-.6.94-1,2-1.58,2.94s-1.06,2-1.49,3c-.9,2-1.89,4-2.66,6.12s-1.55,4.17-2.3,6.27l-1,3.2c-.34,1.06-.64,2.13-.91,3.21-1.21,4.29-2.11,8.66-2.91,13-.33,2.21-.73,4.4-1,6.62-.13,1.11-.28,2.21-.38,3.32l-.27,3.33a119.87,119.87,0,0,0,.81,26.64c.4,2.18.69,4.4,1.23,6.55s1,4.32,1.68,6.44a69.9,69.9,0,0,0,5.05,12.27,47.54,47.54,0,0,0,7.71,10.73,32.82,32.82,0,0,0,10.78,7.5,26.89,26.89,0,0,0,13,2,32.74,32.74,0,0,0,6.54-1.34,42.44,42.44,0,0,0,6.19-2.6,42,42,0,0,1-6.08,2.93,32.22,32.22,0,0,1-6.59,1.62,27.68,27.68,0,0,1-13.47-1.56,33.81,33.81,0,0,1-11.39-7.52,48.86,48.86,0,0,1-8.24-10.9c-4.56-7.94-7-16.85-8.58-25.79a112.2,112.2,0,0,1-1.24-13.56c-.13-2.26,0-4.53,0-6.8,0-1.13.09-2.26.14-3.4s.08-2.26.2-3.39a136.88,136.88,0,0,1,4.72-26.73c.29-1.1.61-2.18,1-3.26l1.05-3.24c.78-2.12,1.51-4.27,2.42-6.36s1.83-4.15,2.79-6.2c.47-1,1.07-2,1.6-3s1.05-2,1.68-3a75.94,75.94,0,0,1,8-11,51.76,51.76,0,0,1,10.3-8.9,34,34,0,0,1,12.61-5A27,27,0,0,1,441.29,211.9Z"/><path class="cls-1" d="M407.64,237.6a92.81,92.81,0,0,0-10.41,22.74,115.16,115.16,0,0,0-3.11,12.12,117.27,117.27,0,0,0-1.69,12.38,123.49,123.49,0,0,0-.4,12.47c.1,2.07.11,4.15.34,6.22l.28,3.1.42,3.09a79.41,79.41,0,0,0,7.15,23.69,47.52,47.52,0,0,0,6.65,10.32,26.66,26.66,0,0,0,9.57,7.29l1.39.58,1.45.39a14.77,14.77,0,0,0,3,.56,20,20,0,0,0,6-.35,29.31,29.31,0,0,0,11-5.17c6.63-4.92,11.71-11.75,15.77-19a108.38,108.38,0,0,0,9.42-23.19,102.2,102.2,0,0,1-8.55,23.67c-3.92,7.43-8.92,14.5-15.69,19.77a29.3,29.3,0,0,1-11.54,5.64,22,22,0,0,1-6.52.43,16.83,16.83,0,0,1-3.23-.58l-1.59-.42-1.52-.62A28.53,28.53,0,0,1,405.4,345a49.24,49.24,0,0,1-7-10.7A81.28,81.28,0,0,1,391.24,310a101.94,101.94,0,0,1-.37-25.29,122.06,122.06,0,0,1,2-12.49A113.77,113.77,0,0,1,396.28,260,88.67,88.67,0,0,1,407.64,237.6Z"/><path d="M321.55,422.54l-96.33-96.16L118.46,371.86,211,469.62ZM219.74,332.68l4.82-2.06L231.5,338,226.67,340Zm-97.09,40.13,4.83-2.06,5.55,5.87-4.83,2.05Z"/><polyline class="cls-2" points="221.68 464.99 187.15 428.51 271.98 392.38 310.06 427.34"/><path class="cls-1" d="M195.42,433.69a2.42,2.42,0,0,1-.8-2.06,1.86,1.86,0,0,1,1.21-1.29l53.73-22.89a4.24,4.24,0,0,1,1.64-.3,5.88,5.88,0,0,1,4.13,1.7l29.39,31-59.46,25.33Z"/><path d="M251.2,408h0a5,5,0,0,1,3.49,1.42l28.51,30.11-57.72,24.58-29.42-31.07a1.64,1.64,0,0,1-.57-1.27c.08-.35.47-.56.69-.66l53.73-22.88a3.38,3.38,0,0,1,1.29-.23m0-1.79a5.19,5.19,0,0,0-2,.38l-53.73,22.88c-2.06.88-2.38,3-.71,4.8l30.27,32,61.21-26.07-30.27-32a6.83,6.83,0,0,0-4.78-2Z"/><polygon points="205.23 430.61 221.04 423.88 242.47 449.37 226.66 456.11 205.23 430.61"/><path class="cls-1" d="M220.78,425,241,449l-14.1,6L206.69,431l14.09-6m.52-2.16-17.53,7.46,22.64,26.92,17.52-7.46L221.3,422.8Z"/><path class="cls-1" d="M180.41,410.66l69.34-29.53c3.72-1.58,4.29-5.44,1.28-8.62L216.2,335.83l-83.85,33.94,35.88,38C171.24,411,176.69,412.25,180.41,410.66Z"/><path d="M88.15,218.91l164,15.3c6.21.37,16.12-4.43,22.15-10.71L378.63,114.82c6-6.28,5.89-11.66-.32-12L196.63,97.9c-6.51,0-16,4.61-21.17,10.39L85.76,208.37C80.58,214.15,81.65,218.87,88.15,218.91Z"/><path class="cls-1" d="M124,190.27l148.29,8.14c5.56.33,14.45-4,19.85-9.59l61.64-64.19c5.4-5.63,5.27-10.45-.29-10.78l-156.52-5c-5.83,0-14.32,4.14-19,9.32l-56.15,62.65C117.21,186,118.17,190.24,124,190.27Z"/><polygon class="cls-3" points="233.62 228.01 105.35 215.45 131.35 197.68 244.4 204.89 233.62 228.01"/><path class="cls-4" d="M173.43,173.33,247,179c9.18.7,24.1-6.37,33.33-15.81l1.13-1.15c9.23-9.44,9.26-17.66.08-18.37L208,138c-9.18-.71-24.11,6.36-33.33,15.8L173.52,155C164.29,164.4,164.25,172.62,173.43,173.33Z"/><path class="cls-4" d="M173.91,129.65l7-7.32c4.36-4.54,11.86-8,16.74-7.7l141.13,4c4.88.29,5,4.53.25,9.47L327.72,140Z"/><ellipse class="cls-1" cx="258.13" cy="161.69" rx="18.68" ry="7.93" transform="translate(-46.46 160.37) rotate(-31.81)"/><ellipse class="cls-1" cx="188.65" cy="155.51" rx="16.27" ry="6.91" transform="translate(-53.64 122.82) rotate(-31.81)"/></g></g></svg>