<svg xmlns="http://www.w3.org/2000/svg" viewBox="0 0 158.58 239"><defs><style>.cls-1{fill:#fff;}</style></defs><title>T_dice_num_06</title><g id="Layer_2" data-name="Layer 2"><g id="T_dice_num_06"><path class="cls-1" d="M82.88,235.5c-28.71,0-49.57-10.17-62-30.22C9,186.32,3.5,160.55,3.5,124.19c0-40.38,6.29-69.78,19.21-89.88C35.87,13.87,56.11,3.5,82.88,3.5c17.51,0,32.57,5.24,42.42,14.75,8.68,8.38,14.87,21.07,17,34.8a99.09,99.09,0,0,1,1.07,20.31l-.14,3.35H110.79l.08-3.58c.3-12.63-2.82-22.65-9-29C96.58,38.73,89.16,36,79.8,36s-17.86,3-23.66,8.56C51,49.42,46.33,57.67,43.6,66.62a140.62,140.62,0,0,0-5.13,28.5v.11c-.11,1.14-.2,2.29-.28,3.48,12-12.46,31.17-20.8,49.53-20.8,39,0,67.37,31.11,67.37,74C155.08,204.24,128.09,235.5,82.88,235.5Zm-.59-125.1c-24.62,0-42.49,18.06-42.49,42.94,0,28.95,17.62,50,41.91,50s39.27-18,39.27-46.89C121,128,106.16,110.4,82.29,110.4Z"/><path d="M82.88,7c17.43,0,31.35,5.42,40,13.77s14.06,20.51,16,32.81a96.45,96.45,0,0,1,1,19.63H114.37C115,48.46,103.09,32.49,79.8,32.49c-11,0-20.07,3.81-26.07,9.52S42.89,57,40.25,65.59A145,145,0,0,0,35,94.89c-.44,4.54-.59,9.38-.73,14.65,10.1-17.14,33.1-28.13,53.46-28.13,37.06,0,63.87,29.3,63.87,70.46,0,50.25-25.2,80.13-68.7,80.13-27.69,0-47.32-9.67-59-28.56S7,159.2,7,124.19C7,45.82,31.46,7,82.88,7M81.71,206.8c25.78,0,42.77-18.89,42.77-50.39S107.34,106.9,82.29,106.9c-25.34,0-46,18.31-46,46.44C36.3,186,57,206.8,81.71,206.8M82.88,0c-28,0-49.27,10.91-63.11,32.42C6.47,53.1,0,83.12,0,124.19c0,37,5.69,63.41,17.91,83,13.1,21.13,35,31.85,65,31.85,23.41,0,42.77-8.19,56-23.68,12.89-15.11,19.71-37,19.71-63.45,0-33.65-16.76-60.39-42.46-71.66h30.45l.28-6.7a102,102,0,0,0-1.1-21c-2.28-14.67-8.67-27.72-18-36.74C117.23,5.59,101.3,0,82.88,0ZM42.45,90.09A137.93,137.93,0,0,1,47,67.64c2.52-8.27,7-16.15,11.6-20.56,5.15-4.9,12.7-7.59,21.25-7.59,8.38,0,15,2.38,19.55,7.08,5.53,5.66,8.3,14.82,8,26.48l-.1,4a72.1,72.1,0,0,0-19.57-2.64A75.69,75.69,0,0,0,54,82.82a71.79,71.79,0,0,0-11.5,7.27ZM81.71,199.8c-22.26,0-38.41-19.54-38.41-46.46,0-22.85,16.4-39.44,39-39.44,22,0,35.19,15.89,35.19,42.51,0,27.17-13.37,43.39-35.77,43.39Z"/></g></g></svg>