<?xml version="1.0" encoding="utf-8"?>
<!-- Generator: Adobe Illustrator 22.1.0, SVG Export Plug-In . SVG Version: 6.00 Build 0)  -->
<svg version="1.1" id="Layer_1" xmlns="http://www.w3.org/2000/svg" xmlns:xlink="http://www.w3.org/1999/xlink" x="0px" y="0px"
	 viewBox="0 0 1178 948.5" style="enable-background:new 0 0 1178 948.5;" xml:space="preserve">
<style type="text/css">
	.st0{fill:#FFFFFF;}
	.st1{enable-background:new    ;}
</style>
<metadata><?xpacket begin="﻿" id="W5M0MpCehiHzreSzNTczkc9d"?>
<x:xmpmeta xmlns:x="adobe:ns:meta/" x:xmptk="Adobe XMP Core 5.6-c143 79.161356, 2017/09/07-01:11:22        ">
   <rdf:RDF xmlns:rdf="http://www.w3.org/1999/02/22-rdf-syntax-ns#">
      <rdf:Description rdf:about=""
            xmlns:xmpMM="http://ns.adobe.com/xap/1.0/mm/"
            xmlns:stEvt="http://ns.adobe.com/xap/1.0/sType/ResourceEvent#"
            xmlns:stMfs="http://ns.adobe.com/xap/1.0/sType/ManifestItem#"
            xmlns:stRef="http://ns.adobe.com/xap/1.0/sType/ResourceRef#"
            xmlns:dc="http://purl.org/dc/elements/1.1/"
            xmlns:xmp="http://ns.adobe.com/xap/1.0/"
            xmlns:xmpGImg="http://ns.adobe.com/xap/1.0/g/img/"
            xmlns:xmpTPg="http://ns.adobe.com/xap/1.0/t/pg/"
            xmlns:stDim="http://ns.adobe.com/xap/1.0/sType/Dimensions#"
            xmlns:xmpG="http://ns.adobe.com/xap/1.0/g/">
         <xmpMM:DerivedFrom rdf:parseType="Resource"/>
         <xmpMM:DocumentID>xmp.did:2fef1840-ed03-d847-97f4-14964b17c1ea</xmpMM:DocumentID>
         <xmpMM:InstanceID>xmp.iid:2fef1840-ed03-d847-97f4-14964b17c1ea</xmpMM:InstanceID>
         <xmpMM:OriginalDocumentID>xmp.did:2fef1840-ed03-d847-97f4-14964b17c1ea</xmpMM:OriginalDocumentID>
         <xmpMM:History>
            <rdf:Seq>
               <rdf:li rdf:parseType="Resource">
                  <stEvt:action>saved</stEvt:action>
                  <stEvt:instanceID>xmp.iid:2fef1840-ed03-d847-97f4-14964b17c1ea</stEvt:instanceID>
                  <stEvt:when>2018-08-18T13:59:43+02:00</stEvt:when>
                  <stEvt:softwareAgent>Adobe Illustrator CC 22.1 (Windows)</stEvt:softwareAgent>
                  <stEvt:changed>/</stEvt:changed>
               </rdf:li>
            </rdf:Seq>
         </xmpMM:History>
         <xmpMM:Manifest>
            <rdf:Seq>
               <rdf:li rdf:parseType="Resource">
                  <stMfs:linkForm>EmbedByReference</stMfs:linkForm>
                  <stMfs:reference rdf:parseType="Resource">
                     <stRef:filePath>C:\Users\Juanin\Documents\Jorge_2018\01_CHAMBA\06_Backseat\Reeperbahn Fest 2018\01 wip\Artwork_Finales\e2_ride_02.png</stRef:filePath>
                     <stRef:documentID>0</stRef:documentID>
                     <stRef:instanceID>0</stRef:instanceID>
                  </stMfs:reference>
               </rdf:li>
            </rdf:Seq>
         </xmpMM:Manifest>
         <xmpMM:Ingredients>
            <rdf:Bag>
               <rdf:li rdf:parseType="Resource">
                  <stRef:filePath>C:\Users\Juanin\Documents\Jorge_2018\01_CHAMBA\06_Backseat\Reeperbahn Fest 2018\01 wip\Artwork_Finales\e2_ride_02.png</stRef:filePath>
                  <stRef:documentID>0</stRef:documentID>
                  <stRef:instanceID>0</stRef:instanceID>
               </rdf:li>
            </rdf:Bag>
         </xmpMM:Ingredients>
         <dc:format>image/svg+xml</dc:format>
         <xmp:CreatorTool>Adobe Illustrator CC 22.1 (Windows)</xmp:CreatorTool>
         <xmp:CreateDate>2018-08-18T13:59:43+02:00</xmp:CreateDate>
         <xmp:Thumbnails>
            <rdf:Alt>
               <rdf:li rdf:parseType="Resource">
                  <xmpGImg:width>256</xmpGImg:width>
                  <xmpGImg:height>208</xmpGImg:height>
                  <xmpGImg:format>JPEG</xmpGImg:format>
                  <xmpGImg:image>/9j/4AAQSkZJRgABAgEASABIAAD/7QAsUGhvdG9zaG9wIDMuMAA4QklNA+0AAAAAABAASAAAAAEA&#xA;AQBIAAAAAQAB/+4ADkFkb2JlAGTAAAAAAf/bAIQABgQEBAUEBgUFBgkGBQYJCwgGBggLDAoKCwoK&#xA;DBAMDAwMDAwQDA4PEA8ODBMTFBQTExwbGxscHx8fHx8fHx8fHwEHBwcNDA0YEBAYGhURFRofHx8f&#xA;Hx8fHx8fHx8fHx8fHx8fHx8fHx8fHx8fHx8fHx8fHx8fHx8fHx8fHx8fHx8f/8AAEQgA0AEAAwER&#xA;AAIRAQMRAf/EAaIAAAAHAQEBAQEAAAAAAAAAAAQFAwIGAQAHCAkKCwEAAgIDAQEBAQEAAAAAAAAA&#xA;AQACAwQFBgcICQoLEAACAQMDAgQCBgcDBAIGAnMBAgMRBAAFIRIxQVEGE2EicYEUMpGhBxWxQiPB&#xA;UtHhMxZi8CRygvElQzRTkqKyY3PCNUQnk6OzNhdUZHTD0uIIJoMJChgZhJRFRqS0VtNVKBry4/PE&#xA;1OT0ZXWFlaW1xdXl9WZ2hpamtsbW5vY3R1dnd4eXp7fH1+f3OEhYaHiImKi4yNjo+Ck5SVlpeYmZ&#xA;qbnJ2en5KjpKWmp6ipqqusra6voRAAICAQIDBQUEBQYECAMDbQEAAhEDBCESMUEFURNhIgZxgZEy&#xA;obHwFMHR4SNCFVJicvEzJDRDghaSUyWiY7LCB3PSNeJEgxdUkwgJChgZJjZFGidkdFU38qOzwygp&#xA;0+PzhJSktMTU5PRldYWVpbXF1eX1RlZmdoaWprbG1ub2R1dnd4eXp7fH1+f3OEhYaHiImKi4yNjo&#xA;+DlJWWl5iZmpucnZ6fkqOkpaanqKmqq6ytrq+v/aAAwDAQACEQMRAD8A9U4q7FXYq7FXYq7FXYq7&#xA;FXYq7FWFnz7qWtXc1p5K0sarFbs0U+u3cpttLWRW4skUirLLcspBr6ScK7Fweirdxo3nN+B1bzuu&#xA;mSTMEhi0uytLdCxIog/SH6RZz22Ir4DFVTQdY8wab5m/wr5kuor+S6t5L3Q9XjiFu1xFA6rcQTxK&#xA;Sgmh9VG5JQOprxHE4qt86anrF/qNt5O8u3RstUvozc6pqiKHaw08NwMicvh9edwY4a+Dv+xirzzz&#xA;Hrv/ADi/5K1I6J5jhstV1qID67cX9q+s3gan/HxcypcMGNa8OW38o2xVknl3QvJuuWaa9+U3mJdI&#xA;9Nx6lvZcp9MbpWK60p3iWIlf99+k/euKsthtfzGDKZtS0dl/bRLC6B+hjeH9WKqVw35oRmtumiXQ&#xA;qfgke7tiRTY8gtz93HFUI3mvz/pwDax5ON1CB+8n0K+ivStBu3o3aadIR7IHPzxVM/Lvnzytr9w9&#xA;nYXnDVIRyuNJu0e0vohSvx2s6xzAf5XHj4HFWQYq7FXYq7FXYq7FXYq7FXYq7FXYq7FXYq7FXYq7&#xA;FXYq7FVk00MEMk88ixQxKXllchVVVFWZmOwAHU4qwWXz/wDpnVtFtdDE66TqV+bL9MGMokqiwvLs&#xA;yWhkH7xedmqeoVKEM3GpoyqpcILhNV1JPPXm2bTltZUFnBa30em2b2stWt5PhEd0ryGKVCslzISY&#xA;3IPGmKpf5oto4PLmrSaR+YE8eiQu1rr8V7LFqRhhqqXKQXEdbqG59N6Iru3xlQFBNcVYF+a35ned&#xA;9E8lX9vpbDynbW9rpv6L062hSO5tY7uWeOK1mkLSBZGtbUz0iCNF9j4vtYq+Ub7VdUv70319eT3d&#xA;8xDNdTyPJKSDUEuxLfjir7n8wea45/y7/L38zLmVYl0260671e5pXhb6hCbG8G3YSXIJH+Tiq/Uv&#xA;NcvkT8rdd/MTWU9LzL5hP1qC1koXjeZfT02yoR0t4aNIv83qN3xV8H3VzcXVzLdXMrTXM7tLPM5L&#xA;O7ueTMxO5JJqcVTvyP568y+Sdfg1vQLpre6iIEsRJMU8datFMgIDo3h26ihAOKvsfWvMJ/N78jp/&#xA;NHla/vNC1/S1luEFpcSwPFd2sfOa2d4inNJIz8B91O24xV8vaT/zkP8AnPpZX6v5pupgtPhuxFd1&#xA;A7E3CSHv44qz/wAs/wDOaPn+xkRNe0yx1i2H22jDWk5/2amSL/knir2nyz+cv5K/mvHb6ZqSrZ6x&#xA;yBtbLUf3Fwkx2Bs7uNhST+UxyK/tirKbx/OnkorcrLcebPKqnjcwMnqaxZoSP3kbRgfXY1/aQr6o&#xA;G/KTpirJvLnm/wAseZLY3Ghanb6hGv8AerC4MkZrTjLGaPG3+S6g4qm+KuxV2KuxV2KuxV2KuxV2&#xA;KuxV2KuxV2KuxV2KuJAFTsB1OKvM7m507zRb3fmvzVdJbflzphaTTbGU8YL1YW/3vu/9+xM4/wBH&#xA;hpxYUchiy8VXh/mf/nLm81XzfbQ6LFHpHlu1k/c39xE007urKySSoh/dwuU9OQIGcRM9OTUXFXsf&#xA;mLWNG1tdF86S2YNppF3Fp+vW0oWRJLG+kgkguYXWqTwJci2uI5P5A2wYFcVYt5IZtD1R7rXrSG+G&#xA;kNY2VrZacjTvLqo06KKwgsvUWEEwWLTyytJxCmY12TlirE/+ckfy/wDPGuW+iaiY7GL6xc391rDr&#xA;cxQWkLsIY7aSW4uTApIs4I469yhKj4sVeGL+UfnO530aK219UIFw2kXMN4IOVSpn9Nj6StxPFmop&#xA;pscVfVPkLWfIum/k1ovkz8wNW0y2u7ccb/Tn1KxmqIL0zwo3CaQFWREqPD4cVYL/AM5JapqP5m3m&#xA;k6d5L1DTNU0fTkeeS3i1OwW4lu5Dx2gedXfhGKJxBJLMPDFXzbrWga5oV6bHWtPudNvAKm3u4nhe&#xA;h6MFcAkHscVS/FX2f5OtIvyr/wCcWb6/1IelqOq2s94YW6m61FBDapxNDUR+lzHajYq+MMVdirsV&#xA;fav/ADh55213X/Jmq6Xq93JenRLiJLOaYl3WCdCVi5ndlRo2416A06UAVRtt+Z35BefNcms9aVNE&#xA;80WU720V5csdPu+cTlB6Go27xsBUbKZFJ/lxVnP6H/MbQIzNoerp5q01RyTStY4xXhXrxg1GFQrf&#xA;5PrxNXvIOuKp95W826b5it5zbpLaX9jIIdT0q7UR3VrKRyCSoCwoy/EjqSrDdScVTvFXYq7FXYq7&#xA;FXYq7FXYq7FXYq7FUn82+atO8saLJql8sktHSC1s4F53FzczNwht4E/bkkc0A+k7DFUhtNM/NLV4&#xA;lvNS1q38tGUco9J0+2iu5IQdws91c80len2vTiVQehYb4qhPNHlf82Z/Lup6dpHmawvJb61ltkbU&#xA;LJ7eZDLGYzIlzaShEZa8h/o7b4qlP5qeUbbzDHofkeG3sv0dCpeDTr2/lsIJVtkRIwkVshnufSV/&#xA;sI6KmxavJKKsFv8A/nGPQNOs5L7ULPyvaWkI5Sy3EmuQxIP8qZ9U4j5kYqwP8xLLV9B0F/L3ky2s&#xA;JoprIzPdaLfXV36mmTGX1oYILqSaS4iD8pXMZdITVxwZnYqpN+WGsfmDCmpT+YNQ+qaSLL9JznXX&#xA;eEXtpdMFkaJ7iz1KOcXHpIrEws7BQqMByBVeu+QfMms+d9TGu6T+VcXruqmDzNr1/LJaqFHBWtFl&#xA;tSQvw/ZtkUeNMVZ5qv5Mw+driC8/MyS21U2YZdP03TEnsraBZKepzlEpnnLemnVlApsu+KqC/wDO&#xA;Lv5FA1HlkfTe6gf13GKuf/nF38i2r/zrPEkdVvb8U+j6xTFXlv5v/khrvlXS7S58tQXPnHydbzep&#xA;f+VtQ5XM1soI3spogt1FG3+7PRZTspfmvRV5X+X3kTyTefmpYvq2sada+SyF1aFLi+t3kaFzzh0+&#xA;cclYTq37udSo+yxGxUlVnX/OYHnXVdYu9N0fTre4PlKwIlfVFjf6ldXsiVVYpwPSk9GJqfC3VmHb&#xA;FXzXirsVdir6+/5wgtCvljzPd0NJr2CKvb91EW/5m4q+V/Nlz9a806zc8/U9e+uZefTlzmZq/TXF&#xA;WbflL+fXnP8AL6/giS5k1Hy4GAudFncsgQnc25avpOOo47HuDir7B1m5g1jStH/NPyVG9/eW8CyS&#xA;21uv77UdLc1uLNkBHKaLd4VP2ZV4/tNiqbw+ZfzDvoFuLHyfFaxuQVi1fU0tZ+JFamO0g1BVP+SX&#xA;riqncfmLdaK5/wAYaDc6JYg0OtQul/py+8ssNJoF/wAuWFU/ysVZjDNDPDHPBIssMqh4pUIZWVhV&#xA;WVhsQR0OKr8VdirsVdirsVdiqncXFvbQPPcSpDBEC0ksjBEVR1LMaADFWOL+aX5YtKIV836K0xbi&#xA;IxqNoW5VpSnqVriqXW723mX8zZJxIs+neUbSI2gUho21HU0ZmlqD9qGzCBT4TNir5b/5yN/PTzLr&#xA;XnW/8v6DqVxp+gaPI9my2krRG5mjbjNJI0ZHJeYKoK0oK98VYd5H/wCcgfzS8pXyTQa1PqdnUetp&#xA;2pSPdQuvcL6hLx/NGH04q+udE8yeT/zt/L6afT47YarHHxksr+KO5NleUrH6iODyjLD4ZEoSteJV&#xA;qgKvDNOvPOGk6vbT615T0m31qC8a20fy5BZyXOoanJBIVneJ7uS7FtbRqrH6wFptRR1ZVUf5H0zz&#xA;T5503y1qct3FpsXmC9udG1KFYvrN1qMHpmfU72S5dh6XqJbC3VUHwDZKKaFVO4PJ0uneY/NGpeY/&#xA;ON5pPlPS7288uaBplhEk9zImoenevZpE0NzzQoygII2Y8a1ULuq9V8pfmV5J0uDRfKb2mr6Cgjg0&#xA;7RTrljc2wuCiiOKNZ5F4GRqDZiCT2xVVt9Z1rQPN3n837NeWi2VtruhWzSFQ0UVs8FzBHUNwCy2y&#xA;FiB/uwGm+6qR3X5ta7q+k+T/ADX5Ngh1C21Z7rT9Q8tTzLBI199XNwsIuCp9OWH6pKF5LxcN25KQ&#xA;qzBvzCXS/JUPmPzZpsuhXs7vFFoQdbu7kmMrJbW8Ij4iWadVVlRelaE7E4qln/K09esoBqGv+R9W&#xA;0rRW3+uq9rdyxJSpee0t5XnRQu54qxHcYq8KPkfyfYfnNfaDrVtY6l5N/Mu1uNV0PXmWOE2PqJLd&#xA;K1tMQePH7NAQGBQn+XFWPaF5D1fQ9FFx5d1blN/iv/BeqaZLIzaVq0c5X07iZFLcUkjmVHUcjT4l&#xA;ZTirzTzv5WsLFr290yCey+o6jNpus6NMRcDTrha+igvF4i4Sb0puB4KR6ZB5bMyrDsVdir7U/wCc&#xA;fkPkn/nG7UPMk49J511DWVDdT6cfoxbH+f6uvHxrir4sJJNTuTirWKvsj/nCnzJPe+S9b0GVy66R&#xA;eRzW4P7EV6jHgPb1IXb6cVYD+Zv/ADlb+Zdv511fTfL0lvpml6bdzWcCmBJpZBA5jMkjShxVitaK&#xA;BQbb9cVZT+T3/OW8+q6pb+X/AD/DBH9cYQ22tQL6cYd9gt1GSVCsTTmtAO60qQq9eisfMnkbWDYe&#xA;W9Fn1vynqXKW10+3mgi/RdyDWRENw8ai1m5clRT8DBgooygKpvP5v80WRLX/AJPvpLYLyafTp7S7&#xA;K+xiaSCY/wCwRsVROg/mH5P1y8On2eoCLVUAMmk3iSWd8tfG1uVimp7haYqyPFXYq7FUPqGoWWnW&#xA;FxqF9MtvZWkbz3M7mipHGpZmJ8ABirzpdJ07zBaS+efzGVYNCgU3OkaDqBAtLO0H2Lm8hNUkupR8&#xA;VHr6dQijkCSqxkf85YfkfJcfohluxppPpfWGsh9T4dK+nyMvGnb0voxV6n5K0nyTZaU975Ot7SDS&#xA;tYk+vc9PCi3ldkWP1EVPgX4YwCFA3671xV+Z9xNNPcSzzsXmldnlc9SzGrE/Tiqnir2H/nG3UZtF&#xA;8y3muw6lLALVEhudIg+qFr2CYPzX/SryyKlGRSrxrJxP2qDZlWYS+XvzT0/Ur78y9UhPlwvFdz6j&#xA;5pnmi1pkt76VRBFp9rA0wT0o/wByvJuIVzUooFFU4/KWXy95M/MeztGvdauNC0vQjJJb3sU1z9Q1&#xA;TU5/VSIWtmLiK3ea1TlxWp5MUZi/w4qttdF1jVtZ8+nzD5yk8ia1peoWd9LMs5paW+oRPPPDE6Sw&#xA;gu/KKIyIxLCJV3UgYq9BvvzR/LfUfy6uNEtBrnm3SItPe2vNbWxuZqGKMqbmW7ulgT1VZefMNswq&#xA;OmKob8ttEvPzV/JHQL3V9TvLHzLZrdWtp5hgkY3BQSmJhLyP7+OVI0WZHPxld98VZn5S8t/llF5i&#xA;l0yxjhufNvleO0bV3SKWEG5mtyIryWMcbeW4kjZ/3vxOoYjkK4q8n/ODzH5htf8AnI3RLdRYPFZa&#xA;as+gwayLmSxFy7OWuFjtklb1wUKq1B9kb7DFWtY/Mby95m1yDT/zTshaz+V3TUbfVtClv7ZoOZBL&#xA;va3MdveSRkIpMkCScetVBriqS+cHtvMf5H675s9OO907yx5wuLnyvJNHWN9Jlu440t0SQVWAmenp&#xA;kAUQCm2KsW81+ZPLemeapI7GT/Df6NvLbzL5WhtVlOhagnBLux+tWaN+6uDGVi9dPh/ZZUoWxVkO&#xA;i+RPzZ1aPTZ9M8sWFdauru780avfXenarp9/9emWa3lkt4pJWK2nFjERUgs38zAqph+Yn/OKvluw&#xA;sb3zTqXm2LQ7aONJryOPTVW2Vwio5SKKdRH6kpqFQUBbio+yMVeD+ZNf0rTNQhsPI88kOn6YoQa4&#xA;ieheXtwT+9ui9FnijY0EcPKiqASOZYlVkPkj8xvMWuWV5+X3mTzBc/oLzBCLW0uLiUstreh0e1eS&#xA;RleT0GkjEcq1pwbl+yMVec6npmoaVqNzpuo272t9aSNDc28g4ujoaMpGKoXFX1J/zg3HMbzzjKD+&#xA;5WOwVhXYsWuCu3yBxV4F+aMsU35m+bpYTyik1rUXjYbAq13IQfuxVjGKvun8mvzC8webvyDu7nT7&#xA;j/nbdDtbiwjndRIXubaHnauyvUNzQoGJ6tyxV4l5b/5zK/MzT5VGs2tjrVtX4wYzazfJZIvgH0xn&#xA;FXsmgfnv+R35oQQ6T5ltorDUGYeha6sqhRIejW14uyN04nkj16YqzhtM88eUT6+i3Evmry8u76Ne&#xA;yA6nAlf+PO8cgXAA/wB13B5HtL2xVlXl/wAx6R5g08X+mTGSIM0U0bq0c0MqGjwzROFeORD9pWAO&#xA;KplirB/Nqf4m82ad5O4iTSbNE1nzIpAKyRrIVsLRuu01xE0rA9Vip0bFXzj/AM5c/m7Lq2uHyFpU&#xA;xGlaS4bV3Q7T3gFRGadUgr0/nr/KMVfOOKvqb/nCzz9eG71XyNdyl7URHUtMVjURsrqlxGtez81c&#xA;DxDHvirxH87PKaeVPzS8w6NEKWyXRuLUdhDdKJ41H+osnH6MVZP5i/5xj8/aH+Xqec5Zba4jSBby&#xA;902EuZ4Ld1DcySoVigNZAD8PYkYq8gxV9Q/k3+Y3m2X8nR5OtrKG61u9vBp3lNNQQyQXVtK/O7Jj&#xA;qDJDZRpK0jbotUUg/ZxV6L+XWieZ/wAuPzKTyreMdfsPOENxrF/5ma3aKf8AScX97E7q7p6IRQyq&#xA;RXk+KqH/ADkH/wA49Ted7hPM/ll0j80RCKO4trhlW2uYYQ3EkFH/AHwqqjkeJUUOKvLNH/JP889R&#xA;mmi87yWmj+WEUfpXUb+SwlFtYxL+++pACdLWkVTVBGO5OKvpD8u9a/LixtdM8keTdUtdUt9PsZJF&#xA;azuYLvgkMkas07QsaSTPccvsgH4sVQUv5eazp3n7XPNHl/zJb2F95nW2FxYX1kLtD9QiEQ9PhcWz&#xA;04mrYqxzzD+Vtn+cvk6OfzRMlp5k0m81WwstV02MxRN9Uu5rRTJBM87GNmgDsnqVr9lhU4q8u0b/&#xA;AJwj8wHVANZ8x2selqwq9nHI9w69xxkCIhPjVvkcVZZ+acmpaf5Hufyd8j+RdW1jTLWzjt5ta9J0&#xA;gWVClxzV1i9OeUyUd+PH4iaYq+f/AD3oXmm/0HQZ7vS5rTUfLumfovVtLljeO+ihtppJ4r6S2YCQ&#xA;Wrw3KxianEOjA0+Hkq87illhkEkTtHIv2XQlSK7bEYqz7zLrd5Y6GfImnS3Aj4Q3vmia8LLM2oRw&#xA;hpLQqxHpxWsp9MIRyaUEkn4FVVNIPy8S9/KrT5vLMH+IvMmp3Mdzqtpp3G8vLCGE3MSo8EIaaJJR&#xA;JGzcloSPlirHPMH5b69oHky313WNLv8ATLibUXsfSvbeW3UoIFlRqSIpqx5gePE+BxVOX8i+aPPv&#xA;lXTPM+g2t5rutQtJpnmGNP3zp9TjiWylA+1R7Zlj+cZPc4qwfVfLHmTSHKatpN5p7r9pbu3lgIpt&#xA;uJFXxxV9d/8AOMmiy+RfyZ1vzdrELW7Xnr6l6coKMbSyhIjqDQ/GwkK+IIp1xV8weRfy985fmX5k&#xA;uLLQ4Vmu25XV/dzt6cESu27yPQn4mbZVBY+GxxVLfOvkzX/JnmO68va7CsOoWnEtwYPG6OoZJI3H&#xA;VWU/PsaGoxV9F/8AODl9N6nm+wJrBSxnQdles6N/wQp92Kvm7zfYRaf5s1rT4f7mzv7qCOgoOMUz&#xA;INt+wxVKMVew/k5/zkj5s8hTQadqTyaz5VBCtYSNWa3T+a1kbpT/AH2x4n/JJ5Yq+soTpnnHToPP&#xA;n5c6lDHq8kfH1GB+rXgQD/Q9RiHxhl6K/wDeR9RVSVZVknlDzbaeZNPllWF7HUrKU2uraVPT17S5&#xA;T7Ub02YEHkjj4XUhh1xV5/J54i8uflj5s/M2en1vV7i4n0xJAN442+oaXGB3RkiSYgfzscVfDem6&#xA;Z5g8z66tnp9vNqms6jKziKJS8skjVd2NPpZidh1OKqvmryh5l8p6s2keYtPl07UFRZPRloeSNUK6&#xA;MpZHUkEVUkVBHbFXpP8AzidLIn52aSq14y294klKU4i2dt6+6jFUx/5zFhRPzeVlFDLplq7+5Dyr&#xA;+pRirPfLf/OUHkaL8k10PW0nn8x22mNpJ00RM0dyFhMEUhlNUCMnH1OR5faop2qq+VrO0ub27gs7&#xA;WNprq5kWGCFBVnkkYKqgeJJpir6z/KjSW0TzZoepak1uvGe68p6BIgAt4rLQ7eabUtRStByvriB6&#xA;n9nm5q2KvoLyr5w8tebNNfVPL18moWEc0ls1xGGVfViI5gcwpPUEEbEdMVa87avdaL5N17WLTj9b&#xA;03T7q7t+YqvqQQtInIdxVcVYN+Xfma4/Nf8AI6UXF3AuuanYXmmamycWEVwwkt1kkiSnHmvGXjts&#xA;dsVRGreUfzHRYJPK8Xl3Qb1J4nur23idXnto25PbN+4aiyECpBqKbYqo655d/NXUfN/lzzKINC5+&#xA;XlvVS0F7dosv16JYiWf6o9OHCo23xVXuvMbflj+Vmpat5kks49USfVL63s4Znkhlur+8uLu3to5G&#xA;jikepmVWPpim56DFVT8hPzH1f8wfICa7q8MMN+l1Nayi2DLG3pcSrBWZyDR998VZzrWraVpWnSXu&#xA;qzrbWIaOGSVuVOU8iwxr8IJ+J5FX6cVfNXnTyZpkPmuwTTNQm1q4gtL3UvK17LMb1b62tFL3nliY&#xA;hi0iMhZkdmJ4yshVqVxV4HqOn6LoOs+XPN9lB+kPK2oXX1tdMkcLJE9ncK11pkz/ABEtGjIPV4Dm&#xA;rq3EbqFXovkzRfK2u6j5v1uHVbPzFqPmGCeaz0WUm01AXUjPfiM283wyubmCGOkDyAhj2xV6H+Sv&#xA;nYeRfKUGja55dtvLF+kchm1HW5JdMF3cxv8AGpc20zV+rmDht8dHp9nFUo/MzyZazflt5a8uNcX+&#xA;ma/5hvpdXj0TULuW+FokFnfTQ26qwiWHmZI4dkB8QxU4qkf5d+cNQ/JPy55ju/QTWLV9c0+0hVmN&#xA;v9YglsZ7kyRkerxPptEf2gK/LFX1N+X3n7y/578sW/mHQ5Ga1mJjlhkAEsMyU5xSqCQGWoPWhBBG&#xA;xxV8lfnz/wA5Ka35ttbzyfpunto2lpM0OpmSQSXFwYH/ALslQFjTmu4BJNOtKgqob/nFv83vKP5f&#xA;ahr8HmaSW2tdYS2aG8jjeZUe1M3wukYZ/jE+xCnpvirC/wA8/wAwrPz7+Y1/rtgjJpgWO1sPUHF2&#xA;hhWnNh25uWYDsCBir2f/AJwbtZTc+cLulIlSwir4sxnbb5Bd/nir5q8xXwv/ADBqd8DyF3dzz8q8&#xA;q+pIzVr364ql2KuxV6J+Sv5w6x+W3mVLqMvcaFdsqavpoOzx1p6sYJAEsfVT3+ydjir7L80Xtja2&#xA;+nfmp5dmEtp6Nv8ApnhtHe6NMwJlZTSktoJDMjHcKHQ/a2VeT/m/pWoar/zitoBsiyDyw9rBq1vS&#xA;hZtOEmlz7D+W4+L5b4q8W/5x+/NPRfy385XOs6xYzXtndWT2ha1CNPEWkSQMgkaNSD6dCOQ/gVUH&#xA;+d/5rP8AmX5yGspZ/UbC1gWzsLdiGk9JHZ+crDbmzSHYbAUG/Uqsw/5w70uS7/N03YSsenadczu9&#xA;NgXKQAV8T6p/HFUu/wCcsNQju/zr1WNGDCygtLdiDX4vQWQj6PUpirx7FWb/AJThLPWdT8yyBSvl&#xA;nS7rUoS4qBdsotbJh/lJd3MTqexWvbFX1XJ+TV95p0X8por0rb6JoWms3mSzWRo5ppbmzi5oOAIc&#xA;TSq6zfECVZt98Veba95p8weTPLf5geRPJqSWWrweYNR1W4ktP3H6P0L07Z45ImXiEMhcIgTcCuw2&#xA;OKvarjzXqfmr/nHrXPMmp2SadNqeiancRWqMXC27RTegSx7tFxY/PFXz/wD84s3H5a3C6lo3maxt&#xA;bvWLu6hNkLlRX6uI39VlY7UjK1IrXevjiqj/AM4/3v5YV88TeentLyKzWC40mK9ejPFG1x6wtwxF&#xA;SaxfCN+mKvCJbqZ3ZubKGJIXkaCvbFU48263ouqy6Z+idNGmRWenW1rdKGLGe6jX9/csSTvI5+6m&#xA;KvsL/nDfl/yqOWooP0rc09x6cWKsj/MPyD51fRtdby1qk+sw6pHMZPLGqSRuglmqUksbyTi9s0Eh&#xA;EkasxQFQBw2IVTnXvy4j11PK+oSTDT9f0K/stSnvIlq05hUJcwyFSvITR1Tka0+VRirwP86/yntE&#xA;84a1oOm2kUMnmmFNb8qAGKGJNQsKrqVqrOVSJZ7eT13NVBZE3PEDFV3kH8ujouk6VfWOk2j6lf8A&#xA;FfKqST8LzW7swF57762FjmstPhh5yxxJ6byIAJKswVlWoPPHmjSda1ZrjVIdVgvw2mReZJYmEVpq&#xA;tm7OlvG0lxJffUjI3pM7cVUt6i03LKsu/wCcndQfyr+Xelapp4t18z6hfW0U2rGCCW4KxWsxLxzO&#xA;jsrKW4q6tyAbZsVfK9jF+YXny5g0m3kv9dawjZ7e1eV5IbSH4UZlDt6VvH8KL+yvQeGKvp7/AJw6&#xA;0LzToCeb9J16xn04pJYTwW9wjRsTKtwryLX7SsI1AYbGmKvljz9IknnrzHJGeSPql6ysOhBuHIOK&#xA;pDirsVfZv/OI9tp3lv8AKLU/M+rzx2VpfX8ksl3MwSNbe3VIVLMdh+99TFWI/mf/AM4hH6u+uflt&#xA;di9tZF9ZdGmkVmKNuDa3FeLih2V/+CPTFXzLc21xa3EttcxNDcQO0c0MgKujoeLKyncEEUIxVSxV&#xA;2KvuXTrWfRP+cSltL34ri78vvDChFT6mqhlto6H9rldIvscVZPpOh2d5qP5i+Qr5SLHUn/SUFd6W&#xA;2twMkpQHut5bzt8zir8/9Y0q80jVr3Sr1PTvNPnltblPCSFyjj71xVCKrMwVQWZjRVG5JOKvuH8h&#xA;vy+078ofy/vfMfnG5i03UtSEc2pyTsAtrClRDb13q5LksF6sQu9MVRd15T/5x0/OOS/fT3tLvWnH&#xA;q3N9YM1tfKdl9VkYKXHQVdGXFXyV+bv5U61+W3mltIvm+s2M6+tpepKvBLiGtDtVuLodnWu3XoQS&#xA;qmnkTRLpvy51ieW2dLbzFrei6Fb3Z2V19Sa5uUTfcq0UBJp/HFX1L5H/ADP82SfmMfK2rac0egX1&#xA;3rVtoupzgJLJLplwT6cSKFX0I7chFLAszKx5dgq9A1LyD5R1Q+YJJbJBdeZbQafrN3EaSyQpG0Si&#xA;pqFZFfrTsK9BiqOi8r6NH5VTysYPU0VLEaYbdz9q2EXo8CRTqm1cVfEf51f847eZvIup3eoaLa3O&#xA;o+T1AkhvwRLNAvAGQXQjVOIVq0fjx403rUYq8cxV7P8Al3+Uf5car+XzeZ/NnmiPS7i4aZLO2F1b&#xA;wlDEsoHOKVHkkLSIlOP7JPzxVjv5Yfkl5s87XEN+9u2m+UYm9TUtfuSIYEt4j+/aJpNnZVVunwg/&#xA;aIxV95eRvKugeVfKunaFoG+l2kf7iUsrtLzPNpXdQqs0jNyJAp4bYqjdZ1q30pLQyRvNLe3UNnbQ&#xA;RULs8zUJFSPhjjDyv/kqcVX6Xrej6r9aOmXkN6LKdrS7aB1kEc6KrtExWo5KHWo7Yq8L/wCcob+4&#xA;0bzV+WPmKEimnapOkinoyzNbFlPsyRsDir1Dyz+V2i6Fria219e6pf21qLDTfrzQelZWop+5tIbe&#xA;G3ijBCqCePKgpXFXhP5j+X7Hy15u1nyyzqNO1xW1OJ7hA0MNleSyJPBxCuzkX0vMGNOcSUZTWuKt&#xA;+bLDzR+b2hQWGsafqKxeXb+5jj1rRrMSW96wPpMBaXs9pNCymM78mVTUHjsAqzb8v/yG8tab5Vi/&#xA;xLBNZ6NbSS3s2h3kkFJAlSs+rywfBOyKCyRqwijU0Id+Tsqp/lv5i0Dyxofmk6QGae8F1q3lHy4C&#xA;z3b6WnqC0WC3b956c06yyRqoNFepoKYq8KMGl+f9W1TT5dPsdM0DR9WcwX2lWccd81jBZajdNAJa&#xA;1nknjsK8pi55/F4gqse89fl/5Rsfy58v+ePLlzeJBrd1PbnS9QeKaWNYWeMN6sMcCn44HJ+Hoy/S&#xA;q81xV9y33lVdN/LX8tvywaEF9ZvLJdYtWAo0FoDqeogg9jJHxP8ArYqmv5VHStJPnzzHYyNYeQba&#xA;8lTSdPUk2kSabGRf3VuhqqRyzh6BKL8PTFXw35r1+fzF5n1bXp0EcuqXc120YpRfWkL8dqfZrTFU&#xA;R5H8la7518zWfl3RI1e+uyfjkPGKONByeSRgDRVUeFewBJAxV7On/OF/5hxarYpNqGm3GmSTIL2a&#xA;GWVZI4uX7xgjxLyPH7ND18MVfSHnu3h1PX/J/kq1HG2+tLrGpQpuq2GkUaJHHZXvGgA8eLeGKonz&#xA;Kf0T+ZPlbWfswatHdeX7xq/DzdPrtoT8mtZUX/XxV8m/85b+T/0F+akupwpxs/MMCXqkfZE6fup1&#xA;+ZKBz/rYq8XgnmgmjnhcxzRMHjkU0ZWU1BB8QcVZn+YH5y/mB59trS08xah6tnZgFLWFBDE8gFPW&#xA;kRNmk9+g7AVOKsd8r+ZtZ8sa9Za7o1wbbUbGQSQyDoafaRx+0jj4WXuMVfZ/5n6bpP5yfkHH5k02&#xA;EfpC3tW1TT1HxPHPACLq1qBVq8Hj92CnFXzb5F1+7T8tzbzGunaB5v0XU69x9Zhukk+j/RU+/FX2&#xA;n+ZXlrXdY0u0vPLTwReZtJllm0ma6ZkiVrm2ls5CzIrsOMdyZB8O7KBiqP8AIHlK28o+TtJ8u25D&#xA;/UIFSaUV/eTt8c0u+/xyszfTiqaahrOkaa0K6jfW9m1wxW3FxKkRkYdQnMjkflirDfMeoec9F8v6&#xA;zqdjFaRTtcyXV3ql5cSPbQ2KkIk9vCqvUxWiK0iN6a8wzfEN2VYD5q/OXRtbvtFey0iN7KXXLOzt&#xA;5NTtoJP0vptzJLazTWAcM9Ip41J6bFCftUxVmfnE31hqMflL8vtLsdN8yarp1zcx6v6McMFnHDLD&#xA;H6j8EYuT6rBVCn4uNfhqcVYjon5jfnHrt/f6Zp+kyNd6Xc6QL1ZEggWFwRFqdncyTHeOX0nnjlt0&#xA;kcI6fDvsqzD8rfI2q+UtS83arqKWek6Vrl1Fe2Wi2czy29mI42WaRndIUVpSQzBBxFPDFUq8zL5L&#xA;/Mj8wfKlrZeYdI1XT9AkvrjVtFS6Ek1wzwelEESPksiI1fUVjTjsagkYqjPM2uavoHmi98q6Lp12&#xA;NQ86NDNpOswQo9pZOtvHZ3MkpY0BtYLVJlXiQ5IXFWAf85WWlxcH8tfK0csl1eX+pGOO5loXd4/Q&#xA;g5yFQByYzgmi4q+j8VYP+dXkyfzf+W2saTZIraqsa3OmOw+Jbi3cSr6bUJRnClKjxxVIvIHmTz1q&#xA;mgwXnlrVNC836MygRXV1JNpd9ExAPp3UdtDexeotfioiV60xVCavd+bH84aRb/mIZLLQrm8gXSrT&#xA;RAZtKkvOa/V49RvH9O6Zml+xGbdImNKs2Kvl/wAySfl9c+XfOF3r01xL57l8w3Q0iSFi7mFeJf6y&#xA;Hbj6NagH7XL7OwbFU2tjc+Rfy40m/lhkCX1peXVnPGy+nc6jrNq1pDQOQzx2Nj6pdlX4JpAu4auK&#xA;pL+bFvqOheSfy98oaigg1Cx0661K7gUklf0leSSRLICBxkSNKMvbFUg/J/yx/if8zvLeisnqQz3s&#xA;cl0h3Bt7f9/OPpijbFX1l+ZfmW6T8xNUuNOPqal5d0eHR9BirQ/p3zLNwi4/6kECu3+TXFUn/wCc&#xA;itRsvy5/IvS/IumSUuNRWPTw3R3ggAlu5j7yyUDf65xV8aYq+u/+cMPJlvY+XNZ87XiBJr2Q2VpM&#xA;+3C1twHmYH+V5CAf9TFXq/lP/lYHmXRB5hPmEaba60XutK08WELtbWUjE2tXdqvI0PB35CnI0pQb&#xA;qsj8seTrPQpbu9e6uNU1rUOH6Q1e9KNPKIweEaiNY44ok5HjHGgUVJ6knFUv/NjS72+8jX0+nRiT&#xA;V9IaLV9KU97rTpVuo1H/ABk9Mx/JsVea/wDOUXly187fk7aebNI/0g6UItVtZFFS9jdIolp4fCyS&#xA;H2TFXxJirsVdir7L/wCcK9Zku/IOtaPM3NNO1D1IlP7Md1Ep4/LnGx+k4q8D0jS0h178w/y+SvK5&#xA;F1HpVuAOT3+j3RlgRR9ou8KTRqoJqzAbmmKvt/8ALfX/ANN/l15d1qWdbqa60y2lu5YqPW4EK+ut&#xA;Er8SyhlKjcEUxVKvOf5q+XtH031Yba5122kmFjqJ0qWESWMkwAQXbSTW7WxctRSxWjU6EjFXl/mP&#xA;S/KWveZfL8fnp9R1PyvqMz6VpWna/a3Gmajp2oTrzjZLpFtmu4JBD6bFnk4sUPI74q7zL+XP5vfl&#xA;lbtcflvqc2v+SonEl15OvUS6lEFazQxeojs8clWqIuL79GO+KvQvy+8/flt+Y2h2/mGOytYb/wAs&#xA;gtNaXccZn0tyvxGNivwIyxfC60qF7FSAq860L/nJHznY39pF5r0HhYNb2hup/Te3uVa7lkZ7pozy&#xA;9O2igglKhlBZVDlgGxV7DoPn/TrnytrHmHULi3/R+j3F8Jr60b1baS1tmaSKWJ1Z/UJtynPif7zk&#xA;o6UxV85+ZPMnmT82LfUPMXm7ULnyZ+UGmlWtbcIyT6kWLcEhLALcSt6e+7KhpRT8RxVmv5O6F+UW&#xA;ma35a1DTvKOoab5g1P110nVW/SU1oIntZZV9W5nMdm80tqjFhAHXlXiabhV79b3tncmYW08c5tpD&#xA;DcCN1f05VAYo/EniwDA0O++KvEdOvrH80Pz/ABeW0sd55X/Li3/0WeNlZJdTvT9tXX7Sr6O29Kx+&#xA;+KvdMVU7m5t7W3kuLmVILeFS8s0jBERVFSzM1AAPE4q+MdJ/Mzy55K82eYoPI1oupadZ3Kw6New3&#xA;S2t21pPyM1tCriYXojuCDC00UtEB/mXFWYWP5wT6zqn+HtZ81a5ovmAy250/Qtd0myjjN+ZElslm&#xA;ns7UzlBL6b/3MXIbVpviqT/kR+WPkjWdP85a952tF1W+0i9vo57l3dYwkMQaZxGpVKsZGNWHw7Fa&#xA;EVxVB/8AOOWg/lt5v8/lrPyzdxLpEP1/nqOoC+t4XWVRHHDElvbVYu3KspYUU7cqMFXmn5/+Y49f&#xA;/N3zFdQvztba4+oW1DUcLNRAxBPXm6M9e9cVel/84VeVjeecdZ8ySJWHSbRbaEn/AH9dt1HyjhYH&#xA;/WxVnX5OP/jv8ztW8yFhLpWnahd6uG3Ia6uQbDTY2HRvQsbdpVPYy/LFXjH/ADlP55Hmf81Lu0t5&#xA;Oen+X0/RsFD8JmQlrlvn6pKfJRirx7FX3hZaNN5c/wCcbNK8vWoMWoatY2mmqB8LLda7MkUpHvG1&#xA;2zfRir1+0tbe0tYbS3QR29vGsUMY6KiAKoHyAxVVxV2KsE8lWUGnS67+Xt+iy2NoXudJhk3WXR9Q&#xA;ZyId+ot5fUgI7IEr9oYq+EvzT8iXfkXz1qnlyfk0NtJzsZm/3bayfFC/hXiaNT9oEYqzf8if+ceb&#xA;n8zbK/1e71L9F6NZym0SSNBLNLchFkKhSyhVRZFJJ61oO5Crzjzv5Xl8q+btW8uS3KXj6XcyW31q&#xA;PZZAh2bjVuJp9panidsVfVf/ADhNo8sHkrXtWcEJf6gkEde4togSw/2U5H0Yq+W/MHme7P5h6n5o&#xA;0ycx3TatPqVncrQkOblpo3G1OtDir6N/J78zb/ylf6S+pNbp+XHniSa8t9QCvDDpeqyAm6shyLBI&#xA;VuEZEDfslX5fbxV7h59/Kfyf55RZtRE9rfGNYRqmny+hcNb8ufou1HSSInfi6sB1FDirLbzT7C9W&#xA;Jby2iuVhkSeFZkWQJLGapIvIGjKejDcYqgtd81eWfL6wNrmq2mlrdP6dsbuaOH1H22TmVrSu+Kvm&#xA;/wDPnXNP/Kf81dI84eUDD+mNbguP8SaK7j6vPCTGIpXjTiyGVuZ5VoWQGn2uSrJfIH5paFrOt+bL&#xA;7z75Yg0fz75Y0mdNWChnWfTIyHljCOzrsxUbluQYUahpiry3zhrGuHyJ5Q1G8ee10HzVdzXE35e6&#xA;PGLWzj0eymEsvpIqs7NMF9ZpGYD4q0p0Vez+ZfzR/wCcfNS8u+T4vMvprpV4ItS0bTpIZDHb/V+V&#xA;unrxQclVEbnHxaqGh6gYqynz75h8gXkuieW7nzQuiazqTpcaBc2bJ6wWWN4OcTlJIo/WhlkjjZu5&#xA;+GpGKvNfO/muy8sva/kj+Vdkk+r6ujwazqZLzNai6UxT3EzwH1Dcqv713b7AA2OwCrA9Un0T8ufN&#xA;8f5c6RquqeWJ7OIS2vmpZ447e8vr6BJBJqNuYSGtVZEiSjfuvjJ5VJxVKZv+cqPzy8u3tzo+rmxu&#xA;L+xdre4+s2q8g6HiTW3eJG6VBGx6jbFWE+avzN/Nf80tQi0+6uLnUfUoINF06NxCSDUH0Iq8yK/a&#xA;ep98VQV/+U/ma00+9ukuNOvrjTITdappthew3d1bW6MFkllSEuvGNnUPRiRXcUrRVnH5NeYPM/mq&#xA;wn8i2OsHQNVtrWSfSNft1KXDRRupmtLmaNWmeJYmdouJBQileOwVTvydq8nlj8hPzNiubkzXs2o3&#xA;OlCYk8ppbkQQSmrGpJQu5qemKsr/AOce9Ku/y9/JDzX+Yd1A632owPNp8TISxitVdLdipFQsk8rE&#xA;9uIDYq+UJZZJZHllYvJIxZ3Y1JYmpJPvir7J/JPyzrnlv/nGjVb/AEmzkuPMWvwXd7ZQRCsxMqfV&#xA;7biNq0VBKB74qmX5a2lz+U//ADjZd63dWbwa39XuNTuLeVGVxczH0rVZEYcl4oIgwI23xV8SzzzT&#xA;zSTzOZJpWLySMaszMakk+JOKsg/LryfeecPOukeXrWJpBe3Ma3LID+7twwM8hp0CR1OKvvnzeq6l&#xA;548m+XogPSs5p9evUWnwxWMJt7cMOwa5u0Zf9Q06YqzfFXYq7FWG/mJE+mfo7ztbhjL5aaR9RRK1&#xA;l0q4AW+Sg+16YRLhR3aIDviry3/nLn8uIvMfk2387aWolvtCStw0dG9bT5SG5AjqIWPMf5JY4q+W&#xA;PKP5oef/ACfZXdj5a1qfTbS+PK5hjCMpenHmvNW4PTbklDsPAYqjvy+/Kvz5+ZWssNLt5JopJeWo&#xA;61clvQjZzyd5JW3dzWvEVY/jir728k+TNB8m+UtO8m2T84YYJFJb4ZZ2JrcTEA1HJ5N+y1A8MVeD&#xA;n/nGP8j/AClqE115y83c7SNi8OnXNxBZHgd1WTifWkPH/ffGuKsc/Nn/AJyO8ovYWXk3yNotteeU&#xA;7KkV6t3CyW9zAo2ghjqkqJyo/qGj81UjpUqpL+XH5o6z5TsdX1PyDcA+V7AW93qflHWy0kqzXc62&#xA;x+pXUCcXUFk+JzGfFGpUqs9/NDy9eeYfOmr6v5qhutMeXytNqPkaJ5zG1lf6ciy3ELei/Bp+YZ/h&#xA;LAx79RsqlWv+ZZwJPOfmeNkg85/l5caZpuoMtYxqa27vJCzf7rM5UlKdeQHjRVBa2+naT5R8/aNr&#xA;cIudTudF8m6bp1tTlI+ofUH4GMGhqhUsadh74qyn89vLGo6j+bGpafpMZa78yeVIrdgg+I+jq0Dy&#xA;nb/iiLFU4/5yItv8J6l5W85RwM2i6TYanosiRDk0Ul5YyRWZp0CF/hJrttirz3y1qN/o9p5h/Luy&#xA;06a+80ebPLug6bp9qi/u4RNYzPdz3Dn+7SAXdTt1+k4qr6N5HtdRvPOP5dSXqv5n1ebSvL1lcFGY&#xA;QWHl+C3nubmQDdI3SFFT+aTivSrBVVvPPmn/AJIRa/a+TLGG8tp/MDadbRX5eTj+jdOtvrkhdHRu&#xA;ZnuvlQnYdMVSyX/nMS61GB7fzB5M0/UreUUmhEzKjkihJSaO5Q7CnxKcVY15i84yWPle382eQ7u9&#xA;0LRNS1GazuPKOoGG9sEnjRZ2ltIpleJoh6qghohxalNqUVUbrRvOGq+TrPz7+Y9zfv5MFwLex0mw&#xA;jjt3lZkZ45VhCw20EEjAp6yqz/5BBBxVn+vfmT5o8qfkoLLXtIstD1DX4byx0fQreEQSR2dwqqty&#xA;YuXKJEjeZG9QF5G9I12eqrBf+ccvL/m6HUtU876HZLcyaPbSWWmJKyRxy6lfJ6MKFpWiThHz5yfG&#xA;DSgG7DFU5/Kbzj+cvl6HXJtC0rSr2G41icahFeXMdvKb7iplit63NuXFKbANir05f+ctF0+6g0nz&#xA;J5YudB1syKtzFqjyQ28cbVrKZYreWfwCqLah688VQWvfm5/zj2+rPZecvJEEN86rKuowWlle288M&#xA;ilklhu7dhJIjA/y7HY0YEBVDah/zmDpEXnTQ9K8tafHF5LjeK21K5uIjFIImIStvGjBY0hXejDel&#xA;KKMVe8eevO2geVbSxOvW9xPYatc/o+tvbtdgSPE8gWSGMNIyssbfYRvlirzXVPIH/OKnmOT6zMNH&#xA;srlgGeOG8/Rkqgk/btRJBwr/AJUdcVTbyq35IeQBLaeQ7aHVdcu1Cmy0eT9JX83cLJKXkEEfesrp&#xA;H3xVl/kry1qlreaj5k8wmNvMmtems0MTGSKytIeX1eyhcgcgnNnkeg5uxNKUxVleKuxV2KrZI45Y&#xA;2jkUPG4KujAFWUihBB6g4q830nVU8iWUvlXzVbTv5YgLw6HrYgkurU6e+0dnemMSGJ4Fb0uUiiNk&#xA;APKtRirHItC/5xIhvnuk/wANtdFizW7XEco5VqVFqzso/wBUJ9GKszt/OxurFbTyJoMk1rGpCX95&#xA;DJpOlW6jq1ZY0llA60giZT/MvXFWPeR9bvtD/L7XPzP85X51C8v0lvoJAjQRrp0JK2FvbQsWEazV&#xA;9Rf2mMg5ktvir4W8wa5qGva5f61qMnq32ozyXNw/bnKxYgeCitAOwxVL8VZr+V9xDcXur+WZ3WNP&#xA;MunyWdrI7cFW/hdLux+Lxe4t1i/2eKvrm+1/yD+ZXlXSLTzRHPc2OtXsb6FeWhdWjlntpn4mSAij&#xA;2vGWCVSGp8LOKNUKsuisvIuraDB5Gh0afVPLtvDHZgPby/UkitwERlu5vTSUrx+1E7NX3xVS1/8A&#xA;K/8ALVfNrfmLrluDf2MUDJLNI4t4ntaiKYQqQGkowVQa9BxHLcqsI84+ZYrf/nKzyXp4ccP0VPb3&#xA;DCmz3S3Dxo3uTChA98Vet+abLR9W8s6rZ6rb213YejJ9at7xwkH7tfUUyv8A7rAor8v2R8WKsFh0&#xA;Hz7/AIoHmTTNEsdJ1PUbNbTXb65nWQyyxKiwSiBDchIIR6hEccytI3HmQFriqQi8ufLPl3Uvzcud&#xA;OsNOub7Tbe4vZLVpLm41W6lhSK1FXolpA80iNwiBZtix2IKr5m/MXyp5ji0myuri7GoX8Yn1Lzbp&#xA;6MGubDUtQkWSSW5gA5RI8Jto2anFZVKHi1OSrBdA0PUNd1i10nT053d2/BK7IigcnkkbokcaAu7H&#xA;ZVBJ2GKs2lkWe7vNSuI49X8j+Skl07RY5Sba3uZJHdbXiqsrSSzTSfXJ0DcmRX3CgUVepaD+bF/b&#xA;/khPrH5kWC+YUvdTaLytYT2zQRzPAY7hpJXjVITaxSAKiKv7LR/ZFFVePafD5x/NjzwX1XUWudQn&#xA;T1L2+lXkY7eKgIht4VBdt6RwwpVmNAN8VeyeVbXyn5v8t+W7fyxbyWsHlTVYpLG3uGjNz6sF6s11&#xA;JOVP2r6yf1wpqFa2dE+FTirzfX9Kv9X0G40vToWuL69866hDbwr1Z3hjA+Q8T2xVlnnrWZNX822X&#xA;kyBbCDy7p628/mCHUVDxW7ovGK09ZWW6ElraCO29KCVZHlDjdmbFUj1/SjFOulyWijyA1zPBaWt/&#xA;IZLzyzNeyNDDJfPEBcWw50uPQkJRxUENIpYKvKdZ0bUdG1KbTdRhMN1ARyWoZWVgGSSNxVXjkQhk&#xA;dSVZSCCQcVffOoXov/yx8g61JV53vPLNyj14nneT28DHufsXLV+7FXo17p2n30YivbaK6jG4SZFk&#xA;WvyYHFW7OwsbGL0bK2itYa19OFFjWp70UAYqr4q7FXYq7FXYq7FXYqxD8yJZb3TrTynauyXnmib6&#xA;jI6Hi8Vgq+pfyg9v9HUxq3aR0xV4V/zmT57hsdL0n8vdLKwxyKl7qMUVAqwREpaw0HQclL07cVxV&#xA;8n4q+mP+cd/zo/J/yx5OHl7zRZiw1H15ZrjU3tTdRXAZqxljGskqsinhThxoK13OKsU/5ya84flP&#xA;5h1XR38hQwG6t1nbVdQtLY2schkKGJTVI2kdSrktTavU/sqs1/J/zL5fvBcQC6XSfLXmjUDLYxKw&#xA;MugeZBWSBI2biDDdRIzRMVAPExEbMSq9Y1Tzh5y0H8wA8ul6hrFmmlmDWYLKCc24kglDW17Zhg6M&#xA;Z/rRjliVuScTUsqBmVTLQtJ89a7BZ2PnaP6vDpN6NTupVMTRXxLtcWlunpsCiWblRJzQcyi0qC2K&#xA;vAdZ84xm/wBN/MzUI5INQ17zNYavZ2bo1IdA0oS2HIzEBeUj3Aqo9m6EYq+nPMPlG6v4tbisrhPq&#xA;fmO1NpqdpNyChpIxbNdROvKji3+ExlaPxX4k3JVUU0bztqGlT219dwaZJfWyWkotmac2yxkq8kJZ&#xA;Iuctwjt8bUEdE+F96qvC/wA0PzB1K9tr6+0fTUh8j/ltc/VdPglPNNR1SBlsoJAoBH1ewklWXfkr&#xA;nipoXHBV5JpOrat5jt7LzbqmrS/WYbqLyt5puVQetJpeqRyolzNKT+9l9L14quNuEffFUlktr7yF&#xA;bea7OeBm1O6uLny1a6iKCJUtpFOpNHUE82Qwx9R8EjYqnuieUJ/Ol75f8gaTKbLRtGgN95j1mSJi&#xA;kN7expJdNMnw/FDwS0RS27IWqAxoqyr8ti/n3VvNSXNlcv8Al+bWDTLTSYaSmBoEI05o6cphNFHC&#xA;7s8MMjEluS0Y4qnn5Uf84+XVp5s8wWlxfw6r5V1HS3tdN8yadOkbLerd29zB8CvJLDNE1sWIoQKU&#xA;qa4qjfK9mmh/mFrtxqt8zyvCl/q8TW62Qvf0OTJNf2yBmR5ecE1rdxAn4pJJUdkPEKpd+UcXlrU4&#xA;tee4v4op49f1WWO5EqqttYXFpxur5iD9kQK0UbdOcgPbFVGx0XzPb2NmNNgWw1S9aS+lvdUikkmj&#xA;1C5qY9TupY1cvqMkUkn1SwhjkaFGMjEt8RVSTSvLXkfynqWo+VrzXJ77zX5rKaGfUhJjtYb+SNZJ&#xA;7629RVSWN/3sf+kOwIUvGjdFUj0P8t/On5l/VPLVhZxR655NabS9Z1K5mCRra+sTaI60Ls0Ti4Qc&#xA;QfhCjagxV9Y+ZdPj0/SvIXkW2kE12L/TOKrRT9V0Lhdyzld6JW2RPm4HfFXo2KuxV2KuxV2KuxV2&#xA;KuxV2KsD8uXtvqPmPzL53vZBHpOliXRtKmavBbaxYvqNwD4SXSmM+0K4q+C/zH843XnLzvrHmS4q&#xA;Pr9wzQRnqkCfBAn+xjVRirG8VdirsVep/lh+XXmzU/LfmDVJtCmu/LF1pN81tdOCE+vWcbS200Hx&#xA;KTJHJGycwDszp+0Rir6J/L/S/wAytY8geX/MugebJNQE1vZBNPuXcBmgj9O6W4nkMvLjeBy3FAzI&#xA;OHIjiAq1+cd7+Yel/lPb2nmPXY7S+v8AWrbTLq80tCslzp8wKuFoq+nI/FpCq/s/BU71VYFpaebf&#xA;MtvL5W87aVBp7azBPpOkXlrJbnSI2dfWs7cLatJbQ3dtPbRJGCyu8PJW5OqclXovkfWfzR1f8qfK&#xA;d5ZWst9f2lrfRTqtzHB6l/p9w1rZi8keWN3hpCWkVCfUagai1qqnv5gecfMulflp5zn1+0l0eWG2&#xA;ltdE1K3liDXElxCkNuY1hlmlSU3Dt2HFaEHqQq8l/MLTPL3lzy15Ls/Mdlb2MugWMaajpDqTJe2F&#xA;08NnqLgQp6AkSeT6xG5dpCw9SikYq8q0/wAral5b0T8x9P1Z/S0eKBLG1vieMFzqVve29xaiAE1k&#xA;d7b1HHEEoj/FxDYqmGnebINe14/mP+YduZfLWlylNI0GKMmC+1AqGMK1UxbkCa6kf7RoCDyAxVKt&#xA;D8++Z9d84a1fxvLbWU1jruoNp1qWW3hd9KuoxO6rxDyjmFaeSrud2Yk4qn/5ZaV5p1z8qm0jyzdH&#xA;Tbn9N3U+oagmnapcz+n9Tto4Y4LuwtLpYq85hIvNW4kD7LEFV6j+VvlDzn5Z8z3epea9c1DXo9Qs&#xA;mtJ0aDUEuixZWT07m9W2lVRxIIVlr+pVD/mRZ2afmB+Xmj6raXMHlS91OWcnULaC5kmuQkcawc4X&#xA;ubieOZikbrNUsDQlgBxVYNrnkSw8uflT5qv9f0+10rX21pZ/LskL28/OJ3jpZ8oDJG8fpiRjC32e&#xA;ILKKiqrO/Onm65tbqCTzD5cv7GCG3eK2gvfNNjaetDLQyUuIi97dpJtyT1nj/wAnFWOeXv8AnITy&#xA;n5frF5f8teX9ENDHI7PcyOw6ESS2+m85B/sjXFWW/lKvna582fnCumNZaZ5rvF066geBWltEuZY5&#xA;5QAJ1Rqv6hqXT4WNSrUoVXr/AOWGlaFLo8Hmm3a7vNY1eALqGoapJ6t6rRuwktW2SOFYZg6mKJEQ&#xA;MOmKs1xV2KuxV2KuxV2KuxV2KpD551u50XytfXlkofU3VbXSom6PfXbrb2qH2M0q19sVeP8A/ORu&#xA;t235e/khZeT9Nmb61qiJpccp2keCJQ95M1Opl+y/j6mKvinFXYq7FXYq+5f+cTPMUOu/lBFpMrD1&#xA;9DuprN1FOXB2+sxPT/nqVG37OKsXg/NLzp5IF35b0DQdOtdIsm1G+sVvHlPJ4Lml/ptusPCsovZn&#xA;+r1/3S0fwmtSqxz80fzJ88axqvluz1Cz0zXrTRk0/wA4zDSxLBGYyi1t5RJNc1YNOoUqfiDr8PxU&#xA;xVkvk7TPOlhql3Y23mttUnsoGuILnVNN1e4n9COZY/3F1GljNcxFuPwCSSLuB3xVZe/mv5y/L66m&#xA;8taVa6S2lTXsk9nPc+tK+npqDR6nK996MiIYv9MmjiKla+k32uJxVLPMH5p+Y/zA0CPzHP5YuhF5&#xA;PisNVtNERJJIdQv7xpEivZlC8/qVsbaXiqmrE7tSuKvOvzO/MH83vNXl9rrzV5RS00xox6Gry6Zc&#xA;RmOKWRG/cXU5birsE+yd8VSrzhMqx28n5iarPqvmO1sYotJ8vWHpLBaxCNfRF/OtODEbvFGpkI+0&#xA;6EghV9LadoPknz1/zjdY3N9pi2+mRae959U0wBGgmsi4l+qeqXo/KORV5sa8jzLVJxV86flnp2n+&#xA;X/NGsyahqUEfljUbSTR7fU53WBb201O5itDPCjnkfShkaeQf7r4Ueh2xVR8p+UNY8w6Nq35aF47D&#xA;zRpOqC/srS6dofVDJ9Wv4wtCzsixRSqqqWKq9AdsVZl+Xvlr8rPKvmzQb611KfzDqzSr6b2s0cn1&#xA;dGb95qEsNoZUtIbaOrt688jEfahUVZVWaeb9BtvPEdxauUm0RmZdH8yxiH65f3trAzeq94U+r2lh&#xA;FLIlugij/eSMvA0auKoNfyq8t3Gv22qv5s1jWk0wJJoN3dzJqTRubK11Gxf6q0bGSGd2mQRrTmQi&#xA;KeR3VYv5t8/6ppmnafdyaNYXuiSlJte0SaOFbgFjT1hEFk0+W1uC9be/htK78C/Ld1Ui0ny7+Rfn&#xA;DULnULee50LkrXMvl9LhYmtoreMPcNC91FNFcgqjv/vREw7JQUxV61/zi7r2sa75488eZJ7IxaZ5&#xA;nmNxa3BBAU2MlBEtetI71Qf9XFXpHkbzZ5V0jzD5s8tXmrWllfDXbi4sbG4mSGSSO8ihuHaNJOBY&#xA;G5kl+zXeuKvScVdirsVdirsVdirsVdirDNblGsfmRomhD4rXQ4JNe1AUBUzPytLBG+lp5fZo1OKv&#xA;kj/nLPzodf8AzTm0yF+Vj5dhWxjANVM7fvLhvmGYRn/UxV4riqZeXPL2r+Y9cs9D0eA3OpX8gito&#xA;QQtWO5JZiAAACST0GKph578g+ZvI2vHQ/MVutvfekk8fB1kR4pCQroy9RyVh8xirHcVfQn/OGXm9&#xA;dN8+6h5cmfjDr1rzgBPW5s+UigD3iaQ/Rir37VfJOh3v5qrbarGTFdGLzPocgPFo9S0/0rW7C0NC&#xA;pjFpIUIILAmmxxV49PqnkTylqXkDXNV8vG20rzNA2rJcx3rfV7a8uVtndJbdoXMltamK2aFeVE3N&#xA;HKgYqg9R8w+boVSDU7hr+bXL2HSZND0uVLS1mvJn/wBIsBcsZrm6KD00ub3mxQkwKSJTIqrPDB5U&#xA;82X17o0+nx6aLLWdNuNW1SAhIr8R6a5hf05OfpWr23EiMu1FJFdy2KoSy8nap5F8gX15a6pPqEWs&#xA;W9raXXmD0WtpNHgsIOFnILON5mKwSyP9YdJeS1LBTxbFUD+efnbyNJdr5UgqLS5RdY8zzWkxaEW1&#xA;vS6it5FhPoST3syxokr1K8lYludAq+WfMmuXWv8AmDUtbuwFudTuZbuVF+ypmcvxX/JWtB7YqyfQ&#xA;vzn/ADA0PyPe+StPvlj0K+WVHRo1aWNLgETJFId1ElTX57UOKsGxV6L+mNfvLTTPzG0hkXW/LRt7&#xA;LWuBLysIFCWl9MhABjnipbSdfiSrH96BirKfyo8veUdSuootOt72403V9WsdM1EyXCRTmG55XBsJ&#xA;IoSS1rH9X9SW4PEzMiRqkQLsFXuH/OR+vaTovku+0kwolraWKwQwx0Sst6rw2cCcVooRomuio2At&#xA;1Apz2VeVDzMdC8z+R4ZJhb2muaFpNjLdP9m3lNjpslrdGpA/0e5ijkP+SGHfFUH5G0rzXD54ufy3&#xA;tHXVNMsElutOv7iATQtpV3EJvq91R1KWV6ssTuFLNHLxZBy5clUg0rQ7Ox82Xfkry7Y3MHmfzC76&#xA;VqLXSi4Oh2jzMl5FG0f+9XK3Xk04CfuiVAqxoq+i9P8AzN/I/wDKLy3aeXk1mK8u7CBIJIbBRczu&#xA;6lnk9RoiYlZpXdyrOKFqYqjfKP5/flF+Zuonyq1vKZrxXWKx1i2iMVzxBLKtHnQniK0an34qyLyo&#xA;reUvNknkhpZJNEvbZtR8rGZmkaFIWWO8sRIxLMsJkjki5bhXK9EGKs8xV2KuxV2KuxV2KuxV5t5S&#xA;1WK1s/P/AOYF8P3D314IXr1sNBja1UDwBmhnf/ZYq/P3U9QutS1K71G8f1Lu9mkuLiT+aSVi7n6W&#xA;bFUNir3H/nDzRBf/AJui+YbaRp9zdKx/nk42wA9+M7Yqz3/nODRIzb+VtdRaSK9zYzvTcqwSWIV/&#xA;yeMn34q+UcVTfyj5juvLXmjSvMFpUz6XdRXKoDTmI3BZCfB1qp9jir7/APzB1G2/w7oPn7T39S20&#xA;S5ttUaZRu+l3a+hd/wCxFtcet80GKsK82WXlW7/5xs0/VtV0hNXt9M0u1KRiiSqnKOGVoJeLGJ1W&#xA;rK4HbcFSylV4N5D1TW7XVvqekW1t+Ymm6MAdMuLZTDq1pCxPM2cc6pe0WOR/hVHijkYOp5AEqsmg&#xA;81eXIo/MdnfHzGt75ouJWntJtI43Fir2NxaRRQqs/GRY/WjWNP3YVVA27KslvPNH50Xnl2DSvLWi&#xA;XejaVez2djc+Z/MUa29ybi99Kz9RbXlMyC4umMjOFko8pNR9rFU0f8rvJlj/AM4z+YX0OBbi8l06&#xA;aW91Z4ys88mmz+pISXUSLH6lpVYzso96sVXxxirsVdiqN0nWdV0i5a5026ktpXQxS8D8MkTEFopU&#xA;NVkjanxI4Kt3BxV6r5T8p+YPNCXXmf8AJ9b7SNYtmig1rQ4p/SiQTkyA213I6LJbl4QWhnPJdt3A&#xA;riqYefPMPmq9tIdK/NvynqYltZmuJNb0uRLUTu0SRiWT9zcWdxwjjAUoVpVtwWbFUu8wecPyx82Q&#xA;aTYjRPMN3Jo1vDZ2Udo9rFLNFDaW1svrOIro1rak/Cn7WKo/zX5l/Mf67bvqrWf5a2lzKypdKTFq&#xA;0ds7PIkEi2wfUzbRh2WNfSWIfCp6LirzzzB5st7eJ9E8qyyQ6QEeO71Voxb3+pGahmN26PI3oltk&#xA;h58eIBYF6nFWJYqmHl/W73Qtd0/WrFuN5ptxFdQGpA5xOHANOxpQ4q/Qbz1e29xo3lLzlabLY6pp&#xA;t1HIBVjaaqy2Ew27ele8z/qjFWfYq7FXYq7FXYq7FXYq8lsvLt15r/IrVfKOnTrZ6yovtLuuYCBL&#xA;2G6cyLKF5cVn+1/qOGxV8P8AmryX5q8p6i2n+YtMn025UkKJl+B6d45BVJF90YjFXt35Uf8AOKth&#xA;568gaX5ql8xS2Emo+vytEtVlCehcyQbOZUrX0q9MVeuflz/zjhq/5e3d5d+XPOPpz30aRTtPpscv&#xA;wIxYBQZxTc4qmX5h/kf5o/MDR4NJ8xeckktba4W6hMOlxROJFR4/tCetOMhqPlirz7/oRzSv+pun&#xA;/wCkJP8Aqtirv+hHNK/6m6f/AKQk/wCq2KvTNI/KTzppnk5PKEXnRJ9ES1ksfSuNKikdreUMrRs3&#xA;rio4vxHtiqG/5Up5sPkH/AjedA2gfVvqXA6XF6vog1A9QTjceOKvPV/5we0xWDL5vuFYGoIskBB/&#xA;5HYqySH/AJxp86Q2y2sP5s+YIrVV4LAjzrGF/lCi6pT2xVmMn5aefH0mz0o+dIvqljJazQL+iYuX&#xA;OylSaEs3r/F8cSk164qo2f5VedbTy7eeXofOcf6LvjeGeI6VGTTUJZJpwrevUAtO1PDFXl//AEI5&#xA;pX/U3T/9ISf9VsVd/wBCOaV/1N0//SEn/VbFXf8AQjmlf9TdP/0hJ/1WxV3/AEI5pX/U3T/9ISf9&#xA;VsVeieQPyU8z+QtFbR/Lnm6KC1kma4meTSo5JJJGAXkzmfsqgAYqjPM/5X/mN5hsVtJfzEn02kqz&#xA;NcaXYixncqjIEeWG4VmSj/ZO1QPDFWLD/nG/zyFZR+bnmEK32gJLihr4/wClYqxlv+cHtMZizeb7&#xA;hmJqSbJCST/z2xVr/oRzSv8Aqbp/+kJP+q2Ku/6Ec0r/AKm6f/pCT/qtirDfzW/5xWTyX5XTVtM1&#xA;qfWb+e8trG204WoRpJLl+CKpWRyWLUAFN8Ve++ZdLvdI/IXRtEv1CanbW2gadJCCGrdLc2kJRSPt&#xA;fGKVxV6pirsVdirsVdirsVdirEfMHkvUv0rN5i8pagukeYJ1Rb6KeMzWF+sQ4xi7hBRg6j4VmjYO&#xA;BseS0XFUBdecLtbRrHz15Ou0gIPr3FlB+nNOcL+0FgRroDv+8thTxxVr8jDZH8t7Q2EaxWP1/WPq&#xA;sSxmJVi/S93wURkKUAWnw0FOmKs+xV2KuxV2KuxV2KuxV2KuxV2KuxV2KuxV2KuxV2KuxV2KuxV2&#xA;KvOfzxuJLfQfLtxFbyXcsPmbRZEtYSgklZbxSI0MjRpyYig5MBXqRiqPtPKvmDzBrljr3m9ore30&#xA;uT6xo3lq1YyxQ3HEqtzdzkL686BjwCqEj7cj8WKs3xV2KuxV2KuxV2KuxV2KuxVhX5Pf8oQP+2rr&#xA;n/dZu8VZZqen22paddafc8vq93E8EvBij8ZFKkq60ZW32I3GKvI9Lj/NbRDocQ+vX13qcom1i6kh&#xA;ilSSZbuG3MdySa20SaehdDHTk4O5Y8SqyTSdS8+arb+ZrPVNPubRLbSoreweRI4/rF+TeLcyQNGS&#xA;SlBAFrTxGxqVWNJrn5zWi31nbadcubKxCwRtbRNEESC29OW3nZqz3TM0/KJzSqjoN2VRGg3X5qP5&#xA;x0rUL22uP0FcxC11C5kgSO6MSXl4bSR7avpxF4zF9YKryUEUVd+KrItO1H8xj+bGoWd1CT5IFufq&#xA;khhRAswjt2VllBLPyZphue32VoC6rEfJ0X5qz202l6hBe20Fpc0tbmeNIWjd2vd4nV2M0QjNuxaT&#xA;bmSKbUCqZ3w/MeDyf5Wv7KK8v/MVjpl2b8XCIJvrRt1UCSOqI7hw3p1+0QK1rirVhrX5v3WpeX7U&#xA;W9xFplxLdG91K4tIIpmtlnKQm4iJpDKIfjCgJXr8RrFirJvIuqa9aeStEt9ftNSutahsoU1KeWJD&#xA;I1ysUhlBIYcuLwceX7XJDU8icVYdf+U/PsOveZvOmkvLFdQSXB0vTQsjT3UctnboAVknFsVicO0a&#xA;GKvqDrTYqojRfMH5uy69pMN3a3f6NlkHGWayhjE1qbu4SV75lINrMlosMkaKF5MSCN+KqpVeeYv+&#xA;cgR5WmktrOX9Px3EXrRvYwBFcx3LTW0BWWQS26ukASalW5GrLuyqon84PL/nXV9a0m60a2ujcJbW&#xA;pj+rCVVW5F9G8imdJY0t/wB1Xk7o/wAO1MVTHTb/APOe817UrO752OmHV4Usr1bWDklgfrvqgBjI&#xA;pFIbajEt9vr1VVUXonlTX9N8q+d7W/ee+XUJ76TTYRJPJMVdWCcA1CgY8eIVmPcua0VV2tW/nOy8&#xA;p+T28uWk4uLFIxqkRHK5it/q3CcpHKeMk439NZDQt49CqoahrH5vQDWpo4Xns3klbTlt7NDdQW0O&#xA;owxVjEj8ZpZLGSWVVdeqqKdQyqX3HmP88reCzlh0x7tIoYtQuFMESS3ES3D28lmycv3Vw8DR3O3c&#xA;Mm2KvV9Hj1CLSbKPUpRcailvEt7OFVRJOEAkcKtFHJ6mg2xVhf5yf8c7yt/4Fehf9RyYqz/FXYq7&#xA;FXYq7FXYq7FXYq7FXYqwr8nv+UIH/bV1z/us3eKpn+YN7r9j5UurzQZPT1CCS2fmLc3ZEH1iP6wf&#xA;QUhnpDzJC706b0xV55D52/NPTdH1wpYx38n128l0O4mtb2Rlt21yW2CzxowZ1EDB4lQrxjC/ariq&#xA;Y6b5988R+UfNvmPVYEgubDQ4NZ0rTJ7OaKOKRtKW5ljaUsplRbpXRlqHWh3G1FUqHn780GsptY/R&#xA;3K7t7K6S2hWzv0s5m+vWSJM1q9LhWjilmBBYfYYg8cVRNl+aH5myzWwl8uKJJtLjuo9PW0vFkuLg&#xA;2E9zM0c7H0okjuYo4PRkHOrj4qlQVWUflh551nzDpUS+ZLP9H63M901vCtvcW8c1taGFJJkScuUA&#xA;kuVSjP8AF9obVoqxC2/MD804brQ9LubJb4Xf1uHWrz9HXdvLFKk0kaemysYV4AI3KhDAih3BZVBa&#xA;f+aP5r2WheWY5fL0lzfTOINWims7x5lSNbZYR6yuVaW5SZ5/WKhFoUZeSs2Ks9/xb5t/5Wt/hv8A&#xA;RyHy19VEv1/0Lj1BKULgmev1fiSpXjStR1O4VVJvNvmn8x9OS41Ky09L5La61CPTtOt7e7EhjtbO&#xA;4aN7krMRMJZVTiqxjp8NWYcVUii/Mr80bK00Jo9FbUW1XUr1b6Z7K+T9wl9FBCsMTsJLUPDK0qmf&#xA;kAq08WCrKfN3nrzjpXm86VpumrcWf1dJYVNndTNOWiuGlkW6icQxrA8UQaNl5Ny2IJXFVaz81efh&#xA;+X+tape6dbHzNp8fOztYYbgW8zSWcN0i+mzGU8HnMTcW3KE7fZCqUp+YP5jadDqNzr2mWZs9NM88&#xA;9zawXaD6np96kF3IFd3+OS3dp4VBOyftcvhVQ35k6z50vfy58talbPNpeo6jcme8Fkt8PRhl068l&#xA;gjmFl61x8MvoK3GoMnttiqXW35kfnDp6xac3lt76SDy7BcB57a6+tSamtpHJJ6rx/uXBkLAxoFYs&#xA;Co3BAVR9j578/TeZdDuWtGm0W8SS31C/hs7xLYKl3IkUyWcrLLE1wFVA7OypyDnknRVLn/N782hp&#xA;GmX8flb1Prl9LDKgsrwMIkS34QCMyc0kaSaVPWYcf3Z+DFU3s/P35jXmvalBc2aadpWmazbWyXCa&#xA;deStNZTTXcDhy7AGhhhb1YxxHOpAGKs+8kDUh5R0ganM8+ofVYzczSiRXZytSWEqpID/AKyg4qxv&#xA;85P+Od5W/wDAr0L/AKjkxVn+KuxV2KuxV2KuxV2KuxV2KuxVhX5Pf8oQP+2rrn/dZu8VZrirsVU7&#xA;i3t7m3ltrmJJ7edGjmhkUOjo44srK1QVINCDiqpirsVWmOMyLIVBkUFVeg5BWILAHwPEV+WKrsVd&#xA;irsVdirsVdirsVQ2paZpuqWUljqdpDfWM3H1bW5jSaJ+LBl5I4ZTRlBFR1xVEgACg2A6DFXYq7FX&#xA;Yq7FXYqwD85P+Od5W/8AAr0L/qOTFWf4q7FXYq7FXYq7FXYq7FXYq7FXmHlC/wDPnljSJdHk8j6h&#xA;fenqGp3Ed3b3mlLHJHd6hPdRsolu43HwTCoZQa4qnX+NvO//AJbzVf8ApN0b/stxV3+NvO//AJbz&#xA;Vf8ApN0b/stxV3+NvO//AJbzVf8ApN0b/stxV3+NvO//AJbzVf8ApN0b/stxV3+NvO//AJbzVf8A&#xA;pN0b/stxV3+NvO//AJbzVf8ApN0b/stxV3+NvO//AJbzVf8ApN0b/stxV3+NvO//AJbzVf8ApN0b&#xA;/stxV3+NvO//AJbzVf8ApN0b/stxV3+NvO//AJbzVf8ApN0b/stxV3+NvO//AJbzVf8ApN0b/stx&#xA;V3+NvO//AJbzVf8ApN0b/stxV3+NvO//AJbzVf8ApN0b/stxV3+NvO//AJbzVf8ApN0b/stxV3+N&#xA;vO//AJbzVf8ApN0b/stxV3+NvO//AJbzVf8ApN0b/stxV3+NvO//AJbzVf8ApN0b/stxV3+NvO//&#xA;AJbzVf8ApN0b/stxV3+NvO//AJbzVf8ApN0b/stxV3+NvO//AJbzVf8ApN0b/stxVIPN0/nzzU/l&#xA;+yXyVf6dDZ69peo3V5c3mltGkFpdJLKeMN3JISEBNFU4q9UxV2KuxV2KuxV//9k=</xmpGImg:image>
               </rdf:li>
            </rdf:Alt>
         </xmp:Thumbnails>
         <xmp:MetadataDate>2018-08-18T13:59:43+02:00</xmp:MetadataDate>
         <xmp:ModifyDate>2018-08-18T13:59:43+02:00</xmp:ModifyDate>
         <xmpTPg:MaxPageSize rdf:parseType="Resource">
            <stDim:w>1178.000000</stDim:w>
            <stDim:h>948.500000</stDim:h>
            <stDim:unit>Pixels</stDim:unit>
         </xmpTPg:MaxPageSize>
         <xmpTPg:NPages>1</xmpTPg:NPages>
         <xmpTPg:HasVisibleTransparency>True</xmpTPg:HasVisibleTransparency>
         <xmpTPg:HasVisibleOverprint>False</xmpTPg:HasVisibleOverprint>
         <xmpTPg:PlateNames>
            <rdf:Seq>
               <rdf:li>Cyan</rdf:li>
               <rdf:li>Magenta</rdf:li>
               <rdf:li>Yellow</rdf:li>
               <rdf:li>Black</rdf:li>
            </rdf:Seq>
         </xmpTPg:PlateNames>
         <xmpTPg:SwatchGroups>
            <rdf:Seq>
               <rdf:li rdf:parseType="Resource">
                  <xmpG:groupName>Default Swatch Group</xmpG:groupName>
                  <xmpG:groupType>0</xmpG:groupType>
               </rdf:li>
            </rdf:Seq>
         </xmpTPg:SwatchGroups>
      </rdf:Description>
   </rdf:RDF>
</x:xmpmeta>
                                                                                                    
                                                                                                    
                                                                                                    
                                                                                                    
                                                                                                    
                                                                                                    
                                                                                                    
                                                                                                    
                                                                                                    
                                                                                                    
                                                                                                    
                                                                                                    
                                                                                                    
                                                                                                    
                                                                                                    
                                                                                                    
                                                                                                    
                                                                                                    
                                                                                                    
                                                                                                    
                           
<?xpacket end="w"?>
	</metadata>
<title>T_e2_ride</title>
<g id="Layer_2_1_">
	<g id="Layer_6">
		<g>
			<path d="M771.5,767c-4.1,5.4-7.7,10-11.3,14.6c-8.7,11.6-20,20.3-32.6,27.2c-17.6,9.6-35.7,18.6-55.5,22.7
				c-10.5,2.2-21.3,3.5-32,3.8c-13.8,0.4-27.6,0-41.3-1.1c-6.1-0.5-12.2-2.9-18-5.3c-6.5-2.7-10.5-8.3-11.8-15.2
				c-3-15.6-5.5-31.2-8.1-46.9c-2.7-16.6-5.2-33.3-7.8-49.9c-0.9-6-1.7-12-3-18.1c0,0.9-0.1,1.9-0.1,2.8c-1.3,18.3-2.8,36.7-4,55
				c-1,14.9-3.5,29.5-8.1,43.8c-4.7,14.5-14.1,24.6-27.8,31.3c-11.4,5.6-23.5,9-35.9,11.2c-14,2.5-28.2,3.4-40.7-5.6
				c-3.6-2.6-6.4-6.1-9.5-9.3c-1.1-1.1-1.8-2.6-3.1-4.6c-3.8,9.4-9,16.6-18,19.7c-6,2.1-12.4,3.9-18.7,4.3
				c-23.4,1.3-46.9,0.5-69.8-5c-6.5-1.6-12.8-4.4-18.9-7.5c-11.3-5.8-21.8-12.7-27.9-24.4c-2.2-4.2-3.7-8.8-5.5-13.3
				c-0.7-1.8-1.3-3.7-1.6-4.7c-5.4,4.3-10.4,9.5-16.3,12.7c-4.9,2.6-11,3.9-16.6,4.3c-22.9,1.2-45.4-1.4-67.1-8.9
				c-13.4-4.6-26-11-36-21.3c-8.4-8.6-11.3-19.2-10.5-31c1.8-25.2,10.9-48.3,19.6-71.6c7.5-20.2,14.6-40.5,22.6-60.5
				c5.3-13.4,12-26.2,17.8-39.4c4.8-10.9,9.3-22,13.9-32.9c1.4-3.3,2.9-6.5,4.7-10.5c-7.9,3.7-14.9,6.9-21.8,10.3
				c-20.2,10-41.6,11.2-63.2,7.4c-12.9-2.3-22.9-9.6-28.7-22.1c-11.3-24-22.9-47.8-34.3-71.7c-12.4-26-18.5-54.2-26.5-81.6
				c-5.7-19.5-10.9-39.2-15.6-59c-1.5-6.2-1.5-13-0.4-19.3c1.4-8.2,3.9-16.4,6.9-24.3c4.7-12.4,9.1-25,15.4-36.5
				c7.2-13.1,15.4-25.9,25-37.3c10.6-12.5,25.3-18,42-18c10.5,0,20.3,1.7,29,5.9c3.5-9.9,6.1-20.1,10.6-29.3
				c8.1-16.5,19.3-30.4,38.8-33.9c6.3-1.1,13-1,19.4-0.3c9.3,1,18.5,3,28.2,4.7c0.1-9.3,5-17.8,10.2-26.3
				c5.3-8.7,12.2-15.7,20.2-21.7c8.2-6.1,16.3-12.6,25.3-17.3c20.8-10.9,42.4-20.2,66.8-17.5c5.5,0.6,10.7,3.4,16,5.2
				c1.7,0.6,3.3,1.5,5.1,2.3c2.3-4.1,3.9-8.2,6.5-11.6c6.7-8.8,15.6-15,25.7-18.8c11.1-4.2,22.5-8.2,34.2-10
				c21.1-3.3,31.8,2.6,40.3,25.5c2,5.4,3.4,11.1,4.6,16.7c1.2,5.6,1.9,11.3,3.1,18.4c3.9-8.4,6.9-15.9,10.8-22.8
				c6.6-11.7,13.1-23.5,20.9-34.3c6.6-9.1,17.2-12.6,28.2-13.9c19-2.1,36.3,2,51.6,13.7c1.2,0.9,3,1.2,4.5,1.2
				c23.1,0.7,46.2,0.7,69.3,2.3c20.3,1.4,39.7,7.4,58.2,15.8c13.3,6,26.2,12.7,39.1,19.5c3.9,2,7.7,4.8,10.5,8.2
				c3.9,4.6,9.1,6.2,14.4,8.2c18.3,6.8,36.8,13.2,54.7,21.1c19.3,8.5,33.3,23.2,42.9,42c0.5,1,1,2.1,1.1,2.1c10-1.8,19.5-4.7,29-4.9
				c28.8-0.7,51.1,11.8,66.8,35.9c2.8,4.3,5.1,5.1,10.3,4.1c7.4-1.5,15.4-1.9,22.7-0.7c31.8,5.5,61,18,87.7,35.9
				c12.2,8.1,23.1,18.2,34.6,27.3c13.7,10.8,24.2,24.5,34.8,38.1c10,12.9,11.4,28.3,10,44.1c-1.4,15.3-6.4,29.7-11.7,44
				c-4.5,12.3-12,21.8-25.3,24.3c-6.9,1.3-14.2,0.7-21.3,0.2c-3.2-0.2-4.5,0-5.8,3.2c-8,19.9-12.3,40.8-16.8,61.7
				c-2.3,10.6-5.1,21.3-9.2,31.3c-10.4,25.2-39.4,41.8-67,36.9c-11.5-2.1-23-3.9-34.5-5.9c0.7,6.6,2,14.5,2.4,22.3
				c0.7,16.5,2.4,33.2-4.3,49.1c-4.5,10.7-13.6,15.8-23.6,19.9c-1.8,0.7-3.6,1.5-5.6,2.3c11.3,15.7,17,32.8,14.8,51.8
				c7.2,1.8,14,3,20.5,5.2c10.5,3.6,17.2,11.8,22,21.3c8.9,17.4,14.1,36.1,15.6,55.6c0.7,8.9,0.7,17.9-0.3,26.7
				c-1.5,12.4-9.8,21.1-20,26.9c-12,6.8-24.7,12.6-37.7,17.5c-24.5,9.2-49.9,15.5-75.7,19.7c-22.7,3.7-45.7,4.2-68.6,3.1
				c-11.1-0.5-22-2.7-32.2-7.6c-11.8-5.7-16.6-16.1-18.3-28.3C773.7,787.7,772.7,777.9,771.5,767z M211.2,506.9
				c0.4,0.2,0.8,0.4,1.2,0.6c-0.4,1.2-0.7,2.4-1.3,3.4c-4,7.3-8.6,14.3-12,21.9c-22.3,50.2-45.6,100.1-62.8,152.4
				c-6,18.2-11.4,36.6-15.8,55.1c-4.5,19.1,2.4,34.2,19.6,43.9c7.4,4.2,14.9,8.2,22.9,11.1c19.3,6.9,39.4,9.6,59.9,9.4
				c19.2-0.3,30.3-8.6,36.1-27.1c0.8-2.4,1.5-4.8,2.2-7.3c1.3,1.7,1.5,3.3,1.8,4.9c2.1,12.7,4,25.6,12.2,36.1
				c11.9,15.3,28.2,23.4,46.9,27.1c6.2,1.2,12.5,2,18.8,2.8c17.3,2.1,34.6,2.8,51.7-0.6c13.5-2.7,21.8-11.3,24.4-24.7
				c1.1-5.6,1.6-11.9,0.2-17.3c-5.2-20.3-10.6-40.6-17-60.5c-9.3-28.8-19.5-57.4-29.3-86c-0.9-2.6-1.4-5.2-2.3-8.5
				c17.7,0.4,30.9-7.2,42.4-19.5c0.7,13.5,0.7,26.4,0.7,39.4c0.1,40,0.4,80,6.2,119.7c1.6,11.3,3.3,22.8,6.7,33.6
				c4.2,13.2,14.6,20.3,28.4,21.9c16.3,1.9,31.4-3.1,46.3-8.3c18.6-6.5,30.7-19.2,35.2-38.9c6.9-29.9,9.4-60.3,10.1-90.7
				c0.8-31.3,0.2-62.6,0.2-85.7c1.3,9.9,3.3,27.9,5.9,45.8c7.1,47.6,14.8,95.1,21.4,142.8c2,14.4,9.7,21.6,22.9,24.5
				c2.4,0.5,4.9,1.2,7.4,1.4c35.5,3.1,69.9-0.1,102.9-15.6c29-13.6,52.4-32.1,66.8-61c0.5-0.9,1.2-1.7,2.2-3
				c0.3,1.3,0.4,1.9,0.5,2.6c1.6,13.2,3.3,26.4,4.8,39.7c2.2,20.3,9.7,29,29.8,33.5c18.1,4,36.5,3.8,54.8,2.5
				c35-2.4,68.7-10.8,101.8-21.9c14.9-5,29.4-11,42-20.6c7.4-5.6,12.8-12.6,13.9-22.2c3.3-27.6-3.7-53.2-15.4-77.8
				c-5.2-10.9-14.3-17.8-26.4-20.2c-5.3-1.1-10.7-1.8-16.5-2.7c2.8-22.4-2.2-42.4-18.5-59c7-3.1,13.5-5.7,19.7-8.8
				c10.2-5,15.7-13.5,17.2-24.8c2.9-22.4,1.5-44.5-4.6-66.3c-0.3-1.2-0.4-2.4-0.7-3.9c12.5,6.5,31,12.6,48.3,13.2
				c24.3,0.9,43.1-9.2,54.7-30c5.7-10.2,8.3-22.4,11.1-34c4.9-20.4,8.6-41.1,16.5-60.7c4.2-10.5,4.2-10.6,15.4-8.5
				c12.6,2.4,30.3-1.2,36.5-19.1c5-14.4,9.6-29.1,12.3-44.1c2.5-14.4,0.9-29-8.5-41.5c-36.7-48.6-84.2-81.5-143.1-97.3
				c-13.3-3.6-27.2-6.1-40,3.3c-10.2-17.8-22.8-32.9-42.4-40.1c-19.5-7.2-38.8-6.6-56.8,4.6c-0.4-0.4-0.6-0.5-0.6-0.7
				c-0.7-1.3-1.4-2.7-2.1-4c-9.9-19.9-23.8-36-44.6-44.7c-19.8-8.3-40.2-15.2-60.2-22.8c-1.6-0.6-3.2-1.6-4.6-2.7
				c-5.3-4.2-10.1-9.3-15.9-12.8c-20.1-11.9-41.4-21.4-63.9-28c-20.5-6-41.7-6.8-62.8-8c-11.1-0.7-22.3-0.3-33.4,0.4
				c-4,0.2-6.8-0.5-10.1-2.6c-5.9-3.7-12-7.4-18.4-9.8c-23.6-8.9-45.4-2.1-59.2,19.1c-6.9,10.7-12.5,22.4-18.2,33.9
				c-5,10.1-9.4,20.4-14.4,31.4c-0.8-6.8-1-13-2.3-19c-2.8-13.5-5.3-27.1-9.4-40.3c-4.3-13.6-14.6-19.7-28.6-18
				c-14.4,1.8-28.5,5.7-41.3,12.7c-9.9,5.4-19.1,11.8-23.1,23.1c-1.1,3.1-1.9,6.3-2.8,9.7c-0.7-0.4-1.3-0.7-1.8-1.1
				c-13.6-10.6-28.8-14.4-45.6-10.2c-28,7.1-53.2,19.6-73.9,39.9c-12.6,12.3-21.8,26.6-20.7,45.3c0,0.2-0.4,0.4-0.9,1
				c-12.9-7-27.1-9.3-41.8-9.5c-11.6-0.1-21.5,3.9-29.6,12.2c-12.8,13.1-20.2,28.8-22.7,46.8c-0.4,2.9-0.9,5.8-1.4,9.2
				c-2.2-1.2-3.8-2-5.4-2.9c-22.9-12.6-53.8-9.1-71.4,14.2C29.1,235.1,15,265.2,7.7,298.3c-1.3,5.8-0.9,12.5,0.6,18.2
				c10.5,38.7,20.5,77.7,32.8,115.8c6.8,21.1,17.5,41,26.9,61.2c5.5,11.9,11.8,23.5,17.7,35.3c5.6,11.1,15.8,15.9,27,17.5
				c38.6,5.4,70.2-8.3,96-36.7C209.5,508.7,210.4,507.8,211.2,506.9z M405.8,636c-9.1,8.7-19.3,11.1-30.2,13
				c10.7,30.6,21.2,60.7,31.7,90.9c0.2-0.1,0.4-0.1,0.6-0.2C407.2,705.7,406.5,671.7,405.8,636z"/>
			<path class="st0" d="M211.2,506.9c-0.8,0.9-1.7,1.8-2.5,2.7c-25.8,28.4-57.4,42.1-96,36.7c-11.3-1.6-21.5-6.4-27-17.5
				c-5.9-11.7-12.2-23.3-17.7-35.3c-9.3-20.2-20.1-40.1-26.9-61.2c-12.3-38.2-22.3-77.1-32.8-115.8c-1.6-5.7-1.9-12.4-0.6-18.2
				c7.3-33.1,21.4-63.2,41.9-90.4c17.6-23.3,48.5-26.7,71.4-14.2c1.6,0.9,3.1,1.7,5.4,2.9c0.5-3.4,1-6.3,1.4-9.2
				c2.5-18,9.9-33.7,22.7-46.8c8.1-8.3,18-12.3,29.6-12.2c14.7,0.2,28.8,2.5,41.8,9.5c0.5-0.5,0.9-0.8,0.9-1
				c-1.1-18.8,8.2-33,20.7-45.3c20.8-20.3,45.9-32.8,73.9-39.9c16.8-4.2,32-0.4,45.6,10.2c0.5,0.4,1.1,0.7,1.8,1.1
				c1-3.4,1.7-6.6,2.8-9.7c4-11.4,13.2-17.8,23.1-23.1c12.9-7,26.9-10.9,41.3-12.7c14-1.8,24.3,4.4,28.6,18
				c4.1,13.1,6.6,26.8,9.4,40.3c1.2,6,1.5,12.1,2.3,19c5-11,9.4-21.3,14.4-31.4c5.7-11.5,11.2-23.1,18.2-33.9
				c13.7-21.2,35.5-28,59.2-19.1c6.5,2.4,12.6,6.1,18.4,9.8c3.3,2.1,6.1,2.8,10.1,2.6c11.1-0.7,22.3-1.1,33.4-0.4
				c21.1,1.3,42.3,2,62.8,8c22.5,6.6,43.8,16,63.9,28c5.8,3.4,10.6,8.5,15.9,12.8c1.4,1.1,2.9,2.1,4.6,2.7
				c20.1,7.6,40.4,14.5,60.2,22.8c20.8,8.6,34.8,24.8,44.6,44.7c0.7,1.3,1.4,2.7,2.1,4c0.1,0.1,0.2,0.2,0.6,0.7
				c18-11.2,37.3-11.8,56.8-4.6c19.6,7.2,32.3,22.3,42.4,40.1c12.8-9.4,26.7-6.9,40-3.3c58.9,15.8,106.4,48.7,143.1,97.3
				c9.4,12.5,11.1,27.1,8.5,41.5c-2.6,15-7.3,29.7-12.3,44.1c-6.1,17.9-23.9,21.4-36.5,19.1c-11.2-2.1-11.1-2-15.4,8.5
				c-7.9,19.6-11.6,40.3-16.5,60.7c-2.8,11.6-5.3,23.8-11.1,34c-11.6,20.8-30.4,30.9-54.7,30c-17.3-0.6-35.8-6.8-48.3-13.2
				c0.3,1.5,0.3,2.7,0.7,3.9c6.1,21.8,7.6,43.9,4.6,66.3c-1.5,11.2-6.9,19.7-17.2,24.8c-6.2,3.1-12.7,5.7-19.7,8.8
				c16.2,16.5,21.3,36.5,18.5,59c5.8,0.9,11.2,1.7,16.5,2.7c12.1,2.4,21.2,9.3,26.4,20.2c11.7,24.5,18.7,50.2,15.4,77.8
				c-1.1,9.6-6.6,16.6-13.9,22.2c-12.6,9.6-27.1,15.7-42,20.6c-33.1,11-66.9,19.5-101.8,21.9c-18.3,1.2-36.7,1.5-54.8-2.5
				c-20.1-4.5-27.5-13.1-29.8-33.5c-1.5-13.2-3.2-26.5-4.8-39.7c-0.1-0.6-0.2-1.3-0.5-2.6c-1,1.3-1.7,2.1-2.2,3
				c-14.4,29-37.9,47.5-66.8,61c-33.1,15.5-67.4,18.6-102.9,15.6c-2.5-0.2-4.9-0.9-7.4-1.4c-13.2-2.9-20.9-10.1-22.9-24.5
				C565.7,756,558,708.5,551,660.9c-2.7-17.9-4.7-36-5.9-45.8c0,23.1,0.6,54.4-0.2,85.7c-0.8,30.5-3.3,60.8-10.1,90.7
				c-4.5,19.7-16.6,32.3-35.2,38.9c-14.9,5.2-30,10.2-46.3,8.3c-13.8-1.6-24.2-8.7-28.4-21.9c-3.5-10.8-5.1-22.3-6.7-33.6
				c-5.8-39.7-6.1-79.7-6.2-119.7c0-13,0-26-0.7-39.4c-11.5,12.3-24.7,19.9-42.4,19.5c0.9,3.2,1.4,5.9,2.3,8.5
				c9.8,28.7,20,57.2,29.3,86c6.4,19.9,11.9,40.2,17,60.5c1.4,5.4,0.9,11.7-0.2,17.3c-2.6,13.4-10.9,22-24.4,24.7
				c-17.2,3.4-34.5,2.7-51.7,0.6c-6.3-0.8-12.6-1.6-18.8-2.8c-18.7-3.7-35-11.8-46.9-27.1c-8.2-10.5-10.1-23.4-12.2-36.1
				c-0.3-1.6-0.5-3.2-1.8-4.9c-0.7,2.4-1.5,4.8-2.2,7.3c-5.8,18.4-16.9,26.8-36.1,27.1c-20.5,0.3-40.6-2.4-59.9-9.4
				c-7.9-2.8-15.5-6.9-22.9-11.1c-17.2-9.7-24.1-24.8-19.6-43.9c4.4-18.6,9.8-37,15.8-55.1c17.2-52.3,40.5-102.1,62.8-152.4
				c3.4-7.6,8-14.6,12-21.9c0.6-1.1,0.9-2.3,1.3-3.4C212,507.3,211.6,507.1,211.2,506.9z M610.4,42.4c0.4,1.4,0.4,1.8,0.6,2.1
				c0.6,0.8,1.2,1.6,1.9,2.3c13.9,15.4,15.5,33,8.4,51.7c-2.8,7.3-6.3,14.3-9.9,21.3c-15.8,30.5-33.8,59.7-53.4,87.9
				c-1.6,2.2-3.5,4.9-3.5,7.4c0.2,9.5,1,18.9,1.8,28.4c1,11.6,7,17.5,18.6,17.9c8.6,0.3,17.3,0.2,25.9,0.2c5.5,0,11-0.3,16.5-0.2
				c4.6,0.1,8.4,2,10.8,6.1c4.8,8.3-1.2,17.8-11.9,18.1c-11.7,0.3-23.3,0.3-35-0.2c-11-0.5-22-1.4-31.4-8.4
				c-1.1-0.8-3.8-0.2-5.3,0.6c-1.9,1.1-3.4,3-5.5,4.9c8.6,13.1,17.4,25.8,25.7,38.9c20,31.5,39.7,63.2,59.5,94.7
				c7.3,11.7,12.3,24,10.9,38.2c-0.1,1.1,2,3.2,3.4,3.5c18.2,4.4,36.4,2.4,54.4-1.4c5.3-1.1,8.8-4.5,10.7-9.5
				c4-10.2,8.4-20.3,12-30.7c10.7-30.5,16.6-62.1,20.9-94c3-22.1,5.4-44.4,3.3-66.7c-1.7-18.7-6.7-23-25.3-26
				c-24.1-3.9-48.3-5.6-72.6-5.9c-2.3,0-4.7-0.3-6.9-0.9c-5-1.4-8.1-5.4-8.2-10.1c-0.1-4.9,3.1-9.2,8.4-10.4
				c2.6-0.6,5.3-0.7,7.9-0.7c24.5,0.5,49,1.3,73.2,5.6c6.4,1.2,11.1-0.8,15.2-5.2c7.3-7.9,11.7-17.3,14.2-27.7
				c6.1-24.6,8.1-49.5,6.9-74.9c-0.4-8.8-3.6-15.2-11.3-19.6c-20.2-11.5-40.9-22-63.7-27.1c-16-3.6-32.5-5.4-48.8-7.9
				C623.1,43.7,617,43.1,610.4,42.4z M289.5,485.2c-5.3,5.7-9.9,12.6-16.2,17c-11.7,8.2-25.4,12.1-39.7,13.6
				c-1.4,0.1-3.3,1.4-3.9,2.6c-8.2,17.9-16,35.9-24.2,53.7c-20.4,44.4-38.1,89.8-53.8,136.1c-4,11.9-6.5,24.4-9.6,36.6
				c-2.3,9,1.8,14.8,9.2,19.4c20.1,12.6,42.6,15.8,65.5,17c14.7,0.7,17.5-1.3,20.8-15.7c3.1-13.4,4.8-27.2,7.3-40.8
				c1.6-8.8,3.3-17.7,5.2-26.5c1.3-6,5.6-9.8,10.9-10.2c4.9-0.4,9.7,2.4,11.3,7.3c2.2,6.6,4.5,13.3,5.7,20.1
				c2.1,11.5,3.2,23.1,5,34.6c2.1,12.8,4.3,25.6,7.1,38.3c1.7,7.8,6.9,13.1,13.9,17.4c9.5,5.8,19.6,8.7,30.5,10.2
				c16.1,2.3,32.1,3.5,48.3,1.6c9.4-1.1,12.3-4.7,10.2-13.8c-3.4-14.7-7.1-29.5-11.8-43.8c-8.1-24.5-17.4-48.6-25.5-73
				c-5.4-16.2-9.7-32.9-14.8-49.2c-4-12.9,2-20.3,15.6-18.9c4.6,0.5,9.3,0.5,14,0.4c10-0.2,17.7-4.9,22.2-13.8
				c2.8-5.6,5.6-11.6,6.3-17.7c2.6-24.1-1.4-47.5-13.6-68.4c-9.4-16.2-22.6-29.3-41.3-35.3c-3.7-1.2-6.3-0.9-9.5,1.6
				c-10,7.6-20.9,12.2-33.5,6.9C296.5,490.6,292.6,487.2,289.5,485.2z M559.6,501.9c0,9-0.6,17.7,0.1,26.3c1,11.9,3.2,23.8,4.4,35.7
				c2.2,21.9,3.3,43.9,6.4,65.6c7.7,54.9,16.2,109.7,24.5,164.5c1.6,10.9,2,11,12.9,12.2c0.3,0,0.7,0.1,1,0.1
				c30.1,1.2,59.7,0,87.1-14.8c13-7,26.8-13,36.6-24.6c28.1-33.4,38.7-72.6,36.2-115.3c-2.8-49.2-23.6-90.8-58.2-125.4
				c-14.2-14.1-31-24.4-51.1-27.4C626.1,493.9,592.8,494.4,559.6,501.9z M465.1,463.7c7.9,1.3,29.4-1,38.8-4.1
				c7.3-2.4,8.3-3.6,8.9-11.3c0.9-10.3-0.3-20.3-3.3-30.1c-8.4-27-16.8-54.1-25-81.2c-1-3.4-1.5-7.2-1.5-10.8c0-4.1,2.6-7.4,6.4-7.9
				c3.1-0.5,6.9,0.4,9.6,2c2.1,1.2,3.5,4.4,4.3,7c8.2,26.2,16.3,52.5,24.3,78.8c4.3,14.1,7.9,28.3,5.7,43.2c-0.5,3.4,1.4,5,3.9,6.2
				c22.4,10.4,45.5,13.6,69.4,6.1c5.4-1.7,8.9-6.1,8.3-11.7c-0.7-6-2-12.3-4.7-17.6c-4.7-9.1-10.8-17.6-16.2-26.4
				c-19.3-31.5-38.5-63.1-58-94.5c-8.3-13.4-16.3-27.2-26-39.6c-5.9-7.5-6.6-13.9-2.3-21.3c11.2-19.5,21.9-39.3,34.1-58.1
				c17.6-27.1,35.3-54.2,49.9-83.1c4.2-8.3,7.7-17,10.6-25.8c2-6,1.2-12.5-2.8-17.7c-10.6-13.8-23.5-25.2-39-32.9
				c-14.7-7.4-32.6-6.9-42.4,12.8c-9.3,19-19,37.9-26.7,57.5c-7.9,20.3-14.1,41.3-15.9,63.2c-0.2,2.3-0.8,4.6-1.8,6.7
				c-3.3,7-11,7.8-15,1.2c-2.2-3.7-3.2-8.4-3.5-12.7c-1.6-23.2-2.4-46.6-4.4-69.8c-1.4-16.4-3.1-32.8-9-48.5
				c-1.7-4.6-4.3-6.7-9.4-5.8c-14.7,2.6-28.9,6.4-41.7,14.6c-4.6,3-7.7,7.3-7.3,12.3c0.8,11,1,22.6,4.6,32.9
				c15.7,43.8,31,87.6,40.8,133.2c3.1,14.3,2.5,27.5-7.9,38.9c-0.2,0.2-0.1,0.6-0.1,0.4c11.8,14.5,22.2,29.5,26.2,47.6
				c5,22.6,9.4,45.3,12.7,68.2C463.2,411.3,469,437,465.1,463.7z M745.5,526c0.7,1.9,0.7,2.3,0.9,2.5c0.7,0.9,1.4,1.9,2.1,2.8
				c18.3,23.8,31.7,50,39.1,79.2c5.4,21.4,8.9,43.1,6.3,65.3c-1.4,11.9-2.4,23.7-0.8,35.8c3.4,25.9,6,51.9,9.1,77.9
				c1.3,10.7,2.8,12.9,13.4,13.9c14.4,1.3,29,2.4,43.3,1.5c35.1-2.1,69.1-10.6,102.1-22.6c10.7-3.9,20.7-9.7,30.9-15
				c4-2.1,5.8-5.9,6.2-10.7c1.4-20.6-4.6-39.5-12.3-58c-2.5-6-7.5-9-13.9-10.1c-11.3-2-21.9,1.1-32.3,4.7
				c-17.4,6.1-34.6,12.9-52,19.1c-9.3,3.4-16.5,0.7-18.8-6.5c-2.3-6.9,1.6-13,10.7-16.4c18.6-6.9,37.2-13.7,55.7-20.7
				c1.8-0.7,3.9-2.7,4.4-4.6c4.6-16.5,1.3-31.4-10.2-44.2c-5.3-5.8-12.1-8.5-20.3-6.4c-11.6,3.1-23.2,6.2-34.8,9.1
				c-2.2,0.6-4.6,0.9-6.9,0.9c-4.8-0.1-8.2-2.5-9.8-7.1c-1.6-4.7-0.1-8.8,3.7-11.5c2.8-2,6.1-3.4,9.4-4.3c11.9-3.2,24-5.8,35.8-9.3
				c15.2-4.5,30.2-9.4,45.2-14.4c5.2-1.7,7.6-5.6,8.3-11.3c1.8-14.7,1.1-29.4-1.6-43.8c-1.6-8.4-4.8-16.6-8.4-24.4
				c-2.8-6.1-8-6-12-0.7c-5.2,7-12.1,10.7-20.8,9.4c-12.3-1.9-24.5-4.4-36.8-6.6c-1.8-0.3-3.6-0.6-5.4-0.5
				c-40.2,3.9-79.6,12.6-118.9,21.6C752.5,521.6,749.2,524.2,745.5,526z M356,462.6c1.7,0,2.8,0,4,0c19-0.4,37.9-0.9,56.9-1.3
				c5.7-0.1,11.3,0.1,17-0.1c6.7-0.2,8.1-1.4,8.8-8.1c0.4-3.6,0.5-7.3,0.2-11c-3.1-39.2-8.8-78.1-17.6-116.4
				c-3-13.2-10.1-24.2-17.3-35.2c-2.8-4.3-7.1-5.3-10.5-3.5c-11,6-21.9,11.9-33,17.7c-2.2,1.1-4.7,2-7.1,2.2
				c-4.5,0.4-8.2-1.5-10.4-5.5c-2.1-3.8-2-7.8,0.5-11.4c1.4-2,3.3-3.9,5.3-5.1c6.3-3.7,12.9-7,19.2-10.7c9.3-5.5,18.6-11,27.5-17
				c6.8-4.7,9.1-11.4,6.8-19.7c-4.3-16.1-7.6-32.4-12.6-48.3c-8.5-27.3-17.8-54.4-27.1-81.5c-3.6-10.6-9.9-19.7-18-27.3
				c-6.3-5.9-13.8-9.3-22.7-8.2c-31,3.8-56.3,18.2-77.1,41.1c-2.7,3-5.4,6.7-6.5,10.5c-1.4,4.6-2.8,10.3-1.2,14.4
				c3.6,9.4,8.6,18.3,13.9,26.9c8.2,13.1,18.1,25.2,25.6,38.7c23.7,43,41.4,88.7,55.3,135.7c6.8,23,12,46.4,18.2,69.6
				C358.9,426.8,362.6,444.3,356,462.6z M156,337.4c21.9,1,36.2,12.8,47.4,29.9c23.3,35.7,29.2,74.1,18.4,115.2
				c-2.2,8.4,4.5,16.1,13,14c6.9-1.7,13.7-4.1,20.3-7c10.3-4.6,15.6-13.2,14.9-24.4c-0.4-6.7-1.8-13.7-4.4-19.8
				c-9-21.1-18.9-41.9-28.3-62.9c-1.7-3.7-2.9-7.8-3.3-11.9c-0.5-4.7,2-8.4,6.4-10.3c4.6-1.9,9-1.1,12.4,2.5c2,2.1,3.6,4.8,4.8,7.5
				c7.6,16.7,15.2,33.3,22.6,50.1c5.4,12.3,10.8,24.8,12.2,38.4c0.2,1.5,1.3,3.1,2.4,4.2c3,2.8,6.3,5.4,9.5,8.1
				c3.6,3,7.9,3.6,11.6,1c6.3-4.6,12.2-9.6,18-14.9c1.7-1.5,2.8-4.4,2.9-6.7c0.4-6.4,1.3-13.2-0.2-19.3c-7-28.1-14.3-56.2-22.2-84
				c-11.6-40.8-28.2-79.8-46.9-117.7c-10.9-22-23.4-42.9-42.1-59.6c-13.5-12-28.8-18.5-46.9-17.2c-3.7,0.3-8.4,1.8-10.5,4.4
				c-5.3,6.5-10.8,13.5-13.5,21.2c-6.7,19.2-8,38.6-0.2,58.4c10.5,26.7,7.9,54.7,5.4,82.5C158.9,325,157.3,330.8,156,337.4z
				 M138.4,283.6c-0.2,0-0.3,0-0.5-0.1c-0.3-6.3-0.3-12.7-1.1-18.9c-2-15.8-7-30.4-17.7-42.7c-12.8-14.8-38.2-17.2-51.5,0.4
				c-2.2,2.9-4.5,5.8-6.6,8.7c-14.7,19.7-24.6,41.8-33.4,64.6c-3,7.8-5.2,15.5-0.1,23.3c0.6,0.9,0.8,2.2,1.2,3.3
				c11.7,34.5,22.5,69.4,35.3,103.5c7.4,19.7,17.6,38.4,26.8,57.4c5.7,11.8,12.1,23.3,18.1,35c2,3.8,5,5.1,9.2,5.6
				c23.6,2.4,43.3-6.8,61.5-20.3c7.9-5.8,13.1-13.7,16.2-22.9c4.6-13.9,7-28.5,5.8-42.8c-2-23.8-9.9-45.7-25.6-64.4
				c-5.2-6.2-11.7-9.9-19.5-11c-6.6-0.9-12.3,0.5-16.9,6.1c-3.8,4.5-8.2,8.7-13,12.2c-4.8,3.5-10.6,2.5-14.2-1.3
				c-3.8-3.9-4.1-9.5-0.7-14.7c0.8-1.2,1.8-2.4,2.8-3.5c12.8-13,19.9-28.6,21.7-46.6C137.1,304.2,137.6,293.9,138.4,283.6z
				 M876.2,476.1c0.5,0.4,0.9,0.8,1.3,1c12.9,6.1,26.9,7.2,40.8,8.8c1.6,0.2,4.3-1.9,5.2-3.7c2.5-5,4.8-10.3,6.4-15.7
				c8.1-28.5,16.3-57,23.8-85.7c8.3-31.9,18.1-63.5,22-96.4c3.3-27.9,1.8-55.2-9.6-81.4c-6.4-14.7-14.7-28.2-28.7-36.9
				c-11.5-7.1-24-8.7-37-4.7c-9.1,2.8-12.6,9-12,18.4c0.6,10.8,1.9,21.8,0.6,32.4c-1.9,14.8-4.9,29.6-9.3,43.8
				c-4.3,13.6-13.7,23.1-29.1,24.7c-0.6,0.1-1.1,0.5-1.8,0.8c8.4,36.8-0.7,70.7-16.5,103.8c2.5,1.5,5.6,3.2,8.5,5.1
				c8.1,5.2,11.7,12.4,9.7,22.2c-3.5,17.1-6.8,34.3-10.4,51.4c-1,4.8-2.6,9.5-4.2,15.1c3,0,5.4-0.3,7.8,0.1
				c6.4,0.9,10.7-1.9,13.2-7.5c3-6.8,6.5-13.6,8.2-20.8c7.3-30.1,14.1-60.3,21.2-90.5c0.9-3.7,2.2-7.4,4.1-10.6
				c2.2-3.7,6-5.3,10.4-4c4.1,1.3,6.2,4.5,6.5,8.6c0.2,2,0.1,4-0.3,6C899.1,399.6,890.2,438.4,876.2,476.1z M719.4,466.8
				c1.4,0.3,2.6,0.6,3.8,0.8c23.5,3.8,47,7.5,70.5,11.5c15.2,2.6,18.8,1.3,23.3-13.4c4.8-15.6,8.7-31.4,12.3-47.3
				c2.7-12.1,2.4-12.5-9.3-16.7c-11.4-4.1-23.1-7.4-34.7-11c-6.8-2.1-10.2-6.8-8.9-12.4c1.3-5.7,6.9-8.7,13.9-7.1
				c3.7,0.8,7.3,2.2,11,3.3c8.5,2.5,11.9,1,15.5-7c6.6-14.6,9.6-30.2,11-46c1.7-19.3-4.4-35.2-23.1-44.2c-3-1.4-6.3-2.1-9.4-3.3
				c-6.5-2.4-9.9-8.1-8.4-14c1.5-5.9,7.1-9.4,14-8.5c2.1,0.3,4.2,0.9,6.4,1.3c11,1.8,21.9,4.5,33,5.2c12.3,0.8,15.2-2.1,18.9-14
				c7.2-23,8.8-46.5,4.6-70.1c-4.7-26-17.8-46.5-42.5-58.1c-8.7-4.1-17.7-7.7-26.5-11.6c-5.8-2.5-11.5-5-17.7-7.8c0,2,0,3.4,0,4.9
				c0.6,18.2,0.3,36.3-2.9,54.3c-3.5,19.4-6.9,38.8-19.3,55.1c-2,2.6-4,5.2-6,7.9c7.2,7.4,11.8,15.9,13.1,25.7
				c1.2,9.1,2.1,18.3,1.8,27.4c-0.8,30.7-4.3,61.1-10.2,91.3C746.4,398.9,736.7,434,719.4,466.8z M988.2,197.8c0.3,1,0.6,2,0.8,2.9
				c5.7,19.6,10.6,39.3,9.1,59.9c-0.8,11.3-1.9,22.5-3.1,33.8c-1.1,9.7-1.1,9.5,7.3,14.1c8.7,4.8,17.4,9.8,25.7,15.3
				c8.3,5.5,11.1,11.8,8.3,19.5c-10.1,27.3-20.4,54.5-30.9,81.7c-5.7,14.7-12,29.2-17.5,44.1c-2.9,7.8-0.8,11.5,7.2,14
				c9.2,2.8,18.6,5.5,28,6.8c19.2,2.6,35.4-8.4,40.5-27.1c3.1-11.4,5.6-23,8.1-34.5c4.7-21.7,10.6-43,21.1-62.7
				c5.7-10.7,11.9-13.4,23.9-10.8c3.3,0.7,6.5,1.5,9.8,2.1c6.3,1.2,9.5,0.1,11.4-5.9c3.9-12.5,7.8-25.1,10.3-37.9
				c1.8-9.2-0.3-18.3-6.4-26.3c-32.9-42.8-75.5-71.3-127-86.5C1006.3,197.6,997.5,195.7,988.2,197.8z M434.8,663.4c0,3.3,0,6.7,0,10
				c-0.3,32,0.4,64,4.3,95.8c1.4,11.4,2.5,22.9,4.9,34.1c2.4,11.2,8,14.9,19.4,12.6c10.4-2,20.7-5.2,30.7-8.6
				c9.8-3.4,15.4-10.8,17.8-21.1c5.7-24.6,7.8-49.7,8.7-74.8c1.1-29.3,0.8-58.7,0.2-88c-0.4-19.4-2.1-38.9-4-58.3
				c-1.4-14.6-5.3-28.8-12.6-41.8c-3.9-6.9-8.9-12.4-17-14.4c-12.6-3-24.5-0.3-35.9,4.9c-0.9,0.4-1.8,1.5-2.3,2.4
				c-6.7,12.1-10,25.4-11.8,39C432.3,591.1,432.5,627.3,434.8,663.4z M547,483.4c-7.7-3.4-14.9-6.7-22.3-9.8
				c-0.9-0.4-2.3-0.1-3.2,0.4c-17.8,9.4-37.3,10-56.5,8.5c-7.3-0.6-13.5-1.1-20.8,0.8c-7.5,2-15.8,0.9-23.8,0.7
				c-10.8-0.3-21.5-1-32.5-1.6c6.2,8,13,15.4,18.1,23.9c5.2,8.5,8.6,18.1,12.8,27.2c1.1-3.9,2.1-8.1,3.5-12.2
				c2.6-7.3,5.6-14.4,12.3-18.9c14.6-9.9,30.5-15.4,48.4-14.9c14.6,0.4,26.4,6,35.4,17.6c9.1,11.7,14.5,25.1,17.5,39.4
				c2.8,13.5,4.7,27.2,7,40.8c-0.3-3.2-0.1-6.6-0.4-9.8c-1.3-15.3-3.3-30.5-3.9-45.8C538,513.7,536.1,497.4,547,483.4z M989,326.2
				c-13.1,49-25.8,96.9-38.6,144.7c4,1.8,8.2,3.7,11.5,5.3c2.9-9.6,5.1-19.5,8.9-28.8c11.9-30,24.4-59.7,36.7-89.6
				c2.1-5.2,4.1-10.4,6.3-15.9C1005.4,336.6,997.5,331.6,989,326.2z M687.6,481.2c16.5,8.5,32.1,17.2,44.3,31
				c9.3-11.5,23.2-10.9,36.5-15.5c-10.6-2.2-19.8-4.1-29-6.2c-10.8-2.4-22.2-3.8-32.3-8.1c-6.3-2.7-11.5-3.5-17.6-1.8
				C689.2,480.7,688.9,480.8,687.6,481.2z M533.9,247.7c-2.3,4.4-3.8,7.9-5.8,11.1c-2.7,4.3-1.4,7.2,1.4,9c3.1-2.5,5.7-4.7,8.2-6.8
				C536.5,256.9,535.4,253,533.9,247.7z"/>
			<path d="M610.4,42.4c6.7,0.8,12.8,1.3,18.8,2.2c16.3,2.5,32.7,4.3,48.8,7.9c22.8,5.1,43.4,15.6,63.7,27.1
				c7.7,4.4,10.9,10.8,11.3,19.6c1.2,25.3-0.8,50.2-6.9,74.9c-2.6,10.4-7,19.8-14.2,27.7c-4.1,4.4-8.8,6.4-15.2,5.2
				c-24.2-4.4-48.7-5.1-73.2-5.6c-2.6-0.1-5.4,0.1-7.9,0.7c-5.2,1.3-8.4,5.5-8.4,10.4c0.1,4.7,3.1,8.7,8.2,10.1
				c2.2,0.6,4.6,0.9,6.9,0.9c24.3,0.3,48.6,2,72.6,5.9c18.7,3,23.6,7.3,25.3,26c2.1,22.4-0.3,44.6-3.3,66.7
				c-4.3,31.9-10.2,63.5-20.9,94c-3.6,10.4-8,20.4-12,30.7c-2,5.1-5.5,8.4-10.7,9.5c-18,3.9-36.2,5.9-54.4,1.4
				c-1.4-0.3-3.5-2.4-3.4-3.5c1.3-14.2-3.6-26.5-10.9-38.2c-19.8-31.6-39.6-63.2-59.5-94.7c-8.3-13.1-17.1-25.8-25.7-38.9
				c2.1-1.9,3.5-3.8,5.5-4.9c1.5-0.8,4.2-1.4,5.3-0.6c9.4,7,20.4,8,31.4,8.4c11.6,0.5,23.3,0.5,35,0.2c10.7-0.3,16.8-9.8,11.9-18.1
				c-2.4-4.1-6.2-6-10.8-6.1c-5.5-0.1-11,0.2-16.5,0.2c-8.6,0-17.3,0.2-25.9-0.2c-11.6-0.4-17.6-6.3-18.6-17.9
				c-0.8-9.4-1.6-18.9-1.8-28.4c-0.1-2.4,1.9-5.1,3.5-7.4c19.6-28.2,37.6-57.4,53.4-87.9c3.6-6.9,7.1-14,9.9-21.3
				c7.1-18.7,5.6-36.3-8.4-51.7c-0.7-0.7-1.3-1.5-1.9-2.3C610.8,44.2,610.8,43.8,610.4,42.4z"/>
			<path d="M289.5,485.2c3.2,2,7.1,5.4,11.6,7.3c12.5,5.3,23.5,0.7,33.5-6.9c3.2-2.5,5.9-2.7,9.5-1.6c18.7,6,31.9,19.1,41.3,35.3
				c12.1,21,16.1,44.3,13.6,68.4c-0.6,6.1-3.5,12.2-6.3,17.7c-4.5,8.8-12.1,13.5-22.2,13.8c-4.6,0.1-9.3,0.1-14-0.4
				c-13.6-1.4-19.6,6-15.6,18.9c5.1,16.4,9.4,33,14.8,49.2c8.2,24.5,17.5,48.6,25.5,73c4.7,14.4,8.5,29.1,11.8,43.8
				c2.1,9.1-0.8,12.7-10.2,13.8c-16.1,2-32.2,0.7-48.3-1.6c-10.9-1.6-21-4.4-30.5-10.2c-7-4.3-12.2-9.6-13.9-17.4
				c-2.8-12.7-5-25.5-7.1-38.3c-1.9-11.5-3-23.1-5-34.6c-1.2-6.8-3.5-13.5-5.7-20.1c-1.6-4.9-6.5-7.7-11.3-7.3
				c-5.3,0.4-9.6,4.2-10.9,10.2c-1.9,8.8-3.6,17.6-5.2,26.5c-2.5,13.6-4.2,27.3-7.3,40.8c-3.3,14.4-6.1,16.5-20.8,15.7
				c-22.9-1.2-45.4-4.4-65.5-17c-7.5-4.7-11.5-10.4-9.2-19.4c3.1-12.2,5.6-24.7,9.6-36.6c15.7-46.2,33.4-91.7,53.8-136.1
				c8.2-17.8,16-35.9,24.2-53.7c0.6-1.2,2.5-2.5,3.9-2.6c14.3-1.5,28-5.3,39.7-13.6C279.6,497.8,284.1,490.9,289.5,485.2z
				 M296.6,581.6c10.7,0.1,16.7-4.3,17.6-10.7c0.9-6-2.6-12.1-8.8-13.2c-8.3-1.4-16.8-2-25.2-2c-5.6,0-9.7,4.4-10.3,9.2
				c-0.7,5,1.7,9.7,7.4,11.6C284.5,579,292,580.4,296.6,581.6z"/>
			<path d="M559.6,501.9c33.2-7.4,66.6-7.9,99.9-3c20.1,3,37,13.3,51.1,27.4c34.7,34.6,55.4,76.2,58.2,125.4
				c2.5,42.7-8.2,81.9-36.2,115.3c-9.8,11.7-23.6,17.6-36.6,24.6c-27.4,14.8-57,16-87.1,14.8c-0.3,0-0.7,0-1-0.1
				c-11-1.2-11.3-1.3-12.9-12.2c-8.3-54.8-16.8-109.6-24.5-164.5c-3.1-21.7-4.1-43.8-6.4-65.6c-1.2-11.9-3.4-23.8-4.4-35.7
				C559,519.6,559.6,510.9,559.6,501.9z M659.1,661.5c0.3-0.1,0.7-0.1,1-0.2c-3.7-18.8-7.4-37.5-11.2-56.3c-0.4-2-1.7-4-2.9-5.8
				c-2.4-3.4-5.7-5.1-10-4.2c-4.4,1-6.8,4-7.4,8.4c-0.3,2-0.3,4,0,6c2,14.2,3.9,28.4,6.1,42.5c0.9,5.6,2,11.2,3.9,16.5
				c1.8,5,7.1,7.5,11.6,6.7c5-0.9,8.4-5,8.9-10.6C659.2,663.5,659.1,662.4,659.1,661.5z"/>
			<path d="M465.1,463.7c3.9-26.7-1.9-52.5-5.6-78.3c-3.3-22.9-7.7-45.6-12.7-68.2c-4-18.1-14.3-33.1-26.2-47.6
				c0,0.2-0.1-0.2,0.1-0.4c10.4-11.4,11-24.6,7.9-38.9c-9.8-45.6-25.1-89.4-40.8-133.2c-3.7-10.2-3.8-21.8-4.6-32.9
				c-0.4-5.1,2.7-9.4,7.3-12.3c12.8-8.2,27-12,41.7-14.6c5.1-0.9,7.7,1.2,9.4,5.8c5.9,15.6,7.6,32.1,9,48.5
				c2,23.2,2.8,46.5,4.4,69.8c0.3,4.3,1.3,9.1,3.5,12.7c3.9,6.6,11.6,5.8,15-1.2c1-2.1,1.6-4.4,1.8-6.7c1.8-22,8-43,15.9-63.2
				c7.7-19.6,17.3-38.5,26.7-57.5c9.7-19.7,27.6-20.2,42.4-12.8c15.5,7.8,28.4,19.2,39,32.9c4,5.2,4.8,11.7,2.8,17.7
				c-2.9,8.8-6.4,17.5-10.6,25.8c-14.6,28.9-32.3,55.9-49.9,83.1c-12.2,18.8-22.9,38.6-34.1,58.1c-4.3,7.5-3.6,13.8,2.3,21.3
				c9.7,12.4,17.7,26.2,26,39.6c19.5,31.4,38.7,63,58,94.5c5.4,8.8,11.5,17.2,16.2,26.4c2.7,5.3,4.1,11.6,4.7,17.6
				c0.7,5.7-2.9,10-8.3,11.7c-23.9,7.5-47,4.3-69.4-6.1c-2.5-1.2-4.4-2.8-3.9-6.2c2.3-14.9-1.4-29.2-5.7-43.2
				c-8-26.3-16.1-52.5-24.3-78.8c-0.8-2.6-2.2-5.8-4.3-7c-2.7-1.6-6.5-2.4-9.6-2c-3.8,0.6-6.4,3.9-6.4,7.9c0,3.6,0.5,7.3,1.5,10.8
				c8.2,27.1,16.6,54.1,25,81.2c3,9.8,4.2,19.8,3.3,30.1c-0.7,7.7-1.6,9-8.9,11.3C494.5,462.7,473,465,465.1,463.7z"/>
			<path d="M745.5,526c3.6-1.8,7-4.4,10.8-5.2c39.3-9,78.7-17.7,118.9-21.6c1.8-0.2,3.6,0.2,5.4,0.5c12.3,2.2,24.5,4.8,36.8,6.6
				c8.6,1.3,15.6-2.4,20.8-9.4c4-5.3,9.2-5.4,12,0.7c3.6,7.8,6.9,16,8.4,24.4c2.7,14.4,3.4,29.1,1.6,43.8c-0.7,5.7-3.1,9.6-8.3,11.3
				c-15,5-30,9.9-45.2,14.4c-11.8,3.5-23.9,6-35.8,9.3c-3.3,0.9-6.7,2.3-9.4,4.3c-3.8,2.7-5.3,6.9-3.7,11.5c1.6,4.6,5,7,9.8,7.1
				c2.3,0,4.7-0.3,6.9-0.9c11.6-3,23.2-6,34.8-9.1c8.1-2.2,15,0.5,20.3,6.4c11.5,12.7,14.8,27.7,10.2,44.2c-0.5,1.8-2.6,3.9-4.4,4.6
				c-18.5,7-37.1,13.8-55.7,20.7c-9.1,3.4-13,9.5-10.7,16.4c2.4,7.2,9.5,9.8,18.8,6.5c17.4-6.3,34.6-13,52-19.1
				c10.4-3.6,20.9-6.7,32.3-4.7c6.4,1.1,11.3,4.1,13.9,10.1c7.8,18.5,13.8,37.5,12.3,58c-0.3,4.8-2.1,8.6-6.2,10.7
				c-10.2,5.3-20.2,11.1-30.9,15c-33,12-66.9,20.5-102.1,22.6c-14.4,0.9-29-0.2-43.3-1.5c-10.7-1-12.1-3.2-13.4-13.9
				c-3.1-26-5.7-52-9.1-77.9c-1.6-12.1-0.6-23.8,0.8-35.8c2.6-22.2-0.9-43.9-6.3-65.3c-7.3-29.2-20.8-55.4-39.1-79.2
				c-0.7-0.9-1.4-1.8-2.1-2.8C746.3,528.3,746.2,528,745.5,526z"/>
			<path d="M356,462.6c6.6-18.3,2.9-35.8-1.8-53.3c-6.2-23.1-11.4-46.6-18.2-69.6c-13.9-47.1-31.6-92.7-55.3-135.7
				c-7.4-13.5-17.4-25.6-25.6-38.7c-5.3-8.5-10.3-17.5-13.9-26.9c-1.6-4.1-0.2-9.8,1.2-14.4c1.1-3.8,3.8-7.5,6.5-10.5
				C269.6,90.5,295,76.1,326,72.3c8.9-1.1,16.5,2.3,22.7,8.2c8.1,7.6,14.4,16.7,18,27.3c9.3,27.1,18.6,54.2,27.1,81.5
				c4.9,15.9,8.2,32.2,12.6,48.3c2.2,8.3,0,15.1-6.8,19.7c-8.9,6.1-18.3,11.5-27.5,17c-6.3,3.7-12.9,7-19.2,10.7
				c-2.1,1.2-3.9,3.1-5.3,5.1c-2.5,3.5-2.6,7.5-0.5,11.4c2.2,4,5.9,5.9,10.4,5.5c2.4-0.2,4.9-1.1,7.1-2.2c11.1-5.8,22-11.8,33-17.7
				c3.4-1.9,7.7-0.8,10.5,3.5c7.2,11,14.3,22,17.3,35.2c8.7,38.4,14.5,77.2,17.6,116.4c0.3,3.6,0.1,7.3-0.2,11
				c-0.7,6.8-2.1,8-8.8,8.1c-5.7,0.1-11.3,0-17,0.1c-19,0.4-37.9,0.8-56.9,1.3C358.8,462.6,357.7,462.6,356,462.6z"/>
			<path d="M156,337.4c1.3-6.6,2.9-12.4,3.4-18.3c2.6-27.8,5.2-55.8-5.4-82.5c-7.8-19.8-6.6-39.2,0.2-58.4
				c2.7-7.7,8.3-14.7,13.5-21.2c2.1-2.6,6.9-4.2,10.5-4.4c18.1-1.3,33.4,5.2,46.9,17.2c18.8,16.6,31.2,37.6,42.1,59.6
				c18.8,38,35.4,76.9,46.9,117.7c7.9,27.9,15.2,55.9,22.2,84c1.5,6.1,0.6,12.8,0.2,19.3c-0.1,2.3-1.3,5.2-2.9,6.7
				c-5.7,5.3-11.7,10.3-18,14.9c-3.7,2.7-7.9,2-11.6-1c-3.2-2.7-6.5-5.2-9.5-8.1c-1.1-1.1-2.3-2.7-2.4-4.2
				c-1.4-13.7-6.8-26.1-12.2-38.4c-7.4-16.8-15-33.4-22.6-50.1c-1.2-2.7-2.8-5.4-4.8-7.5c-3.4-3.6-7.8-4.5-12.4-2.5
				c-4.4,1.9-6.9,5.6-6.4,10.3c0.5,4,1.7,8.2,3.3,11.9c9.3,21,19.2,41.8,28.3,62.9c2.6,6.1,4,13.1,4.4,19.8
				c0.7,11.2-4.6,19.8-14.9,24.4c-6.5,2.9-13.3,5.3-20.3,7c-8.4,2.1-15.2-5.5-13-14c10.8-41.1,4.9-79.5-18.4-115.2
				C192.2,350.3,177.9,338.4,156,337.4z M201.4,244.3c-9,0.1-14.6,6.9-12.9,14.7c1.3,5.8,3.1,11.5,5.2,17.1
				c2.7,7.1,8.7,10.2,15.4,8.5c7-1.9,11.7-8.2,10.5-15.3c-0.7-4.4-1.8-8.9-3.9-12.8C212.4,250.3,208.1,244.7,201.4,244.3z"/>
			<path d="M138.4,283.6c-0.8,10.3-1.4,20.6-2.4,30.8c-1.8,18-9,33.6-21.7,46.6c-1,1.1-2,2.2-2.8,3.5c-3.4,5.2-3,10.8,0.7,14.7
				c3.6,3.7,9.4,4.7,14.2,1.3c4.8-3.5,9.2-7.7,13-12.2c4.7-5.5,10.4-7,16.9-6.1c7.9,1.1,14.3,4.7,19.5,11
				c15.7,18.7,23.6,40.6,25.6,64.4c1.2,14.4-1.2,28.9-5.8,42.8c-3,9.2-8.3,17.1-16.2,22.9c-18.3,13.4-37.9,22.7-61.5,20.3
				c-4.3-0.4-7.3-1.8-9.2-5.6c-6-11.7-12.3-23.2-18.1-35c-9.2-19-19.5-37.7-26.8-57.4c-12.7-34.1-23.6-69-35.3-103.5
				c-0.4-1.1-0.6-2.3-1.2-3.3c-5.2-7.8-2.9-15.4,0.1-23.3c8.8-22.7,18.7-44.9,33.4-64.6c2.2-2.9,4.4-5.8,6.6-8.7
				c13.3-17.5,38.8-15.1,51.5-0.4c10.7,12.3,15.7,26.9,17.7,42.7c0.8,6.3,0.8,12.6,1.1,18.9C138.1,283.5,138.3,283.6,138.4,283.6z
				 M60.6,306.3c-0.1,8.8,7.5,14.2,15.7,10.9c5.8-2.3,10.1-6.5,12.2-12.5c2.9-8.4-3.3-16.5-11.8-15.8
				C69,289.7,60.7,298.7,60.6,306.3z M137.4,487.5c9.4,0,17.5-7,17.4-15c-0.1-6.8-5.4-12.1-12.1-12.1c-7.5,0-16.5,9.2-16.4,16.8
				C126.4,483.2,130.9,487.5,137.4,487.5z"/>
			<path d="M876.2,476.1c14-37.8,22.9-76.5,30.5-115.6c0.4-1.9,0.5-4,0.3-6c-0.4-4.2-2.4-7.3-6.5-8.6c-4.4-1.3-8.2,0.3-10.4,4
				c-1.9,3.2-3.2,6.9-4.1,10.6c-7.1,30.1-13.8,60.4-21.2,90.5c-1.8,7.2-5.2,14-8.2,20.8c-2.5,5.6-6.7,8.4-13.2,7.5
				c-2.4-0.4-4.9-0.1-7.8-0.1c1.6-5.6,3.2-10.3,4.2-15.1c3.6-17.1,6.9-34.3,10.4-51.4c2-9.8-1.5-16.9-9.7-22.2
				c-2.9-1.9-5.9-3.6-8.5-5.1c15.8-33.2,24.9-67,16.5-103.8c0.7-0.3,1.2-0.7,1.8-0.8c15.4-1.5,24.8-11.1,29.1-24.7
				c4.5-14.2,7.5-29,9.3-43.8c1.3-10.6,0-21.6-0.6-32.4c-0.5-9.4,3-15.5,12-18.4c13-4.1,25.5-2.5,37,4.7c14,8.7,22.3,22.2,28.7,36.9
				c11.4,26.1,12.9,53.5,9.6,81.4c-3.9,32.9-13.7,64.5-22,96.4c-7.5,28.7-15.7,57.2-23.8,85.7c-1.5,5.4-3.8,10.7-6.4,15.7
				c-0.9,1.7-3.5,3.8-5.2,3.7c-13.9-1.6-27.9-2.7-40.8-8.8C877,476.9,876.7,476.5,876.2,476.1z M902.9,268.3c0.1,2,0.1,4,0.4,6
				c1,5.6,4.2,9.4,9.7,10.8c5.5,1.4,10.5-0.3,13.6-5c4.8-7,6.6-14.9,4.4-23.2c-2.5-9.2-13-12.3-20.2-6
				C905.6,255.4,902.2,260.9,902.9,268.3z"/>
			<path d="M719.4,466.8c17.3-32.9,27-67.9,34.1-103.7c6-30.1,9.4-60.6,10.2-91.3c0.2-9.1-0.6-18.3-1.8-27.4
				c-1.3-9.8-5.9-18.3-13.1-25.7c2.1-2.7,4.1-5.3,6-7.9c12.4-16.3,15.8-35.7,19.3-55.1c3.2-18,3.5-36.1,2.9-54.3c0-1.5,0-2.9,0-4.9
				c6.2,2.7,12,5.3,17.7,7.8c8.9,3.9,17.8,7.5,26.5,11.6c24.7,11.6,37.8,32.1,42.5,58.1c4.2,23.6,2.7,47.1-4.6,70.1
				c-3.7,11.9-6.6,14.8-18.9,14c-11.1-0.7-22-3.4-33-5.2c-2.1-0.4-4.2-1-6.4-1.3c-6.9-0.9-12.5,2.5-14,8.5c-1.5,5.9,1.8,11.6,8.4,14
				c3.1,1.1,6.4,1.8,9.4,3.3c18.7,9,24.8,24.9,23.1,44.2c-1.4,15.8-4.4,31.4-11,46c-3.6,8-7,9.4-15.5,7c-3.7-1.1-7.3-2.4-11-3.3
				c-7-1.6-12.6,1.4-13.9,7.1c-1.3,5.6,2.1,10.3,8.9,12.4c11.6,3.6,23.3,6.9,34.7,11c11.7,4.1,12.1,4.6,9.3,16.7
				c-3.6,15.9-7.5,31.8-12.3,47.3c-4.5,14.7-8.1,16-23.3,13.4c-23.5-4-47-7.7-70.5-11.5C722,467.4,720.7,467.1,719.4,466.8z"/>
			<path d="M988.2,197.8c9.3-2.1,18.1-0.2,26.7,2.3c51.6,15.3,94.1,43.7,127,86.5c6.2,8.1,8.2,17.1,6.4,26.3
				c-2.5,12.8-6.4,25.4-10.3,37.9c-1.9,6-5,7.1-11.4,5.9c-3.3-0.6-6.5-1.4-9.8-2.1c-12-2.6-18.2,0-23.9,10.8
				c-10.5,19.7-16.4,41-21.1,62.7c-2.5,11.5-5,23.1-8.1,34.5c-5.1,18.7-21.2,29.7-40.5,27.1c-9.5-1.3-18.8-4-28-6.8
				c-8.1-2.5-10.1-6.2-7.2-14c5.4-14.8,11.8-29.3,17.5-44.1c10.4-27.2,20.8-54.4,30.9-81.7c2.8-7.6,0-14-8.3-19.5
				c-8.3-5.5-17-10.5-25.7-15.3c-8.4-4.7-8.4-4.4-7.3-14.1c1.2-11.2,2.3-22.5,3.1-33.8c1.5-20.6-3.4-40.3-9.1-59.9
				C988.8,199.8,988.5,198.8,988.2,197.8z"/>
			<path d="M434.8,663.4c-2.3-36.2-2.5-72.3,2.3-108.2c1.8-13.6,5.2-26.8,11.8-39c0.5-1,1.3-2,2.3-2.4c11.5-5.2,23.3-8,35.9-4.9
				c8.1,1.9,13.2,7.5,17,14.4c7.3,13,11.1,27.2,12.6,41.8c1.9,19.4,3.6,38.8,4,58.3c0.6,29.3,0.9,58.7-0.2,88
				c-0.9,25.1-3,50.2-8.7,74.8c-2.4,10.3-8,17.7-17.8,21.1c-10,3.5-20.3,6.6-30.7,8.6c-11.3,2.2-17-1.5-19.4-12.6
				c-2.4-11.2-3.5-22.7-4.9-34.1c-3.9-31.8-4.6-63.8-4.3-95.8C434.8,670.1,434.8,666.7,434.8,663.4z"/>
			<path d="M547,483.4c-11,14-9.1,30.4-8.5,46.2c0.6,15.3,2.6,30.5,3.9,45.8c0.3,3.3,0,6.6,0.4,9.8c-2.3-13.6-4.2-27.3-7-40.8
				c-2.9-14.3-8.4-27.7-17.5-39.4c-9-11.6-20.7-17.1-35.4-17.6c-17.9-0.5-33.8,5-48.4,14.9c-6.7,4.5-9.8,11.7-12.3,18.9
				c-1.4,4.1-2.4,8.3-3.5,12.2c-4.2-9.1-7.6-18.6-12.8-27.2c-5.1-8.4-11.9-15.8-18.1-23.9c11,0.6,21.7,1.3,32.5,1.6
				c8,0.2,16.3,1.3,23.8-0.7c7.3-2,13.6-1.4,20.8-0.8c19.2,1.6,38.7,1,56.5-8.5c0.9-0.5,2.3-0.7,3.2-0.4
				C532.1,476.7,539.3,480,547,483.4z M504.8,486.2c12.7,6.4,20.7,17.5,27.3,29.3c1.7-9.9,3.4-19.8,5.1-30
				c-3.3-1.4-7.7-3.4-12.2-5.1c-0.8-0.3-1.9-0.4-2.7-0.1C516.4,482.1,510.6,484.2,504.8,486.2z M418.6,515.4
				c4.4-13,14.4-19.9,26.2-25c-0.2-0.4-0.4-0.8-0.7-1.2c-14.2,0-28.3,0-42.2,0C407.3,497.6,412.7,506.1,418.6,515.4z"/>
			<path d="M989,326.2c8.5,5.4,16.4,10.4,24.7,15.7c-2.2,5.5-4.1,10.7-6.3,15.9c-12.2,29.8-24.7,59.6-36.7,89.6
				c-3.7,9.3-6,19.2-8.9,28.8c-3.3-1.5-7.5-3.4-11.5-5.3C963.1,423.1,975.9,375.2,989,326.2z M992.2,335.8
				c-10.7,40.7-21.4,81.4-32.1,122.2c4.1-9.3,7.7-18.7,11.6-28c5.4-13,11.2-25.8,16.5-38.9c4.6-11.2,8.4-22.7,13.3-33.7
				c6.2-13.9,5.7-15.8-8.5-21.6C992.8,335.8,992.6,335.8,992.2,335.8z"/>
			<path d="M687.6,481.2c1.3-0.4,1.6-0.5,1.9-0.6c6.1-1.7,11.3-0.9,17.6,1.8c10.1,4.3,21.4,5.6,32.3,8.1c9.2,2.1,18.5,4,29,6.2
				c-13.3,4.6-27.2,4-36.5,15.5C719.7,498.4,704.1,489.6,687.6,481.2z M744.4,496.9c-8.9-1.7-16.9-3.3-26.1-5.1
				c5.3,4.6,9.5,8.2,13.4,11.6C735.8,501.3,739.7,499.3,744.4,496.9z"/>
			<path d="M533.9,247.7c1.5,5.2,2.7,9.1,3.9,13.3c-2.5,2.1-5.2,4.3-8.2,6.8c-2.8-1.8-4.1-4.6-1.4-9
				C530.1,255.6,531.6,252.1,533.9,247.7z"/>
			<path class="st0" d="M296.6,581.6c-4.7-1.2-12.2-2.7-19.4-5.1c-5.7-1.9-8.1-6.5-7.4-11.6c0.7-4.7,4.8-9.2,10.3-9.2
				c8.4,0,16.9,0.6,25.2,2c6.2,1,9.7,7.2,8.8,13.2C313.3,577.4,307.3,581.7,296.6,581.6z"/>
			<path class="st0" d="M659.1,661.5c0,1,0.1,2,0,3c-0.5,5.7-4,9.7-8.9,10.6c-4.6,0.8-9.8-1.7-11.6-6.7c-1.9-5.3-3-10.9-3.9-16.5
				c-2.2-14.2-4.1-28.3-6.1-42.5c-0.3-2-0.3-4,0-6c0.6-4.4,3-7.4,7.4-8.4c4.2-0.9,7.6,0.9,10,4.2c1.2,1.7,2.5,3.7,2.9,5.8
				c3.9,18.7,7.5,37.5,11.2,56.3C659.8,661.3,659.5,661.4,659.1,661.5z"/>
			<path class="st0" d="M201.4,244.3c6.7,0.4,11,6,14.3,12.2c2.1,3.8,3.2,8.4,3.9,12.8c1.2,7.1-3.5,13.5-10.5,15.3
				c-6.6,1.8-12.7-1.4-15.4-8.5c-2.1-5.6-3.9-11.3-5.2-17.1C186.8,251.2,192.5,244.4,201.4,244.3z"/>
			<path class="st0" d="M60.6,306.3c0.1-7.6,8.4-16.7,16.1-17.3c8.5-0.7,14.7,7.4,11.8,15.8c-2.1,6-6.3,10.2-12.2,12.5
				C68.1,320.5,60.5,315.1,60.6,306.3z"/>
			<path class="st0" d="M137.4,487.5c-6.4,0-10.9-4.3-11.1-10.4c-0.1-7.5,8.9-16.8,16.4-16.8c6.7,0,12,5.3,12.1,12.1
				C154.9,480.5,146.8,487.6,137.4,487.5z"/>
			<path class="st0" d="M902.9,268.3c-0.7-7.4,2.7-12.9,7.9-17.4c7.2-6.3,17.7-3.3,20.2,6c2.2,8.3,0.4,16.2-4.4,23.2
				c-3.2,4.6-8.1,6.3-13.6,5c-5.6-1.4-8.7-5.2-9.7-10.8C903,272.3,903,270.2,902.9,268.3z"/>
		</g>
		
			<image style="overflow:visible;enable-background:new    ;" width="751" height="735" xlink:href="../../../../01 wip/Artwork_Finales/e2_ride_02.png"  transform="matrix(0.95 0 0 0.95 231.21 44.33)">
		</image>
	</g>
	<g id="T_e1_jung">
		<rect x="191.8" y="751.4" class="st0" width="794.4" height="194.5"/>
		<path d="M983.7,754v189.5H194.3V754H983.7 M988.7,749H189.3v199.5h799.5L988.7,749L988.7,749z"/>
		<g class="st1">
			<path d="M262.1,840.6v-11.9l-8.4-14.7h3.8l6.2,11l6.2-11h3.8l-8.4,14.7v11.9H262.1z"/>
		</g>
		<g class="st1">
			<path d="M275.2,831.3c0-5.7,3-9.4,8.3-9.5h0.1c5.3,0,8.3,3.7,8.3,9.5c0,6-3,9.8-8.3,9.8S275.2,837.3,275.2,831.3z M278.4,831.5
				c0,4.5,1.9,6.8,5.1,6.8s5.1-2.2,5.1-6.8s-1.8-6.8-5.1-6.8S278.4,826.9,278.4,831.5z"/>
		</g>
		<g class="st1">
			<path d="M298.1,835.5v-13.1h3.1v12.5c0,2.2,1.1,3.4,3.3,3.4c3.3,0,5.4-2.8,5.4-6.7v-9.3h3.1v18.1h-3.1v-3c-1,2.2-3.1,3.6-6,3.6
				C300.4,841.1,298.1,838.9,298.1,835.5z"/>
		</g>
		<g class="st1">
			<path d="M333.9,813.8v26.7h-3.1v-26.7H333.9z"/>
		</g>
		<g class="st1">
			<path d="M340.2,831.3c0-5.7,3-9.4,8.3-9.5h0.1c5.3,0,8.3,3.7,8.3,9.5c0,6-3,9.8-8.3,9.8S340.2,837.3,340.2,831.3z M343.4,831.5
				c0,4.5,1.9,6.8,5.1,6.8s5.1-2.2,5.1-6.8s-1.8-6.8-5.1-6.8S343.4,826.9,343.4,831.5z"/>
		</g>
		<g class="st1">
			<path d="M362.2,831.3c0-5.7,3-9.4,8.3-9.5h0.1c5.3,0,8.3,3.7,8.3,9.5c0,6-3,9.8-8.3,9.8C365.2,841.1,362.2,837.3,362.2,831.3z
				 M365.4,831.5c0,4.5,1.9,6.8,5.1,6.8s5.1-2.2,5.1-6.8s-1.8-6.8-5.1-6.8S365.4,826.9,365.4,831.5z"/>
		</g>
		<g class="st1">
			<path d="M388.2,833.7v6.8h-3.1v-26.7h3.1v15.7l7.8-7.2h4l-7.8,7.4l9,10.8h-4.1l-7.2-8.5L388.2,833.7z"/>
			<path d="M414.5,836c0-3.3,2.2-5.2,5.3-6c4.3-1,6.2-1.5,6.2-3.1c0-1.2-0.2-1.8-1.2-2.2c-0.5-0.2-1.2-0.3-2.2-0.3
				c-2.9,0-4.4,1.2-4.4,4.5h-3.1v-0.2c0-4.2,2.9-6.8,7.5-6.8c2.5,0,4.2,0.5,5.2,1.5s1.4,2.1,1.4,3.7v13.4H426v-3.2
				c-0.8,2.1-3.1,3.8-6.1,3.8C416.5,841.1,414.5,838.9,414.5,836z M417.6,835.9c0,1.5,1,2.7,3,2.7s3.9-1.3,4.8-2.9
				c0.4-0.8,0.7-1.5,0.7-2.2v-3c-0.6,0.3-1.1,0.6-1.4,0.7c-0.2,0.1-0.4,0.1-0.6,0.2l-0.5,0.2c-0.1,0-0.3,0.1-0.7,0.2
				s-0.5,0.2-0.7,0.2c-1.4,0.4-2.2,0.7-3.1,1.3C418.1,833.9,417.6,834.7,417.6,835.9z"/>
		</g>
		<g class="st1">
			<path d="M448.9,825.3c0.7-2,2.8-3.4,5.5-3.4c4.6,0,7.5,3.8,7.5,9.7c0,5.5-2.9,9.4-7.3,9.4c-1.1,0-2.1-0.2-2.9-0.5
				c-1.6-0.7-2.3-1.6-2.8-3v2.9h-3.1v-26.6h3.1L448.9,825.3L448.9,825.3z M454,838.5c2.9,0,4.7-2.3,4.7-6.6c0-4.6-1.8-7.3-4.7-7.3
				c-3.1,0-5.1,2.7-5.1,6.9C448.9,835.8,450.8,838.5,454,838.5z"/>
		</g>
		<g class="st1">
			<path d="M467.3,816.4c0-1.3,1.2-2.5,2.5-2.5s2.5,1.1,2.5,2.5c0,1.3-1.2,2.5-2.5,2.5S467.3,817.7,467.3,816.4z M471.3,822.4v18.2
				h-3.1v-18.2H471.3z"/>
		</g>
		<g class="st1">
			<path d="M479.2,834.9v-10.1h-2.9v-2.5h2.9V817h3.1v5.3h4.3v2.5h-4.3v9.6c0,0.7,0.1,1.3,0.3,1.7c0.1,0.4,0.4,0.8,0.6,1
				c0.3,0.2,0.6,0.4,1,0.4c0.3,0.1,0.7,0.1,1.1,0.1h0.6h1.5v2.8h-1.1c-1.4,0-2.2,0-3.3-0.2c-1.1-0.2-1.7-0.5-2.3-1
				c-0.7-0.6-1-1.3-1.2-2.4C479.3,836.3,479.2,835.7,479.2,834.9z"/>
		</g>
		<g class="st1">
			<path d="M503.7,813.8v26.7h-3.1v-26.7H503.7z"/>
		</g>
		<g class="st1">
			<path d="M510,831.3c0-5.7,3-9.4,8.3-9.5h0.1c5.3,0,8.3,3.7,8.3,9.5c0,6-3,9.8-8.3,9.8S510,837.3,510,831.3z M513.2,831.5
				c0,4.5,1.9,6.8,5.1,6.8s5.1-2.2,5.1-6.8s-1.8-6.8-5.1-6.8S513.2,826.9,513.2,831.5z"/>
		</g>
		<g class="st1">
			<path d="M531.9,832.5h3c0,4,1.7,6.1,5.2,6.1c2.1,0,3.8-1.2,3.8-3c0-1.1-0.4-1.8-1.2-2.3s-1.3-0.6-2.6-1c-0.6-0.2-1.1-0.3-1.5-0.4
				c-3.2-1.1-5.5-1.8-5.7-4.8c0-0.1,0-0.3,0-0.4c0-3,2.7-4.9,6.2-4.9c5.1,0,7.6,2.3,7.6,7h-3c0-1.8-0.4-3-1.2-3.6s-1.8-0.9-3.3-0.9
				c-1.9,0-3.3,0.8-3.3,2.2c0,0.5,0.1,1,0.4,1.3s0.5,0.5,1.1,0.8s0.7,0.3,1.6,0.6c0.4,0.1,0.7,0.2,0.9,0.3c3.6,1.2,5.4,1.5,6.4,3.7
				c0.2,0.5,0.4,1.1,0.4,1.8c0,3.9-2.4,6.1-6.9,6.1c-2,0-3.8-0.5-4.9-1.3c-1.1-0.7-2-1.9-2.4-2.9s-0.7-2.3-0.7-3.2
				c0-0.3,0-0.6,0-0.9v-0.3H531.9z"/>
		</g>
		<g class="st1">
			<path d="M553.7,834.9v-10.1h-2.9v-2.5h2.9V817h3.1v5.3h4.3v2.5h-4.3v9.6c0,0.7,0.1,1.3,0.3,1.7c0.1,0.4,0.4,0.8,0.6,1
				c0.3,0.2,0.6,0.4,1,0.4c0.3,0.1,0.7,0.1,1.1,0.1h0.6h1.5v2.8h-1.1c-1.4,0-2.2,0-3.3-0.2s-1.7-0.5-2.3-1c-0.7-0.6-1-1.3-1.2-2.4
				C553.7,836.3,553.7,835.7,553.7,834.9z"/>
		</g>
		<g class="st1">
			<path d="M565.8,838.3c0-1.2,1.1-2.3,2.3-2.3c1.3,0,2.3,1,2.3,2.3c0,1.2-1,2.3-2.3,2.3S565.8,839.5,565.8,838.3z"/>
			<path d="M576.7,838.3c0-1.2,1.1-2.3,2.3-2.3c1.3,0,2.3,1,2.3,2.3c0,1.2-1,2.3-2.3,2.3S576.7,839.5,576.7,838.3z"/>
		</g>
		<g class="st1">
			<path d="M586.8,838.3c0-1.2,1.1-2.3,2.3-2.3c1.3,0,2.3,1,2.3,2.3c0,1.2-1,2.3-2.3,2.3C587.9,840.6,586.8,839.5,586.8,838.3z"/>
		</g>
		<g class="st1">
			<path d="M601.7,829.7v10.8h-3.4v-26.6h9.8c4.9,0,7.6,3.1,7.6,8s-2.8,7.8-8.3,7.8H601.7z M606.8,817.1h-5.1v9.4h3.7
				c1,0,1.5,0,2.4-0.1s1.3-0.2,2-0.4s1-0.5,1.5-1c0.4-0.5,0.6-1,0.8-1.9c0.1-0.4,0.1-0.9,0.1-1.4
				C612.1,818.6,610.5,817.1,606.8,817.1z"/>
		</g>
		<g class="st1">
			<path d="M620,831.3c0-5.7,3-9.4,8.3-9.5h0.1c5.3,0,8.3,3.7,8.3,9.5c0,6-3,9.8-8.3,9.8C623,841.1,620,837.3,620,831.3z
				 M623.1,831.5c0,4.5,1.9,6.8,5.1,6.8s5.1-2.2,5.1-6.8s-1.8-6.8-5.1-6.8S623.1,826.9,623.1,831.5z"/>
			<path d="M640.2,831.3c0-5.7,3-9.4,8.3-9.5h0.1c5.3,0,8.3,3.7,8.3,9.5c0,6-3,9.8-8.3,9.8C643.2,841.1,640.2,837.3,640.2,831.3z
				 M643.4,831.5c0,4.5,1.9,6.8,5.1,6.8s5.1-2.2,5.1-6.8s-1.8-6.8-5.1-6.8S643.4,826.9,643.4,831.5z"/>
		</g>
		<g class="st1">
			<path d="M663.8,831.3c0-5.6,3.5-9.4,8.7-9.4c2.4,0,4.6,0.9,6.1,2.4s2.1,3.5,2.1,5.3c0,0.3,0,0.6,0,0.9h-3.1V830
				c0-1.4-0.3-2.7-1-3.6c-0.7-0.8-1.7-1.4-2.7-1.6c-0.5-0.1-1-0.1-1.5-0.1c-3.2,0-5.4,2.4-5.4,6.7c0,4.4,2,6.9,5.5,6.9
				c0.9,0,1.7-0.2,2.6-0.7c0.9-0.5,1.5-1.2,2-2.6c0.2-0.7,0.4-1.4,0.4-2.2h3.1c-0.2,5.4-3,8.3-8.3,8.3c-3.7,0-6.4-1.8-7.6-4.7
				C664.2,834.9,663.8,833.2,663.8,831.3z"/>
		</g>
		<g class="st1">
			<path d="M685.5,836c0-3.3,2.2-5.2,5.3-6c4.3-1,6.2-1.5,6.2-3.1c0-1.2-0.2-1.8-1.2-2.2c-0.5-0.2-1.2-0.3-2.2-0.3
				c-2.9,0-4.4,1.2-4.4,4.5h-3.1v-0.2c0-4.2,2.9-6.8,7.5-6.8c2.5,0,4.2,0.5,5.2,1.5s1.4,2.1,1.4,3.7v13.4h-3.1v-3.2
				c-0.8,2.1-3.1,3.8-6.1,3.8C687.6,841.1,685.5,838.9,685.5,836z M688.6,835.9c0,1.5,1,2.7,3,2.7s3.9-1.3,4.8-2.9
				c0.4-0.8,0.7-1.5,0.7-2.2v-3c-0.6,0.3-1.1,0.6-1.4,0.7c-0.2,0.1-0.4,0.1-0.6,0.2l-0.5,0.2c-0.1,0-0.3,0.1-0.7,0.2
				s-0.5,0.2-0.7,0.2c-1.4,0.4-2.2,0.7-3.1,1.3C689.1,833.9,688.6,834.7,688.6,835.9z"/>
		</g>
		<g class="st1">
			<path d="M727,840.5h-9.9v-26.7h9.7c4.7,0,7.9,2.8,7.9,6.4c0,1.6-0.5,3-1,3.7c-0.6,0.8-1.6,1.4-2.1,1.7c-0.3,0.1-0.6,0.3-1,0.4
				c1.9,0.5,3.3,1.4,4.1,2.6c0.8,1.2,1.1,2.6,1.1,4.2c0,3.2-1.7,5.6-4.3,6.8C730.1,840.2,728.6,840.5,727,840.5z M726.2,816.9h-5.9
				v7.9h5.2c3.7,0,5.6-1.4,5.6-4.1C731.2,818.2,729.4,816.9,726.2,816.9z M726.3,827.8h-5.9v9.7h5.6c4,0,6.3-1.7,6.3-4.7
				C732.2,829.5,730.2,827.8,726.3,827.8z"/>
		</g>
		<g class="st1">
			<path d="M740.3,836c0-3.3,2.2-5.2,5.3-6c4.3-1,6.2-1.5,6.2-3.1c0-1.2-0.2-1.8-1.2-2.2c-0.5-0.2-1.2-0.3-2.2-0.3
				c-2.9,0-4.4,1.2-4.4,4.5h-3.1v-0.2c0-4.2,2.9-6.8,7.5-6.8c2.5,0,4.2,0.5,5.2,1.5s1.4,2.1,1.4,3.7v13.4h-3.1v-3.2
				c-0.8,2.1-3.1,3.8-6.1,3.8C742.3,841.1,740.3,838.9,740.3,836z M743.4,835.9c0,1.5,1,2.7,3,2.7s3.9-1.3,4.8-2.9
				c0.4-0.8,0.7-1.5,0.7-2.2v-3c-0.6,0.3-1.1,0.6-1.4,0.7c-0.2,0.1-0.4,0.1-0.6,0.2l-0.5,0.2c-0.1,0-0.3,0.1-0.7,0.2
				s-0.5,0.2-0.7,0.2c-1.4,0.4-2.2,0.7-3.1,1.3C743.9,833.9,743.4,834.7,743.4,835.9z"/>
		</g>
		<g class="st1">
			<path d="M764.7,830.5v10h-2.9v-18.1h2.8v4c0.4-1.1,1-2,1.7-2.6s1.4-1,2.2-1.2s1.5-0.3,2.1-0.3h0.2c0.3,0,0.7,0,1,0h0.4v3.2
				c-0.1,0-0.3,0-0.7,0h-0.9c-0.4,0-1.4,0-2,0.1c-0.5,0.1-1.4,0.3-1.9,0.7c-0.5,0.3-1.2,0.9-1.5,1.5
				C764.9,828.5,764.7,829.5,764.7,830.5z"/>
		</g>
		<g class="st1">
			<path d="M779.1,820.6h-2.8c0-2.1,0.4-3.8,1.4-5.1c1-1.4,2.8-2.2,5.2-2.2c3.6,0,6.1,1.9,6.1,5.1c0,1.3-0.4,2.4-1,3.1
				c-0.6,0.7-1.8,1.4-2.7,1.9c-0.5,0.2-1.1,0.5-1.8,0.7c-0.1,0.1-0.4,0.1-0.7,0.2c-0.7,0.2-0.9,0.3-1.4,0.6
				c-0.6,0.3-0.8,0.6-1.1,1.1s-0.5,1.1-0.5,2c0,2.4,1.1,3.5,3.3,3.5c1,0,1.7-0.3,2.2-0.9c0.5-0.6,0.8-1.2,1-2.2
				c0.1-0.9,0.2-1.7,0.2-2.7h2.7c0,0.9,0,1.5-0.1,2.7c-0.2,1.2-0.4,2.1-1,3.1s-1.4,1.7-2.7,2.1c-0.7,0.2-1.4,0.3-2.2,0.3
				c-3.9,0-6.2-1.9-6.2-6c0-1.9,0.7-3.4,1.9-4.4c1.2-0.9,2.2-1.4,3.6-1.9c2.5-0.8,3.7-1.6,3.7-3.4c0-1.7-1.3-2.6-3.2-2.6
				C780.5,815.9,779.2,817.1,779.1,820.6z M780.3,838.3c0-1.2,1.1-2.3,2.3-2.3c1.3,0,2.3,1,2.3,2.3c0,1.2-1,2.3-2.3,2.3
				S780.3,839.5,780.3,838.3z"/>
			<path d="M815.8,840.5h-10.9v-3h3.8v-20.6h-3.8v-3h10.9v3H812v20.6h3.8V840.5z"/>
		</g>
		<g class="st1">
			<path d="M835.5,833.7v6.8h-3.1v-26.7h3.1v15.7l7.8-7.2h4l-7.8,7.4l9,10.8h-4.1l-7.2-8.5L835.5,833.7z"/>
		</g>
		<g class="st1">
			<path d="M856.8,831.3v9.3h-3.1v-18.1h3.1v3c0.9-2.1,2.9-3.5,5.9-3.5c3.5,0,5.9,2.2,5.9,5.6v13.1h-3.1v-12.5
				c0-2.2-1.1-3.5-3.3-3.5C858.8,824.6,856.8,827.1,856.8,831.3z"/>
		</g>
		<g class="st1">
			<path d="M874.9,831.3c0-5.7,3-9.4,8.3-9.5h0.1c5.3,0,8.3,3.7,8.3,9.5c0,6-3,9.8-8.3,9.8S874.9,837.3,874.9,831.3z M878,831.5
				c0,4.5,1.9,6.8,5.1,6.8s5.1-2.2,5.1-6.8s-1.8-6.8-5.1-6.8S878,826.9,878,831.5z"/>
		</g>
		<g class="st1">
			<path d="M905.8,840.5h-5.4l-4.9-18.2h3l4.6,17.1l4.3-17.1h5.4l4.3,17.1l4.6-17.1h3l-4.9,18.2h-5.4l-4.2-16.9L905.8,840.5z"/>
		</g>
		<g class="st1">
			<path d="M251.9,874.9v-10.1H249v-2.5h2.9V857h3.1v5.3h4.3v2.5H255v9.6c0,0.7,0.1,1.3,0.3,1.7c0.1,0.4,0.4,0.8,0.6,1
				c0.3,0.2,0.6,0.4,1,0.4c0.3,0.1,0.7,0.1,1.1,0.1h0.6h1.5v2.8H259c-1.4,0-2.2,0-3.3-0.2c-1.1-0.2-1.7-0.5-2.3-1
				c-0.7-0.6-1-1.3-1.2-2.4C251.9,876.3,251.9,875.7,251.9,874.9z"/>
		</g>
		<g class="st1">
			<path d="M267.3,871.3v9.3h-3.1V854h3.1v11.5c0.9-2.1,2.9-3.5,5.9-3.5c3.5,0,5.9,2.2,5.9,5.6v13.1H276v-12.5
				c0-2.2-1.1-3.5-3.3-3.5C269.3,864.6,267.3,867.1,267.3,871.3z"/>
		</g>
		<g class="st1">
			<path d="M285,876c0-3.3,2.2-5.2,5.3-6c4.3-1,6.2-1.5,6.2-3.1c0-1.2-0.2-1.8-1.2-2.2c-0.5-0.2-1.2-0.3-2.2-0.3
				c-2.9,0-4.4,1.2-4.4,4.5h-3.1v-0.2c0-4.2,2.9-6.8,7.5-6.8c2.5,0,4.2,0.5,5.2,1.5s1.4,2.1,1.4,3.7v13.4h-3.1v-3.2
				c-0.8,2.1-3.1,3.8-6.1,3.8C287,881.1,285,878.9,285,876z M288.1,875.9c0,1.5,1,2.7,3,2.7s3.9-1.3,4.8-2.9
				c0.4-0.8,0.7-1.5,0.7-2.2v-3c-0.6,0.3-1.1,0.6-1.4,0.7c-0.2,0.1-0.4,0.1-0.6,0.2l-0.5,0.2c-0.1,0-0.3,0.1-0.7,0.2
				s-0.5,0.2-0.7,0.2c-1.4,0.4-2.2,0.7-3.1,1.3C288.6,873.9,288.1,874.7,288.1,875.9z"/>
		</g>
		<g class="st1">
			<path d="M307,874.9v-10.1h-2.9v-2.5h2.9V857h3.1v5.3h4.3v2.5h-4.3v9.6c0,0.7,0.1,1.3,0.3,1.7c0.1,0.4,0.4,0.8,0.6,1
				c0.3,0.2,0.6,0.4,1,0.4c0.3,0.1,0.7,0.1,1.1,0.1h0.6h1.5v2.8H314c-1.4,0-2.2,0-3.3-0.2c-1.1-0.2-1.7-0.5-2.3-1
				c-0.7-0.6-1-1.3-1.2-2.4C307.1,876.3,307,875.7,307,874.9z"/>
		</g>
		<g class="st1">
			<path d="M331.4,865.3c1-2.3,2.9-3.4,5.7-3.4c4.4,0,7.2,3.9,7.2,9.4c0,5.9-2.9,9.7-7.5,9.7c-2.9,0-4.4-1.2-5.5-3.5v10h-3.1v-25.2
				h3.1L331.4,865.3L331.4,865.3z M336.5,878.5c3,0,4.8-2.8,4.8-7.4c0-4.2-1.9-6.6-4.8-6.6c-3.2,0-5.1,2.6-5.1,7
				C331.4,875.7,333.4,878.5,336.5,878.5z"/>
		</g>
		<g class="st1">
			<path d="M353.9,853.8v26.7h-3.1v-26.7H353.9z"/>
		</g>
		<g class="st1">
			<path d="M359.8,876c0-3.3,2.2-5.2,5.3-6c4.3-1,6.2-1.5,6.2-3.1c0-1.2-0.2-1.8-1.2-2.2c-0.5-0.2-1.2-0.3-2.2-0.3
				c-2.9,0-4.4,1.2-4.4,4.5h-3.1v-0.2c0-4.2,2.9-6.8,7.5-6.8c2.5,0,4.2,0.5,5.2,1.5s1.4,2.1,1.4,3.7v13.4h-3.1v-3.2
				c-0.8,2.1-3.1,3.8-6.1,3.8C361.8,881.1,359.8,878.9,359.8,876z M362.9,875.9c0,1.5,1,2.7,3,2.7s3.9-1.3,4.8-2.9
				c0.4-0.8,0.7-1.5,0.7-2.2v-3c-0.6,0.3-1.1,0.6-1.4,0.7c-0.2,0.1-0.4,0.1-0.6,0.2l-0.5,0.2c-0.1,0-0.3,0.1-0.7,0.2
				s-0.5,0.2-0.7,0.2c-1.4,0.4-2.2,0.7-3.1,1.3C363.3,873.9,362.9,874.7,362.9,875.9z"/>
		</g>
		<g class="st1">
			<path d="M380.2,871.3c0-5.6,3.5-9.4,8.7-9.4c2.4,0,4.6,0.9,6.1,2.4s2.1,3.5,2.1,5.3c0,0.3,0,0.6,0,0.9H394V870
				c0-1.4-0.3-2.7-1-3.6c-0.7-0.8-1.7-1.4-2.7-1.6c-0.5-0.1-1-0.1-1.5-0.1c-3.2,0-5.4,2.4-5.4,6.7c0,4.4,2,6.9,5.5,6.9
				c0.9,0,1.7-0.2,2.6-0.7s1.5-1.2,2-2.6c0.2-0.7,0.4-1.4,0.4-2.2h3.1c-0.2,5.4-3,8.3-8.3,8.3c-3.7,0-6.4-1.8-7.6-4.7
				C380.5,874.9,380.2,873.2,380.2,871.3z"/>
		</g>
		<g class="st1">
			<path d="M402.4,871.4c0-5.7,3.5-9.6,8.5-9.6c2.8,0,4.9,1.2,6.1,3.1c1.2,1.9,1.6,4.2,1.6,6.4c0,0.3,0,0.7,0,1.1h-13
				c0.1,2.1,0.7,3.6,1.6,4.5s2.1,1.3,3.6,1.3h0.1c2.4,0,4.2-1.6,4.5-4.3h3.1c-0.1,1.4-0.4,2.7-1.2,4s-1.8,2.1-3.5,2.7
				c-0.8,0.3-1.8,0.4-2.9,0.4C405.6,881.1,402.4,877.2,402.4,871.4z M405.7,869.7h9.8c0-3.4-2-5-4.6-5
				C408.1,864.6,405.9,866.6,405.7,869.7z"/>
		</g>
		<g class="st1">
			<path d="M424.1,878.3c0-1.2,1-2.3,2.3-2.3c1.2,0,2.3,1,2.3,2.3v7.7h-2.3v-5.4C425.1,880.6,424.1,879.6,424.1,878.3z"/>
		</g>
		<g class="st1">
			<path d="M446.1,874.9v-10.1h-2.9v-2.5h2.9V857h3.1v5.3h4.3v2.5h-4.3v9.6c0,0.7,0.1,1.3,0.3,1.7c0.1,0.4,0.4,0.8,0.6,1
				c0.3,0.2,0.6,0.4,1,0.4c0.3,0.1,0.7,0.1,1.1,0.1h0.6h1.5v2.8h-1.1c-1.4,0-2.2,0-3.3-0.2c-1.1-0.2-1.7-0.5-2.3-1
				c-0.7-0.6-1-1.3-1.2-2.4C446.2,876.3,446.1,875.7,446.1,874.9z"/>
		</g>
		<g class="st1">
			<path d="M457.4,876c0-3.3,2.2-5.2,5.3-6c4.3-1,6.2-1.5,6.2-3.1c0-1.2-0.2-1.8-1.2-2.2c-0.5-0.2-1.2-0.3-2.2-0.3
				c-2.9,0-4.4,1.2-4.4,4.5H458v-0.2c0-4.2,2.9-6.8,7.5-6.8c2.5,0,4.2,0.5,5.2,1.5s1.4,2.1,1.4,3.7v13.4H469v-3.2
				c-0.8,2.1-3.1,3.8-6.1,3.8C459.5,881.1,457.4,878.9,457.4,876z M460.5,875.9c0,1.5,1,2.7,3,2.7s3.9-1.3,4.8-2.9
				c0.4-0.8,0.7-1.5,0.7-2.2v-3c-0.6,0.3-1.1,0.6-1.4,0.7c-0.2,0.1-0.4,0.1-0.6,0.2l-0.5,0.2c-0.1,0-0.3,0.1-0.7,0.2
				s-0.5,0.2-0.7,0.2c-1.4,0.4-2.2,0.7-3.1,1.3C461,873.9,460.5,874.7,460.5,875.9z"/>
		</g>
		<g class="st1">
			<path d="M482,873.7v6.8h-3.1v-26.7h3.1v15.7l7.8-7.2h4l-7.8,7.4l9,10.8h-4.1l-7.2-8.5L482,873.7z"/>
		</g>
		<g class="st1">
			<path d="M497.9,871.4c0-5.7,3.5-9.6,8.5-9.6c2.8,0,4.9,1.2,6.1,3.1c1.2,1.9,1.6,4.2,1.6,6.4c0,0.3,0,0.7,0,1.1h-13
				c0.1,2.1,0.7,3.6,1.6,4.5c1,0.9,2.2,1.3,3.6,1.3h0.1c2.4,0,4.2-1.6,4.5-4.3h3.1c-0.1,1.4-0.4,2.7-1.2,4s-1.8,2.1-3.5,2.7
				c-0.8,0.3-1.8,0.4-2.9,0.4C501,881.1,497.9,877.2,497.9,871.4z M501.1,869.7h9.8c0-3.4-2-5-4.6-5
				C503.5,864.6,501.3,866.6,501.1,869.7z"/>
			<path d="M526.8,876c0-3.3,2.2-5.2,5.3-6c4.3-1,6.2-1.5,6.2-3.1c0-1.2-0.2-1.8-1.2-2.2c-0.5-0.2-1.2-0.3-2.2-0.3
				c-2.9,0-4.4,1.2-4.4,4.5h-3.1v-0.2c0-4.2,2.9-6.8,7.5-6.8c2.5,0,4.2,0.5,5.2,1.5s1.4,2.1,1.4,3.7v13.4h-3.1v-3.2
				c-0.8,2.1-3.1,3.8-6.1,3.8C528.8,881.1,526.8,878.9,526.8,876z M529.9,875.9c0,1.5,1,2.7,3,2.7s3.9-1.3,4.8-2.9
				c0.4-0.8,0.7-1.5,0.7-2.2v-3c-0.6,0.3-1.1,0.6-1.4,0.7c-0.2,0.1-0.4,0.1-0.6,0.2l-0.5,0.2c-0.1,0-0.3,0.1-0.7,0.2
				s-0.5,0.2-0.7,0.2c-1.4,0.4-2.2,0.7-3.1,1.3C530.4,873.9,529.9,874.7,529.9,875.9z"/>
		</g>
		<g class="st1">
			<path d="M563.1,870.5v10h-2.9v-18.1h2.8v4c0.4-1.1,1-2,1.7-2.6s1.4-1,2.2-1.2s1.5-0.3,2.1-0.3h0.2c0.3,0,0.7,0,1,0h0.4v3.2
				c-0.1,0-0.3,0-0.7,0H569c-0.4,0-1.4,0-2,0.1s-1.4,0.3-1.9,0.7c-0.5,0.3-1.2,0.9-1.5,1.5C563.3,868.5,563.1,869.5,563.1,870.5z"/>
		</g>
		<g class="st1">
			<path d="M574.8,856.4c0-1.3,1.2-2.5,2.5-2.5s2.5,1.1,2.5,2.5c0,1.3-1.2,2.5-2.5,2.5S574.8,857.7,574.8,856.4z M578.8,862.4v18.2
				h-3.1v-18.2H578.8z"/>
			<path d="M591.5,861.9c2.7,0,4.8,1.5,5.5,3.4v-11.4h3.1v26.6H597v-3c-0.9,2.2-2.4,3.5-5.7,3.5c-4.4,0-7.3-3.9-7.3-9.4
				C584,865.7,586.9,861.9,591.5,861.9z M591.9,878.5c3.2,0,5.1-2.7,5.1-7.1c0-4.2-2-6.9-5.1-6.9c-3,0-4.7,2.8-4.7,7.3
				C587.1,876.1,589,878.5,591.9,878.5z"/>
		</g>
		<g class="st1">
			<path d="M607.5,871.4c0-5.7,3.5-9.6,8.5-9.6c2.8,0,4.9,1.2,6.1,3.1c1.2,1.9,1.6,4.2,1.6,6.4c0,0.3,0,0.7,0,1.1h-13
				c0.1,2.1,0.7,3.6,1.6,4.5c1,0.9,2.2,1.3,3.6,1.3h0.1c2.4,0,4.2-1.6,4.5-4.3h3.1c-0.1,1.4-0.4,2.7-1.2,4s-1.8,2.1-3.5,2.7
				c-0.8,0.3-1.8,0.4-2.9,0.4C610.6,881.1,607.5,877.2,607.5,871.4z M610.7,869.7h9.8c0-3.4-2-5-4.6-5
				C613.1,864.6,610.9,866.6,610.7,869.7z"/>
		</g>
		<g class="st1">
			<path d="M639.2,871.3c0-5.7,3-9.4,8.3-9.5h0.1c5.3,0,8.3,3.7,8.3,9.5c0,6-3,9.8-8.3,9.8C642.2,881.1,639.2,877.3,639.2,871.3z
				 M642.4,871.5c0,4.5,1.9,6.8,5.1,6.8s5.1-2.2,5.1-6.8s-1.8-6.8-5.1-6.8S642.4,866.9,642.4,871.5z"/>
		</g>
		<g class="st1">
			<path d="M665.2,871.3v9.3h-3.1v-18.1h3.1v3c0.9-2.1,2.9-3.5,5.9-3.5c3.5,0,5.9,2.2,5.9,5.6v13.1h-3.1v-12.5
				c0-2.2-1.1-3.5-3.3-3.5C667.3,864.6,665.2,867.1,665.2,871.3z"/>
		</g>
		<g class="st1">
			<path d="M697.9,871.3v9.3h-3.1v-18.1h3.1v3c0.9-2,3-3.6,5.8-3.6c2.6,0,4.8,1.5,5.4,3.6c1.3-2.4,3.3-3.6,6.1-3.6
				c3.3,0,5.7,2.2,5.7,5.6v13.1h-3.1v-12.5c0-2.1-1.2-3.5-3.2-3.5c-3.2,0-5.2,2.8-5.2,6.7v9.3h-3.1v-12.5c0-2.1-1.2-3.5-3.2-3.5
				C699.9,864.6,697.9,867.4,697.9,871.3z"/>
		</g>
		<g class="st1">
			<path d="M735.1,880.5h-2l-7-18.1h3.1l6,15.3l0.5,1.3l5.8-16.6h3.1l-7.8,22.7c-0.5,1.4-1.1,2.2-1.9,2.8c-0.8,0.6-2.1,0.9-3.4,1
				c-0.7,0.1-1.5,0.1-2.5,0.1h-1.1v-2.8h1.6c2.4,0,3.7-0.3,4.3-2.1L735.1,880.5z"/>
		</g>
		<g class="st1">
			<path d="M770.2,880.5h-9.9v-26.7h9.7c4.7,0,7.9,2.8,7.9,6.4c0,1.6-0.5,3-1,3.7s-1.6,1.4-2.1,1.7c-0.3,0.1-0.6,0.3-1,0.4
				c1.9,0.5,3.3,1.4,4.1,2.6c0.8,1.2,1.1,2.6,1.1,4.2c0,3.2-1.7,5.6-4.3,6.8C773.3,880.2,771.8,880.5,770.2,880.5z M769.4,856.9
				h-5.9v7.9h5.2c3.7,0,5.6-1.4,5.6-4.1C774.4,858.2,772.6,856.9,769.4,856.9z M769.5,867.8h-5.9v9.7h5.6c4,0,6.3-1.7,6.3-4.7
				C775.4,869.5,773.4,867.8,769.5,867.8z"/>
		</g>
		<g class="st1">
			<path d="M783.5,876c0-3.3,2.2-5.2,5.3-6c4.3-1,6.2-1.5,6.2-3.1c0-1.2-0.2-1.8-1.2-2.2c-0.5-0.2-1.2-0.3-2.2-0.3
				c-2.9,0-4.4,1.2-4.4,4.5h-3.1v-0.2c0-4.2,2.9-6.8,7.5-6.8c2.5,0,4.2,0.5,5.2,1.5s1.4,2.1,1.4,3.7v13.4H795v-3.2
				c-0.8,2.1-3.1,3.8-6.1,3.8C785.5,881.1,783.5,878.9,783.5,876z M786.6,875.9c0,1.5,1,2.7,3,2.7s3.9-1.3,4.8-2.9
				c0.4-0.8,0.7-1.5,0.7-2.2v-3c-0.6,0.3-1.1,0.6-1.4,0.7c-0.2,0.1-0.4,0.1-0.6,0.2l-0.5,0.2c-0.1,0-0.3,0.1-0.7,0.2
				s-0.5,0.2-0.7,0.2c-1.4,0.4-2.2,0.7-3.1,1.3C787.1,873.9,786.6,874.7,786.6,875.9z"/>
		</g>
		<g class="st1">
			<path d="M804,871.3c0-5.6,3.5-9.4,8.7-9.4c2.4,0,4.6,0.9,6.1,2.4s2.1,3.5,2.1,5.3c0,0.3,0,0.6,0,0.9h-3.1V870
				c0-1.4-0.3-2.7-1-3.6c-0.7-0.8-1.7-1.4-2.7-1.6c-0.5-0.1-1-0.1-1.5-0.1c-3.2,0-5.4,2.4-5.4,6.7c0,4.4,2,6.9,5.5,6.9
				c0.9,0,1.7-0.2,2.6-0.7c0.9-0.5,1.5-1.2,2-2.6c0.2-0.7,0.4-1.4,0.4-2.2h3.1c-0.2,5.4-3,8.3-8.3,8.3c-3.7,0-6.4-1.8-7.6-4.7
				C804.3,874.9,804,873.2,804,871.3z"/>
		</g>
		<g class="st1">
			<path d="M830.3,873.7v6.8h-3.1v-26.7h3.1v15.7l7.8-7.2h4l-7.8,7.4l9,10.8h-4.1L832,872L830.3,873.7z"/>
		</g>
		<g class="st1">
			<path d="M846.4,872.5h3c0,4,1.7,6.1,5.2,6.1c2.1,0,3.8-1.2,3.8-3c0-1.1-0.4-1.8-1.2-2.3s-1.3-0.6-2.6-1c-0.6-0.2-1.1-0.3-1.5-0.4
				c-3.2-1.1-5.5-1.8-5.7-4.8c0-0.1,0-0.3,0-0.4c0-3,2.7-4.9,6.2-4.9c5.1,0,7.6,2.3,7.6,7h-3c0-1.8-0.4-3-1.2-3.6
				c-0.8-0.7-1.8-0.9-3.3-0.9c-1.9,0-3.3,0.8-3.3,2.2c0,0.5,0.1,1,0.4,1.3c0.3,0.3,0.5,0.5,1.1,0.8s0.7,0.3,1.6,0.6
				c0.4,0.1,0.7,0.2,0.9,0.3c3.6,1.2,5.4,1.5,6.5,3.7c0.2,0.5,0.4,1.1,0.4,1.8c0,3.9-2.4,6.1-6.9,6.1c-2,0-3.8-0.5-4.9-1.3
				c-1.1-0.7-2-1.9-2.4-2.9s-0.7-2.3-0.7-3.2c0-0.3,0-0.6,0-0.9L846.4,872.5L846.4,872.5z"/>
		</g>
		<g class="st1">
			<path d="M866.5,871.4c0-5.7,3.5-9.6,8.5-9.6c2.8,0,4.9,1.2,6.1,3.1c1.2,1.9,1.6,4.2,1.6,6.4c0,0.3,0,0.7,0,1.1h-13
				c0.1,2.1,0.7,3.6,1.6,4.5c1,0.9,2.1,1.3,3.6,1.3h0.1c2.4,0,4.2-1.6,4.5-4.3h3.1c-0.1,1.4-0.4,2.7-1.2,4s-1.8,2.1-3.5,2.7
				c-0.8,0.3-1.8,0.4-2.9,0.4C869.6,881.1,866.5,877.2,866.5,871.4z M869.8,869.7h9.8c0-3.4-2-5-4.6-5
				C872.1,864.6,869.9,866.6,869.8,869.7z"/>
		</g>
		<g class="st1">
			<path d="M887.6,876c0-3.3,2.2-5.2,5.3-6c4.3-1,6.2-1.5,6.2-3.1c0-1.2-0.2-1.8-1.2-2.2c-0.5-0.2-1.2-0.3-2.2-0.3
				c-2.9,0-4.4,1.2-4.4,4.5h-3.1v-0.2c0-4.2,2.9-6.8,7.5-6.8c2.5,0,4.2,0.5,5.2,1.5s1.4,2.1,1.4,3.7v13.4h-3.1v-3.2
				c-0.8,2.1-3.1,3.8-6.1,3.8C889.6,881.1,887.6,878.9,887.6,876z M890.7,875.9c0,1.5,1,2.7,3,2.7s3.9-1.3,4.8-2.9
				c0.4-0.8,0.7-1.5,0.7-2.2v-3c-0.6,0.3-1.1,0.6-1.4,0.7c-0.2,0.1-0.4,0.1-0.6,0.2l-0.5,0.2c-0.1,0-0.3,0.1-0.7,0.2
				s-0.5,0.2-0.7,0.2c-1.4,0.4-2.2,0.7-3.1,1.3C891.2,873.9,890.7,874.7,890.7,875.9z"/>
		</g>
		<g class="st1">
			<path d="M909.6,874.9v-10.1h-2.9v-2.5h2.9V857h3.1v5.3h4.3v2.5h-4.3v9.6c0,0.7,0.1,1.3,0.3,1.7c0.1,0.4,0.4,0.8,0.6,1
				c0.3,0.2,0.6,0.4,1,0.4c0.3,0.1,0.7,0.1,1.1,0.1h0.6h1.5v2.8h-1.1c-1.4,0-2.2,0-3.3-0.2s-1.7-0.5-2.3-1c-0.7-0.6-1-1.3-1.2-2.4
				C909.7,876.3,909.6,875.7,909.6,874.9z"/>
		</g>
		<g class="st1">
			<path d="M921.8,878.3c0-1.2,1.1-2.3,2.3-2.3c1.3,0,2.3,1,2.3,2.3c0,1.2-1,2.3-2.3,2.3C922.9,880.6,921.8,879.5,921.8,878.3z
				 M923.3,872.9l-0.9-9.7l-0.1-9.3h4.1l-0.3,9.3l-0.9,9.7H923.3z"/>
		</g>
	</g>
</g>
</svg>
