<?xml version="1.0" encoding="utf-8"?>
<!-- Generator: Adobe Illustrator 22.1.0, SVG Export Plug-In . SVG Version: 6.00 Build 0)  -->
<svg version="1.1" id="Layer_1" xmlns="http://www.w3.org/2000/svg" xmlns:xlink="http://www.w3.org/1999/xlink" x="0px" y="0px"
	 viewBox="0 0 1197 946.5" style="enable-background:new 0 0 1197 946.5;" xml:space="preserve">
<style type="text/css">
	.st0{fill:#FFFFFF;}
	.st1{enable-background:new    ;}
</style>
<metadata><?xpacket begin="﻿" id="W5M0MpCehiHzreSzNTczkc9d"?>
<x:xmpmeta xmlns:x="adobe:ns:meta/" x:xmptk="Adobe XMP Core 5.6-c143 79.161356, 2017/09/07-01:11:22        ">
   <rdf:RDF xmlns:rdf="http://www.w3.org/1999/02/22-rdf-syntax-ns#">
      <rdf:Description rdf:about=""
            xmlns:xmpMM="http://ns.adobe.com/xap/1.0/mm/"
            xmlns:stEvt="http://ns.adobe.com/xap/1.0/sType/ResourceEvent#"
            xmlns:stMfs="http://ns.adobe.com/xap/1.0/sType/ManifestItem#"
            xmlns:stRef="http://ns.adobe.com/xap/1.0/sType/ResourceRef#"
            xmlns:dc="http://purl.org/dc/elements/1.1/"
            xmlns:xmp="http://ns.adobe.com/xap/1.0/"
            xmlns:xmpGImg="http://ns.adobe.com/xap/1.0/g/img/"
            xmlns:xmpTPg="http://ns.adobe.com/xap/1.0/t/pg/"
            xmlns:stDim="http://ns.adobe.com/xap/1.0/sType/Dimensions#"
            xmlns:xmpG="http://ns.adobe.com/xap/1.0/g/">
         <xmpMM:DerivedFrom rdf:parseType="Resource"/>
         <xmpMM:DocumentID>xmp.did:207de35a-d867-bb43-8178-83912dba6f3f</xmpMM:DocumentID>
         <xmpMM:InstanceID>xmp.iid:207de35a-d867-bb43-8178-83912dba6f3f</xmpMM:InstanceID>
         <xmpMM:OriginalDocumentID>xmp.did:207de35a-d867-bb43-8178-83912dba6f3f</xmpMM:OriginalDocumentID>
         <xmpMM:History>
            <rdf:Seq>
               <rdf:li rdf:parseType="Resource">
                  <stEvt:action>saved</stEvt:action>
                  <stEvt:instanceID>xmp.iid:207de35a-d867-bb43-8178-83912dba6f3f</stEvt:instanceID>
                  <stEvt:when>2018-08-18T13:58:49+02:00</stEvt:when>
                  <stEvt:softwareAgent>Adobe Illustrator CC 22.1 (Windows)</stEvt:softwareAgent>
                  <stEvt:changed>/</stEvt:changed>
               </rdf:li>
            </rdf:Seq>
         </xmpMM:History>
         <xmpMM:Manifest>
            <rdf:Seq>
               <rdf:li rdf:parseType="Resource">
                  <stMfs:linkForm>EmbedByReference</stMfs:linkForm>
                  <stMfs:reference rdf:parseType="Resource">
                     <stRef:filePath>C:\Users\Juanin\Documents\Jorge_2018\01_CHAMBA\06_Backseat\Reeperbahn Fest 2018\01 wip\Artwork_Finales\e3_cruise_02.png</stRef:filePath>
                     <stRef:documentID>0</stRef:documentID>
                     <stRef:instanceID>0</stRef:instanceID>
                  </stMfs:reference>
               </rdf:li>
            </rdf:Seq>
         </xmpMM:Manifest>
         <xmpMM:Ingredients>
            <rdf:Bag>
               <rdf:li rdf:parseType="Resource">
                  <stRef:filePath>C:\Users\Juanin\Documents\Jorge_2018\01_CHAMBA\06_Backseat\Reeperbahn Fest 2018\01 wip\Artwork_Finales\e3_cruise_02.png</stRef:filePath>
                  <stRef:documentID>0</stRef:documentID>
                  <stRef:instanceID>0</stRef:instanceID>
               </rdf:li>
            </rdf:Bag>
         </xmpMM:Ingredients>
         <dc:format>image/svg+xml</dc:format>
         <xmp:CreatorTool>Adobe Illustrator CC 22.1 (Windows)</xmp:CreatorTool>
         <xmp:CreateDate>2018-08-18T13:58:49+02:00</xmp:CreateDate>
         <xmp:Thumbnails>
            <rdf:Alt>
               <rdf:li rdf:parseType="Resource">
                  <xmpGImg:width>256</xmpGImg:width>
                  <xmpGImg:height>204</xmpGImg:height>
                  <xmpGImg:format>JPEG</xmpGImg:format>
                  <xmpGImg:image>/9j/4AAQSkZJRgABAgEASABIAAD/7QAsUGhvdG9zaG9wIDMuMAA4QklNA+0AAAAAABAASAAAAAEA&#xA;AQBIAAAAAQAB/+4ADkFkb2JlAGTAAAAAAf/bAIQABgQEBAUEBgUFBgkGBQYJCwgGBggLDAoKCwoK&#xA;DBAMDAwMDAwQDA4PEA8ODBMTFBQTExwbGxscHx8fHx8fHx8fHwEHBwcNDA0YEBAYGhURFRofHx8f&#xA;Hx8fHx8fHx8fHx8fHx8fHx8fHx8fHx8fHx8fHx8fHx8fHx8fHx8fHx8fHx8f/8AAEQgAzAEAAwER&#xA;AAIRAQMRAf/EAaIAAAAHAQEBAQEAAAAAAAAAAAQFAwIGAQAHCAkKCwEAAgIDAQEBAQEAAAAAAAAA&#xA;AQACAwQFBgcICQoLEAACAQMDAgQCBgcDBAIGAnMBAgMRBAAFIRIxQVEGE2EicYEUMpGhBxWxQiPB&#xA;UtHhMxZi8CRygvElQzRTkqKyY3PCNUQnk6OzNhdUZHTD0uIIJoMJChgZhJRFRqS0VtNVKBry4/PE&#xA;1OT0ZXWFlaW1xdXl9WZ2hpamtsbW5vY3R1dnd4eXp7fH1+f3OEhYaHiImKi4yNjo+Ck5SVlpeYmZ&#xA;qbnJ2en5KjpKWmp6ipqqusra6voRAAICAQIDBQUEBQYECAMDbQEAAhEDBCESMUEFURNhIgZxgZEy&#xA;obHwFMHR4SNCFVJicvEzJDRDghaSUyWiY7LCB3PSNeJEgxdUkwgJChgZJjZFGidkdFU38qOzwygp&#xA;0+PzhJSktMTU5PRldYWVpbXF1eX1RlZmdoaWprbG1ub2R1dnd4eXp7fH1+f3OEhYaHiImKi4yNjo&#xA;+DlJWWl5iZmpucnZ6fkqOkpaanqKmqq6ytrq+v/aAAwDAQACEQMRAD8A9U4q7FXYq7FXYq7FXYq7&#xA;FUBrmv6NoOmyalrF3HZWUVA00h6sxoqKoqzMx2VVBJ7Yqx6083ecNXjM2i+VJLe1IBhuNeuRppkF&#xA;aclt4or24X5SxocVUG1v80op5WXS9C1OOEEyWFnqM8d38OxCma3ERavZyg/ysVZF5a8y6b5h0031&#xA;iJIzHI9vd2lwnp3FvcR7SQTxmvF1r8iKEEqQcVTXFXYq8w83+cZzb+ZNUvtefyz5Q8tXAsLmeyij&#xA;l1C7ufTikf05JllSNeU6xKqxlywY8l2xV89a/wD85D/l59Zcab5F/wAQLWpv/NN3LqEr+4hnNysf&#xA;T9l6e2KoLR/+cg/IpnjTWPyz0i0hb4Zb3QR+jruNSd2ieII9R4eqvzxV9SeRPMLpfWWkHUZdY0bW&#xA;dO/S/lfVbk8rl7ZDGJ7a4fYu8X1iJkdhyKsQ1WQsyrPcVdiqQee9fvNB8q3moWMSzaiWhtNOjkNI&#xA;zd3s6Wtt6lP2PWmXl7Yq+f8A82vzC/LnyBrkega55a/5WF5l9KO41bUtYmXiryglREkkVykQpuI4&#xA;kVFUjqa4qxW0/wCcl/y1kIgn/LltJtTsZdH1J7eYD2+rxWTdv58VemeTfzDs/MOjavrX5b6/rVze&#xA;aFGt3eeUtfKXYmgWrNHFPJ61yHdUZUYXDANTktDir3bT7+11Cwtr+zkEtpdxJPbyruHjlUOjD5qa&#xA;4qr4q7FXYq7FXYq7FXYq7FXYq7FXYq7FXYq7FUv8wa9pugaNdavqLlLS0Tk4QF3diQqRxoN3eRyF&#xA;RRuWIGKvCfzQ/NSHyJFba/5jtotS/MW9jeTQPL7PztNGtpPhDvx6zECkkg+J25IjLGK4q+V/NX5l&#xA;ee/Nd5Nda7rd3dmbrB6jJbqP5UgQrGo9guKpb5a8y615a1u01vRbp7TUbNw8MyH71YftKw2ZTsRi&#xA;r7s8sebLK+1Pyr55sAsOlefLYadqsIOyanBG8ls523YejPbM37X7sdhir1TFXYq+Uvz51R/+VBW0&#xA;gIMmuea9RnkI6GIXt86b7dFSMb4q+WMVdir7e/Ja6SbyL+Ud8SPUZ9U0xSQQeIhu3IFNv+PEdfDF&#xA;Xu2KuxVif5nrXyxb/AXC6zoLOo3qq61Zs34DFXxn/wA5VrKv54a6XbkrRWRjH8q/U4hT/ggTiryP&#xA;FXqX/ONfnP8Awt+bekPK/Cy1cnSrypoONyQIiT24zLGT7Yq+0fy3IsINX8qMd/Ld89vaLv8A7wXK&#xA;i6swP8mOKb0B/wAYzirMcVdirsVdirsVdirsVdirsVdirsVdirsVdiry3zd5s0l7/VvMuqnl5R/L&#xA;4llQEcbzXOIAUVPxfVfUVEqKes57x4q+FfN3mrV/NfmS/wDMGry+rfX8plk/lReiRoOyotFUeAxV&#xA;J8Vdir6i/IfXZr78gPM1mGLXnky/i1yzpuVjtnS/VFH+W9rMP9lir6wjkSSNZIzyRwGVh0IIqDiq&#xA;7FXyF/zkQ0i/kX+XY5q63Uhu3KABWaWEy8tv+Mp6Yq+aMVdir7L/ACMkmb8p/wArn9QL9U8x3ioK&#xA;A1WW31NGX/kud8Ve6eYPNXl3y9aNea1qEFhbrt6k8ixgnb4V5Ecm3+yvxeAxVjNr588363PA3lry&#xA;nK+kuwLavq9wNOikjP7dvD6dxdMpG6l4Ur4Yqi/MXlvzlrmmmxbUtNtoXkjlaKeyuLshonWWOkkV&#xA;3p4PGRA28dPbFWE+Y/yB1TzLqTanr2q6JqN8yKhnm0SctxQUA5DUwfxxVJL/AP5xJ8r3NlIJIrE3&#xA;hBKyaet9pxY07me71aJN/CD6MVeM6/8A842eavLdzPe30kul2cLhtP1GFH1O2RlIINzNapHdQgUr&#xA;z+plflir6c8teZLO+836BrlteW95H5n0ltN1GWymSa3Go6b/AKXEisvf0p7rrRqBagYq9LxV2Kux&#xA;V2KuxV2KuxV2KuxV2KuxV2KuxVIPO2uXulaGw0tVl13UHWx0WBtw13NUIzD/AH3CoaaT/IRsVfJn&#xA;/OTfmiy0ax0b8p9DuWls9EQXWu3BJ53F9NWSsp7uTI0z9uTjuuKvBbHTtQv5xBY20t3OxAWKBGkc&#xA;k9KKoJxVk0P5RfmjKof/AArqkSEcg09rLAtPnKEGKrv+VQ/mWfseXruVv99xKsjn5IhZj9AxV7Z/&#xA;zid5f8waT5o8zeWPMmkXmmRa1pJcw39vLAJFgkETUWVV5fDdnFX0j+V9/Lfflz5auJxS5/R1tHcj&#xA;wmijEco/5GI2Ksmd0RGd2CooJZiaAAbkknFXxx/zkK7Rfkd+UdutCkmnQysT1qLG36e37w4q+c8V&#xA;XIjOwRAWdiAqgVJJ6ADFX15+T+g+bZfIemeRrSOC31nR719R1TUbhnk/Q8k5LW8awrxEl4UZ29Ln&#xA;xjr+9FTxxV7dpv5c+WbXVk129g/S/mNUVG1m+CySjj3ijULBb16kQRpU7mpJJVZRirsVdirsVdir&#xA;FdR/LnQpLu71PR2l0HW7tAsl/YEBGdSWWWW0kD2ksgJ+28RfwYbYqlflfzzqVnrQ8o+c4xZ65Vl0&#xA;vUGKrbapDEoBnt2oFSU7tJbklk7Fh0VZ9irsVdirsVdirsVdirsVdirsVdirTuqKWbYD6fwGKvIz&#xA;5/bVvOmp3mhadceZrrRQ2naTZaeq/V4WajXVxNfzmKyWSaiogSSRkRTVQzugVYJN5F8yafcXHmHz&#xA;drehflpFeyyXNzPYEXWtyNMfjH6RuWklVmJ39B6U240xVZ5d0H/nGLzDqptZNZ1vz7rEamQi6XWL&#xA;yQKCAz/6NBGvHkwqTt0xVFP56/5xZ0PXD5di8mpNqcVx9TMMmlxO4nL8ODNeMrA8tvixVPfMnnL/&#xA;AJxt0HVDoXmzyrZ6LemNZWgudHgkoj14tytFuOvHtiqSX2h/84o319AbW+m8pajMvO2vYf0ho3JW&#xA;oQyNdxxwEbg1AxVkcHlD85dAgS/8jeb7XzpobANBZ62Q1w8YPSPUYCGl36cmVR0xVPNQ/N4aTpEk&#xA;fnrRb7ytPcR+istyi3VoZJF4KBfWfrQbsd/U9Og8cVeA/wDOSE8Uf5U/lLp4kjmlt9NMUskEiTQ+&#xA;pbWlnHIqzRF45KM1KoxG3XFXzzir6N/If8kLq51F/wBLW06XvMw6xLFKYG0y1eD1PQ5qQWur1XEU&#xA;iJX0YWfnxkYBVX1/p+nWOm2MFhYQJa2VqixW9vEoRERRQKqjYDFURirsVdirsVdirsVdiqB1zR7P&#xA;WdIu9LvOX1e7jaN3jPGRCR8Mkb9UkRqMjDdWAIxVjHknU/Mun3snlfzWfX1CBXk0zWVWkWoWsbRp&#xA;6rcarFcKZlWWNqcj8SVBNFWa4q7FXYq7FXYq7FXYq7FXYq7FWL+dfMtzpl1oelafEJ9T1i9SiEVW&#xA;OytGW4vpm/1YV4L/AJbpirwS41rzV5T/ACNuF0nzdYeXf0Teatb2dh6CPf3rR6nOGWOWWUBPtGgj&#xA;hY7fa8FWJfkvpXnF9N8wXV/+X+oeaPMGsRiPStb1BUiSEPFIkj/W73ep5g/B1pSuKsu/IP8AIr82&#xA;PIPmi48w3lrpgM1k9mLW4vXVh6kkcnOsENwpp6VKVHXriq7X/wDnE7zTrfnS+81yeYbC2ub6/fUD&#xA;aJHNIqO8nqcBIShIB78cVXfnH/zjb+ZvnzzbceZo7zSIZZYYoRZ+tcighULsxhPXrviqT/8AOQfk&#xA;384vNWl+WrYeSGhtvLkM8Ky6depqRlEqwKD6SxQSpT6v/Ka19sVYvo/mC18g/lTaal5f8yX2hfmR&#xA;Y3Bi1vyvOzCGRZLmTg8lldIVLC39P4o/p3xV6n5E/wCcnbPzfpV1H508qpB5ct/Rttc1pG+tWMUl&#xA;yWEP1i1eMvHFI6cQ3JwGpXFWP+ePI3lOOfzRb+RLJdV8o2+l22peYdLt51mRJbtpfq91pbFZPSmg&#xA;jiaVgG4uh4bYq8a0H8urP/F99G1wNc0HSBaXML2wMZ1P688X1CzXcmGW59YLIKsYwsn2iu6r718m&#xA;eVLLyr5dttHtXado+Ul3eSf3tzcynnPcSmpq8rksd/bFU7xV2KuxV2KuxV2KuxV2KuxVjXnzy9qW&#xA;r6VbzaTcfV9Z0i5XUdN5f3U0kaPG9tNQj93cRSvEx/Z5ct6UxVFeSvM9v5n8sWOtwRvEt0nxwyU9&#xA;SOVDwmielPjilVkbbqMVTvFXYq7FXYq7FXYq7FXYq8a8069+Yt7+btr5Ih8wr5Z0rULA3mlXlvZR&#xA;XE9xNb/70QF52KqwCmQUT7FO5xVO4PKGpJ5xhsdb81X+o3Fxpry6fciDTba4pbzqt2nqwWqS8P39&#xA;uQvLrU/JVgugfkh+W0/5w+btL1XTprporew1XS53vbyOZfrXqrdtzimjLcp05VPQnbFUd5F/KXyN&#xA;rus+dbHW7e9vRpGtva2KyanqQ9O1a2gljT4bgcqM7btU++KtaT/zj7+V0/5jeZtLvNHkm0y0sNJu&#xA;tOga+v8A921015HOeYnDtzNsv2iadqYqgfKf5C/lTqH5i+etJutEaTTNGk0yPTYPrl8vpG4sxPN8&#xA;Szh25MwPxE07Yqibj8lvy4g/N7R/Lum6dcW2npo95qepQx6hqAMjevDb21X+sc14kufhIr3riqa+&#xA;cfIuj6T5m8meXfLdzq2n3Ot6hJLfSx6xqrD9H6fCZrlKPcso9QtGnKlRXbFUz/ML8nvIt55fvr/z&#xA;Df6lLY6dbS3Mkk9wl3JHHChdvTlvI7iRTQdmxVglr/zidqdn5HvdD0rzfNYLrsNm+vWM9rBcQSz2&#xA;pEqhZRwljVJakcT864qx7/nH608++RNG1nVND8qp5v0LVb17c6lZXYgnkj093iWSOCYUkiZnfjx+&#xA;LrXtiqL8o6romq+cL3yTY6NH5Qv47221Pyrba7bXccyGKKd5rY/VLmzkLJcXk80BaRhwcimyBVXr&#xA;f+DPzX/6v+lf8i9c/wC8virv8Gfmv/1f9K/5F65/3l8Vd/gz81/+r/pX/IvXP+8virv8Gfmv/wBX&#xA;/Sv+Reuf95fFXf4M/Nf/AKv+lf8AIvXP+8virv8ABv5r/wDV/wBK/wCReuf95fFXf4M/Nf8A6v8A&#xA;pX/IvXP+8virv8Gfmv8A9X/Sv+Reuf8AeXxVRtdM89Nrkfl6TVUS/iRNQv8AWbI34jt7SRmjhhjt&#xA;767vopZ5pIZficFEVd1JIxVHeb49E8t3Vrco+t3Wuau8sVgYNRvHj+temWjLW8kzWaK8pRFBhMYZ&#xA;hVeFcVauvJ/5ksLf6rrtirC3iF21yNXkZ7kIPWdfQ1G2jVGepVQgoMVRX5dafc+X7zVfLt7JZvfF&#xA;11edrJbpI2/SLygMVu7i8k5vJaTFqScelFBrVVnOKuxV2KuxV2KuxV2KuxV57+a1jfahdaBZ+Xni&#xA;j86Jd/X9Fmn5+jClov8ApUlxw5P6EkUxt24jdpU8KhV43rPn7XtZ892ks/njR7fX/KMWqPIdJ0q+&#xA;nt7eJYP9M9aS6eOORaQAJwJq1KdsVTLy3o3mPWfJtp+cfnbz9faBcS2DwTyWVnbx+jYG7PpIPTjk&#xA;ZxIwSQfAWq1MVUvyr078uvPmr6qvl78wPOUOtzgXepxSXMdpLOkQSBZmaKFkbiCq/b5e2Kpn5w8v&#xA;fk75K1uO180fmT5otNYvYUNDqN3LK0CO/p+o1vA/FQzvx5kdWI74qyZvyI8jWVnd6+nmzzHbW80I&#xA;vL3VI9XkHqRRRVWWSQL8YWIbE1+HFXnPki4/LTzN54Nn5Q/Mnzbb+aLuI21rc35FwLmG3V5ygaWG&#xA;vBFDuFkK+2+KvSJ/yz/OS01i01qy8/W2q3lhBcW1qmraZGipFdNC8oL2zqTyNsm5G1Pc4qkPndPz&#xA;480+VpfL8+jaJr+nXFzANRvNC1AQmSCCZZZYOF4VCs4Tifi28MVTr85PPWoD8r9XttR0nU/Kst8t&#xA;vZz39xFHdwQwXVzFBcu0unyXYWkMj05UJOwFSBirLfIPnz8r7/QIbLyprVpLp2j2yR+hz9KSGCFK&#xA;BpIpRHIoCpuxXFXmuqeRG/NVfMH5jaLfNJdD0Yvy3ua+l6X6LflLJxanH6xeJKg5gELviqvovljz&#xA;F5s09Nf8pa1Lc6BelmsmufMXmKKdQGKtHNGrsFdGBVgDiqO/5VZ+Z3/Vy/8ADl8x/wDNWKu/5VZ+&#xA;Z/8A1cv/AA5fMf8AzVirv+VWfmf/ANXL/wAOXzH/AM1Yq7/lVn5n/wDVy/8ADl8x/wDNWKrX/K/8&#xA;zERnfVAqKCWY+ZvMYAA3JJ5YqyHyT5V1nVdFgmv9XvYdAuVWa2tYdQu7ma8R1B9eW9uXe6jhlHxR&#xA;wRshVT8fxEqFUl/MPzF+W3kOX9G/4rn0TVrqKr6bPdateQywttR/QeaWzZqfBNGVYeDCoxV89eYP&#xA;zb/NHTPPsPmj1ryK4a55RRpO82mXGkllFnAgReEqf3v7zkzMx6K4NVXuPkHzh5E1vzcbaPV00nzH&#xA;erJyheK5gnlaaUvOlit0DBaLJL1VKzSU5NxYYq9VTyT5XulMge7uHDMhuf0lfPIroxVgJRPyUqwI&#xA;IB2OKpWmmReWPNEV/dia9t79ILC21m5mMs8Leq4hspdgWjZ7hmikbk3MlXb7GKs4VlZQykFSKgjc&#xA;EHFXYq7FXYq7FXYq7FWndERndgqKCWYmgAG5JJxV4p5n8161beVNa876TaT3nmbzYBpfkext0aWd&#xA;NPjV2iuFRQSOYMt4xpTj6at9nFXzHpOi3flm3ufL+rSRJqXmp47TUn06VNSvrLTrd1nnjaC2aRed&#xA;1J6YVTIGHpkMAGrir6M8wea7vzR5Bn8maP8Alh5ik8vTWaWVtJcCHT2RIQvouglL/YaNSK9aYqwr&#xA;8lvJ/wCYX5X3l7qn/KutS1bUruH6s1z9es4Vjg5ByqQr6pJZlWpL9sVVvzNs/J/nPzLaa/548k+c&#xA;dAuIIhBdSWVrHcW88cZqoklHLjxqRVRuPlir05fzH/Jfzh5HvPJWm+ZLfR4rrT30qG3vOVrNApiM&#xA;KAJc+lzKCm3LfxxVgv5Lf84t+aPJvn+w81avrNjLbab6xt7ezEsjTetBJAOTOsQjA9XltyrSnvir&#xA;Ov8AnKDR/PerflqbXyik87/WkOq2lpyM81pwcFVVficepwLKu5HtXFWCf84i/lh588u3Op+Ytcjn&#xA;0nS76D6tBpFyjRyzSLICLh4moY/TCsq8lq3I9uqr1P8APi0bVfJNt5ZjZY5/Mmrabp0Urr6ix0uk&#xA;uXdowU5hY7ZiV5Cvjir5m/5ym1aa881aRbaloa6Lrtmk8eomEBobuN3T0bmGcKhkjdeWzfEhqp91&#xA;Xq6/nDpP5Y/nDfeQ7u3S28mXps5bF4yI49Nkntk9SiAUMMkvxvuOJLNvU4qnWqeX/NfkjzpLpHlW&#xA;8az0Lz7eSXNnKphiTTtUihaeaIme3vozHeJG3ECKoYUHuqnH+Fvz2/6mr/kvp/8A3gcVd/hb89v+&#xA;pq/5L6f/AN4HFXf4W/Pb/qav+S+n/wDeBxV3+Fvz2/6mr/kvp/8A3gcVQXmDTvzF0ry1qknmzzN6&#xA;mk3iQ6dM7TWZSFL66itpp3aLTdOZPShkdq+pT27hVG6V+bF3ruivaeT9PF3qpa/WySNHFvb2dqJP&#xA;qcrO4SF3uFWLhH6ij4/tBVrirzzzD+UXmnzD+a0+sM2lvf6qqX+q+VdTE19aWtvFbGyt5ppoViVp&#xA;SzuYogBQhiGYKTirev8AkyG08i6X+TkOpvBe2lyl15c82ygxWVzqnN7s2R9NpGgcRXKmI8m5dtxT&#xA;FUl/Kj8lr7zJqT+a9X1yz1nXNGmube80aMm0mF3K8jvNcahAkkhkEkzSxTKj8vhKuANlXsnln8vf&#xA;OXlmOCXR7y1itrR5nTy9LLPNHP8AWEjWb1tRZFbk8sXrBvqhZWZhUqxxVK767/MC28p3/lvV9Jud&#xA;W1qf1L7Tp7a6sZUswLpmsYp5bia0mkEbwq3reiNjTdlOKsvm1H814r6ZLPQNEuNLR3WzdtVuIZXh&#xA;BIiZlFjMqMVoSoJHviqP8s+cG1S+udH1TT5NF8w2cazzadM6SrJA5KrPbTJ8M0XIcSaBlOzKtRVV&#xA;keKuxV2KuxV2KvO/zv8AM2naR5Qkt9Qvl0/TbxhFq1zUmX6md5be3RSGae5A9JBtRSz1HDFWJ6J+&#xA;Xv5jeedIvNQ8/wA66dpt3C36I8jW3K2t41CUt0v57f07lkVgreisgAO+32cVTv8AIHUPLsmkajo0&#xA;Hlu28seatBlS08yadbRcAZDyMMyynk8kcqqxUs7H3IoSq9VxV2KuxVI/MHkbyZ5jVhruiWWpFhT1&#xA;LiCN5B2+GQjmv0HFWO2f5NaBoVmYvJeoal5WnFfTe2u5ryAE/wA1pfvdW7f8AD4HFUilvPz98lyN&#xA;LdxW/wCY+jsSXe1ji03UoVHhCg9GXrsF+LbtirKvJH5r+T/N5NrZ3DWOtxVF3oGoL9W1CFl6h4GN&#xA;TtvVajFWGfnp5/0byj52/Le41tnGkJfX13d8F5lClobaKUqNyI3u+RpvStATiqe/md+WHk/83PK1&#xA;rOtyj3MUTy6BrVu5eNDNwJJVW4SRv6ahgdx2ocVfHH/OQGoa1ffmhqMmuWa6frMUVrBf2kbc41ki&#xA;t0TnEx6xyqBIld+LCu+KvoTRvOj+a9b81fk1quqyjXdLu5H8m+YJAv1j1NPcTQiRlUcpYDFUvSsi&#xA;cq79VUz8r/mtq+o2aReY9V1PStb01pNO8wWOn2Yu2jvbYqvqCGHSr8rHcKeYZ5VHLkEUgbKp7/j7&#xA;S/8AqavM/wD3Apf+8HiqDu/zDda/U/MGvzeHraVcRf8AEfLsuKpb/wArL8z+rQ6lqXp1py+rX3Lj&#xA;Xrx/wn19q4qm8/5gQAQ+j5k8xScnAufU0adOMdDyZKeX35sDSinjXxGKojTPOkd3qsVhD5j8wBJ2&#xA;hhs2fSZIg0kjFSsvqaFHHEg+H4zJTc140qVWS/lYfr+j3/mWf4r7X9Qu5pJD1EFvO9raRDwEdvCu&#xA;w7knqTirydhbQ2V9ouvaRGNB1XVru9n0+wXUpomUOluZw9rpupPHMlxbSsqpcxUoP2TiqW6dd6Zo&#xA;KjzQfPdppGpeXZP8PT6Wltb2lxdaXplwID6kUrStPO1qglhb0hRiFoBtirLdS8++b7C+mtH1O9kM&#xA;ZHGWFLmeNlYBlZZYPKs0TAqQao5HvirxL84fzh81Qayq6RqEttqc0MUV7rUM06Xgjt2mKWRVrHRj&#xA;CFNw0jD0Czcl+OgChV5oPzZ/NQGv+Mtc/wC4ld/9VMVfU/kb8wLzzR+U2ifmDLIbjzJ5FuXj11h/&#xA;eT2NFW95b787R0n6byxjwxV9ARSxyxJLEweORQyOpqCpFQQffFV2KuxV2KpH5z84aH5R0C51vWrk&#xA;WljbgcpSrPuzBFCogLMxZhRR19hUhV5r5K8r21zfX/50+fYZLa8aB7nSdOueU36K02BCVk9NeZ9e&#xA;RFMrBR8JY0AJIxVOPLH5uap5pksdd0rSobXyBNdixl1e9nH1yWWVzbQ+laxc/TBumjQ+q1eLV498&#xA;Va/N7S/NWmaton5h+VLb65eeX1nh13TI+Ky3ulTcXkQEkcmhMZeNfE1HgVWdeVvM+ieadAs9f0S4&#xA;+taXfKXt5uLITxYo4KsAwKupU+4xVNcVSjzg+tJ5U1iTQ5RDrMdnO+nSMquBOkZaOqt8Jqwpviry&#xA;7yxdf85C33lnS/MGk65oOv2upWkN4tvqNpNZS0mQOY+VsxTkpPGp2xVU/Kb/AJya8sef9ah8vPp1&#xA;zpevTrI0UVRcWz+khkfjOgUj4VJ+NAO1a4q9a1XVtM0jTp9S1O5js7C1XncXMzBI0XpVmOKsdni/&#xA;LL8zNFeB203zNpoqD6bxzmJjtUMh5xN7gg4q8A/OH/nF/wDMG8t7WTy3rk/mex04NHY6TqcqC7gj&#xA;kYcljuJCkciilaMVoBtXFXlP5afmP51/JXzddW2oaZKlvclE1nRrpTC7rGW4SRsR8LLybi26sD8i&#xA;FX1D5g0H8s/+cgvIiXmm3Ki9gBFnf8QLuynIqYZ4614E/aWtG+0p6HFXzhrHlTzWPzu1e88yafc+&#xA;XdRuodW8wWIilVzHLb2k95bvDcR8kkCTRrWnyNMVepeTvzg1vzBFp/5g6Rp4uNW0W3bT/wAxtNhH&#xA;F7qwWklvf2ykqsjW5EhKL8Q58fskHFXq+g6p+Z/mLSbbW9B8xeWr3R75TJZ3I0vUByQMV+JWvwVY&#xA;EEMCKg7Yqj/qX51/9Xjy3/3DL/8A7yGKu+pfnX/1ePLf/cMv/wDvIYq76l+df/V48t/9wu//AO8h&#xA;iqjdav8Amh5eRdT19tE1LQYGDatNZpc6fNa21R6t1+/mu0lWFKu6VUkDap2xV59qWseWptL1/wAt&#xA;2Wo6brPlC61S01SLUrfU7JE02O5v0uL2O5LTK8YV1keF0U158B8QGKs+8t/mB+TPl7QbDQ9P836M&#xA;LLToEt4eWoWpZggpychxVmPxMe5xVgGsmy1T81NRl8ueaLqDTvNekR3VvLoq21/a3d3Yu1nNHOJE&#xA;lh4iMxgs7ovYtiqbfl751uvLX5NxWE0b3XmPRru88u6dZPwBmu7ZpDbo7ozwxosAVpH9Tgqg/Fir&#xA;5M84ajonmLztpdjHfr+jIPQsbzX3VlM8k9w9xe3zqw5cTPcylKivALtXFX07oP5c+Qm05UbzlBpD&#xA;Qu8B0eOPRVNkYmMf1WU3FvNM8sPHhJI7FnYFj1xVObTyT5Ss45IrT8zXt4ptpo4m0JFcUp8QW0Fd&#xA;j3xVl35azei+p6Rb66vmTTrF4/q2pgWwKs6fHZsbRY4maBQjk8fsyqP2cVZxirsVdirxv/nJOTTY&#xA;dO8qX+pkXGl6Vrlpfatppagksw3ovMy71WKSZBToeVMVZRH51stb83aj5Nult7nSL+G6tba4gZi/&#xA;q20UQvLW4U1AbhdB0YbcffFWB/lZ/wA4++cPLeiS+Xte8yQTeW31OPUpNMsoXMkrWzJJAfrUjIYA&#xA;ZYYndUjJ+Ggfc4q94xV5X5XvpPJH5n3PkKSAReW/MQm1fypKDRIZwA9/YqtKU9QvOoH2Q1O+yr1T&#xA;FWmVWUqwqrChHiDirAfLvkDzn5WtRpOg+Z7dvLluGTTtP1HTjcT28ZJYRi6hubbkFJ+HnGaDbfFW&#xA;N/kB+QI/LQahqOqXcGo69fAQrNArCOC3U8iiM9GJkNC2w6Ae5VZp+bXl/V/MHkHUdL0iFLnUJHtZ&#xA;obeRxEJBbXcVwyc2+FSyxECu1cVeJ+WfIfnLWf8AnJQeZLvy7deTtEsrdLkRxJGsUzRRJGYGuLQ+&#xA;jIZJnLtuSUFCPBV9N4qxH8yfy18k+edGa380WgkS1SR7e/Q8Li2qKu0cgr/KCVIKmm4xV8AeV/PW&#xA;ueSPNEmreT7+a3RJWWP1QOM9uGPFLmIfC3Jeo7HoQd8VfVmi/mj5E/PjQ5fK8rv5W85Okw01jxuJ&#xA;EDRssxtpSsQkWS3LpLGeJKFvDkFXkXmjy/8AmD+R2teW7LS2a7uE1K+uNO1GFD6F/FeR2UJtJIQz&#xA;MHrbfElT9pSpruFWVad+ftr+W1xrPl0jjetf/Wn020tkvNL05pk9S4s7U/XbaRmWZ/3hqEDhwqUN&#xA;cVRX/Q5n+R/3Kf8AvbYq7/ocw/yf9yn/AL22Ksk8pf8AOVEOsMVpp885fgLG7kXQ5gKAq8clxPe2&#xA;swYnjxM0bCnRq7Ks/vvzJ832rTQX3kyOBooDc3EU+taahW2B4mV1dxSOu3I7Yqmn5f8AmNPNdtqU&#xA;9z5dj0j9G302mvG8kNwXntm4TUMa8eKv8Na7kHFWS3kWhWVs91eJa21tEKyTzCONFHizNQDFXzp5&#xA;9/Mb8p9Y/M/1Li60S90TQtHmto5L6M3ds97cyiUtbwRIyTmJIaH95HUvQNirKfyz/LO31n8soC93&#xA;YRfp1b6fUbWwRxbRRao8EjWkX1S5hMYRLVEZQ52qp26qqX/QpH5ff8s9r/wGo/8AeRxV5t+b+kea&#xA;vI76hBpM9p9W0W0s7mKK90/TdRMtlPMbT1I7i7tnuY/RmMUfoyPKaNy9TtirEPys83/mJ5g856FF&#xA;NoVrrGhzX0EWpLB5f03h9XeQLKzSw2ilAiksTyHTrir648uSafo/5g635Yg9O1t57Gx1TSrCNUij&#xA;VCZra5WBECiiPAjv7ye+Ks1xV2KofUtRsNMsLjUNQnS1sbSNprm4lPFEjQVZmJ7AYq8wvNGtPNmm&#xA;+Z/MfnRU0zyzq9lBp+k2963oTQ6fEzTPczcivpSzyusiod14Jy3qAqhv+ce/KOl6fY6jqt8frHnm&#xA;GeTSNfuidgLNhHb+mgooWa2jglL9XJqScVXf85E+c/O/lHStM1bQL19O0tPrY1O8itYrulwIQ1hF&#xA;KsqScIppgY2cUoSN8VeoaFfTahomn386CKe7toZpolNVR5EDMoP+STTFUF5n8p6b5gGny3HKK/0i&#xA;7jvtMvY/twzRmh9mSRCUdTsQfGhCqd4q7FWHzfm3+X8Hnr/A0+qrF5lqii0eORVMkqCRIxKV9Lmy&#xA;MCBy7067Yqyu5u7W1iM11MkEIoDJKwRQT03YgYqvjljljWSJ1kjYVV1III8QRiq7FUDreuaToenS&#xA;6lqtytrZQ09SZgSByNBsoJPXsMVUX8zeXP0AuvNqFu2iSxrIl+HVoXSQhV4sKhuTHiANyduuKvmH&#xA;8xP+cWLPzH6vmn8rbqH6jdM5/QU4kgCyRsY5RA8261kRv3cgUKehAoAq+ddQ0nzX5S1iNb+1vNE1&#xA;a2cSQGRJLeZWU7PGx4n5MuKvdfyY85+c/wA2vPel6V5p1NbiXy5aX+oaTeNCiut06wwQySJEYVkM&#xA;DH1E6NWtTirPG/5w18tsxZtUiLE1JNtc1JP/AEfYq1/0Jn5a/wCrnF/0i3P/AGXYq3/0Jn5Z/wCr&#xA;nF/0i3P/AGXYq8w/OH8lfL/ky1v7Ozdf0npenw65DqMPrRiWGS+jsJLaaKWe44sjypJFIjLX41Km&#xA;gIVfQX5lS/7kLDUruynuNI1fy1q2l6pPb8eEBu2s2gZgzBnLEukaRK0jMaKrHFWMp50PkzS7jzC9&#xA;zrGkWscZ1DX9P1HRzBaanqUpQSmzlmKSW891KeRQFkC8m4ChOKvlf8xPzT85+f8AVDfeYL5pIoyR&#xA;aWEYEdvAhYsFSNaAkcqc2q5HU7YqxHFWU/l9+Zfm/wAg6v8ApLy7emAycVu7V1WSCeMMGKSIwI34&#xA;05LRhvQjFX1vB+aHnTXrCy17y7qV0+lapCLiK1tfLU2qfVX5NHLbS3MV3CrSRyRt+wPh4nviqB1H&#xA;zTdackuqXejX2vebtQiWyhuPMemXWm2MnGX1rextYIoJ4QzT09ITSBmenKXYUVeJat/zll+dNzch&#xA;rW/tdIijNPqlpZwlAB+z/pK3D7f62KvYPyk/OO0/N20/w15mePSfPNhW60HWbQBGMiKaywqxNJFH&#xA;97FXjIlRTjUYq9p8k+ZdR1OC60vXYUtPNGjssOrW8RJhkDgmK7t67mC4VSUrupDId1OKsmxV5n+Z&#xA;9/8ApvVdL8nWMkLXVxfRK4uUeWzFxHby36C7SJ4nYRxW3qLFyXm7RkngrqyqWeafyh89ea4oYfMW&#xA;t6LqcNuS0MM+mXpRWOxbgNRC8vemKsf1LyJ5m/KzUtJ8+6LHFqFrZ25sPOun6dG8Ecmmxf3NzDBN&#xA;LO/O2jAWgc7KKUXlir0r8zL3ybqH5bXc+ua02neVtRW1+sapasxL2008Z4I0YduNwp9NiB9liemK&#xA;vCbzyTq155auPymsfMNtD5f1q/i1b8v9QmdpIr7Thzlu7MSR8hyt3eNwrU5N026KvXP+camK/k5o&#xA;tpJClvdWEl7aXcUY+ETQ3kwY1qQS3ViDSvTFXomlatp2rWK32nzCe1dpIxIAR8cMjRSKQwBBV0ZT&#xA;8sVSzzh578o+TdOXUfM2pxabau3CIycmeRh1EcUYeRyO/FTTFXzxrnnj/nFN/wAwn/MRtRv9T12O&#xA;SK5jsobe4S2a4gRVjlCSww/GPTB+KSnLemKvn2w0r8w/zT83XBs4Z9e8wXfO4uHZ0UKi71aSRkii&#xA;QfZUEgdFHYYqnVxYfnR+SeqwXEn1jy3d6pG3plJbe4huEiIDBlRp4XKGQbNuK++Kp35N/wCcp/zX&#xA;0HVFuNT1A69p0j8rmxvFQEqTv6UqKGjPh1X/ACcVfS2tfmjofnbShaeStI1zzJMWEtrqOmpJpMUM&#xA;iVBI1C8FusbFCyniGqCV74qwnVdb/Na10az8r2X5e2mj29jIs+nFvMdgb6O4Vy/riR5QWkZnYvzV&#xA;uXI1rXFWWeXvzP8AMfk3R4x+Y/lTVtMhd3lvPMiy22rxFnP95dNYKpiULxRaR9ABir1JvMfluTy+&#xA;uuyajajQZollGoyyotsYpKBWMjkJRiwG/fbFWM3n5T/k55qhj1JvL2lX0VwOcd7aIiCUH9r1bcpz&#xA;+dTirHPNX/ONX5aT+WNTt/LeixaXrrxGTTNQiklMkV1F8cJVpHbiC6gNTtirzGC08v8AmSLRLbV9&#xA;CsY7nWrjQG1fXgv+lTDUVnF+7cQpiebUbRrXkK0LcqrVcVe0L/zj7+ToUAeWoaDbeW4J+8yYqr23&#xA;5FflTa8vq2gpBzIL+nPcpUjpXjKK4qjtP/KX8vdP1C11G10kLeWcgmtZHmuJOEgBAcLJIy1FfDFU&#xA;k/Nv8mR+ZQtrbUfMN5Y6RassqaZBFAYzcKHX1i7L6nLhIVpWmKvN/wDoSLyd/wBTHqP/ACLg/pir&#xA;v+hIvJ3/AFMWo/8AIuD/AJpxVSu/+cLfIlnay3V15nvoLaBGkmmkW3VERRVmYkUAAxVOfyksvIX5&#xA;e20J0zz5K+g34a/XSNQOn2gmNxGqJcETelcqCkalegI+eKsj/M783fID+TNS08atbSRapC+n3E9v&#xA;e2LyW8N0PRluBEs7TS+kjlwkSMxpSmKvh7zlryeYPN2t69HEYI9Vv7m9SE0JRbiVpApI6kBt8VS/&#xA;TdRvtM1C21Gwne2vrSRJ7a4jNHSSM8lZT4gjFX3R5b87r5k8r+SvzRhCw3izR6L5kjX4VaK8nW0k&#xA;qBXaO89KdK/ZQt/McVesavqtnpGk3uq3z+nZWEEl1cv/ACxwoXc70/ZXFXz5+a3mpfJH5P2V3q2n&#xA;wXvmrzlfjU7yzujMipK/GdqmCSCUfVIlht1KODsO1QVXgn/K8dR/6l3Tv+kvXf8AvJ4q9Y/LHVfN&#xA;F7/hzzDc+X7CJdb1BbTQLSO71bnOEWb6zcO9xfXUUcUCwGoaCQvWlADyxVk2t+Sh5U0kflh5tmlv&#xA;fyw164I0XzL6npS6PccmlgtbiokVkaQKEclVqTUU6Ku82fkR+bV35a0ry/ba7puuDRJI5tA166Wb&#xA;TtQ09oyKorQ/WVlRlUfaPKoB7DFXrH5PeUNY8ofl5pmg61LFcavA11LezwMzRvJc3Us9QzKhJ4yA&#xA;HbFUg/KjUJNP8/fmJ5LlNUsdTXWbFj/vnV09eSNR4Ry1+lsVfMv/ADll5r1XV/zZvNIuWZdP0BI7&#xA;ewtz9kGaGOaWSn80jMN/BRiqffl1/wA4haj5s8m6b5jv/MX6HfU4/XhsfqX1hhCxPpOz/WIf7xKO&#xA;Bx6EYqmvlPzhoX/OOd95r8t6kieYtYnktZtPnsWSP1IuLAx3VTK1s0deXGjV5bbb4qxnzt/zkF5V&#xA;/MTzh5PvPNflmS10Dy/PcvfWsV0LprhbkRcagxW44o0ALLvyG22KvaPz+vfy8vfIHl2fTrOx1TU7&#xA;q7srjylZKkYSaISI8qsDx4WzQclk5UUGld8VQnnbyfrb2NvcfmP+bkWjaFMoLaLo8EdhEyfspbye&#xA;q0kqg0+1E2Ksb8u/lj/ziR5jnOj6Z5hnudVlPGOee6kgnd2/3360UUUjHwCnFU4tbjzP+Qut6X5f&#xA;1e8bzF+WOvTfVLW5uQEk06WR/iV/tqycWLFdg25AWhBVRPkHTL7yP+aU/wCVfr/WND5v5k8rpcEh&#xA;WieKWGSyc0k2RnMgah+KKvH49lXsvkryt/hywvoDcJO1/qF1qDLDH6MMRuZOXoxJyeip41+I1NBW&#xA;mKsgxV8FfmN5p1Dy/qnlq808o8d1pV4Lm0mBa3uLK51u/kEEqgqShUAgqQymjKVYAhVn35AebfLH&#xA;5geY7ny55h00affNB6+lGy1HWUST0v72IrJfyfEF+Jadg2Kp95Dt08yebZdBuNEjiuLea/h1Czj1&#xA;jWw9lHYyxwiaSdrphK0srkJCsS1X4vUHTFXqf/KldC/34/8A0l6z/wB5LFXf8qV0L/fj/wDSXrP/&#xA;AHksVd/ypXQv9+P/ANJes/8AeSxV3/KlNC/34/8A0l6z/wB5LFWm/JDyzIV+sRQ3kasH9C8fU7qE&#xA;lTUcoZ9Qkjb/AGSnFXjf57/kDDP5gs9UguJjf+Ybh7UXgflALz0GNna/VX+KOOT0hEsizkIKD0++&#xA;KvlbFUVPpepW9nb309pNFZXfL6rdPG6xS8DRvTcji3E9aHFULir6d/Im7d/+cZ/zFgLgtYteXduK&#xA;1aORbKOSNgD0AkhDD3rir6D/ADOUana6P5SHxHzJqEUN2m/+8Fp/pl5X/JeOD0f+egxV8j/85Yed&#xA;D5h/NW406F+Vj5diWwiANVM/95cN8+bemf8AUxV4vir6/wDy81Ly/N+WPlLR5bTWJfM2hwC9gudH&#xA;sri5nsJblpZLeRqxtb/vLe45BJOQdG3X7LBVMtbvvPPmHS5tG8wvqmqaLdFBe2Mvk65j9VEdXAMk&#xA;V/G6HkoIZCCDuMVVNO86+a/y7/0safrus/lrHSGS21GyeHUdGVd1ZHcBrq2YMR8TEoFAJG3NV7T5&#xA;W82eXfNWjw6xoF9Hf6fPXhLHUEEGhV0YBkYdwwrirza1rY/85U3kabR6v5VSeUfzSQXYjU/QiUxV&#xA;8/f85eaz5N1H8x0i0SPlrNlEYPMF6rExySqFEUQFac4UBDkeIX9nFWd/kD+dP5sX/la28v6d5MPm&#xA;W30aNbSLVxcrYokSD93HK8iNG7Rx0UcTy4gVBO5VST/nFb8tPK/ni617zX5uiGtXtrdIsVtdEuhl&#xA;mDSSTzJWkpYmgD1HXatKKs6/5yk/KnyLB+WV15j0zSbPStV0eSD0prOJLb1Y55kheJ0iCo/2wwLA&#xA;kU2pU1VV/wDnHH8q/wAu9Y/KbQte1jQbTU9VuxdLPcXym5HGG8miRVSYvGgVEAoqjx64qkmmflv5&#xA;DvtZ8++Y/Knl2LWNK0pLW18vNxa9t/rIDnUTZW8zPDP6QcFFKleYom2KsptvJP5Rec2vre909v0H&#xA;bW8Igvr2wTRHiu2L8/qsqQWEshCgGVW5IpCUG5GKsH86eaNF1H/nGfVPL2v69a6j5r0C9eygMtxE&#xA;bqdrPUfTimjQNzkBtGpyoaipJ74q783/AMzPy81L83fKuo6d5lSCztNN1O11DW7JZLgQm5tpY4Fp&#xA;D8bH1H/YII5V5L1Cqffl5+buj6Muptonl7V9dXUZo5IrDy9pdwunQcE4mRTcuHDzn4nPGm3jUlVl&#xA;F/5//PfXrK4t/Ln5eNowuI3jg1TVr6COSJmUqJPqtOVVO4BrirHL7/nFE6za6U+ravZi6sNNs7Ax&#xA;/VLuVUNvCqycXS+twwaXm9fTX7WKpBB+SE/kbzxo+o2OmXxuNFnhvINW0C0muoL63Yss9rdQXd6W&#xA;tpgFK845GUo/2K4qyi9h1CLzRrHmny5ovmbRNc1ORJEnXR7e4j4+lFHPDPHJdcZY5TbRuCgjdG5f&#xA;GQ1MVRqedfzo4jnBfhqDkB5WJAPeh/S4/Viq+Dz1+Za3VvBquqnQlu5Ft7O41PyzJDBLcP8A3cAk&#xA;XVJFV5KfDzoCdq1oMVX/APKxdebTLm/t/wAw9DuxahPVtLXRmmu/UlkWGKH6qmpmZZHlcIqsoNfk&#xA;cVUx5s/PogEade0O4roNiD9x1/bFUd5f8y/mjq2pyaPPrdvo+uRxC4Gl6loHpSyQcuJmiePVZYZE&#xA;VvhbjISpIqBXFXjv5z/nTrul61PoV7fS6n5j0O4V7Iixi06ws7pFql4qevezXUoSQ8A7rENmKMcV&#xA;fNuKvsT83tLtbj/nETy9MyqW0/T9CuYSAR8bxRQsw6dVnbrir47xV9TfkNYon/ONHnVpOurXdzZI&#xA;OQUfv7e3tk3od+cx/DFXs2q69a2/nHzV5suqtpvkXRzZxVPwG7uUF/eKoH7Xox2i/wCyIxV+fmpa&#xA;hd6lqN1qN4/q3d7NJcXEh6tJKxd2+ljiqGxV9z/lN+e/ky/0eeO4nt7BRM1yGuLyxt/ju6XM8Qhn&#xA;nimCwTSvErcOLKoIPYKs8/5W5+X/AP1e9P8A+4hp/wD2UYqjYPzC8sXGnzalBeQTadbnjcXsd3ZN&#xA;BG2xo8gnKKfiHU98VYdrX5e/lH+aOoX98kbQeYtMljhudY0yYQ3ccjQpLEfViLxS/unWjHlT7O1C&#xA;MVSGL8gfzItvM0fmO2/M6d9VtrU2FpeXemxXUy2zuXaNjJNxb4jXkRXFWFt/zg60jtJL51LSOSzt&#xA;+jtyTuT/AL1Yqzryz+Q/5keXNEttC0n80Lmz0iz5/V7WHS7ccfVkaV/jeR33d2O5xVLfLX/OJcXl&#xA;6+lvdM886xp9zOpSeXThHZs6Ma8aoW2rvTFU7v8A/nGDyvq8aR+YvNHmXXY0bmkd/qAljVqEclUx&#xA;bGhxVfbf84m/knCAJNKuLgjqZby4BP8AyLePFWNW35JabpsssH/KqbDUTDNIsV9HqTelNEHPpP6N&#xA;1cO6MUpyUk74qnun+TpdP3tPyc0hG/nMmnO23+U7McVS7zB5M/MjVbsTWWk6t5dt0AWOx0PU9JsY&#xA;VoNzVYmlYsd/ic+1MVXQaH5i0zyXq3lrzlDrbaJrbiF/MWrana6nLZz3PC2tgvpMkwQzlAKKwBPx&#xA;cV5MFXnP/OSn5kvof5jW+j2Om6ff6dp+mW4hgvI5P3MkxaR2RoZIJF9SP0gysafCNvFVH+RPLvmX&#xA;zJoEWrf4UtrqWTiXsrC3ZBEksSTwl577V7MM0kMqSARI4CsOTBqqFXoHk6b82/J0+o2Gmfl7dX/l&#xA;26m+t2cU+p6bBPbSyKBLCP8ASbkPFyXklWBWtN+uKsn/AMffm7/5a24/7jWl/wDNeKu/x9+bv/lr&#xA;bn/uM6X/AM14q7/H35u/+Wtuf+4zpf8AzXirH/O+pfm95t0ZdBl/Lu50/TbqeE6rOmp6XcTG2icS&#xA;NFChnhUPIyKvJm+EV2JxV5DqvlPzx5Z/MHWNT/Rl/c2fmO4Gp3scbWVtf2F99ba7gnhRbi8hl9Fq&#xA;8TyKOrOh4tXiq9L038x/zOvby3tFv54PWZU9a60C1VUB/akZNapt34r8h2xVrzBP5ls/zA0K6udZ&#xA;/Tep2t9p1jrNzFbrZ2lhZ6heRKlokCvcE3F3N6UjFpSVjj6LyFVXz9/zlHZi2/PDzEVACTi0mUAk&#xA;/as4Q1a+LAnFXlGKvT/NP59eYfMP5WaP+XstjBBaaYsEU18hZpJ4rRQlunA7JxAHMgnkQPsioKrz&#xA;DFX2n+V2gS2H5IeQdBlQ/WfM2s2t7Ior/cw3LatX2VraxUH/AFvfFWP/AJu65Npf/ONcV0dr/wDM&#xA;HURqN061BEd/I1+oNf5LeKKGnh7Yq+TMVdir24flL5fi/wCcXpPPs1o58wyXiyw3fqOONqbsWYjM&#xA;deHEmrV48qkb0xVjX5T/AJRP52mtHmnaOO8vZLGztUb0jMba3+s3TvcFLj0FhjaOh9GTkzqtBuwV&#xA;fUnkz8jrnyp5V8w+V7O2S80jzJGYryO71Ys0fKNomeEx6VEFcqw3YHdRirehfklqGg2FrBo6vp9/&#xA;brJHJq1trckVzcRySvPwuQuliCUI8rcC0XIDatMVTT/AP5jf9TBqP/cbT/vDYq7/AAD+Y3/Uwaj/&#xA;ANxtP+8Nirv8A/mN/wBTBqP/AHG0/wC8Nirv8A/mN/1MGo/9xtP+8Nirv8A/mN/1MGo/9xtP+8Ni&#xA;qpp/lj85dK1Nbmw1m2vbJ4ylzY61dyXtWrVXhkt7KxaIjcGoYHFVmkfmb5nl1r/Dus20Fh5gTUY9&#xA;Nlt7a3a7t19e2mu7e4E7XVuxikitpP8AdfIMpBHfFUs/M/8AP6y/LnX4ND1x5Li7uLVL1HstNWSM&#xA;RySSRgEyajEeVYT26UxViH/Q5vlP/fd//wBwqH/vK4qn/lX81dH/ADgF3pkU0lto+kPa6jqqXenL&#xA;B6qwTrNAgnS/uQi+tCpk5R7oCKjqFXmf5gfkv5t/M/zXd+d9Ctb06LqqQHTmnjtIy8EMCQpIizXs&#xA;cvCQR81LIpNa8Rir0v8AL60/PLyZpn6O/wANjWbYR20ccctxY2pj+q20dopV0upvhMVvHVSv2qnl&#xA;vQKssi89/mnBcQHWPI31DT5ZY4Zr6O+trkQeq4QSSxo4f01LVdhXiN6Yqwmf/nL7yRBNJBNHMksT&#xA;FJEa3kBVlNCCOXY4qyHy3/zkLpOu2qavZ2ck/l63uTa61exxy+tY8o+cM7wKsjPAzfCzqfg6nbFW&#xA;S/8AK8/yg/6m7Tf+R4xV3/K8/wAoP+pu03/keuKpNrH5gf8AOOGt3S3es6l5d1O6RBEk94lvPIIw&#xA;SwQNIrEKCxNPfFUvl1//AJxTkjeMjys4cFeEdras7VFKKEj5Entx3xVj9hqo03yRd6dcrc2tg2pL&#xA;rnlqC+Eizpo+lapp0kSycx6lVLsyI3xiLgDtTFXkH/OY1mbf83klII+t6XbTCtN6PLFtT/jFirwz&#xA;FXYqzL8o/wAvbzz75707QIVb6ozifU51/wB1WkZBlavYmvBf8ojFX3V5fjt9Y873N3axhND8oQnR&#xA;dKCj9215IEa9ZN+kCRxQLts3qjFWIeZ9B8oQ6APy2/MOF7fyuJP+dW8yVEdvEor6FvJOBwtri3Vz&#xA;GnqDhIgHUllxV4h53/5w88/aXK9x5Wng8xacatEnNLe6C9RyWQiJtu6vv/KMVeTar+Wf5iaTL6Wo&#xA;+WtTtmrxVmtJuDH/ACXClW+g4q+vfzI8qy6V/wA4nTaC8bR3FhpOntcxmgYTQzQTTVH+urVxV8v/&#xA;AJW/mrc+Tpo4JWljtYZpbqxvrVI5bmznnjSGd0hmKxTpPFEqPHIRSgZGVgeSr3ryx+fN3rySTnzt&#xA;caTYxOsT32p6PpcEZkYE8Y1F/JLKVG7emjcajlSoqqm2r/nP+g7eLVYPzHsfMkdrPC97o0WnR200&#xA;9r6gE4hk5N+8VCWUd6UxV6FB+fP5X3EKTwalcywyANHImmamysD3DLbEHFVT/leX5a/8t15/3C9U&#xA;/wCybFXf8ry/LX/luvP+4Xqn/ZNiqC1n84NL1PS7jT/I73F75pul9LS457C9t4I5HIHrTS3MEcSx&#xA;wqTI3Jt6UFSQMVYP+aP5m+Z/y2u9Ptde83XlxJqUTTQNZaFZOoCMFYN6t5CQ2/QVxVhH/Q1f/fz6&#xA;v/4T+mf95DFWEt/zkLcRefNL8wQw3F1BbXsN5rFzdmEXl+YYZbaMcIEiggSG3uZVjjQfaYs7MacV&#xA;WO/nt+Ztl+Yvnx9d0+2ltdPhtorO0juOIlKRs7lnCFlBLSHbkfnirzvFX1b/AM4VaDDdaH5zuLlO&#xA;dvfNa2J6iqokzSLUUO4mWuKpBe/85Iz6Fe3OhabqGs2Wm6RK9hZW0Q0u4jWC1Pox8JLmz9fjxQUE&#xA;jOw7s3XFVH/oavV/+r1rv/IjRP8AskxVEap/zkH55k8oza2P07eaNcPJYRXN3DpUVi9yYyQkrw2X&#xA;qOo6siMvKhHIYq+dby7uby7nvLqQy3NzI008rdWkdizMfmTir6S/5wi1VV8xeZtGejC5tLe9RTQ0&#xA;NtI0RYA/8xI3GKr/APnLLzn538sfmLp9toOv6nplhc6VDO0FtdzRxGb6xOjEBWArxRa4q8U/5XD+&#xA;a/8A1OGs/wDSdcf814q+kv8AnFfzB5o86eUvN9nrWt6hd3iNHFaX013O0sP1iGRQY25clKsnKoxV&#xA;833H5tfm1FJJbzeb9ZWRC0ci/X7ioINCKh8Ve/X2uX3nH/nFyz8zWzvNr/lVLiyv3U1leNoWs5yz&#xA;9T+4uI7lyd+S1674qxr/AJzShSXzX5Y1ZBVL3SiisBsRHM0g+Lv/AH+KvnTFUVpmmahqmoW+nadb&#xA;yXd9dyLFbW0Slnd2NAqgYq+0fy3/AC+n/Kzylb6Bp3p3H5mebt5pgA8dnEg+OZ+3oWavX/iyUhR1&#xA;HFV7P5c0Cw8v6HZ6NYBvq1nHwDueTuxJaSWRv2nkdi7nuxJxVHXFvb3MElvcRJNBKpSWGRQ6Mp2K&#xA;spqCDirD/wDlV1hp7F/Keq3/AJW60tLGRJbAEnkSLG6Se3Svf0lQ++Kqws/zYtpUVNV0TUrcU5Ga&#xA;xurSam9atHc3CE9Nwg+WKse1GPX7+61jyV59v7UWnnDT3g0K5somhhimCyRz2ymV2Z5gjRzJyPx/&#xA;HtRcVfLHm7/nFj83fL7SSW+nJrlmhPGfTX9RyvUVgbhNWnZVPzxVkn5M/nWv5Y6RNoWtaaIL23uJ&#xA;frVpei5trjjMEeJowlvPQoyuJRJxqGj41o2KvbJ/+ciUh0P9Nvpmm/UDCtyOOuWzTem4DL/oyxNc&#xA;ct909PkO4xV8m/mt5u07XbuyhsJ47tYGu729u4IpIYGvNTuWuZo7dZlSX0YQVRS6qSwZqUOKpx5f&#xA;/wCcmfzc0Hy1B5fsNTiNtaRrDZ3M1vHNcQxIAEjVnBVlUCg5q223SmKvNdU1O/1XUrrU9Qma5v72&#xA;V57q4enJ5JGLOxpQbk4q9H/5xon021/ObQr7Urq3s7KzW7llnunSKME2ksafFIQtebimKvWP+cyL&#xA;7yvr2geXdW0fWLDULjT7qe1mitLmGaThcoG5MsbM3FWt6V7FvfFXytirsVdirsVfaP8AzjJrHk/y&#xA;h+TyzalrWn2+oX89zqU9nJdwrOAAIo1ZC3IFo4AwFP2vHFXxjLLJNK8sh5SSMXdthUsak7YqsxV9&#xA;A6hquhr/AM4faZpi6javqz6i0z6eJY/rKD67MKtFy5/ZAatOhxV8/Yq9n/5xN1/TtF/Nb1tRvIbG&#xA;0uNOuYJJ7iVYI/tRyAFnKqamPpiqe/8AOZGq6Fqvmvy/e6TqFtqCiwkhle1njnVSkxYA+mWof3nf&#xA;FXz3ir6b/wCcLvMWg6OPOP6X1O104T/o30Prc8cHPh9a58PUZeXHkK08Rirwf8x4LSD8wfMsVnLH&#xA;PZjU7s2s0LB43hadmjZWWoIKkdMVe1f84f6vaahP5r/L7UyG03XrB5REW41IH1edU/ynimB+SYqn&#xA;H/OS/lDzNq/kH8t7q00261C/srJrbUhbRvcusj29uSJDGGbZ4n38cVeZeSf+cZPzY80SxvLpbaHp&#xA;7H47zVKwED/JgI9djTp8AHvir6F/L/yD5K/LS5fR/KFuPNv5jOvp3t+9Fhslbq1zIvNLSKm/pgtN&#xA;J2DDoq9a8r+VxpAuL29uP0j5g1Hi2qaoy8S5WvCKJKt6UEXIiOMHbcklizFVPcVdirsVdiqC1nRN&#xA;I1vTpdN1a0ivrGanqW8yhlJBqDv0YHcEbg9MVYwfIOuabU+WPNmoWKAkrYanTV7QeC/6QRdqo6UW&#xA;5GKsT/L7yxBqvn38wn856bpOq6zDe6cjzpahoeJ0yEr6S3PrSJVOJZeR+Ku+KvQP+VeeQP8AqWdK&#xA;/wCkG2/5oxVL9f8ALf5V+X9IuNX1bQNKt9PtQpmmGnRSEc2CKAkcTuxZmAAVScVVrbyj+V9zbQXU&#xA;OhaM0FzEk8D/AFO2HKOUVRgCgNGHTFVePyH+XUhpH5d0dyADRbO1Ox6HZMVSi50/8nLbWl0SfRtJ&#xA;TVnkiiSzOmx+oxnjkljZAIfiThBIS4+FeLciKHFU2XyL+XDKrL5e0dlehRhZ2pBBNBT4PE0xVuTy&#xA;J+XMciRyeXtHSSWvpo1nagtxFW4gpvQbnFVBfKP5XNfLYLoeitevD9ZS3Fpal2hJ4+oF4VK12riq&#xA;G0/Qvym1C00y7stB0ua21iFLjT5V02OjRSQ+ujPWEelyj3HqcfDrtiqtp/lf8rNRMws9C0iUwTPb&#xA;Sj6jAv72MAuo5RjlQHqu2KolvIv5cL9ry9o60PE1s7UfFStPsdaYq3/gT8uauP8AD2j1jFZB9Ttf&#xA;hA7n4NsVQ1/5V/K6wNqLrQdIjN7MlvagWEDF5JPsAcYzsfE7YqiT5D/LoOyHy7o4dRyZTZ2tQp2q&#xA;Rw6Yq3/gH8vBGJD5c0j0yAQ/1K240PQ14Yq5vIP5eIVVvLmkKzmiA2VsCTStB8G+KrP8D/ltUj/D&#xA;+jVFaj6na7UoD+x/lDFVOz8nflpeRLJB5d0ujtKiLJp8MTkwuY5KJJGrUDL1pQ9RsRiqvH5B/LyR&#xA;BJH5c0h0bdWWytiCPYhMVXf8q88gf9SzpX/SDbf80YqwPzxD5S8l+ffJ+p2OiQwzNDq0cNppdoi3&#xA;F1OYYVihRYlXkzFiPi2UVJIFTiqb+XvKn5raRo0S23mKwa6unlu76x1Kyku4ree6kaeWK1mguLR/&#xA;SR5CqiQNt0IFBiqanyRr2pgr5l80Xd5bmnKw0tBpNs1OvJomlvKHw+s08RirI9H0TR9FsI9P0iyh&#xA;sLKL7FvbosaAnqaKBVj3J3OKo3FXYq7FXYq7FXYq7FWAeRP/ACZn5mf8x2l/90m3xVn+KpF5t8rt&#xA;5ig0+2a+ksra0vYr6cQKpklNsGeBFdqqnC49OWvFvsU71CrDF/J/QdM06WfWL2C8stPsbCzjmurR&#xA;GMGm6TqNxqBhLF2qsltKkD0AH7vlQ14BVkeheWbKyn1i98uT2ME99cyrczC0DMjwRpbxQEpJEeEB&#xA;iPw9N9qd1UP5s/LaPzNPLc3l6kN3JpGq6KLmC3AkWPU5YWicMzsa28cLIR+3zY/CDTFUh0T8nptN&#xA;t9Ps7LzDDG1hqH13VLa3skjgdDfw6kltBAJmNovKBR9p9iTTFUv/ADF/L+81Xz1qGq6pf2tpoF5o&#xA;k2nR3M0jNc2nqxvA8sEKhCayXSK458Srb0bjRVkHkD8pB5QvLG5j1CC6Ntb3VtKgtDEAlzctdIts&#xA;TNI0CRs7DixeoPUYqxSz/LDytomip+XM3m+EX15byRQh4UW8aS6082bcz6vxKSpaGN/iCD0wxVQV&#xA;VTbS/wAidP0u1hmuNSt/rWn3Et7aXUFmLaK1Mt7BeSfV4hMwiHC2MQIaoRjvSoZViet/kzY3WkXk&#xA;sXmS0n017+a/1rUrm1M8dus+nTcJPRknYPJwvYpFZCoVqOF7YqnY/wCcf7m81DzLdXeqpbjVvXt7&#xA;YC3EsrxSSWsiteTLJG08f+hD9z8NObnl8WyqM0j8gP0drflrU/04k/8Ah9LdeD2QLsbeW5k4W8pm&#xA;Jt4X+uEGOj/YT4tsVWa/+V2gX35l6nJd68iah5msbn0tM+qMbkwvBb20vK6Eg5wRi3BWOi8WavLp&#xA;iqaea/yo0vzD5MbyBa6mlhFa3MuomCOBjGltezXbW8PpRyw0SIuQlHpWMVXj8OKpp5x/LP8AxHe6&#xA;HefpBYZdHjMJE9st0rK8kEjSwhnT0bgG2AWX4qAn4TiqTT/lRpmrafA/l7VobJo7jU7fU7uKzWT6&#xA;yZ9Shmu0YepGRKk+nLD6hLfCGAH2Sqqy6/IsXeorcz69IsMdrqFtFHFboksbai94xkjlLtx4Lfn9&#xA;kklRRlUspVZP+WPkIeR/LbaKLxbwNcy3IaOE28SepQenFE0k5VRxru5qxJ9sVZbirCvM4H/K0PJH&#xA;tBrFP+RUGKs1xV2KuxV2KuxV2KuxV2KuxV2KsA8if+TM/Mz/AJjtL/7pNvirP8VdiqW+ZdKk1fy5&#xA;qukxyCKTULO4tUlYEqrTxNGGIHYcsVYVP+V+sy6/Fq51h1ltr43dqqyzqFjk1ZLyZCqsFbnZh7bc&#xA;Uox7HFUv8lfk1rOjMI9a1x9Xs01VNSELtKPU9O2uYi8lCq85JrhJGWnH4Bu2Kt/mN+UOteY7nUZd&#xA;Ku7S2TUZ4bmdJ/rKeo0dpLa0kNu6MRE0iTx0I+NaEd8VTTzn+WF15gg02P61E81vps2l3t5N6izu&#xA;JXt5BNG8Z+Fq2zA/69Qdt1UqH5PeYo/NPl3VYPMMkdhoU1xwsucrBbRr+e5hgSpJattLHbNyagWM&#xA;Ur0xVO9T8i+Y5/MF49te2Y0LU9V0/Wrr145Hu4ZtOW2Aih39MpKbGPc0KcnpWooqknk/8nde0i6W&#xA;XV9b/Saxy3lzGpafa4uoLeNZSGc1IkgeT4q7t1LVYqpfqn5H+Zb3Vdcul1mCOLVtLNgG/wBJMhlb&#xA;T7Wz/egOI/TWS1MoIXnVuuKt6b+SnnC11Py1ff4jEMej3clzPYwtO0EUUl6bk29t6rPIyPF+5bmw&#xA;+HxHw4qiNK/JXX4LC7g1DX5Lq4ee6vbOZZblSl5NbRwwzMefJvTmj9ajE70qWYciqyzzt5Q8wa3q&#xA;a3WmXsNiF0bUtLSVjL6qy6g9tIJB6RQgIbJR8LhviJG4FVWL3f5NeYZPJ0uhQa4sNzPb2lvLcr6q&#xA;fDBdXtw6DgwHCl6qhePCiUVI6rwVRN/+UetT2WrejrTDUNVs3tbiSSW5MUlPqfpIyq68Y/8ARZ1Y&#xA;pRqTMR1OKoXy1+T3mfSNQ8u3Da1A8GhC/lNuq3HF57y7urgEcpC3ErdIr1avwb86jiq9Zh9X0k9Y&#xA;qZeI9QpULypvxrvSuKrsVdirCvM3/k0PJH/GDWP+TUGKs1xV2KuxV2KuxV2KuxV2KuxV2KsA8if+&#xA;TM/Mz/mO0v8A7pNvirP8VdirsVYP5h/NbTdF1uXTn066ubazuLe01PUIjDwglukSRQImkE0ojjlj&#xA;eUxoeCsDvvRVkdj5q8u32sXOjWeoQz6pZhmuLRGq6hGVX+fBnVXp9kkA0rirHNY/NjRdK872vlKe&#xA;2ke8uri2tEkSSDkHuo2kR/QMizNGvCjuqkLirdv+bWgzSa8gtLsfoSRIoqKhN80t3JYJ9U+MBuV5&#xA;A0I5Ffip2NcVQ2ofnLo+jQH/ABDpl7pN6l0bKWycRTuZWtjcwCFoHkSb1xRECmvPZgMVTvzJ5vvN&#xA;C8qjzBNolzOI4hPfWUcluJbdOHJuZkkRGK/ZIQnfptiqVan+Z9xp/wBcaTy3fSJo1ul35iMclqxs&#xA;o35MAAJT67iJDKyx1otP2jxxVNfNXnG60NtONto1xq0OpSx28M1tLbIollr6an15Iz8QFajbFUt1&#xA;L83fKumwakL2VYdS0y7hsZNJaeD63JJOICGjj51ZV+s7n/JOKoryf+Ylj5n1O+srW29D6k86Mz3N&#xA;pJIxt5zbtW3ileeMFlqC6Db54qlei/m4utapqWm6boV1cXVi1wkMSzWokdrS4SCVZ0aUG0Y+p6kS&#xA;z8TIgJG+2KtD849Pj0PQNYvdIvLSDzE0UlnGzW8jpYyrCxvpfTkYLEn1lOY+2P5cVVpvzasU84y+&#xA;VYtLubi/E1xa2zRy2v724t7QXhX0jKJkRkYKJXQIGoCRiqd+TfNd15ktbq6k0i40uG2uJ7RWuJLe&#xA;T1JbW4ltbgKIJJKenLARVqV6iuKshxV2KuxVhXmb/wAmh5I/4wax/wAmoMVZrirsVdirsVdirsVd&#xA;irsVdirsVYB5E/8AJmfmZ/zHaX/3SbfFWf4q7FXYqwbzd+U2meZJdUrq1/pltrqhdatrP6txuOMA&#xA;twwaeCd4m9NVVjGw5KoBxVMdH8g2OmeY5NaS9uZ15XslnYSekIbd9TnW4vGQpGsjepLGCObnjvTF&#xA;ULrX5W6HrHmeHzBd3d2JIbq0vxZJ9XEBubBSLdyxha4HEty4rKFJ6gjbFUui/IzyVBZx29tJewSL&#xA;a/VZ7tJx60zieG6jupCyMvrx3NusqsiqvItVSDTFUXJ+Umh34ZvMN7d6/cyzyXE8156Ch+do1kqC&#xA;OGKJI1jicsnphW5/FXFU+u/K1ve+Un8s3t5dXVvLa/U5r6RozdOvHjzZwgQue54YqlXmT8t7XW76&#xA;/nGrX2nWusQR2uuWFoYRFdxRclAZpIpJIi0bmN2iZSV26gHFU+1XQbLUksElLxJp11FeW6xcVHOC&#xA;oRSCD8G/QUxVKNS/Lny9qNlq1rcer/uZvYtQuJ19L1Ulh9HisTFDRP8ARVqDU7nfwVRHljydbeXp&#xA;J/qt/c3EE8k8otp0teKNcTtO/GSKCKY/G5pzdtsVQXl78uNP0TXk1ePULu7NrazWOnW1x6HG3t7i&#xA;VJnjEkcSTShWhUJ6rtxXp1JxVA3f5MeTL7TLDTdQFzeW2maOmg2IllAMcCKFMo9NUHrOETkT8Pwr&#xA;8IxVMLT8tvL9tqMOqcppdUhvxqX1+T0jO8v1P6kyPII1b02j+JlH7Xem2Kpro/lyHSVWO0u7gW/1&#xA;m/vJbdzEySS6ldPeScj6fKkckrCPiw+H7XLriqbYq7FXYqwrzN/5NDyR/wAYNY/5NQYqzXFXYq7F&#xA;XYq7FXYq7FXYq7FXYq8g8yf8q5/xxr/H/Ff6d9S2/Tv+Hv036HqfVI/Q5/o/91y+r8MVQn/Ol/8A&#xA;mR//AA6sVd/zpf8A5kf/AMOrFXf86X/5kf8A8OrFXf8AOl/+ZH/8OrFXf86X/wCZH/8ADqxV3/Ol&#xA;/wDmR/8Aw6sVd/zpf/mR/wDw6sVd/wA6X/5kf/w6sVd/zpf/AJkf/wAOrFXf86X/AOZH/wDDqxV3&#xA;/Ol/+ZH/APDqxV3/ADpf/mR//DqxV3/Ol/8AmR//AA6sVd/zpf8A5kf/AMOrFXf86X/5kf8A8OrF&#xA;Xf8AOl/+ZH/8OrFXf86X/wCZH/8ADqxV3/Ol/wDmR/8Aw6sVd/zpf/mR/wDw6sVd/wA6X/5kf/w6&#xA;sVTTyd/gH/Gen+l/ij9O+jc/oz/EX6Z9LhxX6x6X6R/d148a8d+mKvVsVdirsVdirsVf/9k=</xmpGImg:image>
               </rdf:li>
            </rdf:Alt>
         </xmp:Thumbnails>
         <xmp:MetadataDate>2018-08-18T13:58:49+02:00</xmp:MetadataDate>
         <xmp:ModifyDate>2018-08-18T13:58:49+02:00</xmp:ModifyDate>
         <xmpTPg:MaxPageSize rdf:parseType="Resource">
            <stDim:w>1197.000000</stDim:w>
            <stDim:h>946.500000</stDim:h>
            <stDim:unit>Pixels</stDim:unit>
         </xmpTPg:MaxPageSize>
         <xmpTPg:NPages>1</xmpTPg:NPages>
         <xmpTPg:HasVisibleTransparency>True</xmpTPg:HasVisibleTransparency>
         <xmpTPg:HasVisibleOverprint>False</xmpTPg:HasVisibleOverprint>
         <xmpTPg:PlateNames>
            <rdf:Seq>
               <rdf:li>Cyan</rdf:li>
               <rdf:li>Magenta</rdf:li>
               <rdf:li>Yellow</rdf:li>
               <rdf:li>Black</rdf:li>
            </rdf:Seq>
         </xmpTPg:PlateNames>
         <xmpTPg:SwatchGroups>
            <rdf:Seq>
               <rdf:li rdf:parseType="Resource">
                  <xmpG:groupName>Default Swatch Group</xmpG:groupName>
                  <xmpG:groupType>0</xmpG:groupType>
               </rdf:li>
            </rdf:Seq>
         </xmpTPg:SwatchGroups>
      </rdf:Description>
   </rdf:RDF>
</x:xmpmeta>
                                                                                                    
                                                                                                    
                                                                                                    
                                                                                                    
                                                                                                    
                                                                                                    
                                                                                                    
                                                                                                    
                                                                                                    
                                                                                                    
                                                                                                    
                                                                                                    
                                                                                                    
                                                                                                    
                                                                                                    
                                                                                                    
                                                                                                    
                                                                                                    
                                                                                                    
                                                                                                    
                           
<?xpacket end="w"?>
	</metadata>
<title>T_e3_cruise</title>
<g id="Layer_2_1_">
	<g id="Layer_6">
		<g>
			<path d="M728.1,829.6c-9.8,9.7-22.8,10.4-35.4,11.9c-7.4,0.9-14.9,2.1-22.2,1.8c-13.1-0.4-26.2-1.1-39.1-3.1
				c-9.8-1.5-20.9-15.3-21.3-25.2c-0.4-9.7-0.1-19.5-0.1-30.6c-2.2,2.6-3.7,4.4-5.2,6.2c-12.6,14.2-26,27.6-43.2,36.3
				c-15,7.6-31.1,9.5-47.9,8.2c-13.5-1.1-27.1-2.4-38.9-9c-9.8-5.5-18.9-12.6-27.5-20c-13.3-11.4-19.5-27.5-26.8-43
				c-1.2,4.1-2.1,8.3-3.7,12.2c-6.4,15.3-19.7,21-34.7,24.2c-16.9,3.6-34.1,4-51.2,2.8c-25.1-1.7-50.3-4.5-73.6-15.2
				c-4.4-2-8.1-5.7-11.8-8.9c-2-1.7-3.5-2.1-6.3-2c-8.4,0.3-17.2,0.6-25.2-1.3c-18.6-4.4-37-9.9-55.3-15.6
				c-10.9-3.4-20.8-8.9-27.1-19.1c-2.1-3.5-3.4-7.5-5.1-11.3c-7.5,5.2-16.3,4.4-24.6,3.4c-20-2.3-39.5-7-58-14.9
				c-12.4-5.4-25-11.1-33.1-22.8c-5.8-8.3-10.3-17.3-8.6-27.8c1.2-7.5,3.4-14.9,5.7-22.1c8.5-26.7,17.4-53.2,25.8-80
				c7.9-25.1,19.7-48.4,32.8-71.1c3.5-6.1,8-12,13.2-16.7c6.8-6.2,10.7-13.4,13.4-22c6.4-21,16.5-40.3,26.8-59.6
				c13.8-25.7,27.1-51.7,40.6-77.6c9.4-18,19-35.9,28.2-54c12.3-24.2,23.9-48.8,36.7-72.8c7.1-13.4,16.3-25.7,23.8-38.9
				c7.6-13.5,14-27.7,21.3-41.4c4.8-8.9,10.5-17.2,15.7-25.8c7.7-12.7,16.2-24.9,27.3-34.7c12.4-11,24.9-22.2,41.8-25.7
				c11.1-2.3,22.5-4.1,33.9-4.6c17.1-0.7,29.8,7.9,38.7,22.1c10.6,16.9,16,36,20.1,55.3c3.4,16.1,5.6,32.5,8.2,48.8
				c2.7,17.3,5.3,34.7,7.7,52c2.2,15.2,3.9,30.6,6.3,45.8c3.2,20.3,6.3,40.6,10.3,60.7c5.1,25.9,11.4,51.6,16.3,77.6
				c3.3,17.4,5.3,35,7.3,52.6c2.1,18.1,3.4,36.3,5.1,54.2c5.9,0,11.5,0,17.4,0c-1.7-10.2-3.3-19.9-4.9-29.6c-0.2-1-0.5-1.9-0.5-2.9
				c-0.4-11.5-0.7-22.9-1.1-34.4c-0.4-12.3-1-24.6-0.9-36.9c0.1-27,0.3-53.9,1-80.9c0.7-26.9,2.1-53.9,2.9-80.8
				c0.9-29.6,1.1-59.3,2.1-88.9c0.7-22,1.5-43.9,3.2-65.8c1.1-14.5,3.5-28.9,6.2-43.2c0.6-3.2,4.4-7,7.7-8.3
				c14.2-5.8,28.6-10.9,44.1-13.2c15-2.2,29.6-2.2,44.4,1.4c14.3,3.5,28.9,19.1,30.3,34.1c1.7,18.3,3.1,36.7,4.1,55.1
				c1,19.6,1.3,39.2,2.1,58.8c0.8,19.1,1.9,38.1,3,57.2c1.6,28.1,3.4,56.1,4.8,84.2c0.5,10.2,0.2,20.5,0.3,30.7c0,5.6,0,11.1,0,16.8
				c1.4,0.2,2.2,0.5,3,0.4c17.4-0.4,34.6-2.6,51.8-5.7c9.9-1.8,20-2.5,30.1-3.5c4.5-0.5,9-0.5,13.4-1c6.3-0.7,11.8,1,17,4.2
				c15.8,9.8,28.1,22.8,34.9,40.2c4.5,11.5,8.4,23.3,11.5,35.2c3.3,12.4,5.6,25.1,7.8,37.7c1.4,8.3,1.7,16.8,2.6,25.4
				c4.6-0.8,9.1-1.5,13.9-2.3c-1.8-7.9-3.8-15.7-5.5-23.7c-4.7-22.7-9.1-45.4-13.9-68.1c-3.9-18.3-8.4-36.4-12.3-54.7
				c-2.8-13.2-4.9-26.6-7.5-39.9c-1.7-8.4-3.7-16.8-5.6-25.2c-4.1-17.6-8.2-35.1-12.3-52.7c-3.1-13.4-6.3-26.7-9.2-40.2
				c-5-23.4-10.9-46.7-14.3-70.3c-2.8-19.3-3.1-39.1-3.3-58.6c-0.1-17.2,8.6-29.2,25.1-34.9c3.8-1.3,8-2.4,11.9-2.1
				c16.3,1.3,32.7,2.8,48.9,5c7.6,1,15,3.9,22.5,5.7c5.7,1.4,8.9,4.6,10.8,10.3c5.3,16.2,11.8,32,16.8,48.3
				c6.7,21.8,12.8,43.8,18.7,65.8c6.5,24.1,12.3,48.4,18.6,72.6c5.7,21.9,11.3,43.9,17.6,65.6c4.2,14.3,9.5,28.2,14.8,42.1
				c1.4,3.7,4.5,6.9,6.6,9.9c11.2-2.2,22-5,32.9-6.3c12.3-1.4,24.8-1.7,37.2-2.1c7.1-0.2,14.3,0.2,21.4,0.8
				c14.2,1.2,22.4,10.6,28.5,22.2c11,21,18.1,43.4,24.2,66.1c3,11.5,4.9,23.3,7.4,34.9c0.3,1.4,1.2,2.8,2.2,3.7
				c18.8,16.1,34.4,34.6,44.2,57.4c3,6.9,4.3,14.6,6.3,21.9c3.7,14.1,3.4,28.3,2.2,42.8c-1.8,22.5-3.5,45.1-10.3,66.6
				c-3.9,12.4-9.5,24.4-15.6,35.9c-5.8,10.9-12.7,21.3-20,31.3c-5.1,7-11.5,13.2-17.8,19.2c-6.7,6.4-13.5,12.8-21,18.3
				c-17.6,12.9-37.4,20.8-58.6,26.1c-15.9,3.9-23.7,0.8-34.6-5.2c-7.3,19.6-22.7,28.9-42.1,33.1c-6.5,1.4-12.9,3-19.4,3.8
				c-9,1.1-17.7,0.2-24-7.3c-5,6.5-10.8,11-18.1,14.2c-14,6-28.7,9.4-43.6,10.6c-10.1,0.8-20.5-0.8-30.6-2c-3-0.4-5.8-3-8.8-4.6
				c-5.8,10.1-15,15.7-26.1,18.6c-11.8,3.1-23.5,7.2-35.6,8.9C755.8,838.9,741.3,839.1,728.1,829.6z M1002.2,597.5
				c0.4,0.1,0.9,0.2,1.3,0.3c0.1,1.8,0.3,3.5,0.4,5.3c0.5,7.8,0.9,15.6,1.6,23.4c2.8,31.9,5.7,63.7,8.6,95.6
				c0.6,7.1,1.1,14.3,2,21.4c1.4,11.7,7.2,17.4,19,19c2.8,0.4,5.7,0.4,8.4,0.1c14.9-1.6,29-6.3,42.3-13c31.2-15.7,55.4-39,73-69.1
				c8.9-15.1,17.5-30.3,22.2-47.4c7.8-28.6,10.4-57.7,9.5-87.2c-0.8-25.5-8.7-48.7-25.9-68.2c-8.6-9.7-15.6-20.9-27.1-27.8
				c-0.9-0.5-1.3-2.2-1.5-3.5c-1.4-7.4-2.3-14.8-4.1-22.1c-6.5-27.1-15-53.6-26.9-78.9c-5.5-11.7-14.2-19.4-27.2-19.7
				c-17.4-0.4-35,0-52.4,1.4c-11.2,0.9-22.2,4.3-33.3,6.7c-2.8,0.6-4.9,0.4-6.4-2.2c-4.6-8.2-10.9-16-13.5-24.8
				c-12-40.6-23.9-81.2-34.1-122.2c-13-52.4-26-104.7-45.5-155.2c-2.7-7-6.1-11.6-13.8-12.1c-0.8-0.1-1.6-0.4-2.4-0.6
				c-20.6-6-41.5-9.4-63.1-8.4c-17.3,0.8-29.7,11.7-30.5,28.8c-0.7,13.6-0.8,27.4,0.8,40.9c2.3,19.5,6,38.8,10,58.1
				c6.5,31.6,13.8,63.1,20.7,94.7c9.6,43.8,19.2,87.5,28.7,131.3c7.5,34.5,14.8,69.1,22.2,103.6c0.9,4.3,2.1,8.6,2.9,12.1
				c-9.1,1.7-17.6,3.3-26.4,5c0,0.1-0.3-1-0.4-2.1c-1.4-27.1-5.9-53.6-12.8-79.8c-6.1-23.2-17.2-43.3-37.5-57.2
				c-5.7-3.9-11.7-6.2-18.8-5.4c-14.1,1.5-28.1,3-42.2,4.5c-17.7,1.9-35.4,4-53.1,5.6c-6.3,0.6-6.7-0.5-6.9-6.7
				c-0.9-29.8-1.5-59.6-2.8-89.4c-2.3-53.4-4.9-106.9-7.6-160.3c-0.8-16.5-2-32.9-3.8-49.3c-1.5-13.2-8.3-23.7-20.5-29.5
				c-5.7-2.7-12.3-4.5-18.6-5.2c-25.8-2.8-49.8,4.5-73.2,14.3c-1.6,0.7-3.3,2.6-3.8,4.2c-1.2,3.9-1.7,8.1-2.4,12.2
				c-4.9,30.5-6.2,61.3-7,92.1c-1.2,44.6-1.6,89.3-3.1,133.9c-2.1,61.1-3.6,122.3-0.9,183.4c0.4,9.4,2,18.9,3.4,28.2
				c0.9,5.9,2.7,11.6,4,17.1c-10.2,0.5-20.2,1-30,1.5c-1.2-12.9-2.6-26.1-3.6-39.4c-2.5-34.8-8.2-69.1-15.7-103.2
				c-5.8-26.5-11.3-53.1-15.7-79.9c-6-36.5-10.9-73.2-16-109.8c-4-28.5-7.5-57.2-15.7-84.9c-3.8-12.8-8.2-25.4-16.1-36.4
				c-5.6-7.7-12.8-13.6-22.2-15.2c-18.4-3.1-36.7-0.3-53.2,7.4c-17.1,8-31.7,20.4-42.8,36c-6.2,8.7-12.5,17.4-17.8,26.5
				c-6.7,11.3-12.2,23.3-18.7,34.8c-8.7,15.4-18.1,30.3-26.5,45.8c-10.6,19.3-20.5,38.9-30.7,58.4c-29.7,57.2-59.4,114.5-89,171.7
				c-10.4,20.1-20.7,40.3-25.6,62.7c-0.3,1.3-1.5,2.5-2.7,3.4c-10.1,8.2-17.9,18.3-24.4,29.5C55.3,523.1,46,545,38.6,567.7
				C28.4,598.9,18.5,630.2,9,661.6c-4.6,15.2,1.2,28,13.6,36.8c9.4,6.7,19.8,12.5,30.6,16.5c19.2,7,39.1,12.4,59.9,12.4
				c5.7,0,9.9-2.3,12.9-7.1c0.8-1.3,1.7-2.7,2.9-4.8c0.6,2.2,1,3.6,1.3,5c2.7,16.3,11.5,27.8,27.3,32.6
				c19.6,5.9,39.3,11.5,59.3,15.9c8.8,1.9,18.7,4.7,27.5-2.4c4.9,11.8,14.9,16.2,25.6,19.7c29.2,9.5,59.4,12,89.8,10.6
				c9.4-0.4,18.9-2.2,28.1-4.5c14.3-3.6,23.5-12.8,26.2-27.7c1.2-6.6,2.3-13.1,3.4-19.7c0.3-1.7,0.6-3.3,0.9-5
				c2.5,5.2,3.9,10.5,5.8,15.6c6,16.3,12.9,32.3,25.1,45.1c16.3,17.3,36.5,27,60.3,29c19,1.6,37.6,0.3,54.1-10.1
				c21.4-13.6,39.5-30.6,50.8-53.9c0.6-1.2,1.4-2.3,2.1-3.5c0.7,2.3,0.4,4.3,0.4,6.3c-0.6,13.6-2,27.3-1.7,40.9
				c0.4,16.6,11,27.3,27.5,27.7c17.5,0.4,35,0,52.4-1.4c12.2-1,25.4-1.8,32.7-15.1c7.3,10.4,17.8,11.9,28.7,11.9
				c19.3,0.1,37.6-5.2,55.2-12.4c10.5-4.3,17-12.1,17.2-24.1c0-0.9,0.5-1.9,1-3.3c6.4,14.4,10.5,17.3,23,18.1
				c21.2,1.2,41.4-3.6,61-10.9c10.1-3.7,15.7-10.9,16.1-21.8c0-1,0.4-2.1,0.8-4.4c0.9,2.3,1.3,3.3,1.6,4.3c4,12.5,9.9,16.6,23,15.9
				c2.8-0.2,5.6-0.7,8.4-1.2c13.5-2.7,26.7-5.9,37.5-15.2c7.9-6.8,12.9-15.1,11.7-25.7c-1-8.9-2.5-17.9-5.2-26.4
				c-8.4-26.4-17.1-52.6-26.4-78.6c-2.2-6.2-1.6-10,2.8-14.7C993,622,998.4,610.1,1002.2,597.5z M1005.2,697
				c0.4-0.1,0.8-0.1,1.2-0.2c-1.1-12.5-2.3-25.1-3.5-37.6c-1.2-12.6-2.4-25.1-3.6-38c-4.6,5.8-9.1,11.3-13.3,17
				c-0.6,0.9-0.5,2.7,0,3.9c4.2,12.2,8.4,24.3,12.7,36.4C1000.8,684.7,1003,690.8,1005.2,697z"/>
			<path class="st0" d="M1002.2,597.5c-3.9,12.6-9.2,24.5-18.1,34.1c-4.4,4.8-5,8.5-2.8,14.7c9.3,26,18.1,52.3,26.4,78.6
				c2.7,8.5,4.2,17.5,5.2,26.4c1.2,10.6-3.8,19-11.7,25.7c-10.8,9.3-24.1,12.5-37.5,15.2c-2.8,0.6-5.6,1.1-8.4,1.2
				c-13.1,0.8-19-3.4-23-15.9c-0.3-1-0.8-2-1.6-4.3c-0.4,2.3-0.8,3.4-0.8,4.4c-0.4,10.9-6,18.1-16.1,21.8
				c-19.7,7.3-39.8,12.1-61,10.9c-12.5-0.7-16.6-3.7-23-18.1c-0.4,1.4-1,2.4-1,3.3c-0.2,12-6.6,19.8-17.2,24.1
				c-17.7,7.2-35.9,12.5-55.2,12.4c-10.9,0-21.4-1.5-28.7-11.9c-7.4,13.4-20.5,14.1-32.7,15.1c-17.4,1.4-34.9,1.8-52.4,1.4
				c-16.5-0.4-27.1-11.1-27.5-27.7c-0.3-13.6,1-27.3,1.7-40.9c0.1-2,0.4-3.9-0.4-6.3c-0.7,1.1-1.5,2.3-2.1,3.5
				c-11.3,23.3-29.4,40.3-50.8,53.9c-16.5,10.5-35.1,11.7-54.1,10.1c-23.8-2-44-11.7-60.3-29c-12.1-12.9-19.1-28.8-25.1-45.1
				c-1.9-5.1-3.3-10.4-5.8-15.6c-0.3,1.7-0.6,3.3-0.9,5c-1.1,6.6-2.3,13.1-3.4,19.7c-2.7,14.9-11.8,24.1-26.2,27.7
				c-9.2,2.3-18.6,4.1-28.1,4.5c-30.5,1.4-60.6-1-89.8-10.6c-10.7-3.5-20.7-7.9-25.6-19.7c-8.8,7.1-18.6,4.3-27.5,2.4
				c-20-4.4-39.7-10-59.3-15.9c-15.8-4.8-24.7-16.3-27.3-32.6c-0.2-1.4-0.7-2.8-1.3-5c-1.3,2.1-2.1,3.4-2.9,4.8
				c-3,4.8-7.1,7.1-12.9,7.1c-20.8-0.1-40.7-5.4-59.9-12.4c-10.8-4-21.2-9.8-30.6-16.5C10.2,689.6,4.5,676.8,9,661.6
				c9.5-31.4,19.4-62.7,29.6-93.9c7.4-22.7,16.7-44.6,28.9-65.2c6.6-11.1,14.4-21.2,24.4-29.5c1.1-0.9,2.4-2.1,2.7-3.4
				c4.8-22.4,15.1-42.6,25.6-62.7c29.7-57.2,59.3-114.5,89-171.7c10.1-19.5,20.1-39.1,30.7-58.4c8.5-15.5,17.9-30.4,26.5-45.8
				c6.5-11.5,12-23.4,18.7-34.8c5.4-9.2,11.7-17.8,17.8-26.5c11.2-15.7,25.7-28,42.8-36c16.5-7.7,34.8-10.5,53.2-7.4
				c9.4,1.6,16.6,7.5,22.2,15.2c8,11,12.4,23.6,16.1,36.4c8.2,27.8,11.7,56.4,15.7,84.9c5.1,36.6,10.1,73.3,16,109.8
				c4.4,26.8,9.9,53.4,15.7,79.9c7.4,34.1,13.1,68.4,15.7,103.2c1,13.2,2.4,26.4,3.6,39.4c9.8-0.5,19.8-1,30-1.5
				c-1.3-5.5-3.1-11.2-4-17.1c-1.5-9.4-3-18.8-3.4-28.2c-2.7-61.1-1.2-122.3,0.9-183.4c1.5-44.6,1.9-89.3,3.1-133.9
				c0.8-30.8,2.1-61.6,7-92.1c0.7-4.1,1.2-8.2,2.4-12.2c0.5-1.7,2.2-3.6,3.8-4.2c23.4-9.8,47.4-17.1,73.2-14.3
				c6.3,0.7,12.9,2.5,18.6,5.2c12.2,5.8,19,16.3,20.5,29.5c1.8,16.4,3,32.8,3.8,49.3c2.7,53.4,5.3,106.8,7.6,160.3
				c1.3,29.8,1.9,59.6,2.8,89.4c0.2,6.2,0.7,7.3,6.9,6.7c17.7-1.6,35.4-3.7,53.1-5.6c14.1-1.5,28.1-3,42.2-4.5
				c7-0.8,13.1,1.5,18.8,5.4c20.3,14,31.4,34.1,37.5,57.2c6.9,26.2,11.4,52.7,12.8,79.8c0.1,1.1,0.4,2.2,0.4,2.1
				c8.8-1.7,17.3-3.3,26.4-5c-0.9-3.6-2-7.8-2.9-12.1c-7.4-34.5-14.7-69.1-22.2-103.6c-9.5-43.8-19.1-87.6-28.7-131.3
				c-6.9-31.6-14.2-63-20.7-94.7c-4-19.2-7.6-38.6-10-58.1c-1.6-13.5-1.5-27.3-0.8-40.9c0.8-17.1,13.2-28,30.5-28.8
				c21.6-1,42.5,2.4,63.1,8.4c0.8,0.2,1.6,0.5,2.4,0.6c7.7,0.6,11.1,5.1,13.8,12.1c19.5,50.5,32.5,102.8,45.5,155.2
				c10.2,41,22.1,81.7,34.1,122.2c2.6,8.8,8.9,16.6,13.5,24.8c1.5,2.6,3.6,2.9,6.4,2.2c11.1-2.5,22.1-5.8,33.3-6.7
				c17.4-1.4,34.9-1.7,52.4-1.4c13,0.3,21.8,8,27.2,19.7c11.9,25.3,20.3,51.8,26.9,78.9c1.8,7.3,2.7,14.7,4.1,22.1
				c0.2,1.2,0.6,2.9,1.5,3.5c11.4,6.9,18.5,18.1,27.1,27.8c17.2,19.5,25.1,42.7,25.9,68.2c0.9,29.4-1.6,58.6-9.5,87.2
				c-4.7,17.1-13.3,32.3-22.2,47.4c-17.6,30.1-41.8,53.4-73,69.1c-13.3,6.7-27.4,11.5-42.3,13c-2.8,0.3-5.7,0.2-8.4-0.1
				c-11.8-1.6-17.6-7.3-19-19c-0.9-7.1-1.4-14.3-2-21.4c-2.9-31.9-5.8-63.7-8.6-95.6c-0.7-7.8-1.1-15.6-1.6-23.4
				c-0.1-1.8-0.3-3.5-0.4-5.3C1003.1,597.7,1002.7,597.6,1002.2,597.5z M111.8,465.2c2.3,0,3.8-0.2,5.2,0c6.7,0.8,13.7,1,20.1,2.8
				c15.4,4.4,26.1,14.9,34,28.5c2.5,4.3,5.5,6.6,10.6,6.9c13.8,1,27.6,2,41.3,3.6c5.4,0.6,7.3-0.9,8.9-6.1
				c5.1-17.6,17.6-27.4,33.4-27.1c6.1,0.1,12.3,0.6,18.4,1.5c3.8,0.6,5.5-0.3,7-4c9.8-25.9,14.3-53,19.3-80
				c2.5-13.6,4.8-27.2,7.7-40.7c1.3-6.1,5.9-9.2,10.2-8.3c4.2,0.9,5.6,4.8,4.7,11.6c-1.3,10.9-2.7,21.8-3.5,32.7
				c-1,13.8-1.6,27.6-2,41.4c-0.5,17.6-0.7,35.3-1.1,52.9c-0.1,3.4,1.2,4.9,4.6,5.8c9.6,2.6,19.1,5.7,28.6,8.8
				c15.9,5.2,28.4,14.9,38.1,28.6c1.2,1.7,4.1,3.2,6.1,3c16.9-1.7,33.7-3.6,50.5-5.9c3-0.4,5.8-2.9,8.4-4.7
				c6.8-4.8,13.5-9.6,20-14.6c1.6-1.2,3.5-3.4,3.5-5.1c0.1-7.8-0.1-15.6-0.6-23.4c-2.4-33.6-6.8-67-13.2-100
				c-5.4-28.1-12.1-56.1-16.7-84.3c-5.9-36.2-10.1-72.6-15.4-108.9c-4.4-30.3-6.9-60.9-14.8-90.7c-3.8-14.2-7.5-28.4-16.6-40.4
				c-4.8-6.4-11.1-11.3-19.4-10.5c-12.2,1.2-24.3,3.4-36.4,5.4c-2,0.3-3.8,2-5.7,3c-20,11.4-34.4,28.3-45.6,47.9
				c-9.7,17-18.4,34.7-27.8,51.9c-17,31.3-34.7,62.3-51.1,93.9c-29.7,57-58.8,114.4-88,171.6c-5.6,11-10.8,22.2-15.8,33.4
				C116,452,114.2,458.4,111.8,465.2z M650.7,201c-0.3,0-0.7,0-1,0c-1.2-36.8-2.2-73.6-3.6-110.4c-0.6-16.3-1.6-32.6-3.4-48.8
				c-1.3-11.7-8.9-19.1-20.3-21.3c-22.7-4.5-44.4-0.6-65,9.6c-2.7,1.3-5.5,5-5.9,7.9c-2,14.2-4.2,28.4-4.6,42.7
				c-2,68.5-3.7,136.9-4.9,205.4c-1,54.3-2,108.6,1.2,162.9c0.9,15.2,3.9,29.9,10.2,44c4.2,9.3,11.9,13.6,20.6,15.6
				c27.8,6.5,56.2,8.9,84.7,9.8c1.8,0.1,3.9-1.2,5.5-2.4c5.9-4.6,11.1-10.2,17.5-13.8c7.8-4.4,16.5-7,24.7-10.6
				c16.2-7.2,44.3-4.9,57.3,15.7c10.5,16.5,11.1,16.1,30.6,13.6c0.2,0,0.3,0,0.5-0.1c20.3-2.8,30.2-13.1,29.7-31.5
				c-0.8-30.6-4.9-60.8-13.4-90.3c-4.5-15.6-12.7-29.3-26.2-39.2c-3.7-2.7-7.5-4.1-12.1-3.5c-14.6,1.6-29.1,3.4-43.7,4.8
				c-17.9,1.7-35.8,3.9-53.7,4.6c-13.9,0.6-21-7.8-20.8-21.7c0.1-10.5,0.2-21-0.1-31.5C653.5,275.3,652.1,238.1,650.7,201z
				 M824.7,21.2c-3.2,0-6.3-0.2-9.5,0c-10.5,0.7-17.5,7.1-18.2,17.6c-0.6,8.6-0.8,17.3-0.3,25.9c2.4,37.6,12.3,73.9,20.3,110.5
				c9.4,42.9,20.4,85.5,30.1,128.4c9.3,41.3,17.7,82.7,26.8,124.1c3.4,15.6,7.6,31,11.6,46.5c0.6,2.5,1,5.1,4.8,5.2
				c16.3,0.5,32.6,1.5,48.9,1.8c13.7,0.3,26.3,3.7,37.7,11.3c1.5,1,3.7,1.7,5.5,1.5c6.6-1,13.1-2.2,19.6-3.8
				c1.7-0.4,3.7-2.2,4.4-3.9c2.9-6.7,7.2-12.4,14.1-14.8c16.6-5.9,33.2-11.9,50.1-16.7c13.7-3.9,27.8-6.7,41.9-9.1
				c4.5-0.8,6-1.6,5.2-6.3c-5.4-30.2-14.5-59.1-26.6-87.3c-2.5-5.9-6.7-8.6-12.7-8.5c-15,0.3-30-0.1-44.9,1.4
				c-13,1.4-25.9,4.8-38.7,7.8c-6.9,1.6-12.1-0.3-16.4-5.5c-8.2-9.7-16.2-19.8-19.7-32.2c-10.5-36.1-20.6-72.4-30.3-108.7
				c-6.1-23-11.2-46.3-16.7-69.5C903,101.5,891.9,66.6,879,32.3c-0.5-1.4-2.2-3.1-3.5-3.4C858.7,25.4,842.2,20.2,824.7,21.2z
				 M620.2,662.3c-0.1-29.6-5.6-57.8-17.2-84.8c-9.6-22.5-22.6-42.2-44-55.5c-10.5-6.5-21.9-10.3-33.8-11.1
				c-8.1-0.5-16.4,2-24.6,3.5c-14.7,2.8-25.7,11.1-34.1,23.4c-14.4,21.2-24.1,44.5-31.4,68.8c-8.7,29-9.1,58.7-6.4,88.7
				c1.9,21.4,5,42.4,13.9,62.1c5.1,11.4,10.3,22.7,19.3,31.9c17.1,17.3,38.4,23.1,61.9,23c12.7,0,24.3-3.6,34.9-10.5
				c29.3-19.2,46.8-46.7,53.5-80.6C616,701.8,617.6,682,620.2,662.3z M737.3,749.5c-0.6,0-1.3,0-1.9,0.1c1,17.8,1.7,35.6,3.2,53.3
				c0.9,10.7,3.3,12.2,14,12.6c15.6,0.7,30.4-3.2,44.9-8.3c15-5.2,16.9-6.5,16.1-22.5c-1.4-28.4-2.3-57.1-6.6-85.1
				c-5.1-33.5-13.5-66.6-20.7-99.8c-3.8-17.3-7.8-34.6-16.5-50.2c-6.7-12.1-14.2-23.7-21.5-35.4c-3.5-5.5-8.5-9.2-15.2-9
				c-11.8,0.3-23.7,1.1-34.6,6.3c-9,4.3-18.8,8-23.9,17.3c-4.2,7.7-8.1,15.8-10.4,24.3c-9.7,35.1-15.1,71-19.1,107.1
				c-3.6,33.1-8,66.1-11.6,99.3c-1.7,15.5-2.8,31.2-3.3,46.8c-0.3,9.6,4.2,13.5,13.8,14c18.7,0.9,37.3,0.7,55.8-2.4
				c13.1-2.2,14.9-2.8,16-16c2.5-28.5,4-57.1,5.6-85.7c0.5-8,2.9-12.3,8.1-12.1c4.9,0.1,7.6,4.4,7.6,12.1
				C737.3,727.1,737.3,738.3,737.3,749.5z M833,592.7c0.9,20.2,1.8,47,3.2,73.7c1.7,31.8,3.9,63.5,5.9,95.3c0.5,7.6,1.2,15.3,2,22.9
				c0.7,6.7,2.5,8.7,7.7,9.1c19.7,1.6,38.3-3.4,56.6-10c3.7-1.3,5.4-3.8,5.7-7.8c1.7-27.3,2.7-54.6,0.1-81.9
				c-0.5-4.8-0.8-9.6-0.9-14.5c-0.1-4.9,2.7-8.8,6.6-9.4c4.7-0.7,7.5,1.9,9.4,5.9c0.3,0.6,0.5,1.2,0.8,1.9
				c6.2,14.8,7.4,30.7,9.6,46.3c2.2,15.5,4.5,31,6.7,46.5c0.7,4.9,3.2,7,8.2,6.1c12.2-2.4,24.7-3.9,35.2-11.7
				c6.1-4.5,8.7-9.9,7.2-17.2c-1.1-5.2-2-10.5-3.6-15.6c-8.2-24.8-16.5-49.6-24.9-74.4c-1.8-5.2-4.1-10.1-6.5-15
				c-2.5-5.2-2.1-9.5,2-13.7c3.1-3.2,6.6-6.2,9.3-9.7c17.2-23.1,23.1-49.3,17.5-77.1c-4.2-21.1-16.6-37.4-38.7-43.6
				c-10.9-3.1-22-4.6-33.5-4.2c-19,0.7-38,0.4-57,0.3c-6.7,0-11.7,2.7-16.1,7.6c-5.8,6.6-8.6,14.3-9.1,22.8
				C835.1,545.4,834.3,565.7,833,592.7z M344.3,779.5c0.1,0.5,0.1,1,0.2,1.5c13.1-1.9,26.3-3.4,39.4-5.8c7.9-1.4,12.9-6.6,14.1-14.9
				c1.6-10.7,3.7-21.4,4.5-32.1c1-13.4,1.7-27-2.2-40.2c-5.6-18.7-19-30.1-37.4-33.7c-9.2-1.8-18.6-3.1-27.7-5.8
				c-6.4-1.9-9.6-6.3-8.5-11.6c1.1-5.3,5.5-8,12-7c7.7,1.2,15.4,2.9,23.1,4.2c1.9,0.3,4.2,0.9,5.9,0.2c14-5.8,27-13.3,29.2-29.9
				c1.6-11.6,2.8-23.9,0.9-35.2c-4.6-27-16.9-49.2-45.1-58.4c-12.6-4.1-25.3-8.5-38.2-11.5c-15.2-3.5-30.7-6.1-46.1-8.4
				c-10.1-1.5-16.9,2.5-20.4,12.2c-2.2,6.1-3.9,13-3.7,19.4c0.5,19.5,2.2,38.9,3.2,58.3c1.9,36.9,3.5,73.9,5.5,110.8
				c1.1,20,2.6,39.9,4.1,59.8c0.7,9.3,6.2,14.2,14.9,17.2C295.5,776.8,319.7,779.1,344.3,779.5z M1175.2,558.5
				c-0.4,0-0.8-0.1-1.2-0.1c0-5.2,0.3-10.4-0.1-15.5c-1.4-18.3-6.9-35.2-18.6-49.7c-4.9-6.1-10.2-11.9-14.9-18.1
				c-10.1-13.3-23.6-17-39.1-13.1c-17.1,4.3-34,9.4-50.9,14.5c-7.8,2.3-15.3,5.5-23,8.3c-5.6,2.1-8.1,6.4-8.5,12.3
				c-2.3,31.3-3.4,62.5-0.8,93.8c2.4,29.9,4.7,59.8,7.3,89.6c1.7,19.4,3.7,38.8,5.7,58.2c0.6,5.7,2.2,7.4,8,7.1
				c5.3-0.3,10.6-1.1,15.7-2.6c35-10.1,62.5-30.8,83-60.6c15.5-22.5,28.5-46.4,32.2-74C1172.3,592,1173.5,575.2,1175.2,558.5z
				 M231.3,753.6c-0.7-4.3-1.1-7.5-1.7-10.7c-7.5-38.1-17.6-75.6-29.2-112.6c-10.3-32.7-19.8-65.7-30.3-98.3
				c-4.3-13.4-11.1-25.8-20.7-36.2c-16-17.3-41.8-16.6-57,1.1c-10.2,11.9-17.4,25.7-23.5,39.9c-17.7,40.9-31.5,83.1-43,126.1
				c-3,11.2-1,16.3,8.6,22.9c20,13.8,43.2,18.9,66.5,22.8c12.7,2.1,13.8,0.5,16.1-12.5c2.5-14.4,5.4-28.8,8.3-43.1
				c1.1-5.5,4.6-8.4,8.7-8c4.1,0.5,7.1,4.7,7.3,10c0.6,12.6,1,25.2,1.9,37.8c0.6,8.8,1.7,17.6,3,26.3c1.1,7.3,4.7,13.5,12.2,15.8
				c18.4,5.7,36.9,11.2,55.5,16.4C219,752.7,224.6,752.7,231.3,753.6z M235.7,691.7c0-11.6,0.7-28-0.1-44.2
				c-2.1-38.6-4.9-77.1-7.3-115.6c-0.2-3.1-1.5-3.9-4.3-4.1c-10.3-0.6-20.6-1.3-30.9-1.9c-2.2-0.1-4.4-0.3-6.4-0.4
				C203.6,582.7,220.3,639.5,235.7,691.7z M821.6,678.3c-4.1-47.5-3.5-95-0.7-141.7c-12.2,2.6-23.5,5-34.4,7.3
				C803.5,587.2,810.1,633.4,821.6,678.3z M411.1,666.5c-0.8-43.2,11.4-83,31.5-121.5c-11.5,1.2-21.8,2.2-32.3,3.3
				c0.1,1.4,0.1,2,0.3,2.6c5.2,14.4,5.1,29.5,4.4,44.4c-0.7,15.3-4.3,29.7-16.4,40.5c-3.3,2.9-6.9,5.7-9.8,8.1
				C396.1,651.4,403.4,658.7,411.1,666.5z M651.1,539.6c-16.8-1.5-34-3-50.3-4.4c6.6,13.6,14.3,27.1,19.9,41.4
				c5.7,14.4,9.3,29.6,13.3,42.7C639.5,594,645.3,566.9,651.1,539.6z M1001.4,523.7c0.3-0.1,0.7-0.2,1-0.3c0-3.3,0-6.6,0-10.5
				c-1.9,0.4-3.7,0.8-6.1,1.4C998.2,517.9,999.8,520.8,1001.4,523.7z M309.1,470.9c-0.5-0.1-1-0.2-1.5-0.2c-0.6,2.9-1.2,5.9-1.7,8.8
				c0,0.1,1.8,0.4,3.2,0.7C309.1,476.7,309.1,473.8,309.1,470.9z"/>
			<path d="M111.8,465.2c2.4-6.8,4.2-13.2,6.9-19.2c5-11.3,10.2-22.5,15.8-33.4c29.2-57.3,58.3-114.6,88-171.6
				c16.5-31.6,34.1-62.6,51.1-93.9c9.4-17.3,18.1-34.9,27.8-51.9C312.6,75.5,327,58.6,347,47.1c1.9-1.1,3.7-2.7,5.7-3
				c12.1-2,24.2-4.3,36.4-5.4c8.3-0.8,14.6,4.1,19.4,10.5c9,12,12.8,26.2,16.6,40.4c7.9,29.7,10.4,60.4,14.8,90.7
				c5.3,36.3,9.5,72.7,15.4,108.9c4.6,28.3,11.2,56.2,16.7,84.3c6.4,33.1,10.8,66.4,13.2,100c0.6,7.8,0.8,15.6,0.6,23.4
				c0,1.7-1.9,3.9-3.5,5.1c-6.5,5-13.2,9.9-20,14.6c-2.6,1.9-5.4,4.3-8.4,4.7c-16.8,2.3-33.7,4.2-50.5,5.9c-1.9,0.2-4.9-1.4-6.1-3
				c-9.6-13.7-22.1-23.4-38.1-28.6c-9.5-3.1-19-6.2-28.6-8.8c-3.4-0.9-4.7-2.4-4.6-5.8c0.4-17.6,0.5-35.3,1.1-52.9
				c0.4-13.8,1-27.6,2-41.4c0.8-10.9,2.2-21.8,3.5-32.7c0.8-6.9-0.5-10.7-4.7-11.6c-4.3-0.9-8.9,2.2-10.2,8.3
				c-2.9,13.5-5.2,27.1-7.7,40.7c-5,27-9.5,54.2-19.3,80c-1.4,3.8-3.2,4.6-7,4c-6.1-0.9-12.3-1.4-18.4-1.5
				c-15.8-0.4-28.2,9.5-33.4,27.1c-1.5,5.2-3.4,6.8-8.9,6.1c-13.7-1.6-27.5-2.6-41.3-3.6c-5-0.3-8.1-2.6-10.6-6.9
				c-7.9-13.5-18.6-24.1-34-28.5c-6.5-1.8-13.4-2-20.1-2.8C115.6,465.1,114.1,465.2,111.8,465.2z M359.2,186.5
				c0-4.8,0.5-9.7-0.2-14.4c-0.4-2.5-2.7-6-4.7-6.6c-2.4-0.6-6.5,0.8-8.1,2.7c-2.6,3-4.4,7.1-5.3,11c-1.9,8.1-3,16.3-4.5,24.5
				c-2.4,12.8-3.6,25.6-1.9,38.6c0.5,3.7,1.4,7.1,5.6,7.9c4.1,0.8,7.1-1.3,9.1-4.7c1.1-1.9,1.9-3.9,2.5-6
				C356.5,222.2,359.5,204.6,359.2,186.5z"/>
			<path d="M650.7,201c1.3,37.1,2.7,74.3,3.9,111.4c0.3,10.5,0.2,21,0.1,31.5c-0.2,13.9,7,22.3,20.8,21.7
				c17.9-0.7,35.8-2.8,53.7-4.6c14.6-1.4,29.1-3.2,43.7-4.8c4.6-0.5,8.4,0.8,12.1,3.5c13.5,9.9,21.7,23.6,26.2,39.2
				c8.4,29.4,12.5,59.7,13.4,90.3c0.5,18.4-9.4,28.7-29.7,31.5c-0.2,0-0.3,0-0.5,0.1c-19.4,2.4-20.1,2.9-30.6-13.6
				c-13.1-20.6-41.2-22.8-57.3-15.7c-8.2,3.6-17,6.2-24.7,10.6c-6.4,3.6-11.6,9.3-17.5,13.8c-1.6,1.2-3.7,2.5-5.5,2.4
				c-28.5-0.9-56.9-3.3-84.7-9.8c-8.7-2-16.5-6.3-20.6-15.6c-6.3-14.1-9.3-28.8-10.2-44c-3.2-54.3-2.2-108.6-1.2-162.9
				c1.2-68.5,2.9-136.9,4.9-205.4c0.4-14.3,2.6-28.5,4.6-42.7c0.4-2.9,3.2-6.5,5.9-7.9c20.6-10.2,42.3-14.1,65-9.6
				c11.4,2.3,19,9.6,20.3,21.3c1.8,16.2,2.8,32.5,3.4,48.8c1.4,36.8,2.4,73.6,3.6,110.4C650.1,201,650.4,201,650.7,201z"/>
			<path d="M824.7,21.2c17.4-1,34,4.1,50.7,7.7c1.4,0.3,3,2,3.5,3.4c12.9,34.3,24,69.2,32.5,104.9c5.5,23.2,10.6,46.5,16.7,69.5
				c9.7,36.4,19.9,72.6,30.3,108.7c3.6,12.3,11.6,22.4,19.7,32.2c4.3,5.2,9.5,7.1,16.4,5.5c12.8-3,25.6-6.4,38.7-7.8
				c14.9-1.6,29.9-1.2,44.9-1.4c6-0.1,10.2,2.5,12.7,8.5c12.1,28.1,21.2,57.1,26.6,87.3c0.8,4.7-0.7,5.5-5.2,6.3
				c-14.1,2.5-28.2,5.2-41.9,9.1c-16.9,4.9-33.5,10.8-50.1,16.7c-6.9,2.5-11.1,8.1-14.1,14.8c-0.7,1.6-2.7,3.4-4.4,3.9
				c-6.5,1.6-13,2.8-19.6,3.8c-1.7,0.3-4-0.5-5.5-1.5c-11.4-7.7-24-11-37.7-11.3c-16.3-0.3-32.6-1.4-48.9-1.8
				c-3.8-0.1-4.2-2.8-4.8-5.2c-4-15.5-8.2-30.9-11.6-46.5c-9.1-41.3-17.5-82.8-26.8-124.1c-9.7-42.9-20.7-85.5-30.1-128.4
				c-8-36.6-17.9-72.9-20.3-110.5c-0.5-8.6-0.3-17.3,0.3-25.9c0.7-10.5,7.7-17,18.2-17.6C818.4,21,821.6,21.2,824.7,21.2z"/>
			<path d="M620.2,662.3c-2.6,19.6-4.2,39.4-8,58.8c-6.7,34-24.2,61.4-53.5,80.6c-10.6,6.9-22.2,10.5-34.9,10.5
				c-23.5,0.1-44.8-5.7-61.9-23c-9-9.1-14.2-20.5-19.3-31.9c-8.8-19.7-11.9-40.8-13.9-62.1c-2.7-30-2.3-59.7,6.4-88.7
				c7.3-24.3,17-47.7,31.4-68.8c8.4-12.3,19.4-20.6,34.1-23.4c8.2-1.6,16.5-4.1,24.6-3.5c11.9,0.8,23.4,4.6,33.8,11.1
				c21.4,13.3,34.3,33,44,55.5C614.6,604.5,620.1,632.7,620.2,662.3z M517.6,668.2c-0.1,0-0.2,0-0.3,0c0,4.2-0.3,8.3,0.1,12.5
				c0.4,4.1,0.6,8.5,2.3,12.1c1.2,2.5,4.7,5.1,7.3,5.3c2.3,0.2,5-2.8,7.2-4.8c1-0.9,1.4-2.7,1.6-4.1c1.3-14.5,2.8-29.1,3.7-43.6
				c0.3-4.5-1.6-8.6-6.7-9.9c-4-0.9-10.5,2.7-12.3,6.9c-0.8,1.8-1.2,3.8-1.4,5.8C518.6,654.9,518.1,661.5,517.6,668.2z"/>
			<path d="M737.3,749.5c0-11.2,0-22.3,0-33.5c0-7.7-2.7-12-7.6-12.1c-5.1-0.1-7.6,4.1-8.1,12.1c-1.7,28.6-3.2,57.2-5.6,85.7
				c-1.1,13.2-2.9,13.8-16,16c-18.5,3.1-37.1,3.4-55.8,2.4c-9.6-0.5-14.1-4.3-13.8-14c0.5-15.6,1.6-31.3,3.3-46.8
				c3.6-33.1,8-66.1,11.6-99.3c3.9-36.2,9.4-72.1,19.1-107.1c2.3-8.4,6.2-16.6,10.4-24.3c5.1-9.3,14.9-12.9,23.9-17.3
				c11-5.2,22.8-6,34.6-6.3c6.7-0.2,11.8,3.5,15.2,9c7.4,11.7,14.8,23.3,21.5,35.4c8.7,15.6,12.7,32.9,16.5,50.2
				c7.2,33.2,15.6,66.2,20.7,99.8c4.3,28.1,5.1,56.7,6.6,85.1c0.8,15.9-1.1,17.2-16.1,22.5c-14.6,5.1-29.3,8.9-44.9,8.3
				c-10.8-0.5-13.1-1.9-14-12.6c-1.5-17.7-2.2-35.5-3.2-53.3C736,749.5,736.6,749.5,737.3,749.5z M735,608.2
				c-0.7-7.1-1.2-14.9-2.2-22.6c-0.6-4.2-3.4-7-7.9-6.9c-4.5,0.1-7.2,3-7.6,7.2c-1.2,11.7-2.3,23.5-2.8,35.3
				c-0.2,5.1,0.5,10.4,2.2,15.2c0.9,2.5,4.7,5.3,7.2,5.4c2.5,0,5.3-3,7.5-5.2c1.1-1.1,1.3-3.4,1.5-5.2
				C733.7,623.8,734.3,616.3,735,608.2z"/>
			<path d="M833,592.7c1.3-27,2.1-47.3,3.3-67.6c0.5-8.5,3.2-16.2,9.1-22.8c4.4-4.9,9.3-7.6,16.1-7.6c19,0.1,38,0.4,57-0.3
				c11.5-0.4,22.6,1.2,33.5,4.2c22.2,6.2,34.5,22.5,38.7,43.6c5.6,27.7-0.4,54-17.5,77.1c-2.7,3.6-6.2,6.5-9.3,9.7
				c-4,4.2-4.5,8.5-2,13.7c2.4,4.9,4.8,9.9,6.5,15c8.4,24.8,16.7,49.5,24.9,74.4c1.7,5,2.5,10.3,3.6,15.6c1.6,7.3-1.1,12.7-7.2,17.2
				c-10.6,7.8-23,9.2-35.2,11.7c-5,1-7.5-1.1-8.2-6.1c-2.2-15.5-4.5-31-6.7-46.5c-2.2-15.7-3.4-31.5-9.6-46.3
				c-0.3-0.6-0.5-1.2-0.8-1.9c-1.9-4-4.7-6.6-9.4-5.9c-3.9,0.6-6.7,4.6-6.6,9.4c0.1,4.8,0.5,9.7,0.9,14.5
				c2.6,27.3,1.6,54.6-0.1,81.9c-0.3,4.1-2,6.5-5.7,7.8c-18.3,6.7-36.9,11.7-56.6,10c-5.3-0.4-7-2.4-7.7-9.1
				c-0.8-7.6-1.5-15.3-2-22.9c-2.1-31.8-4.2-63.5-5.9-95.3C834.8,639.6,833.9,612.8,833,592.7z M910.7,571.6c0,0.3-0.1,0.5-0.1,0.8
				c-2.8,0-5.7-0.3-8.5,0.1c-4.9,0.6-8.1,3.9-8.4,8.4c-0.4,4.9,1.9,8.2,6.4,10.2c10,4.4,20,4,30.1,0.7c4.3-1.4,6.9-4.1,6.8-8.7
				c-0.1-4.6-2.7-7.5-7.1-8.4C923.5,573.4,917.1,572.6,910.7,571.6z"/>
			<path d="M344.3,779.5c-24.6-0.4-48.8-2.8-72.3-10.9c-8.7-3-14.2-7.8-14.9-17.2c-1.5-19.9-3-39.9-4.1-59.8
				c-2-36.9-3.6-73.9-5.5-110.8c-1-19.4-2.7-38.9-3.2-58.3c-0.2-6.5,1.5-13.3,3.7-19.4c3.5-9.7,10.3-13.7,20.4-12.2
				c15.5,2.3,30.9,4.9,46.1,8.4c12.9,3,25.6,7.4,38.2,11.5c28.2,9.2,40.5,31.4,45.1,58.4c1.9,11.4,0.7,23.6-0.9,35.2
				c-2.3,16.6-15.3,24.1-29.2,29.9c-1.6,0.7-3.9,0.1-5.9-0.2c-7.7-1.4-15.4-3-23.1-4.2c-6.4-1-10.8,1.8-12,7
				c-1.1,5.3,2.1,9.7,8.5,11.6c9.1,2.7,18.4,4,27.7,5.8c18.4,3.6,31.7,14.9,37.4,33.7c4,13.2,3.3,26.8,2.2,40.2
				c-0.8,10.8-3,21.4-4.5,32.1c-1.2,8.3-6.3,13.5-14.1,14.9c-13,2.4-26.2,3.9-39.4,5.8C344.4,780.5,344.4,780,344.3,779.5z
				 M324.9,590.5c1.8-0.3,4.4-0.7,7-1c4.1-0.5,6.8-2.6,7.9-6.6c1.1-4.2-0.6-7.2-3.7-10.1c-6-5.6-13.5-8.3-21.1-10.7
				c-10.7-3.5-12.5-1.2-18.2,7.7c-4.7,7.3,0.7,17.8,9.3,19.1C312.1,589.7,318.1,589.9,324.9,590.5z M303.8,708
				c-0.2,9.2,11.5,17.8,20.5,15.1c2.8-0.8,5.7-1.5,8.6-1.9c6-0.7,9.4-3.3,10-8c0.6-4.7-2-8.4-7.5-10.3c-5.5-1.9-11-3.7-16.6-5.5
				C308.5,694,304,697.2,303.8,708z"/>
			<path d="M1175.2,558.5c-1.7,16.7-2.9,33.5-5.1,50.1c-3.7,27.6-16.7,51.5-32.2,74c-20.6,29.8-48,50.5-83,60.6
				c-5.1,1.5-10.4,2.3-15.7,2.6c-5.8,0.3-7.4-1.5-8-7.1c-2-19.4-4-38.8-5.7-58.2c-2.6-29.9-4.9-59.7-7.3-89.6
				c-2.6-31.3-1.5-62.6,0.8-93.8c0.4-5.9,2.9-10.2,8.5-12.3c7.6-2.9,15.2-6,23-8.3c16.9-5.1,33.8-10.2,50.9-14.5
				c15.5-3.9,29-0.2,39.1,13.1c4.7,6.2,10,12.1,14.9,18.1c11.8,14.5,17.2,31.4,18.6,49.7c0.4,5.1,0.1,10.3,0.1,15.5
				C1174.4,558.4,1174.8,558.5,1175.2,558.5z M1089.5,587.5c0.1,0,0.2,0,0.3,0c0,5.2-0.3,10.3,0.1,15.5c0.2,3.3,0.6,6.9,2.3,9.6
				c1.6,2.5,4.9,5.4,7.5,5.3c2.8-0.1,5.7-3,8.2-5.2c1.1-0.9,1.3-3,1.6-4.6c2.3-13.3,1.7-26.6-0.8-39.8c-1-5.5-4.8-8.3-9.8-8.2
				c-4.8,0.1-7.7,3-8.3,8.9C1089.9,575.2,1089.8,581.3,1089.5,587.5z"/>
			<path d="M231.3,753.6c-6.6-0.8-12.2-0.9-17.5-2.3c-18.6-5.2-37-10.7-55.5-16.4c-7.5-2.3-11-8.5-12.2-15.8
				c-1.4-8.7-2.4-17.5-3-26.3c-0.9-12.6-1.4-25.2-1.9-37.8c-0.2-5.3-3.2-9.5-7.3-10c-4.1-0.5-7.6,2.4-8.7,8
				c-2.9,14.4-5.8,28.7-8.3,43.1c-2.3,13-3.4,14.6-16.1,12.5c-23.4-3.9-46.5-9-66.5-22.8c-9.6-6.6-11.6-11.7-8.6-22.9
				c11.5-43,25.4-85.3,43-126.1c6.1-14.1,13.3-28,23.5-39.9c15.2-17.7,41-18.4,57-1.1c9.7,10.4,16.4,22.8,20.7,36.2
				c10.5,32.7,20,65.6,30.3,98.3c11.6,37.1,21.7,74.5,29.2,112.6C230.2,746.1,230.6,749.3,231.3,753.6z M122.7,576.3
				c-0.2,0-0.3,0-0.5,0c0,2.3,0,4.7,0,7c0,2.5-0.7,5.1-0.2,7.5c0.9,4.3,1.7,8.9,4,12.5c3,4.9,9.3,4.2,12.2-0.9
				c0.9-1.5,1.5-3.4,1.6-5.2c0.8-10.4,2-20.9,2-31.3c0-4.4-2.2-8.9-4.2-13c-2.2-4.3-7.1-5.1-10.4-1.6c-2.2,2.3-3.8,5.9-4.2,9
				C122.2,565.6,122.7,571,122.7,576.3z"/>
			<path d="M235.7,691.7c-15.4-52.2-32.1-109-49-166.3c1.9,0.1,4.1,0.3,6.4,0.4c10.3,0.7,20.6,1.4,30.9,1.9c2.8,0.2,4.1,0.9,4.3,4.1
				c2.4,38.6,5.3,77.1,7.3,115.6C236.4,663.8,235.7,680.1,235.7,691.7z M229.2,648.5c0.2,0,0.4,0,0.5-0.1
				c-0.9-19.2-1.7-38.4-2.8-57.6c-1.1-19.1-2.7-38.2-4.1-57c-10.1-0.7-19.4-1.3-28.3-1.9C206.1,570.9,217.7,609.7,229.2,648.5z"/>
			<path d="M821.6,678.3c-11.5-44.9-18.1-91.1-35.1-134.4c10.9-2.3,22.1-4.7,34.4-7.3C818.1,583.3,817.5,630.8,821.6,678.3z
				 M795.7,549.2c5.6,20.7,11.4,41.8,16.9,62c0.6-21.5,1.3-44,1.9-67C807.9,545.9,801.4,547.7,795.7,549.2z"/>
			<path d="M411.1,666.5c-7.7-7.8-15-15.1-22.4-22.6c3-2.5,6.5-5.2,9.8-8.1c12.2-10.8,15.7-25.2,16.4-40.5c0.7-15,0.7-30-4.4-44.4
				c-0.2-0.6-0.1-1.3-0.3-2.6c10.5-1.1,20.8-2.1,32.3-3.3C422.5,583.5,410.3,623.3,411.1,666.5z M432.7,551.1
				c-5.6,0.9-10.1,1.6-14.6,2.2c0.9,8.7,1.7,16.8,2.7,25.8C424.8,569.7,428.5,561,432.7,551.1z M406.2,651.9c0.4-5.9,0.7-10.9,1-17
				c-3.9,3.6-6.9,6.4-9.9,9.3C400,646.5,402.7,648.9,406.2,651.9z"/>
			<path d="M651.1,539.6c-5.8,27.3-11.6,54.4-17,79.6c-4-13.1-7.7-28.3-13.3-42.7c-5.6-14.3-13.3-27.8-19.9-41.4
				C617.1,536.7,634.3,538.2,651.1,539.6z M633.4,592.9c3.6-15.8,7.4-32,11.1-48.2c-10.9-0.7-21.7-1.5-32.4-2.2
				C619.4,559.6,626.4,576.2,633.4,592.9z"/>
			<path d="M1001.4,523.7c-1.6-2.9-3.2-5.8-5.1-9.4c2.4-0.5,4.2-0.9,6.1-1.4c0,3.9,0,7.2,0,10.5
				C1002,523.5,1001.7,523.6,1001.4,523.7z"/>
			<path d="M309.1,470.9c0,2.9,0,5.8,0,9.3c-1.3-0.3-3.2-0.7-3.2-0.7c0.5-3,1.1-5.9,1.7-8.8C308.1,470.8,308.6,470.8,309.1,470.9z"
				/>
			<path class="st0" d="M359.2,186.5c0.2,18.1-2.8,35.7-7.7,53.1c-0.6,2.1-1.4,4.1-2.5,6c-2,3.4-4.9,5.5-9.1,4.7
				c-4.2-0.8-5.1-4.2-5.6-7.9c-1.7-13-0.5-25.8,1.9-38.6c1.5-8.2,2.6-16.4,4.5-24.5c0.9-3.9,2.7-8,5.3-11c1.7-1.9,5.7-3.3,8.1-2.7
				c2.1,0.5,4.3,4.1,4.7,6.6C359.8,176.8,359.2,181.7,359.2,186.5z"/>
			<path class="st0" d="M517.6,668.2c0.5-6.6,1-13.3,1.6-19.9c0.2-2,0.6-4,1.4-5.8c1.8-4.2,8.3-7.8,12.3-6.9c5.1,1.2,7,5.4,6.7,9.9
				c-0.9,14.6-2.4,29.1-3.7,43.6c-0.1,1.4-0.6,3.2-1.6,4.1c-2.2,2-4.9,4.9-7.2,4.8c-2.6-0.2-6.1-2.8-7.3-5.3
				c-1.7-3.6-1.9-8-2.3-12.1c-0.4-4.1-0.1-8.3-0.1-12.5C517.4,668.2,517.5,668.2,517.6,668.2z"/>
			<path class="st0" d="M735,608.2c-0.7,8.2-1.3,15.6-2.1,23.1c-0.2,1.8-0.4,4-1.5,5.2c-2.2,2.2-5,5.3-7.5,5.2
				c-2.5,0-6.4-2.9-7.2-5.4c-1.7-4.7-2.4-10.1-2.2-15.2c0.5-11.8,1.6-23.5,2.8-35.3c0.4-4.2,3.1-7.1,7.6-7.2
				c4.5-0.1,7.3,2.8,7.9,6.9C733.9,593.2,734.3,601.1,735,608.2z"/>
			<path class="st0" d="M910.7,571.6c6.4,1,12.8,1.8,19.1,3c4.4,0.9,7,3.8,7.1,8.4c0.1,4.6-2.5,7.3-6.8,8.7
				c-10.1,3.3-20.2,3.7-30.1-0.7c-4.5-2-6.8-5.3-6.4-10.2c0.4-4.5,3.6-7.8,8.4-8.4c2.8-0.3,5.6-0.1,8.5-0.1
				C910.6,572.1,910.6,571.9,910.7,571.6z"/>
			<path class="st0" d="M324.9,590.5c-6.8-0.6-12.8-0.8-18.7-1.7c-8.6-1.3-13.9-11.8-9.3-19.1c5.7-9,7.5-11.2,18.2-7.7
				c7.6,2.5,15,5.1,21.1,10.7c3.1,2.9,4.8,6,3.7,10.1c-1.1,4-3.8,6.1-7.9,6.6C329.3,589.8,326.7,590.2,324.9,590.5z"/>
			<path class="st0" d="M303.8,708c0.2-10.8,4.8-14,15-10.6c5.5,1.9,11.1,3.6,16.6,5.5c5.5,2,8.1,5.6,7.5,10.3c-0.6,4.7-4,7.2-10,8
				c-2.9,0.4-5.8,1-8.6,1.9C315.3,725.9,303.6,717.3,303.8,708z"/>
			<path class="st0" d="M1089.5,587.5c0.3-6.2,0.4-12.3,1.1-18.5c0.6-5.9,3.5-8.8,8.3-8.9c5-0.1,8.8,2.7,9.8,8.2
				c2.5,13.2,3.1,26.5,0.8,39.8c-0.3,1.6-0.5,3.7-1.6,4.6c-2.5,2.2-5.4,5.1-8.2,5.2c-2.5,0.1-5.9-2.8-7.5-5.3
				c-1.7-2.6-2.1-6.3-2.3-9.6c-0.3-5.1-0.1-10.3-0.1-15.5C1089.7,587.5,1089.6,587.5,1089.5,587.5z"/>
			<path class="st0" d="M122.7,576.3c0-5.3-0.5-10.7,0.2-15.9c0.4-3.2,2-6.7,4.2-9c3.3-3.5,8.2-2.7,10.4,1.6c2.1,4,4.2,8.6,4.2,13
				c0,10.4-1.1,20.9-2,31.3c-0.1,1.8-0.7,3.6-1.6,5.2c-2.9,5.1-9.2,5.8-12.2,0.9c-2.2-3.6-3-8.2-4-12.5c-0.5-2.4,0.1-5,0.2-7.5
				c0-2.3,0-4.7,0-7C122.4,576.3,122.6,576.3,122.7,576.3z"/>
		</g>
		
			<image style="overflow:visible;enable-background:new    ;" width="1093" height="660" xlink:href="../../../../01 wip/Artwork_Finales/e3_cruise_02.png"  transform="matrix(1 0 0 1 52 81.31)">
		</image>
	</g>
	<g id="T_e1_jung">
		<rect x="201.3" y="749.4" class="st0" width="794.4" height="194.5"/>
		<path d="M993.2,752v189.5H203.8V752H993.2 M998.2,747H198.8v199.5h799.5L998.2,747L998.2,747z"/>
		<g class="st1">
			<path d="M292,798.1l-2.1,6.5h-3.5l8.4-26.7h6.4l8.4,26.7h-3.5l-2.1-6.5H292z M303.2,795l-5.1-16.1L293,795H303.2z"/>
		</g>
		<g class="st1">
			<path d="M318.5,794.6v10h-2.9v-18.1h2.8v4c0.4-1.1,1-2,1.7-2.6s1.4-1,2.2-1.2s1.5-0.3,2.1-0.3h0.2c0.3,0,0.7,0,1,0h0.4v3.2
				c-0.1,0-0.3,0-0.7,0h-0.9c-0.4,0-1.4,0-2,0.1s-1.4,0.3-1.9,0.7c-0.5,0.3-1.2,0.9-1.5,1.5C318.7,792.6,318.5,793.5,318.5,794.6z"
				/>
			<path d="M332.8,794.6v10h-2.9v-18.1h2.8v4c0.4-1.1,1-2,1.7-2.6s1.4-1,2.2-1.2s1.5-0.3,2.1-0.3h0.2c0.3,0,0.7,0,1,0h0.4v3.2
				c-0.1,0-0.3,0-0.7,0h-0.9c-0.4,0-1.4,0-2,0.1s-1.4,0.3-1.9,0.7c-0.5,0.3-1.2,0.9-1.5,1.5C333.1,792.6,332.8,793.5,332.8,794.6z"
				/>
		</g>
		<g class="st1">
			<path d="M349.5,794.6v10h-2.9v-18.1h2.8v4c0.4-1.1,1-2,1.7-2.6s1.4-1,2.2-1.2s1.5-0.3,2.1-0.3h0.2c0.3,0,0.7,0,1,0h0.4v3.2
				c-0.1,0-0.3,0-0.7,0h-0.9c-0.4,0-1.4,0-2,0.1s-1.4,0.3-1.9,0.7c-0.5,0.3-1.2,0.9-1.5,1.5C349.8,792.6,349.5,793.5,349.5,794.6z"
				/>
		</g>
		<g class="st1">
			<path d="M358.5,802.3c0-1.2,1.1-2.3,2.3-2.3c1.3,0,2.3,1,2.3,2.3c0,1.2-1,2.3-2.3,2.3S358.5,803.6,358.5,802.3z"/>
			<path d="M369.4,802.3c0-1.2,1.1-2.3,2.3-2.3c1.3,0,2.3,1,2.3,2.3c0,1.2-1,2.3-2.3,2.3S369.4,803.6,369.4,802.3z"/>
		</g>
		<g class="st1">
			<path d="M379.5,802.3c0-1.2,1.1-2.3,2.3-2.3c1.3,0,2.3,1,2.3,2.3c0,1.2-1,2.3-2.3,2.3C380.6,804.6,379.5,803.6,379.5,802.3z"/>
		</g>
		<g class="st1">
			<path d="M394.3,804.6v-11.9l-8.4-14.7h3.8l6.2,11l6.2-11h3.8l-8.4,14.7v11.9H394.3z"/>
		</g>
		<g class="st1">
			<path d="M407.4,795.4c0-5.7,3-9.4,8.3-9.5h0.1c5.3,0,8.3,3.7,8.3,9.5c0,6-3,9.8-8.3,9.8S407.4,801.4,407.4,795.4z M410.5,795.6
				c0,4.5,1.9,6.8,5.1,6.8s5.1-2.2,5.1-6.8s-1.8-6.8-5.1-6.8S410.5,791,410.5,795.6z"/>
		</g>
		<g class="st1">
			<path d="M430.2,799.6v-13.1h3.1V799c0,2.2,1.1,3.4,3.3,3.4c3.3,0,5.4-2.8,5.4-6.7v-9.3h3.1v18.1H442v-3c-1,2.2-3.1,3.6-6,3.6
				C432.5,805.2,430.2,803,430.2,799.6z"/>
		</g>
		<g class="st1">
			<path d="M477.5,805.3c0,2.7-1.5,4.5-3.8,5.3c-1.1,0.4-2.5,0.6-4,0.6c-5,0-7.8-1.8-7.8-5.4c0-1.4,0.8-2.9,2.1-3.7
				c-0.7-0.5-1.1-1.1-1.4-1.9c-0.1-0.3-0.1-0.6-0.1-0.9c0-0.4,0.1-0.8,0.3-1.2c0.3-0.7,0.8-1.3,1.6-1.7c-0.9-1-1.3-2.3-1.3-3.9
				c0-3.9,2.9-6.5,6.7-6.5c1.5,0,2.8,0.3,3.8,1v-2.3h2.9v7.8c0,4-2.7,6.6-6.7,6.6c-1.6,0-3-0.5-4-1.4c-0.4,0.4-0.6,0.8-0.6,1.3
				c0,0.8,0.7,1.6,2,1.6h4.7C475.3,800.5,477.5,802.3,477.5,805.3z M474.6,805.6c0-1.7-1.1-2.6-3.1-2.6h-5.9c-0.6,0.6-1,1.6-1,2.5
				c0,2,1.8,3.2,5.1,3.2C472.7,808.7,474.6,807.6,474.6,805.6z M466.3,792.5c0,2.6,1.2,3.9,3.6,3.9c2.5,0,3.6-1.3,3.6-3.9
				c0-2.9-1.5-4-3.6-4h-0.1C467.7,788.6,466.3,789.7,466.3,792.5z"/>
		</g>
		<g class="st1">
			<path d="M481.7,795.5c0-5.7,3.5-9.6,8.5-9.6c2.8,0,4.9,1.2,6.1,3.1c1.2,1.9,1.6,4.2,1.6,6.4c0,0.3,0,0.7,0,1.1h-13
				c0.1,2.1,0.7,3.6,1.6,4.5s2.1,1.3,3.6,1.3h0.1c2.4,0,4.2-1.6,4.5-4.3h3.1c-0.1,1.4-0.4,2.7-1.2,4s-1.8,2.1-3.5,2.7
				c-0.8,0.3-1.8,0.4-2.9,0.4C484.8,805.2,481.7,801.2,481.7,795.5z M484.9,793.8h9.8c0-3.4-2-5-4.6-5
				C487.3,788.7,485.1,790.7,484.9,793.8z"/>
		</g>
		<g class="st1">
			<path d="M504.5,799v-10h-2.9v-2.5h2.9v-5.3h3.1v5.3h4.3v2.5h-4.3v9.6c0,0.7,0.1,1.3,0.3,1.7c0.1,0.4,0.4,0.8,0.6,1
				c0.3,0.2,0.6,0.4,1,0.4c0.3,0.1,0.7,0.1,1.1,0.1h0.6h1.5v2.8h-1.1c-1.4,0-2.2,0-3.3-0.2c-1.1-0.2-1.7-0.5-2.3-1
				c-0.7-0.6-1-1.3-1.2-2.4C504.6,800.4,504.5,799.8,504.5,799z"/>
		</g>
		<g class="st1">
			<path d="M528.9,797.8v6.8h-3.1v-26.7h3.1v15.7l7.8-7.2h4l-7.8,7.4l9,10.8h-4.1l-7.2-8.5L528.9,797.8z"/>
		</g>
		<g class="st1">
			<path d="M546.1,780.4c0-1.3,1.2-2.5,2.5-2.5s2.5,1.1,2.5,2.5c0,1.3-1.2,2.5-2.5,2.5S546.1,781.7,546.1,780.4z M550.2,786.5v18.2
				h-3.1v-18.2H550.2z"/>
		</g>
		<g class="st1">
			<path d="M564,786c2.7,0,4.8,1.5,5.5,3.4V778h3.1v26.6h-3.1v-3c-0.9,2.2-2.4,3.5-5.7,3.5c-4.4,0-7.3-3.9-7.3-9.4
				C556.5,789.8,559.4,786,564,786z M564.4,802.5c3.2,0,5.1-2.7,5.1-7.1c0-4.2-2-6.9-5.1-6.9c-3,0-4.7,2.8-4.7,7.3
				C559.6,800.2,561.5,802.5,564.4,802.5z"/>
		</g>
		<g class="st1">
			<path d="M582.9,795.3v9.3h-3.1v-18.1h3.1v3c0.9-2.1,2.9-3.5,5.9-3.5c3.5,0,5.9,2.2,5.9,5.6v13.1h-3.1v-12.5
				c0-2.2-1.1-3.5-3.3-3.5C585,788.7,582.9,791.2,582.9,795.3z"/>
		</g>
		<g class="st1">
			<path d="M600.6,800c0-3.3,2.2-5.2,5.3-6c4.3-1,6.2-1.5,6.2-3.1c0-1.2-0.2-1.8-1.2-2.2c-0.5-0.2-1.2-0.3-2.2-0.3
				c-2.9,0-4.4,1.2-4.4,4.5h-3.1v-0.2c0-4.2,2.9-6.8,7.5-6.8c2.5,0,4.2,0.5,5.2,1.5s1.4,2.1,1.4,3.7v13.4h-3.1v-3.2
				c-0.8,2.1-3.1,3.8-6.1,3.8C602.6,805.2,600.6,803,600.6,800z M603.7,799.9c0,1.5,1,2.7,3,2.7s3.9-1.3,4.8-2.9
				c0.4-0.8,0.7-1.5,0.7-2.2v-3c-0.6,0.3-1.1,0.6-1.4,0.7c-0.2,0.1-0.4,0.1-0.6,0.2l-0.5,0.2c-0.1,0-0.3,0.1-0.7,0.2
				s-0.5,0.2-0.7,0.2c-1.4,0.4-2.2,0.7-3.1,1.3C604.2,797.9,603.7,798.8,603.7,799.9z"/>
		</g>
		<g class="st1">
			<path d="M625.2,789.4c1-2.3,2.9-3.4,5.7-3.4c4.4,0,7.2,3.9,7.2,9.4c0,5.9-2.9,9.7-7.5,9.7c-2.9,0-4.4-1.2-5.5-3.5v10H622v-25.2
				h3.1L625.2,789.4L625.2,789.4z M630.2,802.5c3,0,4.8-2.8,4.8-7.4c0-4.2-1.9-6.6-4.8-6.6c-3.2,0-5.1,2.6-5.1,7
				C625.2,799.8,627.1,802.5,630.2,802.5z"/>
		</g>
		<g class="st1">
			<path d="M647.5,789.4c1-2.3,2.9-3.4,5.7-3.4c4.4,0,7.2,3.9,7.2,9.4c0,5.9-2.9,9.7-7.5,9.7c-2.9,0-4.4-1.2-5.5-3.5v10h-3.1v-25.2
				h3.1L647.5,789.4L647.5,789.4z M652.6,802.5c3,0,4.8-2.8,4.8-7.4c0-4.2-1.9-6.6-4.8-6.6c-3.2,0-5.1,2.6-5.1,7
				C647.5,799.8,649.5,802.5,652.6,802.5z"/>
		</g>
		<g class="st1">
			<path d="M665.9,795.5c0-5.7,3.5-9.6,8.5-9.6c2.8,0,4.9,1.2,6.1,3.1c1.2,1.9,1.6,4.2,1.6,6.4c0,0.3,0,0.7,0,1.1h-13
				c0.1,2.1,0.7,3.6,1.6,4.5s2.1,1.3,3.6,1.3h0.1c2.4,0,4.2-1.6,4.5-4.3h3.1c-0.1,1.4-0.4,2.7-1.2,4s-1.8,2.1-3.5,2.7
				c-0.8,0.3-1.8,0.4-2.9,0.4C669,805.2,665.9,801.2,665.9,795.5z M669.1,793.8h9.8c0-3.4-2-5-4.6-5
				C671.5,788.7,669.3,790.7,669.1,793.8z"/>
		</g>
		<g class="st1">
			<path d="M695,786c2.7,0,4.8,1.5,5.5,3.4V778h3.1v26.6h-3.1v-3c-0.9,2.2-2.4,3.5-5.7,3.5c-4.4,0-7.3-3.9-7.3-9.4
				C687.4,789.8,690.4,786,695,786z M695.4,802.5c3.2,0,5.1-2.7,5.1-7.1c0-4.2-2-6.9-5.1-6.9c-3,0-4.7,2.8-4.7,7.3
				C690.6,800.2,692.5,802.5,695.4,802.5z"/>
		</g>
		<g class="st1">
			<path d="M720.2,795.4c0-5.7,3-9.4,8.3-9.5h0.1c5.3,0,8.3,3.7,8.3,9.5c0,6-3,9.8-8.3,9.8C723.2,805.2,720.2,801.4,720.2,795.4z
				 M723.4,795.6c0,4.5,1.9,6.8,5.1,6.8s5.1-2.2,5.1-6.8s-1.8-6.8-5.1-6.8S723.4,791,723.4,795.6z"/>
		</g>
		<g class="st1">
			<path d="M746.2,795.3v9.3h-3.1v-18.1h3.1v3c0.9-2.1,2.9-3.5,5.9-3.5c3.5,0,5.9,2.2,5.9,5.6v13.1h-3.1v-12.5
				c0-2.2-1.1-3.5-3.3-3.5C748.2,788.7,746.2,791.2,746.2,795.3z"/>
			<path d="M771.9,800c0-3.3,2.2-5.2,5.3-6c4.3-1,6.2-1.5,6.2-3.1c0-1.2-0.2-1.8-1.2-2.2c-0.5-0.2-1.2-0.3-2.2-0.3
				c-2.9,0-4.4,1.2-4.4,4.5h-3.1v-0.2c0-4.2,2.9-6.8,7.5-6.8c2.5,0,4.2,0.5,5.2,1.5s1.4,2.1,1.4,3.7v13.4h-3.1v-3.2
				c-0.8,2.1-3.1,3.8-6.1,3.8C773.9,805.2,771.9,803,771.9,800z M775,799.9c0,1.5,1,2.7,3,2.7s3.9-1.3,4.8-2.9
				c0.4-0.8,0.7-1.5,0.7-2.2v-3c-0.6,0.3-1.1,0.6-1.4,0.7c-0.2,0.1-0.4,0.1-0.6,0.2l-0.5,0.2c-0.1,0-0.3,0.1-0.7,0.2
				s-0.5,0.2-0.7,0.2c-1.4,0.4-2.2,0.7-3.1,1.3C775.5,797.9,775,798.8,775,799.9z"/>
		</g>
		<g class="st1">
			<path d="M804.1,795.3c0-5.6,3.5-9.4,8.7-9.4c2.4,0,4.6,0.9,6.1,2.4s2.1,3.5,2.1,5.3c0,0.3,0,0.6,0,0.9h-3.1V794
				c0-1.4-0.3-2.7-1-3.6c-0.7-0.8-1.7-1.4-2.7-1.6c-0.5-0.1-1-0.1-1.5-0.1c-3.2,0-5.4,2.4-5.4,6.7c0,4.4,2,6.9,5.5,6.9
				c0.9,0,1.7-0.2,2.6-0.7c0.9-0.5,1.5-1.2,2-2.6c0.2-0.7,0.4-1.4,0.4-2.2h3.1c-0.2,5.4-3,8.3-8.3,8.3c-3.7,0-6.4-1.8-7.6-4.7
				C804.4,799,804.1,797.3,804.1,795.3z"/>
		</g>
		<g class="st1">
			<path d="M830.3,794.6v10h-2.9v-18.1h2.8v4c0.4-1.1,1-2,1.7-2.6s1.4-1,2.2-1.2s1.5-0.3,2.1-0.3h0.2c0.3,0,0.7,0,1,0h0.4v3.2
				c-0.1,0-0.3,0-0.7,0h-0.9c-0.4,0-1.4,0-2,0.1c-0.5,0.1-1.4,0.3-1.9,0.7c-0.5,0.3-1.2,0.9-1.5,1.5
				C830.5,792.6,830.3,793.5,830.3,794.6z"/>
		</g>
		<g class="st1">
			<path d="M842.9,799.6v-13.1h3.1V799c0,2.2,1.1,3.4,3.3,3.4c3.3,0,5.4-2.8,5.4-6.7v-9.3h3.1v18.1h-3.1v-3c-1,2.2-3.1,3.6-6,3.6
				C845.2,805.2,842.9,803,842.9,799.6z"/>
		</g>
		<g class="st1">
			<path d="M864.1,780.4c0-1.3,1.2-2.5,2.5-2.5s2.5,1.1,2.5,2.5c0,1.3-1.2,2.5-2.5,2.5S864.1,781.7,864.1,780.4z M868.2,786.5v18.2
				h-3.1v-18.2H868.2z"/>
		</g>
		<g class="st1">
			<path d="M874.2,796.6h3c0,4,1.7,6.1,5.2,6.1c2.1,0,3.8-1.2,3.8-3c0-1.1-0.4-1.8-1.2-2.3s-1.3-0.6-2.6-1c-0.6-0.2-1.1-0.3-1.5-0.4
				c-3.2-1.1-5.5-1.8-5.7-4.8c0-0.1,0-0.3,0-0.4c0-3,2.7-4.9,6.2-4.9c5.1,0,7.6,2.3,7.6,7h-3c0-1.8-0.4-3-1.2-3.6
				c-0.8-0.7-1.8-0.9-3.3-0.9c-1.9,0-3.3,0.8-3.3,2.2c0,0.5,0.1,1,0.4,1.3c0.3,0.3,0.5,0.5,1.1,0.8s0.7,0.3,1.6,0.6
				c0.4,0.1,0.7,0.2,0.9,0.3c3.6,1.2,5.4,1.5,6.4,3.7c0.2,0.5,0.4,1.1,0.4,1.8c0,3.9-2.4,6.1-6.9,6.1c-2,0-3.8-0.5-4.9-1.3
				c-1.1-0.7-2-1.9-2.4-2.9s-0.7-2.3-0.7-3.2c0-0.3,0-0.6,0-0.9v-0.3H874.2z"/>
		</g>
		<g class="st1">
			<path d="M894.3,795.5c0-5.7,3.5-9.6,8.5-9.6c2.8,0,4.9,1.2,6.1,3.1c1.2,1.9,1.6,4.2,1.6,6.4c0,0.3,0,0.7,0,1.1h-13
				c0.1,2.1,0.7,3.6,1.6,4.5c1,0.9,2.2,1.3,3.6,1.3h0.1c2.4,0,4.2-1.6,4.5-4.3h3.1c-0.1,1.4-0.4,2.7-1.2,4s-1.8,2.1-3.5,2.7
				c-0.8,0.3-1.8,0.4-2.9,0.4C897.5,805.2,894.3,801.2,894.3,795.5z M897.6,793.8h9.8c0-3.4-2-5-4.6-5
				C900,788.7,897.7,790.7,897.6,793.8z"/>
		</g>
		<g class="st1">
			<path d="M337.5,817.9v26.7h-3.1v-26.7H337.5z"/>
		</g>
		<g class="st1">
			<path d="M343.8,820.4c0-1.3,1.2-2.5,2.5-2.5s2.5,1.1,2.5,2.5c0,1.3-1.2,2.5-2.5,2.5S343.8,821.7,343.8,820.4z M347.9,826.5v18.2
				h-3.1v-18.2H347.9z"/>
		</g>
		<g class="st1">
			<path d="M358.3,835.3v9.3h-3.1v-18.1h3.1v3c0.9-2.1,2.9-3.5,5.9-3.5c3.5,0,5.9,2.2,5.9,5.6v13.1H367v-12.5c0-2.2-1.1-3.5-3.3-3.5
				C360.3,828.7,358.3,831.2,358.3,835.3z"/>
		</g>
		<g class="st1">
			<path d="M376.3,835.5c0-5.7,3.5-9.6,8.5-9.6c2.8,0,4.9,1.2,6.1,3.1c1.2,1.9,1.6,4.2,1.6,6.4c0,0.3,0,0.7,0,1.1h-13
				c0.1,2.1,0.7,3.6,1.6,4.5s2.1,1.3,3.6,1.3h0.1c2.4,0,4.2-1.6,4.5-4.3h3.1c-0.1,1.4-0.4,2.7-1.2,4s-1.8,2.1-3.5,2.7
				c-0.8,0.3-1.8,0.4-2.9,0.4C379.5,845.2,376.3,841.2,376.3,835.5z M379.6,833.8h9.8c0-3.4-2-5-4.6-5
				C382,828.7,379.8,830.7,379.6,833.8z"/>
		</g>
		<g class="st1">
			<path d="M401.9,834.6v10H399v-18.1h2.8v4c0.4-1.1,1-2,1.7-2.6s1.4-1,2.2-1.2s1.5-0.3,2.1-0.3h0.2c0.3,0,0.7,0,1,0h0.4v3.2
				c-0.1,0-0.3,0-0.7,0h-0.9c-0.4,0-1.4,0-2,0.1s-1.4,0.3-1.9,0.7c-0.5,0.3-1.2,0.9-1.5,1.5C402.1,832.6,401.9,833.5,401.9,834.6z"
				/>
		</g>
		<g class="st1">
			<path d="M424.4,839v-10h-2.9v-2.5h2.9v-5.3h3.1v5.3h4.3v2.5h-4.3v9.6c0,0.7,0.1,1.3,0.3,1.7c0.1,0.4,0.4,0.8,0.6,1
				c0.3,0.2,0.6,0.4,1,0.4c0.3,0.1,0.7,0.1,1.1,0.1h0.6h1.5v2.8h-1.1c-1.4,0-2.2,0-3.3-0.2c-1.1-0.2-1.7-0.5-2.3-1
				c-0.7-0.6-1-1.3-1.2-2.4C424.5,840.4,424.4,839.8,424.4,839z"/>
		</g>
		<g class="st1">
			<path d="M435.6,835.4c0-5.7,3-9.4,8.3-9.5h0.1c5.3,0,8.3,3.7,8.3,9.5c0,6-3,9.8-8.3,9.8S435.6,841.4,435.6,835.4z M438.7,835.6
				c0,4.5,1.9,6.8,5.1,6.8s5.1-2.2,5.1-6.8s-1.8-6.8-5.1-6.8S438.7,831,438.7,835.6z"/>
		</g>
		<g class="st1">
			<path d="M468.8,839v-10H466v-2.5h2.9v-5.3h3.1v5.3h4.3v2.5H472v9.6c0,0.7,0.1,1.3,0.3,1.7c0.1,0.4,0.4,0.8,0.6,1
				c0.3,0.2,0.6,0.4,1,0.4c0.3,0.1,0.7,0.1,1.1,0.1h0.6h1.5v2.8H476c-1.4,0-2.2,0-3.3-0.2c-1.1-0.2-1.7-0.5-2.3-1
				c-0.7-0.6-1-1.3-1.2-2.4C468.9,840.4,468.8,839.8,468.8,839z"/>
		</g>
		<g class="st1">
			<path d="M484.3,835.3v9.3h-3.1V818h3.1v11.5c0.9-2.1,2.9-3.5,5.9-3.5c3.5,0,5.9,2.2,5.9,5.6v13.1H493v-12.5
				c0-2.2-1.1-3.5-3.3-3.5C486.3,828.7,484.3,831.2,484.3,835.3z"/>
		</g>
		<g class="st1">
			<path d="M502.4,835.5c0-5.7,3.5-9.6,8.5-9.6c2.8,0,4.9,1.2,6.1,3.1c1.2,1.9,1.6,4.2,1.6,6.4c0,0.3,0,0.7,0,1.1h-13
				c0.1,2.1,0.7,3.6,1.6,4.5s2.1,1.3,3.6,1.3h0.1c2.4,0,4.2-1.6,4.5-4.3h3.1c-0.1,1.4-0.4,2.7-1.2,4s-1.8,2.1-3.5,2.7
				c-0.8,0.3-1.8,0.4-2.9,0.4C505.5,845.2,502.4,841.2,502.4,835.5z M505.6,833.8h9.8c0-3.4-2-5-4.6-5
				C508,828.7,505.8,830.7,505.6,833.8z"/>
		</g>
		<g class="st1">
			<path d="M533.9,831.7c0-4.3,1.3-7.9,3.4-10.4s5.1-3.9,8.6-3.9c3,0,5.6,1,7.4,2.7s3,3.8,3.5,6.3c0.2,0.9,0.3,1.8,0.3,2.7
				c0,0.3,0,0.7,0,1.1h-3.5c0-0.3,0-0.5,0-0.7c0-2.2-0.7-4.5-2.1-6.1c-1.4-1.6-3.4-2.5-5.5-2.5c-5,0-8.4,3.9-8.4,10.3
				c0,2.7,0.5,5.1,1.3,6.5s1.9,2.6,2.9,3.2s2.3,0.9,3.1,1c0.4,0.1,0.8,0.1,1.2,0.1c1.6,0,2.9-0.3,4.1-1.2c1.2-0.8,2.1-2.1,2.7-4.1
				c0.3-1,0.5-2.1,0.5-3.4h3.5c-0.1,7.2-4.2,12-10.9,12c-3,0-5.6-0.8-7.2-2s-2.9-3-3.6-4.6c-0.7-1.6-1.1-3.6-1.2-4.9
				C533.9,833,533.9,832.3,533.9,831.7z"/>
		</g>
		<g class="st1">
			<path d="M561.4,840c0-3.3,2.2-5.2,5.3-6c4.3-1,6.2-1.5,6.2-3.1c0-1.2-0.2-1.8-1.2-2.2c-0.5-0.2-1.2-0.3-2.2-0.3
				c-2.9,0-4.4,1.2-4.4,4.5H562v-0.2c0-4.2,2.9-6.8,7.5-6.8c2.5,0,4.2,0.5,5.2,1.5s1.4,2.1,1.4,3.7v13.4H573v-3.2
				c-0.8,2.1-3.1,3.8-6.1,3.8C563.4,845.2,561.4,843,561.4,840z M564.5,839.9c0,1.5,1,2.7,3,2.7s3.9-1.3,4.8-2.9
				c0.4-0.8,0.7-1.5,0.7-2.2v-3c-0.6,0.3-1.1,0.6-1.4,0.7c-0.2,0.1-0.4,0.1-0.6,0.2l-0.5,0.2c-0.1,0-0.3,0.1-0.7,0.2
				s-0.5,0.2-0.7,0.2c-1.4,0.4-2.2,0.7-3.1,1.3C565,837.9,564.5,838.8,564.5,839.9z"/>
		</g>
		<g class="st1">
			<path d="M585.8,834.6v10h-2.9v-18.1h2.8v4c0.4-1.1,1-2,1.7-2.6s1.4-1,2.2-1.2s1.5-0.3,2.1-0.3h0.2c0.3,0,0.7,0,1,0h0.4v3.2
				c-0.1,0-0.3,0-0.7,0h-0.9c-0.4,0-1.4,0-2,0.1s-1.4,0.3-1.9,0.7c-0.5,0.3-1.2,0.9-1.5,1.5C586,832.6,585.8,833.5,585.8,834.6z"/>
		</g>
		<g class="st1">
			<path d="M597.5,820.4c0-1.3,1.2-2.5,2.5-2.5s2.5,1.1,2.5,2.5c0,1.3-1.2,2.5-2.5,2.5S597.5,821.7,597.5,820.4z M601.5,826.5v18.2
				h-3.1v-18.2H601.5z"/>
		</g>
		<g class="st1">
			<path d="M611.9,829.4c0.7-2,2.8-3.4,5.5-3.4c4.6,0,7.5,3.8,7.5,9.7c0,5.5-2.9,9.4-7.3,9.4c-1.1,0-2.1-0.2-2.9-0.5
				c-1.6-0.7-2.3-1.6-2.8-3v2.9h-3.1V818h3.1V829.4z M617,842.5c2.9,0,4.7-2.3,4.7-6.6c0-4.6-1.8-7.3-4.7-7.3
				c-3.1,0-5.1,2.7-5.1,6.9C611.9,839.9,613.8,842.5,617,842.5z"/>
		</g>
		<g class="st1">
			<path d="M634.4,829.4c0.7-2,2.8-3.4,5.5-3.4c4.6,0,7.5,3.8,7.5,9.7c0,5.5-2.9,9.4-7.3,9.4c-1.1,0-2.1-0.2-2.9-0.5
				c-1.6-0.7-2.3-1.6-2.8-3v2.9h-3.1V818h3.1V829.4z M639.4,842.5c2.9,0,4.7-2.3,4.7-6.6c0-4.6-1.8-7.3-4.7-7.3
				c-3.1,0-5.1,2.7-5.1,6.9C634.3,839.9,636.2,842.5,639.4,842.5z"/>
		</g>
		<g class="st1">
			<path d="M652.7,835.5c0-5.7,3.5-9.6,8.5-9.6c2.8,0,4.9,1.2,6.1,3.1c1.2,1.9,1.6,4.2,1.6,6.4c0,0.3,0,0.7,0,1.1h-13
				c0.1,2.1,0.7,3.6,1.6,4.5s2.2,1.3,3.6,1.3h0.1c2.4,0,4.2-1.6,4.5-4.3h3.1c-0.1,1.4-0.4,2.7-1.2,4s-1.8,2.1-3.5,2.7
				c-0.8,0.3-1.8,0.4-2.9,0.4C655.8,845.2,652.7,841.2,652.7,835.5z M655.9,833.8h9.8c0-3.4-2-5-4.6-5
				C658.3,828.7,656.1,830.7,655.9,833.8z"/>
		</g>
		<g class="st1">
			<path d="M673.7,840c0-3.3,2.2-5.2,5.3-6c4.3-1,6.2-1.5,6.2-3.1c0-1.2-0.2-1.8-1.2-2.2c-0.5-0.2-1.2-0.3-2.2-0.3
				c-2.9,0-4.4,1.2-4.4,4.5h-3.1v-0.2c0-4.2,2.9-6.8,7.5-6.8c2.5,0,4.2,0.5,5.2,1.5s1.4,2.1,1.4,3.7v13.4h-3.1v-3.2
				c-0.8,2.1-3.1,3.8-6.1,3.8C675.7,845.2,673.7,843,673.7,840z M676.8,839.9c0,1.5,1,2.7,3,2.7s3.9-1.3,4.8-2.9
				c0.4-0.8,0.7-1.5,0.7-2.2v-3c-0.6,0.3-1.1,0.6-1.4,0.7c-0.2,0.1-0.4,0.1-0.6,0.2l-0.5,0.2c-0.1,0-0.3,0.1-0.7,0.2
				s-0.5,0.2-0.7,0.2c-1.4,0.4-2.2,0.7-3.1,1.3C677.3,837.9,676.8,838.8,676.8,839.9z"/>
		</g>
		<g class="st1">
			<path d="M698.3,835.3v9.3h-3.1v-18.1h3.1v3c0.9-2.1,2.9-3.5,5.9-3.5c3.5,0,5.9,2.2,5.9,5.6v13.1H707v-12.5c0-2.2-1.1-3.5-3.3-3.5
				C700.3,828.7,698.3,831.2,698.3,835.3z"/>
		</g>
		<g class="st1">
			<path d="M737.8,844.6h-10.9v-3h3.8V821h-3.8v-3h10.9v3H734v20.6h3.8V844.6z"/>
		</g>
		<g class="st1">
			<path d="M742.7,836.6h3c0,4,1.7,6.1,5.2,6.1c2.1,0,3.8-1.2,3.8-3c0-1.1-0.4-1.8-1.2-2.3s-1.3-0.6-2.6-1c-0.6-0.2-1.1-0.3-1.5-0.4
				c-3.2-1.1-5.5-1.8-5.7-4.8c0-0.1,0-0.3,0-0.4c0-3,2.7-4.9,6.2-4.9c5.1,0,7.6,2.3,7.6,7h-3c0-1.8-0.4-3-1.2-3.6
				c-0.8-0.7-1.8-0.9-3.3-0.9c-1.9,0-3.3,0.8-3.3,2.2c0,0.5,0.1,1,0.4,1.3c0.3,0.3,0.5,0.5,1.1,0.8s0.7,0.3,1.6,0.6
				c0.4,0.1,0.7,0.2,0.9,0.3c3.6,1.2,5.4,1.5,6.5,3.7c0.2,0.5,0.4,1.1,0.4,1.8c0,3.9-2.4,6.1-6.9,6.1c-2,0-3.8-0.5-4.9-1.3
				c-1.1-0.7-2-1.9-2.4-2.9s-0.7-2.3-0.7-3.2c0-0.3,0-0.6,0-0.9L742.7,836.6L742.7,836.6z"/>
		</g>
		<g class="st1">
			<path d="M767.1,817.9v26.7H764v-26.7H767.1z"/>
		</g>
		<g class="st1">
			<path d="M773,840c0-3.3,2.2-5.2,5.3-6c4.3-1,6.2-1.5,6.2-3.1c0-1.2-0.2-1.8-1.2-2.2c-0.5-0.2-1.2-0.3-2.2-0.3
				c-2.9,0-4.4,1.2-4.4,4.5h-3.1v-0.2c0-4.2,2.9-6.8,7.5-6.8c2.5,0,4.2,0.5,5.2,1.5s1.4,2.1,1.4,3.7v13.4h-3.1v-3.2
				c-0.8,2.1-3.1,3.8-6.1,3.8C775,845.2,773,843,773,840z M776.1,839.9c0,1.5,1,2.7,3,2.7s3.9-1.3,4.8-2.9c0.4-0.8,0.7-1.5,0.7-2.2
				v-3c-0.6,0.3-1.1,0.6-1.4,0.7c-0.2,0.1-0.4,0.1-0.6,0.2l-0.5,0.2c-0.1,0-0.3,0.1-0.7,0.2c-0.3,0.1-0.5,0.2-0.7,0.2
				c-1.4,0.4-2.2,0.7-3.1,1.3C776.6,837.9,776.1,838.8,776.1,839.9z"/>
		</g>
		<g class="st1">
			<path d="M797.6,835.3v9.3h-3.1v-18.1h3.1v3c0.9-2.1,2.9-3.5,5.9-3.5c3.5,0,5.9,2.2,5.9,5.6v13.1h-3.1v-12.5
				c0-2.2-1.1-3.5-3.3-3.5C799.6,828.7,797.6,831.2,797.6,835.3z"/>
		</g>
		<g class="st1">
			<path d="M823.2,826c2.7,0,4.8,1.5,5.5,3.4V818h3.1v26.6h-3.1v-3c-0.9,2.2-2.4,3.5-5.7,3.5c-4.4,0-7.3-3.9-7.3-9.4
				C815.7,829.8,818.6,826,823.2,826z M823.6,842.5c3.2,0,5.1-2.7,5.1-7.1c0-4.2-2-6.9-5.1-6.9c-3,0-4.7,2.8-4.7,7.3
				C818.9,840.2,820.7,842.5,823.6,842.5z"/>
		</g>
		<g class="st1">
			<path d="M837.9,836.6h3c0,4,1.7,6.1,5.2,6.1c2.1,0,3.8-1.2,3.8-3c0-1.1-0.4-1.8-1.2-2.3s-1.3-0.6-2.6-1c-0.6-0.2-1.1-0.3-1.5-0.4
				c-3.2-1.1-5.5-1.8-5.7-4.8c0-0.1,0-0.3,0-0.4c0-3,2.7-4.9,6.2-4.9c5.1,0,7.6,2.3,7.6,7h-3c0-1.8-0.4-3-1.2-3.6
				c-0.8-0.7-1.8-0.9-3.3-0.9c-1.9,0-3.3,0.8-3.3,2.2c0,0.5,0.1,1,0.4,1.3c0.3,0.3,0.5,0.5,1.1,0.8s0.7,0.3,1.6,0.6
				c0.4,0.1,0.7,0.2,0.9,0.3c3.6,1.2,5.4,1.5,6.5,3.7c0.2,0.5,0.4,1.1,0.4,1.8c0,3.9-2.4,6.1-6.9,6.1c-2,0-3.8-0.5-4.9-1.3
				c-1.1-0.7-2-1.9-2.4-2.9s-0.7-2.3-0.7-3.2c0-0.3,0-0.6,0-0.9L837.9,836.6L837.9,836.6z"/>
		</g>
		<g class="st1">
			<path d="M858.5,842.3c0-1.2,1.1-2.3,2.3-2.3c1.3,0,2.3,1,2.3,2.3c0,1.2-1,2.3-2.3,2.3S858.5,843.6,858.5,842.3z"/>
		</g>
		<g class="st1">
			<path d="M347.9,898.1c0-5.9,2.2-10.5,6.2-13c2-1.3,4.4-1.9,7.1-1.9c2.3,0,4.5,0.6,6.4,1.7c1.9,1.2,3.4,2.8,4.1,5.2
				c0.3,1,0.4,2,0.4,3c0,0.3,0,0.5,0,0.8h-3.8v-0.3c0-3.8-3-6.8-7.1-6.8c-5.8,0-9.5,4.2-9.5,11.3s3.7,11.5,9.5,11.5
				c3.1,0,6.5-1.3,8.4-3.3c1-1,1.5-2.1,1.5-3.2v-3.3h-13v-3.3h16.6v16.2H371v-5.2c-1.3,3.5-5.2,5.8-10,5.8c-3.9,0-7.2-1.4-9.5-4
				S347.9,902.8,347.9,898.1z"/>
		</g>
		<g class="st1">
			<path d="M381,902.6c0-6.2,3.2-10.2,8.9-10.2h0.1c5.7,0,8.9,4,8.9,10.2c0,6.5-3.2,10.6-9,10.6S381,909.1,381,902.6z M384.4,902.8
				c0,4.9,2,7.3,5.5,7.3s5.5-2.4,5.5-7.3c0-5-2-7.4-5.5-7.4S384.4,897.9,384.4,902.8z"/>
		</g>
		<g class="st1">
			<path d="M435.6,912.6h-10.7v-28.8h10.5c5.1,0,8.5,3,8.5,6.9c0,1.7-0.5,3.2-1.1,4s-1.7,1.5-2.3,1.8c-0.3,0.1-0.7,0.3-1.1,0.4
				c2,0.5,3.5,1.5,4.4,2.9c0.8,1.3,1.2,2.9,1.2,4.6c0,3.4-1.8,6-4.6,7.3C438.9,912.3,437.4,912.6,435.6,912.6z M434.8,887h-6.3v8.5
				h5.6c4,0,6.1-1.6,6.1-4.5C440.2,888.4,438.3,887,434.8,887z M434.8,898.8h-6.4v10.5h6c4.3,0,6.8-1.9,6.8-5.1
				C441.3,900.7,439,898.8,434.8,898.8z"/>
		</g>
		<g class="st1">
			<path d="M455.4,905.6l-2.2,7h-3.8l9.1-28.8h6.9l9.1,28.8h-3.8l-2.2-7H455.4z M467.5,902.2l-5.5-17.4l-5.5,17.4H467.5z"/>
		</g>
		<g class="st1">
			<path d="M478.4,898.6c0-4.6,1.4-8.6,3.6-11.2s5.5-4.2,9.3-4.2c3.2,0,6,1.1,7.9,2.9s3.3,4.1,3.8,6.8c0.2,1,0.3,1.9,0.3,2.9
				c0,0.4,0,0.8,0,1.2h-3.8c0-0.3,0-0.5,0-0.8c0-2.4-0.7-4.9-2.3-6.6c-1.5-1.7-3.7-2.7-5.9-2.7c-5.4,0-9.1,4.3-9.1,11.1
				c0,3,0.6,5.5,1.4,7.1s2.1,2.8,3.2,3.5s2.5,1,3.4,1.1c0.4,0.1,0.8,0.1,1.3,0.1c1.7,0,3.1-0.3,4.5-1.3c1.3-0.9,2.3-2.3,2.9-4.4
				c0.3-1.1,0.5-2.3,0.5-3.7h3.8c-0.1,7.8-4.6,12.9-11.8,12.9c-3.3,0-6-0.9-7.8-2.2s-3.2-3.2-3.9-5c-0.7-1.7-1.2-3.9-1.3-5.4
				C478.4,900,478.4,899.3,478.4,898.6z"/>
		</g>
		<g class="st1">
			<path d="M513.4,902.7v9.9h-3.6v-28.8h3.6v13.5l12.9-13.5h4.8l-11.6,12.4l12.1,16.4h-4.5L517,898.9L513.4,902.7z"/>
		</g>
		<g class="st1">
			<path d="M556.7,912.6v-25.5h-9.5v-3.3h22.6v3.3h-9.5v25.5H556.7z"/>
		</g>
		<g class="st1">
			<path d="M573.6,898.1c0-9.2,5-14.9,13.2-14.9c8.1,0,13.1,5.6,13.1,14.9c0,9.5-4.8,15.1-13.1,15.1S573.6,907.6,573.6,898.1z
				 M577.4,898.4c0,6.8,3.8,11.2,9.4,11.2c5.6-0.1,9.4-4.4,9.4-11.2c0-7.2-3.5-11.5-9.4-11.6C580.9,886.9,577.4,891.2,577.4,898.4z"
				/>
		</g>
		<g class="st1">
			<path d="M625.8,912.6v-25.5h-9.5v-3.3H639v3.3h-9.5v25.5H625.8z"/>
		</g>
		<g class="st1">
			<path d="M648.6,899.4v13.2H645v-28.8h3.6v12.4H667v-12.4h3.6v28.8H667v-13.2H648.6z"/>
		</g>
		<g class="st1">
			<path d="M696.1,909.3v3.3h-17.6v-28.8h17.6v3.3h-14v9h14v3.3h-14v10L696.1,909.3L696.1,909.3z"/>
		</g>
		<g class="st1">
			<path d="M713.1,900.3h3.6c0.2,6.6,2.5,9.5,8.3,9.5c2.5,0,4.2-0.6,5.1-1.6c0.9-1,1.2-2.1,1.2-3.4c0-2.9-1.7-4.5-6.4-5.6
				c-6.8-1.6-10.1-4.2-10.1-8.6c0-4.5,3.6-7.4,9.6-7.4c7,0,10.5,3.5,10.5,10.4c0,0.3,0,0.5,0,0.8h-3.6v-0.3c0-1.8-0.3-3.4-0.7-4.5
				s-1.3-1.9-2.1-2.3c-0.8-0.4-2-0.6-2.9-0.7c-0.4,0-1,0-1.6,0c-3.5,0-5.6,1.6-5.6,4c0,1,0.4,1.9,1.2,2.5s1.6,1.1,2.8,1.5
				s1.9,0.6,3.1,0.9c0.1,0,0.1,0,0.1,0l0.3,0.1c2,0.4,3.4,0.9,5.1,1.8c1.7,1,2.7,2.1,3.5,3.9c0.4,0.9,0.5,2,0.5,3.1
				c0,2-0.3,3.6-1.3,5.2c-1,1.6-2.5,2.6-5,3.2c-1.3,0.3-2.7,0.5-4.4,0.5c-3.3,0-6-0.9-7.7-2.5c-1.7-1.5-2.8-3.8-3.2-6.4
				c-0.2-1-0.2-2-0.2-3.1C713.1,901,713.1,900.6,713.1,900.3z"/>
		</g>
		<g class="st1">
			<path d="M749.2,912.6v-25.5h-9.5v-3.3h22.6v3.3h-9.5v25.5H749.2z"/>
		</g>
		<g class="st1">
			<path d="M769.6,905.6l-2.2,7h-3.8l9.1-28.8h6.9l9.1,28.8H785l-2.2-7H769.6z M781.7,902.2l-5.5-17.4l-5.5,17.4H781.7z"/>
		</g>
		<g class="st1">
			<path d="M798.6,900v12.6H795v-28.8h10.5c5.5,0,8.9,3.5,8.9,8.5c0,2.9-1.3,5.4-3.4,6c1.9,0.4,3.4,2.3,3.4,4.8v9.5h-3.6v-9.3
				c0-1.3-0.7-2.2-1.9-2.7s-2.5-0.7-4.4-0.7h-5.9V900z M804.6,887.1h-6.1v9.6h6.6c4.4,0,5.6-1.2,5.6-4.4
				C810.7,888.3,809.1,887.1,804.6,887.1z"/>
		</g>
		<g class="st1">
			<path d="M828.7,912.6v-25.5h-9.5v-3.3h22.6v3.3h-9.5v25.5H828.7z"/>
		</g>
		<g class="st1">
			<path d="M843.2,910.2c0-1.3,1.2-2.5,2.5-2.5c1.4,0,2.5,1.1,2.5,2.5c0,1.3-1.1,2.5-2.5,2.5C844.3,912.6,843.2,911.5,843.2,910.2z"
				/>
		</g>
	</g>
</g>
</svg>
