<?xml version="1.0" encoding="utf-8"?>
<!-- Generator: Adobe Illustrator 22.1.0, SVG Export Plug-In . SVG Version: 6.00 Build 0)  -->
<svg version="1.1" id="Layer_1" xmlns="http://www.w3.org/2000/svg" xmlns:xlink="http://www.w3.org/1999/xlink" x="0px" y="0px"
	 viewBox="0 0 1189 946.5" style="enable-background:new 0 0 1189 946.5;" xml:space="preserve">
<style type="text/css">
	.st0{fill:#FFFFFF;}
	.st1{enable-background:new    ;}
</style>
<metadata><?xpacket begin="﻿" id="W5M0MpCehiHzreSzNTczkc9d"?>
<x:xmpmeta xmlns:x="adobe:ns:meta/" x:xmptk="Adobe XMP Core 5.6-c143 79.161356, 2017/09/07-01:11:22        ">
   <rdf:RDF xmlns:rdf="http://www.w3.org/1999/02/22-rdf-syntax-ns#">
      <rdf:Description rdf:about=""
            xmlns:xmpMM="http://ns.adobe.com/xap/1.0/mm/"
            xmlns:stEvt="http://ns.adobe.com/xap/1.0/sType/ResourceEvent#"
            xmlns:stMfs="http://ns.adobe.com/xap/1.0/sType/ManifestItem#"
            xmlns:stRef="http://ns.adobe.com/xap/1.0/sType/ResourceRef#"
            xmlns:xmp="http://ns.adobe.com/xap/1.0/"
            xmlns:xmpGImg="http://ns.adobe.com/xap/1.0/g/img/"
            xmlns:xmpTPg="http://ns.adobe.com/xap/1.0/t/pg/"
            xmlns:stDim="http://ns.adobe.com/xap/1.0/sType/Dimensions#"
            xmlns:xmpG="http://ns.adobe.com/xap/1.0/g/"
            xmlns:dc="http://purl.org/dc/elements/1.1/">
         <xmpMM:DerivedFrom rdf:parseType="Resource"/>
         <xmpMM:DocumentID>xmp.did:779df87f-1f31-e747-ae08-aaad01d954a7</xmpMM:DocumentID>
         <xmpMM:InstanceID>xmp.iid:779df87f-1f31-e747-ae08-aaad01d954a7</xmpMM:InstanceID>
         <xmpMM:OriginalDocumentID>xmp.did:779df87f-1f31-e747-ae08-aaad01d954a7</xmpMM:OriginalDocumentID>
         <xmpMM:History>
            <rdf:Seq>
               <rdf:li rdf:parseType="Resource">
                  <stEvt:action>saved</stEvt:action>
                  <stEvt:instanceID>xmp.iid:779df87f-1f31-e747-ae08-aaad01d954a7</stEvt:instanceID>
                  <stEvt:when>2018-08-20T11:28:22+02:00</stEvt:when>
                  <stEvt:softwareAgent>Adobe Illustrator CC 22.1 (Windows)</stEvt:softwareAgent>
                  <stEvt:changed>/</stEvt:changed>
               </rdf:li>
            </rdf:Seq>
         </xmpMM:History>
         <xmpMM:Manifest>
            <rdf:Seq>
               <rdf:li rdf:parseType="Resource">
                  <stMfs:linkForm>EmbedByReference</stMfs:linkForm>
                  <stMfs:reference rdf:parseType="Resource">
                     <stRef:filePath>C:\Users\Juanin\Documents\Jorge_2018\01_CHAMBA\06_Backseat\Reeperbahn Fest 2018\01 wip\Artwork_Finales\e4_backseat_02.png</stRef:filePath>
                     <stRef:documentID>0</stRef:documentID>
                     <stRef:instanceID>0</stRef:instanceID>
                  </stMfs:reference>
               </rdf:li>
            </rdf:Seq>
         </xmpMM:Manifest>
         <xmpMM:Ingredients>
            <rdf:Bag>
               <rdf:li rdf:parseType="Resource">
                  <stRef:filePath>C:\Users\Juanin\Documents\Jorge_2018\01_CHAMBA\06_Backseat\Reeperbahn Fest 2018\01 wip\Artwork_Finales\e4_backseat_02.png</stRef:filePath>
                  <stRef:documentID>0</stRef:documentID>
                  <stRef:instanceID>0</stRef:instanceID>
               </rdf:li>
            </rdf:Bag>
         </xmpMM:Ingredients>
         <xmp:CreatorTool>Adobe Illustrator CC 22.1 (Windows)</xmp:CreatorTool>
         <xmp:CreateDate>2018-08-20T11:28:22+02:00</xmp:CreateDate>
         <xmp:Thumbnails>
            <rdf:Alt>
               <rdf:li rdf:parseType="Resource">
                  <xmpGImg:width>256</xmpGImg:width>
                  <xmpGImg:height>204</xmpGImg:height>
                  <xmpGImg:format>JPEG</xmpGImg:format>
                  <xmpGImg:image>/9j/4AAQSkZJRgABAgEASABIAAD/7QAsUGhvdG9zaG9wIDMuMAA4QklNA+0AAAAAABAASAAAAAEA&#xA;AQBIAAAAAQAB/+4ADkFkb2JlAGTAAAAAAf/bAIQABgQEBAUEBgUFBgkGBQYJCwgGBggLDAoKCwoK&#xA;DBAMDAwMDAwQDA4PEA8ODBMTFBQTExwbGxscHx8fHx8fHx8fHwEHBwcNDA0YEBAYGhURFRofHx8f&#xA;Hx8fHx8fHx8fHx8fHx8fHx8fHx8fHx8fHx8fHx8fHx8fHx8fHx8fHx8fHx8f/8AAEQgAzAEAAwER&#xA;AAIRAQMRAf/EAaIAAAAHAQEBAQEAAAAAAAAAAAQFAwIGAQAHCAkKCwEAAgIDAQEBAQEAAAAAAAAA&#xA;AQACAwQFBgcICQoLEAACAQMDAgQCBgcDBAIGAnMBAgMRBAAFIRIxQVEGE2EicYEUMpGhBxWxQiPB&#xA;UtHhMxZi8CRygvElQzRTkqKyY3PCNUQnk6OzNhdUZHTD0uIIJoMJChgZhJRFRqS0VtNVKBry4/PE&#xA;1OT0ZXWFlaW1xdXl9WZ2hpamtsbW5vY3R1dnd4eXp7fH1+f3OEhYaHiImKi4yNjo+Ck5SVlpeYmZ&#xA;qbnJ2en5KjpKWmp6ipqqusra6voRAAICAQIDBQUEBQYECAMDbQEAAhEDBCESMUEFURNhIgZxgZEy&#xA;obHwFMHR4SNCFVJicvEzJDRDghaSUyWiY7LCB3PSNeJEgxdUkwgJChgZJjZFGidkdFU38qOzwygp&#xA;0+PzhJSktMTU5PRldYWVpbXF1eX1RlZmdoaWprbG1ub2R1dnd4eXp7fH1+f3OEhYaHiImKi4yNjo&#xA;+DlJWWl5iZmpucnZ6fkqOkpaanqKmqq6ytrq+v/aAAwDAQACEQMRAD8A9U4q7FXYq7FXYq7FXYqg&#xA;Nd17RtB0ybVNYu47Kwgp6k8poKnZVUCrMzHZVUEk7DFWLJ5683aqA3lzybdtbOD6d/rc0elQnwPo&#xA;0uLyn+tAuKpPres+dLOjeZfPflzyeg+Jra3iWaYr4Ce/mjUnw/0b6MVUdE1i48wLdR+SPzPbX9b0&#xA;5RK9ne2+myWMm9As31O0tZ1Rz8POOWo60PTFUl88eZ/JXlh0T80vOV5f6zOgkby9o0tzZWsSncAQ&#xA;WTpMV8GuZjy6gdsVYhF+f3/ONkQSBdC1Uxqu0jR8+m1CzXRcn3OKrJfzw/5xdmkMkvlu8kkb7Tva&#xA;qxNBTcm4xVmPkmf8s/Pui6pqf5are+Xda0UD0LlWkt1WZ1Z4/VtxLJBPE5jo6up28DQ4qy3SPNnn&#xA;zzVoVrqNpYx+UdNkt0mvNU1ZOdxXgGk+r2ZZVSMGoWWdx4+mw3xV5h5t/ND/AJx80i5ZNb1XVfzA&#xA;1OIkSfv5Lm2qewiV7TTaf8Y4z9+KsVj/AD//AOcdvU9N/wArbdbcGqyrZaeZPbai/wDE8VZb5f8A&#xA;zT/IXWLhB5f8yat5A1JyDGryvFaEjoJIJmvNO4+NQvzxV6nDrP5o6fbwvHYad51sZuPo6np1wumz&#xA;Fe7vBMZ4H/1o5xX+UYqmk/mDz1HCzp5TEzDpEmowBj8uaov3nFUMPPXmeCp1HyJrEUYArLay6bdr&#xA;03+CO7Ex+iOvtiq+y/NfyRNew2F5eS6LqM+0NlrNvPpsjmtOMZu0iSQnt6bNirL8VdirsVdirsVd&#xA;irsVdirsVdirsVdirsVY75g8/eWNCu10+5uHutYkXnFo9hFJeXrL/N9XgWR1X/LcBffFUtbzr50l&#xA;PKx8hak0HUPd3em2zsPaMXEzD/Z8f6KovSPzB0+5v20vWLG68uausL3IstTESrLDEAZZILiCSa3l&#xA;EYYFwsnJRuwGKvOvNX5gaX5c8sn81vMsP16+vXKeRdDkPFYIJQfRlCnlxmniHrTS05KhEY/ylXiv&#xA;6Z/5yN/NS2bURrB0nSLwyCws45jp0NwqGjpAkQMs0aH4TJISoOxaoNFXk/m/yL5j8tC2udUMFxbX&#xA;5kEN/aXEV3C80VPWjMsTMPUjLjkD8xUb4q91/wCcQwugeX/Pfnm9WmnadaoiuTTmbdJLiZB7gen/&#xA;AMFir521/XdT1/Wr3WtUmNxqGoTNPcynuzmtB4KOijsNsVS/FW1VmYKoLMxoqjcknFX2R+Tw0/8A&#xA;I/8AJu68wedv9E1DWbn6zDpykG6dfTVYLcISP3mzO1T8IPxUocVfPv5rfnt52/MS6kjvZzYaCGrb&#xA;6JbMRCADVWmOxmf3bYH7IXFXnGKuxV2Ksw8g/m1598iXIk8vanJDbFuU2nS/vbSTx5QtsCf5lo3v&#xA;ir6t8ofmla/nd5Xn0rStWu/J3nrT1+sKtrM3Bivw8wNvWgLEc0Ycl/EqvB9W/PD/AJyG8j+YrvQt&#xA;X12X69YSGOe3uobedGHVWV2j5FGBDKwPTFXoP5e/85WW/me9i8rfmZpFhLpepkW5v0jPoB3NE+sw&#xA;SmVeBPVwRx607hV7n5PNx5U8xP5EupXm0mWB73ylczuZJBbxsFuLB3Y8nNq0imMnf0mA34HFWd4q&#xA;7FXYq7FXYq7FXYq7FXYq7FVG8vLSytJry8njtrS3QyT3ErBI0RRVmZmoAAO5xV55qWv615osptQi&#xA;1BvKH5fQIZJ9flIt7+9iH7dv6o/0S3btK49Rv2FUENirxXzN/wA5SeVPKUM2h/lTocLx8mM+tXok&#xA;pNKTQy8SRPOxH+7JnB8QRirynUv+ckPzqv5zNJ5nng3PGO2jhgQA9qRotaf5VTir6j8iWcn5y/kl&#xA;oNx5tcm/NyXmvYl9JpVtbl4JgPT9Pj9YtucMnHb4m27Yql35ueZbO38wWZW1sbqCxthdFruOGWBb&#xA;FhIfQjZxOkf1hbZi5RVZg0SnZTVV56bd9UsYNQvZov09eLJqCT3Ck0JIWa5khIesUUkXpRQ06Bm4&#xA;gcVCqD0LzbM+l6k2izTI9utw8qNbsyTwRDkEWC2kW1Kekw+svPFw+z1Z91UZp3mzTfMPkDV/KKpB&#xA;5b03VozcyDSLMNIZUmjeYiA3UacX4BDxC0H/ABWG4qvEPO/5aeY/J/pTXzW97ptw5it9UsJRNbvI&#xA;qq5Q1CSRvxcHjIikjcVG+KsVjjeSRY41LyOQqIoqSTsAAO+KvffJujX35d6VcuzrHqkSQ3Xma80y&#xA;QfpK0hneJINP5yDhEUcmWYICXZeDfCnxqsq1S98x213Yaho97Loi33DTLTR7aeWS0SVbZY2l4ksl&#xA;IwnODuNm2dfjVYfq3nvTfMXlu3v9esItdmhjiW5i1pqzurMEDWV/bGC6jZZGflEwMfAc6Fg3JV5X&#xA;5/8AKcvlrXhAI2j0/UII9S0nm4lb6nc1aJXkCorSR0MchUU5q1NsVY1irsVdiqa+V/Mur+WPMFjr&#xA;2jzGDUdPlEsDjoabMjDurqSrDuDTFX03+fmhaR+Z/wCUulfmv5ehA1GwgH6SiSjP9W5cZopKdWtZ&#xA;akH+UsfDFXyfir7T/LLzlf8Anf8AI+11aCtx5w8hzLNEtT6k7WUZIQ9/9Ls3eBj3Yk4q9F0/8yL3&#xA;zXZrceQ9OF9ZPGHbXdSZ7TT0YgFkQBXnuHTcMEUICOJkBriqXR+ZvMi3JV/zD8ovcEhP0f8AU2AD&#xA;VoVVhqnqV+an5Yqm03nbzNoEYn82aIr6UByk17RHe9gjTr6lxasiXMa03LRiVR3IxVONR8/eTdP0&#xA;+x1C51aA2upjlpzQE3D3CgVLQRwiR5AoO5VTTviqlpn5keQtSn+rWmv2RvK0NlLMsNyD0oYJSko+&#xA;lcVZJirsVdirsVUb29tLGznvbyZLe0to2muLiRgqRxoCzOzHYBQKk4q8r1vzDpd/pD+fPPbtp3kO&#xA;xpLoegTCkl64NYbm7hNPUdyK29udlHxv8X2FXyd+cX54+Z/zJ1MidmsfL0D1sNGRqoKbCSYinqSe&#xA;52XoveqrzbFV8UUksiRRKXkkYKiKKksTQAD3xV97eZ9QT8n/APnHtIYWEepadp0VjaFT9rUbkcXk&#xA;Xx4yu8tPAYq+cYrq88x/l59c0CWO8XR7K3t9dsb2aOOe2mSNII51MxRZoZPRHpBG5qfgoRy9RVl1&#xA;rpP5l6raR2155S1az1WzhSBBBboscvr2i2Moa5mJVEaOMSclrwdmbqoqqzKy/I38wrCzeWG407T7&#xA;KzSNYNJsI52mkhtHknAEk0lwfVmmuJGqWNGEbCnEKqrybWdWttD1yDQtQ0FYTZrDLcTCOa3uuRUH&#xA;mVkdp4W5GgkSVV707YqyS6v7HUk0231Robzy15mhvItRjlEYaO4sj6sTRyxCPjcH1AYZGBLtKWYE&#xA;SGNVXjf5cS6pplzc+YNNtI7q8tHhsbN3FXt7i9EhS4hBqnqqlu6xllYKzBqVAxV6JoWo6ldrqWkI&#xA;ttNaQ2dyy6gkbI91M4W9t7i5J/vJJI4FdutOVPYKp7PP9StNEMC8oLXVbi5cdSY9PtiLilO7eqo+&#xA;eKsI8q+S57zytc6nq3qW0Olvb2VvaChlvJ2eSWaKMb/3VrOZGamy0xVPvzF8p6jYfl/r/l7WJXku&#xA;vJdzZXelSGKQ/wCiXzCCZeXpcYlknm5isnxsrUFFrirwXFXYq7FXYq+lP+cOvOdu9/rP5earxl07&#xA;WYZLq0gk+y0qp6dzFTv6kHxfJDirxD8yPJ0/k3zzrPluXkV0+4ZbeRurwOBJA5/1omU4q9a/5w18&#xA;2nTPzFu/L8rkW+v2jCNK7G5tKyoaf8YvVxVGf85YfmNqNvr8f5baG403y5o9tAt1Z2v7tZXkiDxx&#xA;sEp+6jiZOKdK7ntRV86Yqz/8sfzt88/l9fRtpt491pHL/SdFuGZrZ1J+LgDX0n/y0+mo2xV9oflN&#xA;Yfl9q/r/AJh+Uo/SXzBAkc1ofs2sySPJcqqVIieWR1Mqp8LFQ/epVeLj/nLLy/fyzaJ+ZHkmC9S2&#xA;leK4a39K7jDoxVqW12oGxHX1cVZ35E1v8rfMbiD8rPNdx5a1kAumhymWS1em5U6ddloivEb/AFR0&#xA;IH7WKvSfJ/m6/wBQvbzQPMNomm+adNRJLm3iYvb3Nu5Kpd2btRmiZgVYMOSN8LdiVWU4q7FXnvme&#xA;W281+Y5tGu5ETyb5X4XvmiST+5ubpVE8Fk5PwmOBONxOK/77UihbFXx3+fH5x335j+aWeBnh8tac&#xA;zR6PaGoqvRriQf78kp/sVoPElV5jirsVew/84x/llfebvzDstVmgJ0Hy/Ml5ezsPgaaP44IRXZi0&#xA;gDMP5QfEYqzr/nNbzp9Y1nRfJ9vJWKxjOo3yDp601Y4Vb3SMMfk+KpF/zirq0RuNY0S8ileya70i&#xA;+jdTyQTrfx2qxtE1ARJ9aDFgQR6daNSmKvtbFXYq+ef+ckdG/wCdi03UZo2itJ4PTF6ilYlmh5t+&#xA;/ZjJEfgYgB46MpKb15RKvGTbaleSBW0yW3W5njKzRu00pJkQzK6yF2SSnxIpNfTFHYlC2KqX5eAa&#xA;T+UnmLzBMgV5fMOjrpzhXHGawMtxKw402EMjjf8AXTFV3lDT7uDVtP0+WVLfVReGz9EsKH1qwOtd&#xA;xxHoiNSdiRTFXpWj/l55p1HQNLhOkag9nLpv1XUtWt5LW1nha4u3up4oIr6W39V5B6cXq/3fFiVL&#xA;FQCq9Q0bTJPKnkuyHkfRzpEF1E9zq19qcVxqN5AyMqFWtrQyTXExZyVVGEYAY991WJ/85C+WNYu/&#xA;IsWovcm5WSyuYdZvfqyWk0sNva/pC2EsRHMKt3abLsU5nwJxV8y3n5K/mNaeQ4vPU+l8fL8qJMJB&#xA;IhlFvLxEc7RA8/TfmKHrTcjjvirBsVdirsVT7yF5on8q+c9G8xQlq6ZdxTyKuxeINSWP/Zxll+nF&#xA;XvH/ADmn5XgTWfL/AJwswGh1S3azuJEHwl4KSQuT3LxykD2TFXg/kLzNJ5X86aL5hStNNvIp5VXq&#xA;0SsPVT/ZRllxV67/AM5kaHBbfmPYa5bMHg1zTopGcGoaSBjHyB6U9L08VeCYq7FXvf8AziJ+Y1xo&#xA;Xno+VLqX/cR5iqsaN9mO9jWsTjw9RVMZ8Tx8MVYJ+fvl9tC/ODzRZ8OEc1417EBsvC8AuRx9h6tP&#xA;oxViXlu01S616xi0qVre/EolhulLj0PS/eNOzIGZVhVTIzAbAE4q+7PM+pajZ2nlbWJVkuPNukUk&#xA;CCEQT6pYtwi1NIbYPIeTRstysNfU5Riqjpir1OKWOWNJYnEkcgDI6kFWUioII6g4qlPnHzFH5b8r&#xA;6nrjxmc2MDSQ26/almPwwxL7ySMqD54q+cv+ch9euvIf5UaR5EjujL5h8yNJeeZLwGrylm9W7Yts&#xA;aTXD8V/4rUr0xV8oYqyf8uPNekeVfNdtrGr6Fb+YrCJWWTTbrjwJYbOvNZF5IdxVT/HFXv1r+cH/&#xA;ADidq0kcepeRf0Wz09SUadbLEp6dbST1CPlHir6E0CO2s/0JF5NsNNg8jXFtLdz3lrxQVKp9XEUc&#xA;fBf3nIs0h5bKQaEg4q+APzS82N5t/MLXvMPItDe3b/VSev1eP91APoiRcVej/wDOOetTaZpmuzaY&#xA;0P6Wtbywvp4Z7eW9L2kcdzArRW8EkMjlLq5irRtuStQ0xV9ReTPOfmrzlot1f6aLfS5Lb9x6V/YX&#xA;XqG4Uqxf0XntSInj+yOXVuvwfGq15a81fmRqN1d6VqOlWVlqNhII7i5ST142WSpSZYBJG6R0HRpO&#xA;R7VxVNfzVsdOu/y81o6l6SxWlq90s8saSLHJApcOFkSYdqfZrQ7EdcVYpbeUdI8t2sd5ciD0FurC&#xA;70+6Zis9tDalTdI1PgMccMbvyrXieLV9NWxVhXk3Q/Lmnf8AOOXk+w1yCqeYb6K3MoZYmSTV55IU&#xA;m5Or19KCQPSm/EdsVYzaeTbK4/MLQnknuYeZtLKO6mbnbQ6vEDeS27RcaqlLgpDyfd4pFrXoq+nL&#xA;7yn5f1DVINUvrX61eWrB7YzSSSRxsFK1WFmMQND/AC9d+oxVGy6lax3ElsebTxJFIyLG5BE7tHHR&#xA;qcCS0bV3+EbtQb4q8/8A+chtRFl+UeuTlVDS28sAWTsbiF4j0P2gHNN+uKpt5q0uxT8mdW0xAJLK&#xA;Py9PBHToUSyZUIrXwBGKvzfxV2KuxV2KvrL8wKeb/wDnDzQtaPxz6Mlm5b9otaynTZD9zFjir5Nx&#xA;VF3+r6rqItxqF7PeC0iW3tRcSvL6UKfZij5k8UXso2xVCYq7FUfoGsXWia5p2sWv+9Om3MN3DvT4&#xA;4XEi7/NcVe7/APOYNhZ32q+U/O2nfFYeYdMCpIP2vSImRjTu0dyo/wBjirLv+cZfynhtUttXmZhf&#xA;XVrBe6jOpUiKGaRLizsomFR/pEKia6rvwaNPh5PyVfSWt6JpetafJYanAJ7Z6MK1Vkdd1kjcUZHQ&#xA;7q6kEHpiqWeSNUtr/TJltL8apa2kzW8N8Spll4Acnm4LGvNmq1QtHUrINnGKoP8AMOBbweWtMkak&#xA;V9rtmZFJoGFkJNRCkftfFZjbFXxv/wA5W63PqX506tA7FodLhtbK2BrsvorM4of+LZnxV5BirsVd&#xA;ir66/wCcfvM+pXv/ADjZ5w0+CRhfaDb6nHp7A7qs1o1xFQ+0zvir5FxV7P8A84rvGfP91bhlF3Pb&#xA;23oKSFZkg1SzuLgKT/Lbwu7D+UHFX21pN9ataSCOFYEguJLf6tChJTjIVXmiD4eQo/Toa++KoaLz&#xA;VZJevZ30tvFK0/o2ghnSZpCzlUUxr+8V6CrDiVA/a60VRPmW20W50G9TW4kn0lIjNeRSgtG0cP7w&#xA;h1H2l+DdTsehrir5L/5yZ8+edtMXS/KVzcPBJqGmx3upzIRGxSR5rf6oiRBUji/dt6lKmStCeIC4&#xA;qnf54SLD/wA4p/l4ts5CSNpIcj+b9Gzuw+iQYqv/ACq/NHXbvTvKsCaZbag+qlrHVfMl1ayyldZt&#xA;pZms4riQEVcpNayGU/tO7ci5eir6isb2C9tI7qDl6UoqodWjcUNCGRwrKQRQgjFUrfUPNErSCHTI&#xA;bSNXKLLdTmR2AOzrDbrICp/ypFPiMVeWf85RC8X8ldQtrq5We9R4buWRFESlBexRFVSpPFfrKqKk&#xA;mg33xV49q/8AzlNFdfkrF5KtdNni8wSafHpF3fuyG3+rrGIZJFoeZeWIEU4jiWrU03VfPWKuxV2K&#xA;uxV9X/lVXVP+cQvNto9HWxTU+C1GwhiS73+RauKvlDFXYq7FXYq7FXsXlT8mfzZ88rpeh6nePZ6R&#xA;p1uLjT4bt5LgW8N1STisUIkEDyKAypO0fJaU2xV9Q+RPMOg+SdOsvK2s2V1oTXOoT2mjXN0kc0N5&#xA;zndbdTc2fqQxyCMJH6cpQjiFAoMVQX5sfm15U0i50qzu9Qk/R0161rdQQJKFu5YpIY5YjOAEMFss&#xA;5e4Xl8ZpFX+8AVZVoNpFof5i6vpUEfpWGr6faalaotAonsx9QuQqCgAWFbTptirvzVNxZ6LpvmKC&#xA;NpR5Z1O31S6jRS7/AFQB7a8ZVXcmO1uZH+jFXzP/AM5cfl7qA8zRfmFpcf13y/rVvb/Wb2D94kc0&#xA;cYjjZitf3ckKpwfoT9FVXzvirsVdir6e/wCcO3Sbyx+Y1pMwS3+r2peStCBJFdqxqdtgmKvmHFU/&#xA;8gnUx5z0caY0SXbXKJyuDILYRMeM31kxESC39It63E/3fLFX3ja395JpE15rmnvdadpkEdzZSTRR&#xA;zXk1nLUc5oWjdhNW35ELT4HFfjU4qnHkmXS/MWlWXmS3llubCVml0iGeIRC3VOUBKRhIhVqNxbjX&#xA;i1AaHdVHXMkWv3cmmojtpVo6NeXSsAks8MiuLZag81HH98RQfsb/ABBVXlv5/flp5a82WbaxfzKj&#xA;6ZIbO81JABPp6yopgLcB+8tkllWWWORS4V2ZHQfCVWHfmNo9/c/84kaPbXAR77Q2tGkW3miuUZYp&#xA;WtlaOWAyRyL6cyt8DGnfocVRP/OL35aa/aeXLye/X9FtdSWmoQyKkbyyMj+tDb3aSBnVE9GOYKhR&#xA;isteW4oq930Pzb9Zvhous236J8wqpYWbtziuEX7UtnNRRMncigdf2lGKozVdR123uBDp2kG+DICL&#xA;h7iKCEMSRxevOXbxWM4q8E/M+S688zyeWtbhv7F47wW2pzWMdt9TYQyyfVYVu7u5t/QWUsGrLCfV&#xA;dV4dOOKsJ8x/84oG1s/VtDqdg4DESzpFqkJO1BKLALcQj/KWGUeNO6qj5e/5xat5tOXUb66v9WgA&#xA;KySaZHHb2pk5cCIZpRc3ciK2xYWVDvTbfFUn/NT/AJx3Pl3RodV8utNNwt2vLzTri5juZ2tQATcw&#xA;cILNykYP71XiBUfEOQD8VXh+KuxV9XflYDpH/OIHmy9ciJdQXUuD0HxetGllvXrVl44q+UcVdirs&#xA;VT3yLpmk6r500LTNXkaLS76/tre8kU0IillVG+L9nY9e2Kve7T/nG+fRvz2Wy02AXflmxjttStZN&#xA;QHqIfWk9IROV4LJJCySzhD9pI6NscVes3mraYNRj0byXc3V3rGkMZobuK5s0XUby7qt21xNcqVuP&#xA;STi0giH2mCjhxFFVmt6PqF95fufL97r+o21ysN5qF/oK6dbfWNQDztc3Is5JvrMbPzl4w+jIfTql&#xA;d8VfN3/OQSzzT6DfXGmXWiERS2FnpV+oguUs7NYfTle3V2RPUmlmAeNUV+NeNeRKr6m8va6NW0f8&#xA;rfNzVae9i/R19L/KL2wZ5RU9mvLKJcVQnmrXdC1XTta82+b7h/8AlXWgzS2ljpMRPHUri3k9GWad&#xA;Qy+sv1lWhhhY8DxLtUEcVXkFz/zmnd25FnovlCzttGhUQ2trJM1ViUcVXjEiRqOPRQKDpviqC/6G&#xA;t8nu4nuPyr0uW7G5n9aAHkOhFbJm2/1sVeS/mp+Y7efvMcesHR7TRVht0tktrNftKhYhpXovNvi4&#xA;1oPhAGKsNxV9R/8AOM1vJp/5KfmDrAZElvBPa2YmkjiR5oLM8BzlKoOUl0q1Y0riqR+SP+cTtaur&#xA;S21LXkmu47pQ0On2j/UfTNK/6ZNexCZF7Ugt5K/zDuq95/Ln8svLmg+ZdVgNjbRXVpZ2caxWiCGD&#xA;6vcLIGhkCBDdAPER6lzzdqVJrirO+FgvnHk07i/m08enbhmCNDBMebFfsMQ060PUfScVRNjDra3d&#xA;0t9JaSaeaCyjgikjkC9xLykkU+HwgfwxVGwQQW8KQQRrFDGAscSAKqqNgFUbAYqxrzBpdo+u2Uck&#xA;Qay12O60zVLenwTl7cyxvIP2mSO3dAT2amKpNFLpWs2tvF5QittK1jXbe21DWL+2h9Ke3tLlGPqs&#xA;6IFedmXhGsjeL0IShVZrpOj6fpNoLayi4KTzmkYl5ZpOIUyzSNV5ZGCjk7kse5xVfqGm2d/D6V1H&#xA;yC1Mcis0csbMpQvFKhV434sRyQg4qkemr5i0K4+oXQuNb0ajPBqpaNru3VR/c3EY4POBT4JIwztW&#xA;jLtzZVJ7u50i+8svrotre8lS+a3mWQVL2c+oGN7e5j2baGYsYZh8ElOShlxVP9blTSdLttJ0WOKz&#xA;urtha6dDFGqpCgHKWZY1AXjBEGcDoTRerDFWKpfXD+YvKMej6pLLodzEk0dWlJuorqO4uY5JGZl5&#xA;H07b9tSTXtiqG1r61e+V9O1B5ZDGmk6nqVvd1ZytwTEbIjqzNxmKqOpBK9yMVfHn5reQtX0zzDq+&#xA;u2OkyQ+U7y9nk0+5gjH1aFJJCVt3Edfq7R/YEUgVhT7OKsAVWZgqgszGiqNyScVfXX506dc+Q/8A&#xA;nFjQvKwj4TXUllZ6gop8Mz+pqFxuO3rxEYq+RMVdiqaaB5Y13zBcyW+k2pnMKGW4md0hghjXq808&#xA;zRwxL2q7AE0HUjFXtH5dfkVDZ6fY+Y/NKFprmamn20jyQ2yuh+HkkI+vXsrH4o47ReDAV9bcgKve&#xA;rWyTzHqUuiNKWvYJppG1BzLLeReoWtr64QF/RsIp4WlgihUs/JuTANG9FU1/Maw8seW9Dju57iNo&#xA;eaRW2g6szX9leyqP3VvHFcmX0H2+GSLiF6uGUYq89/MTXtR0fQLTVLB5FtNNnGv6TPq/O2nsZY43&#xA;aTTEe7ED3MFwWEUSxcjx5L9kJir44kkkkYtIxdj1ZjU/jir7C/K3XZI/+cXtM1Hdn8uapBMzU5H0&#xA;rbWI7iXx29CRlrtQYqxT8+bia0/5xx/LSxjYiO+itLy5IJ+ORrL1SW8avOWPvir5mxV2KuxVlXkH&#xA;8v8AUvN99OI2e20uxUPqGoLE05TntFDFEpUzTzN8MUQYFj4KCQq+3vyk/LXTdF8r6A8Vz6mmxWsF&#xA;3aWMQ4xPcTRCSS6uX5y/WJC7lo9xHHtxWoDYq9MxVh8l9e6L5r1nUL3Sb6eyvUtYrW8sYhdIIreN&#xA;iQ8UTG4D+rNJ0iIpTeuwVSzUvMllrHnPy4uixXUWrRLe1lvLO8tFFsUjeaGRLiGKqTNGnxKeSOEN&#xA;GFVKrNdF1KTULBZp7drO7Rmiu7N2DtFKhoy8h9pT9pGoOSkNTfFUdirBp7/WPNeu3Fto0sdhpmgX&#xA;BT9NkCdpLtoQrpBE3Ff3cVxIpdiV5Fdmoy4qjvyz8tzaJ5Vt/roH6X1Cl7qbAceMsqjjCoJPwW8Y&#xA;WFPZcVZXirsVaDKSQCCVNGA7Gld/vxVJdR8leVtRvxqFzp8f13kjSXEReF5fTYMizGIp6ygj7MlR&#xA;7Yq35h8vXWqzW8ttqc2lvFHNbyy28cLTNFcGMuEklVzEf3I+Jf1gEKsF1XSdW0VLSeGwnhtdEszp&#xA;2myoGunf6lY3MFvNIsPqtFHK119pj8PH4qVxVPvLOlS6tb6fdrK0Xle2htF0rT3Qq9wlmGMF1Jyo&#xA;Y1dmVxGRX4EJI3XFUDrXlay80+eb76spsE0uzNrqt7EopeXV2iPFb3MZHC5igtwC8coZWEoG1MVY&#xA;ZpH5E+RIvM63WlaRYTalBMrnU63KWcNxAWaaS109p5EcRMY0dWkZA7ilODKVVX80otS8/wD5V61o&#xA;JtF/SdvcznR7syJHDcPpF59WuJA0sh9IsyyDjI+ysPiajHFXh3l//nFfzJrlpHJYagtxITWS5+ry&#xA;Qabw/wCKrufhPK3vHasn+Xir17y9/wA4g+VbHS0N76N1rB/vHvWuL22Uim8aWz6Sfok5Yq9T8t/l&#xA;Z5f0YQNIzXptmMltbFIbaxhkP7cVjapBbBvB3RnH82KqusDT/LRk1yeNtZ8y30gs9LRhGs0jyVMd&#xA;nbkL+6hFC7neihncmmKo2ztNM8raXqOsajIFnuXa+1e8YtIWkOyxoacika0ihQCtABTkTVV4b+d3&#xA;mH83tWmtofKXlrUYr8wlDqNrbSGWwjmYNJBDerQGaYJF65j2i4emGY8zir5e82eTfPWgz/WfNOk3&#xA;9jLdux+tXsUgEshJLfvXFHbud698VY9ir6r/ACfgWb/nEjzsjEgAao+3jHaxuPxXFUP+eVmLz/nG&#xA;LyJdr8c2jy2ljO1Ps+jbS2ko6dpYAMVfLmKuxVlH5feQNY8565HY2kVwtijf6fqENtLdCBeDyAcI&#xA;geUkgiYRpUcm7gVIVfd/5U/lrpPlLQLe3TTUtHif1LaF39eaMlOBmmcExm6lDN6jxgDjxjBKIuKp&#xA;vos9zpPmC70G8dmsrpmvNBmkO3F6tPZKT3gYF41/30wAFEOKsmxV2KsX82WS/WY7icXAs50MLajb&#xA;NSbTZRulxFRSyxv9mY1K0VeS8OZxVL7ad3jgvo7yD/FNupub21sCpXVbRKKJVhLKJPWgVDFJyPpv&#xA;8HIgMCqrecdTu9W0aysfL16IJNUuDFd3inhLaWkKs13KymjI0TKsbBhs7BWpXFWJ3OsXukflLNZ+&#xA;WrLjdXVtczrOeSR2cV65e2EzgcnujFcRUT7RPxNQblV69irsVSXW73VtNv7TUFdZND/udTt/Sd5o&#xA;uZpHcxGMMSquQJQwoE+Oo4nkqlH5d6jFqV55uvILhbq1l1uttNG4kjaIabZBDGwJUqRuKYqzHFXY&#xA;q0yqylWAKkUIO4IOKvO/Lepa/B5Ut/Lmh25k1S0ub7SlvZlrbWVvY3TwwyzVI5t9X9No4hu/stWC&#xA;rJZrZdB0KysIppbyeW6tbd5rlzLPcGWdPrDyE/aPpc2IGyqNgFGyqdQWVnbrEsEEcSwIYoFRFUJG&#xA;aVRKD4V+EbDwxVgP536RpUnkw6vc6fBeT6Nc21zC8/2YU+uQvO4HRqom6/tDbvirNNP8w6BqMzQa&#xA;fqdpeTovNoreeOVwtaVKoxNN8VTDFUi1/wA2WGm2kxglhnu4pEt2RpCsUMslOAuZEWT0uXIcQw5O&#xA;SFUFmAxVKvImmatdiXzJ5kRn1S5kb9GJcIY3tLMqFCrA1fq7ynkzr9vjxWRmZcVebf8AOQH5z/4Y&#xA;BjspImvLKWL9HabcKXW6uQ9ZLiaMNG/1a1VGWNwd7ihG8JxV4Xc/85a/nPLJyhv7S1jAosMNnCUH&#xA;y9QSN+OKvX/y885a3+cH5H+eLPzekN5eWUcy2s6RrFV1tzPAxVaKGjlStRTFXx3ir6v/ACmRYP8A&#xA;nEzzDy5ut/c3MHCMHl/pLw2oXY1Na7/PFXpXmTy/ZaVZ635Z80aLc6z+Xet3Mt/b3enxSXE2nzXE&#xA;puJ4pYLcG4CC4LSxSxK1ORVgAN1XkVx/zj9/zj3qMrHSPzGWwd6kWd7cWnrIetGil+rTLTwYVxVF&#xA;aT/zjX+RJvfq0/n/APS12qF/qNjd2KSkIpd2ZV9dggUcmOwUbk4q9q/K78sdJ8t2FlPDY/o6GBXk&#xA;sNLY83hln5LLc3MlT6lzJEQnhEn7tSRVmVZzq+p22laVeandEi2sYJLiYjc8IlLtT3oMVQmtXNpB&#xA;a6fqV5AS8F3bCFT1jlvHFlWv+St01cVTbFUq0C7llGo2055T2V9PE5/yJSLmGnyhnQfRiqa4qwfX&#xA;dHstJt44Lqwjl8ti5aW2vbcCK40Z5aH6wrNy/diZncyKV9JTQqYwSqrFvOlvN5UN5r1/Ol7+ltH1&#xA;DTo9UjHpcrxoDPCzwqTGrzxWao8ibSMqDilAGVT/AM76HryeSH0vRRWz0+BNQnmkPrT3LWsguBZw&#xA;ofsep6dOZNFFFVTWqKp95W1a/fWPMGhajJ61zpl0J7acgAvY3/Ka32H++mEkHv6de+Kphrvmny1o&#xA;EKza3qlrpsb/AN2bqZIi3sgYgsfYYqkQ/NTy7Jva2OtXkX+/oNG1No/oY24r9GKpT+XGueToPNOt&#xA;+XdAgmtP0iTr7W1zBNZyJLJ6dtcoLa4jhkRA0cbq26sXYCnDFXo+KuxV2KvO9C87+UNC1nzVZavq&#xA;9rp0v6YeSNLqQRAq9pbElS9FPx8uhxVN9G1q08267HqGm1n8v6Nz+q6itDDdXsqmJzAQastvGXRm&#xA;pQs5A3Q4qy3FWF+c7iTzIbzyTpcfqNMqJr1+20FnbycXMZ2/eTzRH4Yx9lTzYgceSqVam3kfVBBI&#xA;2jGw0Jpki0/zZaj6m6Xj1WKS3eJVkWE/Z9diEZiFoytXFV/mnXPO/ljR1trub65biM180LEIuJBY&#xA;CK7SNbkW3w8a3SwvHWtY49jiqG/LHQdcvLa21W/vR+iUuJJ7O1hiMNvdLSkEscDlzFAjO8icy0sz&#xA;cZncUVAqnv5k+erbyzpU49dbaYWs1zcXpAcWdvGvET8CQJHaZkjhiqObnwBxV+e3m/zLeeZPMF1q&#xA;ty8rLIRHaRzy+tJFbRDhBCZKLz9ONQpag5H4jucVSbFX1n/zhvo0195D85x+qY4tRmWzRiOQRvq7&#xA;Bm41H+/hirGLf/nCTz2zf6Tr+lxrvUx/WJD7bNHHir1qDyHF5Y/LTQfymj1BdS1291G1uLkwLxaO&#xA;1i1KO+up2SrMkUccfAM32mIHVqYq9uxVBarHo4tZbjVI4DbRRsZXuFVlEYUs9eQO3EEnFWLWXlzS&#xA;vMGpy3slqkWhQRLaW1mkHopcfHHOX9QU9W3+CMAJRJCG5c0CHFWbYqxrzp/psmkeX1+IareK14g6&#xA;/U7QG4mLf5DOkcLH/iwDviqa+YNNOp6Je2CNwlniZYJf5JQKxP8A7BwG+jFUN5a8zWmtwERq0d3D&#xA;FbyXUDihX6xEJBTxAbkh/wApWHbFVv8AvH5voNodXtSx7D6xZsB/wUkUv3R+2Kp3iq2SOOWNo5FD&#xA;xuCrowBVlIoQQeoOKsXvvyx8n3Og6rocdl9X07VU4y2kcswt43B5JJBBz9KFlejVjVakb4qyDSbe&#xA;6ttKs7a7kE11DBHHcTKKB5FQB2A22LCuKvH/ADGfP3lrXni0S2ub+9a1+oJewxJcTPpKS+vBcKkp&#xA;SOW4sKzQFWb4zLE7ci3HFXo/lnRvKc5/xBYcdSv7r4ZdXuD611yj+B4uT7wcHVuUCKio/L4FNcVZ&#xA;HirEPOipYeYPK3mGgRbe9fTb+46BbTUImQB27KbyO369/nirL8Vdiqnc3Nva28tzcypBbQI0k00j&#xA;BEREHJmZmoFVQKknFXl/lLSdW1zWL+YXN/p+lpfalJeXEZeGDUory4b6r9UdWUMi2qRcp1XkPhET&#xA;rWSqr0axsdG0DR0tbSOLT9KsIiQtQkcca1Z2ZmPzZmY+JOKsZvPN/wCntds/Lvlm+a3FxbtqM2vR&#xA;wpNA9pC8aPHZSScopZGadKyBXRRWvxUGKpTf2V1rujy6LpGowaJpt5Lc/UvrUsk+oX9xDMzTrKJX&#xA;DJD6yskqfGxj+H930Cqe6lfjzVYrommrLbRXsRGsSXVo1be3ZRztmSZfTW5cSLRHBolXII48lXTw&#xA;XOtXceh6bc+n5XsIjb6tdwzepcXEoDQmxWUEyRmMDlNJyD1KhSDyIVZNeXllp9nJdXcqW9rAtZJH&#xA;IVVHQf0GKvi7/nJ/zd5w1C9s4blJLXRNTiS5ktzbmF45IpJfq9jcuVV/UhgkWdon3Vpid14UVeB4&#xA;q7FX13+Qst55f/5xg8y6tZu0GoXcmoS6dKuz/WnhjtLbgT39ZFA98Vetaf8AkZ+W0Onw295o6Xtw&#xA;I1W6uZ5Z5Hmk4gSOxdzXmak4qyjy95Q8q+W4Xh0DSLPSo5TWUWkEcJc/5ZQAt9OKpvirCfNS3Hmi&#xA;6/QWkzqkmmtBqN0ZohLaSMjs9vbT71/euiv8INEFerJirItO16G4vZNLu0Flq8Kh2s3kRjJGQP38&#xA;FDyeHnVeTKrVG6jbFU0xVJoNPE3m671YzLItrZxafDCPtRSO7XFxX/jIht/+BxVOcVYp5Usba01/&#xA;WCWAu3drcoP99w3E14n3JqiLiqaeYreVv0Zdwrymsr+Bwv8AkTk2sp/2MdwzfRiqb4q7FXYq7FUo&#xA;8z6Zqt7Zwy6RdC11WxmW5szIT6ErKrI0FwFBPpSI5U0FVNGAJUYqxjR/NGn6dqdxdGxNjpes6gLW&#xA;/atZLTWxWCRblQeKxXCxQelIleTNVqcwcVZ9iqX+YdEtdc0K/wBHuiVgv4Hgd1+0nMUDqezIfiU+&#xA;IxVJNI89+XrfQ4zr+uWFtqVhWz1hpZkt1F5bn05yqylGCO6lo6j4lIPfFVW08/6Zqd1HDoVle6zE&#xA;xpNfWsIjtIgejG4umt45B7Qlz7dMVUm8r67rOofWPM1+n6Mgm52mg2BdbdwjVja8mYLJcHYEx0WP&#xA;sVfrirK8VeWeZvzBXXdXOh+XGbUIbC543sFkjXEl5PCVZLZpUV7e2tTJ8E8k7qxCsoXieRVTr8sf&#xA;IuqeXrKOfXZoZ9WisrbS7Zbcs0UFlaJRURnVCXlk5SSGnWi7hQcVROtz6PZXlzpnmlbdfL+pM91p&#xA;1zIFiihlhjEk8cj/AA8JSyvcRyA1+30Kiqrzn/Fxsbi+svLza3LDqB4a3qDwSajfW7o7M0yJaC49&#xA;KZ4pPSCziP0+KnjtxKr0D8uvO3knUrRNE0NG05rENFBptyY1mZY6F3HCSXk1XrIGb1ATV1HIEqpj&#xA;quq21/qzaaRCdL0aSK71+7uSFhjZFM9vEjE09VJFimctsqU/m2VeX/n9L5cvr62sb5V1DT71Rp+p&#xA;2UTepcGYEPbSWqry9G5tvrPJXOz+qI2BQs0ar59tf+cWvzevrh/qWlp9Qr+4u7m4t4SyEchzh9R5&#xA;EcA0dSPhao7YqyjSP+cKvzFnmj/SmraXY2xI9QxPPcSqK7kJ6UaH/g8Ve6aTpGgC38uflf5TlF/o&#xA;3lu4hvPMt8pEkcZs5frUVvI6/B9Yub0LI0YPworVG61Vet4q7FUk866rdaT5W1LUbUqJ7a3kdOde&#xA;NQhoTQqaKfiahrQHFUdpOjafpUEkNlGU9eV7i4kZmeSWaQ1eSR2JZmPTc7CgFAAMVW6xoWk6xAkO&#xA;o2yziNucMlWSWJ+nOKVCskb/AOUjA4qxvW7/AM66H5ktJLWNtc8u6gGjksysSXVtOilkEUxMMZSR&#xA;Qaesa8hTn8SjFU48paffWunTXWpJ6eq6rO99fx1Dem8gVIoaqSv7mCOOKq7HjXvXFXnf5tfnhZeW&#xA;NLne1eS2jV2ijvV9Jbm5ljbi0enwTpIsiqwpLcOnpIK8fUei4qi/KOszXPnOyvHuHuFupdTsWlfi&#xA;PU9W2sdQs3ZYwkfL6rHSqqKjr0xV6J5iuby18v6nc2S872C0nltVpWsqRs0Yp/rAYqjLW5hubaK5&#xA;hblDOiyRsO6uOQP3HFVTFXYq7FXYqwLzvLY2F5dnU4Vn8pahFFF5pgZVQRG5JggvhKvGT4fRWOXf&#xA;4V4OtOLVVTfybruo3DXmg66ynzFoxVbmVVCLdW8lfq97Go2CyhSGUbLIGXoBirJsVQraTpT3ovns&#xA;oGvgABdGJDLQbD46cvxxVFYq4kAVPTFWHQ3v+Nby5js7m4i8p2oktZ7iAiNdTmeqSLDOtJkht+ND&#xA;JEy83NA1EPJVlOn6fY6dZQWNhAlrZ2yCOC3iUKiIooFVR0xVEYq8w/OV5Lq40vTeZRIgt9Cy7FL3&#xA;9IWNnaTf5Xo/XJH4tVSQOQOKvRtN03T9MsYbDT7eO1srZQkFvEoVEUdgBirCvzK0KxjudL8xkMhi&#xA;1Cxt9RMbsrGGWY28M0ZB/dy281yH5ruyckbkhpiqQ6Tr7av+W0N15b1ODRr+3vF/xYdUi9ctcTqR&#xA;cJMhQlxNLKjJw4hkoqFB0VYx5L8naRN5guNAntf0Qs7pdILqzummurZYV9Q29y8y21s0yu5aJYQ0&#xA;auyrxoKKp9PdX2m/mrpK6ZqMo0ifWWR7KOZmt57fWtMuL2rKCUfheWk0yN1HqUB47Yqm2j+TvL3m&#xA;Tzj55j8w20mqiy1SCK3hurm4ktlt5dNtLj0lti/oACSV2+x+1ir0XTNK0vSrNLHS7OCwsov7u1tY&#xA;0hiX/VRAqj7sVRWKuxVTuYEuIHhcVRxRgdwR4Edwe47jFWKx6lq3lVeGv3LX+hAqsWrspae2DVr9&#xA;cKIqNElAPX+E7jktA0mKstR1dQ6EMjAFWBqCD0IOKqV7ZWl9aTWd5Clxa3CGOeCQBkdGFCrA9QcV&#xA;eRfmXoHnDStBaKyvlv7KKRU0uXVuUlhYx0J9XUBGry3DxtQQvKrxKAGlFV5sq+IvNMWuxeZNTTX2&#xA;Z9aFzL+kXdlctOXJd+a1Vgx3DLsRuNsVfWf5S6wl1Y+SZq8eTaM6e7ppuqaQ4378dPr8sVfRuKpB&#xA;5GPpaAunHZtJmn06ngltIUh++Hg304qn+KuxV2KuxVL5tMS6vL9bpFlsby0itpIm3DANN6ikeBWU&#xA;Yq8v8vS63BoehXH1D9KT2FzImhzM59S0khV4NR025kO9OMc0Vq7EqziMScWAZlXqOg63p+uaPa6t&#xA;p7FrS7QPHyHF1PRkdf2XRgVZexBGKo/FUv13zDo2g2JvtWuktbfkETlVnkkb7McUagvI7dlQEnwx&#xA;VIpNM13zPdW1xqTHTfLCrFcR6OOQu7pzR+GocgBHGp2aBC3L9tqVTFWW4q08iIAXYKCQoJNKkmgH&#xA;04q3irEPzH8lz+ZdNi+pSLFfwCSIMx48re4ULMgajUdWSOaPt6ka12riqE0n84vK92ZI72K602eC&#xA;iT+rBJJGslKshaJXaJga/BOsbkb8aYqlnmzztpmvyadpGnxXNxbNe211NCIXiubxbWT11itIZhE7&#xA;J60UfqzvwhVKjmWqAqlnmbyG1tc+WvLtq6TNqOkSaRqBleWFbo6fLBfIZHhIkQScLhCy1p6vQ9MV&#xA;SfzJ+U2uxW+j6PL5fj8z6CbT6tdCO8VJ7K8uZpGu75PrYAmk9J41jlcs3wEcVDVxVG6BaW9z+alj&#xA;psXqzmxuptTkmnCrK0OmW1xpn1iVUCIv1m/1CdowigERkgBaDFWb/ls31ufzbrQX93qmv3Igk/ni&#xA;0+KHTag919SyemKs0xV2KuxV2Kqc9vFPGUkFR2PcGlNvoNMVedW2p6r5a8zaj5Y0i3ie2gRdWsNM&#xA;mZkV9PkVYpUtJy7JC0Fyjkxunp0dADGDirOtF13StatDdadOJkVjHMhBSWKQfajlicK8br3VgDiq&#xA;PIBBBFQdiDirxv8ANn8g/LvmbSklEc0klmzmH6skRvILdgeNvat+6VoInPMQy8vhqkTR1GKo78gP&#xA;J76B5UgtruWC+NtGbayvY9xJFDe3k6ScG+OJ1+vFHRgGQ1U+6r1bFUg0ZWtvNfmGzA/dziz1MN4P&#xA;PG9qyj/pADfTiqf4q7FXYq7FUt0W8lu5NTlJ5QJePDbf6sMaRSD/AJHJJirFrbRrK41rzV5Pvea2&#xA;V8YNcsXjYpIjXLn1GicfZeG7tvWB7M4xVGTaZrvlfneaBarq1ncztc61p9RFdySuqq1xakskHqNw&#xA;5SREKrtVlKkkMql+vfmF5hj0ye+07RX0yxtkkmm1LXF9Kq28TXEqQ2SOs8jenEwBdo1/aBYChVTb&#xA;yr5bncWfmHzDM2oeY5baNqyqno2LSoDNDZRqo9JGbZmJZ2AHJjQYqynFXYqwbzxpUt/rlgNWgnm0&#xA;D93Fp9xYlfVstUnkMUV5LGwYkxlk9CRaiNixdaUZVUVYea7nT/Nb+Wdcu7Wb1VQ6Vfq6RTOzLUW9&#xA;zAW/vnCu6PGoRwrfCpWhVZfirz/y75N03zRCnnDzPZCTWNXhja3gq0f1Kyqz28CFCrhyjhpjy+J/&#xA;BQoCrLtF8taDoiSLpVjFamY8ppEFZJCNgXkart9JxViPmHXIU/MCKZYXvG0CxaO3s4WRZJ7/AFQ8&#xA;liUyMiVitbR5HqRxRuR2xVC+YrT83vMWn/UrX6loiSyB551uJgi2+waBmREuZmNDVo2tqbcWcYqh&#xA;fy78s+WNBbXLLTfN1hf+dtcVh60LRObSOCNktYLayM8sgt7Rfso0hqBucVT78qUudJ0N/Jt9HEmo&#xA;eVvStHngLendQSRiSG8AcllaareopJ/eK1CRQ4qzbFXYq7FXYq7FWO+cvL91qENpqmlcU8xaJI1z&#xA;pTseKScl4zWsp/31cx/A38rcX6qMVYJ57vL+/wBCsvPvlWG4u49O9Uapo0Qjj1G2ZCyTvasyTejd&#xA;W8nJZ4qFJU5KwJ4nFV/5Z/n75Y8zxTWzX/1y5toRcGRLcw3JTesb2SvNLJKnEl2thJHTeq/ZxV6r&#xA;aXdteWsN3ayrNbXCLLBMhqrxuAysp7gg1xVjHmTR9Rs/MunebNGs1u54YpLDWbRCElns5njcSxk0&#xA;DyW7xVVSfiVmA3pirJbC+tr+xtr61Yva3cSTwOVZCY5FDKSrhWWoPQiuKqEl7bQ63b2RFLm9tpZV&#xA;bxS1eMUr87muKo7FXYq7FVG9vLeysp7y4bhb20bzTP4JGpZj9AGKpb5PtLi18sabHdLwvHgWe8Xw&#xA;uJ/303/JR2xVDa/pk7eZfLmswFUFlNcWl8zED/RbyA0UV6k3cNvQYqyHFXlH5+ky23l61r+7F5Jc&#xA;zjt6Kx/VZSfbheHFXq+KuxV2KofUbRrzT7m0Sd7V54njS6i4+pEzKQsicgy8kPxLUHfFXj/mTy3e&#xA;xRRxa8n1aeS8ki52rwrZ6rNcxyOZ7eGeWOOG/kKrGy3TGIpzReYamKozyb50uPK17F5V1UG5sFWf&#xA;6m8MVyLm3EDP+7aCflNIkojZ4Ej5SBRRVeJVlKrNPy58xxa35Xsw80cmqWMMNtqqRsHVbhYlJZGW&#xA;qtHICHjdSVZSCDiqba75h03RYIXu2Zp7qQQWNpEC81xOwJWKJB1O1ST8Kj4mIUE4q+SvMX506j5B&#xA;miudK9HUvM+rRPc/XLtWMcNndsJlm9IFT61+5+sUJ/dxCFDXiRiryLzh+b35keby669r11cWz1rZ&#xA;Rt6FtQ9jBCEjNPFgTirIf+cZtKk1H86/LiqDwtXnupWH7Kw28jCvzfiv04q+0PKTSXH5g+erun7m&#xA;CbTtORgOrwWS3L716j68BirM8VdirsVdirsVdirA/M9hr3ljW5PN/lu1fUbG64jzT5fh3lnCAKt9&#xA;Zr0+tRoOLp/u1AB9pVxV4l+bP5BWmuQRfmV+UEweSU/XZNPsmMZaRTyM1nTi0cysPih2IbpRhxKr&#xA;Mv8AnHL8w9f1yytbbVuXqXL6lBfJJyDJqFh9UdmRWNY/XS8Z5U6CRSVCKeOKvd8VYtpNxcaR5uuf&#xA;L08jS2OpRTarpEspq4kM5N7bcv5Y2njeMdQrEdFxVOtR0lby9028Ehin06ZpUIFQ6SRPE8bexD8v&#xA;9ZRiqPxV2KuxVj/nwl/LU1iP+lpNbaa/j6d7cJbyke4ikY4qyDFUj876bfah5XvotOYrqUAjvNP8&#xA;GurKVbq3R/FHlhVXHdScVR2havbazolhq9r/ALz6hbxXUVeoWZA4B9xyxVin5iaDbaxrPl6yvA/1&#xA;LUxqWkTvEaOn1qxecSKSDRl+p/CfHFU48k67e6lp1xaaqEXXtHnax1VEBVWkQBo5kUkkJPCySr/r&#xA;U7YqyHFXYq7FUPqOm2GpWM1hqFvHd2VwpSe3mUOjqezKdsVefyWFz5K1m3tdBVdS/SgaWay+qG61&#xA;aWO1UIrPezXtpF6VukkcSGQFgKLVia4qw7y55M/MyDzbca3ZeXv8MNPA0VyLa/s4Le6kMocSfVjH&#xA;q4tlO5aNefxGqstX5qs30/y75o0Z7/zVrt/aX2oW1rKVkniNxNFbxqZDDDPH9QiRCRVqW3Jv2mNA&#xA;Aq+H/wA47v6x+aHmSMACKwvX023UdodOAs4R/wAi4FxVhuKvp3/nC/yqsVz5h8831IbKyg/R9vO+&#xA;yVNJ7l6np6aIm/gxxV9C/lPDcSeUzrdyjR3PmW7udbeN/tJFeycrWM+6WoiT6MVZlirsVdirsVdi&#xA;rsVdirEtU8oX9lqU+u+T54rDU7lvU1LTZw36Pv2pQtKqVaGcjb14wT/OsgAAVY/b6jYX/nbRpBpx&#xA;0DXrW7e41zT7lUjeSKWzmtPrEcyfurpGuHtYxJGxO6hgp2Cr03FWGeZo5ptX0m5hWSYaXr8DXJQM&#xA;7Qx3Fg9tULueBe5XlTYAlj0JxVmeKqVrO08Rdo2iIkkTi1KkRyMgbbs3HkPbFVXFXYqk2qpZ3uua&#xA;TZmal1ZSvqbQBSQ0SRSWw5ECi/vLgMtevE06HFU5xVJfNBS7tV0KO5+r3mrVjXiGL/VkZTdspUfB&#xA;+5YqrnYOy9yMVUfKOmXGltrViyBLFdTmm00D/fN1HHcybdqXM0wA8MVRHm2fU7bRJL3TIPrN5Zyw&#xA;XHoChdoY5kNysdf22t/UVfc4qlmo31482kebPLyLqWk3MIXU4oVHrT2UoEsFzETRna2JZhF1ZXeg&#xA;L0BVZJp9/aajYW2oWcnq2l5Ek9vLQryjlUOjcWAYVU9CK4qr4q7FXYqx3STp8HnDXIpEkj1a8EE8&#xA;TykMJbKGFI19EjZUjnaTkh+IMxalHUlVIfOPlXy5ay3Os6rcaBpGnyPykvLrTLYzl2FTzubiRkdm&#xA;IJ/u64qwfU/MWj3HlLWNM8nahd6wNUt103kba106xSTVH+pQvGkdrbSzMzMeBTkmx5OAMVfGrR6x&#xA;5i12Zra2mv8AU9Rnkm9CBHmlkkkYu1FUMzGpxV7N+X//ADiH+YGuyw3PmUp5d0skGRJCJb1l6/BC&#xA;tVSvT94wI/lOKvoG10XQNR0WD8sfI0dPKFp+58z6zEeURiB5TWUUwoJrm6PwzstRGhatGKgKvWY4&#xA;44o1jjUJGgCoigBVUCgAA6AYquxV2KuxV2KuxV2KuxV2KvJvL35eeUfNmrebL3zDaSX9xbeYLiK3&#xA;Zrq6RY0iigdAiRyog4sxIoMVXWHlX8k77VZNMt7a69VJprdJ3uNVS1lnteRuIorlpBDI8XBuQVtq&#xA;N/K1FU0m/Kv8qI7owTWMwd4JJZZTe6h6QigKBhJN63prT1gQrNUipAoDirVv+W/5T3Gpz6bFbTNd&#xA;20cE0i/X78Apc+oYijevRqiFumKrrr8tPyotaiS1mZlkhheOK+1GV0a4lEMZdI5mZVLmhYig3JIA&#xA;OKus/wAtfykvdNg1O1jaXT7nj6F0NSvhG3M8VoTcDdmNAPHFVtn+XH5Q3qq1qhlDzz2qAalfVae2&#xA;do5o1BuKlkdCCBiqIt/yf/K6aSSW3snkkFI5nj1C9ZhQclViJ+weoB8cVQyfl1+UD3EluiF5orYX&#xA;rqupXzUtmZlEtRcU41RhXFVLSvy6/JvVZnlsLdp5Eijk9Zb+/BaGVFmVlYz1KcZFPtXFVut+Qvyj&#xA;0fSU1a4sbqe0mkhhgNnd6lcvK9w4jiWNIZnZ+TMKUxVEaX+W/wCUeqWNpf2ETz2t9GZrRxqF+pdB&#xA;9ohWnDfDX4gRVTscVUYPy2/JyK8ttLtrVle4t5Lu2WK/vvRaJJUjYq6z8K+pMu3euKoxPyn/ACpQ&#xA;BUtioaVoVVdSvRWapLIKXH261qOuKqdx+Wv5SW11b2s8bR3N1P8AVLeI6lfcmn9Jp/Tp9Y+16UbN&#xA;Q9sVUtW/Lz8otKQNfQSRAzQQMP0hfko9y4jiLgT/AAqzH7R2xVFt+VP5WrP9Xa3YXHD1fROpXofg&#xA;TTnx+sV412riq2X8o/ypjrdTWhQwq6tO+o3o4LyXmCxuNhyC8vemKqdx+Sf5RT3CvcaWJbmOMyI0&#xA;l9eM6x92BM9QvvirUX5M/lBK8CxacruY0ktlW/uyfSjP7to6T/ZTn8JGwriqGH5QfkjobCKPT4tO&#xA;aeaO34R3t3EWmlBMaMEnG7BTSuKpL54/Lbydp3mbyPa2tnKLXU9XkttQt5Lu7ljmhWxuJfTkSWV1&#xA;K841JFN+h2xV7BZWVnY2sVnZQR2tpAoSC3hRY40UdFRFAVR7DFVbFXYq7FXYq7FXYq7FXYq7FWFf&#xA;lp/vT5y/8CS7/wCTFvirHx+XMV9erb3XmtbnyRfvdTeXtLiFuJWvdQiv2ufTuQC0ypBdSPGoJ2Wp&#xA;FEJZVBP5B8rXegXv6Q862l4txey28uokWggW+efT5I7V0LtE3B9LjQwt8TqxU77lVV03yx5C8o+a&#xA;IPMN35w022u9IiTSb23uXtIIY/XE9wIQjSD6tI/PlEFofTQr8Sk0VQmjflnoD67rnmW58x2VLvUI&#xA;dTMVubdo0tpNWt9TtnuJgVZ/XWxRIy+yhm48gcVRNz5L8iaz5esPJUPm7T2/wnPNPf29s1oZkgiE&#xA;kMguYhIxieMSEPI1F5V5oQeOKqen/lR5Q8y6nZ6/oXmOzvrDTtVub3lp8VvPR5tQj1T0luY3YxSL&#xA;KvD1EoTCVSm3Iqoj8uPyxsND8m3tjJrtu135xs0gt57IQCEr6M0ivb0+G6YrO7mQirIB2WuKov8A&#xA;L/yL5Q0eKH9Ha/Z6pbXcF7obGMxyGV5Lu51AwRSmWZucSTSh0YuxVORpxOKpHffl7+XFnaWtjqfm&#xA;uwtL+8tptDivIjBbTTRQ2kuktClZW+KKWQl16eqOJAOwVR2p+TPJHln8vG8oap5n07T4o9Qj1Fm1&#xA;ERtbq8ty1ykP1SecsYn9JwA0hrRjU0OKpL/yrv8AK/8ASWi6NJ5/tTd2enPo0Oni7tVu5BqFrdW4&#xA;EKCWq8xqKtCpjenFQuxNVU1uvy68n+XNX8vXes+bNP0zVrGaWbTIJo7SygmeVoEcQ2jyBfsR0BTd&#xA;ZG5gjpiqWyfkb5IFmumT+bIjeeXLlr/ViWijaBblLcxySxRyp6D+nZqY3kqgBbigXiFVZDpv5WeX&#xA;9L82i9OvwzaxJrMOrJaXKRvI0phv6xiMyBuUkE8rqUC0aLmFIUjFVp/LfyXq/nPX0l8wWup6pdXl&#xA;pf3+iH6vLLBDbTxT+jPCrc+DmNFBKrsfi5nfFUm/5Vh+Xt1dafq4842Ulpe6U+mabNE1oDPJa6e2&#xA;nyywXIcs6RRgyNCpIWReVdsVV5/yq8naVp17d6n5tgVGFnqyz3Yt/qySpLHJPcyRO/GSC9uo0dlq&#xA;Pi2Vq0xVL7zyN+WirBeS/mBp9v8ApPQ10Wwnlls0EkUYjiZoVaRI2TnDTgq1BZl5bKFVTrSvys8k&#xA;6D5j0Pzf/iOFItHgkhWSSSONJGtIbtbjjKJVjWNFmleVSrMOBLP9uqqrB+WnlK582XWr2vmK1u9T&#xA;1+e01+ytnEVx6kNtKzpKkYlHqw+nP6SvGFAXifibkzKp1+ZP/KX/AJc/9tyX/um3WKs/xV2KuxV2&#xA;KuxV2KuxV2KuxV2KsK/LT/enzl/4El3/AMmLfFWM2n5a+bdI0PytcafeXF3rWhm4mfT7m6DWccra&#xA;Ve20XpKVA2uLiNfZScVSK6/Izzenly98s/XbO9sr39H3CXkEUlm0d5Z272zzukk10XlZUgkLgirK&#xA;fhGKoSD8o/zG5X2q3cAOq6rqq6pfJYXy20imSy1O2ZIrhkk4iL69Cn2TVQcVTnR/yv8APGjaJ+go&#xA;4bS9j1TTtGsry+E/oraPpjES/u/TJlBRhxZaciNwuKrdT/JjzLdXkl3HcJLLdS68Wt72RWtIYrzV&#xA;xqNokaxoJAtwqcZ6l6BmFO2Ksp/Lvyx5r03zb5i1fVrdbW01eO2KobiC6leeBpFZ3aG2tKARsqoD&#xA;yNBuewVSSw/LLzjovlrym+mXs91ruiaa8L2d5dBrOG7OlSW0fpDj9hbhlG37GKqOhflh538pz2X1&#xA;FrHWLTSryy1K3giV9O9WRNMudHulpJJefvTC8M3qFwHcNUKdyqhNZ/Kzzte2JK2tsL2/j1EN6d2Q&#xA;lq2qarc38kV0jxNHeW5juI1ZQqsGjPAjnUKpnrHkfzJrKJ5iSyf9KXGo3t56K3JsL23iMIsrExSs&#xA;k0dBbRVlhkQqTIxoSPiVZDonlfzHoo0CdILa7utF8sNpbwxyehDJer9VKpGeB4RMbdqNw2FNsVd5&#xA;3/LlvN+vWw1C5mt9BbTLmy1KC2aGtwZbi3lWFzLFK6oRCTyjKOCBRhirD5/yq/MGWXV783Gnm58y&#xA;W+rQ31qEkiaE3bLNZ+vc+rKJxD6CQqUhUqrH7WKpzdaB58uPM1r5ufRYVuYNQtnGjreIz/V7fTdR&#xA;tWkM5RY+Rl1IUUfsrXvTFWS+XLTzH/jPWdU1HTVsrLULKwjhcXCTMJbYStIhVQO9xQN/k++KvKPL&#xA;P5G+drU6FZX5t49N0OAR2ZWQOUfUdNEepNwAFeF5GOO/xKx98VZFf+Q/PGtafGuo6XaQNp+n6fYC&#xA;1S9flctZ3STySwXEcaNbsvphoWIry2YAVxVR0r8v/Pmn6nbahJDcSNKt39Y+o6hFbzr9YvTcILmT&#xA;0lSd/TI5siCreJ+Iqqmufl/561LQLvy4LK1jt7SPzC9lqH1qv1l9Wgu47WP0uAMZH1394Wag47Vr&#xA;iqn+Xv5YecvLnmm31i9gguItKs7nRdLjWf4v0ck6y2lSVPFqSyBh/kD2xVlP5k/8pf8Alz/23Jf+&#xA;6bdYqz/FXYq7FXYq7FXYq7FXYq7FXYqwr8tP96fOX/gSXf8AyYt8VZrirzHXfJ3nu6v/ADLcWV40&#xA;Vhe65pl5a6bxgPr29vBpqTyiZnDRANbSjhsTx2B5CqrENeX8yr7VZfJNutzZwJ5flNtb20EQt5r+&#xA;VJa+tP8AAiqnJSnF+HIcTuwxVmnmHyv541rydaaRfTyXF7bawWlueNjyuNPgllNvLNG6NbElfTcq&#xA;IxuB8PXFUrltPzztdCew07jC1rpls1rOq2DP9YeOzimtkjJCcrb07uRC1EYtGvIgHFUzvrL807ny&#xA;p5QuuUv+J7K5kl1eKNrSJWEljdwxNcLy9FlWaWEypEx/aKAsq0VV/JGofmnZeRry88y6dNq/mCK6&#xA;U2mnyyWNvdSWvGFZqtbf6LyWT12iFRyUIGIJqFWI2ug/npHb2+hxvJaaN/h5rfhE1kTHemzk2Nyz&#xA;tMJ/rRRKqDHwqQ1dwqyi60DzleeX/NllMt5dzahNYzaWmptp7qY/q9sJo2S2KICkkUglQ0Rv2CeT&#xA;EqpDovlr84PLer6HpOluT5Zg1K5k1B1S1MctvPd+oSyPIZLeJbd2EKQ1PMfEKYqkeiaf/wA5K6b5&#xA;Fs9NtlmgurB7S2gjkXSprhYoLNkZAwkEL23rrEC7MZqcu2+Ksm86+S/Nuo/l5eaYunNe3s3mGW/e&#xA;yjmiPq2T3ry7CSWKN1aNh8DyKV+19pQMVUPO/lPz5rX5c+WbKLTZV1zT45kvILd7SRoZlsZreCSN&#xA;ru4CMomKMr+oZAKNswxVFeY7D88Lby5I2i38x1QXFjClvElhcBLaPTE9eSFrsI0jSaiSHM8tfTqV&#xA;A6lVF6Nof5iw+coL7UZL6TTxqU81wkc1l9VMNzp8KLSMt63pw3ETrx+0KgjlVmxVi6+Sfzd0fW9b&#xA;v9ChI+uNrt/YzSTW8piu77UqRBYpZOLc7GCGSMN8IaofjviqaiX/AJyHgsNOljiF5PFBFdXsMv6O&#xA;ikmkiuZo3sno3BHntZIpeaNxV0YcgGpirtZ0b889Sj1bT/Wib6t+h5NGu52thBLdWl5Zzy3BWFI5&#xA;eJ9GZpUbj2VFbbFWY+VpdesrpDrVhci51c20TXD/AFR3SWGw5ytdNaFU3kidQyrxrQCgIxVmOKsA&#xA;/Mn/AJS/8uf+25L/AN026xVn+KuxV2KuxV2KuxV2KuxV2KuxVhX5af70+cv/AAJLv/kxb4qzXFXY&#xA;q7FVsjMsbMi82AJVRSpNNhuQMVeNaP5u/PW7ignu9KjtWglu5Lu3aymInhX9GmCKMlkaN63dyOXx&#xA;bRH7VOWKpx5F1H8x7zzV5mu/MNnPbRQ2vo6bCYGit/Uiu7risJ9SRZ6w+k3qgDlWlNsVSjUPNP56&#xA;2lhYxppq3V6LwJc3EFgxSUSWdncRxNG0y+lD61zcwvPU8fSFRUnFU20rzJ+bU3m+HTrzS/S0Z7ye&#xA;ykv/AKuVVY7GT1TdEk/YvYHWOPwcHFUHq+ofmfoN/wCY77T7W81aK+vrpLCFYPV9LjbWn1NkVmFI&#xA;B+/5FRQsv8zAFVNfI8fm+yvNfub63vJeOnq1hDPyIknTVNYfhGJGVeRhe3/aHwlN6UxVjlr53/Of&#xA;1vK9tcadS81CRpdStRYkkW/12CL963rIbdVgllfmyHdFFN6sqhJ/O/8AzkQmgX0yaDCdRh1EJABa&#xA;Tt+49GaQxLGDydfVSKP1R8PxH4/2lVZd5S1P8wr/APMjUF1+zmtNHsre8isVEBjtjzmtTEROJZFu&#xA;GaNGavFeJLAV3oqkNlrv506j6uoz2A0+402a+mhtGtZitxbLbQyxWpUSKDK8waISAsB8XEtsxVXX&#xA;/nD89EbzXFbaFGxt7lY9BlEErKsZu5IgTWnrh7ZEk5RhgrN8VBUIqhLy6/NvXfNM1vf211punw2U&#xA;n1Zra3mSEPIthIjGZJGMju/rqU4Vj4nrXFXt2KuxV2KuxVgH5k/8pf8Alz/23Jf+6bdYqz/FXYq7&#xA;FXYq7FXYq7FXYq7FXYq8Ht/+Vx/4l82/4I9D9Efpu49b6z9X5fWfSi58efxcePGmKo7/AKyg/wCX&#xA;H/p0xV3/AFlB/wAuP/Tpirv+soP+XH/p0xV3/WUH/Lj/ANOmKu/6yg/5cf8Ap0xV3/WUH/Lj/wBO&#xA;mKu/6yg/5cf+nTFXf9ZQf8uP/Tpirv8ArKD/AJcf+nTFXf8AWUH/AC4/9OmKrf8ArJz1B/xz/Upt&#xA;/vJy41/Viq7/AKyg/wCXH/p0xV3/AFlB/wAuP/Tpirv+soP+XH/p0xV3/WUH/Lj/ANOmKu/6yg/5&#xA;cf8Ap0xV3/WUH/Lj/wBOmKu/6yg/5cf+nTFXf9ZQf8uP/Tpirv8ArKD/AJcf+nTFUu/5Cv8A4/8A&#xA;I3+O/R+pfpSX6h9W9D/ej6jcfb9P4uPp8vpxV73irsVdirsVdir/AP/Z</xmpGImg:image>
               </rdf:li>
            </rdf:Alt>
         </xmp:Thumbnails>
         <xmp:MetadataDate>2018-08-20T11:28:22+02:00</xmp:MetadataDate>
         <xmp:ModifyDate>2018-08-20T11:28:22+02:00</xmp:ModifyDate>
         <xmpTPg:MaxPageSize rdf:parseType="Resource">
            <stDim:w>1189.000000</stDim:w>
            <stDim:h>946.500000</stDim:h>
            <stDim:unit>Pixels</stDim:unit>
         </xmpTPg:MaxPageSize>
         <xmpTPg:NPages>1</xmpTPg:NPages>
         <xmpTPg:HasVisibleTransparency>True</xmpTPg:HasVisibleTransparency>
         <xmpTPg:HasVisibleOverprint>False</xmpTPg:HasVisibleOverprint>
         <xmpTPg:PlateNames>
            <rdf:Seq>
               <rdf:li>Cyan</rdf:li>
               <rdf:li>Magenta</rdf:li>
               <rdf:li>Yellow</rdf:li>
               <rdf:li>Black</rdf:li>
            </rdf:Seq>
         </xmpTPg:PlateNames>
         <xmpTPg:SwatchGroups>
            <rdf:Seq>
               <rdf:li rdf:parseType="Resource">
                  <xmpG:groupName>Default Swatch Group</xmpG:groupName>
                  <xmpG:groupType>0</xmpG:groupType>
               </rdf:li>
            </rdf:Seq>
         </xmpTPg:SwatchGroups>
         <dc:format>image/svg+xml</dc:format>
      </rdf:Description>
   </rdf:RDF>
</x:xmpmeta>
                                                                                                    
                                                                                                    
                                                                                                    
                                                                                                    
                                                                                                    
                                                                                                    
                                                                                                    
                                                                                                    
                                                                                                    
                                                                                                    
                                                                                                    
                                                                                                    
                                                                                                    
                                                                                                    
                                                                                                    
                                                                                                    
                                                                                                    
                                                                                                    
                                                                                                    
                                                                                                    
                           
<?xpacket end="w"?>
	</metadata>
<title>T_e4_backseat</title>
<g id="Layer_2_1_">
	<g id="Layer_6">
		<g>
			<path d="M98.3,448c-23,1.7-45.4,1.6-67-5.8c-16.1-5.6-23.5-18.2-26.5-34.7c-3.3-18.3-3-36.7-2.8-55c0.1-11.6,4-22.2,10-32.1
				c6-9.9,14.7-16.6,25.8-21.3c-6.9-8.1-10.2-18-11.4-28.2c-1.1-8.7,0.4-17.8,1-26.7c0.2-3,0.8-5.9,1.3-8.8
				c3.7-20.8,13.1-39.4,23.8-57.3c6.6-11,13.6-21.9,21.8-31.6c9.2-10.9,19.5-20.9,30.2-30.4c10.9-9.7,22.8-18.4,34.4-27.4
				c3.1-2.4,6.6-4.3,10.1-6.1c13.7-7.2,27.4-14.7,42.5-18.3c12.3-2.9,24.9-4.1,37.6-1.6c11.9,2.4,20.4,9.3,26.2,20.8
				c2.1-4,4-7.5,5.9-11c3.8-7,6.8-14.8,11.8-20.8c5.4-6.4,12.7-11.4,19.5-16.5c11.3-8.5,25.1-10.4,38.4-13.5
				c13.2-3.1,26.4-6.5,39.7-8.4c9.4-1.4,19.1-1.1,28.6-0.3c3.7,0.3,7,4,10.7,6.2c13.8-9.6,29.6-13.8,46.8-13.9
				c22.8-0.1,45.6-0.6,68.4-0.8c5.3,0,10.6,0.5,15.9,1c9.2,0.9,18.3,9.5,20.1,18.8c0.3,1.8,0.9,3.5,1.4,5.5c4-2.3,7.7-4.7,11.6-6.6
				c8.6-4.1,17.1-8.4,25.9-11.8c17.7-6.8,36.2-9.6,55-8.6c12,0.6,24.2,2.2,35.8,5.4c13.2,3.7,25.6,10,38.6,14.6
				c3.7,1.3,8,0.9,12,0.9c11.6,0.2,23.3,0.2,34.9,0.3c1,0,2,0.4,2.9,0.4c16.8,0,33.4,2.7,49.6,6.4c12.2,2.8,25,5.8,33.7,16.2
				c4,4.8,7.9,9.8,10.8,15.3c8.1,15.6,15.5,31.5,23.1,47c2.6-1.8,6.2-4.8,10.2-6.8c7.2-3.6,14.4-7.2,22-9.8
				c10.8-3.8,22.1-2.1,33.1-0.7c6.5,0.8,12.8,2.7,19.1,4.7c13,4.2,24.3,11.4,34.3,20.8c0.8,0.8,1.6,1.5,2.5,2.3
				c6.1-11.1,14.5-15.1,27.3-12.5c14.2,2.9,28.7,5.2,42.5,9.7c15.1,4.8,30,11.1,41.6,22.8c2.9,2.9,5.1,6.5,7.1,10.1
				c7,12.7,13.5,25.5,17.3,39.7c3.9,14.8,9.5,29.1,13.6,43.8c3.9,13.7,7,27.7,10,41.6c2.4,10.9,3.9,22,5.9,33
				c1.5,8.5,3.7,17,4.7,25.5c1,8.4,1.4,17,1.2,25.4c-0.7,19.5-1.9,39-2.9,58.5c-0.4,7.8-1.9,15.5-5.6,22.3c-2,3.6-5.6,6.9-9.2,8.8
				c-7.2,3.8-15.2,5-23.5,5.1c-10.1,0.1-20.2,0.9-29.7,1.4c-3.3,14.2-5.8,28.6-10.2,42.3c-4.6,14.5-14,25.5-29.7,29
				c-7.7,1.7-15.5,2.7-24.5,4.2c3.2,26.6,1.3,53.2-10.6,78.6c10.7,6.2,14,15.7,14.6,27.7c0.6,11.3-2.3,21.9-4,32.7
				c-1.7,11-5.5,21.7-9.1,32.2c-7.3,21.3-20.6,37.7-41.6,47c-14,6.2-28.2,12-42.3,17.8c-16.6,6.7-33.3,13.3-50,19.7
				c-8,3-16.3,5.3-24.4,8c-10.3,3.3-20.6,7-31,9.9c-20.4,5.7-40.9,11.6-62.5,9.4c-7.9-0.8-16-1.1-22.5-6.7c-2.6-2.2-4.2-0.7-6.2,1.1
				c-15.5,13.4-33.1,22.6-53.1,27.6c-18.1,4.5-36.5,3.7-54.8,4.2c-8.9,0.2-17.7,2.2-26.6,3.3c-1.6,0.2-3.3,0.5-4.9,0.5
				c-9.3,0-18.7,0.5-28-0.1c-16-0.9-32-2.4-48-3.7c-4.5-0.4-8.9-0.9-13.4-1.1c-13.6-0.6-25.6-6-37.3-12.2c-0.9-0.5-1.5-1.3-2.2-1.9
				c-9.6,6.3-20.4,7.5-31.3,8c-22.2,1-44.1-1.9-66-5c-8.6-1.2-17.5-2.7-25.5-5.7c-10.7-4-21.1-10.2-26.5-20.5
				c-4.1-7.8-10.4-9-17.2-10.6c-13.1-3.2-26.6-5.4-39.4-9.5c-12-3.8-23.4-9.5-35.1-14.5c-10.2-4.4-20.3-8.7-30.3-13.5
				c-5.5-2.6-10.6-6-15.8-9.1c-4.6-2.6-9.3-5-13.6-7.9c-9.3-6.2-18.6-12.4-27.5-19.2c-9.6-7.4-19.1-14.9-27.8-23.3
				c-6.5-6.3-11.8-13.8-17.1-21.1c-9.3-12.8-18.3-25.7-27.1-38.8c-2.9-4.3-5-9.3-6.8-14.2c-4.1-11.1-8.5-22.1-11.7-33.5
				c-2.3-8.2-2.6-16.9-3.9-25.3c-0.4-2.6-1.9-5.1-1.7-7.6c0.6-12.5,1.3-25,2.6-37.5c0.8-7.7,2.4-15.3,4.4-22.7
				c1.7-6.4,4.3-12.5,6.8-18.6c2.4-5.8,5.1-11.4,7.9-17.1C94.4,454.3,96.3,451.4,98.3,448z M1022.5,133.2c-1.7-1.8-2.8-2.9-3.9-4.1
				c-14.6-16-32-26.8-53.4-31.3c-22.7-4.7-43.4-0.8-61.7,13.7c-3.7,2.9-6.6,6.8-10.1,10.5c-1-2.9-1.9-5.4-2.7-7.9
				c-6.3-19.5-15.1-37.7-26.1-54.9c-6-9.4-14-15.7-24.6-19.2c-19-6.4-38.6-8.9-58.4-10.2c-15.1-1-30.2-2.7-45.3,0.8
				c-1.7,0.4-3.9-0.5-5.7-1.2c-7.8-3-15.4-6.5-23.2-9.2c-11.8-4-23.5-9.3-35.7-10.8c-39.9-4.9-76.8,4.2-109.6,28.1
				c-1.4,1-2.8,1.8-4.9,3.1c0-1.9,0-2.7,0-3.5c0.1-18.6-7.5-26.7-26.2-26.9c-22.3-0.3-44.6-0.2-67,0c-20.2,0.2-39.5,3.6-55.2,17.8
				c-10.1-10.9-11.2-11.3-26.3-10.4c-1.8,0.1-3.7,0.1-5.5,0.5c-19.1,4-38.2,7.7-57.2,12.2c-25.3,6-44.2,19.9-54,45
				c-3.1,7.9-7.9,15.2-12.6,24.1c-0.7-3.2-1.1-4.8-1.4-6.3c-3-13.9-11.5-22.7-25.3-25.1c-7.9-1.4-16.3-1.2-24.3,0
				c-22.3,3.2-41.6,13.8-60,26.1c-40.2,26.9-73,60.5-94.3,104.5c-8.3,17.1-14.8,34.6-16.1,53.8c-1,14.4,0.8,28.3,9,40.7
				c2,3,3.8,6,5.9,9.2c-1.3,0.5-2,0.8-2.8,1.1c-21.7,7-32.7,22.9-35.2,44.7c-2.4,20.3-1.4,40.6,2.5,60.7c2.9,15.2,11.2,25,26.4,29.2
				c17.6,4.9,35.3,6.7,53.4,4.7c6.4-0.7,12.7-1.6,18.5-2.4c-5.9,11.2-12.4,22.2-17.7,33.8c-17,37.2-18.7,76.2-8.2,114.9
				c11,40.6,34.7,74.6,64.2,103.9c26.1,26,57.3,45,90.6,60.6c33.3,15.6,67.3,29.1,104.1,34.1c1.3,0.2,3,1.6,3.6,2.8
				c8.5,17.1,23,25.9,41,29.6c25.1,5.1,50.5,7.5,76,6.8c11.2-0.3,23.1,0.1,30.9-11.1c9.5,9,20.8,14,33.1,15.9
				c15.5,2.3,31.1,4,46.7,5.1c25.1,1.8,50.3,3.3,75.1-2.7c1.4-0.3,3-0.2,4.5-0.2c11.7-0.1,23.3,0.2,34.9-0.5
				c23.5-1.5,45-9.1,63.9-23.3c5.2-3.9,10.1-8.1,15.2-12.2c6.1,5.9,13.2,9.7,21.4,10c9.8,0.4,20,1.4,29.3-0.8
				c22.4-5.1,44.7-10.8,66.4-18.4c37.2-13.1,74.1-27.3,110.7-41.9c17.1-6.8,31-18.4,39-35.6c10.9-23.6,16.4-48.6,17.8-74.4
				c0.7-12.4-4.2-18.6-16-22.8c-0.6-0.2-1-0.7-1.7-1.1c15.4-27.6,17.4-57,12.1-87.6c5.9-0.6,11.5-1.3,17.1-1.8
				c22.8-2,35.4-12.1,41.1-34.3c2.9-11.2,4.4-22.9,6-34.4c0.6-4.3,1.7-5.7,6.3-5.8c13-0.2,26-0.7,38.9-1.7
				c14.4-1.2,21.6-7.5,22.8-21.9c2-23.7,4.3-47.6,3.5-71.3c-1.3-42.3-9.5-83.7-21.8-124.2c-6.3-20.8-13.5-41.5-21.2-61.8
				c-8.5-22.3-25-36.7-47.8-43.5c-15.3-4.6-30.8-8.5-46.4-11.9c-15.3-3.3-23.2,5.3-22,18.2C1023,131.2,1022.8,131.7,1022.5,133.2z"
				/>
			<path class="st0" d="M1022.5,133.2c0.3-1.5,0.4-2,0.4-2.5c-1.2-12.9,6.6-21.6,22-18.2c15.6,3.4,31.1,7.3,46.4,11.9
				c22.7,6.8,39.3,21.2,47.8,43.5c7.7,20.4,14.9,41,21.2,61.8c12.3,40.5,20.5,81.9,21.8,124.2c0.8,23.7-1.5,47.6-3.5,71.3
				c-1.2,14.4-8.4,20.7-22.8,21.9c-12.9,1.1-25.9,1.6-38.9,1.7c-4.6,0.1-5.7,1.5-6.3,5.8c-1.6,11.5-3.1,23.2-6,34.4
				c-5.7,22.2-18.3,32.2-41.1,34.3c-5.6,0.5-11.2,1.2-17.1,1.8c5.3,30.6,3.3,60-12.1,87.6c0.6,0.4,1.1,0.9,1.7,1.1
				c11.8,4.1,16.7,10.3,16,22.8c-1.4,25.8-6.9,50.8-17.8,74.4c-8,17.2-21.9,28.8-39,35.6c-36.7,14.6-73.5,28.9-110.7,41.9
				c-21.6,7.6-44,13.2-66.4,18.4c-9.3,2.2-19.5,1.2-29.3,0.8c-8.2-0.3-15.3-4.1-21.4-10c-5.1,4.1-10.1,8.4-15.2,12.2
				c-18.9,14.2-40.4,21.8-63.9,23.3c-11.6,0.7-23.3,0.4-34.9,0.5c-1.5,0-3.1-0.1-4.5,0.2c-24.9,6-50,4.5-75.1,2.7
				c-15.6-1.1-31.2-2.7-46.7-5.1c-12.3-1.8-23.6-6.9-33.1-15.9c-7.8,11.2-19.7,10.8-30.9,11.1c-25.6,0.7-51-1.7-76-6.8
				c-18-3.7-32.5-12.5-41-29.6c-0.6-1.3-2.3-2.7-3.6-2.8c-36.8-5-70.8-18.5-104.1-34.1c-33.3-15.6-64.5-34.6-90.6-60.6
				c-29.5-29.4-53.2-63.4-64.2-103.9c-10.5-38.7-8.8-77.7,8.2-114.9c5.3-11.6,11.8-22.6,17.7-33.8c-5.7,0.7-12.1,1.7-18.5,2.4
				c-18.1,1.9-35.9,0.2-53.4-4.7c-15.2-4.2-23.5-14-26.4-29.2c-3.8-20.1-4.8-40.4-2.5-60.7c2.5-21.8,13.5-37.7,35.2-44.7
				c0.8-0.2,1.5-0.6,2.8-1.1c-2.1-3.2-3.9-6.3-5.9-9.2c-8.2-12.4-9.9-26.3-9-40.7c1.3-19.1,7.9-36.7,16.1-53.8
				c21.3-44,54.1-77.6,94.3-104.5c18.4-12.3,37.8-22.8,60-26.1c8-1.2,16.4-1.3,24.3,0c13.7,2.4,22.3,11.2,25.3,25.1
				c0.3,1.6,0.7,3.2,1.4,6.3c4.7-8.9,9.5-16.2,12.6-24.1c9.8-25.1,28.7-39,54-45c18.9-4.5,38.1-8.2,57.2-12.2
				c1.8-0.4,3.6-0.4,5.5-0.5c15.1-0.9,16.2-0.5,26.3,10.4c15.7-14.1,35-17.6,55.2-17.8c22.3-0.2,44.6-0.3,67,0
				c18.7,0.3,26.2,8.4,26.2,26.9c0,0.8,0,1.6,0,3.5c2.1-1.3,3.6-2.1,4.9-3.1c32.8-24,69.7-33,109.6-28.1
				c12.2,1.5,23.9,6.8,35.7,10.8c7.9,2.7,15.5,6.2,23.2,9.2c1.8,0.7,4,1.6,5.7,1.2c15.1-3.5,30.2-1.8,45.3-0.8
				c19.8,1.3,39.4,3.8,58.4,10.2c10.6,3.5,18.6,9.8,24.6,19.2c11,17.2,19.9,35.4,26.1,54.9c0.8,2.5,1.7,5,2.7,7.9
				c3.5-3.7,6.4-7.6,10.1-10.5c18.3-14.5,39-18.3,61.7-13.7c21.4,4.4,38.8,15.3,53.4,31.3C1019.7,130.3,1020.8,131.4,1022.5,133.2z
				 M830.9,260.8c-0.5-7.3-0.8-14.6-1.6-21.9c-4.7-39-14.8-76.4-31.1-112.2c-8.6-18.9-18.5-36.9-31.8-53
				c-13.1-15.9-31.4-24-49.1-32.6c-20.3-9.9-42-16-64.8-16.9c-18.3-0.7-35.9,2.9-52.4,10.7c-35.5,16.5-63.8,41.5-84.4,74.8
				c-14.5,23.5-28.8,47.5-36,74.5c-16.3,61.3-10.3,120.3,21.8,175.6c5,8.7,10.7,18,18.4,23.9c9.9,7.6,20.4,14.9,31,21.3
				c23.9,14.4,50.7,21.8,78.6,24.2c2.3,0.2,5.4-1.3,7.2-2.9c5-4.4,9.2-9.7,14.4-13.8c40.4-32.9,86.8-46.8,138.6-43.1
				c4.4,0.3,6.9-1,9.4-4.5C821.1,333.7,830.4,298.7,830.9,260.8z M623.5,647c-0.3-6.2-1.9-11-6.6-15.3c-5.1-4.7-10.1-10-13.3-16
				c-11.9-22.4-17.5-46.4-14.3-71.9c0.7-5.4-0.1-10.1-1.9-15.1c-10.5-28.5-22.8-56.3-36.5-83.4c-3-5.9-6-11.9-8.6-18
				c-6.6-15.5-18-25.2-34.5-28.9c-1.1-0.3-2.2-0.6-3.4-0.9c-22.2-5.4-44.7-6.4-67.4-6.9c-19.4-0.4-33.8,8.2-44.8,22.8
				c-6.5,8.5-11.9,18.2-16.4,28c-5.8,12.7-10.9,25.7-10.9,40.1c0,16.7-0.1,33.3-1.3,49.9c-1.3,18.3-3.4,36.6-14.3,52.4
				c-2.2,3.1-1.8,6.9,1.2,10.1c4.8,4.9,6.9,11.1,8.4,17.8c3.2,14.3,6.5,28.6,10.6,42.6c6.7,23.2,14.3,46.1,20.9,69.3
				c3.7,13.1,4.4,26.6,1.2,40.1c-2.9,11.9-10.3,19.5-22,23c-1.8,0.5-3.7,1-5.8,1.6c4,6.7,9.5,10.9,16.1,13
				c8.2,2.6,16.7,4.7,25.2,5.9c21.5,3.2,43.1,4.8,64.7,2.8c9.3-0.9,10.3-1.8,9.9-11.2c-0.7-16.6-2.4-33.2-3.3-49.8
				c-0.9-15-1.5-29.9-1.8-44.9c-0.1-5.9,2.9-9.4,6.8-9.7c3.9-0.3,7.3,2.7,8.7,8.1c1.2,4.7,2.3,9.4,2.8,14.2
				c1.5,15.7,2.5,31.5,4.1,47.3c1.2,11.4,2.9,22.8,5.2,34c0.8,3.7,3.6,7.8,6.7,9.9c5.1,3.3,10.9,6.2,16.8,7.2
				c28.6,4.9,57.6,6.1,86.6,5.6c0.5,0,1.1-0.4,1.7-0.7c-2.5-3.3-4.9-6.3-7-9.4c-9.1-13.8-11.9-29.6-13.2-45.6
				c-1.9-23.5-1.3-47,1.5-70.3c1.2-10.4,2.7-20.8,4.6-31.1c1.6-8.7,7.5-13.4,16-15.1C618.5,647.8,621,647.5,623.5,647z
				 M1017.7,372.3c-0.4-2.7-0.4-4.5-0.9-6.3c-5.4-22.5-10.9-45-16.4-67.5c-1.4-5.8-3.2-11.6-4.1-17.5c-0.6-4,0.6-7.9,4.9-9.4
				c4.2-1.5,7.8,0.6,10,3.9c2.3,3.4,4.2,7.3,5.2,11.2c6.5,25.5,12.8,51,18.8,76.6c1.1,4.7,2.9,5.5,7.4,5.2
				c13.2-1.1,26.6-2.4,39.8-2.1c17.9,0.4,27.3,8.8,29.5,26.5c1.4,11.5,0.8,23.2,0.7,34.9c0,3.9,0.9,5.5,5,5.2
				c11.8-0.9,23.6-1.8,35.4-2.3c5.8-0.2,8.6-3,8.8-8.6c1-24.3,3.8-48.6,2.7-72.8c-1.7-36.3-8.4-72.2-18.7-107.1
				c-6.3-21.4-13.1-42.7-20.8-63.6c-6.2-16.9-16.5-31.1-35-36.5c-15.6-4.6-31.4-8.7-47.1-12.9c-0.4-0.1-0.9,0.3-1.5,0.6
				c0,1.1-0.2,2.3,0,3.4c2.4,12.6,4.5,25.3,7.3,37.7c3.7,16.4,8.1,32.7,12,49c1.5,6.4-0.4,11.1-4.5,12.3c-4,1.2-8.2-1.8-10.6-7.9
				c-1.5-3.9-2.9-7.8-4.2-11.8c-5.6-17.3-8.4-35.6-18.6-51.4c-6.9-10.8-13.5-21.7-23.1-30.5c-19.1-17.6-53.4-27.2-76.9-14.5
				c-15,8.1-23.4,25.3-18.7,41.9c2.2,8,4.3,16.1,5.8,24.3c1,5.7-2.1,10.1-6.4,10.9c-4.5,0.9-8.3-1.9-10-7.7
				c-3.6-12.1-7.2-24.3-10.6-36.5c-7.7-28-16.6-55.5-32.9-80.1c-4.3-6.4-9.5-10.7-16.9-13.1c-21.3-6.9-43.4-8.5-65.5-9.8
				c-0.6,0-1.2,0.3-1.8,0.4c-0.3,0.4-0.5,0.8-0.8,1.1c0.7,0.3,1.6,0.5,2.2,1C781.3,60.2,793.1,74,802,90c21.5,38.4,36,79.3,44,122.7
				c6.9,37.5,7.1,74.5-4.4,111.2c-0.7,2.1-0.5,4.7,0,6.9c4.9,20.4,9.8,40.8,15,61.2c1.8,7.2,4.5,14.1,7.1,22
				C913.2,391.6,965,381.7,1017.7,372.3z M201.4,384.9c39.2-7.6,77.2-7.9,115.1,5.4c0.3-2.1,0.5-3.7,0.6-5.3
				c2.7-31.2,0.6-62.3-1.6-93.4c-0.1-1.7-0.4-3.3-0.4-5c0-6.8,3.4-11.4,9-11.8c5.6-0.4,10,3.5,10.3,10.5c1.2,23.6,2.4,47.3,2.8,70.9
				c0.3,12.8-1.1,25.6-1.2,38.4c0,2.5,1.2,5.9,3.1,7.3c10.5,8.2,19.3,17.3,21.2,32.5c1.3-2.1,1.9-3,2.4-4c4.7-8,8.9-16.5,14.4-24
				c14.7-20.2,33.8-32.8,60-31.7c6.8,0.3,13.7,0,20.5,0.4c3.9,0.2,5.2-1.1,5.6-4.9c1.1-10.4,2.6-20.8,3.7-31.3
				c0.3-2.6,0-5.4-0.8-7.8c-21.6-66-20.2-130.6,12.1-193c14.2-27.4,29.5-54.2,52.8-75.3c1.1-1,2.2-2.3,2.5-3.6
				c1.8-7.6,3.9-15.2,5-22.9c1-6.7-0.8-8.3-7.6-8.5c-21-0.4-42-0.9-63-1.1c-7-0.1-14,0.6-20.9,1.1c-20.9,1.7-32.5,13.9-38,33.4
				c-3.6,12.5-7.5,24.9-11.9,37.1c-8.2,22.7-16.8,45.2-25.4,67.8c-0.7,2-1.8,4.5-3.4,5.3c-2.8,1.3-6.6,2.7-9,1.8
				c-2.5-1-4.2-4.6-5.5-7.4c-0.7-1.6-0.1-4,0.5-5.9c2.8-8.2,5.7-16.3,8.8-24.4c8.9-23,18.4-45.7,26.5-69c2.9-8.4,3.3-17.9,3.8-27
				c0.3-6.5-1-7.1-7.6-6.5c-24.4,2.1-48,8-71.3,15c-11.2,3.4-21.2,10.6-27.4,20.8c-7.9,12.9-15,26.4-21,40.3
				c-18,41.6-33.2,84.3-45.3,128.1c-0.7,2.6-1,5.7-0.5,8.3c7.7,43.5,2.3,85.6-13.1,126.7C205.5,376.3,203.6,380.1,201.4,384.9z
				 M827.1,527.3c0.9-1.4,1.3-1.8,1.4-2.3c1.7-5.6,3.4-11.1,4.9-16.8c7.9-30,9.2-60.6,8-91.3c-0.2-6.5-3.3-13.1-5.9-19.3
				c-2-4.9-6.5-7.3-11.9-7.9c-7.8-0.8-15.6-1.9-23.3-2.8c-38.4-4.6-75.1,0.5-109.5,19.1c-18.7,10.1-36.4,22-47.6,40.3
				c-13.8,22.6-26.4,46-31,72.7c-3,17-7,33.9-4.5,51.5c4.5,31.6,19.4,55,50.5,65.9c10.2,3.6,20.5,7.3,31.1,9.2
				c20.4,3.8,41.1,6.4,61.7,9.3c6.8,1,11.1,4.1,11.2,9.2c0.1,5.3-4.2,9.1-11.3,9.5c-3.5,0.2-7.1,0.3-10.5-0.4
				c-22.3-4.1-44.5-8.4-66.7-12.6c-3.5-0.7-7.3-1.2-10.8-0.7c-12.4,1.6-24.7,4-37.1,5.5c-5,0.6-7.2,2.4-7.9,7.4
				c-3.9,29.3-6.7,58.6-4.2,88.2c0.8,9.1,2.4,18.2,4.6,27c3.5,13.8,12,23.3,26.7,24.9c11.9,1.3,23.9,1.7,35.8,1.5
				c32.7-0.6,59.2-14.4,80-39.2c42.8-51.1,68.4-109.6,74.8-176.2c1.3-14,1.1-28-3.2-41.6c-3.3-10.6-7.2-12.7-18.1-12
				c-10,0.7-20,1.4-29.9,1.2c-17-0.4-33.9-1.6-50.9-2.6c-2.6-0.1-5.3-0.5-7.8-1.3c-3.9-1.3-6.1-4.1-5.9-8.3c0.2-4.2,2.7-6.8,6.7-7.7
				c2.7-0.6,5.6-0.7,8.4-0.6C765.8,526.4,796.8,526.9,827.1,527.3z M346.4,491c-1.7-17.1-3.5-35.2-5.4-53.2
				c-0.8-7.4-4.5-13.1-10.3-17.6c-12-9.3-25.8-14.5-40.4-17.7c-28-6.1-55.9-4.7-83.9,0.5c-16.9,3.1-33.2,7.3-47.4,17.5
				c-33.7,24-54.5,56.4-60.5,97.4c-3.3,22.8-3.5,46.1,3.6,68.4c11.8,36.9,32.5,69,60.5,95.2c46.8,43.8,103.6,69.6,165.4,84.9
				c11,2.7,22.7,3,34.1,3.1c6.9,0.1,10.9-4.5,11.6-11.5c0.7-6.6,1.6-13.5,0.3-19.8c-3-15-6.8-29.9-11.3-44.5
				c-8.2-26.7-18.2-52.9-22.8-80.7c-0.4-2.3-1.5-5-3.1-6.6c-7.4-7.3-16.5-12.2-26.5-13.7c-19.4-3-39-4.8-58.5-7.1
				c-5.4-0.7-8.7-3.8-8.4-7.6c0.3-3.9,3.7-6.3,9.3-6.2c6,0.2,12,0.6,18,1c18.1,1.3,36.2,2.5,54.3,3.8c5.8,0.4,9.7-2.2,11.5-7.5
				c2.1-6.3,4.8-12.6,5.4-19.1C343.9,530.7,345,511.4,346.4,491z M1094.3,424.2c-0.5-11.7-0.5-20.2-1.4-28.6
				c-0.8-8.2-3.2-10.5-11.4-11c-7.8-0.5-15.7-0.8-23.4,0.2c-17.3,2.2-34.6,5.1-51.8,8c-42.5,7.1-84.1,17.4-124.6,32.4
				c-12.7,4.7-20.8,12.1-22.9,25.5c-1.6,10.2-2.3,20.6-4.3,30.6c-3.4,16.6-7.7,33.1-11.3,49.7c-0.4,2,0.1,4.5,0.9,6.4
				c2.7,6.4,6.6,12.4,8.6,19c4.3,14.2,4.2,29,2.9,43.7c-4.5,49.7-19.5,96.2-45.1,139.1c-7.9,13.3-17.4,25.6-25.9,38.6
				c-4.8,7.3-3.1,11.5,5.5,12.1c9.2,0.7,19,1.3,27.8-0.9c22.6-5.6,45.1-11.9,67.1-19.7c33.9-12,67.3-25.3,100.8-38.5
				c13.5-5.3,24.8-13.9,31.1-27.5c9.9-21.1,14-43.7,16.5-66.6c0.4-3.9-1.2-5.8-5.1-6.4c-8.7-1.4-17,0.3-25.1,3
				c-23.1,7.5-46.2,15.3-69.3,22.8c-3.3,1.1-6.9,2.1-10.2,1.8c-2.4-0.2-5.8-2-6.5-3.9c-0.7-1.9,0.7-5.5,2.4-7.3
				c2.2-2.4,5.3-4,8.3-5.4c26.7-12.4,54.8-20.7,83.2-28.2c1.8-0.5,4-1.3,4.9-2.7c15.5-24.7,18.4-51.6,14.3-79.9
				c-0.5-3.4-2.2-4-5.1-3.7c-12.3,1.2-24.5,2.4-36.8,3.5c-7,0.6-13.9,1.4-20.9,1.3c-4.6-0.1-7.7-4.2-7.1-8.1c0.8-4.4,3.9-5.8,8-5.8
				c3.5,0,7-0.1,10.5-0.5c27.8-3.4,55.5-7.4,83.3-10.3c12.4-1.3,20.2-6.6,23.7-18.5c0.8-2.6,1.8-5.1,2.1-7.7
				C1090.3,460.8,1092.4,441,1094.3,424.2z M22.8,369.7c1.4,11.4,2.9,24.8,4.9,38.1c0.9,6.5,4.3,11.7,10.9,13.7
				c5.6,1.7,11.3,3.2,17,4c23.9,3.5,47.2,0.1,70-7c5.1-1.6,9.8-4.7,14.5-7.4c9.8-5.7,19.4-11.5,29.1-17.4c2.8-1.7,6.1-3.3,7.8-5.9
				c5.1-7.9,10.8-15.8,14-24.6c10.3-27.9,15.4-56.8,13.8-86.8c-0.8-14.4-2.7-28.5-7-42.3c-2.6-8.5-7.3-15.6-15-19.8
				c-3.8-2-8.9-1.7-13.4-2.3c-5.6-0.7-11.4-0.7-16.9-1.8c-4.5-0.9-8.9-2.7-12.9-5c-3.6-2.1-5.1-5.9-3.1-10c2-3.9,5.5-4.6,9.8-4.2
				c13.4,1.4,26.8,2.8,40.2,3.2c4.2,0.1,9.7-1.9,12.5-4.9c6.2-6.6,12.9-13.7,16.2-21.9c7-17.2,12.1-35.2,17.5-53
				c1.4-4.7,1.5-9.9,1.3-14.8c-0.5-10.1-5.7-15.7-15.8-15.6c-8.2,0-16.7,1-24.6,3.2c-27.4,7.7-50.2,23.6-71.3,42.1
				c-30.8,27-55.2,58.7-68.5,98c-4.9,14.4-7.8,29.2-3.7,44.2c4.9,17.9,14,27.3,30.5,29.3c12.3,1.5,24.5,1.8,36.8-0.6
				c5.8-1.1,10.5,1.9,11.4,6.4c0.9,4.7-2.1,8.9-8.2,10c-7.4,1.3-14.9,2.3-22.3,2.3c-8.6-0.1-17.3-1.2-25.8-2.5
				c-23.9-3.6-41.2,5.8-46.8,26.9C23.6,351,23.9,359.4,22.8,369.7z M568,435.9c9.7,21.8,19.3,43.4,28.7,64.5
				c8.1-17.2,16.2-34.5,24-51.2C603.2,444.8,585.9,440.4,568,435.9z M835.3,374.9c-1.6-7.4-3.1-14.2-4.6-20.9c-0.4,0-0.8,0-1.2,0
				c-3.5,6-7,11.9-10.8,18.3C824.4,373.1,829.3,373.9,835.3,374.9z M209.7,215.3c1.6-4.9,2.7-8.7,3.9-12.4c-0.3-0.1-0.6-0.3-1-0.4
				c-2.7,2-5.4,4.1-8.3,6.2C206.1,210.8,207.5,212.6,209.7,215.3z M489,377.8c-2.3-3.9-4.2-7.1-6.4-10.9
				C479.6,377.2,479.9,377.7,489,377.8z"/>
			<path d="M830.9,260.8c-0.5,37.8-9.8,72.8-31.8,104.1c-2.5,3.6-5,4.8-9.4,4.5c-51.8-3.7-98.2,10.2-138.6,43.1
				c-5.1,4.2-9.4,9.5-14.4,13.8c-1.9,1.6-4.9,3.1-7.2,2.9c-27.9-2.3-54.7-9.8-78.6-24.2c-10.6-6.4-21.1-13.8-31-21.3
				c-7.7-5.9-13.4-15.2-18.4-23.9c-32-55.4-38.1-114.4-21.8-175.6c7.2-26.9,21.4-50.9,36-74.5c20.6-33.3,48.9-58.3,84.4-74.8
				c16.5-7.7,34.2-11.4,52.4-10.7c22.8,0.9,44.4,7,64.8,16.9c17.7,8.6,36,16.7,49.1,32.6c13.3,16.1,23.2,34.1,31.8,53
				c16.3,35.8,26.4,73.3,31.1,112.2C830.2,246.2,830.4,253.5,830.9,260.8z M634.1,213.8c1.2,7.1,2.4,15.7,4.3,24
				c1.1,4.8,4.4,8.3,9.8,8.8c5.2,0.5,9.1-1.9,11.5-6.3c1.7-3,3.2-6.2,4.1-9.6c3.9-14.6,2.6-29.1-2-43.3c-2.3-7-7.3-10.6-13.2-10.1
				c-5.4,0.5-10.5,5.4-11.6,12.1C635.8,197,635.2,204.6,634.1,213.8z"/>
			<path d="M623.5,647c-2.6,0.5-5,0.8-7.4,1.3c-8.4,1.7-14.4,6.4-16,15.1c-1.8,10.3-3.3,20.7-4.6,31.1c-2.8,23.4-3.4,46.9-1.5,70.3
				c1.3,16,4.1,31.8,13.2,45.6c2.1,3.2,4.5,6.1,7,9.4c-0.6,0.3-1.2,0.7-1.7,0.7c-29,0.5-58-0.8-86.6-5.6c-5.9-1-11.8-3.9-16.8-7.2
				c-3.1-2-6-6.2-6.7-9.9c-2.3-11.2-4-22.6-5.2-34c-1.7-15.7-2.6-31.5-4.1-47.3c-0.5-4.8-1.6-9.5-2.8-14.2c-1.4-5.5-4.8-8.4-8.7-8.1
				c-3.9,0.3-6.9,3.8-6.8,9.7c0.3,15,1,30,1.8,44.9c0.9,16.6,2.6,33.2,3.3,49.8c0.4,9.4-0.6,10.3-9.9,11.2
				c-21.7,2-43.3,0.4-64.7-2.8c-8.5-1.3-17-3.3-25.2-5.9c-6.5-2.1-12-6.3-16.1-13c2.2-0.6,4-1.1,5.8-1.6c11.7-3.5,19.2-11.1,22-23
				c3.2-13.4,2.5-27-1.2-40.1c-6.6-23.2-14.3-46.1-20.9-69.3c-4.1-14.1-7.4-28.4-10.6-42.6c-1.5-6.7-3.7-12.8-8.4-17.8
				c-3.1-3.2-3.4-6.9-1.2-10.1c10.9-15.8,13-34.1,14.3-52.4c1.2-16.6,1.3-33.3,1.3-49.9c0-14.5,5.1-27.5,10.9-40.1
				c4.5-9.8,9.9-19.4,16.4-28c11.1-14.5,25.4-23.2,44.8-22.8c22.7,0.5,45.3,1.5,67.4,6.9c1.1,0.3,2.2,0.7,3.4,0.9
				c16.5,3.7,27.9,13.4,34.5,28.9c2.6,6.1,5.6,12.1,8.6,18c13.8,27.1,26,54.9,36.5,83.4c1.8,5,2.6,9.7,1.9,15.1
				c-3.2,25.5,2.4,49.4,14.3,71.9c3.2,6,8.2,11.4,13.3,16C621.6,636,623.2,640.8,623.5,647z M491.7,567.5c-0.3,0-0.7-0.1-1-0.1
				c0-2.7,0.3-5.4-0.1-8c-0.8-6.1-1.5-12.2-2.8-18.2c-1.6-7.3-6-11.2-11.6-11.2c-5.7-0.1-9.8,3.8-11.7,11c-0.2,0.6-0.4,1.3-0.5,1.9
				c-2.7,18.5-3,36.8,3.7,54.6c2.3,6.2,5.5,8.8,10.3,8.5c4.7-0.3,8.2-3.1,9.4-9.5C489.1,586.9,490.2,577.1,491.7,567.5z"/>
			<path d="M1017.7,372.3c-52.7,9.3-104.5,19.3-154.1,41.6c-2.6-7.9-5.3-14.8-7.1-22c-5.2-20.3-10.1-40.7-15-61.2
				c-0.5-2.2-0.6-4.8,0-6.9c11.4-36.7,11.3-73.7,4.4-111.2c-8-43.4-22.5-84.2-44-122.7c-8.9-16-20.7-29.8-34.9-41.4
				c-0.6-0.5-1.5-0.7-2.2-1c0.3-0.4,0.5-0.8,0.8-1.1c0.6-0.1,1.2-0.4,1.8-0.4c22.1,1.3,44.2,2.9,65.5,9.8
				c7.4,2.4,12.6,6.7,16.9,13.1c16.3,24.5,25.2,52,32.9,80.1c3.3,12.2,7,24.3,10.6,36.5c1.7,5.8,5.5,8.6,10,7.7
				c4.3-0.9,7.4-5.3,6.4-10.9c-1.5-8.2-3.5-16.3-5.8-24.3c-4.6-16.6,3.7-33.8,18.7-41.9c23.5-12.7,57.8-3,76.9,14.5
				c9.6,8.8,16.1,19.7,23.1,30.5c10.2,15.9,12.9,34.1,18.6,51.4c1.3,4,2.7,7.9,4.2,11.8c2.4,6,6.6,9.1,10.6,7.9
				c4.1-1.2,6.1-5.9,4.5-12.3c-3.9-16.4-8.3-32.6-12-49c-2.8-12.5-5-25.2-7.3-37.7c-0.2-1.1,0-2.3,0-3.4c0.7-0.3,1.2-0.7,1.5-0.6
				c15.7,4.3,31.5,8.3,47.1,12.9c18.5,5.4,28.8,19.6,35,36.5c7.7,20.9,14.5,42.2,20.8,63.6c10.3,35,17.1,70.8,18.7,107.1
				c1.1,24.2-1.6,48.5-2.7,72.8c-0.2,5.6-3,8.3-8.8,8.6c-11.8,0.5-23.6,1.4-35.4,2.3c-4.1,0.3-5-1.3-5-5.2
				c0.1-11.6,0.7-23.4-0.7-34.9c-2.2-17.7-11.6-26.1-29.5-26.5c-13.3-0.3-26.6,1-39.8,2.1c-4.5,0.4-6.3-0.5-7.4-5.2
				c-6-25.6-12.3-51.1-18.8-76.6c-1-3.9-2.9-7.8-5.2-11.2c-2.2-3.3-5.8-5.4-10-3.9c-4.3,1.5-5.5,5.4-4.9,9.4
				c1,5.9,2.7,11.7,4.1,17.5c5.5,22.5,11,45,16.4,67.5C1017.3,367.8,1017.3,369.6,1017.7,372.3z"/>
			<path d="M201.4,384.9c2.2-4.9,4.1-8.7,5.6-12.6c15.4-41.1,20.8-83.2,13.1-126.7c-0.5-2.7-0.2-5.7,0.5-8.3
				c12.1-43.7,27.3-86.4,45.3-128.1c6-13.9,13.2-27.4,21-40.3c6.2-10.2,16.2-17.4,27.4-20.8c23.3-7,46.9-12.9,71.3-15
				c6.6-0.6,7.9,0,7.6,6.5c-0.4,9.1-0.8,18.6-3.8,27c-8.1,23.2-17.7,46-26.5,69c-3.1,8.1-6,16.2-8.8,24.4c-0.6,1.8-1.2,4.3-0.5,5.9
				c1.3,2.8,3,6.5,5.5,7.4c2.5,1,6.3-0.4,9-1.8c1.6-0.8,2.7-3.3,3.4-5.3c8.5-22.6,17.2-45.1,25.4-67.8c4.4-12.2,8.4-24.6,11.9-37.1
				c5.5-19.5,17.1-31.7,38-33.4c7-0.5,14-1.2,20.9-1.1c21,0.2,42,0.6,63,1.1c6.8,0.1,8.5,1.8,7.6,8.5c-1.1,7.7-3.1,15.3-5,22.9
				c-0.3,1.3-1.4,2.7-2.5,3.6c-23.3,21.1-38.6,47.9-52.8,75.3c-32.3,62.4-33.7,127-12.1,193c0.8,2.4,1.1,5.2,0.8,7.8
				c-1.1,10.4-2.6,20.8-3.7,31.3c-0.4,3.8-1.7,5.1-5.6,4.9c-6.8-0.4-13.7-0.1-20.5-0.4c-26.2-1.1-45.2,11.5-60,31.7
				c-5.5,7.5-9.6,16-14.4,24c-0.6,0.9-1.2,1.9-2.4,4c-1.9-15.1-10.7-24.3-21.2-32.5c-1.8-1.5-3.1-4.9-3.1-7.3
				c0.2-12.8,1.5-25.6,1.2-38.4c-0.5-23.6-1.7-47.3-2.8-70.9c-0.3-6.9-4.7-10.9-10.3-10.5c-5.5,0.4-9,4.9-9,11.8
				c0,1.7,0.3,3.3,0.4,5c2.1,31.1,4.3,62.2,1.6,93.4c-0.1,1.6-0.4,3.2-0.6,5.3C278.6,377,240.6,377.3,201.4,384.9z"/>
			<path d="M827.1,527.3c-30.3-0.4-61.3-0.8-92.2-1.2c-2.8,0-5.7,0.1-8.4,0.6c-4,0.9-6.5,3.5-6.7,7.7c-0.2,4.2,2,7.1,5.9,8.3
				c2.5,0.8,5.2,1.1,7.8,1.3c17,1,33.9,2.1,50.9,2.6c10,0.3,20-0.5,29.9-1.2c10.9-0.7,14.7,1.5,18.1,12c4.3,13.6,4.6,27.6,3.2,41.6
				c-6.3,66.6-32,125.1-74.8,176.2c-20.7,24.8-47.3,38.6-80,39.2c-11.9,0.2-24-0.2-35.8-1.5c-14.6-1.6-23.2-11.1-26.7-24.9
				c-2.2-8.8-3.9-17.9-4.6-27c-2.6-29.6,0.3-58.9,4.2-88.2c0.7-5,2.9-6.8,7.9-7.4c12.4-1.5,24.7-3.9,37.1-5.5
				c3.5-0.5,7.3,0.1,10.8,0.7c22.3,4.1,44.5,8.5,66.7,12.6c3.4,0.6,7,0.6,10.5,0.4c7.1-0.4,11.4-4.2,11.3-9.5
				c-0.1-5.1-4.3-8.2-11.2-9.2c-20.6-2.9-41.3-5.6-61.7-9.3c-10.6-1.9-20.9-5.6-31.1-9.2c-31.1-10.9-46-34.3-50.5-65.9
				c-2.5-17.7,1.5-34.5,4.5-51.5c4.6-26.6,17.2-50.1,31-72.7c11.2-18.3,28.9-30.2,47.6-40.3c34.3-18.5,71.1-23.7,109.5-19.1
				c7.8,0.9,15.5,2,23.3,2.8c5.4,0.6,9.9,3,11.9,7.9c2.6,6.2,5.7,12.8,5.9,19.3c1.2,30.7-0.2,61.3-8,91.3
				c-1.5,5.6-3.3,11.2-4.9,16.8C828.4,525.4,828,525.8,827.1,527.3z"/>
			<path d="M346.4,491c-1.5,20.4-2.5,39.6-4.4,58.8c-0.7,6.5-3.3,12.8-5.4,19.1c-1.8,5.3-5.7,7.9-11.5,7.5
				c-18.1-1.3-36.2-2.6-54.3-3.8c-6-0.4-12-0.9-18-1c-5.6-0.1-9.1,2.3-9.3,6.2c-0.3,3.8,3,6.9,8.4,7.6c19.5,2.4,39.1,4.1,58.5,7.1
				c10,1.6,19.2,6.4,26.5,13.7c1.6,1.6,2.7,4.3,3.1,6.6c4.6,27.8,14.5,54,22.8,80.7c4.5,14.6,8.2,29.5,11.3,44.5
				c1.3,6.3,0.4,13.3-0.3,19.8c-0.7,7-4.7,11.6-11.6,11.5c-11.4-0.1-23.1-0.4-34.1-3.1c-61.7-15.3-118.5-41.2-165.4-84.9
				c-28-26.2-48.7-58.3-60.5-95.2c-7.1-22.3-6.9-45.6-3.6-68.4c5.9-41,26.8-73.3,60.5-97.4c14.2-10.1,30.6-14.3,47.4-17.5
				c28-5.2,55.9-6.6,83.9-0.5c14.6,3.2,28.4,8.4,40.4,17.7c5.8,4.5,9.5,10.2,10.3,17.6C342.9,455.8,344.7,473.9,346.4,491z"/>
			<path d="M1094.3,424.2c-1.8,16.8-4,36.6-6.3,56.4c-0.3,2.6-1.4,5.1-2.1,7.7c-3.5,11.8-11.3,17.2-23.7,18.5
				c-27.8,2.9-55.5,6.8-83.3,10.3c-3.5,0.4-7,0.5-10.5,0.5c-4.1,0.1-7.3,1.4-8,5.8c-0.7,3.8,2.5,8,7.1,8.1c7,0.1,13.9-0.7,20.9-1.3
				c12.3-1.1,24.6-2.2,36.8-3.5c2.9-0.3,4.7,0.3,5.1,3.7c4.1,28.2,1.1,55.2-14.3,79.9c-0.9,1.4-3.1,2.3-4.9,2.7
				c-28.4,7.5-56.4,15.8-83.2,28.2c-3,1.4-6.1,3-8.3,5.4c-1.7,1.8-3.1,5.3-2.4,7.3c0.7,1.9,4.2,3.8,6.5,3.9
				c3.4,0.2,6.9-0.8,10.2-1.8c23.1-7.5,46.2-15.3,69.3-22.8c8.1-2.7,16.4-4.3,25.1-3c3.9,0.6,5.5,2.5,5.1,6.4
				c-2.5,23-6.7,45.5-16.5,66.6c-6.3,13.6-17.6,22.2-31.1,27.5c-33.5,13.2-66.9,26.5-100.8,38.5c-21.9,7.8-44.5,14-67.1,19.7
				c-8.8,2.2-18.5,1.6-27.8,0.9c-8.6-0.6-10.3-4.9-5.5-12.1c8.5-12.9,17.9-25.3,25.9-38.6c25.6-42.9,40.6-89.3,45.1-139.1
				c1.3-14.6,1.3-29.4-2.9-43.7c-2-6.6-5.8-12.6-8.6-19c-0.8-1.9-1.4-4.4-0.9-6.4c3.7-16.6,7.9-33,11.3-49.7
				c2.1-10.1,2.7-20.4,4.3-30.6c2.1-13.4,10.2-20.8,22.9-25.5c40.5-15,82.1-25.3,124.6-32.4c17.2-2.9,34.5-5.8,51.8-8
				c7.7-1,15.6-0.7,23.4-0.2c8.2,0.5,10.6,2.9,11.4,11C1093.7,404,1093.8,412.5,1094.3,424.2z"/>
			<path d="M22.8,369.7c1-10.3,0.7-18.7,2.8-26.4c5.7-21.1,23-30.5,46.8-26.9c8.5,1.3,17.2,2.4,25.8,2.5c7.4,0.1,14.9-1,22.3-2.3
				c6.2-1.1,9.2-5.3,8.2-10c-0.9-4.5-5.6-7.5-11.4-6.4c-12.3,2.4-24.5,2.1-36.8,0.6c-16.6-2-25.7-11.4-30.5-29.3
				c-4.1-15-1.2-29.8,3.7-44.2c13.3-39.3,37.7-71,68.5-98c21.1-18.5,43.9-34.4,71.3-42.1c7.9-2.2,16.4-3.1,24.6-3.2
				c10.1-0.1,15.3,5.5,15.8,15.6c0.2,4.9,0.1,10.2-1.3,14.8c-5.4,17.8-10.6,35.8-17.5,53c-3.3,8.2-10,15.3-16.2,21.9
				c-2.8,3-8.3,5-12.5,4.9c-13.4-0.4-26.8-1.9-40.2-3.2c-4.3-0.4-7.8,0.3-9.8,4.2c-2,4-0.5,7.9,3.1,10c4,2.3,8.4,4.1,12.9,5
				c5.5,1.2,11.3,1.1,16.9,1.8c4.5,0.5,9.6,0.2,13.4,2.3c7.7,4.2,12.4,11.3,15,19.8c4.3,13.8,6.2,27.9,7,42.3
				c1.6,29.9-3.4,58.9-13.8,86.8c-3.2,8.7-8.9,16.6-14,24.6c-1.7,2.6-5,4.2-7.8,5.9c-9.6,5.9-19.3,11.7-29.1,17.4
				c-4.7,2.7-9.4,5.8-14.5,7.4c-22.8,7.1-46.2,10.4-70,7c-5.7-0.8-11.4-2.3-17-4c-6.6-2-10-7.2-10.9-13.7
				C25.8,394.4,24.3,381.1,22.8,369.7z"/>
			<path d="M568,435.9c17.9,4.5,35.2,8.9,52.7,13.3c-7.9,16.8-15.9,34-24,51.2C587.3,479.4,577.7,457.7,568,435.9z M578.3,444.9
				c6.2,13.8,12.2,27.1,18.3,40.6c5.3-10.8,10.6-21.6,16-32.6C601.2,450.2,590.2,447.6,578.3,444.9z"/>
			<path d="M835.3,374.9c-6-0.9-10.9-1.7-16.6-2.6c3.8-6.4,7.3-12.3,10.8-18.3c0.4,0,0.8,0,1.2,0
				C832.1,360.7,833.6,367.4,835.3,374.9z"/>
			<path d="M209.7,215.3c-2.1-2.6-3.6-4.4-5.4-6.7c2.9-2.2,5.6-4.2,8.3-6.2c0.3,0.1,0.6,0.3,1,0.4
				C212.4,206.6,211.2,210.3,209.7,215.3z"/>
			<path d="M489,377.8c-9-0.1-9.3-0.6-6.4-10.9C484.8,370.7,486.7,373.9,489,377.8z"/>
			<path class="st0" d="M634.1,213.8c1.1-9.2,1.7-16.8,2.9-24.3c1.1-6.7,6.2-11.6,11.6-12.1c5.8-0.5,10.9,3.1,13.2,10.1
				c4.6,14.2,5.9,28.7,2,43.3c-0.9,3.3-2.4,6.5-4.1,9.6c-2.5,4.4-6.4,6.8-11.5,6.3c-5.3-0.5-8.7-4-9.8-8.8
				C636.5,229.4,635.3,220.9,634.1,213.8z"/>
			<path class="st0" d="M491.7,567.5c-1.4,9.7-2.5,19.4-4.4,29.1c-1.2,6.4-4.7,9.3-9.4,9.5c-4.7,0.3-8-2.4-10.3-8.5
				c-6.6-17.8-6.4-36.2-3.7-54.6c0.1-0.7,0.3-1.3,0.5-1.9c2-7.3,6.1-11.1,11.7-11c5.6,0.1,10,3.9,11.6,11.2c1.3,6,2.1,12.1,2.8,18.2
				c0.3,2.6,0.1,5.3,0.1,8C491,567.4,491.3,567.4,491.7,567.5z"/>
		</g>
		
			<image style="overflow:visible;enable-background:new    ;" width="1169" height="760" xlink:href="../../../../01 wip/Artwork_Finales/e4_backseat_02.png"  transform="matrix(0.98 0 0 0.98 25.29 63.57)">
		</image>
	</g>
	<g id="T_e1_jung">
		<rect x="197.3" y="749.4" class="st0" width="794.4" height="194.5"/>
		<path d="M989.2,752v189.5H199.8V752H989.2 M994.2,747H194.8v199.5h799.5L994.2,747L994.2,747z"/>
		<g class="st1">
			<path d="M228.4,785.1c0-8.2,4.7-13.3,12.2-13.4c3.6,0.1,6.7,1.4,8.8,3.6c2.1,2.3,3.4,5.7,3.4,9.8c0,7.9-4,12.9-10.8,13.5v4h-2.9
				v-4C232.4,798,228.4,793,228.4,785.1z M232,785.3c0,5.5,2.8,9.2,7.1,10v-3.6h2.9v3.7c4.3-0.7,7.2-4.5,7.2-10
				c0-6.5-3.3-10.3-8.6-10.4C235.3,775,232,778.9,232,785.3z"/>
		</g>
		<g class="st1">
			<path d="M258.8,793.3v-12.7h3v12.1c0,2.1,1.1,3.3,3.2,3.3c3.3,0,5.3-2.7,5.3-6.5v-9h3v17.6h-3v-3c-0.9,2.1-3,3.5-5.9,3.5
				C261.1,798.7,258.8,796.6,258.8,793.3z"/>
		</g>
		<g class="st1">
			<path d="M279.5,774.7c0-1.3,1.2-2.4,2.4-2.4c1.3,0,2.4,1.1,2.4,2.4c0,1.3-1.1,2.4-2.4,2.4C280.7,777.1,279.5,775.9,279.5,774.7z
				 M283.5,780.5v17.7h-3v-17.7H283.5z"/>
		</g>
		<g class="st1">
			<path d="M289.5,789.2c0-5.4,3.4-9.2,8.5-9.2c2.3,0,4.5,0.9,5.9,2.3s2.1,3.4,2,5.2c0,0.3,0,0.6,0,0.8h-3v-0.4c0-1.4-0.3-2.7-1-3.5
				s-1.7-1.3-2.6-1.5c-0.5-0.1-0.9-0.1-1.4-0.1c-3.1,0-5.3,2.3-5.3,6.5c0,4.2,2,6.7,5.4,6.7c0.9,0,1.7-0.2,2.5-0.7
				c0.8-0.5,1.5-1.2,2-2.5c0.2-0.6,0.4-1.4,0.4-2.2h3c-0.2,5.3-2.9,8.1-8.1,8.1c-3.6,0-6.2-1.7-7.4-4.6
				C289.8,792.7,289.5,791.1,289.5,789.2z"/>
		</g>
		<g class="st1">
			<path d="M315.1,791.5v6.7h-3v-26h3v15.3l7.6-7h3.8l-7.6,7.2l8.7,10.5h-4l-7-8.3L315.1,791.5z"/>
		</g>
		<g class="st1">
			<path d="M345.5,783.3c0.9-2.2,2.8-3.3,5.6-3.3c4.3,0,7,3.8,7,9.2c0,5.8-2.8,9.5-7.3,9.5c-2.8,0-4.3-1.1-5.3-3.4v9.8h-3v-24.5h3
				V783.3z M350.5,796.1c2.9,0,4.6-2.7,4.6-7.2c0-4.1-1.8-6.4-4.6-6.4c-3.1,0-5,2.5-5,6.8C345.5,793.5,347.4,796.1,350.5,796.1z"/>
		</g>
		<g class="st1">
			<path d="M363.4,774.7c0-1.3,1.2-2.4,2.4-2.4c1.3,0,2.4,1.1,2.4,2.4c0,1.3-1.1,2.4-2.4,2.4C364.5,777.1,363.4,775.9,363.4,774.7z
				 M367.3,780.5v17.7h-3v-17.7H367.3z"/>
		</g>
		<g class="st1">
			<path d="M375,792.7v-9.8h-2.8v-2.4h2.8v-5.2h3v5.2h4.2v2.4h-4.2v9.4c0,0.7,0.1,1.2,0.2,1.7c0.1,0.4,0.4,0.8,0.6,0.9
				c0.3,0.2,0.6,0.4,0.9,0.4c0.3,0.1,0.7,0.1,1.1,0.1h0.6h1.4v2.7h-1.1c-1.4,0-2.1,0-3.2-0.2c-1.1-0.2-1.6-0.4-2.3-1s-1-1.3-1.2-2.4
				C375.1,794.1,375,793.4,375,792.7z"/>
		</g>
		<g class="st1">
			<path d="M394.5,790.4h2.9c0,3.9,1.7,5.9,5,5.9c2,0,3.7-1.2,3.7-2.9c0-1-0.4-1.8-1.1-2.2c-0.8-0.4-1.3-0.6-2.5-0.9
				c-0.6-0.2-1.1-0.3-1.4-0.4c-3.1-1.1-5.3-1.7-5.5-4.6c0-0.1,0-0.2,0-0.4c0-2.9,2.6-4.8,6-4.8c4.9,0,7.4,2.3,7.4,6.8H406
				c0-1.8-0.4-2.9-1.2-3.5s-1.7-0.8-3.2-0.8c-1.8,0-3.2,0.8-3.2,2.2c0,0.5,0.1,0.9,0.4,1.3s0.5,0.5,1.1,0.8s0.7,0.3,1.5,0.5
				c0.4,0.1,0.7,0.2,0.9,0.3c3.5,1.1,5.3,1.4,6.3,3.6c0.2,0.5,0.4,1.1,0.4,1.7c0,3.8-2.3,5.9-6.7,5.9c-2,0-3.7-0.5-4.7-1.2
				c-1.1-0.7-1.9-1.8-2.3-2.8c-0.4-1-0.7-2.2-0.7-3.1c0-0.3,0-0.6,0-0.9V790.4z"/>
		</g>
		<g class="st1">
			<path d="M415.7,792.7v-9.8H413v-2.4h2.8v-5.2h3v5.2h4.2v2.4h-4.2v9.4c0,0.7,0.1,1.2,0.2,1.7c0.1,0.4,0.4,0.8,0.6,0.9
				c0.3,0.2,0.6,0.4,0.9,0.4c0.3,0.1,0.7,0.1,1.1,0.1h0.6h1.4v2.7h-1.1c-1.4,0-2.1,0-3.2-0.2c-1.1-0.2-1.6-0.4-2.3-1s-1-1.3-1.2-2.4
				C415.8,794.1,415.7,793.4,415.7,792.7z"/>
		</g>
		<g class="st1">
			<path d="M426.6,789.2c0-5.6,2.9-9.2,8-9.2h0.1c5.1,0,8,3.6,8,9.2c0,5.8-2.9,9.5-8.1,9.5S426.6,795,426.6,789.2z M429.7,789.4
				c0,4.4,1.8,6.6,5,6.6s5-2.2,5-6.6c0-4.5-1.8-6.7-5-6.7S429.7,784.9,429.7,789.4z"/>
		</g>
		<g class="st1">
			<path d="M451.9,783.3c0.9-2.2,2.8-3.3,5.6-3.3c4.3,0,7,3.8,7,9.2c0,5.8-2.8,9.5-7.3,9.5c-2.8,0-4.3-1.1-5.3-3.4v9.8h-3v-24.5h3
				V783.3z M456.8,796.1c2.9,0,4.6-2.7,4.6-7.2c0-4.1-1.8-6.4-4.6-6.4c-3.1,0-5,2.5-5,6.8C451.9,793.5,453.8,796.1,456.8,796.1z"/>
		</g>
		<g class="st1">
			<path d="M478.7,793.7c0-3.2,2.1-5,5.2-5.8c4.2-1,6-1.5,6-3c0-1.1-0.2-1.7-1.2-2.2c-0.5-0.2-1.2-0.3-2.1-0.3
				c-2.8,0-4.3,1.2-4.3,4.4h-3v-0.2c0-4.1,2.8-6.6,7.3-6.6c2.4,0,4.1,0.5,5.1,1.5s1.3,2.1,1.4,3.6v13.1h-3.1V795
				c-0.8,2.1-3,3.7-5.9,3.7C480.7,798.7,478.7,796.6,478.7,793.7z M481.7,793.6c0,1.5,1,2.6,3,2.6c2,0,3.8-1.3,4.6-2.8
				c0.4-0.7,0.6-1.4,0.6-2.1v-3c-0.5,0.3-1.1,0.5-1.4,0.7c-0.2,0.1-0.4,0.1-0.6,0.2l-0.5,0.2c-0.1,0-0.3,0.1-0.6,0.2
				s-0.5,0.2-0.7,0.2c-1.3,0.4-2.1,0.7-3,1.2C482.2,791.7,481.7,792.5,481.7,793.6z"/>
		</g>
		<g class="st1">
			<path d="M500.2,792.7v-9.8h-2.8v-2.4h2.8v-5.2h3v5.2h4.2v2.4h-4.2v9.4c0,0.7,0.1,1.2,0.2,1.7c0.1,0.4,0.4,0.8,0.6,0.9
				c0.3,0.2,0.6,0.4,0.9,0.4c0.3,0.1,0.7,0.1,1.1,0.1h0.6h1.4v2.7H507c-1.4,0-2.1,0-3.2-0.2c-1.1-0.2-1.6-0.4-2.3-1s-1-1.3-1.2-2.4
				C500.2,794.1,500.2,793.4,500.2,792.7z"/>
		</g>
		<g class="st1">
			<path d="M520.9,792.7v-9.8h-2.8v-2.4h2.8v-5.2h3v5.2h4.2v2.4H524v9.4c0,0.7,0.1,1.2,0.2,1.7c0.1,0.4,0.4,0.8,0.6,0.9
				c0.3,0.2,0.6,0.4,0.9,0.4c0.3,0.1,0.7,0.1,1.1,0.1h0.6h1.4v2.7h-1.1c-1.4,0-2.1,0-3.2-0.2c-1.1-0.2-1.6-0.4-2.3-1s-1-1.3-1.2-2.4
				C521,794.1,520.9,793.4,520.9,792.7z"/>
		</g>
		<g class="st1">
			<path d="M536,789.2v9h-3v-25.9h3v11.2c0.9-2,2.8-3.4,5.7-3.4c3.4,0,5.8,2.1,5.8,5.5v12.7h-3V786c0-2.1-1.1-3.4-3.2-3.4
				C538,782.7,536,785.1,536,789.2z"/>
		</g>
		<g class="st1">
			<path d="M553.6,789.3c0-5.5,3.4-9.3,8.3-9.3c2.7,0,4.8,1.1,5.9,3.1c1.1,1.9,1.5,4.1,1.5,6.2c0,0.3,0,0.7,0,1h-12.6
				c0.1,2,0.6,3.6,1.6,4.4s2.1,1.3,3.5,1.3h0.1c2.4,0,4.1-1.5,4.4-4.2h3c-0.1,1.4-0.4,2.7-1.2,3.9s-1.8,2.1-3.4,2.6
				c-0.8,0.3-1.8,0.4-2.8,0.4C556.6,798.7,553.6,794.9,553.6,789.3z M556.7,787.6h9.5c0-3.3-1.9-4.9-4.5-4.9
				C559.1,782.7,556.9,784.6,556.7,787.6z"/>
		</g>
		<g class="st1">
			<path d="M595.1,798.2h-9.6v-26h9.5c4.6,0,7.7,2.7,7.7,6.2c0,1.6-0.5,2.9-1,3.6s-1.5,1.4-2.1,1.6c-0.3,0.1-0.6,0.2-1,0.4
				c1.8,0.4,3.2,1.4,4,2.6c0.8,1.2,1.1,2.6,1.1,4.1c0,3.1-1.6,5.4-4.1,6.6C598.2,797.9,596.7,798.2,595.1,798.2z M594.4,775.2h-5.7
				v7.6h5.1c3.6,0,5.5-1.4,5.5-4C599.3,776.4,597.5,775.2,594.4,775.2z M594.5,785.7h-5.7v9.5h5.4c3.9,0,6.1-1.7,6.1-4.6
				C600.2,787.5,598.2,785.8,594.5,785.7z"/>
		</g>
		<g class="st1">
			<path d="M608.1,793.7c0-3.2,2.1-5,5.2-5.8c4.2-1,6-1.5,6-3c0-1.1-0.2-1.7-1.2-2.2c-0.5-0.2-1.2-0.3-2.1-0.3
				c-2.8,0-4.3,1.2-4.3,4.4h-3v-0.2c0-4.1,2.8-6.6,7.3-6.6c2.4,0,4.1,0.5,5.1,1.5s1.3,2.1,1.4,3.6v13.1h-3.1V795
				c-0.8,2.1-3,3.7-5.9,3.7C610.1,798.7,608.1,796.6,608.1,793.7z M611.1,793.6c0,1.5,1,2.6,3,2.6c2,0,3.8-1.3,4.6-2.8
				c0.4-0.7,0.6-1.4,0.6-2.1v-3c-0.5,0.3-1.1,0.5-1.4,0.7c-0.2,0.1-0.4,0.1-0.6,0.2l-0.5,0.2c-0.1,0-0.3,0.1-0.6,0.2
				s-0.5,0.2-0.7,0.2c-1.3,0.4-2.1,0.7-3,1.2C611.6,791.7,611.1,792.5,611.1,793.6z"/>
		</g>
		<g class="st1">
			<path d="M628,789.2c0-5.4,3.4-9.2,8.5-9.2c2.3,0,4.5,0.9,5.9,2.3s2.1,3.4,2,5.2c0,0.3,0,0.6,0,0.8h-3v-0.4c0-1.4-0.3-2.7-1-3.5
				s-1.7-1.3-2.6-1.5c-0.5-0.1-0.9-0.1-1.4-0.1c-3.1,0-5.3,2.3-5.3,6.5c0,4.2,2,6.7,5.4,6.7c0.9,0,1.7-0.2,2.5-0.7
				c0.8-0.5,1.5-1.2,2-2.5c0.2-0.6,0.4-1.4,0.4-2.2h3c-0.2,5.3-2.9,8.1-8.1,8.1c-3.6,0-6.2-1.7-7.4-4.6
				C628.3,792.7,628,791.1,628,789.2z"/>
		</g>
		<g class="st1">
			<path d="M653.7,791.5v6.7h-3v-26h3v15.3l7.6-7h3.8l-7.6,7.2l8.7,10.5h-4l-7-8.3L653.7,791.5z"/>
		</g>
		<g class="st1">
			<path d="M669.3,790.4h2.9c0,3.9,1.7,5.9,5,5.9c2,0,3.7-1.2,3.7-2.9c0-1-0.4-1.8-1.1-2.2c-0.8-0.4-1.3-0.6-2.5-0.9
				c-0.6-0.2-1.1-0.3-1.4-0.4c-3.1-1.1-5.3-1.7-5.5-4.6c0-0.1,0-0.2,0-0.4c0-2.9,2.6-4.8,6-4.8c4.9,0,7.4,2.3,7.4,6.8h-2.9
				c0-1.8-0.4-2.9-1.2-3.5s-1.7-0.8-3.2-0.8c-1.8,0-3.2,0.8-3.2,2.2c0,0.5,0.1,0.9,0.4,1.3s0.5,0.5,1.1,0.8s0.7,0.3,1.5,0.5
				c0.4,0.1,0.7,0.2,0.9,0.3c3.5,1.1,5.3,1.4,6.3,3.6c0.2,0.5,0.4,1.1,0.4,1.7c0,3.8-2.3,5.9-6.7,5.9c-2,0-3.7-0.5-4.7-1.2
				c-1.1-0.7-1.9-1.8-2.3-2.8c-0.4-1-0.7-2.2-0.7-3.1c0-0.3,0-0.6,0-0.9V790.4z"/>
		</g>
		<g class="st1">
			<path d="M688.9,789.3c0-5.5,3.4-9.3,8.3-9.3c2.7,0,4.8,1.1,5.9,3.1c1.1,1.9,1.5,4.1,1.5,6.2c0,0.3,0,0.7,0,1H692
				c0.1,2,0.6,3.6,1.6,4.4s2.1,1.3,3.5,1.3h0.1c2.4,0,4.1-1.5,4.4-4.2h3c-0.1,1.4-0.4,2.7-1.2,3.9s-1.8,2.1-3.4,2.6
				c-0.8,0.3-1.8,0.4-2.8,0.4C692,798.7,688.9,794.9,688.9,789.3z M692.1,787.6h9.5c0-3.3-1.9-4.9-4.5-4.9
				C694.4,782.7,692.3,784.6,692.1,787.6z"/>
		</g>
		<g class="st1">
			<path d="M709.4,793.7c0-3.2,2.1-5,5.2-5.8c4.2-1,6-1.5,6-3c0-1.1-0.2-1.7-1.2-2.2c-0.5-0.2-1.2-0.3-2.1-0.3
				c-2.8,0-4.3,1.2-4.3,4.4h-3v-0.2c0-4.1,2.8-6.6,7.3-6.6c2.4,0,4.1,0.5,5.1,1.5s1.3,2.1,1.4,3.6v13.1h-3.1V795
				c-0.8,2.1-3,3.7-5.9,3.7C711.4,798.7,709.4,796.6,709.4,793.7z M712.5,793.6c0,1.5,1,2.6,3,2.6c2,0,3.8-1.3,4.6-2.8
				c0.4-0.7,0.6-1.4,0.6-2.1v-3c-0.5,0.3-1.1,0.5-1.4,0.7c-0.2,0.1-0.4,0.1-0.6,0.2l-0.5,0.2c-0.1,0-0.3,0.1-0.6,0.2
				s-0.5,0.2-0.7,0.2c-1.3,0.4-2.1,0.7-3,1.2C712.9,791.7,712.5,792.5,712.5,793.6z"/>
		</g>
		<g class="st1">
			<path d="M730.9,792.7v-9.8h-2.8v-2.4h2.8v-5.2h3v5.2h4.2v2.4h-4.2v9.4c0,0.7,0.1,1.2,0.2,1.7c0.1,0.4,0.4,0.8,0.6,0.9
				c0.3,0.2,0.6,0.4,0.9,0.4c0.3,0.1,0.7,0.1,1.1,0.1h0.6h1.4v2.7h-1.1c-1.4,0-2.1,0-3.2-0.2c-1.1-0.2-1.6-0.4-2.3-1s-1-1.3-1.2-2.4
				C731,794.1,730.9,793.4,730.9,792.7z"/>
		</g>
		<g class="st1">
			<path d="M750.3,790.4h2.9c0,3.9,1.7,5.9,5,5.9c2,0,3.7-1.2,3.7-2.9c0-1-0.4-1.8-1.1-2.2c-0.8-0.4-1.3-0.6-2.5-0.9
				c-0.6-0.2-1.1-0.3-1.4-0.4c-3.1-1.1-5.3-1.7-5.5-4.6c0-0.1,0-0.2,0-0.4c0-2.9,2.6-4.8,6-4.8c4.9,0,7.4,2.3,7.4,6.8h-2.9
				c0-1.8-0.4-2.9-1.2-3.5s-1.7-0.8-3.2-0.8c-1.8,0-3.2,0.8-3.2,2.2c0,0.5,0.1,0.9,0.4,1.3s0.5,0.5,1.1,0.8s0.7,0.3,1.5,0.5
				c0.4,0.1,0.7,0.2,0.9,0.3c3.5,1.1,5.3,1.4,6.3,3.6c0.2,0.5,0.4,1.1,0.4,1.7c0,3.8-2.3,5.9-6.7,5.9c-2,0-3.7-0.5-4.7-1.2
				c-1.1-0.7-1.9-1.8-2.3-2.8c-0.4-1-0.7-2.2-0.7-3.1c0-0.3,0-0.6,0-0.9V790.4z"/>
		</g>
		<g class="st1">
			<path d="M774,789.2v9h-3v-25.9h3v11.2c0.9-2,2.8-3.4,5.7-3.4c3.4,0,5.8,2.1,5.8,5.5v12.7h-3V786c0-2.1-1.1-3.4-3.2-3.4
				C776,782.7,774,785.1,774,789.2z"/>
		</g>
		<g class="st1">
			<path d="M791.6,789.2c0-5.6,2.9-9.2,8-9.2h0.1c5.1,0,8,3.6,8,9.2c0,5.8-2.9,9.5-8.1,9.5S791.6,795,791.6,789.2z M794.7,789.4
				c0,4.4,1.8,6.6,5,6.6s5-2.2,5-6.6c0-4.5-1.8-6.7-5-6.7S794.7,784.9,794.7,789.4z"/>
		</g>
		<g class="st1">
			<path d="M821.7,798.2h-5.3l-4.8-17.7h2.9l4.5,16.6l4.2-16.6h5.2l4.2,16.6l4.5-16.6h2.9l-4.8,17.7H830l-4.1-16.5L821.7,798.2z"/>
		</g>
		<g class="st1">
			<path d="M844,789.2c0-5.4,3.4-9.2,8.5-9.2c2.3,0,4.5,0.9,5.9,2.3s2.1,3.4,2,5.2c0,0.3,0,0.6,0,0.8h-3v-0.4c0-1.4-0.3-2.7-1-3.5
				s-1.7-1.3-2.6-1.5c-0.5-0.1-0.9-0.1-1.4-0.1c-3.1,0-5.3,2.3-5.3,6.5c0,4.2,2,6.7,5.4,6.7c0.9,0,1.7-0.2,2.5-0.7
				c0.8-0.5,1.5-1.2,2-2.5c0.2-0.6,0.4-1.4,0.4-2.2h3c-0.2,5.3-2.9,8.1-8.1,8.1c-3.6,0-6.2-1.7-7.4-4.6
				C844.3,792.7,844,791.1,844,789.2z"/>
		</g>
		<g class="st1">
			<path d="M865.1,793.7c0-3.2,2.1-5,5.2-5.8c4.2-1,6-1.5,6-3c0-1.1-0.2-1.7-1.2-2.2c-0.5-0.2-1.2-0.3-2.1-0.3
				c-2.8,0-4.3,1.2-4.3,4.4h-3v-0.2c0-4.1,2.8-6.6,7.3-6.6c2.4,0,4.1,0.5,5.1,1.5s1.3,2.1,1.4,3.6v13.1h-3.1V795
				c-0.8,2.1-3,3.7-5.9,3.7C867.1,798.7,865.1,796.6,865.1,793.7z M868.1,793.6c0,1.5,1,2.6,3,2.6c2,0,3.8-1.3,4.6-2.8
				c0.4-0.7,0.6-1.4,0.6-2.1v-3c-0.5,0.3-1.1,0.5-1.4,0.7c-0.2,0.1-0.4,0.1-0.6,0.2l-0.5,0.2c-0.1,0-0.3,0.1-0.6,0.2
				s-0.5,0.2-0.7,0.2c-1.3,0.4-2.1,0.7-3,1.2C868.6,791.7,868.1,792.5,868.1,793.6z"/>
		</g>
		<g class="st1">
			<path d="M884.9,790.4h2.9c0,3.9,1.7,5.9,5,5.9c2,0,3.7-1.2,3.7-2.9c0-1-0.4-1.8-1.1-2.2c-0.8-0.4-1.3-0.6-2.5-0.9
				c-0.6-0.2-1.1-0.3-1.4-0.4c-3.1-1.1-5.3-1.7-5.5-4.6c0-0.1,0-0.2,0-0.4c0-2.9,2.6-4.8,6-4.8c4.9,0,7.4,2.3,7.4,6.8h-2.9
				c0-1.8-0.4-2.9-1.2-3.5s-1.7-0.8-3.2-0.8c-1.8,0-3.2,0.8-3.2,2.2c0,0.5,0.1,0.9,0.4,1.3s0.5,0.5,1.1,0.8s0.7,0.3,1.5,0.5
				c0.4,0.1,0.7,0.2,0.9,0.3c3.5,1.1,5.3,1.4,6.3,3.6c0.2,0.5,0.4,1.1,0.4,1.7c0,3.8-2.3,5.9-6.7,5.9c-2,0-3.7-0.5-4.7-1.2
				c-1.1-0.7-1.9-1.8-2.3-2.8c-0.4-1-0.7-2.2-0.7-3.1c0-0.3,0-0.6,0-0.9V790.4z"/>
		</g>
		<g class="st1">
			<path d="M904.5,789.3c0-5.5,3.4-9.3,8.3-9.3c2.7,0,4.8,1.1,5.9,3.1c1.1,1.9,1.5,4.1,1.5,6.2c0,0.3,0,0.7,0,1h-12.6
				c0.1,2,0.6,3.6,1.6,4.4s2.1,1.3,3.5,1.3h0.1c2.4,0,4.1-1.5,4.4-4.2h3c-0.1,1.4-0.4,2.7-1.2,3.9s-1.8,2.1-3.4,2.6
				c-0.8,0.3-1.8,0.4-2.8,0.4C907.5,798.7,904.5,794.9,904.5,789.3z M907.7,787.6h9.5c0-3.3-1.9-4.9-4.5-4.9
				C910,782.7,907.8,784.6,907.7,787.6z"/>
		</g>
		<g class="st1">
			<path d="M934.5,793.7c0-3.2,2.1-5,5.2-5.8c4.2-1,6-1.5,6-3c0-1.1-0.2-1.7-1.2-2.2c-0.5-0.2-1.2-0.3-2.1-0.3
				c-2.8,0-4.3,1.2-4.3,4.4h-3v-0.2c0-4.1,2.8-6.6,7.3-6.6c2.4,0,4.1,0.5,5.1,1.5s1.3,2.1,1.4,3.6v13.1h-3.1V795
				c-0.8,2.1-3,3.7-5.9,3.7C936.4,798.7,934.5,796.6,934.5,793.7z M937.5,793.6c0,1.5,1,2.6,3,2.6c2,0,3.8-1.3,4.6-2.8
				c0.4-0.7,0.6-1.4,0.6-2.1v-3c-0.5,0.3-1.1,0.5-1.4,0.7c-0.2,0.1-0.4,0.1-0.6,0.2l-0.5,0.2c-0.1,0-0.3,0.1-0.6,0.2
				s-0.5,0.2-0.7,0.2c-1.3,0.4-2.1,0.7-3,1.2C937.9,791.7,937.5,792.5,937.5,793.6z"/>
		</g>
		<g class="st1">
			<path d="M955.9,792.7v-9.8h-2.8v-2.4h2.8v-5.2h3v5.2h4.2v2.4h-4.2v9.4c0,0.7,0.1,1.2,0.2,1.7c0.1,0.4,0.4,0.8,0.6,0.9
				c0.3,0.2,0.6,0.4,0.9,0.4c0.3,0.1,0.7,0.1,1.1,0.1h0.6h1.4v2.7h-1.1c-1.4,0-2.1,0-3.2-0.2c-1.1-0.2-1.6-0.4-2.3-1s-1-1.3-1.2-2.4
				C956,794.1,955.9,793.4,955.9,792.7z"/>
		</g>
		<g class="st1">
			<path d="M229.4,830v13.2h-3.6v-28.8h3.6v12.4h18.4v-12.4h3.6v28.8h-3.6V830H229.4z"/>
		</g>
		<g class="st1">
			<path d="M263,836.1l-2.2,7H257l9.1-28.8h6.9l9.1,28.8h-3.8l-2.2-7H263z M275.1,832.8l-5.5-17.4l-5.5,17.4H275.1z"/>
		</g>
		<g class="st1">
			<path d="M291.4,815.7v27.5h-3.6v-28.8h7l6.7,27.7l6.7-27.7h7v28.8h-3.6v-27.5l-6.6,27.5H298L291.4,815.7z"/>
		</g>
		<g class="st1">
			<path d="M333.2,843.2h-10.7v-28.8H333c5.1,0,8.5,3,8.5,6.9c0,1.7-0.5,3.2-1.1,4s-1.7,1.5-2.3,1.8c-0.3,0.1-0.7,0.3-1.1,0.4
				c2,0.5,3.5,1.5,4.4,2.9c0.8,1.3,1.2,2.9,1.2,4.6c0,3.4-1.8,6-4.6,7.3C336.5,842.8,334.9,843.2,333.2,843.2z M332.4,817.6h-6.3
				v8.5h5.6c4,0,6.1-1.6,6.1-4.5C337.8,819,335.8,817.6,332.4,817.6z M332.4,829.4h-6.4v10.5h6c4.3,0,6.8-1.9,6.8-5.1
				C338.8,831.3,336.6,829.4,332.4,829.4z"/>
		</g>
		<g class="st1">
			<path d="M348.5,834.1v-19.8h3.6v19.5c0,4.1,2.7,6.4,7.4,6.4s7.4-2.3,7.4-6.4v-19.5h3.6v19.8c0,6-4.2,9.6-11,9.6
				S348.5,840.1,348.5,834.1z"/>
		</g>
		<g class="st1">
			<path d="M381.6,830.5v12.6h-3.6v-28.8h10.5c5.5,0,8.9,3.5,8.9,8.5c0,2.9-1.3,5.4-3.4,6c1.9,0.4,3.4,2.3,3.4,4.8v9.5h-3.6v-9.3
				c0-1.3-0.7-2.2-1.9-2.7c-1.2-0.5-2.5-0.7-4.4-0.7H381.6z M387.7,817.6h-6.1v9.6h6.6c4.4,0,5.6-1.2,5.6-4.4
				C393.7,818.9,392.1,817.6,387.7,817.6z"/>
		</g>
		<g class="st1">
			<path d="M402.5,828.6c0-5.9,2.2-10.5,6.2-13c2-1.3,4.4-1.9,7.1-1.9c2.3,0,4.5,0.6,6.4,1.7c1.9,1.2,3.4,2.8,4.1,5.2
				c0.3,1,0.4,2,0.4,3c0,0.3,0,0.5,0,0.8h-3.8v-0.3c0-3.8-3-6.8-7.1-6.8c-5.8,0-9.5,4.2-9.5,11.3c0,7.1,3.7,11.5,9.5,11.5
				c3.1,0,6.5-1.3,8.4-3.3c1-1,1.5-2.1,1.5-3.2v-3.3h-13V827h16.6v16.2h-3.6v-5.2c-1.3,3.5-5.2,5.8-10,5.8c-3.9,0-7.2-1.4-9.5-4
				S402.5,833.3,402.5,828.6z"/>
		</g>
		<g class="st1">
			<path d="M451.1,830v13.2h-3.6v-28.8h3.6v12.4h18.4v-12.4h3.6v28.8h-3.6V830H451.1z"/>
		</g>
		<g class="st1">
			<path d="M484.7,836.1l-2.2,7h-3.8l9.1-28.8h6.9l9.1,28.8H500l-2.2-7H484.7z M496.8,832.8l-5.5-17.4l-5.5,17.4H496.8z"/>
		</g>
		<g class="st1">
			<path d="M508.4,834.1v-19.8h3.6v19.5c0,4.1,2.7,6.4,7.4,6.4s7.4-2.3,7.4-6.4v-19.5h3.6v19.8c0,6-4.2,9.6-11,9.6
				S508.4,840.1,508.4,834.1z"/>
		</g>
		<g class="st1">
			<path d="M536,830.8h3.6c0.2,6.6,2.5,9.5,8.3,9.5c2.5,0,4.2-0.6,5.1-1.6c0.9-1,1.2-2.1,1.2-3.4c0-2.9-1.7-4.5-6.4-5.6
				c-6.8-1.6-10.1-4.2-10.1-8.6c0-4.5,3.6-7.4,9.6-7.4c7,0,10.5,3.5,10.5,10.4c0,0.3,0,0.5,0,0.8h-3.6v-0.3c0-1.8-0.3-3.4-0.7-4.5
				s-1.3-1.9-2.1-2.3c-0.8-0.4-2-0.6-2.9-0.7c-0.4,0-1,0-1.6,0c-3.5,0-5.6,1.6-5.6,4c0,1,0.4,1.9,1.2,2.5c0.8,0.6,1.6,1.1,2.8,1.5
				c1.2,0.4,1.9,0.6,3.1,0.9c0.1,0,0.1,0,0.1,0l0.3,0.1c2,0.4,3.4,0.9,5.1,1.8c1.7,1,2.7,2.1,3.5,3.9c0.4,0.9,0.5,2,0.5,3.1
				c0,2-0.3,3.6-1.3,5.2c-1,1.6-2.5,2.6-5,3.2c-1.3,0.3-2.7,0.5-4.4,0.5c-3.3,0-6-0.9-7.7-2.5c-1.7-1.5-2.8-3.8-3.2-6.4
				c-0.2-1-0.2-2-0.2-3.1C536,831.5,536,831.2,536,830.8z"/>
		</g>
		<g class="st1">
			<path d="M575.9,814.4l-12.9,35.4h-3l12.9-35.4H575.9z"/>
		</g>
		<g class="st1">
			<path d="M578.2,830.8h3.6c0.2,6.6,2.5,9.5,8.3,9.5c2.5,0,4.2-0.6,5.1-1.6c0.9-1,1.2-2.1,1.2-3.4c0-2.9-1.7-4.5-6.4-5.6
				c-6.8-1.6-10.1-4.2-10.1-8.6c0-4.5,3.6-7.4,9.6-7.4c7,0,10.5,3.5,10.5,10.4c0,0.3,0,0.5,0,0.8h-3.6v-0.3c0-1.8-0.3-3.4-0.7-4.5
				s-1.3-1.9-2.1-2.3c-0.8-0.4-2-0.6-2.9-0.7c-0.4,0-1,0-1.6,0c-3.5,0-5.6,1.6-5.6,4c0,1,0.4,1.9,1.2,2.5c0.8,0.6,1.6,1.1,2.8,1.5
				c1.2,0.4,1.9,0.6,3.1,0.9c0.1,0,0.1,0,0.1,0l0.3,0.1c2,0.4,3.4,0.9,5.1,1.8c1.7,1,2.7,2.1,3.5,3.9c0.4,0.9,0.5,2,0.5,3.1
				c0,2-0.3,3.6-1.3,5.2c-1,1.6-2.5,2.6-5,3.2c-1.3,0.3-2.7,0.5-4.4,0.5c-3.3,0-6-0.9-7.7-2.5c-1.7-1.5-2.8-3.8-3.2-6.4
				c-0.2-1-0.2-2-0.2-3.1C578.2,831.5,578.2,831.2,578.2,830.8z"/>
		</g>
		<g class="st1">
			<path d="M613.8,843.2v-25.5h-9.5v-3.3h22.6v3.3h-9.5v25.5H613.8z"/>
		</g>
		<g class="st1">
			<path d="M627.8,840.7c0-1.3,1.2-2.5,2.5-2.5c1.4,0,2.5,1.1,2.5,2.5c0,1.3-1.1,2.5-2.5,2.5C629,843.2,627.8,842,627.8,840.7z"/>
		</g>
		<g class="st1">
			<path d="M654.2,831.5v11.7h-3.6v-28.8h10.5c5.3,0,8.2,3.4,8.2,8.7c0,5.3-3,8.5-9,8.5H654.2z M659.8,817.8h-5.6V828h4
				c1.1,0,1.6,0,2.6-0.1c1-0.1,1.4-0.2,2.2-0.4s1.1-0.6,1.6-1.1c0.5-0.5,0.7-1.1,0.9-2c0.1-0.4,0.1-0.9,0.1-1.5
				C665.6,819.4,663.8,817.8,659.8,817.8z"/>
		</g>
		<g class="st1">
			<path d="M677.4,836.1l-2.2,7h-3.8l9.1-28.8h6.9l9.1,28.8h-3.8l-2.2-7H677.4z M689.5,832.8l-5.5-17.4l-5.5,17.4H689.5z"/>
		</g>
		<g class="st1">
			<path d="M701.2,834.1v-19.8h3.6v19.5c0,4.1,2.7,6.4,7.4,6.4s7.4-2.3,7.4-6.4v-19.5h3.6v19.8c0,6-4.2,9.6-11,9.6
				S701.2,840.1,701.2,834.1z"/>
		</g>
		<g class="st1">
			<path d="M748,839.9v3.3h-17.4v-28.8h3.6v25.6H748z"/>
		</g>
		<g class="st1">
			<path d="M764.7,843.2h-11.8v-3.2h4.1v-22.3h-4.1v-3.2h11.8v3.2h-4.1v22.3h4.1V843.2z"/>
		</g>
		<g class="st1">
			<path d="M785.5,815.7v27.5h-3.6v-28.8h7l6.7,27.7l6.7-27.7h7v28.8h-3.6v-27.5l-6.6,27.5h-6.9L785.5,815.7z"/>
		</g>
		<g class="st1">
			<path d="M816.6,834.1v-19.8h3.6v19.5c0,4.1,2.7,6.4,7.4,6.4s7.4-2.3,7.4-6.4v-19.5h3.6v19.8c0,6-4.2,9.6-11,9.6
				S816.6,840.1,816.6,834.1z"/>
		</g>
		<g class="st1">
			<path d="M844.2,830.8h3.6c0.2,6.6,2.5,9.5,8.3,9.5c2.5,0,4.2-0.6,5.1-1.6c0.9-1,1.2-2.1,1.2-3.4c0-2.9-1.7-4.5-6.4-5.6
				c-6.8-1.6-10.1-4.2-10.1-8.6c0-4.5,3.6-7.4,9.6-7.4c7,0,10.5,3.5,10.5,10.4c0,0.3,0,0.5,0,0.8h-3.6v-0.3c0-1.8-0.3-3.4-0.7-4.5
				s-1.3-1.9-2.1-2.3c-0.8-0.4-2-0.6-2.9-0.7c-0.4,0-1,0-1.6,0c-3.5,0-5.6,1.6-5.6,4c0,1,0.4,1.9,1.2,2.5c0.8,0.6,1.6,1.1,2.8,1.5
				c1.2,0.4,1.9,0.6,3.1,0.9c0.1,0,0.1,0,0.1,0l0.3,0.1c2,0.4,3.4,0.9,5.1,1.8c1.7,1,2.7,2.1,3.5,3.9c0.4,0.9,0.5,2,0.5,3.1
				c0,2-0.3,3.6-1.3,5.2c-1,1.6-2.5,2.6-5,3.2c-1.3,0.3-2.7,0.5-4.4,0.5c-3.3,0-6-0.9-7.7-2.5c-1.7-1.5-2.8-3.8-3.2-6.4
				c-0.2-1-0.2-2-0.2-3.1C844.1,831.5,844.1,831.2,844.2,830.8z"/>
		</g>
		<g class="st1">
			<path d="M890,839.9v3.3h-17.6v-28.8H890v3.3h-14v9h14v3.3h-14v10H890z"/>
		</g>
		<g class="st1">
			<path d="M896.3,834.1v-19.8h3.6v19.5c0,4.1,2.7,6.4,7.4,6.4s7.4-2.3,7.4-6.4v-19.5h3.6v19.8c0,6-4.2,9.6-11,9.6
				S896.3,840.1,896.3,834.1z"/>
		</g>
		<g class="st1">
			<path d="M929.4,815.7v27.5h-3.6v-28.8h7l6.7,27.7l6.7-27.7h7v28.8h-3.6v-27.5l-6.6,27.5H936L929.4,815.7z"/>
		</g>
		<g class="st1">
			<path d="M959.5,841c0-1.2,1-2.2,2.2-2.2c1.2,0,2.2,1,2.2,2.2c0,1.2-1,2.2-2.2,2.2C960.6,843.2,959.5,842.2,959.5,841z"/>
		</g>
		<g class="st1">
			<path d="M274.5,871.3v11.9h-3.2v-26h3.2v11.1H291v-11.1h3.2v26H291v-11.9H274.5z"/>
		</g>
		<g class="st1">
			<path d="M300.5,859.7c0-1.3,1.2-2.4,2.4-2.4c1.3,0,2.4,1.1,2.4,2.4c0,1.3-1.1,2.4-2.4,2.4C301.7,862.1,300.5,860.9,300.5,859.7z
				 M304.4,865.5v17.7h-3v-17.7H304.4z"/>
		</g>
		<g class="st1">
			<path d="M325.5,883.9c0,2.6-1.5,4.4-3.7,5.2c-1.1,0.4-2.4,0.6-3.9,0.6c-4.9,0-7.6-1.7-7.6-5.3c0-1.4,0.8-2.8,2.1-3.6
				c-0.7-0.5-1.1-1.1-1.3-1.8c-0.1-0.3-0.1-0.6-0.1-0.9c0-0.4,0.1-0.8,0.3-1.2c0.3-0.7,0.8-1.2,1.6-1.7c-0.8-1-1.3-2.3-1.3-3.8
				c0-3.8,2.8-6.4,6.5-6.4c1.5,0,2.7,0.3,3.7,1v-2.2h2.8v7.6c0,3.8-2.7,6.4-6.5,6.4c-1.6,0-2.9-0.5-3.9-1.4
				c-0.4,0.4-0.5,0.8-0.5,1.2c0,0.8,0.7,1.5,2,1.5h4.5C323.4,879.2,325.5,880.9,325.5,883.9z M322.7,884.1c0-1.7-1.1-2.5-3-2.5H314
				c-0.6,0.5-1,1.5-1,2.5c0,2,1.7,3.1,4.9,3.1C320.9,887.2,322.7,886.1,322.7,884.1z M314.6,871.3c0,2.5,1.2,3.8,3.5,3.8
				c2.4,0,3.6-1.2,3.6-3.8c0-2.8-1.5-3.8-3.5-3.8H318C316,867.6,314.6,868.7,314.6,871.3z"/>
		</g>
		<g class="st1">
			<path d="M333.8,874.2v9h-3v-25.9h3v11.2c0.9-2,2.8-3.4,5.7-3.4c3.4,0,5.8,2.1,5.8,5.5v12.7h-3V871c0-2.1-1.1-3.4-3.2-3.4
				C335.8,867.7,333.8,870.1,333.8,874.2z"/>
		</g>
		<g class="st1">
			<path d="M362.2,883.2v-15.2h-2.4v-2.4h2.4v-3c0-2.1,0.3-3.3,1.2-4.4s2.4-1.4,5-1.4h1.2v2.7h-1.2c-1.4,0-2,0.1-2.5,0.6
				s-0.6,1.4-0.6,3v2.4h10.5v17.7h-3v-15.3h-7.5v15.2H362.2z M371.8,859.7c0-1.3,1.1-2.4,2.4-2.4c1.3,0,2.4,1.1,2.4,2.4
				c0,1.3-1.1,2.4-2.4,2.4C373,862.1,371.8,860.9,371.8,859.7z"/>
		</g>
		<g class="st1">
			<path d="M392.1,883.2h-5.3l-5.9-17.7h3l5.5,16.6l5.5-16.6h3L392.1,883.2z"/>
		</g>
		<g class="st1">
			<path d="M401.7,874.3c0-5.5,3.4-9.3,8.3-9.3c2.7,0,4.8,1.1,5.9,3.1c1.1,1.9,1.5,4.1,1.5,6.2c0,0.3,0,0.7,0,1h-12.6
				c0.1,2,0.6,3.6,1.6,4.4s2.1,1.3,3.5,1.3h0.1c2.4,0,4.1-1.5,4.4-4.2h3c-0.1,1.4-0.4,2.7-1.2,3.9s-1.8,2.1-3.4,2.6
				c-0.8,0.3-1.8,0.4-2.8,0.4C404.7,883.7,401.7,879.9,401.7,874.3z M404.8,872.6h9.5c0-3.3-1.9-4.9-4.5-4.9
				C407.1,867.7,405,869.6,404.8,872.6z"/>
		</g>
		<g class="st1">
			<path d="M433.7,877.7v-9.8h-2.8v-2.4h2.8v-5.2h3v5.2h4.2v2.4h-4.2v9.4c0,0.7,0.1,1.2,0.2,1.7c0.1,0.4,0.4,0.8,0.6,0.9
				c0.3,0.2,0.6,0.4,0.9,0.4c0.3,0.1,0.7,0.1,1.1,0.1h0.6h1.4v2.7h-1.1c-1.4,0-2.1,0-3.2-0.2c-1.1-0.2-1.6-0.4-2.3-1s-1-1.3-1.2-2.4
				C433.7,879.1,433.7,878.4,433.7,877.7z"/>
		</g>
		<g class="st1">
			<path d="M444.5,874.2c0-5.6,2.9-9.2,8-9.2h0.1c5.1,0,8,3.6,8,9.2c0,5.8-2.9,9.5-8.1,9.5S444.5,880,444.5,874.2z M447.6,874.4
				c0,4.4,1.8,6.6,5,6.6s5-2.2,5-6.6c0-4.5-1.8-6.7-5-6.7S447.6,869.9,447.6,874.4z"/>
		</g>
		<g class="st1">
			<path d="M475.6,874.4h3.2c0,0.3,0,0.6,0,0.9c0,3.6,0.8,5.2,3.4,5.2c1.4,0,2.2-0.3,2.9-1.2c0.7-0.8,1-2.4,1-4.7v-17.5h3.2v18
				c0,5.6-2.4,8.5-7.2,8.5c-2.3,0-3.9-0.6-5.2-2c-1.3-1.4-1.6-3.6-1.6-5.7C475.6,875.5,475.6,875,475.6,874.4z"/>
		</g>
		<g class="st1">
			<path d="M495.5,874.3c0-5.5,3.4-9.3,8.3-9.3c2.7,0,4.8,1.1,5.9,3.1c1.1,1.9,1.5,4.1,1.5,6.2c0,0.3,0,0.7,0,1h-12.6
				c0.1,2,0.6,3.6,1.6,4.4s2.1,1.3,3.5,1.3h0.1c2.4,0,4.1-1.5,4.4-4.2h3c-0.1,1.4-0.4,2.7-1.2,3.9s-1.8,2.1-3.4,2.6
				c-0.8,0.3-1.8,0.4-2.8,0.4C498.6,883.7,495.5,879.9,495.5,874.3z M498.7,872.6h9.5c0-3.3-1.9-4.9-4.5-4.9
				C501,867.7,498.9,869.6,498.7,872.6z"/>
		</g>
		<g class="st1">
			<path d="M517.8,877.7v-9.8H515v-2.4h2.8v-5.2h3v5.2h4.2v2.4h-4.2v9.4c0,0.7,0.1,1.2,0.2,1.7c0.1,0.4,0.4,0.8,0.6,0.9
				c0.3,0.2,0.6,0.4,0.9,0.4c0.3,0.1,0.7,0.1,1.1,0.1h0.6h1.4v2.7h-1.1c-1.4,0-2.1,0-3.2-0.2c-1.1-0.2-1.6-0.4-2.3-1s-1-1.3-1.2-2.4
				C517.9,879.1,517.8,878.4,517.8,877.7z"/>
		</g>
		<g class="st1">
			<path d="M530.9,877.7v-9.8h-2.8v-2.4h2.8v-5.2h3v5.2h4.2v2.4h-4.2v9.4c0,0.7,0.1,1.2,0.2,1.7c0.1,0.4,0.4,0.8,0.6,0.9
				c0.3,0.2,0.6,0.4,0.9,0.4c0.3,0.1,0.7,0.1,1.1,0.1h0.6h1.4v2.7h-1.1c-1.4,0-2.1,0-3.2-0.2c-1.1-0.2-1.6-0.4-2.3-1s-1-1.3-1.2-2.4
				C531,879.1,530.9,878.4,530.9,877.7z"/>
		</g>
		<g class="st1">
			<path d="M554.9,871.8v11.4h-3.3v-25.9h9.5c5,0,8,3.1,8,7.7c0,2.6-1.2,4.8-3.1,5.4c1.7,0.4,3,2.1,3,4.4v8.5h-3.2v-8.4
				c0-1.1-0.6-2-1.7-2.4c-1.1-0.4-2.3-0.6-3.9-0.6H554.9z M560.4,860.2h-5.5v8.6h5.9c3.9,0,5.1-1,5.1-3.9
				C565.8,861.3,564.4,860.2,560.4,860.2z"/>
		</g>
		<g class="st1">
			<path d="M574.5,874.3c0-5.5,3.4-9.3,8.3-9.3c2.7,0,4.8,1.1,5.9,3.1c1.1,1.9,1.5,4.1,1.5,6.2c0,0.3,0,0.7,0,1h-12.6
				c0.1,2,0.6,3.6,1.6,4.4s2.1,1.3,3.5,1.3h0.1c2.4,0,4.1-1.5,4.4-4.2h3c-0.1,1.4-0.4,2.7-1.2,3.9s-1.8,2.1-3.4,2.6
				c-0.8,0.3-1.8,0.4-2.8,0.4C577.6,883.7,574.5,879.9,574.5,874.3z M577.7,872.6h9.5c0-3.3-1.9-4.9-4.5-4.9
				C580,867.7,577.9,869.6,577.7,872.6z"/>
		</g>
		<g class="st1">
			<path d="M599.5,868.4c0.7-1.9,2.7-3.3,5.3-3.3c4.5,0,7.3,3.7,7.3,9.5c0,5.4-2.8,9.2-7.1,9.2c-1.1,0-2-0.2-2.8-0.5
				c-1.6-0.6-2.3-1.5-2.8-2.9v2.8h-3v-25.9h3V868.4z M604.4,881.1c2.8,0,4.6-2.3,4.6-6.4c0-4.4-1.7-7.1-4.6-7.1c-3,0-5,2.6-5,6.7
				C599.5,878.6,601.3,881.1,604.4,881.1z"/>
		</g>
		<g class="st1">
			<path d="M617.3,874.3c0-5.5,3.4-9.3,8.3-9.3c2.7,0,4.8,1.1,5.9,3.1c1.1,1.9,1.5,4.1,1.5,6.2c0,0.3,0,0.7,0,1h-12.6
				c0.1,2,0.6,3.6,1.6,4.4s2.1,1.3,3.5,1.3h0.1c2.4,0,4.1-1.5,4.4-4.2h3c-0.1,1.4-0.4,2.7-1.2,3.9s-1.8,2.1-3.4,2.6
				c-0.8,0.3-1.8,0.4-2.8,0.4C620.4,883.7,617.3,879.9,617.3,874.3z M620.5,872.6h9.5c0-3.3-1.9-4.9-4.5-4.9
				C622.8,867.7,620.7,869.6,620.5,872.6z"/>
		</g>
		<g class="st1">
			<path d="M642.4,857.2v26h-3.1v-26H642.4z"/>
			<path d="M657.8,876.2c0-2.9,1.2-5,3.6-5.9c-2.4-0.9-3.6-3.2-3.6-6.2c0-4.4,2.9-7.3,7.7-7.3c4.7,0,7.6,2.9,7.6,7.8h-3.4
				c0-3.6-1.4-5-4.3-5c-2.9,0-4.3,1.4-4.3,4.6s1.4,4.6,4.3,4.6h10.2v2.7h-2.5v4.7c0.1,3.1,1.4,4.5,4.3,4.5v2.9
				c-3.3,0-5.3-1.2-6.1-3.5c-0.6,2.1-3,3.5-5.8,3.5C660.7,883.7,657.8,880.7,657.8,876.2z M661.2,876.3c0,3,1.4,4.5,4.3,4.5
				c2.8,0,4.1-1.4,4.3-4.5v-4.7h-4.3C662.6,871.6,661.2,873.1,661.2,876.3z"/>
		</g>
		<g class="st1">
			<path d="M701.8,883.2h-9.6v-26h9.5c4.6,0,7.7,2.7,7.7,6.2c0,1.6-0.5,2.9-1,3.6s-1.5,1.4-2.1,1.6c-0.3,0.1-0.6,0.2-1,0.4
				c1.8,0.4,3.2,1.4,4,2.6c0.8,1.2,1.1,2.6,1.1,4.1c0,3.1-1.6,5.4-4.1,6.6C704.8,882.9,703.4,883.2,701.8,883.2z M701.1,860.2h-5.7
				v7.6h5.1c3.6,0,5.5-1.4,5.5-4C706,861.4,704.2,860.2,701.1,860.2z M701.2,870.7h-5.7v9.5h5.4c3.9,0,6.1-1.7,6.1-4.6
				C706.9,872.5,704.9,870.8,701.2,870.7z"/>
		</g>
		<g class="st1">
			<path d="M719.1,873.4v9.7h-2.9v-17.6h2.8v3.9c0.4-1.1,1-2,1.7-2.5c0.6-0.5,1.4-1,2.2-1.1s1.5-0.3,2-0.3h0.2c0.3,0,0.7,0,1,0h0.4
				v3.1c-0.1,0-0.3,0-0.7,0h-0.8c-0.4,0-1.4,0-1.9,0.1s-1.4,0.3-1.9,0.7c-0.5,0.3-1.1,0.8-1.5,1.5
				C719.3,871.5,719.1,872.4,719.1,873.4z"/>
		</g>
		<g class="st1">
			<path d="M730.2,874.3c0-5.5,3.4-9.3,8.3-9.3c2.7,0,4.8,1.1,5.9,3.1c1.1,1.9,1.5,4.1,1.5,6.2c0,0.3,0,0.7,0,1h-12.6
				c0.1,2,0.6,3.6,1.6,4.4s2.1,1.3,3.5,1.3h0.1c2.4,0,4.1-1.5,4.4-4.2h3c-0.1,1.4-0.4,2.7-1.2,3.9s-1.8,2.1-3.4,2.6
				c-0.8,0.3-1.8,0.4-2.8,0.4C733.2,883.7,730.2,879.9,730.2,874.3z M733.4,872.6h9.5c0-3.3-1.9-4.9-4.5-4.9
				C735.7,867.7,733.5,869.6,733.4,872.6z"/>
		</g>
		<g class="st1">
			<path d="M752.5,877.7v-9.8h-2.8v-2.4h2.8v-5.2h3v5.2h4.2v2.4h-4.2v9.4c0,0.7,0.1,1.2,0.2,1.7c0.1,0.4,0.4,0.8,0.6,0.9
				c0.3,0.2,0.6,0.4,0.9,0.4c0.3,0.1,0.7,0.1,1.1,0.1h0.6h1.4v2.7h-1.1c-1.4,0-2.1,0-3.2-0.2c-1.1-0.2-1.6-0.4-2.3-1s-1-1.3-1.2-2.4
				C752.5,879.1,752.5,878.4,752.5,877.7z"/>
		</g>
		<g class="st1">
			<path d="M765.6,877.7v-9.8h-2.8v-2.4h2.8v-5.2h3v5.2h4.2v2.4h-4.2v9.4c0,0.7,0.1,1.2,0.2,1.7c0.1,0.4,0.4,0.8,0.6,0.9
				c0.3,0.2,0.6,0.4,0.9,0.4c0.3,0.1,0.7,0.1,1.1,0.1h0.6h1.4v2.7h-1.1c-1.4,0-2.1,0-3.2-0.2c-1.1-0.2-1.6-0.4-2.3-1s-1-1.3-1.2-2.4
				C765.6,879.1,765.6,878.4,765.6,877.7z"/>
		</g>
		<g class="st1">
			<path d="M789.5,858.1v25.1h-3.2v-26h6.4l8.8,24.9v-24.9h3.2v25.9h-6.3L789.5,858.1z"/>
		</g>
		<g class="st1">
			<path d="M810.8,874.3c0-5.5,3.4-9.3,8.3-9.3c2.7,0,4.8,1.1,5.9,3.1c1.1,1.9,1.5,4.1,1.5,6.2c0,0.3,0,0.7,0,1h-12.6
				c0.1,2,0.6,3.6,1.6,4.4s2.1,1.3,3.5,1.3h0.1c2.4,0,4.1-1.5,4.4-4.2h3c-0.1,1.4-0.4,2.7-1.2,3.9s-1.8,2.1-3.4,2.6
				c-0.8,0.3-1.8,0.4-2.8,0.4C813.9,883.7,810.8,879.9,810.8,874.3z M814,872.6h9.5c0-3.3-1.9-4.9-4.5-4.9
				C816.3,867.7,814.2,869.6,814,872.6z"/>
		</g>
		<g class="st1">
			<path d="M840.7,883.2h-5.3l-4.8-17.7h2.9l4.5,16.6l4.2-16.6h5.2l4.2,16.6l4.5-16.6h2.9l-4.8,17.7h-5.3l-4.1-16.5L840.7,883.2z"/>
		</g>
		<g class="st1">
			<path d="M862.8,875.4h2.9c0,3.9,1.7,5.9,5,5.9c2,0,3.7-1.2,3.7-2.9c0-1-0.4-1.8-1.1-2.2c-0.8-0.4-1.3-0.6-2.5-0.9
				c-0.6-0.2-1.1-0.3-1.4-0.4c-3.1-1.1-5.3-1.7-5.5-4.6c0-0.1,0-0.2,0-0.4c0-2.9,2.6-4.8,6-4.8c4.9,0,7.4,2.3,7.4,6.8h-2.9
				c0-1.8-0.4-2.9-1.2-3.5s-1.7-0.8-3.2-0.8c-1.8,0-3.2,0.8-3.2,2.2c0,0.5,0.1,0.9,0.4,1.3s0.5,0.5,1.1,0.8s0.7,0.3,1.5,0.5
				c0.4,0.1,0.7,0.2,0.9,0.3c3.5,1.1,5.3,1.4,6.3,3.6c0.2,0.5,0.4,1.1,0.4,1.7c0,3.8-2.3,5.9-6.7,5.9c-2,0-3.7-0.5-4.7-1.2
				c-1.1-0.7-1.9-1.8-2.3-2.8c-0.4-1-0.7-2.2-0.7-3.1c0-0.3,0-0.6,0-0.9V875.4z"/>
		</g>
		<g class="st1">
			<path d="M886.4,876.5v6.7h-3v-26h3v15.3l7.6-7h3.8l-7.6,7.2l8.7,10.5h-4l-7-8.3L886.4,876.5z"/>
		</g>
		<g class="st1">
			<path d="M903.2,859.7c0-1.3,1.2-2.4,2.4-2.4c1.3,0,2.4,1.1,2.4,2.4c0,1.3-1.1,2.4-2.4,2.4C904.4,862.1,903.2,860.9,903.2,859.7z
				 M907.1,865.5v17.7h-3v-17.7H907.1z"/>
		</g>
		<g class="st1">
			<path d="M913.6,881c0-1.2,1-2.2,2.2-2.2c1.2,0,2.2,1,2.2,2.2v7.5h-2.2v-5.2C914.6,883.2,913.6,882.2,913.6,881z"/>
		</g>
		<g class="st1">
			<path d="M371.5,918.7c0-3.2,2.1-5,5.2-5.8c4.2-1,6-1.5,6-3c0-1.1-0.2-1.7-1.2-2.2c-0.5-0.2-1.2-0.3-2.1-0.3
				c-2.8,0-4.3,1.2-4.3,4.4h-3v-0.2c0-4.1,2.8-6.6,7.3-6.6c2.4,0,4.1,0.5,5.1,1.5s1.3,2.1,1.4,3.6v13.1h-3.1V920
				c-0.8,2.1-3,3.7-5.9,3.7C373.5,923.7,371.5,921.6,371.5,918.7z M374.6,918.6c0,1.5,1,2.6,3,2.6c2,0,3.8-1.3,4.6-2.8
				c0.4-0.7,0.6-1.4,0.6-2.1v-3c-0.5,0.3-1.1,0.5-1.4,0.7c-0.2,0.1-0.4,0.1-0.6,0.2l-0.5,0.2c-0.1,0-0.3,0.1-0.6,0.2
				s-0.5,0.2-0.7,0.2c-1.3,0.4-2.1,0.7-3,1.2C375,916.7,374.6,917.5,374.6,918.6z"/>
		</g>
		<g class="st1">
			<path d="M395.5,914.2v9h-3v-17.6h3v2.9c0.9-2,2.8-3.4,5.7-3.4c3.4,0,5.8,2.1,5.8,5.5v12.7h-3V911c0-2.1-1.1-3.4-3.2-3.4
				C397.5,907.7,395.5,910.1,395.5,914.2z"/>
		</g>
		<g class="st1">
			<path d="M420.4,905c2.6,0,4.6,1.4,5.3,3.3v-11.1h3v25.9h-3v-2.9c-0.9,2.2-2.4,3.4-5.6,3.4c-4.3,0-7.1-3.8-7.1-9.2
				C413.1,908.7,415.9,905,420.4,905z M420.8,921.1c3.1,0,5-2.6,5-6.9c0-4.1-2-6.7-5-6.7c-2.9,0-4.6,2.7-4.6,7.1
				C416.2,918.9,418,921.1,420.8,921.1z"/>
		</g>
		<g class="st1">
			<path d="M449.1,914.2v9h-3v-17.6h3v2.9c0.9-2,2.8-3.4,5.7-3.4c3.4,0,5.8,2.1,5.8,5.5v12.7h-3V911c0-2.1-1.1-3.4-3.2-3.4
				C451,907.7,449.1,910.1,449.1,914.2z"/>
		</g>
		<g class="st1">
			<path d="M466.6,914.2c0-5.6,2.9-9.2,8-9.2h0.1c5.1,0,8,3.6,8,9.2c0,5.8-2.9,9.5-8.1,9.5S466.6,920,466.6,914.2z M469.7,914.4
				c0,4.4,1.8,6.6,5,6.6s5-2.2,5-6.6c0-4.5-1.8-6.7-5-6.7S469.7,909.9,469.7,914.4z"/>
		</g>
		<g class="st1">
			<path d="M496.7,923.2h-5.3l-4.8-17.7h2.9l4.5,16.6l4.2-16.6h5.2l4.2,16.6l4.5-16.6h2.9l-4.8,17.7H505l-4.1-16.5L496.7,923.2z"/>
		</g>
		<g class="st1">
			<path d="M530,923.2v-15.2h-2.4v-2.4h2.4v-3c0-2.1,0.3-3.3,1.2-4.4s2.4-1.4,5-1.4h1.2v2.7h-1.2c-1.4,0-2,0.1-2.5,0.6
				s-0.6,1.4-0.6,3v2.4h4.4v2.4H533v15.2H530z"/>
		</g>
		<g class="st1">
			<path d="M541.7,918.3v-12.7h3v12.1c0,2.1,1.1,3.3,3.2,3.3c3.3,0,5.3-2.7,5.3-6.5v-9h3v17.6h-3v-3c-0.9,2.1-3,3.5-5.9,3.5
				C543.9,923.7,541.7,921.6,541.7,918.3z"/>
			<path d="M565.7,897.2v26h-3.1v-26H565.7z"/>
		</g>
		<g class="st1">
			<path d="M576.4,897.2v26h-3.1v-26H576.4z"/>
		</g>
		<g class="st1">
			<path d="M592.5,915.4h2.9c0,3.9,1.7,5.9,5,5.9c2,0,3.7-1.2,3.7-2.9c0-1-0.4-1.8-1.1-2.2c-0.8-0.4-1.3-0.6-2.5-0.9
				c-0.6-0.2-1.1-0.3-1.4-0.4c-3.1-1.1-5.3-1.7-5.5-4.6c0-0.1,0-0.2,0-0.4c0-2.9,2.6-4.8,6-4.8c4.9,0,7.4,2.3,7.4,6.8H604
				c0-1.8-0.4-2.9-1.2-3.5s-1.7-0.8-3.2-0.8c-1.8,0-3.2,0.8-3.2,2.2c0,0.5,0.1,0.9,0.4,1.3s0.5,0.5,1.1,0.8s0.7,0.3,1.5,0.5
				c0.4,0.1,0.7,0.2,0.9,0.3c3.5,1.1,5.3,1.4,6.3,3.6c0.2,0.5,0.4,1.1,0.4,1.7c0,3.8-2.3,5.9-6.7,5.9c-2,0-3.7-0.5-4.7-1.2
				c-1.1-0.7-1.9-1.8-2.3-2.8c-0.4-1-0.7-2.2-0.7-3.1c0-0.3,0-0.6,0-0.9V915.4z"/>
		</g>
		<g class="st1">
			<path d="M616.1,908.3c0.9-2.2,2.8-3.3,5.6-3.3c4.3,0,7,3.8,7,9.2c0,5.8-2.8,9.5-7.3,9.5c-2.8,0-4.3-1.1-5.3-3.4v9.8h-3v-24.5h3
				V908.3z M621.1,921.1c2.9,0,4.6-2.7,4.6-7.2c0-4.1-1.8-6.4-4.6-6.4c-3.1,0-5,2.5-5,6.8C616.1,918.5,618,921.1,621.1,921.1z"/>
		</g>
		<g class="st1">
			<path d="M633.9,914.3c0-5.5,3.4-9.3,8.3-9.3c2.7,0,4.8,1.1,5.9,3.1c1.1,1.9,1.5,4.1,1.5,6.2c0,0.3,0,0.7,0,1H637
				c0.1,2,0.6,3.6,1.6,4.4s2.1,1.3,3.5,1.3h0.1c2.4,0,4.1-1.5,4.4-4.2h3c-0.1,1.4-0.4,2.7-1.2,3.9s-1.8,2.1-3.4,2.6
				c-0.8,0.3-1.8,0.4-2.8,0.4C637,923.7,633.9,919.9,633.9,914.3z M637.1,912.6h9.5c0-3.3-1.9-4.9-4.5-4.9
				C639.4,907.7,637.3,909.6,637.1,912.6z"/>
		</g>
		<g class="st1">
			<path d="M655,914.3c0-5.5,3.4-9.3,8.3-9.3c2.7,0,4.8,1.1,5.9,3.1c1.1,1.9,1.5,4.1,1.5,6.2c0,0.3,0,0.7,0,1h-12.6
				c0.1,2,0.6,3.6,1.6,4.4s2.1,1.3,3.5,1.3h0.1c2.4,0,4.1-1.5,4.4-4.2h3c-0.1,1.4-0.4,2.7-1.2,3.9s-1.8,2.1-3.4,2.6
				c-0.8,0.3-1.8,0.4-2.8,0.4C658,923.7,655,919.9,655,914.3z M658.1,912.6h9.5c0-3.3-1.9-4.9-4.5-4.9
				C660.4,907.7,658.3,909.6,658.1,912.6z"/>
		</g>
		<g class="st1">
			<path d="M683.3,905c2.6,0,4.6,1.4,5.3,3.3v-11.1h3v25.9h-3v-2.9c-0.9,2.2-2.4,3.4-5.6,3.4c-4.3,0-7.1-3.8-7.1-9.2
				C676,908.7,678.8,905,683.3,905z M683.7,921.1c3.1,0,5-2.6,5-6.9c0-4.1-2-6.7-5-6.7c-2.9,0-4.6,2.7-4.6,7.1
				C679.1,918.9,680.8,921.1,683.7,921.1z"/>
		</g>
		<g class="st1">
			<path d="M706.9,918.7c0-3.2,2.1-5,5.2-5.8c4.2-1,6-1.5,6-3c0-1.1-0.2-1.7-1.2-2.2c-0.5-0.2-1.2-0.3-2.1-0.3
				c-2.8,0-4.3,1.2-4.3,4.4h-3v-0.2c0-4.1,2.8-6.6,7.3-6.6c2.4,0,4.1,0.5,5.1,1.5s1.3,2.1,1.4,3.6v13.1h-3.1V920
				c-0.8,2.1-3,3.7-5.9,3.7C708.9,923.7,706.9,921.6,706.9,918.7z M709.9,918.6c0,1.5,1,2.6,3,2.6c2,0,3.8-1.3,4.6-2.8
				c0.4-0.7,0.6-1.4,0.6-2.1v-3c-0.5,0.3-1.1,0.5-1.4,0.7c-0.2,0.1-0.4,0.1-0.6,0.2l-0.5,0.2c-0.1,0-0.3,0.1-0.6,0.2
				s-0.5,0.2-0.7,0.2c-1.3,0.4-2.1,0.7-3,1.2C710.4,916.7,709.9,917.5,709.9,918.6z"/>
		</g>
		<g class="st1">
			<path d="M730.9,914.2v9h-3v-25.9h3v11.2c0.9-2,2.8-3.4,5.7-3.4c3.4,0,5.8,2.1,5.8,5.5v12.7h-3V911c0-2.1-1.1-3.4-3.2-3.4
				C732.8,907.7,730.9,910.1,730.9,914.2z"/>
		</g>
		<g class="st1">
			<path d="M748.4,914.3c0-5.5,3.4-9.3,8.3-9.3c2.7,0,4.8,1.1,5.9,3.1c1.1,1.9,1.5,4.1,1.5,6.2c0,0.3,0,0.7,0,1h-12.6
				c0.1,2,0.6,3.6,1.6,4.4s2.1,1.3,3.5,1.3h0.1c2.4,0,4.1-1.5,4.4-4.2h3c-0.1,1.4-0.4,2.7-1.2,3.9s-1.8,2.1-3.4,2.6
				c-0.8,0.3-1.8,0.4-2.8,0.4C751.5,923.7,748.4,919.9,748.4,914.3z M751.6,912.6h9.5c0-3.3-1.9-4.9-4.5-4.9
				C753.9,907.7,751.7,909.6,751.6,912.6z"/>
		</g>
		<g class="st1">
			<path d="M768.9,918.7c0-3.2,2.1-5,5.2-5.8c4.2-1,6-1.5,6-3c0-1.1-0.2-1.7-1.2-2.2c-0.5-0.2-1.2-0.3-2.1-0.3
				c-2.8,0-4.3,1.2-4.3,4.4h-3v-0.2c0-4.1,2.8-6.6,7.3-6.6c2.4,0,4.1,0.5,5.1,1.5s1.3,2.1,1.4,3.6v13.1h-3.1V920
				c-0.8,2.1-3,3.7-5.9,3.7C770.9,923.7,768.9,921.6,768.9,918.7z M771.9,918.6c0,1.5,1,2.6,3,2.6c2,0,3.8-1.3,4.6-2.8
				c0.4-0.7,0.6-1.4,0.6-2.1v-3c-0.5,0.3-1.1,0.5-1.4,0.7c-0.2,0.1-0.4,0.1-0.6,0.2l-0.5,0.2c-0.1,0-0.3,0.1-0.6,0.2
				s-0.5,0.2-0.7,0.2c-1.3,0.4-2.1,0.7-3,1.2C772.4,916.7,771.9,917.5,771.9,918.6z"/>
		</g>
		<g class="st1">
			<path d="M796.2,905c2.6,0,4.6,1.4,5.3,3.3v-11.1h3v25.9h-3v-2.9c-0.9,2.2-2.4,3.4-5.6,3.4c-4.3,0-7.1-3.8-7.1-9.2
				C788.9,908.7,791.7,905,796.2,905z M796.6,921.1c3.1,0,5-2.6,5-6.9c0-4.1-2-6.7-5-6.7c-2.9,0-4.6,2.7-4.6,7.1
				C792,918.9,793.8,921.1,796.6,921.1z"/>
		</g>
		<g class="st1">
			<path d="M811.2,921c0-1.2,1-2.2,2.2-2.2c1.2,0,2.2,1,2.2,2.2c0,1.2-1,2.2-2.2,2.2C812.2,923.2,811.2,922.2,811.2,921z
				 M812.6,915.7l-0.9-9.5l-0.1-9h4l-0.3,9l-0.9,9.5H812.6z"/>
		</g>
	</g>
</g>
</svg>
