<?xml version="1.0" encoding="utf-8"?>
<!-- Generator: Adobe Illustrator 22.1.0, SVG Export Plug-In . SVG Version: 6.00 Build 0)  -->
<svg version="1.1" id="Layer_1" xmlns="http://www.w3.org/2000/svg" xmlns:xlink="http://www.w3.org/1999/xlink" x="0px" y="0px"
	 viewBox="0 0 1194 947.5" style="enable-background:new 0 0 1194 947.5;" xml:space="preserve">
<style type="text/css">
	.st0{fill:#FFFFFF;}
	.st1{enable-background:new    ;}
</style>
<metadata><?xpacket begin="﻿" id="W5M0MpCehiHzreSzNTczkc9d"?>
<x:xmpmeta xmlns:x="adobe:ns:meta/" x:xmptk="Adobe XMP Core 5.6-c143 79.161356, 2017/09/07-01:11:22        ">
   <rdf:RDF xmlns:rdf="http://www.w3.org/1999/02/22-rdf-syntax-ns#">
      <rdf:Description rdf:about=""
            xmlns:xmpMM="http://ns.adobe.com/xap/1.0/mm/"
            xmlns:stEvt="http://ns.adobe.com/xap/1.0/sType/ResourceEvent#"
            xmlns:stMfs="http://ns.adobe.com/xap/1.0/sType/ManifestItem#"
            xmlns:stRef="http://ns.adobe.com/xap/1.0/sType/ResourceRef#"
            xmlns:dc="http://purl.org/dc/elements/1.1/"
            xmlns:xmp="http://ns.adobe.com/xap/1.0/"
            xmlns:xmpGImg="http://ns.adobe.com/xap/1.0/g/img/"
            xmlns:xmpTPg="http://ns.adobe.com/xap/1.0/t/pg/"
            xmlns:stDim="http://ns.adobe.com/xap/1.0/sType/Dimensions#"
            xmlns:xmpG="http://ns.adobe.com/xap/1.0/g/">
         <xmpMM:DerivedFrom rdf:parseType="Resource"/>
         <xmpMM:DocumentID>xmp.did:935b5f55-887f-f445-a6bc-66b8ae11a009</xmpMM:DocumentID>
         <xmpMM:InstanceID>xmp.iid:935b5f55-887f-f445-a6bc-66b8ae11a009</xmpMM:InstanceID>
         <xmpMM:OriginalDocumentID>xmp.did:935b5f55-887f-f445-a6bc-66b8ae11a009</xmpMM:OriginalDocumentID>
         <xmpMM:History>
            <rdf:Seq>
               <rdf:li rdf:parseType="Resource">
                  <stEvt:action>saved</stEvt:action>
                  <stEvt:instanceID>xmp.iid:935b5f55-887f-f445-a6bc-66b8ae11a009</stEvt:instanceID>
                  <stEvt:when>2018-08-18T13:54:24+02:00</stEvt:when>
                  <stEvt:softwareAgent>Adobe Illustrator CC 22.1 (Windows)</stEvt:softwareAgent>
                  <stEvt:changed>/</stEvt:changed>
               </rdf:li>
            </rdf:Seq>
         </xmpMM:History>
         <xmpMM:Manifest>
            <rdf:Seq>
               <rdf:li rdf:parseType="Resource">
                  <stMfs:linkForm>EmbedByReference</stMfs:linkForm>
                  <stMfs:reference rdf:parseType="Resource">
                     <stRef:filePath>C:\Users\Juanin\Documents\Jorge_2018\01_CHAMBA\06_Backseat\Reeperbahn Fest 2018\01 wip\Artwork_Finales\e5_wodka_02.png</stRef:filePath>
                     <stRef:documentID>0</stRef:documentID>
                     <stRef:instanceID>0</stRef:instanceID>
                  </stMfs:reference>
               </rdf:li>
            </rdf:Seq>
         </xmpMM:Manifest>
         <xmpMM:Ingredients>
            <rdf:Bag>
               <rdf:li rdf:parseType="Resource">
                  <stRef:filePath>C:\Users\Juanin\Documents\Jorge_2018\01_CHAMBA\06_Backseat\Reeperbahn Fest 2018\01 wip\Artwork_Finales\e5_wodka_02.png</stRef:filePath>
                  <stRef:documentID>0</stRef:documentID>
                  <stRef:instanceID>0</stRef:instanceID>
               </rdf:li>
            </rdf:Bag>
         </xmpMM:Ingredients>
         <dc:format>image/svg+xml</dc:format>
         <xmp:CreatorTool>Adobe Illustrator CC 22.1 (Windows)</xmp:CreatorTool>
         <xmp:CreateDate>2018-08-18T13:54:24+02:00</xmp:CreateDate>
         <xmp:Thumbnails>
            <rdf:Alt>
               <rdf:li rdf:parseType="Resource">
                  <xmpGImg:width>256</xmpGImg:width>
                  <xmpGImg:height>204</xmpGImg:height>
                  <xmpGImg:format>JPEG</xmpGImg:format>
                  <xmpGImg:image>/9j/4AAQSkZJRgABAgEASABIAAD/7QAsUGhvdG9zaG9wIDMuMAA4QklNA+0AAAAAABAASAAAAAEA&#xA;AQBIAAAAAQAB/+4ADkFkb2JlAGTAAAAAAf/bAIQABgQEBAUEBgUFBgkGBQYJCwgGBggLDAoKCwoK&#xA;DBAMDAwMDAwQDA4PEA8ODBMTFBQTExwbGxscHx8fHx8fHx8fHwEHBwcNDA0YEBAYGhURFRofHx8f&#xA;Hx8fHx8fHx8fHx8fHx8fHx8fHx8fHx8fHx8fHx8fHx8fHx8fHx8fHx8fHx8f/8AAEQgAzAEAAwER&#xA;AAIRAQMRAf/EAaIAAAAHAQEBAQEAAAAAAAAAAAQFAwIGAQAHCAkKCwEAAgIDAQEBAQEAAAAAAAAA&#xA;AQACAwQFBgcICQoLEAACAQMDAgQCBgcDBAIGAnMBAgMRBAAFIRIxQVEGE2EicYEUMpGhBxWxQiPB&#xA;UtHhMxZi8CRygvElQzRTkqKyY3PCNUQnk6OzNhdUZHTD0uIIJoMJChgZhJRFRqS0VtNVKBry4/PE&#xA;1OT0ZXWFlaW1xdXl9WZ2hpamtsbW5vY3R1dnd4eXp7fH1+f3OEhYaHiImKi4yNjo+Ck5SVlpeYmZ&#xA;qbnJ2en5KjpKWmp6ipqqusra6voRAAICAQIDBQUEBQYECAMDbQEAAhEDBCESMUEFURNhIgZxgZEy&#xA;obHwFMHR4SNCFVJicvEzJDRDghaSUyWiY7LCB3PSNeJEgxdUkwgJChgZJjZFGidkdFU38qOzwygp&#xA;0+PzhJSktMTU5PRldYWVpbXF1eX1RlZmdoaWprbG1ub2R1dnd4eXp7fH1+f3OEhYaHiImKi4yNjo&#xA;+DlJWWl5iZmpucnZ6fkqOkpaanqKmqq6ytrq+v/aAAwDAQACEQMRAD8A9U4q7FXYq7FXYq7FXYq7&#xA;FXYqh9Q1HT9Nspr/AFC5is7K3XnPczuscaKO7OxAGKsUTzl5n1xPU8o6CJbBgDFrGtSvp9vICR8U&#xA;EAimupBTcF441bsxxVclx+b9uwkmstB1CKlXghubu0kHiqO8NwrkdiQtf8nFUy8tecbLW57qwkt5&#xA;tM1zT+Jv9HvAgnjV68JFMbPHLE9DxkjYqemxBAVYj5nTTL7U/Nur+b57mXyt5TjhWHSreWaKFiLV&#xA;LyeaeOF4/rDn1lRVkqgA6VJOKvIH/PL/AJxUjZkH5fPMOhlOlacxbvXlJPzr4k74qnmjfmh/zi3q&#xA;UyJZyXflK5rxhktje6WATt9rT5PRA/1/hxV6hoo80pZLf+UfNNp5z0c/YttSkiMlK1KxalZJT6JY&#xA;HPiwxVO/L3nqx1O+/RGoWs+h+YlUu2j3/ASSIoHKS2lRniuYxXdomNP2guKoC78x+cNR1PUovL8e&#xA;m2mkaXL9Ul1bU2mf1rpQplSKGIxAJEW9NnaTdwQBtiq6PUvzatA31zQ9H1RF6PY6hPbStTwhuLZo&#xA;9/ef6cVVP+VhTWkYbXPLGt6WOjOtsmpIPeumSXr8fdlGKp7oXmPQtfs/rmjX0N9bhijvCwYo46pI&#xA;v2kcd1YAjFUxxV2KuxV2KuxV2KuxV2KuxV2KuxV2KuxV2KuxV2KuxVid5+YVnNeS6b5Xs5fMupwu&#xA;Y7j6oypZW7ilRc3zfuUK13jTnJ/kYqw7zH5xOk38Vt54/MK38vXlyyLB5f8AL0CTTKXeiCWaeG8u&#xA;H5VHxLDCPxxVR/MK58p/l/bx+ZvzA12981zW708saNdrbLSVFB5iC3jghllVjU3EifAKU+L7Sr5f&#xA;/MX/AJyL/MrzpcSob99G0diRHpenu0S8ewllFJJT48jxr0UYqwTy95r8yeXNUTVdD1K40/UEYN68&#xA;LlS1DWjj7Lqe6sCD3xV9lflz57h/NzyjFrdnNBpP5k+V9jcEUiJkHSRa1a0uwnF1/ZYVHxKpxVrz&#xA;d5pspvy38/Sa1w8vap5khIsNJ1OWO2neX9GW9u6xiUp6iCeN0WRfhalQaYq8A8kf844695ltIrxr&#xA;2SOCVQ6x22nXzyGorRZbuOxsm/1luCvvirLF/wCcV7uGqvoHmO/O1JFudBsx7nibu8Py3xVN/Lv5&#xA;Aeb9A1CPUPLlr5q8uXy0BuI7rQrtWFejot7aBl8VYEHFXrGt+YdOh8snTPzSS4MkBR7bWbbTryGW&#xA;OZR8NwJbVbu1tZozuHjuiD4LuuKvO/z10/T9N/5xxtNP0bWD5gs11f6xPq8bCUTi6nublmlkjLIW&#xA;9SUct/tdh0xV8w6L5z836GVOja3f6aFNQtrcywr9KowBxVn2if8AOUP506UFQ64NQhX/AHVfQQy1&#xA;+cgVZT/weKvpzzR5rOi69Y6zp1uieZ/Mvl1Yo4ACkM+oS3dpBp4kBPxem95KfH0w29BirEPzB85/&#xA;kz5H8wReX/NR1/zF5iSNJNV1WC+ulkjeRA6miXVqkfIEMI4VCqpxVmfkbzPDrdp9Z/Lfzomuoi+p&#xA;L5b8xO0twgJA4i5oL2Lw5yrOvh44qzLQPzAtr3Vl0DW7Cfy95kdWeHTrwq8dyiCrvZ3MZMVwqg1Y&#xA;Ah1/aUYqyvFXYq7FXYq7FXYq7FXYq7FXYq7FXYqg7/WtG08gX9/b2ZIqBPKkVQO/xkYq8r84+btE&#xA;vvLj+bPN+pTaV+XjHjpWkWzPFdawDXhJKUKS+lMPiigUrVPjlbiSqqvnrz7/AM5S+adTtf0J5Jtk&#xA;8oeW4V9K3iswq3RjHb1ECrCO/GIAj+Y4qmn5A+S9J0nSL/8AOnz2zPpeks76PFL8b3N2G4+sOf22&#xA;Ep4R/wDFlTtxxV5H+Y35g6959803XmDWJDzmPG1tQxMdvAp+CGOtNl7mnxGpO5xVjGKvQ7X8n9Qt&#xA;4SPMV7DpWrOqyW2gs8Yu+BK1kvXkeODT4qN9qduddhGajFX1D5E/IAaRpVu2kakvltLyJTqFzpcn&#xA;13UrhD8SqNVlWKNIzWtILRK0HxHFXo3ln8r/ACR5dkNzZaatxqTnlLq18zXl67eJuJy8g+SkD2xV&#xA;lWKuxVinnr8xdJ8lSaVJrFrdNpupTm2l1OCP1ILVzx4G4oaqrltiAemKoXzP+cX5eeXLC5vb/VEl&#xA;isrxdPv4rUGeW3mYsP30SVdF+A/ERv2riry3z/qv5A6ZqVrNp+q/4evtdgMiappUJuNIuonYxtHf&#xA;2yf6Lcxk1EqUDU6kVxV5d+YX5J+XLiWLV9A1DTbDR75RHa6za3LTaRPfMQRBIjepLppdQ5HOWWPl&#xA;ReSYq8U13y9reg6tNpGsWctlqMDcZLeQb7/ZZSKh1YbqykhhuCRir7s8w6Baj829P8xapKBofkPy&#xA;496zmm09w80Suw7hYbeRvZgMVfDfnHzLeeaPNOq+Ybyv1jU7mS4Kk14K7fBGD4IlFHsMVS2yvr2w&#xA;u4ryxuJLW7gbnDcQO0ciMOjK6kMp+WKvqv8AIH8xNQ/NWzv/ACb57V7+TR4U1XTfMSN6F1bvBIqK&#xA;3rR8eMqF6pINyOQbkK4q9Q8t+adY1BTJ5M856V54giFZNM1AxW1/wHf6zZqqqew52m/82Kss0Lz7&#xA;pmoagNG1G3n0LzCQWGkagFSSRV6vbSozwXKDxidiP2gMVZNirsVdirsVdirsVdiqncXFvbQSXFxK&#xA;kMESl5ZpGCIqjcszGgAGKsOf819Emblommat5hsVBMup6VZtNaKFrUpM5iW46f8AHv6hxVi/m7zy&#xA;1/oEmu6zrE/kjyATwt51Vota1TuPQRlMlrE9KqFQysvxfu13Krzv8svzM/KbzX59tfI+ifl7b/on&#xA;VFuPrGr6mI7m8k9GF5+U/qLO7cjHSrznc4q8z/5ys85HW/zNl0S1YLpHliJbC1gTaMTFQ1wwUdCG&#xA;pH/sBirzbyL5R1Dzh5u0vy3YbXGpTrEZKVEcYq0spHhHGrMflir1z/nKTzlYxahpn5Y+Xv3Pl3yl&#xA;DGk0SHZ7v0+IDU2YxRmlevNnrirxjy75c1jzFq0Ok6Rbm5vZ6kLUKqooq8kjsQqIi7szEADrir37&#xA;8v8A8tPLnlLTZfO2p6laxaBZxGJfNLAXM1xeKzBv0HbSosacHBjWadJWYrzRUU7Ksm/Kb8o7j8wN&#xA;Ls9b80WEei+TPUNzpvl20Mgl1F+RIu9SuJGeaeo2UkivVQin4lXsH5t/mbo/5XeSl1I2yyzMVstH&#xA;02OiK0gQlQafZijVPiIHgO4xV43+Xn/OTHmptB8zed/OxgbRbdrex0XSLKNYfVv2DO6RO5eSix8W&#xA;kLs1ARTwKr0vQPz+0aT8qdP8++YrVtPOo3L2dtpttWeWWUTtEqwiil/hTkdux9sVYJon/OX2nS+X&#xA;/NMmuQQ2PmDTWm/w/ZLHPwuVJKQpIGJKyI9PUqV26AUOKsE8gfmx+feveXNe8xaZqZ1e58rXNvc3&#xA;OlSwJIlza34l9ZWRArFYWtVZAhUgM++KpT+bfkbWfOeh235zeXbOR9N1+EPr2mxCr2lzan6tM6qu&#xA;7ws8Bbl1B3Psq8PLsVCEkqpJC12BPXb6MVZ7+Sknmt/O0Fh5dltHlvV9K70vUpEWzvoGZRJbyRyE&#xA;LJVTyC/a2qu+Kvor81/yD0y1j0/UrO1u9Q0DSmZnS2kaXVLCGpdI7YSckuLGJzz+rkeqpLcJKHiF&#xA;UR/zlH+Z2nQ/lRaW2jzq83nERCOZdmbT0AndxUK3FuaLuOjN0OKvi7FXYq+jIYn/ACp/5xrkuuPo&#xA;ea/zEcRq3+7I7BkNPCn7hifENL7Yq+eLW6urS4jubWZ7e5iYNFNExR0YdCrKQQflir3r8uf+ck/r&#xA;dvD5W/NaH9OeX3ZRDrDBvrto67JMXjpI5TqJEIlXqCx2xV9IaB5rv9Av9O0vWb79M+WNYCL5Y838&#xA;kbm0grHaXzrRDK4/uphtL0Px9VXouKuxV2KuxV2KpP5q80af5b0v69drJPLLItvY2NuvO4urmSvp&#xA;wQp+07U+QFSSACcVedebrvRNH0tfNv5xXsLRhi2l+UYT61nE43RPRNPr1yBTlJIPTQ7qqgciql35&#xA;P/n1q/5k+cdYEOnQ6T5O0WyMzvKTJctK7gRGRwVjRfTSRuKqaU+0cVfKX5x/mfqf5h+c7rV53ZdM&#xA;hZoNHszssNsrfD8P88n2nPjt0AAVZt/ziJbQD8zb3V7na30XSLu8d/D4o4j178JGxV47rOqXGrax&#xA;farcmtzqFxLdTGtfjmcyNv8ANsVe/wD/ADilptloWk+cfzP1KPlbaFZvb2hP7UgT15gv+VxWNB/r&#xA;4q8QstP8wec/Md1KtJr28le81O+lPpwQLLKPVubmU/DFEryDk7bCvyxV9Vfk7+UvlnTtNu9Q1OCa&#xA;Dypp0Ra6vr7lbRa23HnLc3Nu/H/cfAEH1eN/herO1dsVfO35yfmXP53823M1nJLB5XtGWDQdJ5cY&#xA;IIIkWMMkK0RDJx5Gg2rxrQDFUu0j82/zO0mWyey806osdgY/q1q95PJbhYqcYzA7mMx0FOBWlNsV&#xA;W3Oo/mH+ZvmiCC4nvfMOtXTlbaElpBGHNW4IPghiXq3EBVG+Ksn8/fl3r0fnW0/Lfy1p9zqNxoVt&#xA;BHdrbpIyS3t0qzXN4y/ZjU+qkXqNT4I0qdsVfTE//OP91d3H5axTajDBo3ki3he906OMlbm+iaOW&#xA;SRVPwcZpEPMsK0r44qxr8zP+cQLTzH5qn1zy7q0WkQahIZr2xlhLokjbu8JRl2Y78D0PQ02CqOkv&#xA;PIX/ADjJoGnWX1a71nUfMkzG+vl4Ru6WgUM3EkhVj+sfBH3qatir3DQ7jRL/AES2u9GMR0q+j+s2&#xA;72wCIy3FZGccKUZmcsT1r74q+PvzL/5xE866NNcah5Um/wAQ6bVpPq7EJfoOpBU0WY+6Hkf5cVeb&#xA;6V+TP5qTXYZtBvdHigIkl1PU0bTraAKw/eNcXHpKOJ32NfDFX2xr+mfmVpf5QwWnlnVhqPnLTbSB&#xA;vr8yrOb1oQDMoMvKrSrXizbn5muKvMtZ8jf428kWvmhtBuJDLC8Hmjyi0DQXVreBq3V3oyTAtbz+&#xA;svNol+GcbOC3VV8p+ZfKeseXbv0r1FltJXdbHVLdvVsrtYyAz21wvwSqOQrTdTswDVGKsr/If8tz&#xA;59/MOy024QnR7L/TdYft9XiI/d1/4tcqnjQk9sVey/8AOZdxp+q+VvI+s6XIJtMke7FrNHtG0cqQ&#xA;shVdtiIttumKvlbFXYq98/5xz/NTS1hm/LDzuRc+U9crDYNOx421xI1QgatY0kejKwI4SUYUqSFX&#xA;1V5L1fUrW7uPJ/mCdp9a0uMS2eoSUrqOnluMdztT97Gf3dwB0ejfZdcVZdirsVdirsVeWX/nDRbO&#xA;DX/zT1o+po+g+vpvlmEftiN/RuJogdvVu7pfRVv99oD0ZsVfEXn/AM/+Y/PXmO41zXLgyTSEi3tw&#xA;T6VvFX4Yol7KPvJ3O+Kva/JRHkf/AJxR8x6+f3epecbhrGzY7FoWJtaD3VFuHBxV84Yq9t/Ik/o3&#xA;8svzZ18/C0ekR6dA/fleiaM0oQRQ8MVeJYq+l9Ujk8t/84e6Rp1sh/SHm+/QPGgrJJ607zJxA3PK&#xA;K1jX6ad8VRP5Tfln5R0GxuLrzcsI0zRHNz5u1eSQfV11C3ZfQ0VQCfXjhL+rPwDK8wjQFuOKvefz&#xA;B83flzJ5ZtdF8w6sLOx87272WlOkcrNMtwiqGTgjcKeuhq9AKiuKvmjUP+cLvzHj1aS3sNS0240z&#xA;l+6vpnlhcoe7xKkhBHgGPzxVnn/QkfloaBLD/iK7bX2C+leGKMWisGBatuP3hBWo/vff2xVl/wCX&#xA;f5T+QfyM0S/80a3q3q3hiEN9rEyMiJE7qRDDAnqN8Tqv8zEjt0xV6voepaJrOnwa5o8kVzaajEkk&#xA;V7EKerH+zUkBtulG6Yq+cP8AnMDzb5m8veZ/JF3pc726WLT39sw/u2uonjHxr0YKu1D2YjvirHNN&#xA;/wCc2/N0Vn6eo+XrG6ugKCeGWWBSfFkPq/gwxV5D+aH5q+Z/zI1yLU9b9KMW0ZhsrK2VliiRjU8Q&#xA;xZizH7RJ3xV90/kloWraD+VPlvStWjMWoW9pWeFjVk9R2kVDTuquAcVZr6sfqGLmPUA5FKjlxO1a&#xA;eGKpN51XynL5avbTzZcW1voN6n1a7e8mWCIiTYL6jMlGr9mhrXFWM3X5g/lp+XMXljynd6k1vbXl&#xA;ukOj3D854vRj4xxtJcAMoVqgBunc0GKvPf8AnKj8zvzI8jXHl2Xyveix028E/wBYmEMMxeaMoQje&#xA;qr0Xg1dqV3xV5Fcarovn/wAs6u+mS22kHUWF35g0O4/3msNT5olrqNgzU4R3szC1n3/d+ryb4F5B&#xA;Vn/kryLrPkX8tbbyfbqLb8xPzJu5LS4dWV2srC3DLcSFkJBEEHI/CftybdMVYz+btnT/AJxk8l13&#xA;l0nWbnS3qPjHoPeQmvSn+847Dtir5yxV7B5B/wCcdNW84/lhqXnW01RIrm1Nx9R0kQ+obgWqhmBl&#xA;Dj02c1VRwPaux2VeQAkGo2IxV9ffkr+YVz+ZflKDSJrtIPzL8nj61oeoTE/6TCBwIlI+Jo5FIhuB&#xA;vsVf7VKKvffKXma18x6LFqMMTW04Z4L+wlIMtrdwnhPby0/ajcUr3FCNiMVTjFXYqx7z/qt7pvlW&#xA;8bTmCatemPT9KY1oLy9kW3gc034o8gdv8kE4q+Yv+ctvMNroum+WPyv0dythpVrHc3i1qW4L6Fqr&#xA;kftcVd2r15A4q+acVe7f85HeZNOs9A8l/lto86TWnl7T4LjUZImDI93JCFStP2gvNz/xkxV4Tir0&#xA;nQfPOiab+RPmbyoJWGu65qto/ocWobOAJLz504CkkXGla7+GKvNsVfZ3nnypfzeXvyq0mwulsZPL&#xA;9jDfRTOvJTqMf1Kz06NhRf728ugWrT4Q/fFVX85PywvtN/K3y9oemWUut6L5fuY7/VrO3D/XdTu2&#xA;lWOnwCUoJjczSSP8XGgFO4VeW/nB+b0LfnD5ck1fQq6b5JSHnoUc4AF68aTSqJfTpxhlWNKcKN6f&#xA;blsq9D8v/wDOa/la91eK11jQLjSdPlYKdQScXXp1/aeJY424jvxJPtiqSeeP+cxVi876cnli2a58&#xA;rabOx1CUn05NQRoylEDpWJELclruxArTFXnf54/85GXv5maZa6Lb6SNJ0i1uPrTBpvXmmkVWSMsQ&#xA;kaooWRvh3377Yq9o/wCcf/zN0Dyv/wA48Q6xq7XDWOi6jLYXZij9Rka4nWRSBUfAFuVJxVn/AOcv&#xA;5Vab+avk23t4Ltba+gIvNG1AqXSsifYcCh9OVaVI3GxoaUKr4P8AOnk/WPJ3mW88u6x6Q1GyKib0&#xA;JBKlHQOpDDxVgaEVxV7h/wA4o/lb5J8wSXfnDW70XNz5enB/Q8ihIYTx9SK6mkLHmvwtxWgAKmtc&#xA;VfVflXz35P8ANiXL+XNWt9TWzf0rkQNUo3aoNDxNPhboexxV8m/nt5k88flz/wA5C3PmjTblle8t&#xA;7eWzEoLQS2gjWOS3da7p6kTVAIP7Qod8VYV+bf8AzkB5s/MvTrLTNStbWw0+zl+smC1Dn1JwjIHZ&#xA;pGY/CrsAB471xVm835X+YPNf/OMWia83N9R8tPe3FhAylnl0uSUeoo3r8BjaRP8AJFB1GKvGvMX5&#xA;hec/MekaZo+t6pLfado68NOgkCD0wFCCrKoZyFUCrknFUw/KK70mH8wNKtdajM2jaq0mlajEG4gx&#xA;X8bW4cmh/unkWUe6jFX2H+TemRjzNq8WuzNd+b/KNvF5c9eQn95YKzXFveohJ4NcxSRq+5/u+u5x&#xA;V5r+btmT+SHnO0H2dF87XbIoIAVLif1lFN/2b0frxV8qYq+u/wDnCTzOs2geYfLEhHOzuY9QtwTu&#xA;yXKelIAPBGgX/gsVfNv5o+VT5U/MPzB5fCenDY3kgtVO5+rSH1bc/TC6nFUu8o+a9Y8p+Y7HzBo8&#xA;3o39hIJIzvxdejxuB1R1JVh4HFX3DoXnPSZv0X+Z2jMF8teaBBZebLbkCbS9FILe6cbANHIRbzHu&#xA;hR+iYq9bxV2KsR1mZNQ/MXQdJJb0dItbnXLimy+q1LK1DeIKzXDb90B7Yq+A/wA0/Nz+bvzC17zB&#xA;yLQ3t0/1Sva2i/dQD/kUi4qxXFWySTU7k4q1irsVdir9A/zAS2k88eRNDaQpZLdyaheljQeloVub&#xA;mEs3gJ542P8Aq4qwT8o/zx81/mJ+eOo2VtdmDyZa2lxPZ6b6MIZ0jeOFJJJOJl5M0nOnOg6YqxT8&#xA;+/8AnGfzrf8Am/V/NnlaNNSsdQLXs9kH43STUHqqiNtJyNWXia9qdKqvma4t57aeSC4jaGeJiksU&#xA;ilXVhsVZTQgjFVPFWcflR+U3mL8yNbn0/SqQ21lF619fSAlIwaiNPd5GFFHzPQHFUT+WX5r615Bv&#xA;LnS7u0j1Xyxey01zy7eRo8cpX4Sw9RW4SLT5Gg5A0FFX0p5g/wCcvvy2t/Kc8vl4XL641sy6fYSW&#xA;xRIZylI/WNRHwRqcuDGo6Yq+ONb1rVNc1e71jVbg3Wo30rT3VwwALu5qTRQFA8ABQdsVb07X9b02&#xA;0vrPT76e1tNTjEOoQRSMiTxqahZFBowHv7+OKo7yb528z+TdaTWfLl81jfqpjZwFdHjb7SSRuGR1&#xA;PuPcb4qy384/zw1n8zzpYv8ATbbT49LEnAQcnd2m48iXf4gvwCij6a4q9l/ID/nG/wDLrzF5M0vz&#xA;hr4uNUk1COX/AHGvIYbeN4p2i5VhKSsf3Xd6b7jFX0/bWdpa2kVnbwpDaQxiKK3RQsaxqOKoqjYK&#xA;BtTFXxf+f/8AzjbrPlq/1DzR5Xt/rflaQvc3FtF/eWINWcFP2oV/ZYfZH2ulSq8X8q6Freu+YtP0&#xA;nQ4XuNVuplW1jQbhl+IufBUALMewFcVfobbWVnpf5k6hfMUil1rTbAXEpoA8lnNPD36FjdwqKeAx&#xA;V5N+bVjy8m/nXpaglUvdK1aIdSPVgsy7UoAPitWFR2xV8a4qzj8nfzQu/wAt/OSeYIbX69byQSWl&#xA;9Z8/SMkMhVvhcq/Eq6K3TelO+KqH5tfmD/j/AM833mcWI05LpYo47UP6jBYYxGC78U5MeNem3Tti&#xA;rDsVe3/84w/mNZ6R5gufI/mDjN5W82g2ksM28SXMqmNag9FnU+k/+x7DFX1x5Cv7y2W88parK02q&#xA;+XyiRXMn27vTpK/U7on9piqGKU/78RuxGKstxV4z5u1+TTrf84fNCSGun2VpodjJ/JNFZmYU+U+q&#xA;CvyxV8I4q7FXuP8Aziv5S0PW9Z81XutWcN7Z6do8iqlyiyRpJO394OQNGCROAe1Tirw7FXYq7FX3&#xA;r+YWjr5j/MjTtGWcQpq/lzX7SC56gG6htIuQ8aK/LFXgv/OK0sfln89L7RNSljW6ktb3SVYNRGuI&#xA;Z43IQmleX1dqYq+2cVeBf85U/mz5a0jynqPkdGe48w6vAgZISvG2iMivWdq1BkVTxWm43NBSqr4o&#xA;xV9D/wDOE9zIv5i61ag/u5dIeVh/lR3UCr/ycOKoj/nKX8lvMS+eG80eWNFur/TdWiEuo/UonnMV&#xA;4hYSs0cSsyI6BW5HblyxV8/WGh63qF79QsNPuby+LcBawQySy8q048EBatfbFXvH5If84ueYtY1e&#xA;21nzzp76d5egJdtLueUV1dMAeKtGOLxIGoW5UJGwG9Qq9D/5yO/5x607U/LMGteRtFgtdV0gEXGm&#xA;6dbqjXdu3EfCkQHOWLjVdqsCRuaYq+OZYZYZXhmRo5Y2KSRuCrKymhBB3BBxVZirPvyb/NvVPy18&#xA;0HVbeH69YXMRt9Q09pGRXjLKwdDuokQr8LFTtUd8VZZ+bf8Azkx5q81eYLO78qXuoeXNJsoVC2kc&#xA;/BpLjkzPLJ6VAw4lVCsSNq9zirB/N35w/mV5v09NO8w69Pe2CFW+qhY4Y2K/ZLrCsYcj/KrirKv+&#xA;cVFlP54aEUBKrHemUjsv1OUb/wCyIxV9bfmNodl5j1iPRLi/OmtNpkqQXqMEkhu5b60lsmTdfj9W&#xA;zJUV34nFXlkmravrsH5r6Trtr9X8yQ+VIF1mJUJjkvNOF5xmg3A9OeN4pFoNq0/Z3VfIGKuxV2Ku&#xA;xVsEggg0I3BHWuKvtH8vPzJn81eQdJ8/Ixk8zeSibPzZEorJdaW4BuHoN2PBFuU/4sjZR1xV79b3&#xA;EFzbxXFvIssEyLJDKhqrI4qrKR1BBxV8x/m5efV/yB82Ximv+J/N17U06pb6i8Udf9hpy4q+S8Vd&#xA;ir6X/wCcabWXTvya/NLzHGv7w2U8UTf5VlYzTUB3/wCWgdsVfNGKuxVPvIXlmTzR500Xy8laaleR&#xA;QSsvVYmYeq/+xjDNir71/MTT7m180eTvM1nFy/Reo/V75RXe01QJYSN0p+6keF+v2Qx7Yq+JPzQg&#xA;1fyv+cPmJoZXtNQs9Xnu7SdCVdfUlM8Ein/VdTiqe+QP+ckfzH8o6pqF9Lc/p1dUZXvIdSeWQB05&#xA;UaIh19M/FQ0FKU22GKsP/MbzxeeefOeo+aby3jtLjUPS5W8JZkQQwpAtC2+6xgn3xVjWKvp7/nCv&#xA;y7JBd+ZPOd2ywabb2w05Z5DxWpZbiYlj8IEaxpU174q9M8x/85bflbomoizEGqalGy84r6zt4hby&#xA;LyZCYnuJrdnXkhHJV4nsTirJ4Pzx8iW9wbbzALvyrdsfgj1m3Nuko/njuIzNbSKfFZTiqyT82bbz&#xA;PPLon5avHrGr8ay6xJHIdIsgCCfrEy8Wd2Wvpxxcqt9oqtTirHtR/MTzn+XOpatJ5yv08z+X9Os9&#xA;Pury5tLWOyu7eXUbi4t4lgh5+nNHytvi5yKy1FOW+KpNrWlf84r/AJnP/iS91WystTvADcSm9GnX&#xA;RZRw/fQSso5DjTlw38Tiq3Xv+cYvyt178vrmD8vntv0q8iS2WttdNdo7xVDRPIhkCoysa8F60NDT&#xA;FXj0X/OHf5vvBPK36MjeEExwNdMXlp2jKxsgr/lsuKvIPMPlzXfLmqzaTrljNp+oQH95bzqVanZl&#xA;7Mppsy7HtiqW4q+sP+cSfyq1bQ3vPzC8wxCwtJbN4dMjuKpJ6TFXluXDAcE4pRSTuKnpQlVgv/OQ&#xA;P5j6trF3Fq1lObXTdemtrvRIqtHeR2ejG4it7o02Vbm5u53TetI1OKvZ/wAoPOWg/mr5S1O+uLeJ&#xA;fzDg0eXQ9WevBri3lUmOWi0BR3G+3wNyGwIqq+JJI5IpGjkUpIhKujAhgwNCCD0IxVbir13/AJx+&#xA;/LTyt+YR81aNqRZddi04T6BIshRY5QxV5GQfbAdogQexPehCrya4t57a4lt50Mc8LtHLGwoyupoy&#xA;keIIxVTxV6h/zjv+ZH+CPzEtXvJeGhaxSw1dWP7sJIaRzMDt+6cgk/y8h3xV9m+QWOg6nqPkKYkQ&#xA;6Uq3nl5mJJfSbhiEiqSam0lDQf6npk/axV4B/wA5AXES/wDOPnk6OKTmmoatLqAZ/tsZhdTFvlW5&#xA;/Vir5pi0+/mjEkVtLJG32XRGYGhpsQMVUXR0dkdSrqSGUihBHUEYq+3P+ca/Kyy/848TWjx7eYv0&#xA;k7rShYSBrPfcdVhxV8Q4q7FXvf8Azh95et5/PWqear6iWHlmweUzsPhjluAUDE+0KTYq9j8veddU&#xA;/MH8n/MN1qcdxBqmmXFxPcW0IC3Y0u9jNwhhU0X1Dpt2627Hbmqtv3VY5H+XPkv84NbRPM95PB5p&#xA;tbRZrbWtJKJa61pKsI4b0CVJeMqFhHMtQUbYjoFVeEfnZ+UOp/lr5oNk3qXGh3nKTR9QelZI1pyR&#xA;+IA9SMsA2wrse+KvO8Ve+f8AOO3/ADjtD53juNf82Q3Nv5djATT4429FruU/abkQW9JB3WlW77EY&#xA;q9e88Q+RrXTk/Kzy7PDpGi6ckVxqLqWltXvbi5SGx06+cN6hW5ldpJ/jDcE6gHFXl/8AzkFo483e&#xA;RtH/ADEtrM6fqWg08t+aNGRQsdlNbuxVUWnwqsktBufhdPfFXtmmXsPmv/nFz1UJuJJPK81u7N8T&#xA;G5tLRoXPz9aI4q85/wCccnudP/I26vYZHiefzdpaclJWsbX+nQyLUU2ZWZWHcYq9P/OnRNH9KO+u&#xA;FMhu5IbnUono0TWnl6C81JFKkfZaZwj+IbFWJflXaeUvLf8Azjhp/mbzBotpf3fpXV0qXFvHNLcT&#xA;z3ci2sSl1Zqy1jUYqk/5VW02kW/m/wAyeU7uPSfLmgg2kOrXrNJp+rzWys11dXVunEgeof3Utuyl&#xA;UIXhIQRirObj85fO2n6VY6hqWg6CllqCCSx1RvMdvaWt0pUNWAXUKSdCDQjbviqH1DW/ye/MI21j&#xA;+Y+jWuka00YbTzfXEfGe3Jqr2WqWzrHNGWJ+FZK1r8OKoix/KL/nGrywy6jJbaUnCjrNqN968dOo&#xA;PC4laM/8DirGPzm/Omw1byhqEWmWsknkyRPSu9VldrGTUZeS+nZ6aHCvKhen1mThT0eYX4ipxV8k&#xA;+afM2peZdbn1fUBGksoSOK3gX04IIYlEcUEKVPGONFCqKk+JJqcVRnkHzzrfkjzTZ+YtHk43Fq1J&#xA;YSSI54WI9SGQDqrj7jQjcDFXrX5+eTNA8x+X7T85PJKf7idWIXzDZrQNbXjHiZHUfZLP8En+VRhX&#xA;nXFXgeKvQPyF83Dyr+a+galJJ6dnNOLK9P7Po3Y9Es3sjMr/AOxxVkH/ADkj+XepaP8AnBqS6dYz&#xA;TW2ukanZLBG8nJpv96AOIO4n5Gg6AjFWM6T+Rn5vaqivaeU9QCMKq1xF9VBB6EG4MWKo7Wv+cdPz&#xA;n0XS7nVNQ8tSJZWiGW4eK4tLhlRd2b04JpJCANzRdhir6H/Lfz1Nr/5Z+UPOzuTqvk7UE0XXpDUm&#xA;SwujHbTM3UkBJLe4Y/zRnFUB5t/LjWvPX5V/lTo+n27T22nzW1lr8sbKDarCgtbpmBIP7p4nU07j&#xA;FUD+dH/ORPmn8u/PDeTfKNjp0Ok6Pa20fpTQu9GeIShV4SRhUEboAKVxVh6/85p/mNIrR3miaJPE&#xA;w+wIbpR9PK4kBxVOtJ/5zd1SARx3/lK2kiWgItLl4AB3Kq8cw+iv04q7/lZ3/OKHm4FfMfk+TQbq&#xA;Q8pLq3g9NAzdW9SwdZGPc8ovvxVBa5/zi75f8zaUuv8A5QeYotYsWcJLYXkgDISKkCUKpVhUH05U&#xA;Bp38VWZaJ+X8nkD8ux+WMF5HeeffP1wIr9bU8ha2LgJcytUBvRitlk+Igcnb4a4qzl72x0X89bDS&#xA;/LkDXkGo6Qtl5psbVS0dilp8Wm3M7fYUsjvFxZq8aGnSqrEr7y3+V/5VX94dU8+TWcC3E17oXl+E&#xA;1m02WetGgWETzcSrFeMiei43kRioYKq/lX8318w6dLp+oWkH5maOd+dnbQRanGOtL3SbkxI53oJL&#xA;eqbHFURE/wCQsM5lb8stQivKg/VZPLlwzcuwC+m8X40xVO/8MeYvPcVzceeFfRPK6vHJaeXEmWNL&#xA;e1tiHZrySIqkksxWjRkskSV6ScWCrFdXs/yZm8lTear6wWD8sNFu3XRtIsh6S6tfRsYGvJOJRpvj&#xA;5RQhm+yHZqggKqg/In5g6T+YOq3VjeaR9Q8jed2udGks5JBJIdVsbWGVbh5QqFXmtXWNRXrCpryJ&#xA;xVG/84qXk9ra+c/y21SQTny7fzRRqejRu8kE6in7PqRcv9lirzf8tpvOcflT/DOnzvb2dsZ9cs7T&#xA;04TDc3Gk3slxIbl3QzcFexgi4xOpBkDGoqMVe0fndr9pqf5GS+arJCLzVtOgtdPQHkVXWXtxKlOh&#xA;b09q/PFUp1fU/Kdh5o0byTq2r2ml6B5A02ynaGe4ggebV3QLasguDST6rCDNQ1Xmy8gdsVX/AJg6&#xA;5+REXkSx8gazqd/5a8sSJHJYSafDLLDcxwsH4x3UUN9DOObB3oxPL7RriqT+ZPIfkz80vys0fyj+&#xA;WfmaDUJvKkyNG1+zLL9XkDIwlCxRMv2qq3pUPGnXfFUFp/5XeSfyzs30DzT+aEcMN3xubnQ5LOxm&#xA;i5MKeqltex6gFJCcfUCAtQfLFV1h5z/5xQ8uTCZL6LWbmMg1bRbUmoodmj0+1Tf/ACT92KoTzl+f&#xA;f/ONOv30V5q3lbUNdvbaI29vPJDGq+nzLcSXuVNKkkVU09sVSFfzi/5xhv3a11D8tmtLNzx+sW8N&#xA;uJADUVPpSQuv+xbFVHzV/wA49eTvNXl6bzZ+TGqfpS3hq115fkctMm1eERfjKrgDaOUEt2boCqyf&#xA;/nGvyjFp/wCU/mvUPPF6tn5N1hpLa5068UwrH6X7mS49RiODM7emAFryQb1oMVSBfL//ADhjoch+&#xA;s65qOvupr6BNywIBOwe2gtU3p/PiqoPzh/5xc0IcdB/Lx9QlT7D3sEDqSOhD3MtzJ9PGuKqms/8A&#xA;Ob/mGQsNE8sWlqN+LXs8tzXwJWIW1PlXFWBa1/zlR+dOp8lj1iPTYm2MdlbQp9zyLJIPobFXpf8A&#xA;zij+aPnbzN5/1XSvMutXOqW02mPcQxXL80WWGaJPgWnw1SVq0pXvXFWY6R5H8taL5Z80/l55Aiv9&#xA;Yv8AX5prPWNUlQpp2nlx6MgM5WOJjbozfuovUkLijU/ZVZ1qmlwaB+Znl2fRXls18y3N6des1kf6&#xA;rcelZSSib6uaxpOZVjJkQKWAPKuKvjD/AJyDvzffnP5rmLcuF56Fd/8Aj3jSGm/h6dMVeeYq7FXY&#xA;qzj8ovzU1r8ufNcOrWbPLpspWPVtOBolxBXfY7CRK1jbsfYkFV9W3ul+ZrPzS3mf8r7e1vNO/MqG&#xA;H6xq8kYb9GTqvM3potWjkh5fumNPWA8eJVeb/m/+cVp+Xtpcfl5+XVw41QO7+ZvM7t6l3Ldyf3v7&#xA;3q07H7cn7H2VpT4VXzNPPNPM888jSzSsXklclmZmNSzMdyTiqniqpBPNBMk8EjRTRMHjlQlWVlNQ&#xA;ysNwRir6x/Kb8wv+Vz+QNX/LHzZfyw+Yvqxa01RWKvcxRsGVpAvEO0TBfUU/bXfrU4qg/wA+/KGv&#xA;6F+QfkrypZ2k1+NMkE+sT2UbzwxSxQv6heRFIVfVuHoWpWmKvHPyd1K5ebWPLNs/C+1aCK80JtgR&#xA;q+lSfWrMBjShkUSxD3cYq908mpLpP56xeZ7WExaX5ytLPV44+/1bWVSOfbuyai9vUdQrV6VOKp75&#xA;10ebyh+U6JdPHYXf+I9Ris7yZQwt7bWLm8tDPsR0s7oyjfwrirHvLGj+WLzTrLT/ADoLmDyLPqNz&#xA;d+S9HhS5muNZjU8Y7qe2tY3uFhgt0j4AqteZLbccVZ7q3mCLU/KmmW/5U6zF5Z0luZM0ei3EitC2&#xA;wNuhjRUPLkalfi618VXgn50+Z/Lws/M+mrMkuoalPo6W8BlhuJ3fT4ZkudSuHs2lto5peQjMZf1N&#xA;6soxVD/84e3U8P5wLFG1EudOuo5h4qCkgH/BIDiqVf8AOVU/qfnlr6caehHZR1rWtbKF6/8AD0xV&#xA;5JirsVdirLPyz/MbXfIHmq213SpG4KwS/s60jubcn44nHTp9k/snfFX1v/zk35itdU/5x9fU9Mk9&#xA;TT9afT5YnOxaGWRZ0qPH4FqMVfDmKuxV2KuxV77/AM4WxRv+auoswq0WiXDod9ibq2Wv3McVfUX5&#xA;T/8AHF1v/wACPX/+6rcYqreb0RfOnkS4ZTU6he26MOgMml3MlD8xBir4Y/Pqza0/OPzbE1atqEk2&#xA;/hMBKOns+KsBxV9h+WP+cPPyy1DyzZ3kuuahf3N7bxyi/s5bdbcsy8uUKGGQ8DX9piflir5k/Mzy&#xA;UfJPnrVvK/1xb8abIipdoOPNZYkmWq1NGVZArCv2gcVYvir66/5xV85avqH5TeafLlpKTq2gJNLo&#xA;5O5VbyKR4lUGv2biNz/ssVfJEssssryyu0ksjFpJGJZmZjUkk7kk4qsxV2KuxVm/5Px+ZLXz1pOu&#xA;aPo+o6tHpdykt5HpkEk0nomqyKeAp8SMRxYgMNqiuKvobVNA8weW2bzT5waOfR5IVY+apdV1jTtR&#xA;S5meqMLaCGb6uvH4Rai2IU9XNN1Xg/nvzZY23n3RfMuhXtnqGpWKw3l5f2MUsMc15DeSyRtKJYLT&#xA;nKYBD6rrEqs1TSpOKvpHy9r1vr+meVPNmkQcY/Lmvy+XvQcAn9GarNHHYyMB/voS2kgH+T1xVNv+&#xA;ck9Y8s/o7RtF11JJrCOeTXNUhiIBNpp0TBYm/l+tXU0UCn/KJ7Yqx6YXdz5Ib80Glb/E3m2y/QPl&#xA;7TE+GCxh1WeG3tYIB3aBUeRn4jmSdgKYq8U8z/lzFrnnLUL03K6J5VtZo9D0m59N7u61F9Jhj08n&#xA;T7OKklwztb82NQik0L1GKs38lf8AOJt5LbNc+aNPltokJcST6pDaN6Q3rJbQ2l+F26/6ViqI8rx/&#xA;lt5A8122veSzFqmoLzswkupzRWkokBDrDcXOnw2skm3wj60K4qwD/nILSdT17zbq/n6zs7iPTZmt&#xA;YdVs7mL0bvTrhLeOBY7mEszcJBEGSZf3bV4g8tsVeP4qnWheS/OHmAFtD0S/1RAeLSWltLMin/KZ&#xA;FKj6TiqaN+Un5npqEmnv5W1NbqJBLKrW0gVYySA5kI4cSVIBrTbFUt8weSPN/l6GKfW9IurC2nPG&#xA;C5ljYQuw6qkoqjMKdAa4q97tpptf/wCcLbpZHJl8v3oSMn9pUvEbiSf5Y7rb5UxV80Yq7FXYq7FX&#xA;0d/zhJA587+YJwRwj0xUI71e4Qj/AIgcVfSn5TGN/KlxcoP969Z1ydm3HLnrF1xah6VUDFXfmdK1&#xA;nZ6Bqy0A0zXtNaRz0WO8m/R8jfQl6cVfJH/OXmk/UfzlubmlP0pY2l38+Km2/wCxfFXimKsj8qfm&#xA;L558pF/8Oa3d6bHJX1IIpCYWLChYxNyjLU6NxqO2KpHe3t3fXk97eTPc3dzI01xcSsXkkkclmd2N&#xA;SWYmpJxVQxV9E/8AOE126fmFrlmK+nNpLTN4ViuYVFf+RpxV4N5gtY7TXtStY9o7e6niSgAHFJGU&#xA;bD5Yql+KuxV6p+Vf5Z6ZrllYajfmOW61C+misoLuRotPhstOiWa/vL5ozHK0a+siRqksdWrVqYq9&#xA;qa48maxMt1bRa15y8pQSGztYp7n6nbXN1xIjtNI0u0jsophGaNLI6hEQMd6YqksWq+UNKubq+W2t&#xA;fLmm2bxwauvlrV31Ka2S5JVEv7O5jksLuFmHGVIeTg/TiqG/LP8AJbQPOXme61aaw02zsyou006d&#xA;bwx3NtNIwgvrKzSa2a3glEZHGWaUBgw4qvEYqyfzR5DXQfN/mvSrTVtTisZfLZ8x6bp1lNHZQPd6&#xA;WPQSDhaxw/BGsUHAKQw7sTvirEfNvkPQdZ/Kfzn+YVpHfTGeeG38p/Wry7nkOn2lzF9YnImkZpPV&#xA;4zSFXqFVeQAoTiqvfeU/Kek6H+Vps/0pJe6rp0movbaRe3L3NxqcFvb/AFZIFZ5YICst07M/AcVU&#xA;/Iqs1u9K8z/ltotp5pvdRi138z9ZVbK203UIH1GaQ8ywtLFoJLRogqMDPLxYM1WPUDFVWL83dW1P&#xA;y5r3lPzhZvN5zvLe6ttT8v2kX6NttNsvRKy3U1/cSXMYg9OTn63JvZPFVKPL935jvLx4pNNGuWmn&#xA;aVDb3vk76xzF1pbBRBf2f72XS75QI+NYYIGLE9G6qsc1G60KC/09/Lmr6TDb+i7Wdv5gvJISdJuJ&#xA;PTlspvrAaOWzR1miaydvXjkUujlGC4q+d/M8eix+ZdWj0KQy6Il7cLpcrcuTWolYQMeQVqmPj1Fc&#xA;VfWf5f8A/OWfkX9Aabok2kXlhf2GnlWSJIWs/wDQrZnMcTCVZB6oi4Rj09mYA+OKvStO/Ln/ABTZ&#xA;WWq/mPCmoagyequhKWGn2rSb/HHWtxNxorvISop+7VB1VYb+aPlL8s/LOp6JpkH1XQ7HzRPJZa7p&#xA;byx2+myaekLNLdNFIRFFcQOI/QlTi3M/tYqwU6Lf+U/+cQ9Y069i46jq+o8LeAMsvP1LyJUaNozR&#xA;1khgMkbLUMpDCqkYq+W8VdirsVdir6r/AOcNNDudJ0nzZ5u1KB7bTzDDHbXMqlEeOESTXDKT1VRw&#xA;3GKvdfyY0+5sfyr8sxXQIuprJLucGtQ92TcsDXetZd8VV/zc02bUfyy8zW1vX60unz3FrxFT69sv&#xA;rxUr39SNcVfNn/OY8cGpx+R/Ntr8Vtq1hIqv/kUiuItj4i4bFXzXirsVTjy35P8ANPmaeaDy9pV1&#xA;qstunqTpaxNLwU7AtxG1e3jirKNP/IH85L+VYofKd8jMQtbhVt138WmaNaYq928k+WtN/wCcd/JO&#xA;reaPNV5bz+c9Wg9DTdJhfn9n4kiX7JYc+LTOPhUCgqftKvm3R/JHmvzBe2Un1c20OsTMttql+fq1&#xA;rNJzo/pzSACVw37EXJydlUnbFU/83/kf5x8s2K3krR6gP3jSW1rBfx3CRRIXknMN5a2jtCir8ciB&#xA;lX9oioxVNfyt/wCcc/N35h+Wb7zBYXVvY20DvDYpch63M0a1YKQKIgJC89967bYqhPy4/MHS9I09&#xA;dC11nsTaTzy6fqP1VL6JVu0SK8sr+ykZPWtZljViFPJGWoBrsqqefvzUt7mxGj+XZ3n3kW41toFs&#xA;+ELgobLSrVCwsLMptIEIeWvx7VBVTb/nHXznFo17LZ3Vos+n29/aapf3LIrC1tPTm0+a4LEEr6Ut&#xA;/A/L9lQ/icVe2eUvL+n3mo6n5St5n8u+dNNH1jSdatk9ECWF+E8MKDij2kyrBeSWw+D/AEktQbHF&#xA;U41jyt+ZfnbzP5dfV9Jh0CHRkuLXXtXhu45otSs7pUjuYLWKP98iTiOqmUqY61+0MVei+afJNprH&#xA;lUaDps50E23pnS7uxjRTaNF8IEUdAnBoy0Tp0ZGZehxVJ9M0HyT+WHlSXW9Vj0yC6sLdv0nr1tYW&#xA;mnS3HxVC8LdVHJzRVQH4m98Vee6V+YNjB5GuPzXvLeObzl5qluIPLFhcnm1rbQSNbRxRcqmOBFi+&#xA;sXLJxVqkn9nFXnn5n3Wj+WNL1RkEFxqWnaafLQ1NgslxqOtanGP0zdSzH95N9Wtv3RZieDyBTirH&#xA;/wAn/Oev6Z+XmoXWkSsdd0C8WLTCFErtaXiNf3FmFIY+k36Jd+KjqzN1rir0n88/JXlLUtb8svBa&#xA;QwrrfmXSfXkjVV5JrMbpcg8adfqUch/ynLdW3VYB+enkLTodCXVbCyitLm3Sy1NFgiSHnp+shl9F&#xA;1QKCbO7iMce20cir0QYqkGlfk7f+XXtte1vVLd9IKSiWTTEuZ5oyIXYXEBlgit7xLSRRLOLaWSka&#xA;O32QTir64/LL8xrvzLElpqkdn9be3+s2OpadcCezv4oyqzSRKQssLRNLH6kUq8l5r1xVketaH5LW&#xA;5fzHrljp/r2cPFtWvo4SYIVqSPWlH7tPiNdwMVeGedfM9lZeQ4LKx1Jbae6updV0C6+tRWCfo+7v&#xA;LwwRWU8zwIjW8DwRSqj8o4pCtAtRir58/N7SLq7893N/pto81hfpbJa38MRWC/uYbaKG8ntXAC3A&#xA;kukkb1I68yeXfFXoeif846flpYaNZX/n3z9DpF9cQRXF1owMFrc25ljD+iy3DPLzXl8VYR8sVTKO&#xA;x/5wt8vCkt5e+Y54/wBlvrj1I2rWJLSE/fTFXrPkvWfygf8ALy987+SPJ9uI7GRrdIGtbe3unmRk&#xA;UBpj6hC/vVblyNBXau2Kslu/Ln5gebY/qXmqax0fy5NT69o2lvNc3N1H3t572VbcLE/SRY4asKrz&#xA;oTirPURERURQqKAFUCgAGwAAxVbPBFPBJBMvOKVSkiHoVYUI+7FXyj+b+lXF/wD84w+X5Jh/pvlH&#xA;UTplzXcrHZSz6aVNOlTHEcVfLmKuxVlPkT8zvO/kO5uZ/K+pGxN4FW7jMcU0cgjJK8klVxUVPxCh&#xA;364q9U8qf85Gf85C6rLc3tpNZX9hpSLPqRu4bS1tUjZuKrJOzWwVnOyKJOTdgaHFU+/NKz8n/m/p&#xA;2nazpsn6G/Mn0o0k0S7d4Y72IGhjtpLkRRyMtS0ZT7W4IrSir2n8ofJXlC2a/wBUhcaprGl315os&#xA;E9wfVk0+006d7a1s4Q390Ft40YkCr15EmuKp5+aWia1qWmaPd6NbNeX+javaah9VRo0MtuC0F3H+&#xA;9ZEPK2nk+EnfFWGeUPJ35neXPLqeXfKKxadpWjetJbPraIzao11PJP6YFpO8lmkKtx5tVnJ+yAKY&#xA;q8nvfyO0z1NX8z6tod1LJqN3cFdAS4ld7BkUNcK0ljb3LOz3BZbZyvpemFMhqwGKvnrzDpcWk6/q&#xA;WlRXSX0VhdT2sd7F/dzLDI0YlShb4XC8hvirK/yRuEH5laTp06mWx1z1dH1CEEjnb6hE1u3SteBc&#xA;OB4qMVe43PmnVNGv/Lz6whttS8pyJaaheruZTbA2WqMCK8y+mXNhdA+Cmm6miqd/84heYtXiXzT5&#xA;F1mdnutBuudvC7cylXeK5RW3+FZYwfmxxV9A6vrGlaNps+p6tdxWOn2yhri6ncRxoCQoqzbbsQB4&#xA;nFXxr+emueYfOt5bXGiCe60bzjq7W2gQgMn1mHSIYYIXRH4kI9xfXB+IDfc9MVZxpuiW1t5xsLLV&#xA;biM+XfIemWzX0yHlHFaaYgkuWIFayXOrRMhUfFxtztRhVV4Z+cuquNU07yt65nfy3A8WqyV5CTWL&#xA;qU3GpyVpuRM3o17+nttirJ/+cW/KKeafNOr2T3lxZPa2cd9Z3Vq/pyQXcNwixToSGUuiSSLRlIKs&#xA;w71Cq784tW826n+ZVv5J0nUL3Wta07U/VF7cJBbyzam6QxK0axcYY4YYrePhWlCXZjQ7KvTNQ/Lr&#xA;zR528mW5eyvzNrnpXWsXmlC2khdoyZIYom1TUYG+rRSSO6JbxrCa1RmUKSqnunQ6Zdyyw6frNlqf&#xA;l+G0v/Mmi+VnhMH1htQs7q0mh53Lqfqqy/WaxqgZC/x0HGqr0L8ofL9nH5asPNMt5Pqms69ZQXFx&#xA;fXBcKkcqiUQWsB+C3hTlQIiitBWtBirMNZ0TSNb099O1ezhv7CVkaW1uEEkbGNg68laoNGUHFXy3&#xA;+ZWheXdT1mby9ZWX1PQdZ856dpllBbRlY4JbWMwavcIFHCHm1xGvHbnx5gGlcVes/lN5N8r+YfKt&#xA;x5m1jSrW/l8xyTCGO4hSSODTIZWgsrSBWBCRJBGpAWm5rir5m/5yO8nS+XNZtYmupLi2tbm70rSU&#xA;lPNo9Pt4rW+gQuSWb021SSIcv2UXFXjmKvsX8u/L95pX/OOHl/Saelqnm7VrN7dD3S5vo5uXVaj6&#xA;jbNL8sVfR+KuxV2KvEfNPl4X3k/84vKKgySLO2uWcRFai6tYrxAu3e7tZfpxV8M4qz38mfypm/Mz&#xA;zVNoUepx6UtvaPeS3Lx+uxVHSPikQeLkeUg/aFBirPvP3/OH/nry9YS6joN7D5jtbdDJPBHGba7C&#xA;qCWKQs0ivQDosnI9ApxVmX/OLX5ZaBqGkaXrl/8A6Qwe41F7OQVilmjlNpaFkJKv9U9Kd1NOsw/l&#xA;FVX0p5j8s6D5k0qXStcsYr6xmFGilUGhpsyN1Rh2ZdxirHPIX5c3HlXVtUv5NU+vjUbaxteHomJz&#xA;+j0eJZ55DLL6s8kbKJHotStab7KpL+Zf/ORX5eeQNTXSdRe41DVRxNxZWCJI0KsKgytI8aAkfs8u&#xA;XtTFU8/LX83fJf5i2lzP5duJDNZcPrlncRmKaL1K8CRVlYHgd1Y4q8C/O/Q7rX/PthYS67ZaPc6V&#xA;f3H6SS5uV0+f6nfzrLHd20s7RxzolmI0dUbkJEYUOKoHzn5O1K4/L3y7qGoSWCWnmy0lmZH0/TtL&#xA;tdLuRb/WrKOG8VI2hEjqIv3j0daioJGKsf8Aya/LrTdK/Mny5qM/mnTbqa1vFLQWa3M0LTFGK28d&#xA;6YltXn78Fc1oeJJoCq9C/N7VLTXtT80aVY2oVdIWW+s7pCp+tzWVnHFqtuvHpy02+hA3P91X5KvJ&#xA;11vzF+UvnnQPO+nTDUbbzHp0OoXasSqXP1gL+kLZn+KjJcKxDU+H4TTtirKvPn/OYFx5o8t3OiR+&#xA;T7OGO6Keqb+4N/EfTkWRf3Po26khkBHIke2Ksn/Jv889c1Pyb5l1XX7Cxvr7yqtlB5Xjgtord/rG&#xA;pGS3jt4+A4orPGg+BR8Na1xVf5Z8vaa+hW3ly3u2v5fOV/c6h5m1A7k6b5fuDHcBRX7N9fI5Tfb1&#xA;SN6bqvlC4nmuJ5LidzJPMzSSyMaszsasxPiScVfS/wDzg9bltd81XNTSO1tY6U2/eSSN1/554q8+&#xA;8x+bLLRP+cjPMer3rSvZrqWq2FxNDvLFHcxTWLSoDTk0Al5BajlxpUVrir67/JrzTZ6n5Yh0OOP0&#xA;7jy5a2Np6if3Nzavao9neQVAZY7iGjhGHJPsnpiqU6j+Q9pdalKsOqiDy/PLPMdP+pxPeW63pLXk&#xA;NjqHJZLaG5LESIEb4WYAiuKvRmudD0S1tLOSe3062AW2sYZHSJaIAqRxhiK0FAAMVR5IAqTQDcnF&#xA;XyHrP5z/AJfa15/1RIfLWrR6NLdGLXdX0fVbqCC6tVf0Gurmyt4wrIydfjDFdq1xV9aabY2Nhp9t&#xA;Y6fClvY20SRW0EY4okaKAqqOwAxV8y/m9+X3mj84PMc8PlaOEWuia1f2t5f3UojhX/QtNiqKBpH/&#xA;AH1tMp4KaccVS6y/5xl/K3yb6V7+ZvnSDmtHOmROlqr06r8Re4lU/wCQqnFXqmj/AJi/kp+aOsw+&#xA;R9PtpdTTToGvLK4WGS1hgFvxhBt5OUM8bhZPhKqNu+Ksw/LK/v7jSNTsr24lvDo2rX2mW97csHnl&#xA;gt5aRGVh9p1VuBY7txqeuKsvxV2KsLuo47T82YRIq/V/MehywSqw2eXSrkOinxLRajJ9C+2Kvz18&#xA;26HJoPmnWNEkry0y9uLSp7iGVkB+kLXFUHpeq6npV/DqGl3c1jfQHlBdW8jRSoaUqroQw2OKvpr8&#xA;r/zi866/5Mu28z+abiO3a/Gn3WoW9rA1zZQG0knhZBHCxeS6ni9FS4PcD4mUhVItKubjy1r9ppGl&#xA;mTSn0XyvfaxqghmmDaVqjxM/NlMjA+v6FmsttLzjDPQKDir678s3d/e+W9JvNQT07+5s7ea7jpTj&#xA;M8StIKdqMTiqYSyxxRvLK4SKNSzuxAVVAqSSegGKvzp8qeWL780Pzb/RM2ocJ9bvLqe51Ir6lFUS&#xA;Tu4Wq1qqUUbDpirJvzH8peZ/yD8/2M/lfWZ/9LtDLa6g0SDkCxSaCSNvUjkC0Vtx3HfFXqOgf85b&#xA;/l/rWmWFr+YHl1ptRT4bm5jtoLq0DVp6qpK3qLUbkAH2riqOP/OZHkS/199I1Hy9K3lSR/TOpSlJ&#xA;SVU1V3sjGfg5AGnMsBvSu2KvTvzCtdA8z/k1qtz5cMF1axWT6loc1lTilzZgzwPDwpxdZEpT5g98&#xA;VeIzXmtHXfMmu2lhNc6THDY+dtJvxGWtpfXtYINctvUoVP1mB5VZC3wmLYDFVtjonlC/8v6p5a8w&#xA;Ws8vkHTr+9t9B1yJZJJdCuGdmiln4EO1pdQSRTh3qnKoO1CFWC3H5E+SLa6V3/NLQp9Mru1ryub1&#xA;gegjtIWkZmPgGxV6d5Y8o6DolzZ6b5W8q6jqN4FjvbeymuRb3MtwgZbfVNWLVSxSISP9Uh48mqzM&#xA;nJVxVmuiflJ+YdlGrWZ8uaEosP0VHaxRalqDR2fqtN6XrS3MPxNK5dnVAxPc0GKvA/NX5GxXUs19&#xA;p8mn+VINLuX0rzNb3t1M1nbX0fp+hJayOJ7mSK8jmV0VgxU8qnjSir0v8gPK3mjyjZ6xbeUIofMO&#xA;o3skQ1jVpJja6NE9p6gW2tLj0p5bqUGZubrGEHSu26qR61+Q1zqnni81fUfK2uT6jqFxLeXWkpPZ&#xA;nTJbiaVpXf8ASytE8cDFt4xb+qB0O4xV6d5h17y/+RP5cfW5Ejn82apFDDFarJJIkk9tAsMUaeoe&#xA;YtbOIKik/EVA5EuxYqvnjQP+crfzk03V47zUNUTV7QEmfTri3t4o5AVKj4oI45EoTyHE9etcVYX+&#xA;Y/5o+b/zD1hNQ8wXIkWDmthZRKEgt0kapSNRua0FWYljQVOwxV67o/5O/wDOUd/5OsreHW5rXSL2&#xA;Kn6Jn1CWKSKF+iypT4VK78Ax22Irtir6G/Jj8ntF/Lfy0LSFVn1u+jjbW7+rMJZUBPCMNSkaF2C/&#xA;CCep3xVgfnn82PPGgal5rsNT1mw0rQdK1KCCHWobZ59SEd5bm7hs7a24tbvN6asoklZVWlW6jFXz&#xA;Xr/50ecZ0l0ry5qF35f8rq7m00y2mZZOLsWd57leM00krszyFmpU0AC0GKsBlllmkaWV2klc1d3J&#xA;ZiT3JO5xV9F/84SaWZfO3mDVKVFppq21fA3M6uPwtzir6Y/KxUbyrLeK3MajqmrXyuDUMlxqVw8R&#xA;G529IrTFWXYq7FWE/mX/AKBP5X8zH4YdD1eM30pNFSzvopLGZ3PZEa4SRidgFqemKvBf+chP+cbf&#xA;Oes+btR84+U44tTtdS4TXGmowjuI5FjVHMYchJFfjz2blU0pir5o1bRtX0e9ex1ayn0+8j+3bXUb&#xA;wyD5q4U4qg1ZlNVJB6VG2xxV75/zi3p3ly71/To9VulVHvbi4axkcCKa8sooP0WHU/tf6TePGP2i&#xA;hp9nFXvX55/kIv5i3FjrWm6q2k+ZNMj9G1mbkYXRXMihuBDxsrsSHWvyO1FXjvmD8n/+cmvMTDy3&#xA;q/mm3v7WPir27ajRGjWgWSWJUWVxTeroT9OKs88gflNp35G6bN5lvJJfMfm/U1Gl6fp9mvpxvJMR&#xA;L6MXP2gLySvTiik061VQPmvzDq/n/THtde0vy5relwRS3qxwPqlt6MURKyTW+uywDTzxKFWYN6ZI&#xA;pU4qlP5ff84wflV5pjTV49W1MW6lWudAmkthcwcxyjWaWEPyjlSkkTqAHjKspoa4q+iNT0vyRpvl&#xA;gaLqNpY23lxlW1TT5UjFu1d0iWIijMSKgAVr74q+d7X8qvN/kv8AMGS+/J7X7SOPUgxfy3rBkt5v&#xA;QDBmHo3CK88KGlJFo61pXqSq9IvP0R5Zn0TWfNfka0vPPGrSXK3d35ctROECoQ8nOQRys0kclOI5&#xA;M24Fe6rHj5f0K61/TNJ826DO3lLStLl0vT9ba2ktzp8+jXU0Amn1CP05YIp7VI5UZ34dx3OKqOrw&#xA;eTdL1HT7Xyb5p1OO61HnHB5mvdTnuNDs4ivCV0knk+r3NxwcpDGjNxkKsaUxVluk+Vbue1Xyd5Ok&#xA;vvLXlXTzy1vzA8LxX+pzzbt9UnmAJ5UJluePdRHtWiqX+dvym1Lyna23mn8p4Zo/M2nyh7+xmup5&#xA;11O1IIkjmWeRg71owNQetN+OKoK3/MXSNT1SLzHqf5O+Y183xwm3hnOktIvxqU4G5kEVFoxUu6bK&#xA;T2xVrWPOn5oyys155v8AKf5e3EIDW3lm9uLe5uStNlu5XZQn/PJcVS+f8+vzptrBrW38gR+Yb8il&#xA;vr+hSTX+lSdgw+rJNv4qZlPjTFUt/L38qzZeav8AlZH5zahbDzBqchuNJ0GdxJJ6zfEoEFWaR4x8&#xA;MUEYbjt3AAVZrqHnr8l/zZ0i70bXLe4j062dC9/fQNbRW0rNSP8A01S0VvI7DgFkdS/2aGtMVT7y&#xA;D+QH5Y+Sb/8ASmkae1xqIoYL28f6w8XXeKoCoTX7QFffFUF+aWt3Gq3yeXrC4nh0bTUlvfNmoW0s&#xA;ltGFjjH1fT3u4/7ozSSK81CCkQ5NRTirAvOnl7QNP09L7ySn13TxBLJfSPr+qadbNsPT9O4eeS0k&#xA;Rhy5EzKCKUbvir5r/MLzD5nv3sNP1TSk0HS7WNp9I0i3heG39OcgNco8peS4Mxj3mZ25U2NMVYfi&#xA;rsVfWn/OL1pN5N/J7zd57u4mU3fKSyiYUMyWETiLh4+pPM0a+4xV9C+R9DfQPJuh6LIay6dY29vM&#xA;xNS0scSrIxP+U9Tiqd4q7FVk0MM8MkE8aywyqUlicBlZWFGVlOxBHUYqwsflvc6O5l8k61PoKdf0&#xA;PMv17ST3otrIyyQD2t5Yx7YqhdUn8zz2f1Pzp5GtPMlmo3l0qS3vI2rsWNnqP1Z0/wBVHkPzxV55&#xA;rv5e/wDOMFzKRq2h3nly6fcvLa6rp8Y6/ZZkFpT3WuKqf5NflH+TOszebRa6ba69pFlqiQ6TeyuZ&#xA;z6DWcEjKJARWkjtir0n/AJUD+TX/AFKdj/wLf81Yq7/lQP5Nf9SnY/8AAt/zVirv+VA/k1/1Kdj/&#xA;AMC3/NWKu/5UD+TX/Up2P/At/wA1Yq7/AJUD+TX/AFKdj/wLf81Yq7/lQP5Nf9SnY/8AAt/zVirv&#xA;+VA/k1/1Kdj/AMC3/NWKu/5UD+TX/Up2P/At/wA1Yq7/AJUD+TX/AFKdj/wLf81Yq7/lQP5Nf9Sn&#xA;Y/8AAt/zVirv+VA/k1/1Kdj/AMC3/NWKu/5UD+TX/Up2P/At/wA1Yq7/AJUD+TX/AFKdj/wLf81Y&#xA;q7/lQP5Nf9SnY/8AAt/zVirv+VA/k1/1Kdj/AMC3/NWKu/5UD+TX/Up2P/At/wA1Yq7/AJUD+TX/&#xA;AFKdj/wLf81Yq7/lQP5Nf9SnY/8AAt/zVirv+VA/k1/1Kdj/AMC3/NWKu/5UD+TX/Up2P/At/wA1&#xA;Yq8e/wCcifyO0Vbby5pn5e+W4Idb1O6nT0rcrEZEiiEhDPK6oAoBO5GKsP8ALP8Azhf+YN8yPr2p&#xA;WOjQH7aIWu5x/sE4Rf8AJXFWcaT+S3/OOXk69S21jUZvNvmBGA/RMJe8l9QdvqGnq8gB/wCLiVxV&#xA;6xaaPq3m1tOTUdIPlzyZpckNxZ6DL6YubuS3o1t9YihLRW9vC6q6w8mZmC8uAXiyr0DFXYq7FXYq&#xA;7FXYq7FWAflt/wApf+Y3/bci/wC6ba4qz/FXYq7FXYq7FXYqxHXPNtvo3nzTLLUtQSz0y9065KJK&#xA;QqSXa3FusYDEV5cHegrirB9L/PTzLc6df3135Z9FbW7ayhjilaVjPNDM9pDJxX4JDNCkUgO6mRag&#xA;DFVWL82fNOpeaL3y8dKOnjTdWsrY38LiX1If0ilpMssZBMXrpWSOtDw3/wAoqpz50/Ni58u3utWC&#xA;2IkvNOgub20R1lCy2ttpMt96rOBxANzF6I33o1N1OKrtH/NPUbr8v7vzbeaYiJp98sN0lsZpEezE&#xA;sSzzw+rHBIxhjkeo4bsjUxVJ9P8AzO876zp4YaX+itUtDJFc26hpEN79Q1G5SFucZZogkFrJVOLF&#xA;npXajKpt5B87eatT1VY9RitrrS770BBqFvIapcnS7a6ljSLhT0g5f4i9eTcafDiqZ/l9+YF55q1X&#xA;zFZz6b9Qh0a5WG2kLljMheWMsykKUYNASVYAitCNqlVmuKuxV2KuxV2KuxV57+ZFlf3vnTyNbWOo&#xA;y6VcvcajxvoI4ZZEAsWJ4rOksW42+JTiqMk/KXQL5i3mHUdW8xBqcoNRvpBbEjubS1+rWp+mKmKs&#xA;o0fQdE0W0Fno+n22nWg6QWkSQpUbV4oFGKo7FXYq7FXYq7FXYq7FXYqwD8tv+Uv/ADG/7bkX/dNt&#xA;cVZ/irsVdirsVdirsVeb+d/NvnHyVpR1jUprW8s2u7mKOOCIq4RrOZ7JDXq7XUUabf78p2xVja/n&#xA;P5k0a3vE1eC3v77RZI9L1IeolhbNf3N7cxwySXDh1hj+qWqyHY7yKMVQvmP/AJyB1O4ElvodmunO&#xA;NDudWSa4kikn5/oJtUiUWxFeEbyxAybqzBlp4qsml/NzR9XfQNEudF9a383G4tbu1nljrbweo1s0&#xA;V1CVJ9UkFZYf2fiHJuJxVJdf/NbzLoX5o6nZSyi78vWT3gk01Fgaf07PQYNTHpKn+k8nmkcGR6x0&#xA;ouzUxVFWn/OQFxd6Xb3tr5a+tSE3pvUt7+CSJI7J7JC8E/BUn5nUo1240YMD0riqqfzymg806Zpl&#xA;1pXFNTKWktqlxG01vdw6ld6ZcmJePO6T1oEpxC0SrEDpiqY+RPzE1v8AMSwXUtGiTRI7K6hW8trh&#xA;0uvWtZjDOCGRQY5Tb814/ssw3IocVelYq7FXYq7FXYq7FWFeb/8AyYnkL/jPqX/UA+Ks1xV2KuxV&#xA;2KuxV2KuxV2KuxV2KsA/Lb/lL/zG/wC25F/3TbXFWf4q7FXYq7FXYq7FVskUUq8ZEV1qDxYAio3B&#xA;3xVSnsLGeKWKe3ilinp68borK9OnMEUbp3xV5nq3nnU7e9vL+CHSnso7+80MWEsLi+5WVpNMsjS+&#xA;pxZSyM3o+mP3Tcg9diqh3/Pfy1Y6fpN3q2hX0eqXUvpXkMVvE7W1bezuZLhysjhYil/bt9otvQ/E&#xA;uKphYfnJ5e1HVtUtNN0C/udVsrtbBF9K3ia6Dyz24likkkQemJLNw3MjYDbsFVXSvzAsNW1yDQ/L&#xA;OmRJbWWpiy1KSWOP0jaSQ3rtLbeg5Arc6fTk44n/AFtlVegGxsjMkxt4zNEWMUpReSlq8irUqK8j&#xA;XFW7e1tbZWW3hSFXYyOsahAXbdmNAKk9ziqrirsVdirsVdirsVYV5v8A/JieQv8AjPqX/UA+Ks1x&#xA;V2KuxV2KuxV2KuxV2KuxV2KsA/Lb/lL/AMxv+25F/wB021xVn+KuxV2KuxV2KuxV2KuxVK5PKvle&#xA;XVZNXk0exfVpozBLqDW0RuHiZeDRtKV5lSuxBNKYq1P5S8q3Hp/WNGsZvSmS5i9S2hbjPFGkMcq1&#xA;XZ0iiRFbqFUDoBiq+28teXLS7uL210qzgvLqYXN1cxW8SSyzjkBLI6qGZxzb4jvufHFV9t5e0C1k&#xA;eW1021gkkuWvpHigjRmunUo9wSqisrKxUv8AaINK4qj8VdirsVdirsVdirsVdirCvN//AJMTyF/x&#xA;n1L/AKgHxVmuKuxV2KuxV2KuxV2KuxV2KuxV4Bq3+IP8e+bv8I/4q/3vj/S/6L/Q/wBV+tfVIacP&#xA;rv73+64Yq7/kLv8A3/P/AIbeKu/5C7/3/P8A4beKu/5C7/3/AD/4beKu/wCQu/8Af8/+G3irv+Qu&#xA;/wDf8/8Aht4q7/kLv/f8/wDht4q7/kLv/f8AP/ht4q7/AJC7/wB/z/4beKu/5C7/AN/z/wCG3irv&#xA;+Qu/9/z/AOG3irv+Qu/9/wA/+G3irv8AkLv/AH/P/ht4q7/kLv8A3/P/AIbeKu/5C7/3/P8A4beK&#xA;u/5C7/3/AD/4beKu/wCQu/8Af8/+G3irv+Qu/wDf8/8Aht4q7/kLv/f8/wDht4q7/kLv/f8AP/ht&#xA;4q7/AJC7/wB/z/4beKozyj/iH/lY/lv/ABV/if1/9N/RP6X/AER9W9T6q/q1+o/vK+n07Yq9zxV2&#xA;KuxV2KuxV//Z</xmpGImg:image>
               </rdf:li>
            </rdf:Alt>
         </xmp:Thumbnails>
         <xmp:MetadataDate>2018-08-18T13:54:24+02:00</xmp:MetadataDate>
         <xmp:ModifyDate>2018-08-18T13:54:24+02:00</xmp:ModifyDate>
         <xmpTPg:MaxPageSize rdf:parseType="Resource">
            <stDim:w>1194.000000</stDim:w>
            <stDim:h>947.500000</stDim:h>
            <stDim:unit>Pixels</stDim:unit>
         </xmpTPg:MaxPageSize>
         <xmpTPg:NPages>1</xmpTPg:NPages>
         <xmpTPg:HasVisibleTransparency>True</xmpTPg:HasVisibleTransparency>
         <xmpTPg:HasVisibleOverprint>False</xmpTPg:HasVisibleOverprint>
         <xmpTPg:PlateNames>
            <rdf:Seq>
               <rdf:li>Cyan</rdf:li>
               <rdf:li>Magenta</rdf:li>
               <rdf:li>Yellow</rdf:li>
               <rdf:li>Black</rdf:li>
            </rdf:Seq>
         </xmpTPg:PlateNames>
         <xmpTPg:SwatchGroups>
            <rdf:Seq>
               <rdf:li rdf:parseType="Resource">
                  <xmpG:groupName>Default Swatch Group</xmpG:groupName>
                  <xmpG:groupType>0</xmpG:groupType>
               </rdf:li>
            </rdf:Seq>
         </xmpTPg:SwatchGroups>
      </rdf:Description>
   </rdf:RDF>
</x:xmpmeta>
                                                                                                    
                                                                                                    
                                                                                                    
                                                                                                    
                                                                                                    
                                                                                                    
                                                                                                    
                                                                                                    
                                                                                                    
                                                                                                    
                                                                                                    
                                                                                                    
                                                                                                    
                                                                                                    
                                                                                                    
                                                                                                    
                                                                                                    
                                                                                                    
                                                                                                    
                                                                                                    
                           
<?xpacket end="w"?>
	</metadata>
<title>T_e5_wodka</title>
<g id="Layer_2_1_">
	<g id="Layer_6">
		<g>
			<path d="M723,822c-11.1,11.6-26,15.7-42.1,16.6c-6.2,0.3-12.4,1.2-18.6,0.9c-10-0.5-18.2-4.9-23.8-13.3c-1.7-2.7-3.5-2.8-6.1-2.4
				c-5.9,0.8-11.9,2-17.8,1.7c-7-0.3-14-2-21.6-3.1c-6.4,13.7-20.5,16.8-34.4,18.9c-14.6,2.2-29.4,4.4-44,3.9
				c-12-0.4-24.7-1.7-35-10.3c-8.2-6.7-11.5-15.6-13.4-25.2c-1.6-7.7-2.3-15.6-3.5-24.2c-3.1,3.5-5.8,6.7-8.8,9.7
				c-23.5,23.3-51.7,32.9-84.7,30c-21.8-1.9-42.5-7.1-61.9-16.9c-16.6-8.4-30.3-20.8-42.2-35c-1.3-1.5-2.7-3-3.9-4.4
				c-5.5,3.2-10.8,6.5-16.2,9.5c-6.8,3.9-14.3,5.1-22,5.2c-11.3,0.2-22.8,1.1-34-0.2c-15-1.7-30-4.7-44.8-8.1
				c-21-4.8-41.4-11.7-60.9-20.9c-3.9-1.8-7.9-3.8-11-6.6c-2.7-2.4-5.2-5.9-6-9.3c-3.3-13.7-5.8-27.5-8.7-41.2
				c-4.8-23-10-45.9-14.5-68.9c-4-20.6-7.4-41.3-11-62c-6-34.7-10.5-69.6-7.5-105.2c-9.4-2.4-16.3-7.1-19.4-16.1
				c-4.1-12-4.2-24.2-2-36.7c1.2-6.8,1.1-13.9,1.6-20.9c0.7-10.3,1.2-20.5,2.3-30.7c1-9.2,2.5-18.3,4.1-27.4
				c2.1-11.5,3.9-23.2,6.9-34.5c3.9-14.5,8.7-28.7,13.5-42.9c3.9-11.6,8-23.2,12.9-34.4c3.7-8.4,8.4-16.5,13.5-24.2
				c11-16.4,26.6-28.3,43-38.6c10.3-6.5,21.9-10.9,33.1-15.7c4.7-2.1,12.8,0,18.9,3.8c20-17.2,40.5-33.6,69.7-29.9
				c3.3-4.4,6.5-9.4,10.4-13.8c10-11.3,23-18.4,35.9-25.5c13-7.1,26.7-13.1,40.2-19.3c9.6-4.3,19.8-7,30.5-5.6
				c2.9,0.4,5.7,1.7,7.8,2.3c11.8-7.5,22.9-15.6,35-22c24.3-13,49.4-14.7,74.1-1.3c5.6,3,10,8.6,14.6,13.3c5.3,5.4,10.5,11,15.1,17
				c3.9,5.1,6.9,10.8,10.3,16.3c0.1-1,0.2-2.3,0.2-3.7c0-14.5,0.6-29-0.2-43.5c-0.7-12.3,7.3-19.2,18-21.6
				c16.4-3.7,33.1-4.1,49.6-2.5C583,4.6,601.6,8.4,619,16.3c8.1,3.7,16.8,6.4,24.6,10.7c8.2,4.5,15.8,10.3,23.5,15.6
				c2.7,1.9,5.2,4,7.2,5.7c2.9-7.1,5.9-14,8.6-20.9c2.4-6.2,7.7-8.1,13.3-8.7c6.7-0.7,13.7-1,20.3,0.1c21.4,3.5,42.7,7.6,63.9,12
				c5.7,1.2,11.2,4.1,16.5,6.7c7,3.4,8.9,10.1,9.1,17.1c0.3,9.5,0.1,18.9,0.1,28.1c1.8-4,4-8.7,6-13.3c1.7-4,3.2-8,4.9-12
				c4.2-10.1,12.5-14.1,22.8-14.8c10.8-0.7,21.1,1.5,31,5.7c12.2,5.2,24.5,10.1,36.4,15.9c8.9,4.4,16.4,11,22.8,18.8
				c0.9,1.2,2.5,2.2,3.9,2.6c24.4,5.5,46.6,15.6,67.3,29.5c11.3,7.6,21.8,15.8,30.9,25.6c6.8,7.4,12.9,15.5,18.8,23.7
				c16.2,22.4,32.8,44.5,48.1,67.5c13.1,19.9,24.7,40.8,36.6,61.4c7.1,12.2,13.8,24.5,20.3,37c9.3,17.8,18.8,35.6,27.3,53.9
				c4.1,8.9,6,18.8,8.9,28.2c1.6,5.1,2.4,9.7,0.6,15.3c-2.9,9.1-9.8,12.5-17.3,15.7c-2.6,1.1-5.3,1.7-8.5,2.8c0,3.4,0.1,7.1,0,10.7
				c-0.6,19.4-0.9,38.8-2,58.2c-0.7,12.2-1.5,24.6-4.2,36.4c-3.3,14.2-10.8,26-26.4,30c-5.9,1.5-11.8,3.1-18.3,4.9
				c0,9.8,0.6,19.9-0.2,30c-0.5,5.8-3.6,11.3-5.2,17c-0.3,1.2,0.5,3.9,1.4,4.1c19.6,5.7,20.7,17.8,18,34.6
				c-0.8,5.1-1.2,10.2-1.8,15.3c-2.4,19.5-4.3,39.1-11.1,57.8c-3.4,9.6-9.6,17.2-17.6,23.3c-11.9,9.1-26.3,12.3-40.1,16.5
				c-13.4,4.1-27,8.1-40.8,10.8c-18.3,3.6-36.8,6.1-55.3,8.7c-15.5,2.2-31.1,1.9-46.6-1c-1.1-0.2-2.4-0.4-3.3-1
				c-6.3-4.7-11.4-1-17.1,1.6c-10.4,4.8-20.8,9.6-31.6,13c-13.2,4.2-26.8,7.6-40.4,10.2c-12.5,2.5-25.3,3.7-37.9,5.2
				c-8.4,1-16.9,2-25.3,1.8c-7.4-0.2-14.9-1.2-22-3.4C733.5,829.3,728.8,825.3,723,822z M152.6,151.1c-7.2-7.7-10.8-8.6-20.9-5
				c-1.3,0.4-2.5,1-3.7,1.4c-17.3,6.3-32.2,16.5-46.2,28.3c-12.8,10.8-23.6,23.4-29.9,38.9c-11.1,27.3-23.2,54.4-28.7,83.5
				c-4.9,26-8.8,52.2-11.9,78.5c-2.1,17.8-2.6,35.9-2.9,53.8C8,445,13.2,451.4,26.9,455.7c3.3,1,4.1,2.6,3.8,5.7
				c-0.6,6.1-1,12.3-1.4,18.4c-1.5,23.1,1.8,45.9,5.9,68.5c8.1,44.4,16.3,88.8,24.8,133.1c3.3,17.2,7.8,34.1,10.9,51.3
				c1.1,6.3,3.6,10.4,9.1,13.2c44.3,21.8,90.9,33.3,140.4,31.5c13.2-0.5,25.2-4.5,35.5-12.9c1.9-1.5,3.7-3.2,4.9-4.3
				c8.1,8.5,15.4,17.2,23.7,24.8c26.7,24.3,59.2,34.6,94.5,34.8c37.2,0.2,66.7-15.1,84.9-49c0.7-1.4,1.6-2.7,2.3-4.1
				c1.3,2,1.4,3.8,1.6,5.5c1.7,13.7,2.8,27.5,5.3,41.1c2.6,13.7,12,21.6,25.6,24c25.5,4.5,50.5,0.8,75.1-5.8
				c7.3-1.9,11.8-7.3,14.3-14.3c0.5-1.5,1-3,1.8-5.1c7.6,5.8,16,8.1,24.7,7.8c8.7-0.4,17.4-2,26.1-3.1c5.4,12.8,11.8,17.2,26.3,16.9
				c7.5-0.1,15-0.7,22.4-1.8c14.2-2.1,26.5-7.7,34.3-20.7c0.2-0.3,0.8-0.3,1.5-0.6c2.7,9.8,9.9,14.4,19.2,16.1
				c4.4,0.8,9,1.6,13.4,1.3c18.4-1.3,36.9-2.1,55.2-4.8c31.8-4.8,62.8-12.4,90.5-29.9c1.1-0.7,3.3-0.3,4.8,0.2
				c5.7,1.8,11.1,4.6,16.9,5.5c13.9,2.3,27.8,1.1,41.8-0.5c39.5-4.4,77.5-14.8,115-27.4c15-5.1,25.3-15.3,30.1-30.5
				c8.4-26.6,11-54.1,12.8-81.7c0.5-8.3-5-13.9-14.3-16c-3-0.7-6.1-1-9.2-1.5c0.1-0.7,0-1.1,0.1-1.4c7.5-17.8,10.9-36.3,8.9-55.7
				c-0.1-1.2,1.7-3.4,3-3.8c6.7-2.1,13.6-3.5,20.2-5.5c11.2-3.5,18.3-11,20-22.6c2.3-15.8,4.7-31.7,5.7-47.6
				c1.2-19.8,1-39.6,1.3-59.5c0-2.8,1-4.1,3.7-4.9c4.8-1.4,9.5-3.1,14.1-5c6-2.5,9.1-7.1,9-13.7c-0.1-3.3,0-6.8-1-9.9
				c-3.4-10.4-6.5-21.1-11.2-30.9c-9-18.9-18.9-37.5-28.6-56.1c-19-36.3-39.9-71.6-63-105.5c-9.6-14.2-19.8-28.1-30-41.9
				c-16.9-23-34.3-45.3-59.3-60.6c-19.6-11.9-39.8-21.4-62.2-26.3c-1.9-0.4-3.9-1.6-5.4-2.9c-5.6-4.9-10.5-10.9-16.8-14.8
				c-17.4-10.7-36.1-18.7-55.8-24c-4-1.1-8.3-1.3-12.4-1.2c-9.8,0.3-17.1,4.2-20.7,14.2c-5.4,15-11.4,29.9-17.2,44.8
				c-2,5.1-4,10.2-6.1,15.3c-0.8-1.8-0.7-3.3-0.6-4.8c1.1-19.5,2.5-38.9,3.3-58.4c0.5-12.2-3.3-17.4-15-21
				c-8.1-2.5-16.4-4.4-24.8-5.9c-17.7-3.1-35.4-6.5-53.3-8.5c-15.2-1.7-21.7,3.8-24.9,18.7c-1.1,5-1.3,10.2-1.9,15.3
				c-0.1,1.2-0.4,2.3-0.7,4.6c-20.2-22.5-45.3-35.3-72.4-44.4c-29-9.7-58.5-12.6-88.7-7.5c-12.7,2.1-16.4,6.5-16.6,18.9
				c-0.2,22.7-0.2,45.3-0.2,68c0,2.1,0,4.2,0,7.7c-1.2-1.7-1.5-1.9-1.6-2.2c-0.5-1.3-0.8-2.5-1.3-3.8c-5.8-16.5-11.3-33.2-24.1-46.1
				c-3.4-3.4-7-6.7-10-10.5c-12.5-16-30-18.8-48.4-18.2c-15.7,0.5-29.6,7.4-42.6,16c-8.8,5.9-17.3,12.3-26.2,18.6
				c-6.8-7-15.1-6.4-23.6-3.7c-26.5,8.5-50.9,21.4-74.2,36.4c-7.7,5-14,11.2-18.9,18.9c-2.3,3.6-4,7.6-6.2,11.9
				c-6.4-6.1-14-5.9-20.9-3.4c-10.2,3.8-20.4,8.3-29.6,14C166.7,137.7,160.1,144.8,152.6,151.1z"/>
			<path class="st0" d="M152.6,151.1c7.5-6.3,14.1-13.4,22-18.3c9.2-5.7,19.4-10.2,29.6-14c6.8-2.5,14.5-2.7,20.9,3.4
				c2.2-4.3,3.9-8.3,6.2-11.9c4.8-7.7,11.2-13.9,18.9-18.9c23.3-15.1,47.7-27.9,74.2-36.4c8.4-2.7,16.8-3.2,23.6,3.7
				c8.9-6.3,17.3-12.7,26.2-18.6c12.9-8.6,26.8-15.4,42.6-16c18.4-0.6,35.9,2.2,48.4,18.2c3,3.8,6.6,7.1,10,10.5
				c12.8,12.9,18.3,29.6,24.1,46.1c0.4,1.3,0.8,2.5,1.3,3.8c0.1,0.3,0.4,0.5,1.6,2.2c0-3.5,0-5.6,0-7.7c0.1-22.7,0-45.3,0.2-68
				c0.1-12.4,3.9-16.8,16.6-18.9c30.2-5.1,59.8-2.2,88.7,7.5c27.2,9.1,52.2,21.9,72.4,44.4c0.4-2.2,0.6-3.4,0.7-4.6
				c0.6-5.1,0.9-10.3,1.9-15.3c3.2-14.9,9.8-20.4,24.9-18.7c17.8,2,35.6,5.4,53.3,8.5c8.3,1.5,16.7,3.4,24.8,5.9
				c11.7,3.6,15.5,8.7,15,21c-0.8,19.5-2.2,38.9-3.3,58.4c-0.1,1.5-0.2,3,0.6,4.8c2-5.1,4.1-10.2,6.1-15.3
				c5.8-14.9,11.7-29.7,17.2-44.8c3.6-10,11-13.8,20.7-14.2c4.1-0.1,8.4,0.1,12.4,1.2c19.8,5.2,38.4,13.3,55.8,24
				c6.2,3.8,11.1,9.9,16.8,14.8c1.5,1.3,3.5,2.5,5.4,2.9c22.4,4.9,42.7,14.3,62.2,26.3c25.1,15.3,42.4,37.7,59.3,60.6
				c10.2,13.8,20.3,27.7,30,41.9c23.1,33.9,44,69.2,63,105.5c9.7,18.6,19.6,37.1,28.6,56.1c4.7,9.9,7.8,20.5,11.2,30.9
				c1,3.1,0.9,6.6,1,9.9c0.1,6.5-3,11.2-9,13.7c-4.6,1.9-9.3,3.6-14.1,5c-2.7,0.8-3.6,2.1-3.7,4.9c-0.3,19.8-0.1,39.7-1.3,59.5
				c-1,15.9-3.4,31.8-5.7,47.6c-1.7,11.7-8.8,19.2-20,22.6c-6.7,2.1-13.6,3.5-20.2,5.5c-1.3,0.4-3.1,2.6-3,3.8
				c1.9,19.4-1.4,37.8-8.9,55.7c-0.1,0.3-0.1,0.7-0.1,1.4c3,0.5,6.1,0.8,9.2,1.5c9.2,2.1,14.8,7.7,14.3,16
				c-1.7,27.6-4.4,55.2-12.8,81.7c-4.8,15.2-15.1,25.4-30.1,30.5c-37.5,12.6-75.5,23-115,27.4c-14,1.6-27.9,2.8-41.8,0.5
				c-5.8-0.9-11.2-3.7-16.9-5.5c-1.5-0.5-3.7-0.9-4.8-0.2c-27.7,17.5-58.7,25.2-90.5,29.9c-18.2,2.7-36.7,3.5-55.2,4.8
				c-4.4,0.3-9-0.5-13.4-1.3c-9.3-1.7-16.5-6.3-19.2-16.1c-0.7,0.3-1.3,0.3-1.5,0.6c-7.8,12.9-20.1,18.5-34.3,20.7
				c-7.4,1.1-14.9,1.6-22.4,1.8c-14.5,0.3-20.9-4.1-26.3-16.9c-8.8,1.1-17.4,2.7-26.1,3.1c-8.8,0.4-17.2-1.9-24.7-7.8
				c-0.7,2.1-1.2,3.6-1.8,5.1c-2.5,7-7.1,12.3-14.3,14.3c-24.6,6.6-49.6,10.3-75.1,5.8c-13.6-2.4-23-10.3-25.6-24
				c-2.5-13.5-3.6-27.4-5.3-41.1c-0.2-1.7-0.3-3.5-1.6-5.5c-0.8,1.4-1.6,2.7-2.3,4.1c-18.2,33.8-47.7,49.2-84.9,49
				c-35.3-0.2-67.8-10.5-94.5-34.8c-8.3-7.6-15.6-16.3-23.7-24.8c-1.2,1.1-3,2.8-4.9,4.3c-10.3,8.4-22.3,12.4-35.5,12.9
				c-49.6,1.7-96.1-9.8-140.4-31.5c-5.5-2.7-8-6.9-9.1-13.2c-3.1-17.2-7.6-34.1-10.9-51.3c-8.5-44.3-16.7-88.7-24.8-133.1
				c-4.1-22.6-7.4-45.4-5.9-68.5c0.4-6.2,0.8-12.3,1.4-18.4c0.3-3.1-0.5-4.7-3.8-5.7C13.2,451.4,8,445,8.3,430.5
				c0.3-18,0.8-36,2.9-53.8c3.1-26.3,7-52.5,11.9-78.5c5.5-29.1,17.6-56.2,28.7-83.5c6.3-15.5,17.1-28.1,29.9-38.9
				c14-11.7,28.9-22,46.2-28.3c1.3-0.5,2.5-1,3.7-1.4C141.8,142.5,145.5,143.4,152.6,151.1z M734.5,559.6c-0.4,0-0.9-0.1-1.3-0.1
				c0.5-29.8,1.2-59.6,1.5-89.5c0.1-5.7-0.8-11.7-2.4-17.2c-2-6.7-7.1-10.7-14.3-11.5c-25.8-2.7-51.6-2.8-77.3-0.1
				c-9.5,1-16.3,5.5-19.1,15c-1.5,5.1-3.3,10.1-4.4,15.3c-6.6,30.6-9.7,61.5-10.3,92.7c-0.1,3.8,0.1,7.9-1.3,11.3
				c-1,2.4-4.3,5-6.8,5.1c-2.1,0.1-5.2-2.9-6.2-5.2c-1.3-3.1-1-6.8-1.1-10.3c-0.6-22.6-0.6-45.3-1.8-67.9c-0.7-13.1-3.1-26.1-5.2-39
				c-1.2-7.1-5.7-12.1-12.6-14.3c-8.5-2.7-17.1-5.7-25.8-7.5c-16.3-3.3-32.7-6.5-49.5-5.3c-11.7,0.8-21.2,8.6-23.1,20
				c-2.6,15.6-4.3,31.3-6,47.1c-0.3,2.8,0.9,5.9,2.1,8.5c9.6,20.8,17.9,42.1,22.5,64.5c9,43,6,85.8-3.6,128.4
				c-3.2,14.3-9.5,27.9-7.2,43.5c3,20.7,4.2,41.8,6.7,62.6c1.4,11.3,6.2,14.9,17.3,16.6c17.9,2.8,35.2-0.4,52.6-3.6
				c14.2-2.5,16.2-5.3,15-19.9c-0.1-1.8-0.3-3.7-0.7-5.5c-1.9-10.1-3.7-20.3-6-30.4c-5-21.7-10.6-43.4-15.5-65.1
				c-1.2-5.1-1.5-10.6-1.2-15.8c0.1-2.2,2.7-5.3,4.8-5.9c1.7-0.5,4.9,1.8,6.2,3.6c2,2.8,3.3,6.2,4.2,9.5
				c7.3,27.7,14.3,55.5,21.7,83.2c2,7.5,4.8,14.8,7.7,22.1c2,5,6.2,7.7,11.3,9c9.7,2.3,19.2,1.1,28.5-2c4.7-1.6,6.7-4.9,7-10.2
				c1-16.8,2-33.6,4.3-50.3c2.8-20.8,6.8-41.4,10.6-62c2-10.8,4.8-21.4,7.7-32c0.6-2.2,3.6-3.8,5.4-5.7c1.1,2.3,2.9,4.6,3,6.9
				c0.3,7.3,0.7,14.7-0.3,22c-3.5,26.9-8.1,53.7-11.1,80.7c-2.1,19-2.3,38.2-3,57.3c-0.3,7.1,1.4,8.6,8.6,8.4
				c7-0.2,14.1-0.3,20.9-1.6c15.4-2.9,22.3-7.7,24.7-23.7c1.4-9.7,3.3-19.4,4.7-29.1c3.6-24.9,8.2-49.7,10.2-74.7
				C730.2,645.2,732,602.4,734.5,559.6z M517.7,222c0.3,0,0.7,0,1,0c-0.9,62.7-1.7,125.3-2.8,187.9c-0.1,5.1,1.9,5.8,6.2,6.5
				c14.3,2.3,28.7,4.5,42.7,8c16.2,4.1,30.4,11.6,34.9,29.9c0.2,1,1.7,2.3,2.5,2.3c1.5-0.1,3.1-1,4.3-1.9c0.8-0.7,1-2.1,1.4-3.2
				c4.7-14.3,14.8-22.2,29.6-24c9.9-1.2,19.9-1.8,29.8-3.1c2.8-0.4,6.5-1.7,7.9-3.8c6.9-9.9,14.2-19.8,19.5-30.7
				c11.6-23.7,15.5-49.4,17.7-75.5c3.9-46.1,2.1-91.9-4-137.6c-3.6-26.9-9.7-52.9-24.1-76.6C669,75,649.7,55,622.2,43
				c-30.1-13.1-61-19.9-93.9-16.3c-10.9,1.2-10.9,1.2-10.7,11.7c0,1.2,0.1,2.3,0.1,3.5C517.7,102,517.7,162,517.7,222z M496.2,224.9
				c0.5-30.7-2-63.2-9.2-95.2c-6.3-28.3-14.5-55.6-36.1-77.1c-11.5-11.4-24.4-15.4-39.1-11.4c-27.5,7.4-49,24.5-66.8,46.2
				c-27.6,33.6-45.7,72.1-55.3,114.2c-11.9,52.4-13.6,105.6-5.4,158.9c3.2,21.1,9.7,41.2,18.9,60.3c4.6,9.5,4.8,9.1,14.6,6.2
				c17.5-5.2,34.8-7.5,53.6-4.8c18.5,2.6,35.5,6.7,50.5,18c0.9,0.7,3.7,0.3,4.6-0.6c7.4-7.3,15.6-14.2,21.7-22.6
				c15.9-21.6,24.9-46.7,32.9-72C493.4,306.6,496.4,267,496.2,224.9z M235.9,602.4c0.8,0.7,1.4,1.3,2,1.8
				c11.8,8.6,20.2,19.9,24.5,33.8c4.1,13.3,8.2,26.8,10.9,40.5c4.2,21.2,6.5,42.5-0.9,63.7c-0.5,1.3,0,3.3,0.8,4.6
				c7.5,12.4,17.2,22.9,28.7,31.7c22.5,17.4,48.5,24.5,76.4,25.6c23.8,1,56.9-11.5,70.5-42c8.9-20,15.5-40.8,20.7-62
				c9.9-40.4,13.4-81.2,5-122.3c-6.7-32.6-20-62.7-36.7-91.4c-8.7-14.9-19.1-28.4-34-37.3c-28.1-16.8-57.5-16.1-86.9-3.9
				c-25.6,10.6-44.2,29.2-57.4,53.4c-1,1.9-1.2,4.9-0.6,7c5,17,6.5,34.3,6.3,51.9c-0.2,14.9-6,27.2-17.6,36.6
				C244.2,596.9,240.2,599.4,235.9,602.4z M743.5,790.1C743.5,790.1,743.5,790.1,743.5,790.1c-0.2,4.3-0.3,8.7-0.7,13
				c-0.3,4.1,1.5,6.5,5.5,6.7c8.1,0.5,16.3,1.6,24.4,1.1c30.1-1.8,59.4-8.1,88-17.5c17.8-5.8,34.1-14.1,47.5-27.6
				c19.8-19.9,28.7-44.4,30.1-72c0.7-14.5,0.2-28.6-5.2-42.3c-4-10.2-11.4-16.6-22.2-18.9c-13.5-2.9-27.1-3.2-40.8-1.6
				c-6.6,0.8-13.2,2-19.8,2.6c-6.6,0.6-10.9-2.4-11.7-7.5c-0.8-5,2.7-9.4,9-10.7c6-1.2,12.1-2.2,18.3-2.9
				c11.7-1.3,23.5-1.7,34.3-7.5c17.1-9.1,31.8-20.4,38.1-39.7c8.8-26.9,9.7-53.8-0.1-80.9c-9.9-27.6-35.7-54-73-50.8
				c-11.8,1-23.6,2-35.3,3.2c-22.4,2.3-44.7,4.8-67.1,7c-3.8,0.4-4.9,2-5,5.7c-0.4,17.7-1.3,35.3-1.7,52.9
				c-0.4,16.2-0.4,32.3-0.7,48.5c-0.6,34.8-0.5,69.7-2.3,104.4C750.8,700.4,746.8,745.3,743.5,790.1z M954.5,427.8
				c-4-6.9-7-13.4-11.1-19.1c-14-19-28.8-37.6-42.7-56.7c-19-26-38.3-51.7-53.3-80.3c-4.4-8.5-3.9-15.4,0.4-23.8
				c22.7-44.1,44.9-88.5,67.1-133c5.6-11.2,4.5-14.8-4.7-23.5c-1.7-1.6-3.4-3.4-5.4-4.4c-15.1-7.4-30.1-15-45.4-21.8
				c-5-2.2-10.9-2.7-16.4-3.6c-4.3-0.6-7.1,1.4-8.7,5.7c-5.3,14.4-11.1,28.6-16.4,42.9c-8.6,23.1-19,45.5-24.2,69.8
				c-0.4,1.8-3.3,4.2-5.2,4.4c-1.9,0.2-4.5-1.7-5.9-3.4c-1.2-1.3-1.5-3.8-1.5-5.7c0-13.7-0.2-27.3,0.5-41
				c1.2-24.8,2.9-49.6,4.6-74.3c0.3-4.7-1.5-7.1-6.1-7.9c-23.6-4.3-47.1-8.8-70.8-12.9c-9.1-1.6-11.1-0.2-11.7,9.3
				c-0.7,10.6-0.7,21.3-0.4,31.9c0.1,3.9,1.5,8.2,3.5,11.6c10.6,17.5,18.4,36,21.5,56.1c3.4,22.4,6.6,44.8,8.6,67.4
				c4.2,46.4,2,92.6-5.8,138.5c-0.5,3.2-0.6,6.7-0.2,9.9c2.3,19.5,5.2,39,6.9,58.6c0.7,7.4,4.9,10.8,8.5,13.6
				c4.1-2.5,7.1-5.7,10.5-6.2c18.1-2.9,36.3-5.2,54.4-7.6c4.2-0.6,8.4-0.9,13.1-1.4c-1.2-3.2-2-5.7-3-8.1
				c-9.6-22.4-19.2-44.7-28.7-67.1c-0.8-2-1.7-4-2.2-6.1c-0.8-3.8,0.6-7,4.1-8.9c3.5-2,7-1.3,9.6,1.6c2,2.2,3.5,4.9,4.7,7.6
				c10.6,25.2,21.1,50.4,31.4,75.7c1.4,3.3,3,4.2,6.3,3.8c8.1-0.9,16.2-1.6,24.4-2.2c28.1-2.2,51,8.5,70,28.7
				c1.4,1.5,4.3,2.5,6.3,2.3c1.1-0.1,2.5-3.1,2.7-5C944.9,436.5,945.7,430.2,954.5,427.8z M31.8,441.7c1.9-6.4,3.2-12.6,5.5-18.4
				c4.3-11.3,9.3-14.3,21.4-13.7c18.3,0.8,36.6,1.7,54.9,2.5c7.1,0.3,7.5,0.4,8.6-6.8c3.5-21.9,6.7-43.8,9.9-65.7
				c1.4-9.7,2.2-19.5,4-29.1c0.7-4,3.1-8.7,8.1-8.1c5,0.6,6,5.5,6,9.7c0.1,7.5-0.4,15-0.7,22.4c-0.7,14.7-4.9,29.2-1.8,44.2
				c2,9.9,2.6,20.1,3.7,30.2c0.4,4.1,1.8,6.6,6.6,6.9c5.3,0.4,10.5,1.7,15.7,3c15.2,3.8,30.7,6.6,43.1,17.5c1,0.9,3.1,0.9,4.6,0.7
				c10.9-1.4,16.1-8.5,19-18.5c7.1-24.7,14.6-49.2,21.7-73.8c0.9-3.1,1-6.6,0.7-9.9c-2.9-42.3,0.3-84.3,8-125.9
				c6.5-35.4,20.4-68.3,38.5-99.2c7.4-12.6,16.9-23.9,25.3-35.9c0.9-1.2,1.9-3.5,1.4-4.2c-0.8-1.2-3-2.2-4.4-2
				c-3.6,0.5-7.3,1.1-10.5,2.7c-18.2,9-36.5,17.8-54.3,27.7c-11.8,6.6-22.1,15-27.4,28.6c-7.4,19.2-12.5,39-16,59.2
				c-3.3,19-5.7,38.2-8.6,57.3c-0.5,3.3-1.2,6.6-2.7,9.5c-0.8,1.5-3.4,3.2-5,3c-1.6-0.2-3.8-2.3-4.3-4c-0.8-2.8-0.7-5.9-0.4-8.9
				c0.8-8.3,1.8-16.6,2.9-24.8c2.4-18.5,5-36.9,7.5-55.4c0.9-6.8,2-13.5,2.3-20.3c0.5-11.2-0.9-12.6-11.4-9.1
				c-26.6,8.9-45.8,26-54.4,53.4c-5.2,16.7-9.7,33.6-15.2,50.2c-2.6,8-6.4,15.7-10.3,23.2c-1.2,2.3-4.4,3.4-6.8,5.1
				c-1.1-2.6-3.3-5.3-3.1-7.9c0.3-5.8,1.2-11.6,2.7-17.2c6.4-23.1,13.1-46.1,19.6-69.2c0.6-2.3,1-4.6,1.7-7.9
				c-13.5,5.5-25,11.8-35.7,19.9c-14.7,11.2-27.8,23.9-35.5,40.6c-8.2,17.8-15.3,36.3-21.5,54.9c-11.2,33.5-16.3,68.3-19.6,103.4
				c-1.5,16.2-2,32.6-2.6,48.9C22.7,438.3,24.8,440.4,31.8,441.7z M45.2,485.1c0.8,12.1,0.7,21.3,2.1,30.3
				c5.3,34.7,10.4,69.6,16.9,104.1C70.8,654.8,79,689.9,86.7,725c0.4,2,2.5,4.4,4.4,5.3c40,19.2,82,29.7,126.5,28.4
				c25.3-0.7,39.4-14.4,41.2-39.6c1.9-27.9-4.8-54.3-14.2-80.1c-1.9-5.2-5.3-10-8.9-14.3c-8.9-10.8-19.8-17.7-34.7-16
				c-5.3,0.6-10.7,0.5-16,0.2c-4.1-0.2-8.3-0.7-12.3-1.8c-3.6-1-5.8-4-5.7-7.9c0.1-4.2,2.6-6.9,6.5-7.8c2.5-0.6,5.3-0.5,7.9-0.5
				c14.5,0.3,29,1,43.1-3.8c14.3-4.9,22.7-16.1,22.9-31.2c0.6-34.4-9.1-65.4-30.5-92.6c-8-10.2-16.4-20.1-29.8-23
				c-18.4-4-36.7-8.7-55.3-10.9c-21.6-2.6-43.6-2.6-65.3-4.2c-12.4-0.9-14.3-0.5-16,11.5C48.1,453.7,46.7,470.8,45.2,485.1z
				 M921.3,780.2c2.4,0.5,4.3,1.1,6.1,1.3c13.1,2,26.2,0.8,39.3-0.8c37.1-4.5,72.8-14.5,108.1-26.1c10.4-3.4,17.3-10.4,20.4-20.9
				c1.4-4.9,3-9.9,3.7-15c2.4-16.1,4.7-32.3,6.7-48.5c1.5-11.6,1.1-12.1-10.2-9c-22.5,6.1-44.8,12.8-67.2,19.2
				c-1.9,0.5-3.9,1.1-5.8,1.3c-4.1,0.3-7.2-1.5-8.7-5.3c-1.6-4,0.1-7.3,3.3-9.6c2.1-1.5,4.6-2.6,7.1-3.4
				c16.7-5.3,33.4-10.3,50.1-15.6c2.2-0.7,4.9-2,6-3.8c10.3-17.2,15.1-35.8,13.3-55.9c-0.2-2.5-1.2-3.5-3.9-3.1
				c-14.2,2.2-28.3,4.1-42.5,6.3c-8.9,1.4-17.7,3.3-26.6,4.4c-5.6,0.7-9.7-2.8-10.2-7.3c-0.5-4.6,2.5-8.6,8.2-9.6
				c18-3.2,36.1-6.1,54.1-9.4c17.8-3.3,35.6-6.8,53.4-10.4c6-1.2,9.5-4.9,10.2-11.3c0.6-5.6,2.4-11.1,2.7-16.8
				c1.4-26.1,2.8-52.2,3.6-78.3c0.3-9.1-1.2-18.3-1.8-27.4c-0.3-4.7-2.6-7-7.4-6.6c-5.8,0.4-11.7,0.4-17.4,1.3
				c-24,4.1-47.8,8.8-71.9,12.6c-26,4.1-52.1,7.4-78.2,11c-3.1,0.4-4.2,1.4-4.5,4.5c-0.6,7.5-1.8,14.9-2.3,22.4
				c-0.5,7.4-0.8,14.9-0.2,22.3c0.5,7.3,2.8,14.4,3.3,21.7c1.5,22.4-1.7,44.2-10.5,65c-1.9,4.4-3.4,9-4.3,13.7
				c-1.7,9.8-2.8,19.8-4.4,29.7c-0.7,4.5-0.4,8.3,2.8,12.1c2.3,2.7,3.8,6.3,5.1,9.6c6.5,16.5,8,33.6,6.5,51.1
				c-2,23.9-6.7,46.9-21.7,66.5C931.4,767.8,926.7,773.5,921.3,780.2z M1159.8,427.3c3.3-1,6.3-1.9,9.3-2.7c3.4-1,5.1-2.9,4-6.6
				c-1.8-5.9-2.9-12-5.3-17.7c-17.7-41.5-39.8-80.6-62.6-119.4c-24.3-41.2-52.4-79.9-81.5-117.9c-22.2-29-51.4-47.4-86.7-56.3
				c-0.9-0.2-1.9-0.2-2-0.2c-6,13-11.9,25.5-17.4,38.1c-1.5,3.4-2.7,7.3-2.5,10.9c2.4,33.4,5,66.7,7.8,100.1
				c2.9,34.3,6.3,68.6,8.9,103c0.5,6.5,2.1,11.5,6.1,16.7c11.2,14.4,22.9,28.7,29.6,46c1.4,3.6,2.9,4.8,6.8,4.1
				c18.4-3.1,36.8-5.9,55.3-8.7c4.7-0.7,9.4-1.3,14.5-2c-0.8-2.4-1.3-3.9-1.8-5.5c-5.2-15.8-10.4-31.6-15.4-47.5
				c-1-3.1-1.9-6.7-1.3-9.7c0.5-2.6,2.9-6.2,5.2-6.8c2.3-0.6,6.2,1.2,7.9,3.3c2.3,2.6,3.3,6.5,4.5,9.9c5.5,16.2,11,32.5,16.3,48.8
				c1.1,3.2,2.5,4.4,6.1,3.7c13.1-2.6,26.2-5.2,39.3-7c11.3-1.5,22.8-2.9,34.2-2.6c10.5,0.3,16.7,7.3,18.9,17.6
				C1158.7,421.5,1159.2,424.1,1159.8,427.3z M915.1,346.8c0.8-0.2,1.6-0.4,2.4-0.6c-5.6-55.5-11.3-110.9-17-167.3
				c-1.1,1.9-1.9,3.1-2.6,4.3c-12.6,24.4-25.2,48.8-37.5,73.4c-0.9,1.8-1,5,0,6.8c6.5,11.6,12.9,23.3,20.3,34.4
				C891.9,314.4,903.6,330.5,915.1,346.8z M231,451.4c6.7,10.4,12.9,20.1,19.3,30.1c11.2-17.2,24.5-31.8,42.5-42
				c-11.5-17.9-16.8-37.7-23.3-57.9c-0.8,2-1.3,3.1-1.7,4.1c-3.8,12.1-7.6,24.1-11.2,36.2C252.6,435.6,246.4,447.4,231,451.4z
				 M501.2,351.4C486,389.7,472,428.3,438,455c4.9,6.5,9.6,12.7,14.5,19.2c1.6-9.2,3-17.9,4.6-26.6c2.4-13.4,10.3-22.6,22.6-27.9
				c6.2-2.7,12.8-4.1,20-6.3C500.1,393.3,500.6,372.4,501.2,351.4z M716.8,425.2c-1.3-10.4-2.4-20.3-3.8-31.2
				c-6.3,10.7-11.9,20.2-17.7,30.1C702.4,424.5,709.1,424.9,716.8,425.2z M917.9,614.4c3.1,1,4.7,1.5,6.9,2.2
				c0.4-2.3,0.8-4.3,1.4-7.4C923,611.2,921,612.4,917.9,614.4z"/>
			<path d="M734.5,559.6c-2.5,42.7-4.3,85.5-7.7,128.2c-2,25-6.7,49.8-10.2,74.7c-1.4,9.7-3.2,19.4-4.7,29.1
				c-2.3,16-9.3,20.8-24.7,23.7c-6.8,1.3-13.9,1.4-20.9,1.6c-7.2,0.2-8.8-1.2-8.6-8.4c0.7-19.1,0.9-38.3,3-57.3
				c2.9-27,7.6-53.8,11.1-80.7c0.9-7.2,0.6-14.6,0.3-22c-0.1-2.4-2-4.6-3-6.9c-1.9,1.9-4.8,3.5-5.4,5.7c-2.9,10.6-5.7,21.2-7.7,32
				c-3.9,20.6-7.8,41.3-10.6,62c-2.3,16.6-3.3,33.5-4.3,50.3c-0.3,5.3-2.3,8.6-7,10.2c-9.3,3.1-18.8,4.3-28.5,2
				c-5.2-1.2-9.4-4-11.3-9c-2.9-7.3-5.7-14.6-7.7-22.1c-7.4-27.7-14.4-55.5-21.7-83.2c-0.9-3.3-2.2-6.8-4.2-9.5
				c-1.3-1.9-4.6-4.1-6.2-3.6c-2.1,0.6-4.6,3.7-4.8,5.9c-0.3,5.2,0,10.7,1.2,15.8c5,21.8,10.5,43.4,15.5,65.1
				c2.3,10.1,4,20.2,6,30.4c0.3,1.8,0.5,3.6,0.7,5.5c1.1,14.6-0.8,17.3-15,19.9c-17.4,3.1-34.7,6.4-52.6,3.6
				c-11.1-1.8-15.9-5.4-17.3-16.6c-2.5-20.8-3.6-41.9-6.7-62.6c-2.3-15.6,4-29.2,7.2-43.5c9.5-42.6,12.5-85.4,3.6-128.4
				c-4.7-22.4-13-43.7-22.5-64.5c-1.2-2.6-2.4-5.8-2.1-8.5c1.7-15.7,3.4-31.5,6-47.1c1.9-11.4,11.5-19.1,23.1-20
				c16.8-1.2,33.2,2,49.5,5.3c8.8,1.8,17.3,4.7,25.8,7.5c6.9,2.2,11.4,7.2,12.6,14.3c2.1,13,4.5,26,5.2,39
				c1.2,22.6,1.3,45.3,1.8,67.9c0.1,3.5-0.2,7.2,1.1,10.3c0.9,2.3,4.1,5.3,6.2,5.2c2.4-0.1,5.8-2.8,6.8-5.1
				c1.4-3.4,1.2-7.5,1.3-11.3c0.6-31.2,3.8-62.2,10.3-92.7c1.1-5.2,2.9-10.2,4.4-15.3c2.8-9.5,9.6-14.1,19.1-15
				c25.8-2.7,51.6-2.6,77.3,0.1c7.2,0.8,12.3,4.7,14.3,11.5c1.6,5.5,2.4,11.4,2.4,17.2c-0.3,29.8-0.9,59.7-1.5,89.5
				C733.6,559.6,734,559.6,734.5,559.6z"/>
			<path d="M517.7,222c0-60,0-120,0-180c0-1.2,0-2.3-0.1-3.5c-0.2-10.5-0.2-10.5,10.7-11.7c32.9-3.6,63.9,3.2,93.9,16.3
				C649.7,55,669,75,684.3,100.2c14.4,23.8,20.5,49.7,24.1,76.6c6.1,45.7,7.9,91.6,4,137.6c-2.2,26.1-6.1,51.8-17.7,75.5
				c-5.3,10.8-12.6,20.7-19.5,30.7c-1.5,2.1-5.1,3.4-7.9,3.8c-9.9,1.3-19.9,1.9-29.8,3.1c-14.8,1.8-24.9,9.7-29.6,24
				c-0.4,1.1-0.6,2.5-1.4,3.2c-1.2,1-2.8,1.8-4.3,1.9c-0.8,0.1-2.3-1.3-2.5-2.3c-4.5-18.3-18.7-25.8-34.9-29.9
				c-14-3.5-28.4-5.7-42.7-8c-4.3-0.7-6.3-1.5-6.2-6.5c1.1-62.6,1.9-125.3,2.8-187.9C518.3,222,518,222,517.7,222z M617.3,254.2
				c-1.3-9.6-2.5-18.4-3.6-27.1c-0.7-5.2-3.2-9.2-7.2-12.6c-3.2-2.7-6.5-4.3-10.4-2.5c-4,1.9-5.6,5.4-5.4,9.8
				c0.8,17.8,1.4,35.5,2.2,53.3c0.2,4,0.6,8,1.1,11.9c0.5,3.9,2.6,6.9,6.6,7.9c3.9,1,7.1-0.5,9-3.7c2.1-3.5,4.4-7.2,5-11.1
				C616,271.3,616.5,262.3,617.3,254.2z"/>
			<path d="M496.2,224.9c0.1,42.1-2.9,81.7-15,120.1c-8,25.3-17,50.3-32.9,72c-6.1,8.3-14.3,15.2-21.7,22.6
				c-0.9,0.9-3.7,1.3-4.6,0.6c-15-11.3-31.9-15.3-50.5-18c-18.8-2.7-36.1-0.3-53.6,4.8c-9.8,2.9-10,3.2-14.6-6.2
				c-9.2-19.2-15.7-39.3-18.9-60.3c-8.2-53.3-6.4-106.5,5.4-158.9c9.5-42.1,27.7-80.6,55.3-114.2c17.8-21.6,39.2-38.8,66.8-46.2
				c14.7-3.9,27.6,0,39.1,11.4c21.6,21.5,29.7,48.8,36.1,77.1C494.2,161.7,496.8,194.2,496.2,224.9z M411,221.3
				c-0.3,0-0.6-0.1-0.9-0.1c0-5,0.4-10-0.1-15c-0.4-4.7-3.1-8-8.1-8.8c-4.6-0.7-8.6,1.9-10.5,6.6c-0.7,1.8-1.3,3.8-1.6,5.7
				c-1.5,8.3-3.6,16.6-4.3,25.1c-1.1,12.1-1.3,24.2-1.5,36.4c-0.1,4.3,2,7.8,6.5,8.9c4.4,1.1,7.7-1.2,9.4-4.9c2.8-6,6.1-12,7.2-18.3
				C409,245.2,409.7,233.2,411,221.3z"/>
			<path d="M235.9,602.4c4.3-3,8.2-5.5,11.8-8.4c11.6-9.4,17.3-21.7,17.6-36.6c0.3-17.6-1.3-34.9-6.3-51.9c-0.6-2.1-0.5-5.1,0.6-7
				c13.1-24.2,31.8-42.8,57.4-53.4c29.4-12.1,58.8-12.9,86.9,3.9c14.9,8.9,25.3,22.5,34,37.3c16.7,28.7,30.1,58.8,36.7,91.4
				c8.4,41.1,4.9,81.9-5,122.3c-5.2,21.2-11.8,42-20.7,62c-13.6,30.5-46.8,43-70.5,42c-27.9-1.1-53.9-8.3-76.4-25.6
				c-11.4-8.8-21.2-19.2-28.7-31.7c-0.8-1.3-1.2-3.3-0.8-4.6c7.4-21.1,5-42.5,0.9-63.7c-2.7-13.7-6.8-27.1-10.9-40.5
				c-4.3-13.9-12.7-25.2-24.5-33.8C237.3,603.7,236.8,603.1,235.9,602.4z M345.7,621.3c1.2,8.4,1.8,14.5,2.9,20.5
				c1.2,6.5,6,10.9,11.6,11.3c5.7,0.5,10.7-3,12.9-9.8c5.6-17.7,4.6-35.6,0.1-53.2c-2.4-9.2-12.2-11.2-18.8-4.3
				c-2.2,2.3-4.3,5.4-4.9,8.5C347.7,603.9,346.7,613.7,345.7,621.3z"/>
			<path d="M743.5,790.1c3.3-44.9,7.3-89.7,9.6-134.6c1.8-34.8,1.7-69.6,2.3-104.4c0.3-16.2,0.3-32.3,0.7-48.5
				c0.4-17.7,1.3-35.3,1.7-52.9c0.1-3.8,1.2-5.3,5-5.7c22.4-2.3,44.7-4.8,67.1-7c11.8-1.2,23.5-2.2,35.3-3.2
				c37.4-3.1,63.1,23.3,73,50.8c9.7,27.1,8.9,53.9,0.1,80.9c-6.3,19.3-21,30.5-38.1,39.7c-10.9,5.8-22.6,6.2-34.3,7.5
				c-6.1,0.7-12.2,1.7-18.3,2.9c-6.3,1.3-9.8,5.6-9,10.7c0.8,5.2,5.1,8.2,11.7,7.5c6.6-0.6,13.2-1.9,19.8-2.6
				c13.7-1.6,27.3-1.3,40.8,1.6c10.8,2.3,18.2,8.7,22.2,18.9c5.4,13.6,5.9,27.8,5.2,42.3c-1.4,27.7-10.2,52.1-30.1,72
				c-13.4,13.5-29.8,21.8-47.5,27.6c-28.6,9.3-57.9,15.6-88,17.5c-8.1,0.5-16.3-0.6-24.4-1.1c-4-0.3-5.8-2.6-5.5-6.7
				C743.1,798.8,743.3,794.5,743.5,790.1C743.5,790.1,743.5,790.1,743.5,790.1z M861.6,518c-0.1-0.3-0.2-0.6-0.3-0.8
				c-9.9,2.1-19.8,3.8-29.6,6.4c-4.8,1.3-8.1,5.2-7.9,10.9c0.1,4.6,3.7,9.2,9.1,10.7c3.3,0.9,7,1.5,10.3,0.9
				c7.3-1.3,14.7-3,21.7-5.4c3.3-1.1,6.3-3.8,8.7-6.5c5-5.5,2.5-13.4-4.6-15.3C866.6,518.3,864.1,518.3,861.6,518z M851.4,692.1
				c-9.1,0-17.6,1.9-25.2,6.9c-4.5,3-6.5,7.5-5.2,11.9c1.5,4.9,5.1,7.4,10,7.7c12,0.7,23.6-1,34.6-6c4.3-2,6.8-5.5,6.2-10.4
				c-0.5-4.7-3.7-7.5-8-8.5C859.7,692.9,855.5,692.6,851.4,692.1z"/>
			<path d="M954.5,427.8c-8.8,2.5-9.6,8.8-10.5,15.3c-0.3,1.8-1.6,4.9-2.7,5c-2.1,0.2-4.9-0.8-6.3-2.3c-19-20.2-41.9-30.8-70-28.7
				c-8.1,0.6-16.3,1.3-24.4,2.2c-3.3,0.4-5-0.5-6.3-3.8c-10.3-25.3-20.9-50.5-31.4-75.7c-1.1-2.7-2.7-5.4-4.7-7.6
				c-2.6-2.8-6.1-3.5-9.6-1.6c-3.4,1.9-4.9,5-4.1,8.9c0.4,2.1,1.3,4.1,2.2,6.1c9.6,22.4,19.2,44.7,28.7,67.1c1,2.4,1.9,4.9,3,8.1
				c-4.7,0.5-8.9,0.9-13.1,1.4c-18.1,2.4-36.3,4.7-54.4,7.6c-3.4,0.6-6.4,3.7-10.5,6.2c-3.6-2.8-7.9-6.2-8.5-13.6
				c-1.7-19.6-4.7-39-6.9-58.6c-0.4-3.3-0.4-6.7,0.2-9.9c7.8-45.9,9.9-92.1,5.8-138.5c-2-22.5-5.2-45-8.6-67.4
				c-3.1-20.2-10.9-38.7-21.5-56.1c-2-3.4-3.4-7.7-3.5-11.6c-0.4-10.6-0.4-21.3,0.4-31.9c0.7-9.5,2.6-10.9,11.7-9.3
				c23.6,4.1,47.2,8.6,70.8,12.9c4.6,0.8,6.4,3.2,6.1,7.9c-1.7,24.8-3.4,49.5-4.6,74.3c-0.7,13.6-0.4,27.3-0.5,41
				c0,1.9,0.3,4.3,1.5,5.7c1.4,1.7,4,3.6,5.9,3.4c1.9-0.2,4.8-2.5,5.2-4.4c5.2-24.3,15.6-46.7,24.2-69.8
				c5.3-14.4,11.1-28.6,16.4-42.9c1.6-4.3,4.4-6.3,8.7-5.7c5.6,0.8,11.4,1.3,16.4,3.6c15.3,6.8,30.3,14.4,45.4,21.8
				c2,1,3.7,2.8,5.4,4.4c9.2,8.7,10.3,12.3,4.7,23.5c-22.1,44.4-44.4,88.8-67.1,133c-4.4,8.5-4.9,15.4-0.4,23.8
				c15,28.6,34.3,54.3,53.3,80.3c13.9,19.1,28.7,37.6,42.7,56.7C947.6,414.3,950.6,420.9,954.5,427.8z"/>
			<path d="M31.8,441.7c-7-1.3-9.1-3.4-8.8-11.1c0.6-16.3,1.1-32.6,2.6-48.9c3.2-35.1,8.4-69.9,19.6-103.4
				c6.2-18.6,13.3-37.1,21.5-54.9c7.7-16.7,20.9-29.4,35.5-40.6c10.7-8.2,22.2-14.5,35.7-19.9c-0.7,3.3-1.1,5.6-1.7,7.9
				c-6.5,23.1-13.2,46.1-19.6,69.2c-1.5,5.6-2.5,11.4-2.7,17.2c-0.1,2.6,2,5.2,3.1,7.9c2.3-1.7,5.6-2.8,6.8-5.1
				c3.9-7.5,7.7-15.2,10.3-23.2c5.4-16.6,9.9-33.5,15.2-50.2c8.6-27.4,27.9-44.4,54.4-53.4c10.6-3.6,11.9-2.1,11.4,9.1
				c-0.3,6.8-1.4,13.6-2.3,20.3c-2.4,18.5-5,36.9-7.5,55.4c-1.1,8.3-2.1,16.5-2.9,24.8c-0.3,2.9-0.4,6.1,0.4,8.9
				c0.5,1.7,2.7,3.8,4.3,4c1.6,0.2,4.3-1.5,5-3c1.4-2.9,2.2-6.3,2.7-9.5c2.9-19.1,5.3-38.3,8.6-57.3c3.5-20.2,8.5-40,16-59.2
				c5.3-13.6,15.6-22,27.4-28.6c17.7-9.9,36.1-18.7,54.3-27.7c3.2-1.6,7-2.2,10.5-2.7c1.4-0.2,3.6,0.8,4.4,2c0.5,0.7-0.6,3-1.4,4.2
				c-8.4,12-17.9,23.3-25.3,35.9c-18.1,30.9-32,63.8-38.5,99.2c-7.7,41.6-10.9,83.6-8,125.9c0.2,3.3,0.2,6.8-0.7,9.9
				c-7.1,24.6-14.7,49.2-21.7,73.8c-2.9,10-8.1,17.1-19,18.5c-1.5,0.2-3.6,0.1-4.6-0.7c-12.3-10.9-27.9-13.7-43.1-17.5
				c-5.2-1.3-10.4-2.5-15.7-3c-4.8-0.4-6.2-2.8-6.6-6.9c-1.1-10.1-1.6-20.3-3.7-30.2c-3.1-15,1.1-29.5,1.8-44.2
				c0.3-7.5,0.8-15,0.7-22.4c0-4.2-1-9.1-6-9.7c-5-0.6-7.4,4.1-8.1,8.1c-1.8,9.6-2.6,19.4-4,29.1c-3.2,21.9-6.4,43.8-9.9,65.7
				c-1.2,7.2-1.6,7.2-8.6,6.8c-18.3-0.8-36.6-1.7-54.9-2.5c-12.1-0.5-17.1,2.4-21.4,13.7C35,429.1,33.6,435.3,31.8,441.7z"/>
			<path d="M45.2,485.1c1.5-14.3,2.8-31.4,5.3-48.3c1.8-12.1,3.7-12.4,16-11.5c21.8,1.6,43.7,1.6,65.3,4.2
				c18.6,2.2,36.9,6.9,55.3,10.9c13.4,2.9,21.8,12.8,29.8,23c21.4,27.2,31.1,58.2,30.5,92.6c-0.3,15-8.6,26.2-22.9,31.2
				c-14.1,4.8-28.6,4.2-43.1,3.8c-2.6-0.1-5.4-0.1-7.9,0.5c-3.9,0.9-6.4,3.6-6.5,7.8c-0.1,4,2,6.9,5.7,7.9c4,1.1,8.2,1.6,12.3,1.8
				c5.3,0.3,10.7,0.4,16-0.2c14.9-1.7,25.8,5.2,34.7,16c3.6,4.3,7,9.2,8.9,14.3c9.4,25.8,16.1,52.3,14.2,80.1
				c-1.7,25.2-15.9,38.9-41.2,39.6c-44.6,1.3-86.6-9.3-126.5-28.4c-1.9-0.9-3.9-3.3-4.4-5.3c-7.7-35.1-15.9-70.2-22.5-105.6
				c-6.5-34.5-11.6-69.3-16.9-104.1C45.9,506.4,46,497.1,45.2,485.1z M171.4,682.5c2.1,0,2.8,0,3.5,0c5.8-0.3,9.9-2.8,11-6.9
				c1.3-4.6-0.7-8.7-6.1-11.8c-9.6-5.4-19.7-9.1-30.8-9.4c-6.5-0.1-10.9,2.6-12.1,7.5c-1.2,4.7,1,9.1,6.4,12.3
				C152.4,679.5,162.4,681.8,171.4,682.5z M144.9,531.1c0.2-0.4,0.3-0.8,0.5-1.2c5.5,0.2,7.6-1.2,12.2-8.5c4-6.4,2.8-11.5-3.3-15.8
				c-9.6-6.8-20-6.5-30.6-3.6c-4.2,1.1-7.4,3.9-8.1,8.6c-0.7,4.8,1.3,8.9,5.4,10.9C128.8,525,136.9,527.9,144.9,531.1z"/>
			<path d="M921.3,780.2c5.3-6.7,10.1-12.5,14.6-18.4c14.9-19.6,19.6-42.6,21.7-66.5c1.5-17.5,0.1-34.6-6.5-51.1
				c-1.3-3.4-2.8-6.9-5.1-9.6c-3.1-3.7-3.5-7.6-2.8-12.1c1.5-9.9,2.6-19.8,4.4-29.7c0.8-4.7,2.4-9.3,4.3-13.7
				c8.8-20.8,12-42.6,10.5-65c-0.5-7.3-2.7-14.4-3.3-21.7c-0.5-7.4-0.2-14.9,0.2-22.3c0.5-7.5,1.7-14.9,2.3-22.4
				c0.2-3.1,1.4-4.1,4.5-4.5c26.1-3.5,52.2-6.9,78.2-11c24-3.8,47.9-8.5,71.9-12.6c5.7-1,11.6-0.9,17.4-1.3c4.8-0.4,7.1,2,7.4,6.6
				c0.6,9.1,2,18.3,1.8,27.4c-0.8,26.1-2.2,52.2-3.6,78.3c-0.3,5.6-2.1,11.1-2.7,16.8c-0.7,6.4-4.1,10.1-10.2,11.3
				c-17.8,3.6-35.5,7.1-53.4,10.4c-18,3.3-36.1,6.2-54.1,9.4c-5.7,1-8.8,5-8.2,9.6c0.5,4.5,4.6,8,10.2,7.3c8.9-1,17.7-3,26.6-4.4
				c14.2-2.2,28.3-4.1,42.5-6.3c2.7-0.4,3.7,0.6,3.9,3.1c1.8,20.1-3,38.7-13.3,55.9c-1.1,1.8-3.8,3.1-6,3.8
				c-16.7,5.3-33.4,10.3-50.1,15.6c-2.5,0.8-5,1.9-7.1,3.4c-3.2,2.3-4.8,5.7-3.3,9.6c1.5,3.9,4.7,5.6,8.7,5.3c2-0.1,3.9-0.7,5.8-1.3
				c22.4-6.4,44.7-13.1,67.2-19.2c11.3-3.1,11.7-2.6,10.2,9c-2.1,16.2-4.3,32.4-6.7,48.5c-0.8,5.1-2.3,10.1-3.7,15
				c-3.1,10.5-10,17.5-20.4,20.9c-35.3,11.6-71,21.6-108.1,26.1c-13.1,1.6-26.2,2.8-39.3,0.8C925.6,781.3,923.8,780.8,921.3,780.2z"
				/>
			<path d="M1159.8,427.3c-0.6-3.3-1.1-5.9-1.6-8.4c-2.2-10.3-8.4-17.3-18.9-17.6c-11.4-0.3-22.9,1-34.2,2.6
				c-13.2,1.8-26.3,4.4-39.3,7c-3.7,0.7-5.1-0.5-6.1-3.7c-5.4-16.3-10.8-32.5-16.3-48.8c-1.2-3.4-2.2-7.2-4.5-9.9
				c-1.7-2-5.7-3.9-7.9-3.3c-2.3,0.6-4.7,4.2-5.2,6.8c-0.6,3,0.3,6.6,1.3,9.7c5,15.9,10.2,31.7,15.4,47.5c0.5,1.6,1,3.1,1.8,5.5
				c-5.1,0.7-9.8,1.3-14.5,2c-18.4,2.9-36.9,5.6-55.3,8.7c-3.9,0.7-5.4-0.5-6.8-4.1c-6.7-17.3-18.4-31.6-29.6-46
				c-4-5.1-5.6-10.2-6.1-16.7c-2.6-34.4-6.1-68.7-8.9-103c-2.8-33.3-5.4-66.7-7.8-100.1c-0.3-3.6,1-7.5,2.5-10.9
				c5.5-12.6,11.4-25.1,17.4-38.1c0.1,0,1.1,0,2,0.2c35.3,8.9,64.5,27.2,86.7,56.3c29.1,38,57.1,76.7,81.5,117.9
				c22.9,38.7,45,77.9,62.6,119.4c2.4,5.6,3.5,11.8,5.3,17.7c1.1,3.7-0.5,5.6-4,6.6C1166.1,425.4,1163.1,426.4,1159.8,427.3z
				 M982.6,219.8c-0.1,0-0.3,0-0.4,0.1c0.7,4.1,1.2,8.2,2.3,12.2c3.7,13.3,7.6,26.5,11.5,39.8c0.5,1.7,1.3,3.4,2.2,5
				c3,4.9,8.4,6.7,13.4,4.6c5-2.1,7.5-7.1,6.1-13.3c-1.5-6.5-3.5-12.8-5.3-19.2c-3.1-11-6.2-22.1-9.3-33.1c-1.7-6.2-6.1-9.6-11.4-9
				c-5.3,0.6-8.6,4.9-8.9,11.5C982.6,218.8,982.6,219.3,982.6,219.8z"/>
			<path d="M915.1,346.8c-11.5-16.3-23.3-32.4-34.3-49c-7.4-11.1-13.8-22.8-20.3-34.4c-1-1.8-0.9-4.9,0-6.8
				c12.4-24.5,25-48.9,37.5-73.4c0.7-1.3,1.4-2.5,2.6-4.3c5.7,56.3,11.3,111.8,17,167.3C916.7,346.4,915.9,346.6,915.1,346.8z
				 M896.9,199.9c-0.9,1.3-1.2,1.6-1.5,2.1c-9.1,17.3-18.3,34.5-27.2,51.9c-2.1,4-2.8,7.9,0.2,12.4c8.3,12.7,15.9,25.9,24.1,38.7
				c5.1,8,10.8,15.5,16.3,23.3c0.6-0.2,1.2-0.4,1.8-0.6C906.1,285.4,901.6,243.1,896.9,199.9z"/>
			<path d="M231,451.4c15.4-4,21.6-15.8,25.6-29.5c3.6-12.1,7.4-24.2,11.2-36.2c0.3-1.1,0.8-2.1,1.7-4.1c6.5,20.3,11.8,40,23.3,57.9
				c-17.9,10.2-31.3,24.7-42.5,42C243.9,471.5,237.7,461.8,231,451.4z M239.6,454c3.8,5.9,7.3,11.2,10.3,15.8
				c11.3-11.1,22.5-22,33.6-33c-4.5-11.1-9.3-23.1-14.4-35.7c-3.1,9.4-6.5,18.2-9,27.2C257,439.9,250.8,448.7,239.6,454z"/>
			<path d="M501.2,351.4c-0.5,20.9-1.1,41.9-1.6,62c-7.1,2.2-13.8,3.7-20,6.3c-12.2,5.3-20.1,14.6-22.6,27.9
				c-1.6,8.6-3,17.3-4.6,26.6c-4.9-6.5-9.6-12.7-14.5-19.2C472,428.3,486,389.7,501.2,351.4z M493.8,383.9
				c-4.5,10.1-8.4,18.8-12.3,27.5c4-0.8,8.1-1.7,12.3-2.5C493.8,401,493.8,393.2,493.8,383.9z"/>
			<path d="M716.8,425.2c-7.6-0.4-14.4-0.7-21.4-1.1c5.8-9.9,11.4-19.4,17.7-30.1C714.3,405,715.5,414.8,716.8,425.2z"/>
			<path d="M917.9,614.4c3.1-2,5.1-3.2,8.2-5.2c-0.6,3.2-0.9,5.1-1.4,7.4C922.6,616,921,615.4,917.9,614.4z"/>
			<path class="st0" d="M617.3,254.2c-0.8,8.1-1.3,17.1-2.7,25.9c-0.6,3.9-2.9,7.6-5,11.1c-1.9,3.2-5.2,4.7-9,3.7
				c-4-1-6.1-4-6.6-7.9c-0.5-4-0.9-7.9-1.1-11.9c-0.8-17.8-1.4-35.5-2.2-53.3c-0.2-4.4,1.4-7.9,5.4-9.8c3.9-1.9,7.2-0.3,10.4,2.5
				c4,3.4,6.5,7.4,7.2,12.6C614.8,235.8,616,244.5,617.3,254.2z"/>
			<path class="st0" d="M411,221.3c-1.3,11.9-2,23.9-4.1,35.7c-1.1,6.3-4.4,12.4-7.2,18.3c-1.7,3.7-5,6-9.4,4.9
				c-4.5-1.1-6.6-4.6-6.5-8.9c0.3-12.1,0.5-24.3,1.5-36.4c0.7-8.4,2.8-16.7,4.3-25.1c0.4-2,0.9-3.9,1.6-5.7c1.9-4.8,6-7.3,10.5-6.6
				c5,0.8,7.7,4.1,8.1,8.8c0.5,4.9,0.1,10,0.1,15C410.4,221.2,410.7,221.2,411,221.3z"/>
			<path class="st0" d="M345.7,621.3c1-7.6,2.1-17.4,3.8-27c0.6-3,2.7-6.2,4.9-8.5c6.6-6.9,16.5-4.9,18.8,4.3
				c4.6,17.6,5.6,35.5-0.1,53.2c-2.2,6.8-7.1,10.2-12.9,9.8c-5.6-0.5-10.4-4.8-11.6-11.3C347.5,635.8,346.8,629.6,345.7,621.3z"/>
			<path class="st0" d="M861.6,518c2.5,0.3,5,0.2,7.4,0.9c7.2,1.9,9.6,9.8,4.6,15.3c-2.4,2.6-5.4,5.4-8.7,6.5
				c-7,2.4-14.4,4.1-21.7,5.4c-3.3,0.6-7,0-10.3-0.9c-5.4-1.5-9-6-9.1-10.7c-0.2-5.7,3.1-9.6,7.9-10.9c9.7-2.6,19.7-4.3,29.6-6.4
				C861.4,517.5,861.5,517.8,861.6,518z"/>
			<path class="st0" d="M851.4,692.1c4.1,0.6,8.3,0.8,12.3,1.8c4.4,1,7.5,3.8,8,8.5c0.6,4.9-1.9,8.4-6.2,10.4c-11,5-22.6,6.7-34.6,6
				c-4.9-0.3-8.5-2.9-10-7.7c-1.3-4.4,0.8-9,5.2-11.9C833.8,694,842.3,692.1,851.4,692.1z"/>
			<path class="st0" d="M171.4,682.5c-8.9-0.8-18.9-3.1-28.1-8.4c-5.5-3.2-7.6-7.6-6.4-12.3c1.2-4.9,5.6-7.7,12.1-7.5
				c11.1,0.2,21.2,4,30.8,9.4c5.5,3.1,7.4,7.2,6.1,11.8c-1.2,4.1-5.2,6.7-11,6.9C174.2,682.6,173.5,682.5,171.4,682.5z"/>
			<path class="st0" d="M144.9,531.1c-8-3.2-16.1-6-23.8-9.7c-4.1-2-6.2-6-5.4-10.9c0.7-4.7,3.9-7.5,8.1-8.6
				c10.6-2.9,21-3.2,30.6,3.6c6.1,4.4,7.3,9.5,3.3,15.8c-4.6,7.3-6.7,8.7-12.2,8.5C145.2,530.2,145,530.7,144.9,531.1z"/>
			<path class="st0" d="M982.6,219.8c0-0.5,0-1,0-1.5c0.3-6.6,3.7-10.9,8.9-11.5c5.3-0.6,9.7,2.8,11.4,9c3.1,11,6.2,22.1,9.3,33.1
				c1.8,6.4,3.8,12.8,5.3,19.2c1.4,6.2-1.1,11.2-6.1,13.3c-4.9,2.1-10.4,0.2-13.4-4.6c-0.9-1.5-1.7-3.3-2.2-5
				c-3.9-13.2-7.8-26.5-11.5-39.8c-1.1-4-1.5-8.1-2.3-12.2C982.4,219.9,982.5,219.8,982.6,219.8z"/>
		</g>
		
			<image style="overflow:visible;enable-background:new    ;" width="863" height="719" xlink:href="../../../../01 wip/Artwork_Finales/e5_wodka_02.png"  transform="matrix(1 0 0 1 165.5 54)">
		</image>
	</g>
	<g id="T_e1_jung">
		<rect x="199.8" y="750.4" class="st0" width="794.4" height="194.5"/>
		<path d="M991.7,753v189.5H202.3V753H991.7 M996.7,748H197.3v199.5h799.5L996.7,748L996.7,748z"/>
		<g class="st1">
			<path d="M482.8,816.7v3h-16.1v-26.7h3.3v23.6H482.8z"/>
		</g>
		<g class="st1">
			<path d="M487.2,810.6c0-5.7,3.5-9.6,8.5-9.6c2.8,0,4.9,1.2,6.1,3.1c1.2,1.9,1.6,4.2,1.6,6.4c0,0.3,0,0.7,0,1.1h-13
				c0.1,2.1,0.7,3.6,1.6,4.5s2.1,1.3,3.6,1.3h0.1c2.4,0,4.2-1.6,4.5-4.3h3.1c-0.1,1.4-0.4,2.7-1.2,4s-1.8,2.1-3.5,2.7
				c-0.8,0.3-1.8,0.4-2.9,0.4C490.3,820.3,487.2,816.4,487.2,810.6z M490.5,808.9h9.8c0-3.4-2-5-4.6-5
				C492.8,803.9,490.6,805.8,490.5,808.9z"/>
		</g>
		<g class="st1">
			<path d="M518.7,819.7h-5.4l-6-18.2h3.1l5.7,17.1l5.7-17.1h3.1L518.7,819.7z"/>
		</g>
		<g class="st1">
			<path d="M528.6,810.6c0-5.7,3.5-9.6,8.5-9.6c2.8,0,4.9,1.2,6.1,3.1c1.2,1.9,1.6,4.2,1.6,6.4c0,0.3,0,0.7,0,1.1h-13
				c0.1,2.1,0.7,3.6,1.6,4.5s2.1,1.3,3.6,1.3h0.1c2.4,0,4.2-1.6,4.5-4.3h3.1c-0.1,1.4-0.4,2.7-1.2,4s-1.8,2.1-3.5,2.7
				c-0.8,0.3-1.8,0.4-2.9,0.4C531.7,820.3,528.6,816.4,528.6,810.6z M531.8,808.9h9.8c0-3.4-2-5-4.6-5
				C534.2,803.9,532,805.8,531.8,808.9z"/>
		</g>
		<g class="st1">
			<path d="M554.3,793.1v26.7h-3.1v-26.7H554.3z"/>
		</g>
		<g class="st1">
			<path d="M572,814.7v-13.1h3.1v12.5c0,2.2,1.1,3.4,3.3,3.4c3.3,0,5.4-2.8,5.4-6.7v-9.3h3.1v18.1h-3.1v-3c-1,2.2-3.1,3.6-6,3.6
				C574.3,820.3,572,818.2,572,814.7z"/>
		</g>
		<g class="st1">
			<path d="M597.3,804.5c1-2.3,2.9-3.4,5.7-3.4c4.4,0,7.2,3.9,7.2,9.4c0,5.9-2.9,9.7-7.5,9.7c-2.9,0-4.4-1.2-5.5-3.5v10h-3.1v-25.2
				h3.1V804.5z M602.4,817.7c3,0,4.8-2.8,4.8-7.4c0-4.2-1.9-6.6-4.8-6.6c-3.2,0-5.1,2.6-5.1,7C597.3,815,599.3,817.7,602.4,817.7z"
				/>
		</g>
		<g class="st1">
			<path d="M635.2,819.7h-5.4l-4.9-18.2h3l4.6,17.1l4.3-17.1h5.4l4.3,17.1l4.6-17.1h3l-4.9,18.2h-5.4l-4.2-16.9L635.2,819.7z"/>
		</g>
		<g class="st1">
			<path d="M658.6,795.6c0-1.3,1.2-2.5,2.5-2.5c1.3,0,2.5,1.1,2.5,2.5c0,1.3-1.2,2.5-2.5,2.5C659.8,798.1,658.6,796.9,658.6,795.6z
				 M662.6,801.6v18.2h-3.1v-18.2H662.6z"/>
		</g>
		<g class="st1">
			<path d="M670.5,814.2v-10.1h-2.9v-2.5h2.9v-5.3h3.1v5.3h4.3v2.5h-4.3v9.6c0,0.7,0.1,1.3,0.3,1.7c0.1,0.4,0.4,0.8,0.6,1
				c0.3,0.2,0.6,0.4,1,0.4c0.3,0.1,0.7,0.1,1.1,0.1h0.6h1.5v2.8h-1.1c-1.4,0-2.2,0-3.3-0.2c-1.1-0.2-1.7-0.5-2.3-1
				c-0.7-0.6-1-1.3-1.2-2.4C670.6,815.5,670.5,814.9,670.5,814.2z"/>
		</g>
		<g class="st1">
			<path d="M686,810.5v9.3h-3.1v-26.6h3.1v11.5c0.9-2.1,2.9-3.5,5.9-3.5c3.5,0,5.9,2.2,5.9,5.6v13.1h-3.1v-12.5
				c0-2.2-1.1-3.5-3.3-3.5C688,803.8,686,806.4,686,810.5z"/>
			<path d="M711.7,815.2c0-3.3,2.2-5.2,5.3-6c4.3-1,6.2-1.5,6.2-3.1c0-1.2-0.2-1.8-1.2-2.2c-0.5-0.2-1.2-0.3-2.2-0.3
				c-2.9,0-4.4,1.2-4.4,4.5h-3.1v-0.2c0-4.2,2.9-6.8,7.5-6.8c2.5,0,4.2,0.5,5.2,1.5s1.4,2.1,1.4,3.7v13.4h-3.1v-3.2
				c-0.8,2.1-3.1,3.8-6.1,3.8C713.7,820.3,711.7,818.1,711.7,815.2z M714.8,815.1c0,1.5,1,2.7,3,2.7c2,0,3.9-1.3,4.8-2.9
				c0.4-0.8,0.7-1.5,0.7-2.2v-3c-0.6,0.3-1.1,0.6-1.4,0.7c-0.2,0.1-0.4,0.1-0.6,0.2l-0.5,0.2c-0.1,0-0.3,0.1-0.7,0.2
				s-0.5,0.2-0.7,0.2c-1.4,0.4-2.2,0.7-3.1,1.3C715.3,813.1,714.8,813.9,714.8,815.1z"/>
		</g>
		<g class="st1">
			<path d="M452.8,840.4v-7.3h2.2v5.1c1.2,0,2.2,1,2.2,2.2c0,1.2-1,2.1-2.2,2.1C453.8,842.5,452.8,841.5,452.8,840.4z M460.2,840.4
				v-7.3h2.2v5.1c1.2,0,2.2,1,2.2,2.2c0,1.2-1,2.1-2.2,2.1C461.2,842.5,460.2,841.5,460.2,840.4z"/>
		</g>
		<g class="st1">
			<path d="M482.7,859.7h-6.4l-6.4-26.6h3.4l6.2,25.6l6.2-25.6h6.3l6.2,25.6l6.2-25.6h3.4l-6.4,26.6h-6.4l-6.1-25.5L482.7,859.7z"/>
		</g>
		<g class="st1">
			<path d="M511.3,850.5c0-5.7,3-9.4,8.3-9.5h0.1c5.3,0,8.3,3.7,8.3,9.5c0,6-3,9.8-8.3,9.8S511.3,856.5,511.3,850.5z M514.4,850.7
				c0,4.5,1.9,6.8,5.1,6.8s5.1-2.2,5.1-6.8c0-4.6-1.8-6.8-5.1-6.8S514.4,846.1,514.4,850.7z"/>
		</g>
		<g class="st1">
			<path d="M540.7,841.1c2.7,0,4.8,1.5,5.5,3.4v-11.4h3.1v26.6h-3.1v-3c-0.9,2.2-2.4,3.5-5.7,3.5c-4.4,0-7.3-3.9-7.3-9.4
				C533.2,844.9,536.1,841.1,540.7,841.1z M541.1,857.7c3.2,0,5.1-2.7,5.1-7.1c0-4.2-2-6.9-5.1-6.9c-3,0-4.7,2.8-4.7,7.3
				C536.4,855.3,538.2,857.7,541.1,857.7z"/>
		</g>
		<g class="st1">
			<path d="M559.6,852.9v6.8h-3.1v-26.7h3.1v15.7l7.8-7.2h4l-7.8,7.4l9,10.8h-4.1l-7.2-8.5L559.6,852.9z"/>
		</g>
		<g class="st1">
			<path d="M576,855.2c0-3.3,2.2-5.2,5.3-6c4.3-1,6.2-1.5,6.2-3.1c0-1.2-0.2-1.8-1.2-2.2c-0.5-0.2-1.2-0.3-2.2-0.3
				c-2.9,0-4.4,1.2-4.4,4.5h-3.1v-0.2c0-4.2,2.9-6.8,7.5-6.8c2.5,0,4.2,0.5,5.2,1.5s1.4,2.1,1.4,3.7v13.4h-3.1v-3.2
				c-0.8,2.1-3.1,3.8-6.1,3.8C578,860.3,576,858.1,576,855.2z M579.1,855.1c0,1.5,1,2.7,3,2.7c2,0,3.9-1.3,4.8-2.9
				c0.4-0.8,0.7-1.5,0.7-2.2v-3c-0.6,0.3-1.1,0.6-1.4,0.7c-0.2,0.1-0.4,0.1-0.6,0.2l-0.5,0.2c-0.1,0-0.3,0.1-0.7,0.2
				s-0.5,0.2-0.7,0.2c-1.4,0.4-2.2,0.7-3.1,1.3C579.6,853.1,579.1,853.9,579.1,855.1z"/>
		</g>
		<g class="st1">
			<path d="M617.4,859.7h-9.9v-26.7h9.7c4.7,0,7.9,2.8,7.9,6.4c0,1.6-0.5,3-1,3.7c-0.6,0.8-1.6,1.4-2.2,1.7c-0.3,0.1-0.6,0.3-1,0.4
				c1.9,0.5,3.3,1.4,4.1,2.6c0.8,1.2,1.1,2.6,1.1,4.2c0,3.2-1.7,5.6-4.3,6.8C620.5,859.4,619.1,859.7,617.4,859.7z M616.7,836.1
				h-5.9v7.9h5.2c3.7,0,5.6-1.4,5.6-4.1C621.7,837.4,619.9,836.1,616.7,836.1z M616.7,847h-5.9v9.7h5.6c4,0,6.3-1.7,6.3-4.7
				C622.7,848.8,620.6,847,616.7,847z"/>
		</g>
		<g class="st1">
			<path d="M631.3,850.5c0-5.7,3-9.4,8.3-9.5h0.1c5.3,0,8.3,3.7,8.3,9.5c0,6-3,9.8-8.3,9.8C634.3,860.3,631.3,856.5,631.3,850.5z
				 M634.5,850.7c0,4.5,1.9,6.8,5.1,6.8s5.1-2.2,5.1-6.8c0-4.6-1.8-6.8-5.1-6.8S634.5,846.1,634.5,850.7z"/>
		</g>
		<g class="st1">
			<path d="M657.3,850.5v9.3h-3.1v-18.1h3.1v3c0.9-2,3-3.6,5.8-3.6c2.6,0,4.8,1.5,5.4,3.6c1.3-2.4,3.3-3.6,6.1-3.6
				c3.3,0,5.7,2.2,5.7,5.6v13.1h-3.1v-12.5c0-2.1-1.2-3.5-3.2-3.5c-3.2,0-5.2,2.8-5.2,6.7v9.3h-3.1v-12.5c0-2.1-1.2-3.5-3.2-3.5
				C659.4,843.8,657.3,846.6,657.3,850.5z"/>
		</g>
		<g class="st1">
			<path d="M690.8,844.5c0.7-2,2.8-3.4,5.5-3.4c4.6,0,7.5,3.8,7.5,9.7c0,5.5-2.9,9.4-7.3,9.4c-1.1,0-2.1-0.2-2.9-0.5
				c-1.6-0.7-2.3-1.6-2.8-3v2.9h-3.1v-26.6h3.1V844.5z M695.9,857.7c2.9,0,4.7-2.3,4.7-6.6c0-4.6-1.8-7.3-4.7-7.3
				c-3.1,0-5.1,2.7-5.1,6.9C690.8,855,692.7,857.7,695.9,857.7z"/>
		</g>
		<g class="st1">
			<path d="M709.1,850.6c0-5.7,3.5-9.6,8.5-9.6c2.8,0,4.9,1.2,6.1,3.1c1.2,1.9,1.6,4.2,1.6,6.4c0,0.3,0,0.7,0,1.1h-13
				c0.1,2.1,0.7,3.6,1.6,4.5c1,0.9,2.1,1.3,3.6,1.3h0.1c2.4,0,4.2-1.6,4.5-4.3h3.1c-0.1,1.4-0.4,2.7-1.2,4s-1.8,2.1-3.5,2.7
				c-0.8,0.3-1.8,0.4-2.9,0.4C712.3,860.3,709.1,856.4,709.1,850.6z M712.4,848.9h9.8c0-3.4-2-5-4.6-5
				C714.8,843.9,712.5,845.8,712.4,848.9z"/>
		</g>
		<g class="st1">
			<path d="M729.5,835.2c0-1.2,1-2.2,2.2-2.2c1.1,0,2.1,1,2.1,2.2v7.3h-2.1v-5.1C730.5,837.4,729.5,836.4,729.5,835.2z M736.9,835.2
				c0-1.2,1-2.2,2.2-2.2c1.1,0,2.1,1,2.1,2.2v7.3h-2.1v-5.1C737.9,837.4,736.9,836.4,736.9,835.2z"/>
		</g>
		<g class="st1">
			<path d="M529.4,886.8c0-4.3,1.3-7.9,3.4-10.4s5.1-3.9,8.6-3.9c3,0,5.6,1,7.4,2.7s3,3.8,3.5,6.3c0.2,0.9,0.3,1.8,0.3,2.7
				c0,0.3,0,0.7,0,1.1H549c0-0.3,0-0.5,0-0.7c0-2.2-0.7-4.5-2.1-6.1c-1.4-1.6-3.4-2.5-5.5-2.5c-5,0-8.4,3.9-8.4,10.3
				c0,2.7,0.5,5.1,1.3,6.5s1.9,2.6,2.9,3.2s2.3,0.9,3.1,1c0.4,0.1,0.8,0.1,1.2,0.1c1.6,0,2.9-0.3,4.1-1.2c1.2-0.8,2.1-2.1,2.7-4.1
				c0.3-1,0.5-2.1,0.5-3.4h3.5c-0.1,7.2-4.2,12-10.9,12c-3,0-5.6-0.8-7.2-2s-2.9-3-3.6-4.6c-0.7-1.6-1.1-3.6-1.2-4.9
				C529.5,888.1,529.4,887.5,529.4,886.8z"/>
		</g>
		<g class="st1">
			<path d="M561.7,890.5v9.3h-3.1v-26.6h3.1v11.5c0.9-2.1,2.9-3.5,5.9-3.5c3.5,0,5.9,2.2,5.9,5.6v13.1h-3.1v-12.5
				c0-2.2-1.1-3.5-3.3-3.5C563.7,883.8,561.7,886.4,561.7,890.5z"/>
		</g>
		<g class="st1">
			<path d="M579.7,890.6c0-5.7,3.5-9.6,8.5-9.6c2.8,0,4.9,1.2,6.1,3.1c1.2,1.9,1.6,4.2,1.6,6.4c0,0.3,0,0.7,0,1.1h-13
				c0.1,2.1,0.7,3.6,1.6,4.5s2.1,1.3,3.6,1.3h0.1c2.4,0,4.2-1.6,4.5-4.3h3.1c-0.1,1.4-0.4,2.7-1.2,4s-1.8,2.1-3.5,2.7
				c-0.8,0.3-1.8,0.4-2.9,0.4C582.9,900.3,579.7,896.4,579.7,890.6z M583,888.9h9.8c0-3.4-2-5-4.6-5
				C585.4,883.9,583.2,885.8,583,888.9z"/>
		</g>
		<g class="st1">
			<path d="M601.3,890.6c0-5.7,3.5-9.6,8.5-9.6c2.8,0,4.9,1.2,6.1,3.1c1.2,1.9,1.6,4.2,1.6,6.4c0,0.3,0,0.7,0,1.1h-13
				c0.1,2.1,0.7,3.6,1.6,4.5c1,0.9,2.2,1.3,3.6,1.3h0.1c2.4,0,4.2-1.6,4.5-4.3h3.1c-0.1,1.4-0.4,2.7-1.2,4s-1.8,2.1-3.5,2.7
				c-0.8,0.3-1.8,0.4-2.9,0.4C604.5,900.3,601.3,896.4,601.3,890.6z M604.6,888.9h9.8c0-3.4-2-5-4.6-5
				C607,883.9,604.7,885.8,604.6,888.9z"/>
		</g>
		<g class="st1">
			<path d="M626.8,889.8v10h-2.9v-18.1h2.8v4c0.4-1.1,1-2,1.7-2.6c0.7-0.6,1.4-1,2.2-1.2c0.8-0.2,1.5-0.3,2.1-0.3h0.2
				c0.3,0,0.7,0,1,0h0.4v3.2c-0.1,0-0.3,0-0.7,0h-0.9c-0.4,0-1.4,0-2,0.1c-0.5,0.1-1.4,0.3-1.9,0.7c-0.5,0.3-1.2,0.9-1.5,1.5
				C627.1,887.7,626.8,888.7,626.8,889.8z"/>
		</g>
		<g class="st1">
			<path d="M638.2,891.7h3c0,4,1.7,6.1,5.2,6.1c2.1,0,3.8-1.2,3.8-3c0-1.1-0.4-1.8-1.2-2.3c-0.8-0.5-1.3-0.6-2.6-1
				c-0.6-0.2-1.1-0.3-1.5-0.4c-3.2-1.1-5.5-1.8-5.7-4.8c0-0.1,0-0.3,0-0.4c0-3,2.7-4.9,6.2-4.9c5.1,0,7.6,2.3,7.6,7h-3
				c0-1.8-0.4-3-1.2-3.6c-0.8-0.7-1.8-0.9-3.3-0.9c-1.9,0-3.3,0.8-3.3,2.2c0,0.5,0.1,1,0.4,1.3c0.3,0.3,0.5,0.5,1.1,0.8
				c0.6,0.3,0.7,0.3,1.6,0.6c0.4,0.1,0.7,0.2,0.9,0.3c3.6,1.2,5.4,1.5,6.5,3.7c0.2,0.5,0.4,1.1,0.4,1.8c0,3.9-2.4,6.1-6.9,6.1
				c-2,0-3.8-0.5-4.9-1.3c-1.1-0.7-2-1.9-2.4-2.9c-0.4-1-0.7-2.3-0.7-3.2c0-0.3,0-0.6,0-0.9V891.7z"/>
		</g>
		<g class="st1">
			<path d="M658.9,897.5c0-1.2,1.1-2.3,2.3-2.3c1.3,0,2.3,1,2.3,2.3c0,1.2-1,2.3-2.3,2.3C659.9,899.8,658.9,898.7,658.9,897.5z
				 M660.4,892.1l-0.9-9.7l-0.1-9.3h4.1l-0.3,9.3l-0.9,9.7H660.4z"/>
		</g>
	</g>
</g>
</svg>
