<?xml version="1.0" encoding="utf-8"?>
<!-- Generator: Adobe Illustrator 22.1.0, SVG Export Plug-In . SVG Version: 6.00 Build 0)  -->
<svg version="1.1" id="Layer_1" xmlns="http://www.w3.org/2000/svg" xmlns:xlink="http://www.w3.org/1999/xlink" x="0px" y="0px"
	 viewBox="0 0 1186.9 946.8" style="enable-background:new 0 0 1186.9 946.8;" xml:space="preserve">
<style type="text/css">
	.st0{fill:#FFFFFF;}
	.st1{enable-background:new    ;}
</style>
<metadata><?xpacket begin="﻿" id="W5M0MpCehiHzreSzNTczkc9d"?>
<x:xmpmeta xmlns:x="adobe:ns:meta/" x:xmptk="Adobe XMP Core 5.6-c143 79.161356, 2017/09/07-01:11:22        ">
   <rdf:RDF xmlns:rdf="http://www.w3.org/1999/02/22-rdf-syntax-ns#">
      <rdf:Description rdf:about=""
            xmlns:xmpMM="http://ns.adobe.com/xap/1.0/mm/"
            xmlns:stEvt="http://ns.adobe.com/xap/1.0/sType/ResourceEvent#"
            xmlns:stMfs="http://ns.adobe.com/xap/1.0/sType/ManifestItem#"
            xmlns:stRef="http://ns.adobe.com/xap/1.0/sType/ResourceRef#"
            xmlns:dc="http://purl.org/dc/elements/1.1/"
            xmlns:xmp="http://ns.adobe.com/xap/1.0/"
            xmlns:xmpGImg="http://ns.adobe.com/xap/1.0/g/img/"
            xmlns:xmpTPg="http://ns.adobe.com/xap/1.0/t/pg/"
            xmlns:stDim="http://ns.adobe.com/xap/1.0/sType/Dimensions#"
            xmlns:xmpG="http://ns.adobe.com/xap/1.0/g/">
         <xmpMM:DerivedFrom rdf:parseType="Resource"/>
         <xmpMM:DocumentID>xmp.did:e5a1b7c1-1bbe-f444-83e9-83c542c3c915</xmpMM:DocumentID>
         <xmpMM:InstanceID>xmp.iid:e5a1b7c1-1bbe-f444-83e9-83c542c3c915</xmpMM:InstanceID>
         <xmpMM:OriginalDocumentID>xmp.did:e5a1b7c1-1bbe-f444-83e9-83c542c3c915</xmpMM:OriginalDocumentID>
         <xmpMM:History>
            <rdf:Seq>
               <rdf:li rdf:parseType="Resource">
                  <stEvt:action>saved</stEvt:action>
                  <stEvt:instanceID>xmp.iid:e5a1b7c1-1bbe-f444-83e9-83c542c3c915</stEvt:instanceID>
                  <stEvt:when>2018-08-18T14:32:43+02:00</stEvt:when>
                  <stEvt:softwareAgent>Adobe Illustrator CC 22.1 (Windows)</stEvt:softwareAgent>
                  <stEvt:changed>/</stEvt:changed>
               </rdf:li>
            </rdf:Seq>
         </xmpMM:History>
         <xmpMM:Manifest>
            <rdf:Seq>
               <rdf:li rdf:parseType="Resource">
                  <stMfs:linkForm>EmbedByReference</stMfs:linkForm>
                  <stMfs:reference rdf:parseType="Resource">
                     <stRef:filePath>C:\Users\Juanin\Documents\Jorge_2018\01_CHAMBA\06_Backseat\Reeperbahn Fest 2018\01 wip\Artwork_Finales\e6_molotow_02.png</stRef:filePath>
                     <stRef:documentID>0</stRef:documentID>
                     <stRef:instanceID>0</stRef:instanceID>
                  </stMfs:reference>
               </rdf:li>
            </rdf:Seq>
         </xmpMM:Manifest>
         <xmpMM:Ingredients>
            <rdf:Bag>
               <rdf:li rdf:parseType="Resource">
                  <stRef:filePath>C:\Users\Juanin\Documents\Jorge_2018\01_CHAMBA\06_Backseat\Reeperbahn Fest 2018\01 wip\Artwork_Finales\e6_molotow_02.png</stRef:filePath>
                  <stRef:documentID>0</stRef:documentID>
                  <stRef:instanceID>0</stRef:instanceID>
               </rdf:li>
            </rdf:Bag>
         </xmpMM:Ingredients>
         <dc:format>image/svg+xml</dc:format>
         <xmp:CreatorTool>Adobe Illustrator CC 22.1 (Windows)</xmp:CreatorTool>
         <xmp:CreateDate>2018-08-18T14:32:43+02:00</xmp:CreateDate>
         <xmp:Thumbnails>
            <rdf:Alt>
               <rdf:li rdf:parseType="Resource">
                  <xmpGImg:width>256</xmpGImg:width>
                  <xmpGImg:height>204</xmpGImg:height>
                  <xmpGImg:format>JPEG</xmpGImg:format>
                  <xmpGImg:image>/9j/4AAQSkZJRgABAgEASABIAAD/7QAsUGhvdG9zaG9wIDMuMAA4QklNA+0AAAAAABAASAAAAAEA&#xA;AQBIAAAAAQAB/+4ADkFkb2JlAGTAAAAAAf/bAIQABgQEBAUEBgUFBgkGBQYJCwgGBggLDAoKCwoK&#xA;DBAMDAwMDAwQDA4PEA8ODBMTFBQTExwbGxscHx8fHx8fHx8fHwEHBwcNDA0YEBAYGhURFRofHx8f&#xA;Hx8fHx8fHx8fHx8fHx8fHx8fHx8fHx8fHx8fHx8fHx8fHx8fHx8fHx8fHx8f/8AAEQgAzAEAAwER&#xA;AAIRAQMRAf/EAaIAAAAHAQEBAQEAAAAAAAAAAAQFAwIGAQAHCAkKCwEAAgIDAQEBAQEAAAAAAAAA&#xA;AQACAwQFBgcICQoLEAACAQMDAgQCBgcDBAIGAnMBAgMRBAAFIRIxQVEGE2EicYEUMpGhBxWxQiPB&#xA;UtHhMxZi8CRygvElQzRTkqKyY3PCNUQnk6OzNhdUZHTD0uIIJoMJChgZhJRFRqS0VtNVKBry4/PE&#xA;1OT0ZXWFlaW1xdXl9WZ2hpamtsbW5vY3R1dnd4eXp7fH1+f3OEhYaHiImKi4yNjo+Ck5SVlpeYmZ&#xA;qbnJ2en5KjpKWmp6ipqqusra6voRAAICAQIDBQUEBQYECAMDbQEAAhEDBCESMUEFURNhIgZxgZEy&#xA;obHwFMHR4SNCFVJicvEzJDRDghaSUyWiY7LCB3PSNeJEgxdUkwgJChgZJjZFGidkdFU38qOzwygp&#xA;0+PzhJSktMTU5PRldYWVpbXF1eX1RlZmdoaWprbG1ub2R1dnd4eXp7fH1+f3OEhYaHiImKi4yNjo&#xA;+DlJWWl5iZmpucnZ6fkqOkpaanqKmqq6ytrq+v/aAAwDAQACEQMRAD8A9U4q7FXYq7FXYq7FXYq7&#xA;FVK7vLSzt3ubueO2t4xWSaVlRFHiWYgDFWJ/8ra8lTyvDo1xP5hmQ8XXRbafUI1P+VPAjwJ/spBi&#xA;qM0T8wdA1TVzojpd6ZrJV5IdP1K2ktJZo4/tvAZBwmVa7+mxp3xVFeafN+k+XIIDdiW5vr1zFpul&#xA;Wierd3UoFSkMVRWg3ZmIVRuxAxV5/wCcPOraNax3/wCYnmiPylbTD1Lbyzo7ia+kUdprrg8rdaN9&#xA;XSNVP+7GG+KvHtZ/5yC/IkScIPIlz5jAbe612UXEp8WD3T30m/uRiqK0H87/APnHO8mhW58s3/lC&#xA;4Bqt5pDyW0cZ7ktp8sErf8ijir2Xy35l1e4039J+Stfg/MDRIqetp9zJFBqkY/lS4VYo2anSO5iR&#xA;j3lxVm3ljzVo/mXTzeaa7gxOYby0nQxXNtOoBeC4hb4o5FruD8xUb4qm+KsQ82axrl1r1n5Q8v3A&#xA;sL26t3v9U1gosps7JHEa+kjgxmeeQlY+YKqFdiGpQqvENT/PT8kdM1ZrOTVvOWtS27+nJqltqV2l&#xA;vIytQuI0vLSMrX+SEKewpiqaaB+dP5bXsoXR/wAydY0S5cgR2nmCCO8ta7fbkliZwP8Ao6XFXo0f&#xA;5ja1o1vb3/mSKx1LyvOyxjzfocpe1jLsEV7q2cyNDGWO8iSyqv7VOuKvRMVdirGtU/Mz8v8AS779&#xA;H3vmCxTUK8TYpMstwD4GGPnIOvdcVUJPzV8iRCVptQkhjhp6kstpdxxipoPjeIKfoOKo7QvP3kjX&#xA;5BFouvWGoTmv+jwXMTyinjGG5j6RiqfYq7FXYq7FXYq7FXYq7FXYq7FXYqlfmLzNo3l3T/r2rXHo&#xA;xM6wwRqrSTTTP9iGCJA0ksj/ALKICTirBfM3njX4dP8Ar+s6lZfl3oUpIgnvzHd6vOo3/d29TBAx&#xA;Hb9+3iqnFXiPmT88PyP0+6M9pouofmFq0YPDVPMUzPb1J2aOGcPHHTwjto8VYzrX/OS354a5p0s+&#xA;h2y6JodtSN5NLsi8ca9FV55RMEPT7PHFXr2keaPMvmr/AJx70DzldwSav5u0fVrSaxa3UJPNJHqi&#xA;WjKOIC1ltpGjfahrU4qpfmf+Yg/K3TptX1CSDU/zb8yQ0jp+8g0y0rtFAG3WCNuld5pKu2woqr5B&#xA;1nWtW1vU7jVNWu5b7ULpi89zMxZ2Y+57DoANgOmKoLFXYqnXlLzh5j8o63BrXl+9ksr6A/aQ/C61&#xA;qY5U+y6N3VsVfYnkbz5b/mXpf+L/ACcIdL/MnSkRNZ0Z3K29/CuwimNPjjcV9GWnKJ9ieNeSr1vy&#xA;b5u03zVoceqWSvC4d7e+sZxxntLuI8ZradDuskbbH7xsRirz3zRqstpB+cWuwFhdadp8Gm20tQAp&#xA;h003ScSN/hk1Ak4q+CMVdir6P/5xha4l/LD82LaYl7D9GgxwtunN7S7EpA8WVUr8hir6p8iTy3Hk&#xA;fy9PK3KWXTLN5G8Wa3Qk/firEfMOow+a7/VoLzUX0v8AL3y5yi12/jmNsb67QVmtvXUhktrdfhmK&#xA;MC7nhWitVV4h5t/5ys0Ty9G+h/lN5fs7HToiQdSlgESOenKK2j9P585TU91xVgw/5yz/ADr9Xn+l&#xA;LYryr6f1O340r9n7PKn01xVNYP8AnKe51f04PPvk7R/MlstF9ZYvQuV8XV39dQw7cAvzGKvYPy7/&#xA;ADG0HXTEn5b+aJLe9G7eR/NMjyrIAPs2t2zS3CbVI4ySqKf3YxV6r5Z8/WOrX7aJqVrLofmiFPUm&#xA;0S8K+oyDYzW0qkx3MNf24zt+0FO2KsoxV2KuxV2KuxVpmVVLMQqqKsx2AA7nFWJXH5o+V2unstF+&#xA;seZb+NuElvosX1tY2HVZbmqWsR9pJVxVCS+cfzLrzh/L6Zoe6yarYJN3/YVnj8P92Yqkmuf85EeT&#xA;9EWK01K1vrfzFKDXy5HEl3fowO3JLeR4eLr8SEzAspDAUOKsB1P85vU1PUb/APQ+oWH5gyW7R+T9&#xA;O8x2UltAgKgPFYJGZi9zP0+LiZG4pyC0XFXyj5j8y+YPMmrTarr19NqGozH95PO1Tt0VRsEUdlUA&#xA;Dtiqa/lto+n6t5le3vrYXyRafqN1Bp5Z0+sXFtZTTQxVjKv/AHiA0BFaU74q9m8l/mn5Dsbz9D+b&#xA;9R1FIEsdPl0rV9Dub6yjSW5tkmuYfqVhNFaRiGWQxj07fcqedWqcVe1a95I/NPyxbHU/J3nBLqy0&#xA;8SXU+havaWccU4FZJOV1aQ27c3ofiYVruWxV8jfnI02q+aLLzR69xcHzfZR6tHb3BDy25eWS2a2D&#xA;KFDRpJbsIiFHwcR1riqPu/yh0LTYHt9Y8yy2eqwSG1vZ10yefR7a9FK2s+pI+zoWAkKQsFPj1xVg&#xA;Gv6Fqeg6vc6TqcXo3tqwEihg6kModHR1JV0dGDIw2ZSCMVS/FXYqyHyF531vyT5psvMWjycbm1b9&#xA;5ESQk0LH95DJTqrj7uo3GKvti282aLD+j/za0Fz/AIV8xJDbeboBT9w4PpQXzqOkltJ+4uKfsUbo&#xA;mKpD57MSflr+dU7NRZNVKBuxrp2nBafMtir468teXbjXb9rdJ4rK1gjae/1K55i2toVoDJMyK7AF&#xA;mVFAFWdlUbkYqzCT8ufIj2yvbecLmF5qLa3eo6LcWenSO3QfW1lnZVPZmi+dMVex/wDOOvlzVNF8&#xA;lfmvomrRfVr2G0RJV5K68ZLK4ZHR0JR0dGDKymhBqMVeySa5f6T+THl4aWwTWtTsNL0vSGYVC3d9&#xA;HFBHIR4RcjK3spxV85f85SebU0y50z8q9AkaHQfL1tE+oIG+K4u5R6imcj7ZCsJCT1dyTuBir5/x&#xA;V2KuxVcjvG6yRsUdCGR1NCCNwQRir378t/8AnICy1e1tvKf5qPJdWUThtI82IWXUNPnUUjlMyAyV&#xA;X/fg+Ls/JScVfTnlnzXqen6ha+XPNNzFdy3qhvL3mSEBLbU4+PLgwUlI7oL8RRTxkX4k/aVVWcYq&#xA;7FXYqxfX/OF1Hqp8u+W7RdU8x+mJbhZHMdpYxP8AYlvJQGK8v2IkBd/ALVgq8Y/Mb80/yu0GaS38&#xA;3avcfmFr8TfHolmRBo8Min7D26OYCAdiJmncHriryPzR/wA5W/mNqMIsPLkdr5U0iNeEFrp8aNIq&#xA;Dovquvw/880TFVvkHz7+Zs+ia1q0nmTVdS1O8lt/L/l+wuL25mja/wBULBpfSZyh9GCNwtVoHdT1&#xA;GKvo3UIYfyk0/wAnm0gg1XUdb1e20jzHrN0vPVLxrwSMZvrFfUkKS7hXLUWi++KvQvPHlSz80eWr&#xA;7S5o4vrckMv6MvJEDPaXZjZYbmFvtJJE5DKy0IxV8K+d/J+va21nfWmlzSebY5G0rzXo1tCz3f6Q&#xA;t1Z0vDBGObLdwLzZwvxSLIxO+KpT5T/L/wAyT3qXUesWPlu/tJv3X1u8MOoRzR7gpaWwmvlYHofS&#xA;xV7Tp8ejeWdFj1LzVaeY5ZdPjPPWfLumato9rxY7O8jzWMFSWozrBGXO7FmJYqqupeZtF8xzSf4a&#xA;8o+ZFjtXe11Frjy+uty+tSpW4kuL1pOYVhVHJr3GKvFvzEs9Ss7zRvMtvrkuq2l6rjSrp7b9Hy2r&#xA;2EvF7ZbNGeO3WF2BRYjw32pvir0zyj+e9o1jq8Yu9P0hdaaSbWdD123ubzS5Lm4X9/c2JtYppUDv&#xA;V5LeZSu/wt1xV4l5xudIuNflOj3E13p0ENta291cLwkl+rW0cDScKtwRmjJRSfhWgxVntr+UGnya&#xA;O4kg19dQjX0rvWnsFh0WyvVFJba6lduYjglBimuKhYyCeJA3VeY6lpt/pl/Pp+oQPa3tq5iuLeQc&#xA;XR12IIxVDYq+hf8AnErz3bx6xqP5c63SfQ/MsUv1e3l3j+semRLHTwnhBB91A74q9A83eUNQ8kf8&#xA;44/mBo+pTSXCJqX+gXMjF5JLSSe0itS58eAUGnSmKvFPy31zyzZeQ3hvLtoJI9Vmm121tJIIdQuL&#xA;SWx9DT5Lb6wyJObS8ZpuFSUNHA2qFWVeYPzdnuPKVv5f1nzJcW/lm5heI2Nq9nr+tXkJcszahePK&#xA;kVqWJAjVasorVdlqqzz8lbvV/MXkT8yNTj0eawsLzTYdN0CyAklLQWWnS28UaOVDTPxKcmA3Y7Ad&#xA;MVel2+m36f8AKrdNuYWW30yA3V85UiNJ7bTDaxI7MPhYvdMVU0J4+2Kvhz80NYl1n8xvM2pSEk3G&#xA;pXRSvaNZWSNf9iigYqxfFURY2F9qF3FZWFtLd3k54w20CNJK7daKiAsx+WKpxoXkjWtT8yDQbhDp&#xA;NxHDJd3sl+kkS29rFbm6eaVeJcL6I5L8PxVFOoxVT1fybr2m6/reiC2e+udAkuI9Sls0kljRLVyk&#xA;kxIUFYhSvJgPemKpHir3f8hfzT0+5tP+VX+eZmfy1qbqujagXKy6feBg0Jjl6xr6lGRv2H/yS1FX&#xA;1f5C17VpDeeWfMcgfzNofBZrkLwW+tJK/Vr+Neg9UKVkUbLIrDpTFWXYqxrzzr+o6dZ2um6IFfzH&#xA;rc31PShIOUcR4l5rqVe8dvGC5H7R4p1YYq+YPz4/NweWYLj8s/JF3KvpOx81eYC5N5d3kn9+jTLQ&#xA;8idpWH/GMcVWhVfN+KuxV6n+WF7FaeW7XVHNIfL/AJv0O/v27JbyLOvP6GhofmMVfZHnLyPqHmTz&#xA;95N1OR0GgeW3ur+4iJ+OS8KolpRadE+J6/1xVJvOP/OSH5YeXmurK31JNX1uA+nHp9rX0mmNQqyX&#xA;jAWsag/bYyfCKmm2KsIu/wAptZ8z6jqf5k/mZdw+X9ObTibvRtAnYNNZwD1gL27Ussw4oK+nXlRa&#xA;EUpiqD8geQ7v8utG8s/mNplskI1ITyeatKe6ht0TTr8CW0EUl5LFHytAiGjvyYlt8VTvUfzI0r80&#xA;PNWm6Tptnf3HkzRp49R1GeGznnXUbuA1gtFeJXgWGOT4pGlcBiKDbcqqPmXUfzm8ueZPM/mzyx5U&#xA;XTtC1K0W61l9burJ0gmsoShvI0s7qV6eio5pRq8cVeYHy1q1t5Z/L7R9I0+LUvzBv9Mur6C11GOB&#xA;7S0s7m6munvGW6/dGcrwC8q8VVvhLFKKqXlO3/OLzumpQ+WfPEHmabTI45LzSLqKU2EiuSFjiS+t&#xA;1tjupHF0QeFQMVSFvylXzP57tfLrm38p+bvVK+ZtAZQLeCJYxObzT2R5I5EeEhjB6lQ5qv7qvpqv&#xA;X9c83XHkzRfzI8l+ZLyO/wBN1JNV/RutQp6fDU9Ts3vZLCeAFmjMhnMkLbqaleVQQqr50/N/1F84&#xA;RxXLV1ODS9Jg1YEglbyHToI5kJFasrLRv8quKsJxV6N+VGjXFvLD5ogtTe6yNQg0zyhYFuEc2ryU&#xA;cSzNVf3dqhVypIDMyAnjyGKvXPzBtPO2mw+Yfy98zeZf0/DqPlhvMFxOYkVrG606T6yIUI4/6PNJ&#xA;b+mi7U5LRRTdV82aHoeq67qsGlaVB9Zvrjl6UXJEFEQyOzPIVRFRFLMzEAAEk0xV7H+WH5ca7qZ9&#xA;L8uY7TU9ThaNda8438S/U7CRhzSHTUuFLvItD6kwiLV48OA+J1Xsa/8AOJum6jH9c87+cdb17UKF&#xA;pZEkCp0qVVZVunNO1D9GKvGdPn/Je11C4Xyh5+8y+Try3kZba8vomltpqNQUFlwlRW/4tXp1HbFV&#xA;n5gflp5mWYaZ5k8sxab51uVml0bVNIaBLDVltgHuFlgQrHFMIg0iFFQufhaMlg2KvFUR3dURSzsQ&#xA;qqoqSTsAAMVek/l/5fv/AChrNv5v8yhdNs9Pt5ru20uWaGO/vyZHsRbR2rMbhFkk5q8jR0VFYjem&#xA;KvV/K35PfmY6R+SvMXmdfKp1XTmFjZWtnb3X1y3jX07i3uLqJoneS3ieNSHY/ARwJCmirE9W8x69&#xA;FN5n0PzXbQaTrMcOrfpC5sR9W/TmpR2fox/WGj/dD0Ybl7gKAolLDbm26rwnFXYq+wPyk/MfUfN/&#xA;kS316INdefPy/Xhewqf3up6RIB6sR2JZ3jiqvU+tGp2DnFX0VpWqWGraZaanp8yz2N9ClxbTL0eO&#xA;RQysPmDiry/zf5tXSP8AlYHn1mVh5Ws10LRA1Sq3UqRzztQ/79ubm3jb/jFir4ImmlnmeaZ2kmlY&#xA;vJIxJZmY1LEnqScVWYq7FXoP5XWE13pPm+C9X6v5cutKeO91aVgkFtdwSJdWVa/3kks0HpLGvxUc&#xA;sBQHFXv3k78xdd/NfR9L8t3PmZPI6+hFBPHEsh1LVjCojuGt7mVYYYVLKfhiMj9eW22Kpwln+VPl&#xA;f8xtVhkt7K08reVdAjsVtaCTlf6lJIZ41U8nnuZbaJUI3cg074qxpvLfnS/8tSWGs67J5N/KOzZW&#xA;0mPzMkJvZVSphtZYYpLeR4BuVjkk5HiuzDFWOSfmP5EuvNlna2+i3/5xeY2IjgvL5vqVohH+67PT&#xA;lhliWNaciXTbxpir6fk80aR5W8m2+reaUtPLEEUKm4sUlWSKGQivoRFEj9Vh0oibnpir53/Oj89d&#xA;SudPtra/tl0cpMtwvk9nW4urpUPqQtq7DitrDXizWlGkkGzFAQ2KvMfLv5m+YrtbPzFNFPq3mLyj&#xA;c3F/eSM3w3Gjai4jvIpCB+6Ec81F4gikxNFEe6r038jfMGk/lhLZ3jXX6Q8iefpYo7TWCfTfTL62&#xA;Dh7a9joyhmMoXnzoQvMClaKs9/5yT8iSLZWv5o+X3Fr5n8otHcuyrX6zbJIp4uQR/dVJ915L4Yq+&#xA;e/Mn5qNbecvMV5qehLeWvmB9I1uysJ5z+4mt7dLiwaRij+rE0E5SWP4Syts60riryvVNTvtV1O71&#xA;O/lM99fTSXN1M1AXllYu7Gm27E4qhcVeuflT5gs9M0TQtXnr9X8n+aY7/VFrWlnq0EVv64UAn9w9&#xA;jv7uo2xV7Jq/k+bVvyq/MD8ytRlM2pebrD69ZxN/x66ZERNaWocH4qQrG7kUqwC9jVV43+W35dx6&#xA;i2jeXWlWDzF59ilNtdspLabpVsXklmCAqXlvRbSRqKqBHXciX4VX295N8oaH5Q8uWfl/RYPRsbNO&#xA;K13eRzu8kh/adzuT/DFU5ZlVSzEKqipJ2AAxV+fP5szaZ56/Oa8s/JOlxRC7u/qFuLYqUvLgSsr3&#xA;dV+ECVjyr/L8R74q9/8Azl/NDyuv5j+V9Bkuaw+T7hta1/V40MywtDAyR2pROrTSOiN8WzMo61oq&#xA;xj8uvyV9fzR5oh8u2sWhajoji3g1+6mfVYobiaDl6djCY9PeGVBIHaWYyPEeKheVWxVIPOGs33mL&#xA;y9qkt/wurc+VtO1rRxcxRXF3Zy2mpw6ZLGt8yCeQXBgkkJqorIfhrUlV9GeeJPV/MT8treMcbw3e&#xA;oXLEdVt49OkSVT7M80YxV5N590SHzBqHmrWrZ0t72Dzxotho9w8SzqLqCK3s5uUb0WRayVZDs3Ch&#xA;xV555s8h+U746kNce08tecXggh0rT0kitYGkjr/pN/HBbpa2jXq09OPknH7TVrUqvH/MflPzL5Zv&#xA;RZa/plxplywZo0uIygkVWKF42PwulV2ZSQexxVkv5JfmC/kT8xtL1uRyNOdvqmqoOjWs9Fckd/TP&#xA;GQDxXFX3B+X8SeX9Z1nyahH6OiYax5d404Cwv3YyQIQKUt7oSADtG8eKvD/zp1iSL/nHNZTRZvMn&#xA;me+knWoqUOoXlwu1eirBGO9NsVfKmKuxVkPlDQdK1Ca5v9eupbHy7pqiS+nhQtNK7n91Z2xIMfrz&#xA;8WK89lVXffjQqvp38jfy18h675Ls/NWsNANM0aW4ktdFjuPWs4HVFY3eprIKSX3Chc/DHwCAIAKY&#xA;q35N1Y+b/wAtNA8k6L5bstZktLdbnzBrOtRv+i7GSdmuHbkjRyy3MiycyInXjy3PWirzF/PH5c+T&#xA;vMcVp+VeiN5q8wyXKpaa5rSeqi3EjBVXT7OFbcBi9OLsOVfEYqn/AJs/KPzPrJg1b85PzLsdC1G6&#xA;X1LXS7gi4aIHssKyW8SU7+mCPfFUg0z8tNI0S+Mvkv8AOjSrS/kXgZTNNpnIVrxaRHkBFexxVMbz&#xA;yh/zkTpmu2nm66s7f8wkskpp16ZV1i1AG/KGFXSTkCPtBK198VeSvqHlW51y5fzFol1pokYh4dKu&#xA;HQwOertFqP1yWU1+IoZ0r05LirI/Lfl28sNXi1z8uNVg80T24YT6FNbyQ38lvInCeKaxYutxE6uU&#xA;cW8ztQ1+HqFWX+T7vyhpvHyrqKvH5F/MB/qmoWV2WF9oWtWYVTx5gLwD3EbCRkqU48t0cFV73pV1&#xA;qUP/ADjlrtl5jkFzqWiaZrOlX7mvx/UfXt4jU1qXhRDXvWuKvkDzfp91rvnfQ9I08B7u+0vy5Y2q&#xA;sQqmaXSbONQWPQeo3XFU5XyLpU8Gr/4csrfVtPthJDaXeoXUsOpXz2KCS+n0q3gZIuCRgycZkkov&#xA;dm+HFWL+dPLOm6bFpWsaHJNN5d1yBpbFrkq08M0BEd1azMixozxSUPJVAKMpoK0xVBeVvNN35eur&#xA;qSK2t7+0v7Z7PUNOvFka3ngcq/F/SeGQFZER1ZHUhlG+Kvtb8qbebzd/zjXJbiGK2m1611yNLe3U&#xA;rDE13eXaqkSuWKohcBASaADfFWLf845aNY61+Y/nHzfw/wBF0Ro/Lvl1K1WOztk9Fev7foQRbj+Z&#xA;vHFX0RdXVtaW011dSrBbW6NLPNIQqIiDkzMx2AAFTir4n/O7/nJDXfO2oXPlzy1cfo3ykX9EzVMU&#xA;t4taF5nO6Qnsm232q9AqkOjef/KH5aGGbyJENa82y2wiv/MmooxtLZ5FIlXTbfjDJ1NPVm60+zRi&#xA;MVTqw1v8l7LS7qw0vzDNS7aG4u/01ptw5vbmKWOTjez2czSPbKVeRIYlQ+pxMjyBaYq9j/In81vy&#xA;9ufLWq6NqnmG0tNfvdT1G4vLmRzaJdNdzMyXFsbilAUZQqN8Q47jFWP3P5ZX8HnXy/5LtNR0/VrD&#xA;UbC0hvZ7aGdbmHQdLuhcq8jm4mgU3FwgSqJR2qaLvir1NNS0v9N6/wDmlq17E/l7QbWfTNBeEgoY&#xA;YmU38xrXlLJeRGBONKqg68q4q8g83atZeV9Z8jeQb3VbW0u9Nvf8YebtVumPpnVKvdxwsUqeLyEr&#xA;ShbiU79VXpfkWw027/LPzp5h8x2pi0rzVeapq8iXS8Jf0a68IC4cVH7mLkleldsVfIn5hyj/AA35&#xA;LitZPVsX017u6kWQzqdTlmMdzykLOVlFtBah4qjj8J4jluqwXFX2h+VHnKTUfy08h+briTnd+XNQ&#xA;/wANaxMSSTZ3zJaxhvlI9lIxP8pxVg3/ADkOBD+Q/wCXEEL8oJitwaUILPbcwQR/xlOKvmjFU/8A&#xA;Jfl221zWki1GaWz0S2Vp9W1CKJpfRgQEgAAU9SZ+MMXLYyMo74q90s/L/l3Ufys81eYJrrTLI2sK&#xA;yaF5Jjnt3FjFaSxMZruKpZtQuI4PTeRx6hVip+1xVV6ne+UtI/N/WI7u0soLDyDCsP13UEtFgvtX&#xA;njFRDFcFQ/1OFSqmRftNyVTQVCqN/Mvyt+WOo6NaeRrfzZH5St9PdvrHl3R54kmuYpQGaKSyjJlk&#xA;LfaHwNUkkg1xV862mo+SvK//ADkjosljocujeW7G6tLdbPWI3t5YjNEI/rk63RLJwkl9dWemwB27&#xA;KvO/zIg81wed9Xh81STza3HcMLiW5ZmZlr+7ZGatYylDHTbjSm2Kvrz8oPyI/LO//K7y7ea55ct7&#xA;rU76zS6ubmX1FlYzVkUkhlp8DClMVZEv/OOf5f2TyyeXbjV/LEkv220fUrm338aM0gxVh+u/kL+Z&#xA;ds4urDzHYedIoKtHpnm+wivHYDf0xdyCaUFumxT5jFXmPmP8sdOvLhl1vyRqv5dapDWR9d0mObVt&#xA;Gqv7UiQ8mt18Gjc08MVYX518pfmt+iJZ5dSPnny3Eef6c0+dtXithaoWIeU85rPjHLV1bip714ii&#xA;r1fzj+Ys1/8A84z+VLNruO11rznOun311LIsbPFaTtBc3UzkivIwRiV2PRjXFXhPmnS9R0X8xpDZ&#xA;xXMVsL/1PLdzIrqZrOObjYy27kDnGY0T02TalKYq9a/5xesLXUPzT0ouqyQ6V5bmmtQwBAkmn9OY&#xA;qD3rcyKcVeQ+fIZLbWtW8vWvL6hpOvajHYWi1KqZpFioijxW1QbYqz/yv5HuNKni0C1Ty1HrDnhr&#xA;PmLzJ6UttbXrBSdJtI7n1Leae3RkMxSJmDvxJChSyr6G/IzzVfG013yJqVnb2Ou+UbiS1nisIhb2&#xA;0ySF3ju4YFVBGspDMwVQu6kAcqYq8i/Ir837LyZ+VV1pWlWEuv8AnzU9VuZLDQrWOSWaQCGHlNN6&#xA;au/BFRjQbmh6CrBVBeZtB/PzzfrNpD55146Bo+qQvdaxZfWTb2em6ajqFku4FZYl9ViywrKxdmU8&#xA;qUOKr/Lf5FeXfzH8xhfJ9tLpP5b6S3oXGv3FZLzVLhCRK8HqD4VIoBsFXrQseIVfTOnflP8AldpF&#xA;hDBD5X0lYrSJY/rE1nbvKVjULzlmdCzsQKszGp6nFULpflj8j/MZl/Rek+WdZMFBN9Vt9PuuFenL&#xA;01fj9OKq2ofkt+Ul/bG3n8oaSkbdWt7SK2k+iSBY3H34q8Q/OD8rvI/kDy75h1DyP5g1by7rVnZ2&#xA;1zdaLZ3swgmtrm6+rRmWvxkF2eg9Q/LFV6eabOLy/pN3q9obxbOwgh8ofldbwhZ7q6EIaTUdRsYg&#xA;37syo8kPJOISjgcjiqR+RPPcfkWbVbqa78v/AJgvqcyvq2qyajBZaktzEqh466iV+s26Mv7p4vhP&#xA;2gewVTrzP+bOqec5dPh1uTQdM8s+tJI+jxa1b3sk00dtM9s2qG2f0/qAnWMSxkgksvXFXy/q/mPW&#xA;dXSOO/nEkUUs1xHGsccSiW5K+q/GNUBLCNFqf2VVRsoGKpZir6N/IG4lm/Ij80LTfjp0X6St9+k0&#xA;Vu0qsB2o1ohrXFVn/OQryP8Akj+URAIjGmxq43pyWytlFffY4q+dcVZ5+WnnT9Fq+gzXEemwXl7a&#xA;6hZ60YjK1pf2ZY28k0ShvXgPMqyMp4V9Rd1Ksq9i/NnzDqK3emr+aHkrRvrulSi7uLqzv7SGbU6A&#xA;xQD03JvRaFubSBUfkVUfDviqR+cP+cg11K1iiu9XuLi0EarD5c8rmXSdPjiFQEub65iF3I4FA0cU&#xA;Sx0pRq1xV5de/mp5n+ry2OhNH5a0uWoe00kNC8gIo3r3bF7ufl1IllYeAA2xV6Bb+ULTzj+auleX&#xA;5uBbW/KFj9TmkqBHdJoUbwSmnxfDLCpPiKjFUF5y8v67JaWPk/8AMWKHQPN+lxxx6B5jvWZre9sA&#xA;3AWc08Alj/d8+UczbKoKPxqMVfbvliwTTvLWk6ekqTJZ2dvbrNGao4iiVAynuDSoxVM8VdirsVYP&#xA;+Z1roWh/lj52u4bSCzF5pl6928MaxmaeW3aJWkKgcmYlRU4q+Wvyk8o6X+Y+s+TPKetCV9H0jy9q&#xA;N1NHE5jdZZtUuaOrDv8AvYj4bb4qzDU/yR/OT8v7wDyo0XnTybBP9bTQ730neIREuCsM+yzAbLJb&#xA;HmW/Z7Yqxr/nF26az/MvRhKDAy6fqmm3cclVZDbyC8bmDSlPVAPyxVgdtLFc+cdE81XH/HN1bzbc&#xA;yNK4+FkhntJnJXrst14Yqyf8uPLGp+Z/z5h0bUV5Wema/qeqXqSEcfUgkjaZaftFniiU07HFWVa1&#xA;e+ePMv59+f8ATPy0Cyrq6W2l6tq5BRLOKBIbe5lVnKUZJI3UMtWNCY6mhxVMv+cYrG40uz816Vom&#xA;mQXPni01NrJ9ZuYyba1tFAQtLICCRzikKxRNydqVoo5KqyD8x/J2redvOGl/lrZavc362xTU/wAw&#xA;9ZlEcbekaNZwIFCqoHKUxQoCqlw5qeTYq90RPLnk/wAsUURaXoGi2xJ7RwwQrUnapOw+ZPvirxH8&#xA;wfMGmXVk3mn8yLmd/K1zzm8peSrR2t0vbdKNDc6hIxjrJMpV1gdhwG3FmDDFVf8AJvylrd1+YNn5&#xA;zt/L8Hlvy/Fon1GaW2t1sE1S6eQO0yWVRJHEP2GkUMwCnvRVXvksscUbyyuI4o1LO7EBVUCpJJ6A&#xA;DFXhn/OR+taTrP5L+abvTDFOsNzpls19CVcSxM1teRESL9pON3Vd6b++Kvm78wvMup+XpJvLVjO0&#xA;l/f2FjJr/mJyfrl9FdWUM8Vqp/3RbRQyJF6aH4+NWNKKqrzHFXYq7FXYq+iPyDVrb8jfzPuZqrb6&#xA;ikWlwuoJJmuI2twoA6nldp9+Kon88IpLn/nHfyVds3L6hq13prMBxBMUl1CNjv8A8euKvm7FXYq+&#xA;jP8AnKpG1nyr+XHnRfiOp6YI7l+pDPFDcIC3feSTFXznirsVe7aTrE+h/mn5Y1iLabTvJEd5GaDr&#xA;B5clkXY1H7IxV7R+anmT8s9X8meTfLn5myTQXnmO0hvYtUgUKLO5ECBp3YfZVnlK04MviABXFUis&#xA;YPza/IzS1GkRj8xPy/eP6yrR1guLRnH+6+DXREPEBqhWTqfh6lV6F+XH/ORf5cedLWBGv49G1qTa&#xA;XSb6QIwetKRTMEjlr247+IGKvUcVdirwj/nLrzPc23knTfKFhG0uo+bbxYIlXqY7aSN2Ue7SvEv3&#xA;4qkOo6B/yozzr5U82Sxte+V5tIi8t65dRKQbaYMjm5ZRyqsjpyp7EdaVVfRMmsaWmjtrJuYzpS25&#xA;vDeKwMX1cJ6nqhhsV4fFXwxV8baBo1xpvkDzb+dCzmCbVptSsNA0grxJOqzx27XCS8t2jVpaIE34&#xA;dcVYNq+k6/L5IbQrmyOnat+XlxLPqNk7fvpYdTlQNciMjb0HjhRiGbkroQAFYlVl2oz+atV/MDSR&#xA;5UR9N8wecIG15WiZY5bVdVtTFqUYRyC/P6t68B5q3EgjdgcVZP8Ak75Xex/NHzx+XHl/WkhtGtoL&#xA;bU9ZCuLp47PjDfpaoW/dyyTTOvqFz6XVQ22Ks4/5xp0nT9L8/wD5qWWkRmHRbLUbeztIuTMB6D3K&#xA;EcmJJpTviqZfkZcXFx+cH5ySXBJkXUrKNSdzwiN3HGP+AUYqzn83Py81Hz/5XXy9a63+hLeS4jmv&#xA;ZBb/AFkzJEeSxUMsIA50Y1r0GKpN5X/5x2/L3SL1dW1WKbzRr5IeXVNZkNyzP3YRN+6G/wBmqkjx&#xA;xV6fir5+/Ov819M1mf8AwNpklz+h5dRs9M8x6zZgFXe4lo+lwuaD1HjDvI/KihClCW2Vb/NjS7OL&#xA;8oPzX0+0jWG0sdU09LaFR8KR29hpHBFHgFWmKvlb8zLg3Pma3mP2n0fQuXzGjWgOKsUxV2KuxVci&#xA;O7qiKWdiAqgVJJ6ADFX235A8h/oLy55I/LeZR+kZZh5r82RbHgls6vDFIPFrr0Ix2YRP4YqxX83r&#xA;Ey/kL5stADx8veb7xgN/hS4vmlSvX9m/Xrir5MxV2KvrLWPLs3nH/nDjRrmAeteaFD9dhAqTwsZp&#xA;reYb7/DBzP8AscVfJuKp95E8p3nm7zhpPly0qJdSuEhd1FfTirylk+UcYZj8sVe0/mhbWafnrrtp&#xA;YxiGz0zyjfQxQr0SMeXpljQfISKMVeoaLomjecPz51DS9a0621TRvJfl2y0+C3uYlljF1celP6hV&#xA;+S8gpdemKvWvKHkLQvKJvItCa4ttNu2V10lpWktYJBXk1ur8nj51HJQ3HYUA3xViPn3/AJxt/K3z&#xA;nfSajeWc2m6nMQ097psiwNIQKVdHWWEk924VPjirGk/Kj88/JY5eRPPA1nTYfii0PX051VdxEs3x&#xA;0r0+Exj5YqkOofn/APn55Pnkm88/l9C2mJs1xYCaONSN6m4El9F0B22xVidh+fXkjzp+bWneaPPL&#xA;yaNoXlqMt5b09Y5Lmt3Lx9Sa5eNXPwlAV4qOieBqq98n/NT8jvNujXGm3nmTSbrTb6MxXFreTrbl&#xA;1Pik5icHuD1HUYqww+SfL6+XpfLsX5uuvkH0WjfSxPp7zracaNAL88n9Hh8PHj9nbpirz+1/MXyT&#xA;5k836dDcXNpon5Qfl06z6baylhcahcxpwt2ENWklIkq9AlQtee7bKoG//M3y/wCZPOPnv8yxpwPl&#xA;yx0SPRILK6PFr66vJAsCSohB4uIpGcK1Qi9cVV5Py41HWLDy1ezT3A/Obzde/p22voZDCmm6cgXi&#xA;86gNxijjVfTUcW5HiDRaFVNPKmma1q2opc+WRBp/5yflwr6ZqmmTk/UtYtUeRXnZjwdnneQszlhV&#xA;mBNKqQq9j/Iz8uNS8leVrltbkWXzJrt3JqWsshDIs0p2jVh1Cjc/5RNNqYqxTWdd0j8pfzru9T1U&#xA;rB5Z/MaKJpr5t/quoafVDyA6ROtwCxP7Rr0BxV7db3Nvc28dxbSpPbzKHimjYOjqwqGVhUEHxxVS&#xA;1LUtP0yxn1DUbmOzsbZTJcXMzBI0Ud2ZqAYq8e1jzp+ZnnzR9Rbyp5fvNN8ovAyR37yLZ6zfsxAT&#xA;9HiWsdtGx+3LKrfu6lBzpirwjzb5Q8/eVfPv5e6L5htLWx0NL2ybTINNaR7UStcx/WGlkk+KS6Jp&#xA;6jt124/DQBV79+Yelev+X35yQbnncteAe0Wj6fJ91YTir4j8yXhvNQhmPaxsIQfa3soYf+ZeKpVi&#xA;rsVVrOzvL26itLKCS5u52CQW8KNJI7tsFRFBZifAYq+lvyj/ACTi8jS2Pm3z1ZteeZ52r5U8mwFZ&#xA;LmS4XcSyr9lTHsxJPCIfE5BoAq+jfIvlXUtLOoa1r80d15p1yRZdTlhqYYY4gRb2dvUKfRgVjQkV&#xA;ZizHrirBPNPlvR9Wn/MH8u9Tv49Hl83T22saJPPxCzMLe2jk9MMV9Ro7mxrIoPIKwPeuKvFrr/nD&#xA;PzZZRG5v/M+jWlip+O5laZFVfEl0Vf8AhsVSwfkd+UGmsf09+bWnM6f3kGnQi4oRSoEiSyeNPsfx&#xA;GKvZ/Jv5z/8AOPPkfyTZ+T7XzNJqdlYpLGxksrp2lFxI80nKkCxlS0pFK9NsVeUz6V/zhpLPJIms&#xA;61CrsWWGNJ+CAmvFedu7UHuScVZV5H8+f84ofl7fTa35em1C51UwmBHlhuJZAjEcxGJFiiUtTcnt&#xA;sOtCqxzXAdQ/PH805UFRa6Hd26V34gRW1jT/AIFyMVZPa/mZH5A1b83vNn1Q3t/deYLfRtLhNeDT&#xA;xJcFA5HxBERCSB1oBt1xVMNJ/Kn/AJyL86WyeYPMf5gXnla5uxzh0iyM8YiiO6h4reW2jRt+h5N/&#xA;Ma7Yqum/KT/nKHy65n8u/mF+mkXcRahLKzt7cLtbqP8A4cYq0v5tf85UaR/ouq/l7HqEy7Ce2hmc&#xA;H3ZreWaM/RTFVtv5M/P/APNu7WH8wZ28peTNnm0qy4xS3NCP3ZTnJJQ9azEgEVCYq9ms/wAofytt&#xA;dPtrBfKeky29ogSH6xZW879ACzPKjMzNT4mJqcVYl5s/L38kbSaa61Pylo9vodgso1vVU4Wa2kqR&#xA;xSQxejCI2kaZJhTh7dScVeI+TPyP0v8AMfzfL5ntNGTyt+V1nMTbh3uPW1CCFyS1ZpGZBIo+N1IV&#xA;BstSCcVSPXND/JzX/Or23lvTm0T8uvLp9XzL5pWW5uHmG6xxwiZ5QBLJSOPipZql6cRiqWfmF578&#xA;o65qGi6R5TsI/KvlfS5nvI5b+EvBdyfAkUs9nBFOJCixFQ0gcvyPM9sVZ35X1PWvMWsDVNN/OzT4&#xA;vM8kK2ai601bMtErGRYEedIgyc2JCqvXtir1b8uvyd8/2P5kN5+87eY7XU9SWzNlGunQLbidGFA1&#xA;yUjgV+I6VUnZd6KBir2fFUt17y15e8w2X1HXdNttUs68lgu4kmVWoV5KHB4tQmjDfFXjWt/848+c&#xA;dFn9f8q/O175fs0Jki8v3c80tisjGpKbyAKdtnic++KpPqHmP/nKGztf0Z5m8haV5tsYmU+uEjmE&#xA;zRmqy+mkpWtRyH7laeAxVEt/zkl+Z2lj1vMP5VanbWKbz3UX1gKi+Px2/D73GKovU/NHlP8AP/Q9&#xA;N07yrqX6N1/QdSttal0/UI2SURW/KJwGj5qVrMPiUmhpUCuKs/1+z+sp+YWl0r9e0pJuHYm4tJrb&#xA;8fq1MVfJnlfzv+V/lnyZ5ftvM3kGHzDqd5bTXX6Ta49Nmj+vXECIVKN9n0COuKprF+b3/OO0ymO8&#xA;/KsQoxAJguAzce5B/cmv04qzDyp+Xn/OM3nLyzrfnTTNJ1iz0zy9HLPqWmSTkNxhiM7BP3kxaqIe&#xA;P70e9MVejeRfJ2pRaVBceRPLek+RNNvoUeLWLojVNXkt5FDI3BT6akg1HqXEg8VxV6F5V8j6X5fk&#xA;nvTNPqmuXgpfa3fuJbuVa8hGCAqRRKfsxRqqDwxVkWKoHWNB0PW7T6nrOn22pWleX1e7hjnjr0rx&#xA;kDCuKvjj/nICGdfyl/LRI6x2tidTsbmEVCi4t5Y4aUG3wmGQDFXgGKuxV2Kro43kkWNBydyFVR3J&#xA;NAMVfQ/5bf7ntQ/NnzUprb313b28EviNQ1YOFH+xRcVV/wAsrdPMf/ORt1Y8fUstL8xa7rsyHoSG&#xA;WO3cg/yShSMVfYmKuxV2KqN9fWdhZz3t7MltZ2yNLcXErBUREFWZmOwAGKvDPMnnfSfzMgvbqPWZ&#xA;9F/KHQRXzDrKiSB9VlbiRaQgoJliTpJQcnLBQvQ4qwdNP8qeaNasvPnm9v0Z+UumldP8g+WgPUkv&#xA;Whb0SEtIA8tHmiLMGXk2wJ4CuKsL/ML8wPNfmzU9ZP1i5h0DT3NvqUMHGKHTNPab0FsokLJHLdSK&#xA;OMjKTz3VD6fIlVkVr5L1vyb5IvvzM8yWyWF7otvHb+R/KrMki2hvmEUd1Onxcph6jS0Yci6lmoQA&#xA;FUPpv5O69ovk2189aDcDUPzG8vag975hsvVExVTGJpLSVa0aRIiHkFatzdPtADFXtc0n5F/mV+W4&#xA;85a3plqdMjjC6hdiF0urKUcfUjaWBRMPTaQEkfDT4vs4q8+07S/zB/IvXv0jYXB178mr2eOS4m5i&#xA;Y2dtcyACYRqS/KNWqXjXhIKVoSKKswuvJl1plhF+YX5G3hube8IuZvKgkP6Lv45G4yNHHK8X1eVK&#xA;lqVG68aA/CVWY/lZ+c3lrz/FPaQpJpnmSwH+5XQroFZoWDFGKkhRIoYUJG67cgtRir0DFUk1zyT5&#xA;V1yw1Kw1HTYpLfWDEdTMYMMlwYCpiMkkRSRinAU+LptirFPNX5Wao2o3XmfyZr99pPmt2Mqx3NzL&#xA;caZOTsYZ7WT1FCFaheAHA7jpiryzzVX83IrnQzZDy3+eXk7/AEtUiNFmSArVYbtTxEbtMjIHaqtS&#xA;h48jirIfyF/MXX/NXnjXdP8AM1obTzDpej2WnavEwA9S4sby7DycRsOS3a8qbVrTamKvmP8AMrSn&#xA;svLvlVGQr9Q/S2juTT+8s9UmnZfmFvV+/FXn+KvqT8lbJ7H/AJxi81ykETeY759Mtz4i+FvpyU77&#xA;STNir6stbaC1torW3QR28CLFDGOiog4qo+QGKqmKuxV2KvmP8+dDa+/LrztpSIGufKXmKPWoVQfF&#xA;9T1dBM7/AC9e7n5f6lcVfI+KuxV2Ksr/ACp0xNS/Mfy7bzIHtY72K6vFPT6taH6zcV/54xNir378&#xA;jND+pfkI13KoL+YvNOkxxHxiTVLOAA/7NJMVSj/nFGX6x+fHmqc7mTT9QkqetW1C3P8AHFX2Firs&#xA;VU7i4t7a3lubmRYbeBGkmmkIVERByZmY7AACpJxV8zefPPsn58eYIPyz8iSPb6LbyG+1/W5yY1lt&#xA;7ZxH+6jUszx8pVKhwOT8fsgcsVSL8yNZ8h64um+SdCnmtvy88i3McGsQ2nF7jVb2dikFvYRKazyk&#xA;xTVkYqtSzdl5KoDzzd6lcecW8vaZZCw86tbRwQQyOF07yvowtlkKxS9FnMFJLmcLRKlUJO+Kqvl6&#xA;Dy9ea55V8q6JLHB5P8j2dt5y85asUcrfXKQxXLycGXm68HCIjKCAWFPhFVVC61S48+6nH5hkRktP&#xA;OvnjTLLT4Jdn/R2lxunxICygUuU5UJ+IHFWN/lt+c58vfnNq+s3MzDy55o1Gf9KrUURJ7hpIbkA7&#xA;coGfl0+zyHfFXtel3+jflN+Yt/5I1e3A8g+fHN3pcpQfVre8uFWG5tnZqAwsOArvxBWv7RCrKPL2&#xA;p2ul3U35MecoCtre211a+V7wNWC90fiY4rVpfgYXUEB4MOP7Namoqqwb8r08xfkx+aEf5c63cC68&#xA;o+aHkl8u35JCpOCQqmoXi8gCpIg/aKEbE4qqf85LeR9b8t61p/5veSlFrqOmP/udaMkFwSqRTNGB&#xA;R1ILRzVO68dupCr1n8n/AM1dK/Mnyp+mbOB7S5tpBa6jaSFTwnEaOxjIJLRnn8DGhNDttirOMVdi&#xA;r4Y88/mcvl7/AJyf1PzfpbtLa2V/HbXaJT99DBBHaXUY3oa+m/GvehxV7Jqes6f5e/5yt0K9slAs&#xA;fO2hxx3Uq9JJXeT0n+f+iwj6cVeM/nvpMtvBr0ZoF0nzlqLFd9k1u2huoafRaPirxTFX275R0BtM&#xA;8jfk95N/u7i9vE12+jI/3XaRSak4b3W5mgX54q93xV2KuxV2KsI88eVb99S/xHpFompTSWjaZr2g&#xA;ylVj1LTmYt6YLkIs0JkcxlvhYMyMRy5Kq+Ztc/5x6/L7VtTlHlXzlBoV07b+V/MiNaXtuzf7r/eF&#xA;ZXUE0BEbD/LbriqR+Yv+cT/zM0nR7nVrO403XLe2UytBps8slwYgK81jkijDbb8VYnwrirxfFWcf&#xA;l2P0bo/mzzSQQ2m6Y2n2LA0/0vWCbQfdam4ce64q+tm8st5W/J78vdD4lZLbWfLrXantNNqUM03/&#xA;ACVc4q8P/J7XtJ/LT/nIrXrHX5xZ2Uz32k/W5tkTncpLDI7fsq/or8R2+Kp2xV9MfnN+aqflx5Nj&#xA;8wx2B1V7i5jtLeFZPTj5So8gd5Ar/DxjPQbmmKvCU/5zj1QRkP5RgaT9llvXVR81MJ/XirAvOX/O&#xA;R/5r/mJap5Whjt7GHU5Bamz0uOVJbr1iESB3kklYhi3EhePLodsVZr5j0KP8kfy8t/L+k3kY/MTz&#xA;kgXXL1/i+p6ekbmb0GShjVGIHM8i1GI3C8VUo0meH8sfJeh+aDo6XPmHVJrgeQrC6iLOEkMYuNSv&#xA;AhBaaRDEkEakBFpSpLMVXn/nTzHr2ivrHl25dZPMOrNHJ5x1b1BNPLOSZmsUdaLHFEXRZowCTKh+&#xA;LgFUKsr8r3snl/TrrWYtFl81+R/NmkW2ma4bJnS4srqCGNZoWZA/oskqlk5rR0KkHriqpr/mTzMl&#xA;lpuvwaHD5Q0Dy5b3Fn5I0KczG6urjUAIZZ4+fGWaSL1PXM3EJyVV3Zt1XjeraNq+j3r2GrWNxp19&#xA;GAZLW7ieCVQwqpKSBWFRuNsVfWiaRN5t/wCcdbW08+2V3ZXvlkxreyyxlbyKyjPGK+jVgW/dQt+8&#xA;BFXEci/b4sqqYeSNYt/zI8ny+Vb2WB/zI/LuZZNGvkk5Rz3OnHhaXgkfmZIZ3jVZ/wCYHkKcloqi&#xA;fNLS/nR+Td5JbWf1H8wfLFxzk09SUmtdTtG/expuW4zIG9Pf7VKmq4qyH8jvzNtfzW8iX1hr1uja&#xA;vZKbDzBacSscsc6sqScTWnqqrBh2YHoKYq+bPM6+bf8AnHn817iHy3eCWyuYFubWK6rJHc2crOqJ&#xA;cohjq0ciMKrxO1RQGmKvd/JH/OXn5b6vaWkPmFptD1V0RbppIme09ag5GOSMyMqFunMCnc98VZL/&#xA;AM5DfmkfIX5fT3OnTonmDVCLXSARzoWoZZqAj+7iqVPTmVqCNsVfn8zPI7O5LuxLMx3JJPUn54q+&#xA;gbvzRqGvfmt+UmnT6PdaTqOgHTrC5W6K+pKIZYw8gVd1HwPs2Kqv5/R/WvNX5sWQIH1Kby9rCr3P&#xA;p2sdk5H06iK4q8S8k+XZfMvnDRtAiBJ1O8htnI6qjuBI3+xSrHFX33piJqf5x6jLFT6l5S0eDTYY&#xA;6UCXepv9ZmC9vht7e3/4LFWfYq7FXYq7FXYqgtU0PRdWjWLVNPtr+NN1S6hjmUH2EgbFWAedvI+i&#xA;eVbVPPHk7RrbTdX0BvrV9Bp0KW317Thve20qRBEkYxVkj5AkSKtMVfJv/ORvkaw8ueeV1XReLeW/&#xA;NMC6tpMkY/dgTUaVE9gzBwOysoxVK7eLTX/K7QF5tbadc+YpovNEoo7kxwwm0kUbUVIJrjivduR8&#xA;KKvvLzhpWn+ZdF1Hy2t7FDqckKzWrBg0ttcRsJLS69NWDfup0Vx2NKdMVfLn5i+TdQ82ah+hPOlj&#xA;a+XfzTUJ9R8zM5j0vXoYV9MRBgVijuW5KV+DtxPHYBVf5I892nlrRLn8pvz50y7TSGMb6XLcJIwi&#xA;hVjRfVgYSmJXT93JEWp8S147BVGXP/OIPl/zHJ+mfIfnCCXy7d/FbLIn1kp2ZBNG68qGuzKGHQ1O&#xA;+Ksob8pPyl/JDyzL5t1eddY81WCPPost87RrJfIh9GOC1jYj+8oSzcyn2qimKvM/ywsX89695h/M&#xA;/wDNN3vvLejWvO9mc+lFNcRlDBZpHHwDIo+IovVuANeRqqtg81+d/OeuL51ntEj1G4uJI/KN9dcV&#xA;03RtN05vV1C6kXjxPpLPDGsjKasW4/vFQYqnMXkmTzVdXXnHyt+V8Ot6O9zPNp+oXN4uni6jimcR&#xA;FNOjaKPiiqsZ5KTLx5NVmbFXlXnPVfOOgeZ7bXrPUpNLvte020vGutKZtPZyYxb3IkSAx8JBd28o&#xA;lHQuC1KHFWaeZrXyjpvmjSvNNzrOrHU9Pax1Gxe4lOoXmtQSKk1ldWkk8bRxOsyss6S8lSnwhm+E&#xA;qobUNL/MfzLrNmkXkmO4u7WaSfRtPvHuZr61s552uYobkrLCEgjeRvTa6ReQJALAUCr0j8qdc14+&#xA;ZtX8leYNJli816lE8PmuCaaJLVrF557ma9Vv3heeQ6k0axx/BTi3IKDirzryhfeYbLVdQ1OygePz&#xA;l+XRIe+ijMdrf6VpqehNYXZjX00lSCA+m5HKRQwJLqhxV7td+YPLNrbaf+e/laV4dKvTFD530+P4&#xA;jcW8hW2V3jo4WeymdWPChZQd6HdVLfzZ8ra/5RuY/wA1/wAoQo+uKbjzRaW59eC9t3KSpcCA8l4/&#xA;a9Ro6NQ8hT4jiqZwWn5Z/wDOR/kZb6eA2Ov2Ktb+orf6TYzsFY7AqJoGP2eQod6cWrRV8mX/AOV/&#xA;mG3vtaWJoJdG0K8ksLvX3kWCyMkblT6bylTI3w14Rhm8AdsVZT+a3k7zHe6ZZea7LynquneW4o47&#xA;RdV1W4lur262pFNPE7ubdDQKgRQm4AJqMVTT8kP+cd7/AM3XVxqnnG3vdF8p29u8q3p42zzSginD&#xA;11b92qcmZ+NNqVxVgWuWvlyP8zDZ+RpLy50lb2G30uZ7hYrmZqqhdJ+KLH6klSjEbAiuKvc/ze8v&#xA;TJ+bS2ktm8L+dvKUto1s8pnb9I21uzwRNNUmRlntLccq/EfnirE/+cPfK66l+ZVxr04AtPLtnJN6&#xA;h6Ce5BhSvb+7Mp+jFX1H+TqyXnli58zzKwn82X9zrIDijrbTMI7JD/q2kUWKs6xV2KuxV2KuxV2K&#xA;uIDAgioOxB6EYq+Xfzh8i/Wvyp17y8iFr/8ALfUPrmldWdtEvqyRipH2Y0Zo/wDnhirwL8ubq0vY&#xA;Nb8nX0yW9v5itlNjPKypHHqdkTLZl3bZRJWSCv8AxZXtir1LztZW/wCb/wCWlh510mRX/MHytai2&#xA;8z6YrKtxLbW9SbkR7MSCeYI8WXqoGKvMfLv5yeeNKhewvrs+YNCnT0rnQ9YL3lo6VBoqu3KNhT4W&#xA;QgjFXtv5eahqF7oDj8rZrDWdCu1dtZ/KzzBPHJcQOOPrGzkk4s1ueS8Wf4a9atUBVJZfIv5UeYjK&#xA;7/l7508v30Mjw3kehwHUrJZ42KSIsrCWvFhQgBaHbFUPpH5M6Vfata2Gn+XdR8u6JcXEdte+ZfOU&#xA;kdrdssrBTBp1mVjj9eQHjGxVzWlOJxVmn/OQEnleZ/Lf5Taa8dh5d8vKmr+ZLqNgRY2VvGYo0bf+&#xA;9lEx4q27yPH1L4qw/RvNtn+aWu+TPKttpUOk6VeaiYdVs4oo6S2WjK1xaxfWAfVZRbT+m6OOIZQ6&#xA;0LMMVfUP5pajruk/lxr955cheTV7eyf6hHAhd1YgLzRFBqY1JYbdsVfFsam/1ez1i5ura5m0TTtN&#xA;svKWj2c1td3N5qLoptg1sHlfj9ad7i4WRa8j6RALbKvdPJX5P22iXEGlavdXF/8AmP5pVrvzLrlu&#xA;/OXTLA1eZVlNTG10ym29QfE3JyuyYqzi4sdC1+KTy7pN0dE/Lfy3Hx1iezItra9YV52kd4pXjDb+&#xA;m31plapZuJYEPiryW7vfye8xfncl9C9ifJ3lDRksLWwgKKL6+E0zxxafbxkSXFDPt6YNWHcMCVU6&#xA;88aDr2haV5f/ADNudavrPzFqV6kTaJJ9UtYbKDXeRuLa3WdI1iuYVf4ppW+0hd++Kse0TzP5T8i/&#xA;mfN5k8r6rBc+Q9ZIi866LaslwNNmlVQs3FCUe2W4nVRNFyTdowalQVXpXla58tflh5ilWDUV/wCV&#xA;Z+cD9c0PUFkD6bp16lfWga4FYo4roMGiJelUK++KvMv+cmfLfknW/ONjqGl3Vtpbtpcuo615hRg1&#xA;pNGWljtI1EX99czyQyIOJ5FR0IXZV51+WX5k+d7HVzrtvoNr5rvNGs7axs5rpXaSwtYFEMK28cbo&#xA;sYOwL+nUk9asaqvSPOn53f8AORWraPcWlr5RuPKMMdGvdYkhnt/TSo2+s3YihhrUbnfwOKvKrq18&#xA;2X8MV1568w3+r6NJOqehbagLyF5yCyq99JJJp8HwhtzIzr/JSpCr1fTvLrebre0j0nTvy80m10m1&#xA;9C3sru/XV7yO3VmkLTSWztERykZizCtSScVQnn+z12P8qLDUpG0GD/CGrwP5M1Ty7L6lrfyTzN9Y&#xA;t4YaswkjmQOT+1xP+tirKfIXkuDyp+UGraZo90s995+1qXRtH1FdjJYvM9qk6la7LZxT3SGvfFX0&#xA;XYWNrYWNtYWkYitbSJILeIdFjjUIij5KMVV8VdirsVdirsVdirsVYN5ws7S3856NdXcYfTfMlvc+&#xA;WdWRj8L+rG9zacvkY54h7y4q/Pzzh5buvLPmrVvL90azaXdS2xelOaxsQrj2daMPnir0by55zk1P&#xA;zzpnmzyrOmkefSC+q6VKDFY6tcBhyitWi5UlvR9qGQIpf7DcioxVE/mBN+T/AJw1NpIba7/Lnzgd&#xA;9TtL+3ZtKaetGX9wHuIXJNeXoBetVrvir1X/AJxX8o6D5a1jUzPLZ6xqs8VbPzFpt1FcWCWx4crY&#xA;BmjnjuGf4mDQ/ZA3HdVlP5nflV5MvvM2oaxHpPmazv5LNtQvdV8tSQxw3LxfD6PCRzyuWC1osY5d&#xA;a1rirwLyzFe6R5i0Pzh+afm0Tw6FOL210B76TUtXaWGksKJCpljgDSovL1ZE6b0xVjXmyTUtQ8va&#xA;v551WWW31Hzhq5Sxt2JUzWEXOe5NO8ST/VVQ9KqfDFU0/JcalpF5pnnSwlg1BvL9/PNc6DBNF+kW&#xA;s2t0S8ljt3ZJJawtVOAI+B+RWgqq+4vJ3nPy95w0C21zQboXNjcrUDpJGwNGjlTqrqRQj7qjfFXz&#xA;/wCdPLfl6+/5yu8q6Vpmn22nR6dGNa1WaCJITLcxtJd+pIUA5msUe7eJxV6BpQ17U/JeveadHkWD&#xA;zB5+uo00WaQkNb2Dcba0bYH4obUSXRAruTirAvzpEl7Z2H5ReS5Pq+i+XordvNB9WGAyCQp9Usop&#xA;ZXRZLqb45PTanNqb/axVmXkDz9+QWl2tvZR29v5S1XRIzZra69BFZalGgJY1lcty5szMeMhqScVe&#xA;b/nt+Y+i+bJdMup7lrLyPZTXNvbs8fO51SaRXt57uxiVv7m3hZjDM5CmVlUinIqq+cPK+uRaHr1v&#xA;qMtnHqNonOO7sJ9knt5kaKaMkV4lo3PFhurUYbjFX0L+T35ieSPK+nT+W9euzq/5b+aLp49EF4kb&#xA;tp8iN+/t9ThYkR8xJE4aMsn7Qp8fFVG/85P+S7K0GgStHLpX5c6Zbx2tv+h7SK5f6zJJI5LhprZV&#xA;j9Nv3bO5+NmoPiJxVD3nkr8rNM1fyx571OznurLzBp+nDy7+XtnEJrq4nS2SKN5yzoskagKxY05M&#xA;d67hlUfqb6/5xuPMt15j1m11fUvLd7Z2FtpRWZPKVvd310lrGspVTcXksTSVPOMKrdSVxVLvNf8A&#xA;zir55vtPudc8z+d7BZbOFpCskckdlBGg5FUYcFhiWnRIqDwxV5N+V35IeY/PwvL+3urbTfLemScN&#xA;Q1y7ZkhAWjSCIEDkyxnn8XEAUqRXFXpc82l3GteUNN8uFrjyjo1y2m+QbSWrPqWru9ZtVuEbj/ok&#xA;Fy5Zm7kcVABfgq980TTLKb8xbLRrBeOh/l1pUVtAlTtf38QRAexaGxj6/wDF2KvR8VdirsVdirsV&#xA;dirsVdirFPzT027vfI2pS2A5appgj1XTR43WnSLdxL/s2h4fI4q+TP8AnLTQ7NvNei+d9Mo2l+b9&#xA;OiuUlH7csKIOX0wSQ/jirwnFWYWf5n681nHp/mCC2806bEvCC21hXlkhAFB6N1E8N3GFGwUS8P8A&#xA;JxV6l+VX5N/lt+bGj6hf6ab7y3qemTxQ3emx3CXkPpyiq3CGWNZVBpJ8DM32ftb4qwH82PI0P5e+&#xA;crnyxd3F7f20UcU9tNzWFZopVryAKyBaNyXodxiqWWvm3yXpUCyaP5U9TVkqUvtZvf0hHG9PheO1&#xA;igsoWKncCYSL4qRirH9e8xa35g1FtR1m8kvrxgF9SU/ZRfsoiiioi/sqoCjsMVQ1hf3un3sN9Y3E&#xA;lreWziW3uYWKSRupqrKy0II9sVZrbeffLb3Mur6vp9/ca/eKn1q50i7i0RUkjLAyARQXKSNMvEv+&#xA;7SjD9oknFWc+X/S0z8wptQ0y5vbh9X8k3mo2Mmo3Iu7lJ5dMklaMzhIufpyRMoPAdOmKvpWWNbLz&#xA;r5Q8rW8no6b5P0iXV71h0cLbtpltGR2+GWZ/9jir4z/MG7utQ0O28zz3Li6856rqWp3dlyPARWzr&#xA;DaEitCUaW5VTTYbYqzf8pfOeqef/ADX5W8h6ppun3GmJaXFlfXU9pFc3MkMVo4jdZpw7wGJY14ek&#xA;V+MlmrWmKpd/zlF5FuvKnnTSl9aW6sLjSbSC0uZT3sYxbOgX7K7IrlV2+PFXjWKsh8qearfSINR0&#xA;3UtPXVdD1aNVvbMuIZVlhDfV7m3n4yenLC0jU+EhlZlI32VfSP5Sfm35Y0XTtO8gea71PMHlDWEJ&#xA;0TX7xFEUaNxQ6bf20gkETQyKa1kcAMh/uyrYqm/5aQ2c3nL8z/OSIdd82+WLq90vy/oCIF+q2NqZ&#xA;EtUtv2AJRH6Y4CoCnrzxVMfys/KHzXbfkpF5c1GJNJ1q/wBYt9WvjcESsI7e6guF5qleTstso4lh&#xA;7ntirI/zX83flz5cvLq58w391rd3qdn+iU8j28y3Ec3qP6nqfUh9iRivH1WPTYb4q+f/AM1vzBg+&#xA;p6TomraY3l/R7bi8n5aaXPHEojFWWbUb2NAY5Xan+jegWCjkxRmBKqZ/841xRaz50138zNchhsNF&#xA;8o2DC1gt0KW1qDEw4woS3wxW6SFqksWfkxLMSVX0f+UOn30Xk5NY1OMx6x5mnl1zUYya8HvSGhi3&#xA;3pDbiKMA9OOKs1xV2KuxV2KuxV2KuxV2KuIBFDuD1GKvlv8ANzyubv8AInV9HMZ+vflvrbw25bdz&#xA;p8jhran+R9UvYv8AkX7Yq+T8Vdir27/nEXzT+iPzWTSpWpa+YLWW0ZT9n1Yx68TfP92yD/WxV6b/&#xA;AM5FeTl8/wDli71rSk9TzZ5EnlsdbsgKzy2dfUSXiOzR0nSm1GcfaFMVfImKuxV2KuxV6P5V866V&#xA;cW+l299cPo3mPR7WfTtJ14ATWctpceoDaX8FC6LS4lT14qsqsKoePIKvYB+bXnJ9c17Uri28rXV3&#xA;r2nW+mR3UXmXTYYLeKATEsscsxmPNrgtRqEEYq8M/MG40+HS/K3l+1v4NRuNCsJ4b+ezYyWwnnvp&#xA;7jjHKVX1KRypyZarXoTvir1j/nEnRLbSF8zfmbrIMWj6HZyW0Mp/akIE0/Ad2WNVUDvzpirKvzVN&#xA;7+an/OP58xXlmbPzb5PupP0xY8SrxNFRLpKMKgNC0c/0UxV8k4q7FWQeX/N9xptoNIv7aPV/LUly&#xA;t3daNcEorShPTMkMyUmgk4U+KNqNRQ4dRxxV9F/k5dedfOFrer+XvnWbRbbTorSO8srzQ9LlmiUo&#xA;yQRPejg13wWFlErqrEblVJpiqE/O38wfNnkjUE8r+Ytb1TzRdXFpHdipt9GsXSR3SkiaaiXUgBiO&#xA;y3Kb+I2KrwK28963p13e3Pl8RaA18pSQ2Af1UQkFliurh57tA1PipNv3xVJ9O07U9X1KCwsIJL3U&#xA;byQRwQRgvJJI56ADck4q+zfKX5fQ6P5Z0T8n4Sk97dsms/mFcRbpHbcg4tmcEfFcvGkC+MSu1BUY&#xA;q98ACgACgGwA6AYq7FXYq7FXYq7FXYq7FXYq7FXjuhflV5G836z511DzDZT3l0+uXFpIVvr2BGgi&#xA;gh4RtHBNFGQvNuq4qjf+hXPyJ/6ln/p+1D/soxV3/Qrn5E/9Sz/0/ah/2UYqqQf84x/khbzJNB5d&#xA;aKaMho5Uv9RVlI6EMLioOKotP+cevymjuZbqPSrpLmcATzrqmqCRwooodhdVag6VxVAn/nF38iiS&#xA;T5ZqT1P17UP+yjFWv+hXPyJ/6ln/AKftQ/7KMVd/0K5+RP8A1LP/AE/ah/2UYq7/AKFc/In/AKln&#xA;/p+1D/soxV3/AEK5+RP/AFLP/T9qH/ZRirv+hXPyJ/6ln/p+1D/soxV3/Qrn5E/9Sz/0/ah/2UYq&#xA;i4/+cc/yfjtPqcejTpZghhbLqepiPkG5A8Bc8a8hX54qqD/nHv8AKYNOw0q6DXX+9J/SmqVkovH4&#xA;/wDSvi+HbftiqA/6Fc/In/qWf+n7UP8AsoxV3/Qrn5E/9Sz/ANP2of8AZRirv+hXPyJ/6ln/AKft&#xA;Q/7KMVRdl/zjl+T1grrY6LParLT1Fg1PU4w1OnLjcivXFVt9/wA42/k1fyLJfaHNdyKOKvPqWpyM&#xA;FrWgLXJ2xVDf9CufkT/1LP8A0/ah/wBlGKoiz/5xr/Jexm9ay0GW1moV9SHUdSjah6iq3IOKpdqf&#xA;5ZeTfJvmzydqXly1uLK81HXRbX0jX17cCaI6bePSRLiaVG+KFN6V2xV69irsVdirsVdirsVdirsV&#xA;dirsVYV+Wn+9PnL/AMCS7/5MW+Ks1xV2KqLXlsl5FZtIBdTRyTRRftNHCyLIw9lMqA/PFVVmVVLM&#xA;QqqKsx2AA7nFWo5I5Y1kjYPG4DI6kFWUioII6g4quxVAahr2j6deWFnfXcdvdapKYNPic0M0qqXK&#xA;J78RXFW9G1zSdasvrulXUd5aepJD60RqvqQuY5Fr/kspGKrtQ1jS9O4/XrmO3LI8ihzQlIqcyB34&#xA;8hXFUZirsVdiqFutU061iu5bi5jjSxi+sXlWFYogGbm6jcLRG+44qgtN83+WdTvLWysNRhubq9sV&#xA;1W1hjNWksXYIs4/yCzAYqj01CyfUJtPSZWvbeKK4ngH2linaRInPs7QSAf6pxVVjmhkaRI5Fd4W4&#xA;SqpBKMVD8WA6HiwND2IxVfirsVdirsVYV+Yv/Ha8g/8AgRr/AN0rUMVZrirsVdirsVdirsVdirsV&#xA;dirsVYV+Wn+9PnL/AMCS7/5MW+Ks1xV2KsG1vyn511LzFe3v6Ss49PhtJYtDjEcizLJNLZzlLhlN&#xA;DGHsWFV3Ik6fDuqkzflV5pvtZ0u91jWYJ7a2gvhfQRrOFkmvp7iR/TQyUWMx3KrSv7AB5inFVT81&#xA;/lR5m1fQfKen2Go2+ny6BGYp1je6SIOTDwu4PSaNjNEIW4LJ8P7xsVWeY/yc169tNZTTdceB9YuH&#xA;u7uKWacxzN+kXuY4zy9VY0W3cRUVCNt1IxVHeY/yu8wap5a8qWcOrxrrnliOKSLUp1kkD3cAiKSH&#xA;kWdlLQkNyNSp3xVItM/IvzDo8nlaPTNdEdloFxLJLDylQPHJdrcMQo5c3ljUxSVI2O/JSUKqb2H5&#xA;UeYotBvNKudaVmuhd8bmMzFkF3FCqRqJmm+G1MRWL/I41HLkSqhb38sfNIuvLrS+Y4baDSbeawFH&#xA;mja6lnjuI/VcOz8ppvVjkejD4lavOq8FULqf5I+aHttLtdM8xSQW2m3v1qGJ57k8OdrZxySciXd3&#xA;Fxb3EoXkoPrH4hirMNQ8g3jeUNf0rT7wwaprlzdXEl8ZZ/s3F28yxhuRKcYH9IcQVHdWX4Sqkvl/&#xA;8p9T0nRtasri/guZ9W0GPSJdQcSeoJYEniR25Fqp6cyd6/D9OKsV0z8nLidbx9L8z2F1Lc6Xe6dp&#xA;AgdgP0a2oW1zDEzwPzMaNDPDIyfz7b1GKo66/I7zVJ5YGnrq9vNd/V7CGSGV7pbd0s7rUp/QaRG9&#xA;f0Y11ONY96/uhy64q7zB+Rvmm70n6lY6vbtcO9tLc3tw11HJPPDpa2H1iQwMG9SKZPrMW5BZiG8c&#xA;VTib8pfNDeZTqKeZX/R31qL/AEM+rU2L3Bvr2I/Hx9Sa54qGp8MYoN8VehWv+IfVg+tm09Hgv1n0&#xA;hLy58Dz4cjTjzpSvauKpjirsVYV+Yv8Ax2vIP/gRr/3StQxVmuKuxV2KuxV2KuxV2KuxV2KuxVhX&#xA;5af70+cv/Aku/wDkxb4qzXFXYq7FXYq7FXYq8785+VPzD1Hz7pmqaJqrWmhwQxJcQi8mhUMjXBuA&#xA;1oiNFP66SxKrswMZSoxVVuvI3mSXyT5d0OLWL6K+tZIZddvl1G6+sTkW0gmUXJZpSr3DL8NRRfs8&#xA;aDFWN3/kD84x5bh0/T/MkovY7q2u5Lma9l9VmWzjE6GX0nb0jdiRhFstCBsOiqG1Pyn+YfmSPVI4&#xA;Lm6a20jV4Y9FW6uLzTZJ7aK4kuriQStGZQ4SdLaKZVO0ZZW+KuKpv5T8lfm1p/nLRr/WPMH13R7X&#xA;ToLfUoDczOsksdmYpAICio8huqS+u3xFdvbFUPqn5a/mD6d9aaFq76XDqGoalNcXMV9c8xFeTxXl&#xA;vNEpBEcsbxGF1XYq7mprTFXJ5C/Ne58yaLf3+tU09gZNas0vZ2gQzT3UtzbraujRXMbR3EMUTSU9&#xA;MR7DxVT38ufy1fypNaySCN5IbOe1MqSEkCa5WUJxKLy+FAWctUsaUpSir0DFXYq7FXYq7FXYqwr8&#xA;xf8AjteQf/AjX/ulahirNcVdirsVdirsVdirsVdirsVdirCvy0/3p85f+BJd/wDJi3xVmuKuxV2K&#xA;uxV2KuxV2KuxV2KuxV2KuxV2KuxV2KuxV2KuxV2KuxVhX5i/8dryD/4Ea/8AdK1DFWa4q7FXYq7F&#xA;XYq7FXYq7FXYq7FXzt/1kJ/ivzh/gD9GfoL9OXHL67w9X6x6UPP7W/HjxxVFf9Zk/wDaj/5JYq7/&#xA;AKzJ/wC1H/ySxV3/AFmT/wBqP/klirv+syf+1H/ySxV3/WZP/aj/AOSWKu/6zJ/7Uf8AySxV3/WZ&#xA;P/aj/wCSWKu/6zJ/7Uf/ACSxV3/WZP8A2o/+SWKu/wCsyf8AtR/8ksVd/wBZk/8Aaj/5JYq7/rMn&#xA;/tR/8ksVd/1mT/2o/wDklirv+syf+1H/AMksVd/1mT/2o/8Aklirv+syf+1H/wAksVd/1mT/ANqP&#xA;/klirv8ArMn/ALUf/JLFXf8AWZP/AGo/+SWKu/6zJ/7Uf/JLFVG0/wCV/f458k/8rD/Rv6F/TJ+r&#xA;/UuHqfWv0fecK8d+Pp+p+GKvoXFXYq7FXYq7FX//2Q==</xmpGImg:image>
               </rdf:li>
            </rdf:Alt>
         </xmp:Thumbnails>
         <xmp:MetadataDate>2018-08-18T14:32:43+02:00</xmp:MetadataDate>
         <xmp:ModifyDate>2018-08-18T14:32:43+02:00</xmp:ModifyDate>
         <xmpTPg:MaxPageSize rdf:parseType="Resource">
            <stDim:w>1186.900024</stDim:w>
            <stDim:h>946.799988</stDim:h>
            <stDim:unit>Pixels</stDim:unit>
         </xmpTPg:MaxPageSize>
         <xmpTPg:NPages>1</xmpTPg:NPages>
         <xmpTPg:HasVisibleTransparency>True</xmpTPg:HasVisibleTransparency>
         <xmpTPg:HasVisibleOverprint>False</xmpTPg:HasVisibleOverprint>
         <xmpTPg:PlateNames>
            <rdf:Seq>
               <rdf:li>Cyan</rdf:li>
               <rdf:li>Magenta</rdf:li>
               <rdf:li>Yellow</rdf:li>
               <rdf:li>Black</rdf:li>
            </rdf:Seq>
         </xmpTPg:PlateNames>
         <xmpTPg:SwatchGroups>
            <rdf:Seq>
               <rdf:li rdf:parseType="Resource">
                  <xmpG:groupName>Default Swatch Group</xmpG:groupName>
                  <xmpG:groupType>0</xmpG:groupType>
               </rdf:li>
            </rdf:Seq>
         </xmpTPg:SwatchGroups>
      </rdf:Description>
   </rdf:RDF>
</x:xmpmeta>
                                                                                                    
                                                                                                    
                                                                                                    
                                                                                                    
                                                                                                    
                                                                                                    
                                                                                                    
                                                                                                    
                                                                                                    
                                                                                                    
                                                                                                    
                                                                                                    
                                                                                                    
                                                                                                    
                                                                                                    
                                                                                                    
                                                                                                    
                                                                                                    
                                                                                                    
                                                                                                    
                           
<?xpacket end="w"?>
	</metadata>
<title>T_e6_molotow</title>
<g id="Layer_2_1_">
	<g id="Layer_6">
		<g>
			<path d="M1,308.2c0.3-0.7,0.7-1.5,0.8-2.2c0.4-11.3,1-22.7,1.2-34c0.6-29.7,5.3-58.6,18.4-85.3c8.6-17.6,21.2-32.4,36.4-45.3
				c18.3-15.5,40.2-23,61.9-31.2c10.1-3.8,20.3-7.5,30.7-10.2c12.8-3.3,26-3.6,38.9-0.4c8,2,13.5,7.8,17.9,14.6
				c1,1.6,1.7,3.5,2.8,5.9c2.4-3.4,4.3-6.6,6.6-9.4c8.4-10.3,16.3-21,25.5-30.5c9.6-10,21.9-16.6,34.5-22.3
				c10.3-4.7,20.7-9.2,31.4-12.9c10.8-3.8,21.8-6.8,32.9-9.8c8.6-2.4,17.4-4.4,26.2-6.2c20-4.1,38.5,9.1,38.1,31.5
				c0,0.8,0.1,1.6,0.1,3.4c2.8-3.4,5.1-6.2,7.5-9c21-25.1,46.9-42.1,79.4-48.3c8.7-1.7,17.5-4.3,26.1-3.8
				c14.7,0.9,29.4,2.6,43.6,8.5c13,5.5,26.1,10.4,37.3,19.2c6.9,5.4,13.1,11.8,19.7,17.6c12,10.7,22.3,22.9,31,36.5
				c8,12.5,16.2,24.9,24.7,38c0.6-2.7,1.6-4.9,1.7-7.2c0.5-14.1,0.1-28.3,1.3-42.4c1-12,2.6-24.2,6-35.7
				c5.2-17.7,17.2-28.4,36.5-28.9c17.9-0.5,35.6,1,52.7,6.3c8.1,2.5,16.5,4.5,24.3,7.8c10.2,4.2,18.3,11,20.9,22.5
				c0.5,2.1,0.8,4.2,0.8,6.3c0.1,7.7-0.1,15.3,0,23c0.3,14.5,1.3,29,0.8,43.4c-0.7,20.8-2.7,41.5-3.7,62.3
				c-1,21.3-1.8,42.7-1.9,64.1c0,8.4,2,16.8,3,25.3c9.9-1.2,19.5-2.4,28.9-3.5c-1.9-12.7-3.6-25-5.5-37.2c-1-6.6-2.9-13.1-3.2-19.7
				c-0.7-14.3-0.7-28.7-1-43.1c-0.1-3.3-0.6-6.5-0.6-9.8c-0.2-12.8,2.6-25.3,4.9-37.8c3.1-17,10.7-31.9,20-46.1
				c6.4-9.8,12.7-19.7,22.4-26.5c11.3-7.8,24.5-10.9,37.9-12.1c12.7-1.1,25.6-1,38.3-0.2c17.9,1.1,35,5.5,51.7,12.3
				c22.9,9.3,43.7,22,62.7,37.4c21.5,17.5,41.3,37,55.9,61.1c7.7,12.8,16,25.2,23.3,38.2c5.2,9.3,9.5,19.1,13.5,29
				c5.1,12.4,9.8,24.9,14,37.6c6.3,19.1,7.1,38.9,6.7,58.9c-0.1,4.1-1.9,8.2-1.6,12.1c1.1,14.9-5.6,27.6-10.5,40.8
				c-4.7,12.5-11,24.3-20.5,33.7c-8.2,8.2-17.5,15.3-26.7,22.4c-4.8,3.7-10.1,6.8-15.6,9.2c-7.2,3.2-14.7,5.4-22.1,8
				c-4.2,1.5-8.3,3-12.8,4.7c3.3,7.4-0.8,14.3-2,21.6c-2.3,14.5-4.8,29-7.9,43.4c-3.2,15-7,29.9-11,44.8
				c-4.2,15.6-8.8,31.2-13.6,46.7c-3.1,9.8-7,19.4-10.5,29.1c-3,8.3-5.7,16.7-8.7,25c-3.5,9.7-7.1,19.4-10.6,29
				c-3.6,9.8-6.8,19.8-11,29.4c-6,13.8-12.7,27.2-22.6,38.9c-11.7,14-27.1,21-44.1,26.2c-18.2,5.6-36.5,8.9-55.6,7.9
				c-10.9-0.5-20.2-4-25.7-12.7c-4,4.6-7.9,9.7-12.5,14c-2.7,2.5-6.2,4.6-9.7,5.6c-9.2,2.7-18.6,5.1-28.1,6.8
				c-11.9,2.1-23.9,3.7-35.9,4.8c-18.6,1.8-37.1,1.5-54.5-6.4c-9.9-4.5-17.2-12.3-22.4-21.5c-7-12.5-13.1-25.6-19-37.3
				c-5.9,10.4-11.9,22-18.9,33c-6.3,9.8-15.1,17.7-24.3,24.7c-8.7,6.6-17,14.2-26.5,19.3c-12,6.5-24.7,12.2-37.8,16.1
				c-16,4.8-32.7,7.6-49.5,6.8c-26.9-1.4-53.4-5.8-78.2-17.4c-20.3-9.5-38.9-21.6-55.9-36.2c-10.3-8.9-19.8-18.7-29.1-27.5
				c0.9,3.9,2.2,9.1,3.2,14.3c0.9,4.9,1.7,9.8,2.2,14.8c1.4,13.4-5.5,20.2-18.1,22.2c-14.3,2.2-28.7,2.4-43.1,0.5
				c-9.7-1.2-19.6-1.8-29.3-3.3c-16.9-2.6-33.6-6.2-48.1-15.8c-10.4-6.9-16.2-16.7-17.5-29.3c-0.3-3.3-1.8-6.6-2.8-9.8
				c-2.3-7.3-4.8-14.5-6.9-21.8c-3.8-13-7.4-26-11.2-39c-3.6-12.4-6.9-24.8-10.9-37c-3.5-10.8-7.6-21.4-11.8-31.8
				c-5.2-12.9-10.9-25.6-16.5-38.3c-1.9-4.2-4-8.3-6.7-12c-1.3-1.8-4-3.1-6.3-3.4c-11.7-1.6-24.1-0.8-35-4.5
				c-22.3-7.6-39.2-21.8-44.3-46.5c-2.9-14.1-6-28.1-8.4-42.3c-0.9-5.6-0.2-11.5-0.2-17.4c-3.6-0.7-6.7-1.1-9.6-1.8
				c-14.3-3.7-17.5-12.5-19.3-24.8c-1.6-10.8-2.9-21.7-4.1-32.6C5.7,383.9,4.7,374.9,4,366c-0.9-12.1-1.4-24.3-2.1-36.4
				c0-0.5-0.6-1-0.9-1.5C1,321.4,1,314.8,1,308.2z M851.4,740.7c2.2,7.3,3.8,13.1,5.6,18.9c2.5,7.8,8.2,12.3,16,13.9
				c3.5,0.7,7.2,1.1,10.8,1.2c23.1,0.4,45.3-4.8,66.4-13.7c6.9-2.9,13.4-7.8,19-13c11.1-10.4,19-23.3,24.5-37.4
				c9-23.2,17.9-46.5,26.5-69.8c19.5-52.9,34.9-106.9,45.7-162.2c2.7-13.7,6-27.5,4-41.7c-0.1-1,1.9-3.1,3.4-3.5
				c6.4-2.2,13-3.8,19.4-6c49.3-17,78.6-51.3,86.7-102.7c5.8-36.5-0.6-71.5-15.5-105.2c-21.4-48.3-47.4-93.2-88.8-127.5
				c-32.4-26.9-68.1-47-110.7-52.3c-19.4-2.7-38.6-3-57.6,2.3c-11.5,3.2-22.2,7.8-30,17.2c-3.9,4.7-6.8,10.1-10.4,15
				c-14.9,20-21.3,43.2-23.7,67.3c-3.4,34.2-0.6,68.2,6.2,101.9c1.9,9.3,3.6,18.7,5.4,28c-11.4,1.1-22.3,2.1-33.2,3.2
				c-10,1-9.7,1-11.1-9.1c-4.7-32.6-2.4-65.2,0.5-97.8c3.5-38.7,2.3-77.4,1.9-116.2c-0.1-9.3-4.2-16.4-12.1-20.8
				c-6.6-3.6-13.7-6.5-20.9-8.7c-19.7-5.9-39.8-9.7-60.5-8c-13.9,1.2-24.1,8.1-28.5,21.7c-2.4,7.5-4.7,15.3-5.2,23.1
				c-1.7,24-2.6,48.1-3.8,72.1c-0.3,6.5-0.7,13-1,19.9c-1-0.5-1.4-0.5-1.5-0.7c-1.9-4.6-3.4-9.3-5.6-13.7
				c-16.9-34.5-38.2-65.8-66.5-92.1c-21.3-19.8-46.9-31.5-75.1-34.6c-38.7-4.3-73,8.6-101.4,35.2c-10.1,9.4-18.5,20.6-27.7,30.9
				c-1.1,1.2-2.2,2.4-3.7,4c0-7.5,0.4-14.1-0.1-20.7c-1.4-17.8-13.9-27.5-31.7-24.8c-1.8,0.3-3.6,0.5-5.3,1.1
				c-22.4,6.8-45,12.9-67.1,20.8c-17.2,6.2-33.9,14.2-47.6,26.8c-15.8,14.6-27.5,32.4-38,51c-0.7,1.3-1.6,2.6-2.3,3.9
				c-1-2.2-1.1-3.9-1.2-5.7c-1.4-18.2-9.4-26.4-27.5-28.3c-12.2-1.3-24.2,0.1-35.6,4.1c-16.4,5.7-32.4,12.1-48.7,18.1
				c-17.8,6.5-32.1,18.1-45,31.5c-23.1,24-34.3,53.5-37.6,85.9c-3,29.3-5.8,58.9-3.4,88.4c2.6,31.7,6,63.4,9.4,95
				c1.3,11.9,6.1,16.1,17.9,18.4c3.5,0.7,7.1,1.1,10.9,1.8c-2.2,22.7,3.3,43.9,8.8,65.2c6.3,24.2,22.8,37.4,46.8,41.9
				c7.6,1.4,15.4,2.4,23.1,2.2c8.6-0.3,13.1,3.6,17.1,10.6c12.5,22.5,20.8,46.7,29.3,70.8c8.7,25.1,15.9,50.7,23.6,76.1
				c4.5,14.8,9.2,29.6,12.8,44.7c2.8,11.7,8.7,20.5,19.7,24.9c10.2,4.1,20.7,7.9,31.4,10c23.9,4.9,48.2,8.3,72.7,5.6
				c18.8-2,23.3-7.9,18.7-26.2c-5.7-22.7-11.2-45.6-19.1-67.6c-16.9-46.8-35.2-93.2-53-139.7c-2.2-5.7-2.2-7.1,3.6-8.9
				c8.9-2.7,18.1-4.9,27.3-6.3c6.2-0.9,12.6-0.2,19.2-0.2c-1.7,7-3.6,13.6-4.9,20.4c-6.6,35-4.6,70,2.1,104.7
				c4.1,21.2,10.2,42,22.8,59.7c31.4,44.1,72.5,75.3,126,87.4c48.8,11,95.1,5.8,137.1-24.7c28.8-20.8,49.3-46.8,59.3-81
				c0.2-0.7,0.8-1.2,1.6-2.4c0.9,2.3,1.5,4,2.3,5.6c7.1,15.7,13.7,31.8,21.6,47.2c7.9,15.6,21.8,23.4,39,25.3
				c6.5,0.7,13.2,1.4,19.7,1.1c12.8-0.7,25.7-1.6,38.4-3.5c11.9-1.8,23.7-4.4,35.2-7.8c11.1-3.2,18.3-10.8,20.2-22.7
				C849.2,753.8,850.2,748,851.4,740.7z M312.8,636.3c0.5-0.1,1-0.1,1.5-0.2c-2.3-27-1.1-53.7,6-80.2c-13.7-0.8-25.8,1.1-36.8,6.8
				C293.3,587.6,303.1,612,312.8,636.3z"/>
			<path class="st0" d="M851.4,740.7c-1.2,7.3-2.3,13.1-3.2,18.9c-1.9,11.9-9.1,19.5-20.2,22.7c-11.5,3.3-23.3,6-35.2,7.8
				c-12.7,1.9-25.6,2.8-38.4,3.5c-6.5,0.4-13.2-0.3-19.7-1.1c-17.2-1.9-31-9.8-39-25.3c-7.8-15.4-14.4-31.4-21.6-47.2
				c-0.7-1.6-1.3-3.3-2.3-5.6c-0.8,1.2-1.4,1.8-1.6,2.4c-9.9,34.2-30.5,60.1-59.3,81c-42.1,30.5-88.3,35.7-137.1,24.7
				c-53.5-12.1-94.6-43.3-126-87.4c-12.6-17.7-18.7-38.5-22.8-59.7c-6.8-34.8-8.8-69.7-2.1-104.7c1.3-6.8,3.2-13.4,4.9-20.4
				c-6.6,0-13.1-0.8-19.2,0.2c-9.2,1.4-18.4,3.6-27.3,6.3c-5.8,1.8-5.8,3.3-3.6,8.9c17.8,46.5,36.2,92.8,53,139.7
				c7.9,22,13.4,44.9,19.1,67.6c4.6,18.3,0.1,24.2-18.7,26.2c-24.6,2.7-48.8-0.8-72.7-5.6c-10.7-2.2-21.2-5.9-31.4-10
				c-11-4.4-16.9-13.3-19.7-24.9c-3.6-15-8.3-29.8-12.8-44.7c-7.7-25.4-14.8-51-23.6-76.1c-8.4-24.1-16.7-48.3-29.3-70.8
				c-3.9-7.1-8.5-10.9-17.1-10.6c-7.7,0.2-15.5-0.8-23.1-2.2c-24-4.5-40.5-17.7-46.8-41.9c-5.5-21.2-10.9-42.5-8.8-65.2
				c-3.8-0.6-7.4-1.1-10.9-1.8C23,443.1,18.3,438.9,17,427c-3.5-31.6-6.9-63.3-9.4-95C5.2,302.5,8,272.9,11,243.6
				c3.3-32.4,14.5-62,37.6-85.9c12.9-13.4,27.2-24.9,45-31.5c16.2-6,32.3-12.5,48.7-18.1c11.5-4,23.5-5.4,35.6-4.1
				c18.1,1.9,26.1,10.1,27.5,28.3c0.1,1.8,0.2,3.6,1.2,5.7c0.8-1.3,1.6-2.6,2.3-3.9c10.5-18.6,22.2-36.4,38-51
				c13.7-12.7,30.4-20.7,47.6-26.8c22-7.9,44.7-14,67.1-20.8c1.7-0.5,3.5-0.8,5.3-1.1c17.7-2.7,30.2,6.9,31.7,24.8
				c0.5,6.5,0.1,13.1,0.1,20.7c1.5-1.6,2.6-2.7,3.7-4c9.2-10.3,17.7-21.5,27.7-30.9c28.4-26.7,62.7-39.6,101.4-35.2
				c28.3,3.2,53.8,14.9,75.1,34.6c28.4,26.3,49.7,57.6,66.5,92.1c2.2,4.4,3.7,9.1,5.6,13.7c0.1,0.2,0.5,0.3,1.5,0.7
				c0.3-6.8,0.7-13.3,1-19.9c1.2-24,2.1-48.1,3.8-72.1c0.6-7.8,2.8-15.6,5.2-23.1c4.4-13.6,14.6-20.5,28.5-21.7
				c20.7-1.7,40.8,2.1,60.5,8c7.2,2.1,14.3,5.1,20.9,8.7c7.9,4.3,12,11.4,12.1,20.8c0.4,38.7,1.6,77.5-1.9,116.2
				c-2.9,32.5-5.2,65.1-0.5,97.8c1.4,10.1,1.1,10.1,11.1,9.1c10.9-1.1,21.9-2.1,33.2-3.2c-1.8-9.3-3.6-18.6-5.4-28
				c-6.7-33.7-9.5-67.7-6.2-101.9c2.4-24.2,8.8-47.3,23.7-67.3c3.6-4.9,6.5-10.3,10.4-15c7.8-9.4,18.5-14,30-17.2
				c19-5.2,38.2-5,57.5-2.6c42.6,5.3,78.2,25.5,110.7,52.3c41.4,34.3,67.4,79.3,88.8,127.5c14.9,33.7,21.3,68.8,15.5,105.2
				c-8.1,51.4-37.4,85.7-86.7,102.7c-6.4,2.2-13,3.8-19.4,6c-1.4,0.5-3.5,2.5-3.4,3.5c2,14.2-1.3,28-4,41.7
				c-10.8,55.3-26.2,109.4-45.7,162.2c-8.6,23.4-17.5,46.6-26.5,69.8c-5.5,14.1-13.4,27-24.5,37.4c-5.6,5.2-12,10.1-19,13
				c-21.1,8.9-43.3,14.1-66.4,13.7c-3.6-0.1-7.3-0.4-10.8-1.2c-7.8-1.7-13.5-6.1-16-13.9C855.2,753.8,853.6,748,851.4,740.7z
				 M858.7,641.6c-0.6,0-1.2,0.1-1.8,0.1c1.4,19.4,2.2,38.8,4.4,58.1c1.9,16.5,4.9,32.9,8.4,49.2c2.6,11.8,6,13.6,18.2,13.4
				c1,0,2-0.1,3-0.2c14.5-0.3,28.2-4.2,42.1-8.1c18.8-5.3,32.1-17,40.3-34c6.8-14.1,11.8-29,17.5-43.5
				c23.4-59.5,42-120.5,56.1-182.9c3.6-15.9,5.6-32.1,7.5-48.3c1-8.9-0.1-9.4-8.7-11c-4.5-0.9-9.1-1.8-13.7-2.1
				c-31.2-2.3-62.2-2.7-93.2,2.8c-17.1,3-20,5-23.8,22c-0.1,0.6-0.3,1.3-0.3,1.9c-1.2,11.1-2.5,22.3-3.4,33.4
				c-2.5,32.2-4.8,64.5-7.3,96.7c-0.4,4.8-1.1,9.5-2.2,14.1c-0.7,2.8-2.2,5.5-3.8,8c-2.2,3.3-5.4,3.4-6.9-0.1
				c-1.9-4.4-3.7-9.4-3.5-14.1c0.6-20.3,1.9-40.5,2.9-60.8c0.7-14.3,4.4-28.4,1.6-42.9c-1.8-9.2-3-18.6-5.1-27.7
				c-1.4-6.1-3.7-12.5-10.1-15.1c-5.8-2.3-12.1-4.4-18.1-4.4c-19.4,0-38.9,0.8-58.3,2c-5.8,0.3-11.9,1.8-17.1,4.5
				c-11.3,5.9-12.8,11.1-11.9,20.8c1.4,15.6,1.8,31.3,2.3,46.9c0.7,20.8,1.2,41.5,1.7,62.3c0.1,4.4,0.1,8.9-0.1,13.3
				c-0.2,3.1-1.2,6.2-5,6.3c-3.7,0.1-4.9-3-5.4-6c-0.5-3.4-0.4-6.9-0.7-10.3c-2.6-29.1-5.2-58.1-7.9-87.2c-1.4-14.1-2.7-28.3-5-42.2
				C749,442,742,436,727.7,434c-4.2-0.6-8.6-1.2-12.8-1c-17.1,1-34.3,1.8-51.3,3.7c-7.9,0.9-15.8,3.4-23.2,6.4
				c-3.9,1.6-8.8,5.3-9.7,9c-3,12.7-4.7,25.9,2.5,37.9c30.5,51.1,46.5,106.1,44,165.9c-0.6,14.3,1.6,27.7,6.6,41.1
				c8,21.1,15.1,42.6,26.1,62.5c6.5,11.7,16,17.9,29.2,19.1c25.8,2.4,51-1.2,76.1-6.7c12.9-2.8,15.9-6.3,17.4-19.2
				c1.9-16.9,4.1-33.7,5.2-50.7c1.7-28,2.5-56,3.8-84c0.3-5.6,0.9-11.2,1.8-16.7c0.6-3.5,2.9-6.1,6.7-6.3c3.9-0.2,6.2,2.3,7.1,5.7
				c0.9,3.1,1.4,6.5,1.5,9.7C858.8,620.9,858.7,631.2,858.7,641.6z M677.3,250.6c-0.2-32.5-3-57.8-10.3-82.6
				c-8.1-27.6-22.4-51.9-38.8-75.3c-11-15.6-23.6-29.7-37.7-42.4c-20.6-18.6-46.5-23.8-72.7-28c-0.2,0-0.3,0-0.5,0
				c-29.8,2.1-56.9,11.4-77.6,33.6c-15.4,16.5-28.9,34.7-42.9,52.4c-3.4,4.3-6.2,9.6-7.3,14.9c-11.2,55-22,110-32.7,165
				c-1,5.2-1.2,10.9-0.4,16.1c4.1,27.1,16.7,50.4,32,72.7c13.9,20.3,30.9,36.8,52.8,48.1c4.1,2.1,7.8,2.3,12.2,0.8
				c19.2-6.4,38.9-10.5,59.2-10.5c21.8,0,43.2,2.4,62.9,12.8c1.3,0.7,3.3,0.8,4.7,0.4c25.5-6.9,46.8-20.5,60.5-43.3
				C666.6,342,674.7,293.5,677.3,250.6z M334.4,620.2c-0.6,0.1-1.1,0.1-1.7,0.2c2.7,19.6,4.5,39.3,8.3,58.7
				c5.1,26.3,16.1,50,34.8,70c12.7,13.6,26.7,25.5,42.1,35.8c40.9,27.1,85.2,35.4,133.2,25.8c22.7-4.6,41.6-16.1,59.4-30.2
				c23.8-18.8,39.2-43,45.8-72.5c6.7-29.8,6.7-60.1,3.4-90.1c-5.5-50.2-22.5-96.4-53-137.2c-10.3-13.7-22.1-25.8-36.1-35.7
				c-16.7-11.9-36.5-14.7-56-15.4c-26.1-0.9-51.2,5.7-74.5,17.2c-24.8,12.2-45.8,29.8-65,49.6c-10.4,10.7-19.6,22.5-24.9,36.6
				C339.5,560.9,332,589.6,334.4,620.2z M21.7,329.9c0.3,6.6,0.4,13.2,1.1,19.8c2.5,24.8,5.3,49.5,7.9,74.3c0.4,3.5,1.5,6.7,5.7,6.9
				c8.9,0.5,17.8,1.5,26.6,0.8c15.8-1.3,31.4-3.9,47.1-5.6c9.4-1,11.2-1.9,10.7-11.4c-0.7-13.8-1.6-27.7-3.6-41.4
				c-4.1-27.6-9.1-55-13.7-82.5c-1.1-6.4,1.6-11.1,6.6-12c4.9-0.9,8.4,2.3,9.6,8.9c1.4,8.1,2.6,16.3,4,24.4
				c4.9,27.7,7.8,55.9,17,82.8c2.5,7.3,5.6,14.4,8.8,21.4c2,4.4,5.7,6.3,10.8,6c9.4-0.5,18.8-0.3,28.2-0.4
				c18.9-0.2,18.7-0.3,26.5-17.7c11.3-25.1,18.3-51.5,24.8-78.2c5.6-23.1,12-46,18.1-68.9c1.9-7,6.7-10.6,11.9-9.2
				c4.8,1.3,6.1,5,4,12.8c-6.5,24.7-12.9,49.5-19.8,74.1c-5,17.9-10.4,35.8-16.4,53.4c-3.4,9.7-1.8,18.8,0.6,28.1
				c0.4,1.6,2.7,3.6,4.3,3.9c15.2,2.1,30.3,3.3,45.7,0c17.7-3.9,28.5-13.4,31.8-31.3c0.2-1.3,0.6-2.6,0.9-3.9
				c5.7-31.3,11.3-62.6,17.3-93.9c4.5-23.6,9.6-47.2,14.4-70.7c9-44.4,18.2-88.8,26.9-133.2c1.6-8.2,2.4-16.7,2.1-25
				c-0.5-12.3-6.6-16.8-18.5-13.4c-22.5,6.4-45,12.9-67.2,20.4c-24.7,8.4-45.4,22.7-59.2,45.5c-10.3,17.1-20.5,34.2-29.9,51.8
				c-3.4,6.2-5,13.5-6.5,20.5c-3.9,17.5-7.3,35.2-11.2,52.7c-0.7,3.2-1.8,6.5-3.6,9.1c-1,1.5-4,2.6-5.8,2.2
				c-1.4-0.3-3.1-2.8-3.5-4.6c-0.5-2.5-0.1-5.2,0.3-7.9c3.7-31.1,7.5-62.2,11-93.3c0.6-5.2,0-10.6-0.8-15.7c-1-6.2-4.9-10-11.4-10.5
				c-4.6-0.3-9.2-0.7-13.8-0.4c-16.7,1.3-31.9,8.3-47.3,14c-11.7,4.3-23.6,9.1-34,15.9c-26.9,17.5-43.7,42.6-50.6,74
				C22,258,21.7,294,21.7,329.9z M1167.2,305.2c0.2-27.7-3.9-50.7-13-72.6c-4.7-11.4-9.9-22.7-15.3-33.8
				c-22.5-46.6-53.2-86.3-96.5-115.5c-33-22.3-68.6-35.5-109.1-32.3c-1.5,0.1-2.9,0.3-4.4,0.5c-12.4,1.3-22.5,7.9-32.8,14.3
				c-15.5,9.7-26.4,23.1-31.8,40.3c-4,12.8-7.1,26.2-8.4,39.6c-3.9,42.2,2.5,83.5,12.3,124.5c0.8,3.2,2.7,3.9,5.5,4.5
				c9.3,2.1,18.8,3.9,27.7,7c28.4,10,39.4,24.7,39.1,53.6c-0.2,19.9-1.6,39.9-2.9,59.8c-0.7,10.9-1.2,11.1,8.7,15.7
				c5.3,2.5,11,5.4,16.6,5.6c17.9,0.6,35.9-0.3,53.9,0.1c10.2,0.3,20.7,0.7,30.4,3.5c11.8,3.5,22.3,1.6,33.2-2
				c2.5-0.8,5.1-1.5,7.5-2.4c27.2-9.7,49.5-25.8,63.5-51.4C1162.4,344.8,1167.9,323.7,1167.2,305.2z M216.2,434.9
				c0,0.8-0.1,1.5-0.1,2.3c-20.1,0-40.2-0.5-60.3,0.1c-19.3,0.6-38.5,2.1-57.8,3.9c-10.8,1-21.5,3-32,5.3c-6.8,1.5-8.6,5.1-8.6,11.9
				c-0.2,16.9,4.5,32.9,7.9,49.2c4.3,20.5,17.4,31.5,37.7,34.4c7,1,14.1,1.8,21.2,1.6c12.7-0.4,21.6,5.3,27.3,16.1
				c5.3,9.9,10.9,19.7,15,30.1c9.3,24,18.4,48.1,26.4,72.5c9.9,30.2,19.8,60.6,27.4,91.4c3.5,14.5,10.9,21.2,24,24.3
				c2.4,0.6,4.8,1.3,7.2,1.7c13,2,26,4.6,39.1,5.6c12.3,0.9,24.7,0.6,37,0c7.9-0.4,8.9-2.5,7.9-10.3c-0.1-1-0.3-2-0.6-2.9
				c-6.2-22.1-11.5-44.4-18.9-66.1c-10.1-29.8-21.7-59.1-32.9-88.6c-6.6-17.3-13.6-34.4-20.3-51.6c-3.8-9.8-1.7-16.1,7.5-21.1
				c4.7-2.5,9.9-5.1,15.2-5.8c14.3-1.9,28.8-2.7,43.2-4.2c1.9-0.2,4.6-1.3,5.4-2.8c3-5.5,5.6-11.2,8.1-16.9c0.7-1.7,1.1-3.9,0.8-5.7
				c-3.1-15.9-6.2-31.7-9.6-47.5c-1.9-8.8-7.9-14.5-16.4-17c-6.6-2-13.4-3.8-20.2-4.4C269.8,438.4,243,436.7,216.2,434.9z
				 M832.1,427.9c18.9-0.7,45.3-1.5,71.6-2.6c10.2-0.4,17.1-6.2,18.8-15.8c1.2-6.6,2.3-13.4,2.5-20.1c0.4-17.8,0.7-35.6,0.2-53.4
				c-0.4-16.3-5.1-30.4-21.9-37.7c-20.1-8.7-41-11.9-62.7-10.8c-7.1,0.4-14.1,1.5-21.1,2.3c-18.8,2.3-23.2-1.5-26-20.4
				c-5.1-35.1-3-70.1,0.4-105.1c3.6-37.5,2.2-75.1,3.2-112.7c0.2-6.3-2.9-10.5-8.5-12.6c-6.3-2.4-12.7-4.7-19.2-6.4
				c-15.4-4-31-6.4-47-5.6c-8.4,0.5-14.6,4.4-17.1,12.6c-2,6.6-4,13.4-4.6,20.2c-1.2,14.1-1.8,28.3-2.2,42.5
				c-0.7,24.7-2.4,49.5-1.3,74.2c1.7,36.6,5.5,73,8.3,109.5c2.3,31.1,4.3,62.2,6.6,93.3c0.8,10.9,2.9,21.6,8.5,31.3
				c2.6,4.5,5.8,7.3,11.2,7.9c4.1,0.5,8,1.8,12,2.7c7.5,1.6,15,4.1,22.6,4.5C785.8,426.9,805.2,427.1,832.1,427.9z M428.1,436.1
				c-39.8-22-61.7-57.8-80.7-96.9c-0.5,1.9-0.8,3.1-1.1,4.4c-2.9,14.7-5.2,29.6-8.7,44.1c-3.8,15.6-8.7,31-24.2,39.7
				c-0.2,0.1-0.1,0.6-0.1,1.1c4,1.4,8.1,2.6,11.9,4.3c15.2,6.7,22.3,19.2,25.3,34.8c1.6,8.5,3.7,17,5.9,26.7
				C377.3,470.7,401.6,452.9,428.1,436.1z M689.7,302.3c-0.8,0.4-1.2,0.5-1.3,0.7c-0.4,1.4-0.7,2.9-1.1,4.3
				c-5.1,17.6-9.3,35.4-15.4,52.7c-13.3,37.8-37.6,65.8-76,80.2c-0.7,0.3-1.3,0.8-0.9,0.5c5.3,5.5,10.5,10.9,15.7,16.3
				c0,0.1,0.3-0.3,0.4-0.8c1.8-17.1,13.1-25.1,28.1-30.2c19-6.5,38.8-7.3,58.5-8.7c2.2-0.2,4.4-0.5,7.3-0.8
				c-7-12.7-8.8-25.9-9.9-39.2c-1.2-16-2.4-31.9-3.5-47.9C691,320.5,690.4,311.5,689.7,302.3z M903.8,438c-4.9,0.5-9,0.8-14,1.3
				c3.5,4.3,6.3,7.7,9.5,11.6C900.9,446.5,902.2,442.7,903.8,438z M777,441.9c-0.1-0.4-0.2-0.7-0.3-1.1c-3.7,0-7.4,0-11.7,0
				c0.9,2.6,1.6,4.8,2.5,7.6C771,446,774,444,777,441.9z"/>
			<path d="M858.7,641.6c0-10.4,0.1-20.8-0.1-31.2c-0.1-3.3-0.6-6.6-1.5-9.7c-0.9-3.4-3.3-5.9-7.1-5.7s-6.1,2.7-6.7,6.3
				c-0.9,5.5-1.5,11.1-1.8,16.7c-1.3,28-2.1,56-3.8,84c-1,16.9-3.2,33.8-5.2,50.7c-1.5,12.9-4.5,16.3-17.4,19.2
				c-25.1,5.5-50.3,9.1-76.1,6.7c-13.2-1.2-22.7-7.4-29.2-19.1c-11-19.9-18.1-41.3-26.1-62.5c-5.1-13.4-7.2-26.8-6.6-41.1
				c2.5-59.8-13.4-114.8-44-165.9c-7.2-12-5.5-25.2-2.5-37.9c0.9-3.6,5.8-7.4,9.7-9c7.4-3,15.3-5.6,23.2-6.4
				c17-1.9,34.2-2.7,51.3-3.7c4.2-0.2,8.6,0.4,12.8,1c14.3,2,21.3,8,23.7,22.4c2.3,14,3.6,28.1,5,42.2c2.8,29,5.3,58.1,7.9,87.2
				c0.3,3.4,0.2,6.9,0.7,10.3c0.4,3,1.6,6.1,5.4,6c3.8-0.1,4.8-3.2,5-6.3c0.2-4.4,0.2-8.9,0.1-13.3c-0.5-20.8-1-41.5-1.7-62.3
				c-0.5-15.7-0.9-31.3-2.3-46.9c-0.9-9.7,0.6-14.9,11.9-20.8c5.1-2.7,11.3-4.1,17.1-4.5c19.4-1.1,38.9-1.9,58.3-2
				c6.1,0,12.4,2.2,18.1,4.4c6.4,2.5,8.7,9,10.1,15.1c2.1,9.1,3.3,18.5,5.1,27.7c2.8,14.4-0.9,28.6-1.6,42.9
				c-1,20.3-2.3,40.5-2.9,60.8c-0.1,4.7,1.6,9.7,3.5,14.1c1.5,3.6,4.8,3.4,6.9,0.1c1.6-2.4,3.1-5.2,3.8-8c1.1-4.6,1.9-9.4,2.2-14.1
				c2.5-32.2,4.8-64.5,7.3-96.7c0.9-11.2,2.2-22.3,3.4-33.4c0.1-0.7,0.2-1.3,0.3-1.9c3.8-16.9,6.7-18.9,23.8-22
				c31-5.5,62.1-5.1,93.2-2.8c4.6,0.3,9.2,1.2,13.7,2.1c8.6,1.7,9.7,2.2,8.7,11c-1.8,16.2-3.9,32.5-7.5,48.3
				c-14.1,62.3-32.7,123.4-56.1,182.9C985,691.1,980,706,973.2,720c-8.2,17-21.4,28.7-40.3,34c-13.9,3.9-27.6,7.8-42.1,8.1
				c-1,0-2,0.1-3,0.2c-12.2,0.3-15.7-1.6-18.2-13.4c-3.5-16.2-6.5-32.7-8.4-49.2c-2.2-19.3-3-38.7-4.4-58.1
				C857.4,641.7,858.1,641.7,858.7,641.6z"/>
			<path d="M677.3,250.6c-2.7,42.9-10.7,91.4-36.8,134.9c-13.7,22.8-34.9,36.4-60.5,43.3c-1.5,0.4-3.4,0.3-4.7-0.4
				c-19.7-10.4-41.1-12.8-62.9-12.8c-20.3,0-40,4.2-59.2,10.5c-4.4,1.5-8,1.3-12.2-0.8c-21.9-11.3-38.9-27.8-52.8-48.1
				c-15.3-22.3-27.9-45.6-32-72.7c-0.8-5.3-0.6-10.9,0.4-16.1c10.7-55,21.5-110.1,32.7-165c1.1-5.3,3.9-10.6,7.3-14.9
				c13.9-17.8,27.5-36,42.9-52.4c20.7-22.1,47.8-31.5,77.6-33.6c0.2,0,0.3,0,0.5,0c26.3,4.1,52.2,9.4,72.7,28
				C604.4,63.2,617,77.3,628,92.9c16.4,23.3,30.7,47.7,38.8,75.3C674.3,192.8,677.1,218.1,677.3,250.6z M492.4,255.7
				c0.4,2.9,0.4,6.1,1.2,9.1c2.1,8.1,10.8,10.9,17,5.4c2.3-2,4.3-4.8,5.3-7.6c2.4-7,4.9-14.1,5.8-21.4c2.7-22.1,4.7-44.3,6.7-66.4
				c0.2-2-1.4-5-3.1-6c-1.7-1-5.4-1-6.7,0.2c-3.2,2.9-6.1,6.5-7.9,10.3c-2.6,5.7-3.9,11.9-6.1,17.7
				C497.5,215.9,494.3,235.5,492.4,255.7z"/>
			<path d="M334.4,620.2c-2.4-30.6,5.1-59.3,15.8-87.5c5.3-14.1,14.5-25.8,24.9-36.6c19.2-19.8,40.2-37.4,65-49.6
				c23.4-11.5,48.5-18.1,74.5-17.2c19.5,0.7,39.3,3.5,56,15.4c13.9,9.9,25.8,22,36.1,35.7c30.5,40.8,47.5,87,53,137.2
				c3.3,30,3.3,60.3-3.4,90.1c-6.6,29.6-22,53.7-45.8,72.5c-17.8,14.1-36.7,25.7-59.4,30.2c-48,9.6-92.4,1.3-133.2-25.8
				c-15.5-10.3-29.4-22.1-42.1-35.8c-18.6-20-29.6-43.7-34.8-70c-3.8-19.4-5.6-39.1-8.3-58.7C333.2,620.3,333.8,620.2,334.4,620.2z
				 M527,637.1c-1-9.5-1.9-20.2-3.5-30.7c-0.8-5.3-2.9-10.4-4.6-15.5c-1.1-3.3-3.5-4.7-6.9-4.1c-4.7,0.9-11.5,8.3-12,13.1
				c-1.1,10.8-2.3,21.6-3,32.5c-0.7,10.1,0.3,20.1,5.8,29.1c2.9,4.8,7,8.1,13,7c6-1,8.4-5.6,9.1-11
				C525.9,651.1,526.3,644.7,527,637.1z"/>
			<path d="M21.7,329.9c0-36,0.2-71.9,8-107.3c6.9-31.4,23.7-56.5,50.6-74c10.4-6.8,22.3-11.5,34-15.9c15.4-5.7,30.6-12.7,47.3-14
				c4.6-0.4,9.2,0.1,13.8,0.4c6.5,0.4,10.4,4.3,11.4,10.5c0.8,5.2,1.4,10.6,0.8,15.7c-3.5,31.1-7.3,62.2-11,93.3
				c-0.3,2.6-0.8,5.4-0.3,7.9c0.4,1.8,2,4.3,3.5,4.6c1.8,0.3,4.8-0.8,5.8-2.2c1.8-2.6,2.9-5.9,3.6-9.1c3.8-17.6,7.2-35.2,11.2-52.7
				c1.6-7,3.2-14.3,6.5-20.5c9.5-17.5,19.6-34.7,29.9-51.8C250.6,92,271.3,77.7,296,69.3c22.2-7.5,44.7-14,67.2-20.4
				c11.9-3.4,18,1.1,18.5,13.4c0.3,8.3-0.5,16.9-2.1,25c-8.7,44.4-17.9,88.8-26.9,133.2c-4.8,23.6-9.9,47.1-14.4,70.7
				c-6,31.3-11.5,62.6-17.3,93.9c-0.2,1.3-0.6,2.6-0.9,3.9c-3.2,17.9-14.1,27.4-31.8,31.3c-15.4,3.4-30.5,2.1-45.7,0
				c-1.6-0.2-3.9-2.3-4.3-3.9c-2.5-9.2-4-18.3-0.6-28.1c6.1-17.6,11.4-35.5,16.4-53.4c6.9-24.6,13.3-49.4,19.8-74.1
				c2.1-7.9,0.7-11.6-4-12.8c-5.2-1.4-10,2.1-11.9,9.2c-6.2,22.9-12.5,45.8-18.1,68.9c-6.5,26.6-13.5,53-24.8,78.2
				c-7.8,17.4-7.6,17.5-26.5,17.7c-9.4,0.1-18.8,0-28.2,0.4c-5.2,0.3-8.8-1.6-10.8-6c-3.2-7-6.3-14.1-8.8-21.4
				c-9.2-26.8-12.1-55-17-82.8c-1.4-8.1-2.6-16.3-4-24.4c-1.2-6.7-4.7-9.8-9.6-8.9c-5,0.9-7.6,5.6-6.6,12
				c4.6,27.5,9.6,54.9,13.7,82.5c2,13.7,3,27.5,3.6,41.4c0.4,9.5-1.3,10.4-10.7,11.4c-15.7,1.7-31.4,4.3-47.1,5.6
				c-8.8,0.7-17.7-0.3-26.6-0.8c-4.1-0.2-5.3-3.4-5.7-6.9c-2.7-24.8-5.4-49.5-7.9-74.3C22.1,343.1,22.1,336.5,21.7,329.9z"/>
			<path d="M1167.2,305.2c0.7,18.5-4.8,39.6-15.5,59.2c-14.1,25.6-36.4,41.7-63.5,51.4c-2.5,0.9-5,1.6-7.5,2.4
				c-10.9,3.6-21.5,5.5-33.2,2c-9.6-2.9-20.2-3.3-30.4-3.5c-18-0.5-36,0.5-53.9-0.1c-5.6-0.2-11.3-3.1-16.6-5.6
				c-10-4.6-9.4-4.8-8.7-15.7c1.3-19.9,2.7-39.8,2.9-59.8c0.3-28.9-10.7-43.6-39.1-53.6c-9-3.1-18.4-4.9-27.7-7
				c-2.8-0.6-4.7-1.3-5.5-4.5c-9.9-40.9-16.3-82.3-12.3-124.5c1.2-13.4,4.4-26.7,8.4-39.6c5.3-17.2,16.3-30.7,31.8-40.3
				c10.2-6.4,20.3-13,32.8-14.3c1.5-0.2,2.9-0.3,4.4-0.5c40.5-3.2,76.1,10.1,109.1,32.3c43.4,29.2,74,68.9,96.5,115.5
				c5.4,11.1,10.5,22.4,15.3,33.8C1163.3,254.5,1167.4,277.4,1167.2,305.2z M1027.7,262.9c-0.2-0.7-0.3-2-0.7-3.3
				c-3.9-12.2-7.7-24.5-11.8-36.7c-2-5.9-6.6-8.7-11.6-7.4c-5.3,1.3-7.9,5.5-6.1,12c3.4,12.7,7.3,25.3,11.1,37.9
				c0.4,1.4,1.2,2.8,2.1,3.9c2.9,3.4,6.6,4.3,10.7,2.6C1025.1,270.4,1027.9,268,1027.7,262.9z"/>
			<path d="M216.2,434.9c26.8,1.8,53.6,3.4,80.4,5.6c6.8,0.6,13.6,2.4,20.2,4.4c8.5,2.5,14.4,8.1,16.4,17
				c3.4,15.8,6.5,31.6,9.6,47.5c0.3,1.8-0.1,4-0.8,5.7c-2.5,5.7-5,11.5-8.1,16.9c-0.8,1.5-3.5,2.6-5.4,2.8
				c-14.4,1.5-28.9,2.3-43.2,4.2c-5.2,0.7-10.4,3.2-15.2,5.8c-9.3,5-11.3,11.3-7.5,21.1c6.7,17.2,13.7,34.3,20.3,51.6
				c11.2,29.4,22.8,58.8,32.9,88.6c7.4,21.7,12.7,44,18.9,66.1c0.3,0.9,0.4,1.9,0.6,2.9c1.1,7.8,0,9.9-7.9,10.3
				c-12.3,0.6-24.7,1-37,0c-13.1-1-26.1-3.6-39.1-5.6c-2.4-0.4-4.8-1.1-7.2-1.7c-13.1-3.1-20.4-9.8-24-24.3
				c-7.5-30.9-17.5-61.2-27.4-91.4c-8-24.4-17.1-48.5-26.4-72.5c-4-10.4-9.6-20.2-15-30.1c-5.8-10.8-14.6-16.4-27.3-16.1
				c-7,0.2-14.2-0.6-21.2-1.6c-20.2-2.9-33.3-13.8-37.7-34.4c-3.4-16.3-8.1-32.4-7.9-49.2c0.1-6.9,1.9-10.4,8.6-11.9
				c10.6-2.3,21.3-4.3,32-5.3c19.2-1.8,38.5-3.2,57.8-3.9c20.1-0.6,40.2-0.1,60.3-0.1C216.2,436.4,216.2,435.7,216.2,434.9z"/>
			<path d="M832.1,427.9c-26.9-0.8-46.4-1.1-65.8-2.2c-7.6-0.5-15.1-2.9-22.6-4.5c-4-0.9-8-2.2-12-2.7c-5.3-0.6-8.6-3.4-11.2-7.9
				c-5.6-9.7-7.7-20.3-8.5-31.3c-2.3-31.1-4.3-62.2-6.6-93.3c-2.7-36.5-6.6-73-8.3-109.5c-1.1-24.7,0.6-49.4,1.3-74.2
				c0.4-14.2,0.9-28.4,2.2-42.5c0.6-6.8,2.6-13.6,4.6-20.2c2.5-8.2,8.7-12.2,17.1-12.6c16-0.9,31.6,1.5,47,5.6
				c6.5,1.7,12.9,4,19.2,6.4c5.6,2.1,8.6,6.3,8.5,12.6c-1,37.6,0.4,75.2-3.2,112.7c-3.3,35-5.5,70-0.4,105.1
				c2.7,18.9,7.1,22.7,26,20.4c7-0.8,14.1-2,21.1-2.3c21.7-1.1,42.6,2.1,62.7,10.8c16.8,7.3,21.5,21.4,21.9,37.7
				c0.4,17.8,0.2,35.6-0.2,53.4c-0.2,6.7-1.3,13.5-2.5,20.1c-1.7,9.6-8.6,15.4-18.8,15.8C877.4,426.4,851,427.3,832.1,427.9z"/>
			<path d="M428.1,436.1c-26.5,16.8-50.7,34.6-71.6,58.3c-2.2-9.7-4.3-18.2-5.9-26.7c-3-15.7-10.2-28.2-25.3-34.8
				c-3.9-1.7-8-2.9-11.9-4.3c0.1-0.5,0-1,0.1-1.1c15.4-8.7,20.4-24.1,24.2-39.7c3.5-14.6,5.9-29.4,8.7-44.1c0.2-1.2,0.6-2.4,1.1-4.4
				C366.4,378.3,388.3,414.1,428.1,436.1z M415.9,435.4C385.5,418,368,388.8,350,360.2c-5.6,22.8-7.3,46.7-23.4,65
				c0.4,0.8,0.4,1,0.5,1.1c0.4,0.3,0.7,0.7,1.2,0.9c15.5,8.5,25.4,21.1,28.2,38.9c0.8,4.9,2.2,9.7,3.1,13.6
				C378.4,464.8,396.9,450.3,415.9,435.4z"/>
			<path d="M689.7,302.3c0.6,9.2,1.3,18.1,1.9,27.1c1.2,16,2.3,31.9,3.5,47.9c1,13.4,2.9,26.5,9.9,39.2c-2.9,0.3-5.1,0.6-7.3,0.8
				c-19.7,1.4-39.5,2.2-58.5,8.7c-15,5.1-26.2,13.1-28.1,30.2c0,0.4-0.4,0.9-0.4,0.8c-5.2-5.4-10.4-10.8-15.7-16.3
				c-0.4,0.3,0.2-0.3,0.9-0.5c38.4-14.4,62.6-42.4,76-80.2c6.1-17.2,10.3-35.1,15.4-52.7c0.4-1.4,0.7-2.9,1.1-4.3
				C688.5,302.8,689,302.7,689.7,302.3z M685.4,340.2c-9.1,28.6-19.9,56.1-41.1,76.7c16.7-1.9,33.9-3.9,51.3-5.9
				C686.9,388.7,689.8,364.1,685.4,340.2z"/>
			<path d="M903.8,438c-1.6,4.6-2.9,8.4-4.4,12.9c-3.2-3.9-6.1-7.4-9.5-11.6C894.8,438.9,898.9,438.5,903.8,438z"/>
			<path d="M777,441.9c-3,2.1-6,4.1-9.5,6.6c-0.9-2.8-1.7-5-2.5-7.6c4.3,0,8,0,11.7,0C776.8,441.2,776.9,441.5,777,441.9z"/>
			<path class="st0" d="M492.4,255.7c1.9-20.2,5.2-39.8,12.2-58.7c2.2-5.9,3.5-12.1,6.1-17.7c1.8-3.9,4.7-7.4,7.9-10.3
				c1.3-1.2,5-1.2,6.7-0.2s3.2,4,3.1,6c-2,22.2-4,44.3-6.7,66.4c-0.9,7.3-3.4,14.4-5.8,21.4c-0.9,2.8-3,5.6-5.3,7.6
				c-6.3,5.6-15,2.8-17-5.4C492.8,261.8,492.7,258.6,492.4,255.7z"/>
			<path class="st0" d="M527,637.1c-0.7,7.6-1.1,14-2,20.4c-0.8,5.3-3.2,9.9-9.1,11c-6,1-10.1-2.2-13-7c-5.5-9-6.4-19-5.8-29.1
				c0.7-10.8,1.9-21.6,3-32.5c0.5-4.8,7.3-12.2,12-13.1c3.4-0.6,5.8,0.8,6.9,4.1c1.7,5.1,3.8,10.2,4.6,15.5
				C525.1,616.9,525.9,627.6,527,637.1z"/>
			<path class="st0" d="M1027.7,262.9c0.2,5.2-2.6,7.5-6.3,9c-4.1,1.7-7.8,0.7-10.7-2.6c-0.9-1.1-1.7-2.5-2.1-3.9
				c-3.8-12.6-7.7-25.2-11.1-37.9c-1.7-6.5,0.8-10.7,6.1-12c5-1.2,9.7,1.5,11.6,7.4c4,12.2,7.9,24.5,11.8,36.7
				C1027.4,260.9,1027.6,262.2,1027.7,262.9z"/>
		</g>
		
			<image style="overflow:visible;enable-background:new    ;" width="1007" height="666" xlink:href="../../../../01 wip/Artwork_Finales/e6_molotow_02.png"  transform="matrix(1 0 0 1 89.97 70.65)">
		</image>
	</g>
	<g id="T_e1_jung">
		<rect x="196.3" y="749.7" class="st0" width="794.5" height="194.5"/>
		<path d="M988.2,752.2v189.5H198.8V752.2H988.2 M993.2,747.2H193.7v199.6h799.5V747.2L993.2,747.2z"/>
		<g class="st1">
			<path d="M306.3,829.8h3.3c0,0.3,0,0.6,0,0.9c0,3.7,0.9,5.4,3.5,5.4c1.4,0,2.3-0.3,3-1.2c0.7-0.9,1-2.4,1-4.8v-18h3.3v18.5
				c0,5.8-2.5,8.7-7.4,8.7c-2.3,0-4-0.6-5.3-2.1c-1.3-1.4-1.6-3.7-1.6-5.8C306.2,831,306.2,830.4,306.3,829.8z"/>
		</g>
		<g class="st1">
			<path d="M327.7,833.8v-13.1h3.1v12.5c0,2.2,1.1,3.4,3.3,3.4c3.3,0,5.4-2.8,5.4-6.7v-9.3h3.1v18.1h-3.1v-3c-1,2.2-3.1,3.6-6,3.6
				C330,839.4,327.7,837.3,327.7,833.8z"/>
		</g>
		<g class="st1">
			<path d="M348.7,830.8h3c0,4,1.7,6.1,5.2,6.1c2.1,0,3.8-1.2,3.8-3c0-1.1-0.4-1.8-1.2-2.3c-0.8-0.5-1.3-0.6-2.6-1
				c-0.6-0.2-1.1-0.3-1.5-0.4c-3.2-1.1-5.5-1.8-5.7-4.8c0-0.1,0-0.3,0-0.4c0-3,2.7-4.9,6.2-4.9c5.1,0,7.6,2.3,7.6,7h-3
				c0-1.8-0.4-3-1.2-3.6s-1.8-0.9-3.3-0.9c-1.9,0-3.3,0.8-3.3,2.2c0,0.5,0.1,1,0.4,1.3s0.5,0.5,1.1,0.8c0.6,0.3,0.7,0.3,1.6,0.6
				c0.4,0.1,0.7,0.2,0.9,0.3c3.6,1.2,5.4,1.5,6.4,3.7c0.2,0.5,0.4,1.1,0.4,1.8c0,3.9-2.4,6.1-6.9,6.1c-2,0-3.8-0.5-4.9-1.3
				c-1.1-0.7-2-1.9-2.4-2.9c-0.4-1-0.7-2.3-0.7-3.2c0-0.3,0-0.6,0-0.9V830.8z"/>
		</g>
		<g class="st1">
			<path d="M370.6,833.3v-10.1h-2.9v-2.5h2.9v-5.3h3.1v5.3h4.3v2.5h-4.3v9.6c0,0.7,0.1,1.3,0.3,1.7c0.1,0.4,0.4,0.8,0.6,1
				c0.3,0.2,0.6,0.4,1,0.4c0.3,0.1,0.7,0.1,1.1,0.1h0.6h1.5v2.8h-1.1c-1.4,0-2.2,0-3.3-0.2c-1.1-0.2-1.7-0.5-2.3-1
				c-0.7-0.6-1-1.3-1.2-2.4C370.6,834.6,370.6,834,370.6,833.3z"/>
		</g>
		<g class="st1">
			<path d="M390.7,829.6c0-5.7,3-9.4,8.3-9.5h0.1c5.3,0,8.3,3.7,8.3,9.5c0,6-3,9.8-8.3,9.8S390.7,835.6,390.7,829.6z M393.9,829.8
				c0,4.5,1.9,6.8,5.1,6.8s5.1-2.2,5.1-6.8c0-4.6-1.8-6.8-5.1-6.8S393.9,825.2,393.9,829.8z"/>
		</g>
		<g class="st1">
			<path d="M416.8,829.6v9.3h-3.1v-18.1h3.1v3c0.9-2.1,2.9-3.5,5.9-3.5c3.5,0,5.9,2.2,5.9,5.6v13.1h-3.1v-12.5
				c0-2.2-1.1-3.5-3.3-3.5C418.8,822.9,416.8,825.5,416.8,829.6z"/>
		</g>
		<g class="st1">
			<path d="M434.8,829.7c0-5.7,3.5-9.6,8.5-9.6c2.8,0,4.9,1.2,6.1,3.1c1.2,1.9,1.6,4.2,1.6,6.4c0,0.3,0,0.7,0,1.1h-13
				c0.1,2.1,0.7,3.6,1.6,4.5s2.1,1.3,3.6,1.3h0.1c2.4,0,4.2-1.6,4.5-4.3h3.1c-0.1,1.4-0.4,2.7-1.2,4s-1.8,2.1-3.5,2.7
				c-0.8,0.3-1.8,0.4-2.9,0.4C437.9,839.4,434.8,835.5,434.8,829.7z M438.1,828h9.8c0-3.4-2-5-4.6-5C440.4,823,438.2,825,438.1,828z
				"/>
		</g>
		<g class="st1">
			<path d="M471,813.4v25.5h-3.3v-26.7h6.4l6.2,25.6l6.2-25.6h6.4v26.7h-3.3v-25.5l-6.1,25.4h-6.4L471,813.4z"/>
		</g>
		<g class="st1">
			<path d="M499.2,829.7c0-5.7,3.5-9.6,8.5-9.6c2.8,0,4.9,1.2,6.1,3.1c1.2,1.9,1.6,4.2,1.6,6.4c0,0.3,0,0.7,0,1.1h-13
				c0.1,2.1,0.7,3.6,1.6,4.5s2.1,1.3,3.6,1.3h0.1c2.4,0,4.2-1.6,4.5-4.3h3.1c-0.1,1.4-0.4,2.7-1.2,4s-1.8,2.1-3.5,2.7
				c-0.8,0.3-1.8,0.4-2.9,0.4C502.3,839.4,499.2,835.5,499.2,829.7z M502.5,828h9.8c0-3.4-2-5-4.6-5C504.8,823,502.6,825,502.5,828z
				"/>
		</g>
		<g class="st1">
			<path d="M527.1,831.7l-4.5,7.2H519l6.4-9.7l-5.7-8.4h3.5l4,5.9l4-5.9h3.5l-5.7,8.4l6.4,9.7h-3.6L527.1,831.7z"/>
		</g>
		<g class="st1">
			<path d="M539.8,814.7c0-1.3,1.2-2.5,2.5-2.5c1.3,0,2.5,1.1,2.5,2.5c0,1.3-1.2,2.5-2.5,2.5C541,817.2,539.8,816,539.8,814.7z
				 M543.8,820.7v18.2h-3.1v-18.2H543.8z"/>
		</g>
		<g class="st1">
			<path d="M554.2,832v6.8h-3.1v-26.7h3.1v15.7l7.8-7.2h4l-7.8,7.4l9,10.8h-4.1l-7.2-8.5L554.2,832z"/>
		</g>
		<g class="st1">
			<path d="M570.6,834.3c0-3.3,2.2-5.2,5.3-6c4.3-1,6.2-1.5,6.2-3.1c0-1.2-0.2-1.8-1.2-2.2c-0.5-0.2-1.2-0.3-2.2-0.3
				c-2.9,0-4.4,1.2-4.4,4.5h-3.1V827c0-4.2,2.9-6.8,7.5-6.8c2.5,0,4.2,0.5,5.2,1.5s1.4,2.1,1.4,3.7v13.4h-3.1v-3.2
				c-0.8,2.1-3.1,3.8-6.1,3.8C572.6,839.4,570.6,837.2,570.6,834.3z M573.7,834.2c0,1.5,1,2.7,3,2.7c2,0,3.9-1.3,4.8-2.9
				c0.4-0.8,0.7-1.5,0.7-2.2v-3c-0.6,0.3-1.1,0.6-1.4,0.7c-0.2,0.1-0.4,0.1-0.6,0.2l-0.5,0.2c-0.1,0-0.3,0.1-0.7,0.2
				s-0.5,0.2-0.7,0.2c-1.4,0.4-2.2,0.7-3.1,1.3C574.2,832.2,573.7,833.1,573.7,834.2z"/>
		</g>
		<g class="st1">
			<path d="M595.2,829.6v9.3h-3.1v-18.1h3.1v3c0.9-2.1,2.9-3.5,5.9-3.5c3.5,0,5.9,2.2,5.9,5.6v13.1h-3.1v-12.5
				c0-2.2-1.1-3.5-3.3-3.5C597.2,822.9,595.2,825.5,595.2,829.6z"/>
		</g>
		<g class="st1">
			<path d="M613.3,829.7c0-5.7,3.5-9.6,8.5-9.6c2.8,0,4.9,1.2,6.1,3.1c1.2,1.9,1.6,4.2,1.6,6.4c0,0.3,0,0.7,0,1.1h-13
				c0.1,2.1,0.7,3.6,1.6,4.5c1,0.9,2.1,1.3,3.6,1.3h0.1c2.4,0,4.2-1.6,4.5-4.3h3.1c-0.1,1.4-0.4,2.7-1.2,4s-1.8,2.1-3.5,2.7
				c-0.8,0.3-1.8,0.4-2.9,0.4C616.4,839.4,613.3,835.5,613.3,829.7z M616.5,828h9.8c0-3.4-2-5-4.6-5C618.9,823,616.7,825,616.5,828z
				"/>
		</g>
		<g class="st1">
			<path d="M638.8,828.9v10h-2.9v-18.1h2.8v4c0.4-1.1,1-2,1.7-2.6c0.7-0.6,1.4-1,2.2-1.2c0.8-0.2,1.5-0.3,2.1-0.3h0.2
				c0.3,0,0.7,0,1,0h0.4v3.2c-0.1,0-0.3,0-0.7,0h-0.9c-0.4,0-1.4,0-2,0.1c-0.5,0.1-1.4,0.3-1.9,0.7c-0.5,0.3-1.2,0.9-1.5,1.5
				C639,826.9,638.8,827.8,638.8,828.9z"/>
		</g>
		<g class="st1">
			<path d="M659.2,834.3c0-3.3,2.2-5.2,5.3-6c4.3-1,6.2-1.5,6.2-3.1c0-1.2-0.2-1.8-1.2-2.2c-0.5-0.2-1.2-0.3-2.2-0.3
				c-2.9,0-4.4,1.2-4.4,4.5h-3.1V827c0-4.2,2.9-6.8,7.5-6.8c2.5,0,4.2,0.5,5.2,1.5s1.4,2.1,1.4,3.7v13.4h-3.1v-3.2
				c-0.8,2.1-3.1,3.8-6.1,3.8C661.3,839.4,659.2,837.2,659.2,834.3z M662.3,834.2c0,1.5,1,2.7,3,2.7c2,0,3.9-1.3,4.8-2.9
				c0.4-0.8,0.7-1.5,0.7-2.2v-3c-0.6,0.3-1.1,0.6-1.4,0.7c-0.2,0.1-0.4,0.1-0.6,0.2l-0.5,0.2c-0.1,0-0.3,0.1-0.7,0.2
				c-0.3,0.1-0.5,0.2-0.7,0.2c-1.4,0.4-2.2,0.7-3.1,1.3C662.8,832.2,662.3,833.1,662.3,834.2z"/>
		</g>
		<g class="st1">
			<path d="M681.3,833.3v-10.1h-2.9v-2.5h2.9v-5.3h3.1v5.3h4.3v2.5h-4.3v9.6c0,0.7,0.1,1.3,0.3,1.7c0.1,0.4,0.4,0.8,0.6,1
				c0.3,0.2,0.6,0.4,1,0.4c0.3,0.1,0.7,0.1,1.1,0.1h0.6h1.5v2.8h-1.1c-1.4,0-2.2,0-3.3-0.2c-1.1-0.2-1.7-0.5-2.3-1
				c-0.7-0.6-1-1.3-1.2-2.4C681.3,834.6,681.3,834,681.3,833.3z"/>
		</g>
		<g class="st1">
			<path d="M705.9,813.4v25.5h-3.3v-26.7h6.4l6.2,25.6l6.2-25.6h6.4v26.7h-3.3v-25.5l-6.1,25.4H712L705.9,813.4z"/>
		</g>
		<g class="st1">
			<path d="M734.1,829.6c0-5.7,3-9.4,8.3-9.5h0.1c5.3,0,8.3,3.7,8.3,9.5c0,6-3,9.8-8.3,9.8C737.1,839.4,734.1,835.6,734.1,829.6z
				 M737.3,829.8c0,4.5,1.9,6.8,5.1,6.8s5.1-2.2,5.1-6.8c0-4.6-1.8-6.8-5.1-6.8S737.3,825.2,737.3,829.8z"/>
		</g>
		<g class="st1">
			<path d="M760.2,812.2v26.7h-3.1v-26.7H760.2z"/>
		</g>
		<g class="st1">
			<path d="M766.5,829.6c0-5.7,3-9.4,8.3-9.5h0.1c5.3,0,8.3,3.7,8.3,9.5c0,6-3,9.8-8.3,9.8C769.5,839.4,766.5,835.6,766.5,829.6z
				 M769.7,829.8c0,4.5,1.9,6.8,5.1,6.8s5.1-2.2,5.1-6.8c0-4.6-1.8-6.8-5.1-6.8S769.7,825.2,769.7,829.8z"/>
		</g>
		<g class="st1">
			<path d="M789.8,833.3v-10.1h-2.9v-2.5h2.9v-5.3h3.1v5.3h4.3v2.5h-4.3v9.6c0,0.7,0.1,1.3,0.3,1.7c0.1,0.4,0.4,0.8,0.6,1
				c0.3,0.2,0.6,0.4,1,0.4c0.3,0.1,0.7,0.1,1.1,0.1h0.6h1.5v2.8h-1.1c-1.4,0-2.2,0-3.3-0.2c-1.1-0.2-1.7-0.5-2.3-1
				c-0.7-0.6-1-1.3-1.2-2.4C789.8,834.6,789.8,834,789.8,833.3z"/>
		</g>
		<g class="st1">
			<path d="M800.9,829.6c0-5.7,3-9.4,8.3-9.5h0.1c5.3,0,8.3,3.7,8.3,9.5c0,6-3,9.8-8.3,9.8C803.9,839.4,800.9,835.6,800.9,829.6z
				 M804.1,829.8c0,4.5,1.9,6.8,5.1,6.8s5.1-2.2,5.1-6.8c0-4.6-1.8-6.8-5.1-6.8S804.1,825.2,804.1,829.8z"/>
		</g>
		<g class="st1">
			<path d="M831.8,838.8h-5.4l-4.9-18.2h3l4.6,17.1l4.3-17.1h5.4l4.3,17.1l4.6-17.1h3l-4.9,18.2h-5.4l-4.2-16.9L831.8,838.8z"/>
		</g>
		<g class="st1">
			<path d="M854.2,836.6c0-1.2,1.1-2.3,2.3-2.3c1.3,0,2.3,1,2.3,2.3c0,1.2-1,2.3-2.3,2.3C855.3,838.9,854.2,837.8,854.2,836.6z"/>
			<path d="M865.1,836.6c0-1.2,1.1-2.3,2.3-2.3c1.3,0,2.3,1,2.3,2.3c0,1.2-1,2.3-2.3,2.3C866.2,838.9,865.1,837.8,865.1,836.6z"/>
		</g>
		<g class="st1">
			<path d="M875.2,836.6c0-1.2,1.1-2.3,2.3-2.3c1.3,0,2.3,1,2.3,2.3c0,1.2-1,2.3-2.3,2.3C876.3,838.9,875.2,837.8,875.2,836.6z"/>
		</g>
		<g class="st1">
			<path d="M459.7,869.6c0-5.7,3-9.4,8.3-9.5h0.1c5.3,0,8.3,3.7,8.3,9.5c0,6-3,9.8-8.3,9.8S459.7,875.6,459.7,869.6z M462.8,869.8
				c0,4.5,1.9,6.8,5.1,6.8s5.1-2.2,5.1-6.8c0-4.6-1.8-6.8-5.1-6.8S462.8,865.2,462.8,869.8z"/>
		</g>
		<g class="st1">
			<path d="M485.5,868.9v10h-2.9v-18.1h2.8v4c0.4-1.1,1-2,1.7-2.6c0.7-0.6,1.4-1,2.2-1.2s1.5-0.3,2.1-0.3h0.2c0.3,0,0.7,0,1,0h0.4
				v3.2c-0.1,0-0.3,0-0.7,0h-0.9c-0.4,0-1.4,0-2,0.1s-1.4,0.3-1.9,0.7c-0.5,0.3-1.2,0.9-1.5,1.5
				C485.8,866.9,485.5,867.8,485.5,868.9z"/>
		</g>
		<g class="st1">
			<path d="M511.1,869.6v9.3H508v-18.1h3.1v3c0.9-2,3-3.6,5.8-3.6c2.6,0,4.8,1.5,5.4,3.6c1.3-2.4,3.3-3.6,6.1-3.6
				c3.3,0,5.7,2.2,5.7,5.6v13.1h-3.1v-12.5c0-2.1-1.2-3.5-3.2-3.5c-3.2,0-5.2,2.8-5.2,6.7v9.3h-3.1v-12.5c0-2.1-1.2-3.5-3.2-3.5
				C513.2,862.9,511.1,865.7,511.1,869.6z"/>
		</g>
		<g class="st1">
			<path d="M540.1,874.3c0-3.3,2.2-5.2,5.3-6c4.3-1,6.2-1.5,6.2-3.1c0-1.2-0.2-1.8-1.2-2.2c-0.5-0.2-1.2-0.3-2.2-0.3
				c-2.9,0-4.4,1.2-4.4,4.5h-3.1V867c0-4.2,2.9-6.8,7.5-6.8c2.5,0,4.2,0.5,5.2,1.5s1.4,2.1,1.4,3.7v13.4h-3.1v-3.2
				c-0.8,2.1-3.1,3.8-6.1,3.8C542.2,879.4,540.1,877.2,540.1,874.3z M543.2,874.2c0,1.5,1,2.7,3,2.7c2,0,3.9-1.3,4.8-2.9
				c0.4-0.8,0.7-1.5,0.7-2.2v-3c-0.6,0.3-1.1,0.6-1.4,0.7c-0.2,0.1-0.4,0.1-0.6,0.2l-0.5,0.2c-0.1,0-0.3,0.1-0.7,0.2
				s-0.5,0.2-0.7,0.2c-1.4,0.4-2.2,0.7-3.1,1.3C543.7,872.2,543.2,873.1,543.2,874.2z"/>
		</g>
		<g class="st1">
			<path d="M568.5,878.8h-2l-7-18.1h3.1l6,15.3l0.5,1.3l5.8-16.6h3.1l-7.8,22.7c-0.5,1.4-1.1,2.2-1.9,2.8c-0.8,0.6-2.1,0.9-3.4,1
				c-0.7,0.1-1.5,0.1-2.5,0.1h-1.1v-2.8h1.6c2.4,0,3.7-0.3,4.3-2.1L568.5,878.8z"/>
		</g>
		<g class="st1">
			<path d="M586.5,863.6c0.7-2,2.8-3.4,5.5-3.4c4.6,0,7.5,3.8,7.5,9.7c0,5.5-2.9,9.4-7.3,9.4c-1.1,0-2.1-0.2-2.9-0.5
				c-1.6-0.7-2.3-1.6-2.8-3v2.9h-3.1v-26.6h3.1V863.6z M591.5,876.8c2.9,0,4.7-2.3,4.7-6.6c0-4.6-1.8-7.3-4.7-7.3
				c-3.1,0-5.1,2.7-5.1,6.9C586.4,874.1,588.3,876.8,591.5,876.8z"/>
		</g>
		<g class="st1">
			<path d="M604.8,869.7c0-5.7,3.5-9.6,8.5-9.6c2.8,0,4.9,1.2,6.1,3.1c1.2,1.9,1.6,4.2,1.6,6.4c0,0.3,0,0.7,0,1.1h-13
				c0.1,2.1,0.7,3.6,1.6,4.5c1,0.9,2.1,1.3,3.6,1.3h0.1c2.4,0,4.2-1.6,4.5-4.3h3.1c-0.1,1.4-0.4,2.7-1.2,4s-1.8,2.1-3.5,2.7
				c-0.8,0.3-1.8,0.4-2.9,0.4C607.9,879.4,604.8,875.5,604.8,869.7z M608,868h9.8c0-3.4-2-5-4.6-5C610.4,863,608.2,865,608,868z"/>
		</g>
		<g class="st1">
			<path d="M637.7,873.3v-10.1h-2.9v-2.5h2.9v-5.3h3.1v5.3h4.3v2.5h-4.3v9.6c0,0.7,0.1,1.3,0.3,1.7c0.1,0.4,0.4,0.8,0.6,1
				c0.3,0.2,0.6,0.4,1,0.4c0.3,0.1,0.7,0.1,1.1,0.1h0.6h1.5v2.8h-1.1c-1.4,0-2.2,0-3.3-0.2c-1.1-0.2-1.7-0.5-2.3-1
				c-0.7-0.6-1-1.3-1.2-2.4C637.7,874.6,637.7,874,637.7,873.3z"/>
		</g>
		<g class="st1">
			<path d="M659,878.8h-5.4l-4.9-18.2h3l4.6,17.1l4.3-17.1h5.4l4.3,17.1l4.6-17.1h3l-4.9,18.2h-5.4l-4.2-16.9L659,878.8z"/>
		</g>
		<g class="st1">
			<path d="M681.8,869.6c0-5.7,3-9.4,8.3-9.5h0.1c5.3,0,8.3,3.7,8.3,9.5c0,6-3,9.8-8.3,9.8C684.8,879.4,681.8,875.6,681.8,869.6z
				 M685,869.8c0,4.5,1.9,6.8,5.1,6.8s5.1-2.2,5.1-6.8c0-4.6-1.8-6.8-5.1-6.8S685,865.2,685,869.8z"/>
		</g>
		<g class="st1">
			<path d="M706.2,858.9h-2.8c0-2.1,0.4-3.8,1.4-5.1c1-1.4,2.8-2.2,5.2-2.2c3.6,0,6.1,1.9,6.1,5.1c0,1.3-0.4,2.4-1,3.1
				c-0.6,0.7-1.8,1.4-2.7,1.9c-0.5,0.2-1.1,0.5-1.8,0.7c-0.1,0.1-0.4,0.1-0.7,0.2c-0.7,0.2-0.9,0.3-1.4,0.6
				c-0.6,0.3-0.8,0.6-1.1,1.1c-0.3,0.5-0.5,1.1-0.5,2c0,2.4,1.1,3.5,3.3,3.5c1,0,1.7-0.3,2.2-0.9c0.5-0.6,0.8-1.2,1-2.2
				c0.1-0.9,0.2-1.7,0.2-2.7h2.7c0,0.9,0,1.5-0.1,2.7c-0.2,1.2-0.4,2.1-1,3.1s-1.4,1.7-2.7,2.1c-0.7,0.2-1.4,0.3-2.2,0.3
				c-3.9,0-6.2-1.9-6.2-6c0-1.9,0.7-3.4,1.9-4.4c1.2-0.9,2.2-1.4,3.7-1.9c2.5-0.8,3.7-1.6,3.7-3.4c0-1.7-1.3-2.6-3.2-2.6
				C707.6,854.2,706.3,855.4,706.2,858.9z M707.4,876.6c0-1.2,1.1-2.3,2.3-2.3c1.3,0,2.3,1,2.3,2.3c0,1.2-1,2.3-2.3,2.3
				C708.4,878.9,707.4,877.8,707.4,876.6z"/>
		</g>
		<g class="st1">
			<path d="M721.8,876.6c0-1.2,1.1-2.3,2.3-2.3c1.3,0,2.3,1,2.3,2.3c0,1.2-1,2.3-2.3,2.3C722.8,878.9,721.8,877.8,721.8,876.6z
				 M723.3,871.2l-0.9-9.7l-0.1-9.3h4.1l-0.3,9.3l-0.9,9.7H723.3z"/>
		</g>
	</g>
</g>
</svg>
