<svg xmlns="http://www.w3.org/2000/svg" viewBox="0 0 317.91 325.52"><defs><style>.cls-1{fill:#fff;}</style></defs><title>T_ig_disc</title><g id="Layer_2" data-name="Layer 2"><g id="T_ig_disc"><ellipse cx="158.96" cy="162.76" rx="158.96" ry="162.76"/><circle class="cls-1" cx="158.96" cy="162.76" r="76.79"/><path class="cls-1" d="M222.6,291.12a138.94,138.94,0,0,0,13.47-7.18,131.92,131.92,0,0,0,12.5-8.68,121.12,121.12,0,0,0,21.23-21.58A127.79,127.79,0,0,0,294.07,199a140.8,140.8,0,0,0-2-59.7,172.31,172.31,0,0,0-9.69-28.46,162.91,162.91,0,0,0-14.84-26.12l-2.18-3.06c-.73-1-1.42-2.07-2.23-3l-4.73-5.84A145.4,145.4,0,0,0,248,62a126.25,126.25,0,0,0-23.9-18,119.41,119.41,0,0,0-27.4-12,121.76,121.76,0,0,0-14.62-3.33l-1.85-.32-1.86-.25-3.73-.47c-2.49-.17-5-.48-7.49-.51a117.82,117.82,0,0,0-15,.32,136.34,136.34,0,0,0-14.89,2.2,121.12,121.12,0,0,0-28.46,9.88A122.74,122.74,0,0,0,83.39,56a127.13,127.13,0,0,0-11,10.5,137.36,137.36,0,0,0-9.88,11.64,126.14,126.14,0,0,1,45.07-41,123.68,123.68,0,0,1,28.89-11,123.11,123.11,0,0,1,90.22,13.38,129.57,129.57,0,0,1,25,18.58,152.38,152.38,0,0,1,10.81,11.2l4.92,6c.85,1,1.56,2.07,2.33,3.12l2.26,3.16a167.74,167.74,0,0,1,15.23,27.06A170.66,170.66,0,0,1,297,138.16a142.36,142.36,0,0,1,1.19,61.69,130.28,130.28,0,0,1-9.81,29.38,120.87,120.87,0,0,1-7.47,13.57,117.31,117.31,0,0,1-9.06,12.53A121.84,121.84,0,0,1,222.6,291.12Z"/><path class="cls-1" d="M144.05,291.81a123.21,123.21,0,0,0,13.21,1.9l3.31.31.83.08.83,0,1.66,0c2.22,0,4.44.11,6.65.06a111.84,111.84,0,0,0,26.13-4.1l6.31-1.95,6.15-2.41,1.53-.6c.52-.21,1-.47,1.5-.71l3-1.44,3-1.44c1-.5,1.9-1.1,2.86-1.64l2.84-1.66c.94-.57,1.92-1.07,2.8-1.73L232,272.8c.93-.59,1.74-1.34,2.61-2l2.56-2.06c.84-.7,1.72-1.35,2.54-2.09l2.4-2.25,2.4-2.25,1.19-1.12,1.12-1.21,4.44-4.85c1.42-1.67,2.74-3.42,4.11-5.12.67-.87,1.39-1.7,2-2.59l1.85-2.72a120.19,120.19,0,0,0,12.59-23,150.84,150.84,0,0,0,8-25,141.94,141.94,0,0,0,3.2-26.05l.06-3.28c0-1.09.08-2.19,0-3.28l-.27-6.56c-.43-4.35-.78-8.72-1.64-13a110.63,110.63,0,0,0-7.4-25.07,104.11,104.11,0,0,0-13-22.68,107.85,107.85,0,0,0-8.52-10c-1.47-1.62-3.12-3.06-4.68-4.6s-3.25-2.93-5-4.26A105.29,105.29,0,0,0,195.26,56a107.46,107.46,0,0,0-26.39-1.64A110.61,110.61,0,0,0,155.67,56a121.78,121.78,0,0,0-13,3,110.21,110.21,0,0,1,53-5.28,107.77,107.77,0,0,1,26,7.35A106.44,106.44,0,0,1,245,74.85a107.63,107.63,0,0,1,33,42.62,112.89,112.89,0,0,1,7.83,26A136,136,0,0,1,287.53,157l.3,6.8c.09,1.13,0,2.26,0,3.39l-.06,3.4a146,146,0,0,1-3.41,26.92A150.74,150.74,0,0,1,276,223.27a124.76,124.76,0,0,1-13.31,23.62l-1.94,2.79c-.67.91-1.42,1.76-2.12,2.65-1.45,1.74-2.83,3.54-4.33,5.23l-4.69,4.91-1.18,1.23-1.26,1.14-2.52,2.27-2.52,2.27c-.86.74-1.78,1.4-2.67,2.1l-2.68,2.07c-.91.67-1.76,1.43-2.73,2l-5.67,3.73a29.39,29.39,0,0,1-2.93,1.7l-3,1.63c-1,.53-2,1.12-3,1.6l-3.09,1.39L213.28,287c-.52.23-1,.49-1.55.68l-1.59.58-6.37,2.29-6.51,1.78a113.1,113.1,0,0,1-26.71,3.12c-2.24,0-4.47-.22-6.71-.32a57.2,57.2,0,0,1-6.66-.72A124.38,124.38,0,0,1,144.05,291.81Z"/><path class="cls-1" d="M77,84.77C74.2,88,71.18,91.1,68.69,94.62l-2,2.55c-.32.42-.67.84-1,1.28l-.89,1.34-3.54,5.37a126,126,0,0,0-10.83,23.19,124.77,124.77,0,0,0-5.43,24.91,119.89,119.89,0,0,0,.25,25.41l.95,6.29c.37,2.08.92,4.13,1.37,6.2.25,1,.44,2.07.73,3.09l.94,3,.93,3,.46,1.52.57,1.48A112.36,112.36,0,0,0,62.54,226a129.29,129.29,0,0,0,15.69,19.89A122.44,122.44,0,0,0,97.73,262a105.34,105.34,0,0,0,47,17.43,100,100,0,0,0,25.23-.49,106.5,106.5,0,0,0,24.42-6.67A110.55,110.55,0,0,0,216.55,260a112.31,112.31,0,0,0,18.94-17.06A119,119,0,0,0,250.34,222,128.48,128.48,0,0,0,256,210.47c1.74-3.93,3.16-8,4.51-12.09a127,127,0,0,1-3.88,12.34,117,117,0,0,1-19.42,33.62,112.19,112.19,0,0,1-41.45,31.22,104.6,104.6,0,0,1-51.46,8.17A109,109,0,0,1,95.21,265.8,126.34,126.34,0,0,1,75.05,249a129.12,129.12,0,0,1-16.14-20.69,116.4,116.4,0,0,1-11.39-23.63L47,203.11l-.47-1.58-.92-3.15-.92-3.15c-.3-1.06-.48-2.14-.71-3.21-.42-2.15-1-4.28-1.28-6.44l-.85-6.51a32.27,32.27,0,0,1-.27-3.27l-.18-3.27-.18-3.27.07-3.28.07-3.28a29.83,29.83,0,0,1,.16-3.27l.64-6.51a125.65,125.65,0,0,1,6.29-25.31,128.38,128.38,0,0,1,11.91-23.1A123.82,123.82,0,0,1,77,84.77Z"/><path class="cls-1" d="M62.24,173.32l1.19,5.52c.22.91.36,1.85.64,2.74l.79,2.71.78,2.71.39,1.35c.14.45.32.89.47,1.33L68.43,195c.67,1.75,1.51,3.43,2.25,5.15l1.15,2.56,1.33,2.47,1.32,2.47c.45.83.87,1.66,1.39,2.44l3,4.74A109.67,109.67,0,0,0,93.11,232a110.85,110.85,0,0,0,17.55,13.67A110.24,110.24,0,0,0,130.77,255c3.56,1,7.08,2.16,10.72,2.83,1.8.44,3.64.69,5.46,1l2.75.42,2.76.24a104.38,104.38,0,0,0,22.14-.31,99.28,99.28,0,0,0,21.46-5.26,87.51,87.51,0,0,0,19.65-10,89.25,89.25,0,0,0,16.4-14.71,84.24,84.24,0,0,0,6.65-8.83,91.15,91.15,0,0,0,5.44-9.63,92.54,92.54,0,0,0,4.2-10.27c.65-1.73,1.11-3.53,1.66-5.29s1-3.58,1.32-5.4a103.75,103.75,0,0,0-.35-44.3A111.5,111.5,0,0,0,244,124.14c-.81-1.69-1.55-3.42-2.45-5.07l-1.3-2.49-1.39-2.45c-1.83-3.29-3.91-6.43-6-9.54,2.29,3,4.54,6,6.55,9.23l1.5,2.4,1.41,2.46c1,1.63,1.78,3.34,2.67,5a112.81,112.81,0,0,1,8,21.27,103.23,103.23,0,0,1,1.49,45.37,88.19,88.19,0,0,1-57,67.24A102.43,102.43,0,0,1,175.07,263a104.39,104.39,0,0,1-23,.19l-2.86-.28-2.84-.47c-1.9-.3-3.79-.59-5.66-1.06-3.77-.75-7.41-2-11.08-3.08a106,106,0,0,1-20.63-10A109.08,109.08,0,0,1,91.29,233.8a110.76,110.76,0,0,1-14.06-18l-2.85-4.94c-.5-.8-.89-1.67-1.31-2.52l-1.24-2.56-1.24-2.56-1.07-2.64c-.68-1.76-1.46-3.49-2.07-5.29A112.92,112.92,0,0,1,62.24,173.32Z"/><circle cx="158.96" cy="162.76" r="8.29"/></g></g></svg>