<svg xmlns="http://www.w3.org/2000/svg" viewBox="0 0 80 40"><defs><style>.cls-1{fill:#fff;}</style></defs><title>T_ig_tile_press</title><g id="Layer_2" data-name="Layer 2"><g id="T_tile"><ellipse class="cls-1" cx="40" cy="20" rx="38.5" ry="18.5"/><path d="M40,3C50.23,3,59.8,5,66.94,8.54,73.33,11.74,77,15.91,77,20s-3.67,8.26-10.06,11.46C59.8,35,50.23,37,40,37s-19.8-2-26.94-5.54C6.67,28.26,3,24.09,3,20S6.67,11.74,13.06,8.54C20.2,5,29.77,3,40,3m0-3C17.91,0,0,9,0,20S17.91,40,40,40s40-8.95,40-20S62.09,0,40,0Z"/></g></g></svg>