<svg xmlns="http://www.w3.org/2000/svg" xmlns:xlink="http://www.w3.org/1999/xlink" viewBox="0 0 165.5 200"><defs><style>.cls-1,.cls-5{fill:none;}.cls-2{fill:#fff;}.cls-3,.cls-5{stroke:#000;stroke-miterlimit:10;}.cls-3{stroke-width:0.5px;}.cls-4{clip-path:url(#clip-path);}.cls-5{stroke-width:2px;}</style><clipPath id="clip-path"><rect class="cls-1" x="10.82" y="73.69" width="143.78" height="71.34" transform="translate(192.07 26.66) rotate(90)"/></clipPath></defs><title>T_token_b1_easy</title><g id="Layer_2" data-name="Layer 2"><g id="T_token_b1_easy"><path class="cls-2" d="M77.94,13.66A21.36,21.36,0,0,1,86.17,13a24.53,24.53,0,0,1,3.92.91c-4.16,3.45-8.36,2.86-12.17-.25Z"/><path class="cls-2" d="M76.54,14.13c3.2,4.92,10.8,4.89,14.69.85a.71.71,0,0,0,.22-.64,20.28,20.28,0,0,1,4.36,3.41c.19.19.37.39.55.59a.62.62,0,0,0-.4.17,17.25,17.25,0,0,1-12.17,4.31,22,22,0,0,1-6.3-1.27c-1.87-.64-5.65-1.91-6.73-3.9A19.23,19.23,0,0,1,76.54,14.13Z"/><path class="cls-2" d="M66,29.7a10.93,10.93,0,0,1-1.71-.3,2.06,2.06,0,0,0,.06-1.2.64.64,0,0,0-.1-.22c.07-.32.13-.64.23-.95a2.79,2.79,0,0,0,.15-1.16,28.51,28.51,0,0,1,1.25-3.28c1.23-1.38,2.44-2.71,3.71-3.92,2.07,3.74,9.43,5.41,13.14,5.79.33,0,.67.06,1,.08a.43.43,0,0,0,0,.11,16.72,16.72,0,0,0,0,4.84h-.86C77.32,29.45,71.66,29.42,66,29.7Z"/><path class="cls-2" d="M101.73,28.54a1.26,1.26,0,0,0,0,.39.89.89,0,0,0-.22.55c0,.07,0,.15,0,.22l-.53-.17c-.49-.16-1.15-.2-1.45.27a118.74,118.74,0,0,0-14-.32c0-.6,0-1.2-.08-1.81,0-1,0-2,0-3v-.1a15.77,15.77,0,0,0,11.43-5.11.62.62,0,0,0,.16-.28c2.16,2.74,3.31,5.78,4.77,9A2,2,0,0,0,101.73,28.54Z"/><path class="cls-2" d="M86.29,4.8c-.87,1.5-1.89.83-3.27.78-.8,0-2.58.44-2.75-1-.11-.92.78-1.65,1.47-2a.22.22,0,0,0,.06-.34,4.72,4.72,0,0,1,2.33-.55C85.75,1.88,87.33,3,86.29,4.8Z"/><path d="M104,28.22a1.64,1.64,0,0,0-.14-.22,2.39,2.39,0,0,0-.27-.43,1,1,0,0,0-.23-.19,21.81,21.81,0,0,0-8.83-13,.67.67,0,0,0-.13-.64c-2.07-2.16-5.29-3.08-8.6-3.21a17.16,17.16,0,0,0-3.18-.33c-8.2-.08-18.17,6.56-19.59,15.23a4.48,4.48,0,0,0-.82,2.78,10.5,10.5,0,0,0-.88,1.3,1.31,1.31,0,0,0,.76,1.9c2,.72,5.74,1.44,7.49-.21a.48.48,0,0,0,.09-.11c4.23.15,8.47.21,12.7.34l9.47.24c3.3.1,6.76.53,10,.18a1.41,1.41,0,0,0,.22-.06h0a.89.89,0,0,0,1-.49,1.19,1.19,0,0,0,1.11-.88A3.5,3.5,0,0,0,104,28.22Zm-26-14.56A21.36,21.36,0,0,1,86.17,13a24.53,24.53,0,0,1,3.92.91c-4.16,3.45-8.36,2.86-12.17-.25Zm-1.4.47c3.2,4.92,10.8,4.89,14.69.85a.71.71,0,0,0,.22-.64,20.28,20.28,0,0,1,4.36,3.41c.19.19.37.39.55.59a.62.62,0,0,0-.4.17,17.25,17.25,0,0,1-12.17,4.31,22,22,0,0,1-6.3-1.27c-1.87-.64-5.65-1.91-6.73-3.9A19.23,19.23,0,0,1,76.54,14.13ZM66,29.7a10.93,10.93,0,0,1-1.71-.3,2.06,2.06,0,0,0,.06-1.2.64.64,0,0,0-.1-.22c.07-.32.13-.64.23-.95a2.79,2.79,0,0,0,.15-1.16,28.51,28.51,0,0,1,1.25-3.28c1.23-1.38,2.44-2.71,3.71-3.92,2.07,3.74,9.43,5.41,13.14,5.79.33,0,.67.06,1,.08a.43.43,0,0,0,0,.11,16.72,16.72,0,0,0,0,4.84h-.86C77.32,29.45,71.66,29.42,66,29.7Zm35.69-1.16a1.26,1.26,0,0,0,0,.39.89.89,0,0,0-.22.55c0,.07,0,.15,0,.22l-.53-.17c-.49-.16-1.15-.2-1.45.27a118.74,118.74,0,0,0-14-.32c0-.6,0-1.2-.08-1.81,0-1,0-2,0-3v-.1a15.77,15.77,0,0,0,11.43-5.11.62.62,0,0,0,.16-.28c2.16,2.74,3.31,5.78,4.77,9A2,2,0,0,0,101.73,28.54Z"/><path d="M86.08.48c-1.56-.71-5.64-.95-5.73,1.59a.41.41,0,0,0,.3.41c-1.45.78-2.31,2.58-.83,4,1.08,1,2.65.61,4,.91s2.36.44,3.36-.77C88.93,4.44,88.78,1.71,86.08.48Zm.21,4.32c-.87,1.5-1.89.83-3.27.78-.8,0-2.58.44-2.75-1-.11-.92.78-1.65,1.47-2a.22.22,0,0,0,.06-.34,4.72,4.72,0,0,1,2.33-.55C85.75,1.88,87.33,3,86.29,4.8Z"/><polygon class="cls-2" points="83.79 186.44 77.94 197.92 67.3 179.76 100.27 179.76 89.64 197.92 83.79 186.44"/><path d="M98.53,180.77,89.7,195.83l-4.13-8.1-1.78-3.5L82,187.73l-4.13,8.1-8.83-15.06H98.53m3.49-2H65.56L78,200l5.79-11.36L89.57,200,102,178.77Z"/><path class="cls-2" d="M142.85,43.65a.51.51,0,0,0-.08.79c1.94,1.47,6.22-.53,8.26-1.09s3.85-1.06,5.79-1.52c1.31-.31,3.43-.36,5-.74a.55.55,0,0,0,.59.16l.46.07c-7.58,4.06-16.4,5.38-23.79,10-6.76,4.25-12.34,10-18.28,15.28-3.33,3-7,6.59-11.37,7.79-2.13.58-7.2,1.13-6.52-2.58.28-1.57,1.82-3.44,2.74-4.72a98,98,0,0,1,8.17-9.45,65.91,65.91,0,0,0,5.63-6.47.45.45,0,0,0,.5,0,3.84,3.84,0,0,0,1-1.28A9.42,9.42,0,0,1,122,48.53a.63.63,0,0,0,.16-.68A24.79,24.79,0,0,0,128,38.23c1.38-4.31,1.78-8.86,2.9-13.23,1.65,2.19,1.73,5.25,1.8,7.92a52.24,52.24,0,0,1-.45,8.2.59.59,0,0,0,0,.39v0a.26.26,0,0,0,.15.27.57.57,0,0,0,.93,0A50.19,50.19,0,0,0,141,28.93c1.84-4.59,3.12-9.37,5.58-13.66.26,1.86-.8,4.93-1.12,6.3-.47,2.06-1,4.1-1.69,6.1s-1.52,4.15-2.4,6.18-1.56,4.55-3,6.43a.33.33,0,0,0,.48.45c6.77-5.63,13.1-12.37,20.5-17.22-2.11,3-5,5.49-7.69,8.06-4.19,4-8.47,8-12.35,12.37,7.25-4.68,14.94-8.16,22.76-11.54-2.83,1.53-5.56,3.36-8.34,5C150.05,39.43,146.47,41.58,142.85,43.65Z"/><path class="cls-3" d="M164.68,31.32c.12-.1,0-.24-.15-.19l-.36.17a.34.34,0,0,0-.42-.45c-6.81,1.87-13,5.6-19.18,9,2.83-2.73,5.58-5.55,8.35-8.34,2.92-2.94,6.25-5.79,8.43-9.37.29-.47-.3-.93-.73-.7-4.09,2.17-7.51,5.29-10.94,8.37s-6.81,6.16-10.15,9.32c1-2,2.35-3.83,3.23-5.9a86.14,86.14,0,0,0,3.72-11,27.79,27.79,0,0,0,.61-3c.27-1.69,1.14-4,0-5.52a.58.58,0,0,0-1,0c-2.72,3.94-4,8.51-5.65,13a46.62,46.62,0,0,1-7.57,13.59,43.82,43.82,0,0,0,.53-9.09c-.11-2.65-.22-5.6-2.45-7.37a.42.42,0,0,0-.7.2c-1.19,4.07-1.69,8.28-2.75,12.38a26.78,26.78,0,0,1-5.76,11,.67.67,0,0,0-.81.14A10.89,10.89,0,0,0,119.76,49a3.88,3.88,0,0,0-.58,1.08c-2.19,2.61-4.25,5.31-6.67,7.75a88.19,88.19,0,0,0-5.92,6.6c-1.79,2.22-4.62,5.2-5.52,8-.74,2.35,2,3.35,3.84,3.61,6.42.94,12-4.48,16.37-8.38,5.87-5.19,11.43-10.84,18.06-15.07a60.54,60.54,0,0,1,13-5.79A90.24,90.24,0,0,0,165,41.52a.63.63,0,0,0,0-1.07,3.23,3.23,0,0,0-1.81-.59c-2.12-.77-6.16.61-8,1.13s-3.52,1.1-5.29,1.62c-1,.28-3.83,1.38-5.47,1.35,3.49-1.84,7-3.73,10.31-5.83S161.71,34,164.68,31.32ZM142.85,43.65a.51.51,0,0,0-.08.79c1.94,1.47,6.22-.53,8.26-1.09s3.85-1.06,5.79-1.52c1.31-.31,3.43-.36,5-.74a.55.55,0,0,0,.59.16l.46.07c-7.58,4.06-16.4,5.38-23.79,10-6.76,4.25-12.34,10-18.28,15.28-3.33,3-7,6.59-11.37,7.79-2.13.58-7.2,1.13-6.52-2.58.28-1.57,1.82-3.44,2.74-4.72a98,98,0,0,1,8.17-9.45,65.91,65.91,0,0,0,5.63-6.47.45.45,0,0,0,.5,0,3.84,3.84,0,0,0,1-1.28A9.42,9.42,0,0,1,122,48.53a.63.63,0,0,0,.16-.68A24.79,24.79,0,0,0,128,38.23c1.38-4.31,1.78-8.86,2.9-13.23,1.65,2.19,1.73,5.25,1.8,7.92a52.24,52.24,0,0,1-.45,8.2.59.59,0,0,0,0,.39v0a.26.26,0,0,0,.15.27.57.57,0,0,0,.93,0A50.19,50.19,0,0,0,141,28.93c1.84-4.59,3.12-9.37,5.58-13.66.26,1.86-.8,4.93-1.12,6.3-.47,2.06-1,4.1-1.69,6.1s-1.52,4.15-2.4,6.18-1.56,4.55-3,6.43a.33.33,0,0,0,.48.45c6.77-5.63,13.1-12.37,20.5-17.22-2.11,3-5,5.49-7.69,8.06-4.19,4-8.47,8-12.35,12.37,7.25-4.68,14.94-8.16,22.76-11.54-2.83,1.53-5.56,3.36-8.34,5C150.05,39.43,146.47,41.58,142.85,43.65Z"/><path class="cls-2" d="M127.12,163.58a.49.49,0,0,0-.78-.09c-1.46,2,.52,6.27,1.08,8.33s1,3.88,1.51,5.83c.3,1.33.35,3.46.73,5a.64.64,0,0,0-.16.61l-.06.45c-4-7.63-5.34-16.52-10-24-4.21-6.82-9.91-12.44-15.16-18.43-2.94-3.35-6.53-7-7.73-11.45-.58-2.15-1.12-7.26,2.56-6.57,1.57.29,3.42,1.83,4.69,2.76a99.09,99.09,0,0,1,9.38,8.24,66.64,66.64,0,0,0,6.41,5.66.49.49,0,0,0,0,.51,3.74,3.74,0,0,0,1.27,1.06,8.76,8.76,0,0,1,1.35,1.08.63.63,0,0,0,.68.16,24.47,24.47,0,0,0,9.54,5.88c4.28,1.4,8.79,1.79,13.13,2.93-2.18,1.66-5.21,1.74-7.86,1.81a51.48,51.48,0,0,1-8.14-.45.54.54,0,0,0-.39,0h0a.24.24,0,0,0-.26.14.59.59,0,0,0-.05.94,49.94,49.94,0,0,0,12.84,7.71c4.55,1.85,9.29,3.15,13.56,5.63-1.85.26-4.89-.81-6.25-1.13-2-.48-4.07-1-6.06-1.71s-4.12-1.53-6.13-2.42-4.52-1.57-6.38-3a.33.33,0,0,0-.46.48c5.6,6.82,12.28,13.21,17.1,20.66-3-2.13-5.45-5.06-8-7.75-4-4.22-8-8.53-12.28-12.44,4.65,7.3,8.1,15.05,11.46,22.93-1.53-2.85-3.34-5.6-4.92-8.4C131.3,170.83,129.17,167.22,127.12,163.58Z"/><path class="cls-3" d="M139.35,185.57c.1.12.25,0,.2-.15s-.12-.24-.17-.36a.34.34,0,0,0,.44-.43c-1.85-6.86-5.56-13.08-8.91-19.32,2.71,2.85,5.51,5.62,8.27,8.41,2.92,2.95,5.75,6.3,9.3,8.5.48.29.93-.3.7-.74-2.15-4.12-5.24-7.57-8.3-11s-6.12-6.86-9.25-10.23c2,1,3.8,2.37,5.86,3.26a84.47,84.47,0,0,0,10.94,3.74,27.44,27.44,0,0,0,3,.61c1.68.28,3.92,1.16,5.48,0a.58.58,0,0,0,0-1c-3.9-2.74-8.44-4.07-12.87-5.69a46.14,46.14,0,0,1-13.49-7.63,43.11,43.11,0,0,0,9,.54c2.62-.12,5.55-.23,7.32-2.47a.44.44,0,0,0-.2-.71c-4-1.2-8.22-1.7-12.29-2.77a26.72,26.72,0,0,1-11-5.8.67.67,0,0,0-.13-.82,10.76,10.76,0,0,0-1.46-1.24,3.85,3.85,0,0,0-1.07-.59c-2.59-2.2-5.27-4.28-7.69-6.71a87.92,87.92,0,0,0-6.55-6c-2.2-1.81-5.16-4.66-8-5.56-2.33-.75-3.33,2-3.59,3.87-.92,6.47,4.45,12,8.33,16.49,5.14,5.91,10.76,11.52,15,18.2a61.65,61.65,0,0,1,5.74,13.1,93.08,93.08,0,0,0,5.3,12.71.62.62,0,0,0,1.07,0,3.3,3.3,0,0,0,.58-1.82c.77-2.13-.6-6.2-1.12-8s-1.09-3.55-1.61-5.33c-.28-1-1.37-3.86-1.34-5.51,1.83,3.52,3.71,7,5.79,10.38S136.72,182.57,139.35,185.57Zm-12.23-22a.49.49,0,0,0-.78-.09c-1.46,2,.52,6.27,1.08,8.33s1,3.88,1.51,5.83c.3,1.33.35,3.46.73,5a.64.64,0,0,0-.16.61l-.06.45c-4-7.63-5.34-16.52-10-24-4.21-6.82-9.91-12.44-15.16-18.43-2.94-3.35-6.53-7-7.73-11.45-.58-2.15-1.12-7.26,2.56-6.57,1.57.29,3.42,1.83,4.69,2.76a99.09,99.09,0,0,1,9.38,8.24,66.64,66.64,0,0,0,6.41,5.66.49.49,0,0,0,0,.51,3.74,3.74,0,0,0,1.27,1.06,8.76,8.76,0,0,1,1.35,1.08.63.63,0,0,0,.68.16,24.47,24.47,0,0,0,9.54,5.88c4.28,1.4,8.79,1.79,13.13,2.93-2.18,1.66-5.21,1.74-7.86,1.81a51.48,51.48,0,0,1-8.14-.45.54.54,0,0,0-.39,0h0a.24.24,0,0,0-.26.14.59.59,0,0,0-.05.94,49.94,49.94,0,0,0,12.84,7.71c4.55,1.85,9.29,3.15,13.56,5.63-1.85.26-4.89-.81-6.25-1.13-2-.48-4.07-1-6.06-1.71s-4.12-1.53-6.13-2.42-4.52-1.57-6.38-3a.33.33,0,0,0-.46.48c5.6,6.82,12.28,13.21,17.1,20.66-3-2.13-5.45-5.06-8-7.75-4-4.22-8-8.53-12.28-12.44,4.65,7.3,8.1,15.05,11.46,22.93-1.53-2.85-3.34-5.6-4.92-8.4C131.3,170.83,129.17,167.22,127.12,163.58Z"/><path class="cls-2" d="M138.05,81.57a.5.5,0,0,0-.48.62c.9,2.28,5.58,2.83,7.61,3.43s3.83,1.12,5.73,1.75c1.28.42,3.11,1.5,4.6,2a.59.59,0,0,0,.42.45l.36.29c-8.57-.52-16.78-4-25.48-4-8,.06-15.71,2-23.51,3.41-4.37.77-9.37,1.93-13.73.65-2.12-.62-6.73-2.82-4.23-5.63,1.06-1.19,3.34-2,4.79-2.59A98.49,98.49,0,0,1,106,78.2a66.76,66.76,0,0,0,8.15-2.55.48.48,0,0,0,.43.25,3.68,3.68,0,0,0,1.56-.54,8.52,8.52,0,0,1,1.62-.6.63.63,0,0,0,.49-.49,24.56,24.56,0,0,0,10-5.13c3.42-3,6.11-6.62,9.34-9.76.27,2.74-1.25,5.39-2.57,7.71a51.78,51.78,0,0,1-4.64,6.75.6.6,0,0,0-.24.31l0,0a.27.27,0,0,0,0,.31.57.57,0,0,0,.77.52,49.68,49.68,0,0,0,13.23-7c3.94-3,7.52-6.34,11.84-8.71-.74,1.72-3.24,3.78-4.22,4.78-1.47,1.51-3,3-4.61,4.32s-3.44,2.73-5.24,4-3.69,3.06-5.91,3.89a.33.33,0,0,0,.17.64c8.69-1.24,17.59-3.65,26.41-3.9-3.38,1.5-7.13,2-10.73,2.83-5.67,1.24-11.4,2.41-17,4,8.61-.18,17,.9,25.4,2.14-3.22-.18-6.49-.06-9.68-.16C146.38,81.76,142.21,81.71,138.05,81.57Z"/><path class="cls-3" d="M163.06,82.54c.15,0,.09-.23,0-.24l-.4,0a.34.34,0,0,0-.12-.6c-6.78-2-14-2.06-21-2.44,3.82-.84,7.63-1.8,11.44-2.71,4-1,8.33-1.65,12-3.56a.53.53,0,0,0-.25-1c-4.61-.3-9.15.55-13.67,1.38s-9,1.67-13.48,2.61c1.89-1.16,4-2,5.81-3.34a85.32,85.32,0,0,0,8.89-7.45,28.94,28.94,0,0,0,2.06-2.22c1.11-1.31,3-2.78,2.9-4.69a.57.57,0,0,0-.84-.5c-4.36,1.93-7.87,5.13-11.55,8.09a46.1,46.1,0,0,1-13.5,7.61A43.35,43.35,0,0,0,136.51,66c1.28-2.32,2.71-4.89,1.74-7.58a.42.42,0,0,0-.7-.19c-3.13,2.84-5.74,6.17-8.77,9.1a26.41,26.41,0,0,1-10.63,6.38.64.64,0,0,0-.75-.31,11.41,11.41,0,0,0-1.82.6,4,4,0,0,0-1,.62c-3.22,1.07-6.38,2.28-9.71,3.1a86.54,86.54,0,0,0-8.47,2.51c-2.67,1-6.63,2-8.88,4-1.84,1.61,0,3.92,1.41,5.1,5,4.18,12.51,2.47,18.3,1.46,7.69-1.33,15.37-3.22,23.21-3.34a61,61,0,0,1,14.09,1.91A89.72,89.72,0,0,0,158,91.38a.63.63,0,0,0,.54-.92A3.28,3.28,0,0,0,157.3,89c-1.39-1.78-5.55-2.73-7.38-3.24s-3.57-.91-5.35-1.4c-1-.27-4-.84-5.37-1.73,3.94.27,7.86.47,11.81.45S159.14,83.24,163.06,82.54Zm-25-1a.5.5,0,0,0-.48.62c.9,2.28,5.58,2.83,7.61,3.43s3.83,1.12,5.73,1.75c1.28.42,3.11,1.5,4.6,2a.59.59,0,0,0,.42.45l.36.29c-8.57-.52-16.78-4-25.48-4-8,.06-15.71,2-23.51,3.41-4.37.77-9.37,1.93-13.73.65-2.12-.62-6.73-2.82-4.23-5.63,1.06-1.19,3.34-2,4.79-2.59A98.49,98.49,0,0,1,106,78.2a66.76,66.76,0,0,0,8.15-2.55.48.48,0,0,0,.43.25,3.68,3.68,0,0,0,1.56-.54,8.52,8.52,0,0,1,1.62-.6.63.63,0,0,0,.49-.49,24.56,24.56,0,0,0,10-5.13c3.42-3,6.11-6.62,9.34-9.76.27,2.74-1.25,5.39-2.57,7.71a51.78,51.78,0,0,1-4.64,6.75.6.6,0,0,0-.24.31l0,0a.27.27,0,0,0,0,.31.57.57,0,0,0,.77.52,49.68,49.68,0,0,0,13.23-7c3.94-3,7.52-6.34,11.84-8.71-.74,1.72-3.24,3.78-4.22,4.78-1.47,1.51-3,3-4.61,4.32s-3.44,2.73-5.24,4-3.69,3.06-5.91,3.89a.33.33,0,0,0,.17.64c8.69-1.24,17.59-3.65,26.41-3.9-3.38,1.5-7.13,2-10.73,2.83-5.67,1.24-11.4,2.41-17,4,8.61-.18,17,.9,25.4,2.14-3.22-.18-6.49-.06-9.68-.16C146.38,81.76,142.21,81.71,138.05,81.57Z"/><path class="cls-2" d="M11.84,37.35c-2.78-1.59-5.51-3.42-8.34-5C11.32,35.78,19,39.26,26.26,43.94c-3.88-4.32-8.16-8.33-12.35-12.37-2.67-2.57-5.58-5-7.69-8.06C13.62,28.36,20,35.1,26.72,40.73a.33.33,0,0,0,.48-.45c-1.46-1.88-2.09-4.28-3-6.43s-1.7-4.08-2.4-6.18-1.22-4-1.69-6.1c-.32-1.37-1.38-4.44-1.12-6.3,2.46,4.29,3.74,9.07,5.58,13.66A50.19,50.19,0,0,0,32.2,41.86a.57.57,0,0,0,.93,0,.26.26,0,0,0,.15-.27v0a.59.59,0,0,0,0-.39,52.24,52.24,0,0,1-.45-8.2c.07-2.67.15-5.73,1.8-7.92,1.12,4.37,1.52,8.92,2.9,13.23a24.79,24.79,0,0,0,5.84,9.62.63.63,0,0,0,.16.68,9.42,9.42,0,0,1,1.07,1.36,3.84,3.84,0,0,0,1.05,1.28.45.45,0,0,0,.5,0,65.91,65.91,0,0,0,5.63,6.47A98,98,0,0,1,59.9,67.1c.92,1.28,2.46,3.15,2.74,4.72.68,3.71-4.39,3.16-6.52,2.58-4.39-1.2-8-4.82-11.37-7.79-5.94-5.28-11.52-11-18.28-15.28-7.39-4.63-16.21-5.95-23.79-10l.46-.07a.55.55,0,0,0,.59-.16c1.52.38,3.64.43,4.95.74,1.94.46,3.86,1,5.79,1.52s6.32,2.56,8.26,1.09a.51.51,0,0,0-.08-.79C19,41.58,15.45,39.43,11.84,37.35Z"/><path class="cls-3" d="M10.8,38.13c3.36,2.1,6.82,4,10.31,5.83-1.64,0-4.51-1.07-5.47-1.35-1.77-.52-3.52-1.11-5.29-1.62s-5.86-1.9-8-1.13a3.23,3.23,0,0,0-1.81.59.63.63,0,0,0,0,1.07,90.24,90.24,0,0,0,12.62,5.34,60.54,60.54,0,0,1,13,5.79c6.63,4.23,12.19,9.88,18.06,15.07,4.42,3.9,10,9.32,16.37,8.38,1.81-.26,4.58-1.26,3.84-3.61-.9-2.85-3.73-5.83-5.52-8A88.19,88.19,0,0,0,53,57.84c-2.42-2.44-4.48-5.14-6.67-7.75A3.88,3.88,0,0,0,45.74,49a10.89,10.89,0,0,0-1.23-1.47.67.67,0,0,0-.81-.14,26.78,26.78,0,0,1-5.76-11c-1.06-4.1-1.56-8.31-2.75-12.38a.42.42,0,0,0-.7-.2c-2.23,1.77-2.34,4.72-2.45,7.37a43.82,43.82,0,0,0,.53,9.09A46.62,46.62,0,0,1,25,26.67c-1.61-4.47-2.93-9-5.65-13a.58.58,0,0,0-1,0c-1.1,1.56-.23,3.83,0,5.52a27.79,27.79,0,0,0,.61,3,86.14,86.14,0,0,0,3.72,11c.88,2.07,2.21,3.91,3.23,5.9-3.34-3.16-6.73-6.25-10.15-9.32S9,23.59,4.88,21.42c-.43-.23-1,.23-.73.7,2.18,3.58,5.51,6.43,8.43,9.37,2.77,2.79,5.52,5.61,8.35,8.34-6.2-3.38-12.37-7.11-19.18-9a.34.34,0,0,0-.42.45L1,31.13c-.11-.05-.27.09-.15.19C3.79,34,7.44,36,10.8,38.13Zm1-.78c-2.78-1.59-5.51-3.42-8.34-5C11.32,35.78,19,39.26,26.26,43.94c-3.88-4.32-8.16-8.33-12.35-12.37-2.67-2.57-5.58-5-7.69-8.06C13.62,28.36,20,35.1,26.72,40.73a.33.33,0,0,0,.48-.45c-1.46-1.88-2.09-4.28-3-6.43s-1.7-4.08-2.4-6.18-1.22-4-1.69-6.1c-.32-1.37-1.38-4.44-1.12-6.3,2.46,4.29,3.74,9.07,5.58,13.66A50.19,50.19,0,0,0,32.2,41.86a.57.57,0,0,0,.93,0,.26.26,0,0,0,.15-.27v0a.59.59,0,0,0,0-.39,52.24,52.24,0,0,1-.45-8.2c.07-2.67.15-5.73,1.8-7.92,1.12,4.37,1.52,8.92,2.9,13.23a24.79,24.79,0,0,0,5.84,9.62.63.63,0,0,0,.16.68,9.42,9.42,0,0,1,1.07,1.36,3.84,3.84,0,0,0,1.05,1.28.45.45,0,0,0,.5,0,65.91,65.91,0,0,0,5.63,6.47A98,98,0,0,1,59.9,67.1c.92,1.28,2.46,3.15,2.74,4.72.68,3.71-4.39,3.16-6.52,2.58-4.39-1.2-8-4.82-11.37-7.79-5.94-5.28-11.52-11-18.28-15.28-7.39-4.63-16.21-5.95-23.79-10l.46-.07a.55.55,0,0,0,.59-.16c1.52.38,3.64.43,4.95.74,1.94.46,3.86,1,5.79,1.52s6.32,2.56,8.26,1.09a.51.51,0,0,0-.08-.79C19,41.58,15.45,39.43,11.84,37.35Z"/><path class="cls-2" d="M32.13,174.47c-1.58,2.8-3.39,5.55-4.92,8.4C30.57,175,34,167.24,38.67,159.94c-4.29,3.91-8.27,8.22-12.28,12.44-2.55,2.69-5,5.62-8,7.75,4.82-7.45,11.5-13.84,17.1-20.66A.33.33,0,0,0,35,159c-1.86,1.47-4.25,2.1-6.38,3s-4,1.72-6.13,2.42-4,1.23-6.06,1.71c-1.36.32-4.4,1.39-6.25,1.13,4.27-2.48,9-3.78,13.56-5.63A49.94,49.94,0,0,0,36.61,154a.59.59,0,0,0,0-.94.24.24,0,0,0-.26-.14h0a.54.54,0,0,0-.39,0,51.48,51.48,0,0,1-8.14.45c-2.65-.07-5.68-.15-7.86-1.81,4.34-1.14,8.85-1.53,13.13-2.93a24.47,24.47,0,0,0,9.54-5.88.63.63,0,0,0,.68-.16,8.76,8.76,0,0,1,1.35-1.08,3.74,3.74,0,0,0,1.27-1.06.49.49,0,0,0,0-.51,66.64,66.64,0,0,0,6.41-5.66A99.09,99.09,0,0,1,61.65,126c1.27-.93,3.12-2.47,4.69-2.76,3.68-.69,3.14,4.42,2.56,6.57-1.2,4.42-4.79,8.1-7.73,11.45-5.25,6-11,11.61-15.16,18.43-4.61,7.44-5.91,16.33-9.95,24l-.06-.45a.64.64,0,0,0-.16-.61c.38-1.52.43-3.65.73-5,.46-2,1-3.89,1.51-5.83s2.54-6.37,1.08-8.33a.49.49,0,0,0-.78.09C36.33,167.22,34.2,170.83,32.13,174.47Z"/><path class="cls-3" d="M32.9,175.51c2.08-3.38,4-6.86,5.79-10.38,0,1.65-1.06,4.54-1.34,5.51-.52,1.78-1.11,3.55-1.61,5.33s-1.89,5.91-1.12,8a3.3,3.3,0,0,0,.58,1.82.62.62,0,0,0,1.07,0,93.08,93.08,0,0,0,5.3-12.71A61.65,61.65,0,0,1,47.31,160c4.19-6.68,9.81-12.29,14.95-18.2,3.88-4.46,9.25-10,8.33-16.49-.26-1.83-1.26-4.62-3.59-3.87-2.83.9-5.79,3.75-8,5.56a87.92,87.92,0,0,0-6.55,6c-2.42,2.43-5.1,4.51-7.69,6.71a3.85,3.85,0,0,0-1.07.59,10.76,10.76,0,0,0-1.46,1.24.67.67,0,0,0-.13.82,26.72,26.72,0,0,1-10.95,5.8c-4.07,1.07-8.25,1.57-12.29,2.77a.44.44,0,0,0-.2.71c1.77,2.24,4.7,2.35,7.32,2.47a43.11,43.11,0,0,0,9-.54,46.14,46.14,0,0,1-13.49,7.63c-4.43,1.62-9,2.95-12.87,5.69a.58.58,0,0,0,0,1c1.56,1.11,3.8.23,5.48,0a27.44,27.44,0,0,0,3-.61A84.47,84.47,0,0,0,28,163.49c2.06-.89,3.89-2.23,5.86-3.26-3.13,3.37-6.2,6.78-9.25,10.23s-6.15,6.9-8.3,11c-.23.44.22,1,.7.74,3.55-2.2,6.38-5.55,9.3-8.5,2.76-2.79,5.56-5.56,8.27-8.41-3.35,6.24-7.06,12.46-8.91,19.32a.34.34,0,0,0,.44.43c-.05.12-.11.24-.17.36s.1.27.2.15C28.78,182.57,30.81,178.91,32.9,175.51Zm-.77-1c-1.58,2.8-3.39,5.55-4.92,8.4C30.57,175,34,167.24,38.67,159.94c-4.29,3.91-8.27,8.22-12.28,12.44-2.55,2.69-5,5.62-8,7.75,4.82-7.45,11.5-13.84,17.1-20.66A.33.33,0,0,0,35,159c-1.86,1.47-4.25,2.1-6.38,3s-4,1.72-6.13,2.42-4,1.23-6.06,1.71c-1.36.32-4.4,1.39-6.25,1.13,4.27-2.48,9-3.78,13.56-5.63A49.94,49.94,0,0,0,36.61,154a.59.59,0,0,0,0-.94.24.24,0,0,0-.26-.14h0a.54.54,0,0,0-.39,0,51.48,51.48,0,0,1-8.14.45c-2.65-.07-5.68-.15-7.86-1.81,4.34-1.14,8.85-1.53,13.13-2.93a24.47,24.47,0,0,0,9.54-5.88.63.63,0,0,0,.68-.16,8.76,8.76,0,0,1,1.35-1.08,3.74,3.74,0,0,0,1.27-1.06.49.49,0,0,0,0-.51,66.64,66.64,0,0,0,6.41-5.66A99.09,99.09,0,0,1,61.65,126c1.27-.93,3.12-2.47,4.69-2.76,3.68-.69,3.14,4.42,2.56,6.57-1.2,4.42-4.79,8.1-7.73,11.45-5.25,6-11,11.61-15.16,18.43-4.61,7.44-5.91,16.33-9.95,24l-.06-.45a.64.64,0,0,0-.16-.61c.38-1.52.43-3.65.73-5,.46-2,1-3.89,1.51-5.83s2.54-6.37,1.08-8.33a.49.49,0,0,0-.78.09C36.33,167.22,34.2,170.83,32.13,174.47Z"/><path class="cls-2" d="M15,81.89c-3.19.1-6.46,0-9.68.16,8.43-1.24,16.79-2.32,25.4-2.14-5.55-1.64-11.28-2.81-16.95-4C10.13,75.07,6.38,74.53,3,73c8.82.25,17.72,2.66,26.41,3.9a.33.33,0,0,0,.17-.64c-2.22-.83-4-2.55-5.91-3.89s-3.56-2.58-5.24-4-3.14-2.81-4.61-4.32c-1-1-3.48-3.06-4.22-4.78,4.32,2.37,7.9,5.76,11.84,8.71a49.68,49.68,0,0,0,13.23,7,.57.57,0,0,0,.77-.52.27.27,0,0,0,0-.31l0,0a.6.6,0,0,0-.24-.31,51.78,51.78,0,0,1-4.64-6.75c-1.32-2.32-2.84-5-2.57-7.71,3.23,3.14,5.92,6.81,9.34,9.76a24.56,24.56,0,0,0,10,5.13.63.63,0,0,0,.49.49,8.52,8.52,0,0,1,1.62.6,3.68,3.68,0,0,0,1.56.54.48.48,0,0,0,.43-.25A66.76,66.76,0,0,0,59.5,78.2,98.49,98.49,0,0,1,71.37,82c1.45.62,3.73,1.4,4.79,2.59,2.5,2.81-2.11,5-4.23,5.63-4.36,1.28-9.36.12-13.73-.65-7.8-1.39-15.54-3.35-23.51-3.41-8.7-.07-16.91,3.45-25.48,4l.36-.29a.59.59,0,0,0,.42-.45c1.49-.47,3.32-1.55,4.6-2,1.9-.63,3.81-1.19,5.73-1.75s6.71-1.15,7.61-3.43a.5.5,0,0,0-.48-.62C23.29,81.71,19.12,81.76,15,81.89Z"/><path class="cls-3" d="M14.49,83.09c4,0,7.87-.18,11.81-.45-1.39.89-4.4,1.46-5.37,1.73-1.78.49-3.58.9-5.35,1.4S9.59,87.23,8.2,89A3.28,3.28,0,0,0,7,90.46a.63.63,0,0,0,.54.92A89.72,89.72,0,0,0,21,89.3a61,61,0,0,1,14.09-1.91c7.84.12,15.52,2,23.21,3.34,5.79,1,13.31,2.72,18.3-1.46,1.42-1.18,3.25-3.49,1.41-5.1-2.25-2-6.21-3-8.88-4a86.54,86.54,0,0,0-8.47-2.51c-3.33-.82-6.49-2-9.71-3.1a4,4,0,0,0-1-.62,11.41,11.41,0,0,0-1.82-.6.64.64,0,0,0-.75.31,26.41,26.41,0,0,1-10.63-6.38c-3-2.93-5.64-6.26-8.77-9.1a.42.42,0,0,0-.7.19c-1,2.69.46,5.26,1.74,7.58a43.35,43.35,0,0,0,5.16,7.47,46.1,46.1,0,0,1-13.5-7.61c-3.68-3-7.19-6.16-11.55-8.09a.57.57,0,0,0-.84.5c-.13,1.91,1.79,3.38,2.9,4.69a28.94,28.94,0,0,0,2.06,2.22,85.32,85.32,0,0,0,8.89,7.45C23.94,73.92,26,74.79,27.92,76c-4.48-.94-9-1.79-13.48-2.61S5.38,71.66.77,72a.53.53,0,0,0-.25,1c3.71,1.91,8,2.59,12,3.56,3.81.91,7.62,1.87,11.44,2.71-7,.38-14.23.45-21,2.44a.34.34,0,0,0-.12.6l-.4,0c-.12,0-.18.22,0,.24C6.36,83.24,10.52,83.06,14.49,83.09Zm.47-1.2c-3.19.1-6.46,0-9.68.16,8.43-1.24,16.79-2.32,25.4-2.14-5.55-1.64-11.28-2.81-16.95-4C10.13,75.07,6.38,74.53,3,73c8.82.25,17.72,2.66,26.41,3.9a.33.33,0,0,0,.17-.64c-2.22-.83-4-2.55-5.91-3.89s-3.56-2.58-5.24-4-3.14-2.81-4.61-4.32c-1-1-3.48-3.06-4.22-4.78,4.32,2.37,7.9,5.76,11.84,8.71a49.68,49.68,0,0,0,13.23,7,.57.57,0,0,0,.77-.52.27.27,0,0,0,0-.31l0,0a.6.6,0,0,0-.24-.31,51.78,51.78,0,0,1-4.64-6.75c-1.32-2.32-2.84-5-2.57-7.71,3.23,3.14,5.92,6.81,9.34,9.76a24.56,24.56,0,0,0,10,5.13.63.63,0,0,0,.49.49,8.52,8.52,0,0,1,1.62.6,3.68,3.68,0,0,0,1.56.54.48.48,0,0,0,.43-.25A66.76,66.76,0,0,0,59.5,78.2,98.49,98.49,0,0,1,71.37,82c1.45.62,3.73,1.4,4.79,2.59,2.5,2.81-2.11,5-4.23,5.63-4.36,1.28-9.36.12-13.73-.65-7.8-1.39-15.54-3.35-23.51-3.41-8.7-.07-16.91,3.45-25.48,4l.36-.29a.59.59,0,0,0,.42-.45c1.49-.47,3.32-1.55,4.6-2,1.9-.63,3.81-1.19,5.73-1.75s6.71-1.15,7.61-3.43a.5.5,0,0,0-.48-.62C23.29,81.71,19.12,81.76,15,81.89Z"/><rect class="cls-2" x="48.03" y="38.47" width="69.34" height="141.78"/><path d="M116.38,39.47V179.25H49V39.47h67.35m2-2H47V181.25h71.35V37.47Z"/><g class="cls-4"><line class="cls-5" x1="57.35" y1="116.22" x2="21.4" y2="116.22"/><line class="cls-5" x1="122.16" y1="116.22" x2="57.35" y2="189.42"/><polyline class="cls-5" points="134.17 82.32 69.36 155.52 69.36 82.32 33.41 82.32"/><polyline class="cls-5" points="140.17 26.61 75.36 99.81 75.36 26.61"/><line class="cls-5" x1="113.3" y1="56.96" x2="113.3" y2="99.81"/><polyline class="cls-5" points="81.36 121.62 81.36 48.42 45.41 48.42"/><line class="cls-5" x1="119.3" y1="78.77" x2="119.3" y2="121.62"/><line class="cls-5" x1="110.22" y1="116.22" x2="146.17" y2="116.22"/><line class="cls-5" x1="45.41" y1="116.22" x2="110.22" y2="189.42"/><polyline class="cls-5" points="98.22 155.52 98.22 82.32 134.17 82.32"/><line class="cls-5" x1="60.28" y1="112.67" x2="60.28" y2="172.35"/><polyline class="cls-5" points="27.41 65.37 92.21 138.57 92.21 65.37 128.16 65.37"/><line class="cls-5" x1="54.28" y1="95.72" x2="54.28" y2="138.57"/><polyline class="cls-5" points="21.4 48.42 86.21 121.62 86.21 48.42 122.16 48.42"/><line class="cls-5" x1="48.27" y1="78.77" x2="48.27" y2="121.62"/></g><path class="cls-2" d="M64.09,139a1.11,1.11,0,0,0-.71.54,11.78,11.78,0,0,1-10.79,6h-.43l-.52,0-.56-.05a18.83,18.83,0,0,1-3.26-.6c-6.26-1.71-10-6.32-10.24-12.82a13.5,13.5,0,0,1,2-7.45A29,29,0,0,1,47.09,118c5.94-2.61,13.17-1.7,17,5.15A17.37,17.37,0,0,1,64.09,139Z"/><path d="M52.49,114.12c-5.19.22-11,4-14.18,8.06s-3.45,10.4-1.88,15.2c3.8,11.68,23.27,15.36,29,3.29a1.54,1.54,0,0,0,.1-.35c.21-.34.42-.68.61-1C71.12,129.48,64.56,113.62,52.49,114.12ZM64.09,139a1.11,1.11,0,0,0-.71.54,11.78,11.78,0,0,1-10.79,6h-.43l-.52,0-.56-.05a18.83,18.83,0,0,1-3.26-.6c-6.26-1.71-10-6.32-10.24-12.82a13.5,13.5,0,0,1,2-7.45A29,29,0,0,1,47.09,118c5.94-2.61,13.17-1.7,17,5.15A17.37,17.37,0,0,1,64.09,139Z"/><path d="M57.91,127.64c-1.51-3.1-6.94-4.75-9.21-2.09a1,1,0,0,0-.21.64c-2.6.66-3.65,5-2.43,7.67,1.81,4,6.34,4.42,9.61,2.95C58.79,135.4,59.46,130.84,57.91,127.64Zm-2.7,7.92c-1.29,1-2.45,1.64-4,1.15a5,5,0,0,1-3.46-2.91c-1.28-2.8.2-4.94,2.07-6.55a.38.38,0,0,0,.11-.11c1.64-.27,3.51-.69,5.08-.22,1.84.54,2.28,2.34,2.31,4.23A4.51,4.51,0,0,1,55.21,135.56Z"/><path class="cls-2" d="M101.36,123.13c3.79-6.85,11-7.76,17-5.15a29,29,0,0,1,7.55,6.56,13.59,13.59,0,0,1,2,7.45c-.23,6.5-4,11.11-10.24,12.82a19.11,19.11,0,0,1-3.27.6l-.56.05-.52,0h-.43a11.78,11.78,0,0,1-10.79-6,1.11,1.11,0,0,0-.71-.54A17.37,17.37,0,0,1,101.36,123.13Z"/><path d="M99.32,139.27a11.92,11.92,0,0,0,.6,1,1.18,1.18,0,0,0,.11.35c5.68,12.07,25.15,8.39,28.95-3.29,1.57-4.8,1.37-11.14-1.88-15.2s-9-7.84-14.18-8.06C100.85,113.62,94.29,129.48,99.32,139.27Zm2-16.14c3.79-6.85,11-7.76,17-5.15a29,29,0,0,1,7.55,6.56,13.59,13.59,0,0,1,2,7.45c-.23,6.5-4,11.11-10.24,12.82a19.11,19.11,0,0,1-3.27.6l-.56.05-.52,0h-.43a11.78,11.78,0,0,1-10.79-6,1.11,1.11,0,0,0-.71-.54A17.37,17.37,0,0,1,101.36,123.13Z"/><path d="M110.1,136.7c3.27,1.47,7.8,1.05,9.62-2.95,1.22-2.68.17-7-2.43-7.67a1.09,1.09,0,0,0-.21-.64c-2.27-2.65-7.71-1-9.22,2.09S107,135.3,110.1,136.7ZM108.47,131c0-1.88.48-3.68,2.32-4.23,1.57-.46,3.45,0,5.09.22l.1.12c1.88,1.6,3.36,3.74,2.08,6.54a5,5,0,0,1-3.47,2.91c-1.58.49-2.74-.15-4-1.15A4.54,4.54,0,0,1,108.47,131Z"/></g></g></svg>