<svg xmlns="http://www.w3.org/2000/svg" xmlns:xlink="http://www.w3.org/1999/xlink" viewBox="0 0 165.5 200"><defs><style>.cls-1,.cls-5{fill:none;}.cls-2{fill:#fff;}.cls-3,.cls-5{stroke:#000;stroke-miterlimit:10;}.cls-3{stroke-width:0.5px;}.cls-4{clip-path:url(#clip-path);}.cls-5{stroke-width:2px;}</style><clipPath id="clip-path"><rect class="cls-1" x="10.84" y="76.8" width="143.82" height="71.31" transform="translate(195.21 29.71) rotate(90)"/></clipPath></defs><title>T_token_b3_baby</title><g id="Layer_2" data-name="Layer 2"><g id="T_token_b3_baby"><path class="cls-2" d="M81.31,2.4a6.42,6.42,0,0,1,3.88-.54c1.7.36,2.79,2.07,3.26,3.68a17.48,17.48,0,0,0,.65,3,29.42,29.42,0,0,0-7.62-.35c-.83.06-1.66.16-2.49.29C79.33,6.16,78.55,3.66,81.31,2.4Z"/><path class="cls-2" d="M68.07,16.19c4.28-3.67,10.16-5.09,15.66-5.11,6.36,0,11.86,2.07,15.73,7.27.45.61.85,1.22,1.24,1.83-3.28-1.84-7.76-1.47-11.86-1-.64-6.52-10.48-5.36-12.54,0a.55.55,0,0,0,.29.69c-4,.09-8,.17-12,.46A17.45,17.45,0,0,1,68.07,16.19Z"/><path class="cls-2" d="M88.19,19.25c-1.47.17-2.89.34-4.17.4-2.23.11-4.48.18-6.72.23a.45.45,0,0,0,.15-.18C79.84,15.16,85.38,15.57,88.19,19.25Z"/><path class="cls-2" d="M60.34,22.56c-1.82-1.38-4.69-2.88-3.86-5.53,1.17-3.72,5.23-2.57,7.58-.87A20,20,0,0,0,60.34,22.56Z"/><path class="cls-2" d="M96.83,28.39c-3.92-.26-7.85-.18-11.77-.14-7.65.06-15.58-.26-23.19.62.64-2.36.74-4.7,1.84-7,12.35-.06,24.5-1.59,36.83-.47a.54.54,0,0,0,.59-.53,77.3,77.3,0,0,1,4.3,9.36C103.17,28.52,99.6,28.56,96.83,28.39Z"/><path class="cls-2" d="M104.92,22a30.5,30.5,0,0,0-3.22-5.7c2-1.95,7.34-5.82,7.92-.71C110,18.66,107.5,21,104.92,22Z"/><path class="cls-2" d="M82.75,199a14.64,14.64,0,1,1,14.5-14.63A14.58,14.58,0,0,1,82.75,199Z"/><path d="M82.75,170.73a13.64,13.64,0,1,1-13.5,13.64,13.58,13.58,0,0,1,13.5-13.64m0-2a15.64,15.64,0,1,0,15.5,15.64,15.57,15.57,0,0,0-15.5-15.64Z"/><path class="cls-2" d="M123.63,96.54l-.11.09a.57.57,0,0,0,.32.94c1.4.29,2.78.64,4.15,1a17.59,17.59,0,0,0-3.16-.55,1.8,1.8,0,0,0-1.49.39c-.88.91.11,1.87.81,2.33a35.16,35.16,0,0,0,7.66,3.21c3,1,6,1.9,9.06,2.79,5.57,1.64,11.71,3.12,16.57,6.38a10.23,10.23,0,0,1-5.6-.74c-2.25-.76-4.51-1.51-6.79-2.18-4.73-1.38-9.56-2.09-14.37-3.15a.4.4,0,0,0-.38.6c2.62,3.44,6.74,4.62,10.63,6.14a47,47,0,0,1,12.82,7.85c-1.95,1.53-5.7-1.19-7.28-2-2-1-4.07-2.07-6.12-3.06a92.38,92.38,0,0,0-12.68-5.13.52.52,0,0,0-.68.38c-.5,2,1,3.28,2,4.76,1.62,2.42,3.08,5,4.64,7.42-2.3-.47-10.71-9.83-11.63-10.69-2.73-2.55-5.93-4.72-9.66-5.21-4.16-1.37-8.33-2.62-12.4-4.21s-8.78-3.12-12.4-5.66a4.71,4.71,0,0,1-2.22-3.62c-.05-2.31,2-3.09,3.88-3.45a31.78,31.78,0,0,1,6.84-.8,58.5,58.5,0,0,1,8,1c3.17,1,6.57,1.52,9.81,2.32,2,.51,4,1.05,6,1.66C121.07,95.75,122.32,96.27,123.63,96.54Z"/><path class="cls-2" d="M138.36,103.84a4.84,4.84,0,0,1-1.61.07.64.64,0,0,0-.6.28l-1.52-.47c-2.09-.66-4.16-1.37-6.19-2.19a10.84,10.84,0,0,1-3-1.3c-.89-.11-1-.6-.48-1.46l1.61.39q3.57.89,7.08,1.91C135.24,101.53,137.86,102,138.36,103.84Z"/><path class="cls-2" d="M138.32,97.36l.66,1.55-.67.25a6.83,6.83,0,0,1-2.21.47,64.93,64.93,0,0,0-10.73-2.95c2.31-1.07,6.32-.53,8.24-.3C134.8,96.52,137.41,96.61,138.32,97.36Z"/><path class="cls-3" d="M138,96.07a28,28,0,0,0-8.56-1,11.23,11.23,0,0,0-4.89.81c-2.68-1.64-6.25-2.28-9.28-3.1a51.88,51.88,0,0,0-10.27-2c-4-1-8.24-.75-12.44-.38-3.26.29-8.94.51-8.25,5.4A6.25,6.25,0,0,0,87.64,100a61.93,61.93,0,0,0,8.09,3.76,128.92,128.92,0,0,0,14,5.15.53.53,0,0,0,.46.42c6.44.69,10.65,5,14.85,9.43,1.27,1.32,7.92,9.2,10,6a.71.71,0,0,0,.06-.8c-1.35-1.9-2.73-3.73-4.14-5.56-1.08-1.39-3.21-3.71-3.13-5.78A119,119,0,0,1,144,119.93c2.26,1.16,4.61,2.71,7.07,3.43a3.26,3.26,0,0,0,4.07-1.49.61.61,0,0,0-.14-.72,12.25,12.25,0,0,0-3.15-2.23,44.62,44.62,0,0,0-8.33-5c-4-1.86-8.59-2.85-11.83-6a110.1,110.1,0,0,1,16.45,4.59c3.44,1.16,7.43,3.35,11.13,1.27a.68.68,0,0,0-.07-1.16,104.34,104.34,0,0,0-11.94-5.16c-2.68-.9-5.4-1.68-8.12-2.47l.24-.08a.77.77,0,0,0,.47-.75,3.84,3.84,0,0,0-2.72-3.36.68.68,0,0,0,.12-.22c1.37-.09,2.93-.57,3.41-1.71C141.41,97.15,139.22,96.42,138,96.07Zm-14.39.47-.11.09a.57.57,0,0,0,.32.94c1.4.29,2.78.64,4.15,1a17.59,17.59,0,0,0-3.16-.55,1.8,1.8,0,0,0-1.49.39c-.88.91.11,1.87.81,2.33a35.16,35.16,0,0,0,7.66,3.21c3,1,6,1.9,9.06,2.79,5.57,1.64,11.71,3.12,16.57,6.38a10.23,10.23,0,0,1-5.6-.74c-2.25-.76-4.51-1.51-6.79-2.18-4.73-1.38-9.56-2.09-14.37-3.15a.4.4,0,0,0-.38.6c2.62,3.44,6.74,4.62,10.63,6.14a47,47,0,0,1,12.82,7.85c-1.95,1.53-5.7-1.19-7.28-2-2-1-4.07-2.07-6.12-3.06a92.38,92.38,0,0,0-12.68-5.13.52.52,0,0,0-.68.38c-.5,2,1,3.28,2,4.76,1.62,2.42,3.08,5,4.64,7.42-2.3-.47-10.71-9.83-11.63-10.69-2.73-2.55-5.93-4.72-9.66-5.21-4.16-1.37-8.33-2.62-12.4-4.21s-8.78-3.12-12.4-5.66a4.71,4.71,0,0,1-2.22-3.62c-.05-2.31,2-3.09,3.88-3.45a31.78,31.78,0,0,1,6.84-.8,58.5,58.5,0,0,1,8,1c3.17,1,6.57,1.52,9.81,2.32,2,.51,4,1.05,6,1.66C121.07,95.75,122.32,96.27,123.63,96.54Zm14.73,7.3a4.84,4.84,0,0,1-1.61.07.64.64,0,0,0-.6.28l-1.52-.47c-2.09-.66-4.16-1.37-6.19-2.19a10.84,10.84,0,0,1-3-1.3c-.89-.11-1-.6-.48-1.46l1.61.39q3.57.89,7.08,1.91C135.24,101.53,137.86,102,138.36,103.84Zm0-6.48.66,1.55-.67.25a6.83,6.83,0,0,1-2.21.47,64.93,64.93,0,0,0-10.73-2.95c2.31-1.07,6.32-.53,8.24-.3C134.8,96.52,137.41,96.61,138.32,97.36Z"/><path class="cls-2" d="M123.62,91c-2,.4-4.06.75-6.1,1-3.29.47-6.7.64-10,1.33a55.77,55.77,0,0,1-8,.16A29.22,29.22,0,0,1,93.06,92c-1.78-.55-3.67-1.55-3.26-3.87a5.12,5.12,0,0,1,2.73-3.42c3.93-2.18,8.72-3.24,13-4.43s8.5-2,12.76-3c3.73-.12,7.19-2,10.25-4.26,1-.78,10.7-9.33,13-9.57-1.91,2.32-3.73,4.72-5.68,7-1.19,1.39-2.84,2.52-2.66,4.59a.48.48,0,0,0,.6.46A92.46,92.46,0,0,0,147,71.68c2.16-.79,4.3-1.63,6.46-2.45,1.66-.63,5.74-3,7.41-1.23a48.85,48.85,0,0,1-13.74,6.58c-4,1.13-8.24,1.9-11.34,5.1-.21.22,0,.68.28.64,4.86-.57,9.69-.8,14.53-1.7,2.34-.43,4.66-1,7-1.5a10,10,0,0,1,5.58-.16c-5.25,2.78-11.47,3.64-17.17,4.72-3.1.59-6.21,1.15-9.28,1.88a35.76,35.76,0,0,0-8,2.44c-.76.39-1.87,1.26-1.15,2.27a1.63,1.63,0,0,0,1.39.54,17.16,17.16,0,0,0,3.17-.23c-1.39.24-2.79.44-4.2.59a.61.61,0,0,0-.46.92l.09.1C126.23,90.33,124.92,90.72,123.62,91Z"/><path class="cls-2" d="M138.05,86.66q-3.6.66-7.21,1.19l-1.64.23c-.42-.92-.19-1.4.69-1.42a11.23,11.23,0,0,1,3.13-1c2.11-.62,4.24-1.12,6.39-1.57l1.55-.31a.59.59,0,0,0,.55.33,4.33,4.33,0,0,1,1.56.25C142.3,86.16,139.66,86.36,138.05,86.66Z"/><path class="cls-2" d="M137.28,91.38c-1.92,0-5.92.17-8-1.15a65.15,65.15,0,0,0,10.94-1.87,6.83,6.83,0,0,1,2.09.7l.61.33c-.29.5-.59,1-.89,1.49C141,91.54,138.45,91.36,137.28,91.38Z"/><path class="cls-3" d="M144.55,89.52c-.29-1.2-1.75-1.85-3.07-2.08a.63.63,0,0,0-.08-.23,4.16,4.16,0,0,0,3.18-3.11.75.75,0,0,0-.35-.8l-.22-.1c2.78-.52,5.56-1,8.32-1.66a104.22,104.22,0,0,0,12.46-4,.71.71,0,0,0,.24-1.16c-3.28-2.48-7.52-.68-11.06.14a109.85,109.85,0,0,1-16.79,2.93c3.65-2.79,8.28-3.32,12.49-4.78a46,46,0,0,0,8.9-4.15A13,13,0,0,0,162,68.63a.68.68,0,0,0,.25-.72A3,3,0,0,0,158.5,66c-2.52.47-5.05,1.79-7.44,2.73a121.76,121.76,0,0,1-16.9,5.72c.24-2.09,2.68-4.21,4-5.5,1.67-1.7,3.3-3.4,4.9-5.18a.71.71,0,0,0,.07-.81c-1.57-3.44-9.29,3.81-10.74,5-4.78,4-9.57,7.92-16,8a.59.59,0,0,0-.52.38,129.81,129.81,0,0,0-14.45,3.74,65.11,65.11,0,0,0-8.49,3A6.76,6.76,0,0,0,89,87c-1.43,4.85,4.09,5.65,7.22,6.28,4,.81,8.17,1.45,12.22.89a50.4,50.4,0,0,0,10.34-1c3.09-.51,6.68-.79,9.55-2.17A10.32,10.32,0,0,0,133,92.29a26.77,26.77,0,0,0,8.52-.15C142.76,91.92,145,91.41,144.55,89.52ZM123.62,91c-2,.4-4.06.75-6.1,1-3.29.47-6.7.64-10,1.33a55.77,55.77,0,0,1-8,.16A29.22,29.22,0,0,1,93.06,92c-1.78-.55-3.67-1.55-3.26-3.87a5.12,5.12,0,0,1,2.73-3.42c3.93-2.18,8.72-3.24,13-4.43s8.5-2,12.76-3c3.73-.12,7.19-2,10.25-4.26,1-.78,10.7-9.33,13-9.57-1.91,2.32-3.73,4.72-5.68,7-1.19,1.39-2.84,2.52-2.66,4.59a.48.48,0,0,0,.6.46A92.46,92.46,0,0,0,147,71.68c2.16-.79,4.3-1.63,6.46-2.45,1.66-.63,5.74-3,7.41-1.23a48.85,48.85,0,0,1-13.74,6.58c-4,1.13-8.24,1.9-11.34,5.1-.21.22,0,.68.28.64,4.86-.57,9.69-.8,14.53-1.7,2.34-.43,4.66-1,7-1.5a10,10,0,0,1,5.58-.16c-5.25,2.78-11.47,3.64-17.17,4.72-3.1.59-6.21,1.15-9.28,1.88a35.76,35.76,0,0,0-8,2.44c-.76.39-1.87,1.26-1.15,2.27a1.63,1.63,0,0,0,1.39.54,17.16,17.16,0,0,0,3.17-.23c-1.39.24-2.79.44-4.2.59a.61.61,0,0,0-.46.92l.09.1C126.23,90.33,124.92,90.72,123.62,91Zm14.43-4.32q-3.6.66-7.21,1.19l-1.64.23c-.42-.92-.19-1.4.69-1.42a11.23,11.23,0,0,1,3.13-1c2.11-.62,4.24-1.12,6.39-1.57l1.55-.31a.59.59,0,0,0,.55.33,4.33,4.33,0,0,1,1.56.25C142.3,86.16,139.66,86.36,138.05,86.66Zm-.77,4.72c-1.92,0-5.92.17-8-1.15a65.15,65.15,0,0,0,10.94-1.87,6.83,6.83,0,0,1,2.09.7l.61.33c-.29.5-.59,1-.89,1.49C141,91.54,138.45,91.36,137.28,91.38Z"/><path class="cls-2" d="M126,66.38c-1.68,1.26-3.4,2.46-5.15,3.62-2.81,1.87-5.85,3.51-8.54,5.56a60.54,60.54,0,0,1-7.19,3.63,29.89,29.89,0,0,1-6.55,1.48c-1.84.27-4,.19-4.48-2.11a5.37,5.37,0,0,1,1.15-4.3c2.73-3.7,6.69-6.76,10.11-9.7s7-5.55,10.47-8.27c3.35-1.74,5.78-4.94,7.67-8.36.64-1.15,6.11-13.17,8.14-14.4-.84,2.95-1.56,5.93-2.45,8.85-.55,1.78-1.61,3.54-.64,5.34a.46.46,0,0,0,.73.15,99,99,0,0,0,10.5-9.27c1.66-1.66,3.28-3.37,4.92-5.05,1.27-1.3,4.08-5.22,6.27-4.36a52,52,0,0,1-9.94,12c-3.24,2.79-6.77,5.33-8.34,9.6-.11.29.23.63.5.46,4.21-2.65,8.52-5,12.57-7.89,2-1.42,3.87-2.91,5.77-4.42a10.31,10.31,0,0,1,5-2.58c-3.7,4.83-9,8.32-13.81,11.8-2.59,1.89-5.2,3.76-7.72,5.77a37.93,37.93,0,0,0-6.31,5.71c-.54.69-1.21,2-.17,2.57a1.65,1.65,0,0,0,1.48-.12,17.88,17.88,0,0,0,2.8-1.59c-1.18.82-2.37,1.62-3.6,2.37a.61.61,0,0,0-.06,1,.67.67,0,0,0,.12.06C128.16,64.65,127.13,65.58,126,66.38Z"/><path class="cls-2" d="M137.5,56.15q-3,2.18-6.1,4.23l-1.41.93c-.73-.67-.71-1.2.08-1.6a11.86,11.86,0,0,1,2.46-2.28c1.68-1.49,3.43-2.87,5.21-4.22l1.29-1a.56.56,0,0,0,.63.06,4.59,4.59,0,0,1,1.52-.45C141.18,53.83,138.85,55.17,137.5,56.15Z"/><path class="cls-2" d="M138.64,60.78c-1.73.87-5.33,2.74-7.74,2.45a66.89,66.89,0,0,0,9.23-6.48,6.33,6.33,0,0,1,2.18-.27l.68,0c-.07.58-.15,1.16-.22,1.74C142.11,59.29,139.7,60.25,138.64,60.78Z"/><path class="cls-3" d="M144.54,55.91c-.74-1-2.32-.92-3.61-.55a.69.69,0,0,0-.16-.18A4.39,4.39,0,0,0,142.45,51a.7.7,0,0,0-.62-.57h-.25c2.33-1.69,4.67-3.36,6.94-5.14a113.17,113.17,0,0,0,9.79-9.06c.32-.32.29-1.06-.22-1.16-4-.83-7.12,2.66-10,4.95a114.77,114.77,0,0,1-14.15,10c2.24-4.13,6.25-6.63,9.51-9.8a49.63,49.63,0,0,0,6.5-7.67,14.34,14.34,0,0,0,2.37-3.25.68.68,0,0,0,0-.76c-1.23-1.29-2.78-1.1-4.16-.11-2.12,1.53-3.9,3.84-5.72,5.74A128.08,128.08,0,0,1,129.2,46.72c-.59-2,.8-5,1.45-6.73.86-2.28,1.68-4.54,2.45-6.86a.73.73,0,0,0-.25-.77c-2.78-2.45-7,7.53-7.83,9.26-2.8,5.74-5.63,11.4-11.43,14.23a.61.61,0,0,0-.33.57,139.35,139.35,0,0,0-11.71,9.72A68.43,68.43,0,0,0,95,72.54a7.18,7.18,0,0,0-2,5.28c.58,5,5.92,3.36,9,2.56,4-1,8-2.23,11.48-4.52a52,52,0,0,0,9-5.41c2.62-1.81,5.78-3.64,7.85-6.15,1.57.29,3.27-.35,4.75-.82a27.74,27.74,0,0,0,7.71-3.86C143.84,58.88,145.7,57.43,144.54,55.91ZM126,66.38c-1.68,1.26-3.4,2.46-5.15,3.62-2.81,1.87-5.85,3.51-8.54,5.56a60.54,60.54,0,0,1-7.19,3.63,29.89,29.89,0,0,1-6.55,1.48c-1.84.27-4,.19-4.48-2.11a5.37,5.37,0,0,1,1.15-4.3c2.73-3.7,6.69-6.76,10.11-9.7s7-5.55,10.47-8.27c3.35-1.74,5.78-4.94,7.67-8.36.64-1.15,6.11-13.17,8.14-14.4-.84,2.95-1.56,5.93-2.45,8.85-.55,1.78-1.61,3.54-.64,5.34a.46.46,0,0,0,.73.15,99,99,0,0,0,10.5-9.27c1.66-1.66,3.28-3.37,4.92-5.05,1.27-1.3,4.08-5.22,6.27-4.36a52,52,0,0,1-9.94,12c-3.24,2.79-6.77,5.33-8.34,9.6-.11.29.23.63.5.46,4.21-2.65,8.52-5,12.57-7.89,2-1.42,3.87-2.91,5.77-4.42a10.31,10.31,0,0,1,5-2.58c-3.7,4.83-9,8.32-13.81,11.8-2.59,1.89-5.2,3.76-7.72,5.77a37.93,37.93,0,0,0-6.31,5.71c-.54.69-1.21,2-.17,2.57a1.65,1.65,0,0,0,1.48-.12,17.88,17.88,0,0,0,2.8-1.59c-1.18.82-2.37,1.62-3.6,2.37a.61.61,0,0,0-.06,1,.67.67,0,0,0,.12.06C128.16,64.65,127.13,65.58,126,66.38ZM137.5,56.15q-3,2.18-6.1,4.23l-1.41.93c-.73-.67-.71-1.2.08-1.6a11.86,11.86,0,0,1,2.46-2.28c1.68-1.49,3.43-2.87,5.21-4.22l1.29-1a.56.56,0,0,0,.63.06,4.59,4.59,0,0,1,1.52-.45C141.18,53.83,138.85,55.17,137.5,56.15Zm1.14,4.63c-1.73.87-5.33,2.74-7.74,2.45a66.89,66.89,0,0,0,9.23-6.48,6.33,6.33,0,0,1,2.18-.27l.68,0c-.07.58-.15,1.16-.22,1.74C142.11,59.29,139.7,60.25,138.64,60.78Z"/><path class="cls-2" d="M45.7,95.37c2-.61,4-1.15,6-1.66,3.24-.8,6.64-1.31,9.81-2.32a58.5,58.5,0,0,1,8-1,31.78,31.78,0,0,1,6.84.8c1.87.36,3.93,1.14,3.88,3.45A4.71,4.71,0,0,1,78,98.28c-3.62,2.54-8.29,4.06-12.4,5.66s-8.24,2.84-12.4,4.21c-3.73.49-6.93,2.66-9.66,5.21-.92.86-9.33,10.22-11.63,10.69,1.56-2.47,3-5,4.64-7.42,1-1.48,2.47-2.75,2-4.76a.52.52,0,0,0-.68-.38,92.38,92.38,0,0,0-12.68,5.13c-2,1-4.08,2-6.12,3.06-1.58.78-5.33,3.5-7.28,2a47,47,0,0,1,12.82-7.85c3.89-1.52,8-2.7,10.63-6.14a.4.4,0,0,0-.38-.6c-4.81,1.06-9.64,1.77-14.37,3.15-2.28.67-4.54,1.42-6.79,2.18a10.23,10.23,0,0,1-5.6.74c4.86-3.26,11-4.74,16.57-6.38,3-.89,6.08-1.76,9.06-2.79a35.16,35.16,0,0,0,7.66-3.21c.7-.46,1.69-1.42.81-2.33A1.8,1.8,0,0,0,40.67,98a17.59,17.59,0,0,0-3.16.55c1.37-.37,2.75-.72,4.15-1a.57.57,0,0,0,.32-.94l-.11-.09C43.18,96.27,44.43,95.75,45.7,95.37Z"/><path class="cls-2" d="M31.84,101.07q3.51-1,7.08-1.91l1.61-.39c.56.86.41,1.35-.48,1.46a10.84,10.84,0,0,1-3,1.3c-2,.82-4.1,1.53-6.19,2.19l-1.52.47a.64.64,0,0,0-.6-.28,4.84,4.84,0,0,1-1.61-.07C27.64,102,30.26,101.53,31.84,101.07Z"/><path class="cls-2" d="M31.89,96.38c1.92-.23,5.93-.77,8.24.3A64.93,64.93,0,0,0,29.4,99.63a6.83,6.83,0,0,1-2.21-.47l-.67-.25.66-1.55C28.09,96.61,30.7,96.52,31.89,96.38Z"/><path class="cls-3" d="M24.85,99c.48,1.14,2,1.62,3.41,1.71a.68.68,0,0,0,.12.22,3.84,3.84,0,0,0-2.72,3.36.77.77,0,0,0,.47.75l.24.08c-2.72.79-5.44,1.57-8.12,2.47A104.34,104.34,0,0,0,6.31,112.7a.68.68,0,0,0-.07,1.16c3.7,2.08,7.69-.11,11.13-1.27A110.1,110.1,0,0,1,33.82,108c-3.24,3.1-7.82,4.09-11.83,6a44.62,44.62,0,0,0-8.33,5,12.25,12.25,0,0,0-3.15,2.23.61.61,0,0,0-.14.72,3.26,3.26,0,0,0,4.07,1.49c2.46-.72,4.81-2.27,7.07-3.43a119,119,0,0,1,16.14-7.33c.08,2.07-2,4.39-3.13,5.78-1.41,1.83-2.79,3.66-4.14,5.56a.71.71,0,0,0,.06.8c2.12,3.2,8.77-4.68,10-6,4.2-4.41,8.41-8.74,14.85-9.43a.53.53,0,0,0,.46-.42,128.92,128.92,0,0,0,14-5.15A61.93,61.93,0,0,0,77.86,100a6.25,6.25,0,0,0,3.31-4.23c.69-4.89-5-5.11-8.25-5.4-4.2-.37-8.44-.58-12.44.38a51.88,51.88,0,0,0-10.27,2c-3,.82-6.6,1.46-9.28,3.1A11.23,11.23,0,0,0,36,95.05a28,28,0,0,0-8.56,1C26.28,96.42,24.09,97.15,24.85,99ZM45.7,95.37c2-.61,4-1.15,6-1.66,3.24-.8,6.64-1.31,9.81-2.32a58.5,58.5,0,0,1,8-1,31.78,31.78,0,0,1,6.84.8c1.87.36,3.93,1.14,3.88,3.45A4.71,4.71,0,0,1,78,98.28c-3.62,2.54-8.29,4.06-12.4,5.66s-8.24,2.84-12.4,4.21c-3.73.49-6.93,2.66-9.66,5.21-.92.86-9.33,10.22-11.63,10.69,1.56-2.47,3-5,4.64-7.42,1-1.48,2.47-2.75,2-4.76a.52.52,0,0,0-.68-.38,92.38,92.38,0,0,0-12.68,5.13c-2,1-4.08,2-6.12,3.06-1.58.78-5.33,3.5-7.28,2a47,47,0,0,1,12.82-7.85c3.89-1.52,8-2.7,10.63-6.14a.4.4,0,0,0-.38-.6c-4.81,1.06-9.64,1.77-14.37,3.15-2.28.67-4.54,1.42-6.79,2.18a10.23,10.23,0,0,1-5.6.74c4.86-3.26,11-4.74,16.57-6.38,3-.89,6.08-1.76,9.06-2.79a35.16,35.16,0,0,0,7.66-3.21c.7-.46,1.69-1.42.81-2.33A1.8,1.8,0,0,0,40.67,98a17.59,17.59,0,0,0-3.16.55c1.37-.37,2.75-.72,4.15-1a.57.57,0,0,0,.32-.94l-.11-.09C43.18,96.27,44.43,95.75,45.7,95.37Zm-13.86,5.7q3.51-1,7.08-1.91l1.61-.39c.56.86.41,1.35-.48,1.46a10.84,10.84,0,0,1-3,1.3c-2,.82-4.1,1.53-6.19,2.19l-1.52.47a.64.64,0,0,0-.6-.28,4.84,4.84,0,0,1-1.61-.07C27.64,102,30.26,101.53,31.84,101.07Zm.05-4.69c1.92-.23,5.93-.77,8.24.3A64.93,64.93,0,0,0,29.4,99.63a6.83,6.83,0,0,1-2.21-.47l-.67-.25.66-1.55C28.09,96.61,30.7,96.52,31.89,96.38Z"/><path class="cls-2" d="M38,90.19l.09-.1a.61.61,0,0,0-.46-.92c-1.41-.15-2.81-.35-4.2-.59a17.16,17.16,0,0,0,3.17.23,1.63,1.63,0,0,0,1.39-.54c.72-1-.39-1.88-1.15-2.27a35.76,35.76,0,0,0-8-2.44c-3.07-.73-6.18-1.29-9.28-1.88C13.83,80.6,7.61,79.74,2.36,77a10,10,0,0,1,5.58.16c2.31.54,4.63,1.07,7,1.5,4.84.9,9.67,1.13,14.53,1.7.31,0,.49-.42.28-.64-3.1-3.2-7.3-4-11.34-5.1A48.85,48.85,0,0,1,4.64,68c1.67-1.74,5.75.6,7.41,1.23,2.16.82,4.3,1.66,6.46,2.45a92.46,92.46,0,0,0,13.18,3.87.48.48,0,0,0,.6-.46c.18-2.07-1.47-3.2-2.66-4.59-1.95-2.27-3.77-4.67-5.68-7,2.32.24,12,8.79,13,9.57,3.06,2.28,6.52,4.14,10.25,4.26,4.26.94,8.53,1.78,12.76,3S69,82.54,73,84.72a5.12,5.12,0,0,1,2.73,3.42c.41,2.32-1.48,3.32-3.26,3.87a29.22,29.22,0,0,1-6.55,1.51,55.77,55.77,0,0,1-8-.16c-3.25-.69-6.66-.86-10-1.33-2-.3-4.08-.65-6.1-1C40.58,90.72,39.27,90.33,38,90.19Z"/><path class="cls-2" d="M22.43,84.36A4.33,4.33,0,0,1,24,84.11a.59.59,0,0,0,.55-.33l1.55.31c2.15.45,4.28,1,6.39,1.57a11.23,11.23,0,0,1,3.13,1c.88,0,1.11.5.69,1.42l-1.64-.23q-3.61-.52-7.21-1.19C25.84,86.36,23.2,86.16,22.43,84.36Z"/><path class="cls-2" d="M23.48,90.88c-.3-.5-.6-1-.89-1.49l.61-.33a6.83,6.83,0,0,1,2.09-.7,65.15,65.15,0,0,0,10.94,1.87c-2.09,1.32-6.09,1.18-8,1.15C27.05,91.36,24.48,91.54,23.48,90.88Z"/><path class="cls-3" d="M24,92.14a26.77,26.77,0,0,0,8.52.15A10.32,10.32,0,0,0,37.14,91c2.87,1.38,6.46,1.66,9.55,2.17a50.4,50.4,0,0,0,10.34,1c4,.56,8.17-.08,12.22-.89,3.13-.63,8.65-1.43,7.22-6.28A6.76,6.76,0,0,0,72.58,83a65.11,65.11,0,0,0-8.49-3,129.81,129.81,0,0,0-14.45-3.74.59.59,0,0,0-.52-.38c-6.39,0-11.18-4-16-8-1.45-1.21-9.17-8.46-10.74-5a.71.71,0,0,0,.07.81c1.6,1.78,3.23,3.48,4.9,5.18,1.27,1.29,3.71,3.41,3.95,5.5a121.76,121.76,0,0,1-16.9-5.72C12.05,67.79,9.52,66.47,7,66a3,3,0,0,0-3.75,1.91.68.68,0,0,0,.25.72,13,13,0,0,0,3.43,1.92,46,46,0,0,0,8.9,4.15c4.21,1.46,8.84,2,12.49,4.78a109.85,109.85,0,0,1-16.79-2.93C8,75.73,3.75,73.93.47,76.41a.71.71,0,0,0,.24,1.16,104.22,104.22,0,0,0,12.46,4c2.76.64,5.54,1.14,8.32,1.66l-.22.1a.75.75,0,0,0-.35.8,4.16,4.16,0,0,0,3.18,3.11.63.63,0,0,0-.08.23c-1.32.23-2.78.88-3.07,2.08C20.49,91.41,22.74,91.92,24,92.14Zm14-2,.09-.1a.61.61,0,0,0-.46-.92c-1.41-.15-2.81-.35-4.2-.59a17.16,17.16,0,0,0,3.17.23,1.63,1.63,0,0,0,1.39-.54c.72-1-.39-1.88-1.15-2.27a35.76,35.76,0,0,0-8-2.44c-3.07-.73-6.18-1.29-9.28-1.88C13.83,80.6,7.61,79.74,2.36,77a10,10,0,0,1,5.58.16c2.31.54,4.63,1.07,7,1.5,4.84.9,9.67,1.13,14.53,1.7.31,0,.49-.42.28-.64-3.1-3.2-7.3-4-11.34-5.1A48.85,48.85,0,0,1,4.64,68c1.67-1.74,5.75.6,7.41,1.23,2.16.82,4.3,1.66,6.46,2.45a92.46,92.46,0,0,0,13.18,3.87.48.48,0,0,0,.6-.46c.18-2.07-1.47-3.2-2.66-4.59-1.95-2.27-3.77-4.67-5.68-7,2.32.24,12,8.79,13,9.57,3.06,2.28,6.52,4.14,10.25,4.26,4.26.94,8.53,1.78,12.76,3S69,82.54,73,84.72a5.12,5.12,0,0,1,2.73,3.42c.41,2.32-1.48,3.32-3.26,3.87a29.22,29.22,0,0,1-6.55,1.51,55.77,55.77,0,0,1-8-.16c-3.25-.69-6.66-.86-10-1.33-2-.3-4.08-.65-6.1-1C40.58,90.72,39.27,90.33,38,90.19ZM22.43,84.36A4.33,4.33,0,0,1,24,84.11a.59.59,0,0,0,.55-.33l1.55.31c2.15.45,4.28,1,6.39,1.57a11.23,11.23,0,0,1,3.13,1c.88,0,1.11.5.69,1.42l-1.64-.23q-3.61-.52-7.21-1.19C25.84,86.36,23.2,86.16,22.43,84.36Zm1.05,6.52c-.3-.5-.6-1-.89-1.49l.61-.33a6.83,6.83,0,0,1,2.09-.7,65.15,65.15,0,0,0,10.94,1.87c-2.09,1.32-6.09,1.18-8,1.15C27.05,91.36,24.48,91.54,23.48,90.88Z"/><path class="cls-2" d="M36.19,64a.67.67,0,0,0,.12-.06.61.61,0,0,0-.06-1c-1.23-.75-2.42-1.55-3.6-2.37a17.88,17.88,0,0,0,2.8,1.59,1.65,1.65,0,0,0,1.48.12c1-.61.37-1.88-.17-2.57a37.93,37.93,0,0,0-6.31-5.71c-2.52-2-5.13-3.88-7.72-5.77-4.78-3.48-10.11-7-13.81-11.8a10.31,10.31,0,0,1,5,2.58c1.9,1.51,3.81,3,5.77,4.42,4.05,2.93,8.36,5.24,12.57,7.89.27.17.61-.17.5-.46-1.57-4.27-5.1-6.81-8.34-9.6a52,52,0,0,1-9.94-12c2.19-.86,5,3.06,6.27,4.36,1.64,1.68,3.26,3.39,4.92,5.05a99,99,0,0,0,10.5,9.27.46.46,0,0,0,.73-.15c1-1.8-.09-3.56-.64-5.34-.89-2.92-1.61-5.9-2.45-8.85,2,1.23,7.5,13.25,8.14,14.4,1.89,3.42,4.32,6.62,7.67,8.36,3.52,2.72,7.08,5.35,10.47,8.27s7.38,6,10.11,9.7a5.37,5.37,0,0,1,1.15,4.3c-.53,2.3-2.64,2.38-4.48,2.11a29.89,29.89,0,0,1-6.55-1.48,60.54,60.54,0,0,1-7.19-3.63c-2.69-2-5.73-3.69-8.54-5.56-1.75-1.16-3.47-2.36-5.15-3.62C38.37,65.58,37.34,64.65,36.19,64Z"/><path class="cls-2" d="M24.32,51.86a4.59,4.59,0,0,1,1.52.45.56.56,0,0,0,.63-.06l1.29,1c1.78,1.35,3.53,2.73,5.21,4.22a11.86,11.86,0,0,1,2.46,2.28c.79.4.81.93.08,1.6l-1.41-.93Q31,58.33,28,56.15C26.65,55.17,24.32,53.83,24.32,51.86Z"/><path class="cls-2" d="M22.73,58.25c-.07-.58-.15-1.16-.22-1.74l.68,0a6.33,6.33,0,0,1,2.18.27,66.89,66.89,0,0,0,9.23,6.48c-2.41.29-6-1.58-7.74-2.45C25.8,60.25,23.39,59.29,22.73,58.25Z"/><path class="cls-3" d="M22.69,59.62a27.74,27.74,0,0,0,7.71,3.86c1.48.47,3.18,1.11,4.75.82,2.07,2.51,5.23,4.34,7.85,6.15a52,52,0,0,0,9,5.41c3.48,2.29,7.48,3.49,11.48,4.52,3.1.8,8.44,2.48,9-2.56a7.18,7.18,0,0,0-2-5.28A68.43,68.43,0,0,0,64,66.14a139.35,139.35,0,0,0-11.71-9.72.61.61,0,0,0-.33-.57c-5.8-2.83-8.63-8.49-11.43-14.23-.85-1.73-5-11.71-7.83-9.26a.73.73,0,0,0-.25.77c.77,2.32,1.59,4.58,2.45,6.86.65,1.73,2,4.72,1.45,6.73A128.08,128.08,0,0,1,23.14,34.13c-1.82-1.9-3.6-4.21-5.72-5.74-1.38-1-2.93-1.18-4.16.11a.68.68,0,0,0,0,.76,14.34,14.34,0,0,0,2.37,3.25,49.63,49.63,0,0,0,6.5,7.67c3.26,3.17,7.27,5.67,9.51,9.8A114.77,114.77,0,0,1,17.44,40c-2.91-2.29-6.07-5.78-10-4.95-.51.1-.54.84-.22,1.16A113.17,113.17,0,0,0,17,45.25c2.27,1.78,4.61,3.45,6.94,5.14h-.25a.7.7,0,0,0-.62.57,4.39,4.39,0,0,0,1.68,4.22.69.69,0,0,0-.16.18c-1.29-.37-2.87-.42-3.61.55C19.8,57.43,21.66,58.88,22.69,59.62ZM36.19,64a.67.67,0,0,0,.12-.06.61.61,0,0,0-.06-1c-1.23-.75-2.42-1.55-3.6-2.37a17.88,17.88,0,0,0,2.8,1.59,1.65,1.65,0,0,0,1.48.12c1-.61.37-1.88-.17-2.57a37.93,37.93,0,0,0-6.31-5.71c-2.52-2-5.13-3.88-7.72-5.77-4.78-3.48-10.11-7-13.81-11.8a10.31,10.31,0,0,1,5,2.58c1.9,1.51,3.81,3,5.77,4.42,4.05,2.93,8.36,5.24,12.57,7.89.27.17.61-.17.5-.46-1.57-4.27-5.1-6.81-8.34-9.6a52,52,0,0,1-9.94-12c2.19-.86,5,3.06,6.27,4.36,1.64,1.68,3.26,3.39,4.92,5.05a99,99,0,0,0,10.5,9.27.46.46,0,0,0,.73-.15c1-1.8-.09-3.56-.64-5.34-.89-2.92-1.61-5.9-2.45-8.85,2,1.23,7.5,13.25,8.14,14.4,1.89,3.42,4.32,6.62,7.67,8.36,3.52,2.72,7.08,5.35,10.47,8.27s7.38,6,10.11,9.7a5.37,5.37,0,0,1,1.15,4.3c-.53,2.3-2.64,2.38-4.48,2.11a29.89,29.89,0,0,1-6.55-1.48,60.54,60.54,0,0,1-7.19-3.63c-2.69-2-5.73-3.69-8.54-5.56-1.75-1.16-3.47-2.36-5.15-3.62C38.37,65.58,37.34,64.65,36.19,64ZM24.32,51.86a4.59,4.59,0,0,1,1.52.45.56.56,0,0,0,.63-.06l1.29,1c1.78,1.35,3.53,2.73,5.21,4.22a11.86,11.86,0,0,1,2.46,2.28c.79.4.81.93.08,1.6l-1.41-.93Q31,58.33,28,56.15C26.65,55.17,24.32,53.83,24.32,51.86Zm-1.59,6.39c-.07-.58-.15-1.16-.22-1.74l.68,0a6.33,6.33,0,0,1,2.18.27,66.89,66.89,0,0,0,9.23,6.48c-2.41.29-6-1.58-7.74-2.45C25.8,60.25,23.39,59.29,22.73,58.25Z"/><path d="M110.88,14.22c-1.55-5.61-7.45-1.63-10,1a19.94,19.94,0,0,0-1.38-1.51,19.11,19.11,0,0,0-8.69-4.8,8.43,8.43,0,0,0-1.73-4.54A4.21,4.21,0,0,0,87.37.91,6.76,6.76,0,0,0,82,.25a6.62,6.62,0,0,0-4.67,8.54,24.17,24.17,0,0,0-12.09,6.07l-.11.12c-2.85-2.87-8-3.32-10.19.68-2,3.74,1.65,7.22,5.1,7.83a9.15,9.15,0,0,0,.25,6,1.07,1.07,0,0,0,.86,1.68c7.66.48,15.52-.21,23.2-.29,3.51,0,7-.1,10.53,0s7,1.39,10.35.76a.63.63,0,0,0,.53-.63c.58.79,2,0,1.74-1a43.15,43.15,0,0,0-2.09-6.82A7.57,7.57,0,0,0,110.88,14.22ZM81.31,2.4a6.42,6.42,0,0,1,3.88-.54c1.7.36,2.79,2.07,3.26,3.68a17.48,17.48,0,0,0,.65,3,29.42,29.42,0,0,0-7.62-.35c-.83.06-1.66.16-2.49.29C79.33,6.16,78.55,3.66,81.31,2.4ZM68.07,16.19c4.28-3.67,10.16-5.09,15.66-5.11,6.36,0,11.86,2.07,15.73,7.27.45.61.85,1.22,1.24,1.83-3.28-1.84-7.76-1.47-11.86-1-.64-6.52-10.48-5.36-12.54,0a.55.55,0,0,0,.29.69c-4,.09-8,.17-12,.46A17.45,17.45,0,0,1,68.07,16.19Zm20.12,3.06c-1.47.17-2.89.34-4.17.4-2.23.11-4.48.18-6.72.23a.45.45,0,0,0,.15-.18C79.84,15.16,85.38,15.57,88.19,19.25ZM60.34,22.56c-1.82-1.38-4.69-2.88-3.86-5.53,1.17-3.72,5.23-2.57,7.58-.87A20,20,0,0,0,60.34,22.56Zm36.49,5.83c-3.92-.26-7.85-.18-11.77-.14-7.65.06-15.58-.26-23.19.62.64-2.36.74-4.7,1.84-7,12.35-.06,24.5-1.59,36.83-.47a.54.54,0,0,0,.59-.53,77.3,77.3,0,0,1,4.3,9.36C103.17,28.52,99.6,28.56,96.83,28.39ZM104.92,22a30.5,30.5,0,0,0-3.22-5.7c2-1.95,7.34-5.82,7.92-.71C110,18.66,107.5,21,104.92,22Z"/><rect class="cls-2" x="48.1" y="41.55" width="69.31" height="141.82"/><path d="M116.4,42.55V182.37H49.1V42.55h67.3m2-2H47.1V184.37h71.3V40.55Z"/><g class="cls-4"><polyline class="cls-5" points="136.26 144.3 49.05 56.35 71.03 34.19"/><line class="cls-5" x1="51.1" y1="171.75" x2="107.3" y2="115.09"/><polyline class="cls-5" points="110.81 129.04 62.05 79.87 68.27 73.61"/><line class="cls-5" x1="63.2" y1="144.39" x2="94.62" y2="112.71"/><polyline class="cls-5" points="132.47 93.2 83.71 44.04 96 31.65"/><line class="cls-5" x1="84.86" y1="108.55" x2="116.27" y2="76.87"/><polyline class="cls-5" points="126.94 119.92 78.18 169.08 65.9 156.69"/><line class="cls-5" x1="142.16" y1="167.93" x2="110.74" y2="136.25"/><polyline class="cls-5" points="131.53 167.5 44.31 79.55 59.66 64.08"/><line class="cls-5" x1="46.36" y1="194.96" x2="102.56" y2="138.29"/><polyline class="cls-5" points="30.78 141.22 117.99 53.28 96.02 31.12"/><line class="cls-5" x1="115.94" y1="168.68" x2="59.75" y2="112.01"/></g><path class="cls-2" d="M72.37,105.26c-2.26,3.81-6,4.21-9.82,4.08-4.49-1.7-8.57-6.16-7-11.31s8.25-6,12.7-4.3A8.09,8.09,0,0,1,72.37,105.26Z"/><path d="M68.62,91.17c-5.66-2-13.18.09-14.88,6.36-1.47,5.44,1.94,10,6.61,12.09a.84.84,0,0,0,.25,1c5,3.64,12.25-.13,14.22-5.44C76.91,99.56,74.4,93.19,68.62,91.17Zm3.75,14.09c-2.26,3.81-6,4.21-9.82,4.08-4.49-1.7-8.57-6.16-7-11.31s8.25-6,12.7-4.3A8.09,8.09,0,0,1,72.37,105.26Z"/><path d="M68.56,101.92a3.28,3.28,0,0,0,.2-1.4c-.06-1.06-.54-2.5-1.74-2.63a4.48,4.48,0,0,0-2.11-.84,4.11,4.11,0,0,0-3.85,1.64,3.87,3.87,0,0,0,1.41,5.91,3,3,0,0,0,2.74.7,6.81,6.81,0,0,0,3.59-2.21A.72.72,0,0,0,68.56,101.92Zm-3.27-3.46a4.51,4.51,0,0,1,1.19.63,5.63,5.63,0,0,1,.6,1.43,4.56,4.56,0,0,1-.37,2.25.36.36,0,0,0,0,.2,4,4,0,0,1-1.69.63c-.85.1-1.64-.26-2.48-.13h0a2.87,2.87,0,0,1-.25-4.24A3,3,0,0,1,65.29,98.46Z"/><path class="cls-2" d="M108.27,106.09c-2.67,3.17-6.33,3.44-10.08,3.1-4.58-2.39-8.25-8.41-4.61-13.07,2.9-3.71,8.53-4.36,12.57-2.17C110.79,96.47,111.66,102,108.27,106.09Z"/><path d="M106.09,91.55c-5.52-2.23-12.93-.47-15.28,5.48-2,5.15,1.26,10.31,5.79,12.55a.69.69,0,0,0,.26.63C108,118,119.45,96.94,106.09,91.55Zm2.18,14.54c-2.67,3.17-6.33,3.44-10.08,3.1-4.58-2.39-8.25-8.41-4.61-13.07,2.9-3.71,8.53-4.36,12.57-2.17C110.79,96.47,111.66,102,108.27,106.09Z"/><path d="M104.51,99.88c-.86-1.63-3.88-3.2-5.62-2.36-2.22,1.08-3.54,3.81-2,6,1.26,1.78,4.79,2.57,6.08.42a.44.44,0,0,0,.06-.16C104.32,102.82,105.31,101.41,104.51,99.88Zm-2.41,2.88c-1.16,0-2.3.74-3.35-.2-1.23-1.09-.4-2.7.72-3.48a2.41,2.41,0,0,1,3.76,1.55A2.54,2.54,0,0,1,102.1,102.76Z"/><path class="cls-2" d="M59.69,60.44a1.06,1.06,0,0,0,.54-.15c4,.86,8.6,2.43,10.18,6.25,1.69,4.09,1,7.78.18,11.66a12.75,12.75,0,0,1-5,5.23c-3.41,2-9.31,3.18-13.07,1.62s-7.13-6.21-8.26-10.13a10.34,10.34,0,0,1,3.57-11.43C51.3,60.82,55.49,60.45,59.69,60.44Z"/><path d="M69.68,61.67C63.83,56,52.21,56,46,61.56a12,12,0,0,0-4,13.38c1.38,4.58,5.27,10,9.58,12.18s10.23,1.15,14.25-.91C74.82,81.61,77.07,68.78,69.68,61.67Zm-10-1.23a1.06,1.06,0,0,0,.54-.15c4,.86,8.6,2.43,10.18,6.25,1.69,4.09,1,7.78.18,11.66a12.75,12.75,0,0,1-5,5.23c-3.41,2-9.31,3.18-13.07,1.62s-7.13-6.21-8.26-10.13a10.34,10.34,0,0,1,3.57-11.43C51.3,60.82,55.49,60.45,59.69,60.44Z"/><path d="M62.77,72.45a6.64,6.64,0,0,0-5.17-5.53A5.66,5.66,0,0,0,51,72.17a5.14,5.14,0,0,0,.58,2.42.61.61,0,0,0-.08.72c2,3.48,6.05,5,9.45,2.26A5.31,5.31,0,0,0,62.77,72.45ZM60.24,71a3.17,3.17,0,0,1,.81,2.23,3.11,3.11,0,0,1-.84,1.54A5.45,5.45,0,0,1,56,76.3a4.05,4.05,0,0,1-2.15-1.48c-.9-1.19-1.35-2.61-.41-3.87C54.91,69,58.68,69.17,60.24,71Z"/><path class="cls-2" d="M119.05,79.9c-3.09,3.52-10.31,6.52-15.44,4.9l-.23-.14a.89.89,0,0,0-.39-.5c-4.79-3-7.28-11.39-5-17,.09-.17.16-.34.25-.5,3-5.2,9.82-6.93,15.28-5.2a41.6,41.6,0,0,0,4.25,2.29A11,11,0,0,1,119.05,79.9Z"/><path d="M118.75,61.59c-5.12-5.77-15-4.66-20.22.56a10.85,10.85,0,0,0-3.87,7.09c-.5,4.35,1,12,4.66,15.6,3.51,6.48,17,1.53,20.74-2.37C125.91,76.38,125.43,66.54,118.75,61.59Zm.3,18.31c-3.09,3.52-10.31,6.52-15.44,4.9l-.23-.14a.89.89,0,0,0-.39-.5c-4.79-3-7.28-11.39-5-17,.09-.17.16-.34.25-.5,3-5.2,9.82-6.93,15.28-5.2a41.6,41.6,0,0,0,4.25,2.29A11,11,0,0,1,119.05,79.9Z"/><path d="M111.89,67.09a7.83,7.83,0,0,0-3.23-.23,5.94,5.94,0,0,0-4.15,1.59c-1.31,1.24-1.32,3.4-1,5.1a3.92,3.92,0,0,0,.37,2.28,6.25,6.25,0,0,0,5,3.08,5,5,0,0,0,4.51-2,5.29,5.29,0,0,0,1.3-1.67C116,72.54,115,68,111.89,67.09Zm-6.36,3.3c1.2-1.61,4.45-1.67,6-.57,2,1.42,1.78,4.7,0,6.23a5.48,5.48,0,0,1-3.87.3A6,6,0,0,1,106,75a4.53,4.53,0,0,1-.3-.46,5,5,0,0,1,0-2.5.48.48,0,0,0-.58-.57,2,2,0,0,1,.05-.26A4,4,0,0,1,105.53,70.39Z"/></g></g></svg>