<svg xmlns="http://www.w3.org/2000/svg" viewBox="0 0 165.5 201"><defs><style>.cls-1{fill:#fff;}.cls-2,.cls-4{fill:none;stroke-width:2px;}.cls-2,.cls-3,.cls-4{stroke:#000;}.cls-2,.cls-3{stroke-miterlimit:10;}.cls-3{stroke-width:0.5px;}.cls-4{stroke-linejoin:round;}</style></defs><title>T_token_b4_bottle</title><g id="Layer_2" data-name="Layer 2"><g id="T_token_b4_bottle"><path class="cls-1" d="M17.93,51.18a.39.39,0,0,0,.59,0,19.81,19.81,0,0,0,4.57,1.9.41.41,0,0,0,.15.6c.87.51,4.34,1.93,4.76,3.32a36.36,36.36,0,0,1-8.26-2.9,38.19,38.19,0,0,1-3.89-2.21c-.29-.19-.58-.38-.86-.58-1-.26-1.1-.6-.45-1C15.34,49.15,17.21,50.55,17.93,51.18Z"/><path class="cls-1" d="M22,51.49a18.53,18.53,0,0,1-4.09-2.14,7.14,7.14,0,0,1-1.81-1.55c-.57-.33-.62-.78-.15-1.34a5.86,5.86,0,0,1,.58-.1l.71.32a36.43,36.43,0,0,0,4.61,2.1c.71.33,1.43.65,2.14,1a.31.31,0,0,0,.23,0l3.72,1.7c1,.46,2.51.93,3.26,1.9A33.93,33.93,0,0,1,22,51.49Z"/><path class="cls-1" d="M1.19,51.53h.06a3.2,3.2,0,0,1,1.07.11.32.32,0,0,0,.41-.22c2.45.57,5,.74,7.48,1.31,2.66.62,5.24,1.59,7.93,2.05h.05c.73.36,1.47.69,2.16,1a37.15,37.15,0,0,0,8,2.45.58.58,0,0,0,.69-.4c.72-2.06-1.84-3.36-3.83-4.24,2.23.45,4.52.68,6.79.92a.53.53,0,0,0,.5-.66c-.66-2.49-4.21-3.32-6.21-4.23A67.61,67.61,0,0,0,18,45.94a.31.31,0,0,0-.26-.4,8,8,0,0,0-1.35-.09c-2-1-4-2-6-2.94-2.27-1.08-4.54-2.14-6.79-3.25-.87-.43-1.27-.31-1.07-1.33s.48-.63,1.31-.35c1,.34,2.08.71,3.12,1.09,8.86,3.23,17.39,7.42,26.69,9.23a.52.52,0,0,0,.55-.76.26.26,0,0,0,0-.41,59.28,59.28,0,0,0-6-3.14c-1-.49-2.05-1-3.06-1.47a8.79,8.79,0,0,1-1.46-.76,4.45,4.45,0,0,1-1.15-1.48c4,.2,7.51,2.81,11.28,4,2,.62,4,1.18,6,2,1.42.57,2.75,1.35,4.14,2C45.67,48.94,55,53,56.8,54.06c2.26,1.34,4.77,3.43,7.37,4,1.75,1.5,3.53,3,5.22,4.53,1.85,1.7,3.82,3.85,4.1,6.49.38,3.55-3.42,4.31-6.12,4.77-2.52.43-5,.1-7.47.17A50.38,50.38,0,0,0,55,72.25c-1.91-.68-11.26-4.39-13.18-5.06a.43.43,0,0,0-.26-.25c-3.38-1.33-6.92-2.29-10.34-3.51s-6.61-2.38-9.87-3.69l-9.81-3.88-5.07-2C5.53,53.47,2.09,52.56,1.19,51.53Z"/><path class="cls-1" d="M20.44,81.18a.38.38,0,0,0,.56,0A18.89,18.89,0,0,0,25.37,83a.39.39,0,0,0,.14.57c.84.49,4.16,1.85,4.56,3.17A34.71,34.71,0,0,1,22.18,84a38.08,38.08,0,0,1-3.73-2.12l-.82-.56c-.9-.25-1.05-.57-.43-1C18,79.24,19.75,80.58,20.44,81.18Z"/><path class="cls-1" d="M24.29,81.47a16.86,16.86,0,0,1-3.9-2A7,7,0,0,1,18.65,78c-.54-.31-.59-.74-.14-1.28l.56-.1.67.31a35.33,35.33,0,0,0,4.41,2l2.05.94a.23.23,0,0,0,.21,0L30,81.47c.94.44,2.4.89,3.12,1.81A31.92,31.92,0,0,1,24.29,81.47Z"/><path class="cls-1" d="M4.45,81.52h0a3.17,3.17,0,0,1,1,.11.32.32,0,0,0,.4-.21c2.34.55,4.8.71,7.14,1.26,2.54.59,5,1.51,7.58,2h.05c.7.34,1.4.66,2.07.95a35.66,35.66,0,0,0,7.68,2.34.55.55,0,0,0,.66-.38c.69-2-1.75-3.22-3.66-4.06,2.13.43,4.32.66,6.49.88.32,0,.55-.34.47-.63-.63-2.37-4-3.17-5.93-4a65.31,65.31,0,0,0-8-3.51.3.3,0,0,0-.24-.38A10.12,10.12,0,0,0,19,75.7c-1.91-.94-3.83-1.89-5.76-2.81-2.16-1-4.33-2-6.48-3.1-.84-.41-1.22-.3-1-1.28s.46-.6,1.25-.33c1,.33,2,.68,3,1,8.47,3.09,16.62,7.1,25.51,8.83a.5.5,0,0,0,.52-.73.25.25,0,0,0,0-.4,54.92,54.92,0,0,0-5.75-3c-1-.47-2-.93-2.93-1.41a8,8,0,0,1-1.39-.73,4.27,4.27,0,0,1-1.1-1.41c3.81.19,7.19,2.69,10.78,3.79,1.92.59,3.85,1.13,5.72,1.89,1.35.54,2.63,1.29,3.95,1.91C47,79,55.88,82.91,57.6,83.93c2.15,1.28,4.56,3.29,7.05,3.82,1.66,1.44,3.37,2.84,5,4.33,1.77,1.63,3.65,3.69,3.92,6.21.36,3.39-3.27,4.12-5.85,4.56-2.41.41-4.76.09-7.14.17a44.6,44.6,0,0,0-4.73-1.7c-1.83-.65-10.77-4.19-12.6-4.83a.41.41,0,0,0-.25-.25c-3.23-1.26-6.61-2.19-9.88-3.35s-6.32-2.28-9.44-3.53-6.25-2.46-9.37-3.71L9.44,83.71C8.59,83.37,5.3,82.5,4.45,81.52Z"/><path class="cls-1" d="M25.88,112.43a.34.34,0,0,0,.51,0A17,17,0,0,0,30.32,114a.35.35,0,0,0,.13.51c.75.44,3.74,1.67,4.1,2.86a31.6,31.6,0,0,1-7.11-2.49A33.61,33.61,0,0,1,24.09,113l-.74-.5c-.81-.22-.94-.51-.38-.88C23.65,110.68,25.26,111.89,25.88,112.43Z"/><path class="cls-1" d="M29.35,112.69a15.74,15.74,0,0,1-3.52-1.84,5.94,5.94,0,0,1-1.56-1.33c-.49-.28-.53-.67-.12-1.15a4.21,4.21,0,0,1,.49-.09l.61.28a31,31,0,0,0,4,1.8l1.84.86a.23.23,0,0,0,.2,0l3.2,1.47a7.48,7.48,0,0,1,2.81,1.63A28.93,28.93,0,0,1,29.35,112.69Z"/><path class="cls-1" d="M11.49,112.73h0a2.63,2.63,0,0,1,.92.1.29.29,0,0,0,.35-.19c2.11.49,4.33.64,6.43,1.13,2.29.53,4.51,1.36,6.82,1.76h.05c.63.3,1.26.59,1.86.85a32.08,32.08,0,0,0,6.91,2.11.5.5,0,0,0,.59-.35c.62-1.77-1.57-2.89-3.29-3.65,1.92.39,3.89.59,5.84.79a.45.45,0,0,0,.43-.57c-.57-2.13-3.62-2.85-5.34-3.64a61.49,61.49,0,0,0-7.17-3.15.26.26,0,0,0-.22-.34,7,7,0,0,0-1.16-.08c-1.72-.85-3.45-1.7-5.18-2.53-1.95-.93-3.9-1.84-5.84-2.79-.75-.37-1.1-.27-.92-1.15s.41-.54,1.12-.3c.9.29,1.8.61,2.69.94,7.62,2.77,15,6.38,23,7.94a.45.45,0,0,0,.47-.66.22.22,0,0,0,0-.35,49.73,49.73,0,0,0-5.17-2.7L32,104.64a9.3,9.3,0,0,1-1.25-.66,3.84,3.84,0,0,1-1-1.27c3.42.17,6.46,2.42,9.7,3.41,1.73.53,3.46,1,5.15,1.7,1.22.49,2.37,1.16,3.55,1.72,1.56,1,9.59,4.45,11.13,5.36,1.94,1.16,4.11,3,6.35,3.44,1.5,1.3,3,2.56,4.49,3.9s3.28,3.32,3.52,5.59c.33,3-2.94,3.71-5.27,4.1a44.48,44.48,0,0,1-6.42.15,40.9,40.9,0,0,0-4.26-1.52c-1.64-.59-9.69-3.78-11.34-4.36a.43.43,0,0,0-.22-.22c-2.91-1.14-6-2-8.9-3s-5.68-2-8.49-3.18-5.63-2.21-8.44-3.33L16,114.71C15.22,114.4,12.25,113.62,11.49,112.73Z"/><path class="cls-1" d="M151,50.25c.65.43.5.77-.45,1-.28.2-.57.39-.86.58a38.19,38.19,0,0,1-3.89,2.21A36.36,36.36,0,0,1,137.5,57c.42-1.39,3.89-2.81,4.76-3.32a.41.41,0,0,0,.15-.6,19.81,19.81,0,0,0,4.57-1.9.39.39,0,0,0,.59,0C148.29,50.55,150.16,49.15,151,50.25Z"/><path class="cls-1" d="M134.34,53.38c.75-1,2.28-1.44,3.26-1.9l3.72-1.7a.31.31,0,0,0,.23,0c.71-.34,1.43-.66,2.14-1a36.43,36.43,0,0,0,4.61-2.1l.71-.32a5.86,5.86,0,0,1,.58.1c.47.56.42,1-.15,1.34a7.14,7.14,0,0,1-1.81,1.55,18.53,18.53,0,0,1-4.09,2.14A33.93,33.93,0,0,1,134.34,53.38Z"/><path class="cls-1" d="M159.08,53.83l-5.07,2-9.81,3.88c-3.26,1.31-6.56,2.51-9.87,3.69s-7,2.18-10.34,3.51a.43.43,0,0,0-.26.25c-1.92.67-11.27,4.38-13.18,5.06a50.38,50.38,0,0,0-5,1.77c-2.49-.07-4.95.26-7.47-.17-2.7-.46-6.5-1.22-6.12-4.77.28-2.64,2.25-4.79,4.1-6.49,1.69-1.56,3.47-3,5.22-4.53,2.6-.57,5.11-2.66,7.37-4,1.79-1.07,11.13-5.12,12.93-6.24,1.39-.65,2.72-1.43,4.14-2,2-.79,4-1.35,6-2,3.77-1.16,7.3-3.77,11.28-4a4.45,4.45,0,0,1-1.15,1.48,8.79,8.79,0,0,1-1.46.76c-1,.5-2,1-3.06,1.47a59.28,59.28,0,0,0-6,3.14.26.26,0,0,0,0,.41.52.52,0,0,0,.55.76c9.3-1.81,17.83-6,26.69-9.23,1-.38,2.08-.75,3.12-1.09.83-.28,1.1-.74,1.31.35s-.2.9-1.07,1.33c-2.25,1.11-4.52,2.17-6.79,3.25-2,1-4,2-6,2.94a8,8,0,0,0-1.35.09.31.31,0,0,0-.26.4,67.61,67.61,0,0,0-8.33,3.67c-2,.91-5.55,1.74-6.21,4.23a.53.53,0,0,0,.5.66c2.27-.24,4.56-.47,6.79-.92-2,.88-4.55,2.18-3.83,4.24a.58.58,0,0,0,.69.4,37.15,37.15,0,0,0,8-2.45c.69-.3,1.43-.63,2.16-1h.05c2.69-.46,5.27-1.43,7.93-2.05,2.45-.57,5-.74,7.48-1.31a.32.32,0,0,0,.41.22,3.2,3.2,0,0,1,1.07-.11h.06C163.41,52.56,160,53.47,159.08,53.83Z"/><path class="cls-1" d="M148.3,80.3c.62.4.47.72-.43,1l-.82.56A38.08,38.08,0,0,1,143.32,84a34.71,34.71,0,0,1-7.89,2.76c.4-1.32,3.72-2.68,4.56-3.17a.39.39,0,0,0,.14-.57,18.89,18.89,0,0,0,4.37-1.82.38.38,0,0,0,.56,0C145.75,80.58,147.54,79.24,148.3,80.3Z"/><path class="cls-1" d="M132.41,83.28c.72-.92,2.18-1.37,3.12-1.81l3.56-1.63a.23.23,0,0,0,.21,0l2-.94a35.33,35.33,0,0,0,4.41-2l.67-.31.56.1c.45.54.4,1-.14,1.28a7,7,0,0,1-1.74,1.48,16.86,16.86,0,0,1-3.9,2A31.92,31.92,0,0,1,132.41,83.28Z"/><path class="cls-1" d="M156.06,83.71l-4.85,1.94c-3.12,1.25-6.25,2.47-9.37,3.71s-6.27,2.4-9.44,3.53-6.65,2.09-9.88,3.35a.41.41,0,0,0-.25.25c-1.83.64-10.77,4.18-12.6,4.83a44.6,44.6,0,0,0-4.73,1.7c-2.38-.08-4.73.24-7.14-.17-2.58-.44-6.21-1.17-5.85-4.56.27-2.52,2.15-4.58,3.92-6.21,1.61-1.49,3.32-2.89,5-4.33,2.49-.53,4.9-2.54,7.05-3.82,1.72-1,10.64-4.89,12.37-6,1.32-.62,2.6-1.37,4-1.91,1.87-.76,3.8-1.3,5.72-1.89,3.59-1.1,7-3.6,10.78-3.79a4.27,4.27,0,0,1-1.1,1.41,8,8,0,0,1-1.39.73c-1,.48-2,.94-2.93,1.41a54.92,54.92,0,0,0-5.75,3,.25.25,0,0,0,0,.4.5.5,0,0,0,.52.73c8.89-1.73,17-5.74,25.51-8.83,1-.36,2-.71,3-1,.79-.27,1-.7,1.25.33s-.19.87-1,1.28c-2.15,1-4.32,2.07-6.48,3.1-1.93.92-3.85,1.87-5.76,2.81a10.12,10.12,0,0,0-1.3.09.3.3,0,0,0-.24.38,65.31,65.31,0,0,0-8,3.51c-1.91.87-5.3,1.67-5.93,4-.08.29.15.67.47.63,2.17-.22,4.36-.45,6.49-.88-1.91.84-4.35,2.09-3.66,4.06a.55.55,0,0,0,.66.38,35.66,35.66,0,0,0,7.68-2.34c.67-.29,1.37-.61,2.07-.95h.05c2.57-.45,5-1.37,7.58-2,2.34-.55,4.8-.71,7.14-1.26a.32.32,0,0,0,.4.21,3.17,3.17,0,0,1,1-.11h.05C160.2,82.5,156.91,83.37,156.06,83.71Z"/><path class="cls-1" d="M142.53,111.63c.56.37.43.66-.38.88l-.74.5a33.61,33.61,0,0,1-3.35,1.91,31.6,31.6,0,0,1-7.11,2.49c.36-1.19,3.35-2.42,4.1-2.86a.35.35,0,0,0,.13-.51,17,17,0,0,0,3.93-1.64.34.34,0,0,0,.51,0C140.24,111.89,141.85,110.68,142.53,111.63Z"/><path class="cls-1" d="M128.23,114.32a7.48,7.48,0,0,1,2.81-1.63l3.2-1.47a.23.23,0,0,0,.2,0l1.84-.86a31,31,0,0,0,4-1.8l.61-.28a4.21,4.21,0,0,1,.49.09c.41.48.37.87-.12,1.15a5.94,5.94,0,0,1-1.56,1.33,15.74,15.74,0,0,1-3.52,1.84A28.93,28.93,0,0,1,128.23,114.32Z"/><path class="cls-1" d="M149.52,114.71l-4.36,1.75c-2.81,1.12-5.63,2.21-8.44,3.33s-5.65,2.16-8.49,3.18-6,1.87-8.9,3a.43.43,0,0,0-.22.22c-1.65.58-9.7,3.77-11.34,4.36a40.9,40.9,0,0,0-4.26,1.52,44.48,44.48,0,0,1-6.42-.15c-2.33-.39-5.6-1.05-5.27-4.1.24-2.27,1.93-4.12,3.52-5.59s3-2.6,4.49-3.9c2.24-.48,4.41-2.28,6.35-3.44,1.54-.91,9.57-4.39,11.13-5.36,1.18-.56,2.33-1.23,3.55-1.72,1.69-.68,3.42-1.17,5.15-1.7,3.24-1,6.28-3.24,9.7-3.41a3.84,3.84,0,0,1-1,1.27,9.3,9.3,0,0,1-1.25.66l-2.64,1.26a49.73,49.73,0,0,0-5.17,2.7.22.22,0,0,0,0,.35.45.45,0,0,0,.47.66c8-1.56,15.34-5.17,23-7.94.89-.33,1.79-.65,2.69-.94.71-.24.94-.63,1.12.3s-.17.78-.92,1.15c-1.94.95-3.89,1.86-5.84,2.79-1.73.83-3.46,1.68-5.18,2.53a7,7,0,0,0-1.16.08.26.26,0,0,0-.22.34,61.49,61.49,0,0,0-7.17,3.15c-1.72.79-4.77,1.51-5.34,3.64a.45.45,0,0,0,.43.57c2-.2,3.92-.4,5.84-.79-1.72.76-3.91,1.88-3.29,3.65a.5.5,0,0,0,.59.35,32.08,32.08,0,0,0,6.91-2.11c.6-.26,1.23-.55,1.86-.85h.05c2.31-.4,4.53-1.23,6.82-1.76,2.1-.49,4.32-.64,6.43-1.13a.29.29,0,0,0,.35.19,2.63,2.63,0,0,1,.92-.1h0C153.25,113.62,150.28,114.4,149.52,114.71Z"/><polyline class="cls-1" points="72.79 184.27 75.74 200 89.76 200 92.71 184.27"/><polyline class="cls-2" points="72.79 184.27 75.76 200 89.74 200 92.71 184.27"/><path class="cls-3" d="M165.22,51.16a1.24,1.24,0,0,0-1.11-.41.21.21,0,0,0-.13,0c-4.78-.52-9.5,1.47-14.15,2.7A13.22,13.22,0,0,0,152,51.72c.91-.88,1.13-2.17-.17-2.77a2.92,2.92,0,0,0-1.51-.23,2.64,2.64,0,0,0,1.1-2.1,1.26,1.26,0,0,0-.91-.95c2.78-1.25,5.57-2.5,8.34-3.78,1.43-.66,2.93-1.25,4.32-2A3.8,3.8,0,0,0,165,38.26a1.63,1.63,0,0,0-1.3-2.28,6.75,6.75,0,0,0-3.06.59c-1.4.46-2.78,1-4.15,1.49-2.76,1-5.49,2.16-8.22,3.28a108.54,108.54,0,0,1-14.93,5.19c2.69-1,5.3-2.36,7.94-3.5,1.77-.76,3.94-1.7,3.22-4.08a.75.75,0,0,0-.7-.54c-4.49-.15-8.28,2.75-12.44,4-3.75,1.16-8.21,2.28-11.35,4.84-1.41.81-10.22,4.72-11.6,5.51-2,1.12-4.55,2.15-6.43,3.67a.35.35,0,0,0-.25.07c-4,3.06-12.48,8.1-10.9,14.38.72,2.82,3.85,3.47,6.29,4a19.68,19.68,0,0,0,7.26.38.33.33,0,0,0,.35.18,26,26,0,0,0,5.77-1.79c2.12-.74,11.66-4.56,13.77-5.31,4.24-1.52,8.43-3.15,12.65-4.69a.43.43,0,0,0,.28-.48c3.38-1.23,6.78-2.39,10.14-3.66,3.78-1.43,7.52-2.92,11.25-4.45,1.59-.65,5.52-1.46,6.17-3.46a.68.68,0,0,0,.36-.07A.27.27,0,0,0,165.22,51.16ZM151,50.25c.65.43.5.77-.45,1-.28.2-.57.39-.86.58a38.19,38.19,0,0,1-3.89,2.21A36.36,36.36,0,0,1,137.5,57c.42-1.39,3.89-2.81,4.76-3.32a.41.41,0,0,0,.15-.6,19.81,19.81,0,0,0,4.57-1.9.39.39,0,0,0,.59,0C148.29,50.55,150.16,49.15,151,50.25Zm-16.62,3.13c.75-1,2.28-1.44,3.26-1.9l3.72-1.7a.31.31,0,0,0,.23,0c.71-.34,1.43-.66,2.14-1a36.43,36.43,0,0,0,4.61-2.1l.71-.32a5.86,5.86,0,0,1,.58.1c.47.56.42,1-.15,1.34a7.14,7.14,0,0,1-1.81,1.55,18.53,18.53,0,0,1-4.09,2.14A33.93,33.93,0,0,1,134.34,53.38Zm24.74.45-5.07,2-9.81,3.88c-3.26,1.31-6.56,2.51-9.87,3.69s-7,2.18-10.34,3.51a.43.43,0,0,0-.26.25c-1.92.67-11.27,4.38-13.18,5.06a50.38,50.38,0,0,0-5,1.77c-2.49-.07-4.95.26-7.47-.17-2.7-.46-6.5-1.22-6.12-4.77.28-2.64,2.25-4.79,4.1-6.49,1.69-1.56,3.47-3,5.22-4.53,2.6-.57,5.11-2.66,7.37-4,1.79-1.07,11.13-5.12,12.93-6.24,1.39-.65,2.72-1.43,4.14-2,2-.79,4-1.35,6-2,3.77-1.16,7.3-3.77,11.28-4a4.45,4.45,0,0,1-1.15,1.48,8.79,8.79,0,0,1-1.46.76c-1,.5-2,1-3.06,1.47a59.28,59.28,0,0,0-6,3.14.26.26,0,0,0,0,.41.52.52,0,0,0,.55.76c9.3-1.81,17.83-6,26.69-9.23,1-.38,2.08-.75,3.12-1.09.83-.28,1.1-.74,1.31.35s-.2.9-1.07,1.33c-2.25,1.11-4.52,2.17-6.79,3.25-2,1-4,2-6,2.94a8,8,0,0,0-1.35.09.31.31,0,0,0-.26.4,67.61,67.61,0,0,0-8.33,3.67c-2,.91-5.55,1.74-6.21,4.23a.53.53,0,0,0,.5.66c2.27-.24,4.56-.47,6.79-.92-2,.88-4.55,2.18-3.83,4.24a.58.58,0,0,0,.69.4,37.15,37.15,0,0,0,8-2.45c.69-.3,1.43-.63,2.16-1h.05c2.69-.46,5.27-1.43,7.93-2.05,2.45-.57,5-.74,7.48-1.31a.32.32,0,0,0,.41.22,3.2,3.2,0,0,1,1.07-.11h.06C163.41,52.56,160,53.47,159.08,53.83Z"/><path class="cls-3" d="M161.92,81.16a1.18,1.18,0,0,0-1.06-.39.16.16,0,0,0-.11,0c-4.58-.49-9.09,1.4-13.53,2.59a13.06,13.06,0,0,0,2.09-1.62c.87-.84,1.08-2.07-.16-2.64a2.75,2.75,0,0,0-1.44-.22,2.56,2.56,0,0,0,1-2,1.21,1.21,0,0,0-.87-.92q4-1.78,8-3.61c1.37-.63,2.8-1.19,4.13-1.91a3.51,3.51,0,0,0,1.73-1.56,1.56,1.56,0,0,0-1.24-2.18,6.41,6.41,0,0,0-2.92.57c-1.34.43-2.66.92-4,1.42-2.64,1-5.24,2.06-7.85,3.13a104,104,0,0,1-14.28,5c2.58-1,5.07-2.26,7.59-3.35,1.7-.72,3.77-1.62,3.08-3.9a.71.71,0,0,0-.67-.52c-4.29-.14-7.91,2.63-11.89,3.86-3.58,1.1-7.85,2.18-10.85,4.62-1.34.78-9.76,4.51-11.09,5.27-1.88,1.07-4.35,2.06-6.14,3.5a.38.38,0,0,0-.24.08C97.46,89.22,89.32,94,90.84,100c.68,2.7,3.67,3.31,6,3.78a18.82,18.82,0,0,0,6.94.35.31.31,0,0,0,.34.18,24.75,24.75,0,0,0,5.51-1.71c2-.71,11.15-4.36,13.17-5.08,4-1.45,8-3,12.09-4.48a.4.4,0,0,0,.26-.46c3.23-1.17,6.48-2.29,9.7-3.5,3.61-1.36,7.19-2.79,10.75-4.25,1.52-.62,5.27-1.39,5.9-3.3a.73.73,0,0,0,.34-.08A.24.24,0,0,0,161.92,81.16ZM148.3,80.3c.62.4.47.72-.43,1l-.82.56A38.08,38.08,0,0,1,143.32,84a34.71,34.71,0,0,1-7.89,2.76c.4-1.32,3.72-2.68,4.56-3.17a.39.39,0,0,0,.14-.57,18.89,18.89,0,0,0,4.37-1.82.38.38,0,0,0,.56,0C145.75,80.58,147.54,79.24,148.3,80.3Zm-15.89,3c.72-.92,2.18-1.37,3.12-1.81l3.56-1.63a.23.23,0,0,0,.21,0l2-.94a35.33,35.33,0,0,0,4.41-2l.67-.31.56.1c.45.54.4,1-.14,1.28a7,7,0,0,1-1.74,1.48,16.86,16.86,0,0,1-3.9,2A31.92,31.92,0,0,1,132.41,83.28Zm23.65.43-4.85,1.94c-3.12,1.25-6.25,2.47-9.37,3.71s-6.27,2.4-9.44,3.53-6.65,2.09-9.88,3.35a.41.41,0,0,0-.25.25c-1.83.64-10.77,4.18-12.6,4.83a44.6,44.6,0,0,0-4.73,1.7c-2.38-.08-4.73.24-7.14-.17-2.58-.44-6.21-1.17-5.85-4.56.27-2.52,2.15-4.58,3.92-6.21,1.61-1.49,3.32-2.89,5-4.33,2.49-.53,4.9-2.54,7.05-3.82,1.72-1,10.64-4.89,12.37-6,1.32-.62,2.6-1.37,4-1.91,1.87-.76,3.8-1.3,5.72-1.89,3.59-1.1,7-3.6,10.78-3.79a4.27,4.27,0,0,1-1.1,1.41,8,8,0,0,1-1.39.73c-1,.48-2,.94-2.93,1.41a54.92,54.92,0,0,0-5.75,3,.25.25,0,0,0,0,.4.5.5,0,0,0,.52.73c8.89-1.73,17-5.74,25.51-8.83,1-.36,2-.71,3-1,.79-.27,1-.7,1.25.33s-.19.87-1,1.28c-2.15,1-4.32,2.07-6.48,3.1-1.93.92-3.85,1.87-5.76,2.81a10.12,10.12,0,0,0-1.3.09.3.3,0,0,0-.24.38,65.31,65.31,0,0,0-8,3.51c-1.91.87-5.3,1.67-5.93,4-.08.29.15.67.47.63,2.17-.22,4.36-.45,6.49-.88-1.91.84-4.35,2.09-3.66,4.06a.55.55,0,0,0,.66.38,35.66,35.66,0,0,0,7.68-2.34c.67-.29,1.37-.61,2.07-.95h.05c2.57-.45,5-1.37,7.58-2,2.34-.55,4.8-.71,7.14-1.26a.32.32,0,0,0,.4.21,3.17,3.17,0,0,1,1-.11h.05C160.2,82.5,156.91,83.37,156.06,83.71Z"/><path class="cls-3" d="M154.8,112.41a1.08,1.08,0,0,0-1-.35.31.31,0,0,0-.1,0c-4.12-.44-8.18,1.27-12.18,2.33a11,11,0,0,0,1.89-1.45c.78-.76,1-1.86-.15-2.38a2.44,2.44,0,0,0-1.3-.19,2.32,2.32,0,0,0,.95-1.81,1.08,1.08,0,0,0-.79-.82c2.4-1.08,4.79-2.15,7.18-3.26,1.23-.56,2.52-1.07,3.71-1.71a3.25,3.25,0,0,0,1.57-1.4,1.41,1.41,0,0,0-1.12-2,5.83,5.83,0,0,0-2.63.51c-1.2.39-2.39.83-3.57,1.28-2.38.9-4.72,1.86-7.07,2.82a93.51,93.51,0,0,1-12.85,4.47c2.32-.89,4.56-2,6.83-3,1.53-.65,3.39-1.46,2.77-3.51a.64.64,0,0,0-.6-.47c-3.86-.13-7.12,2.37-10.7,3.47-3.23,1-7.07,2-9.77,4.16-1.21.7-8.78,4.06-10,4.74a40.89,40.89,0,0,0-5.53,3.16.31.31,0,0,0-.22.06c-3.41,2.64-10.73,7-9.37,12.37.61,2.43,3.3,3,5.4,3.4a17.05,17.05,0,0,0,6.25.32.27.27,0,0,0,.3.16,22.16,22.16,0,0,0,5-1.54c1.82-.64,10-3.92,11.84-4.57,3.65-1.3,7.25-2.71,10.88-4a.37.37,0,0,0,.24-.42c2.91-1,5.84-2,8.73-3.15q4.88-1.83,9.68-3.82c1.36-.56,4.74-1.25,5.3-3a.73.73,0,0,0,.31-.07A.23.23,0,0,0,154.8,112.41Zm-12.27-.78c.56.37.43.66-.38.88l-.74.5a33.61,33.61,0,0,1-3.35,1.91,31.6,31.6,0,0,1-7.11,2.49c.36-1.19,3.35-2.42,4.1-2.86a.35.35,0,0,0,.13-.51,17,17,0,0,0,3.93-1.64.34.34,0,0,0,.51,0C140.24,111.89,141.85,110.68,142.53,111.63Zm-14.3,2.69a7.48,7.48,0,0,1,2.81-1.63l3.2-1.47a.23.23,0,0,0,.2,0l1.84-.86a31,31,0,0,0,4-1.8l.61-.28a4.21,4.21,0,0,1,.49.09c.41.48.37.87-.12,1.15a5.94,5.94,0,0,1-1.56,1.33,15.74,15.74,0,0,1-3.52,1.84A28.93,28.93,0,0,1,128.23,114.32Zm21.29.39-4.36,1.75c-2.81,1.12-5.63,2.21-8.44,3.33s-5.65,2.16-8.49,3.18-6,1.87-8.9,3a.43.43,0,0,0-.22.22c-1.65.58-9.7,3.77-11.34,4.36a40.9,40.9,0,0,0-4.26,1.52,44.48,44.48,0,0,1-6.42-.15c-2.33-.39-5.6-1.05-5.27-4.1.24-2.27,1.93-4.12,3.52-5.59s3-2.6,4.49-3.9c2.24-.48,4.41-2.28,6.35-3.44,1.54-.91,9.57-4.39,11.13-5.36,1.18-.56,2.33-1.23,3.55-1.72,1.69-.68,3.42-1.17,5.15-1.7,3.24-1,6.28-3.24,9.7-3.41a3.84,3.84,0,0,1-1,1.27,9.3,9.3,0,0,1-1.25.66l-2.64,1.26a49.73,49.73,0,0,0-5.17,2.7.22.22,0,0,0,0,.35.45.45,0,0,0,.47.66c8-1.56,15.34-5.17,23-7.94.89-.33,1.79-.65,2.69-.94.71-.24.94-.63,1.12.3s-.17.78-.92,1.15c-1.94.95-3.89,1.86-5.84,2.79-1.73.83-3.46,1.68-5.18,2.53a7,7,0,0,0-1.16.08.26.26,0,0,0-.22.34,61.49,61.49,0,0,0-7.17,3.15c-1.72.79-4.77,1.51-5.34,3.64a.45.45,0,0,0,.43.57c2-.2,3.92-.4,5.84-.79-1.72.76-3.91,1.88-3.29,3.65a.5.5,0,0,0,.59.35,32.08,32.08,0,0,0,6.91-2.11c.6-.26,1.23-.55,1.86-.85h.05c2.31-.4,4.53-1.23,6.82-1.76,2.1-.49,4.32-.64,6.43-1.13a.29.29,0,0,0,.35.19,2.63,2.63,0,0,1,.92-.1h0C153.25,113.62,150.28,114.4,149.52,114.71Z"/><path class="cls-3" d="M.37,51.51a.68.68,0,0,0,.36.07c.65,2,4.58,2.81,6.17,3.46,3.73,1.53,7.47,3,11.25,4.45,3.36,1.27,6.76,2.43,10.14,3.66a.43.43,0,0,0,.28.48c4.22,1.54,8.41,3.17,12.65,4.69,2.11.75,11.65,4.57,13.77,5.31a26,26,0,0,0,5.77,1.79.33.33,0,0,0,.35-.18,19.68,19.68,0,0,0,7.26-.38c2.44-.48,5.57-1.13,6.29-4,1.58-6.28-6.94-11.32-10.9-14.38a.35.35,0,0,0-.25-.07c-1.88-1.52-4.45-2.55-6.43-3.67-1.38-.79-10.19-4.7-11.6-5.51-3.14-2.56-7.6-3.68-11.35-4.84-4.16-1.28-8-4.18-12.44-4A.75.75,0,0,0,21,39c-.72,2.38,1.45,3.32,3.22,4.08,2.64,1.14,5.25,2.47,7.94,3.5a108.54,108.54,0,0,1-14.93-5.19C14.49,40.22,11.76,39.1,9,38.06c-1.37-.52-2.75-1-4.15-1.49A6.75,6.75,0,0,0,1.79,36a1.63,1.63,0,0,0-1.3,2.28,3.8,3.8,0,0,0,1.82,1.63c1.39.75,2.89,1.34,4.32,2,2.77,1.28,5.56,2.53,8.34,3.78a1.26,1.26,0,0,0-.91.95,2.64,2.64,0,0,0,1.1,2.1,2.92,2.92,0,0,0-1.51.23c-1.3.6-1.08,1.89-.17,2.77a13.22,13.22,0,0,0,2.19,1.68C11,52.17,6.3,50.18,1.52,50.7a.21.21,0,0,0-.13,0,1.24,1.24,0,0,0-1.11.41A.27.27,0,0,0,.37,51.51Zm17.56-.33a.39.39,0,0,0,.59,0,19.81,19.81,0,0,0,4.57,1.9.41.41,0,0,0,.15.6c.87.51,4.34,1.93,4.76,3.32a36.36,36.36,0,0,1-8.26-2.9,38.19,38.19,0,0,1-3.89-2.21c-.29-.19-.58-.38-.86-.58-1-.26-1.1-.6-.45-1C15.34,49.15,17.21,50.55,17.93,51.18Zm4,.31a18.53,18.53,0,0,1-4.09-2.14,7.14,7.14,0,0,1-1.81-1.55c-.57-.33-.62-.78-.15-1.34a5.86,5.86,0,0,1,.58-.1l.71.32a36.43,36.43,0,0,0,4.61,2.1c.71.33,1.43.65,2.14,1a.31.31,0,0,0,.23,0l3.72,1.7c1,.46,2.51.93,3.26,1.9A33.93,33.93,0,0,1,22,51.49Zm-20.77,0h.06a3.2,3.2,0,0,1,1.07.11.32.32,0,0,0,.41-.22c2.45.57,5,.74,7.48,1.31,2.66.62,5.24,1.59,7.93,2.05h.05c.73.36,1.47.69,2.16,1a37.15,37.15,0,0,0,8,2.45.58.58,0,0,0,.69-.4c.72-2.06-1.84-3.36-3.83-4.24,2.23.45,4.52.68,6.79.92a.53.53,0,0,0,.5-.66c-.66-2.49-4.21-3.32-6.21-4.23A67.61,67.61,0,0,0,18,45.94a.31.31,0,0,0-.26-.4,8,8,0,0,0-1.35-.09c-2-1-4-2-6-2.94-2.27-1.08-4.54-2.14-6.79-3.25-.87-.43-1.27-.31-1.07-1.33s.48-.63,1.31-.35c1,.34,2.08.71,3.12,1.09,8.86,3.23,17.39,7.42,26.69,9.23a.52.52,0,0,0,.55-.76.26.26,0,0,0,0-.41,59.28,59.28,0,0,0-6-3.14c-1-.49-2.05-1-3.06-1.47a8.79,8.79,0,0,1-1.46-.76,4.45,4.45,0,0,1-1.15-1.48c4,.2,7.51,2.81,11.28,4,2,.62,4,1.18,6,2,1.42.57,2.75,1.35,4.14,2C45.67,48.94,55,53,56.8,54.06c2.26,1.34,4.77,3.43,7.37,4,1.75,1.5,3.53,3,5.22,4.53,1.85,1.7,3.82,3.85,4.1,6.49.38,3.55-3.42,4.31-6.12,4.77-2.52.43-5,.1-7.47.17A50.38,50.38,0,0,0,55,72.25c-1.91-.68-11.26-4.39-13.18-5.06a.43.43,0,0,0-.26-.25c-3.38-1.33-6.92-2.29-10.34-3.51s-6.61-2.38-9.87-3.69l-9.81-3.88-5.07-2C5.53,53.47,2.09,52.56,1.19,51.53Z"/><path class="cls-3" d="M3.66,81.49a.73.73,0,0,0,.34.08c.63,1.91,4.38,2.68,5.9,3.3,3.56,1.46,7.14,2.89,10.75,4.25,3.22,1.21,6.47,2.33,9.7,3.5a.4.4,0,0,0,.26.46c4,1.47,8,3,12.09,4.48,2,.72,11.14,4.37,13.17,5.08a24.75,24.75,0,0,0,5.51,1.71.31.31,0,0,0,.34-.18,18.82,18.82,0,0,0,6.94-.35c2.33-.47,5.32-1.08,6-3.78C76.18,94,68,89.22,64.25,86.3a.38.38,0,0,0-.24-.08c-1.79-1.44-4.26-2.43-6.14-3.5-1.33-.76-9.75-4.49-11.09-5.27-3-2.44-7.27-3.52-10.85-4.62-4-1.23-7.6-4-11.89-3.86a.71.71,0,0,0-.67.52c-.69,2.28,1.38,3.18,3.08,3.9,2.52,1.09,5,2.36,7.59,3.35a104,104,0,0,1-14.28-5c-2.61-1.07-5.21-2.13-7.85-3.13-1.31-.5-2.63-1-4-1.42A6.41,6.41,0,0,0,5,66.65a1.56,1.56,0,0,0-1.24,2.18,3.51,3.51,0,0,0,1.73,1.56c1.33.72,2.76,1.28,4.13,1.91q4,1.83,8,3.61a1.21,1.21,0,0,0-.87.92,2.56,2.56,0,0,0,1.05,2,2.75,2.75,0,0,0-1.44.22c-1.24.57-1,1.8-.16,2.64a13.06,13.06,0,0,0,2.09,1.62c-4.44-1.19-9-3.08-13.53-2.59a.16.16,0,0,0-.11,0,1.18,1.18,0,0,0-1.06.39A.24.24,0,0,0,3.66,81.49Zm16.78-.31a.38.38,0,0,0,.56,0A18.89,18.89,0,0,0,25.37,83a.39.39,0,0,0,.14.57c.84.49,4.16,1.85,4.56,3.17A34.71,34.71,0,0,1,22.18,84a38.08,38.08,0,0,1-3.73-2.12l-.82-.56c-.9-.25-1.05-.57-.43-1C18,79.24,19.75,80.58,20.44,81.18Zm3.85.29a16.86,16.86,0,0,1-3.9-2A7,7,0,0,1,18.65,78c-.54-.31-.59-.74-.14-1.28l.56-.1.67.31a35.33,35.33,0,0,0,4.41,2l2.05.94a.23.23,0,0,0,.21,0L30,81.47c.94.44,2.4.89,3.12,1.81A31.92,31.92,0,0,1,24.29,81.47Zm-19.84,0h0a3.17,3.17,0,0,1,1,.11.32.32,0,0,0,.4-.21c2.34.55,4.8.71,7.14,1.26,2.54.59,5,1.51,7.58,2h.05c.7.34,1.4.66,2.07.95a35.66,35.66,0,0,0,7.68,2.34.55.55,0,0,0,.66-.38c.69-2-1.75-3.22-3.66-4.06,2.13.43,4.32.66,6.49.88.32,0,.55-.34.47-.63-.63-2.37-4-3.17-5.93-4a65.31,65.31,0,0,0-8-3.51.3.3,0,0,0-.24-.38A10.12,10.12,0,0,0,19,75.7c-1.91-.94-3.83-1.89-5.76-2.81-2.16-1-4.33-2-6.48-3.1-.84-.41-1.22-.3-1-1.28s.46-.6,1.25-.33c1,.33,2,.68,3,1,8.47,3.09,16.62,7.1,25.51,8.83a.5.5,0,0,0,.52-.73.25.25,0,0,0,0-.4,54.92,54.92,0,0,0-5.75-3c-1-.47-2-.93-2.93-1.41a8,8,0,0,1-1.39-.73,4.27,4.27,0,0,1-1.1-1.41c3.81.19,7.19,2.69,10.78,3.79,1.92.59,3.85,1.13,5.72,1.89,1.35.54,2.63,1.29,3.95,1.91C47,79,55.88,82.91,57.6,83.93c2.15,1.28,4.56,3.29,7.05,3.82,1.66,1.44,3.37,2.84,5,4.33,1.77,1.63,3.65,3.69,3.92,6.21.36,3.39-3.27,4.12-5.85,4.56-2.41.41-4.76.09-7.14.17a44.6,44.6,0,0,0-4.73-1.7c-1.83-.65-10.77-4.19-12.6-4.83a.41.41,0,0,0-.25-.25c-3.23-1.26-6.61-2.19-9.88-3.35s-6.32-2.28-9.44-3.53-6.25-2.46-9.37-3.71L9.44,83.71C8.59,83.37,5.3,82.5,4.45,81.52Z"/><path class="cls-3" d="M10.78,112.71a.73.73,0,0,0,.31.07c.56,1.72,3.94,2.41,5.3,3q4.82,2,9.68,3.82c2.89,1.1,5.82,2.1,8.73,3.15a.37.37,0,0,0,.24.42c3.63,1.32,7.23,2.73,10.88,4,1.81.65,10,3.93,11.84,4.57a22.16,22.16,0,0,0,5,1.54.27.27,0,0,0,.3-.16,17.05,17.05,0,0,0,6.25-.32c2.1-.42,4.79-1,5.4-3.4,1.36-5.4-6-9.73-9.37-12.37a.31.31,0,0,0-.22-.06,40.89,40.89,0,0,0-5.53-3.16c-1.19-.68-8.76-4-10-4.74-2.7-2.2-6.54-3.16-9.77-4.16-3.58-1.1-6.84-3.6-10.7-3.47a.64.64,0,0,0-.6.47c-.62,2,1.24,2.86,2.77,3.51,2.27,1,4.51,2.12,6.83,3A93.51,93.51,0,0,1,25.27,104c-2.35-1-4.69-1.92-7.07-2.82-1.18-.45-2.37-.89-3.57-1.28A5.83,5.83,0,0,0,12,99.35a1.41,1.41,0,0,0-1.12,2,3.25,3.25,0,0,0,1.57,1.4c1.19.64,2.48,1.15,3.71,1.71,2.39,1.11,4.78,2.18,7.18,3.26a1.08,1.08,0,0,0-.79.82,2.32,2.32,0,0,0,.95,1.81,2.44,2.44,0,0,0-1.3.19c-1.12.52-.93,1.62-.15,2.38a11,11,0,0,0,1.89,1.45c-4-1.06-8.06-2.77-12.18-2.33a.31.31,0,0,0-.1,0,1.08,1.08,0,0,0-1,.35A.23.23,0,0,0,10.78,112.71Zm15.1-.28a.34.34,0,0,0,.51,0A17,17,0,0,0,30.32,114a.35.35,0,0,0,.13.51c.75.44,3.74,1.67,4.1,2.86a31.6,31.6,0,0,1-7.11-2.49A33.61,33.61,0,0,1,24.09,113l-.74-.5c-.81-.22-.94-.51-.38-.88C23.65,110.68,25.26,111.89,25.88,112.43Zm3.47.26a15.74,15.74,0,0,1-3.52-1.84,5.94,5.94,0,0,1-1.56-1.33c-.49-.28-.53-.67-.12-1.15a4.21,4.21,0,0,1,.49-.09l.61.28a31,31,0,0,0,4,1.8l1.84.86a.23.23,0,0,0,.2,0l3.2,1.47a7.48,7.48,0,0,1,2.81,1.63A28.93,28.93,0,0,1,29.35,112.69Zm-17.86,0h0a2.63,2.63,0,0,1,.92.1.29.29,0,0,0,.35-.19c2.11.49,4.33.64,6.43,1.13,2.29.53,4.51,1.36,6.82,1.76h.05c.63.3,1.26.59,1.86.85a32.08,32.08,0,0,0,6.91,2.11.5.5,0,0,0,.59-.35c.62-1.77-1.57-2.89-3.29-3.65,1.92.39,3.89.59,5.84.79a.45.45,0,0,0,.43-.57c-.57-2.13-3.62-2.85-5.34-3.64a61.49,61.49,0,0,0-7.17-3.15.26.26,0,0,0-.22-.34,7,7,0,0,0-1.16-.08c-1.72-.85-3.45-1.7-5.18-2.53-1.95-.93-3.9-1.84-5.84-2.79-.75-.37-1.1-.27-.92-1.15s.41-.54,1.12-.3c.9.29,1.8.61,2.69.94,7.62,2.77,15,6.38,23,7.94a.45.45,0,0,0,.47-.66.22.22,0,0,0,0-.35,49.73,49.73,0,0,0-5.17-2.7L32,104.64a9.3,9.3,0,0,1-1.25-.66,3.84,3.84,0,0,1-1-1.27c3.42.17,6.46,2.42,9.7,3.41,1.73.53,3.46,1,5.15,1.7,1.22.49,2.37,1.16,3.55,1.72,1.56,1,9.59,4.45,11.13,5.36,1.94,1.16,4.11,3,6.35,3.44,1.5,1.3,3,2.56,4.49,3.9s3.28,3.32,3.52,5.59c.33,3-2.94,3.71-5.27,4.1a44.48,44.48,0,0,1-6.42.15,40.9,40.9,0,0,0-4.26-1.52c-1.64-.59-9.69-3.78-11.34-4.36a.43.43,0,0,0-.22-.22c-2.91-1.14-6-2-8.9-3s-5.68-2-8.49-3.18-5.63-2.21-8.44-3.33L16,114.71C15.22,114.4,12.25,113.62,11.49,112.73Z"/><path d="M99.5,15.42c-4-4.51-9.73-5.56-15.12-5.16-10.17.76-23,8.17-23.6,21.32-.87.69-.67,2.5.66,2.57h.26l.18.05c1.77.09,3.55.15,5.33.18.84,0,1.69,0,2.54,0H70c4.36,0,8.72-.08,13.07-.18,6-.12,12.09.09,18-.87a1.27,1.27,0,0,0,.75.08,7.92,7.92,0,0,0,1.78-.46c.63.43,1.55.08,1.6-1A25.76,25.76,0,0,0,99.5,15.42Zm-1.34,2.36A16.39,16.39,0,0,1,100.39,22a11.51,11.51,0,0,0-3.74,1.15c-1.44.75-2.73,1.63-4.22,2.27a9.07,9.07,0,0,0-2-2A38.22,38.22,0,0,0,93,20a35.37,35.37,0,0,0,2.78-4.6A11.88,11.88,0,0,1,98.16,17.78ZM85.68,12.65a17.07,17.07,0,0,1,8.59,1.77,32.85,32.85,0,0,0-2.75,4.22,38.26,38.26,0,0,0-2.13,4.13,11.06,11.06,0,0,0-3.8-1.3A59,59,0,0,0,85.68,12.65Zm-1.32.07c-.08,2.89-.25,5.76-.36,8.64l-.65,0a12.79,12.79,0,0,0-5.2,1.72c-.28-1.3-1.43-2.35-2.22-3.4s-1.76-2.35-2.61-3.55A24,24,0,0,1,84.36,12.72ZM73,30.72a95.26,95.26,0,0,0-10.62.52,31.27,31.27,0,0,1,3.41-7.55c1.17.74,2.47,1.35,3.64,2.07s2.58,2,4,2.47h.08A7.64,7.64,0,0,0,73,30.72Zm-2.76-6.37a27.85,27.85,0,0,0-3.57-1.94,23.44,23.44,0,0,1,5.81-5.7c.77,1.34,1.54,2.7,2.38,4,.7,1.05,1.32,2.38,2.42,3a10.75,10.75,0,0,0-3.24,3.48A12.28,12.28,0,0,0,70.25,24.35Zm12.14,7.38-3.25.15a.9.9,0,0,0-.69-.68,34.5,34.5,0,0,0-3.71-.41c1.62-4.15,4.15-7.51,9.16-7.61,5.78-.12,6.23,4,8.61,7.92C89.12,31.27,85.73,31.56,82.39,31.73Zm18.84-.83a1.27,1.27,0,0,0-.34.2A66.44,66.44,0,0,0,93.83,31a7.39,7.39,0,0,0-.28-3.47,12.42,12.42,0,0,0,2.9-1.48,40.85,40.85,0,0,1,4.48-2.43c.67,2.28,1.08,4.65,1.72,7A3.66,3.66,0,0,0,101.23,30.9Z"/><path d="M75.63,4.08A.09.09,0,0,0,75.68,4,5.19,5.19,0,0,0,68.12.64a.71.71,0,0,0-.36.8A5.37,5.37,0,0,0,66.05,5.2a3.59,3.59,0,0,0,1.73,3.35,6.83,6.83,0,0,0,5.1.33A3.42,3.42,0,0,0,75.3,6.53a1,1,0,0,0,.19-.33,3.46,3.46,0,0,0,.06-.91,3.4,3.4,0,0,1,.12-.71A.85.85,0,0,0,75.63,4.08Zm-3.37,3.4a5.94,5.94,0,0,1-3.1.15,3,3,0,0,1-.63-.25.54.54,0,0,0-.06-.3,4.7,4.7,0,0,0-.77-.9,1.44,1.44,0,0,1-.37-.85V5.09a2.57,2.57,0,0,1,.08-.47l0-.1A4.51,4.51,0,0,1,69.73,2a8.16,8.16,0,0,1,3.58.56,6,6,0,0,0,.14,1.37c.1.78.23,1.56.35,2.34a.24.24,0,0,0,0,.09A3.52,3.52,0,0,1,72.26,7.48Z"/><path d="M102.74,2.69C101.72.91,99.08-.08,97.33,1a4.13,4.13,0,0,0-1.88,1.34A3.27,3.27,0,0,0,94,6.18c.73,2.75,4,3.88,6.5,3.06a3.48,3.48,0,0,0,3.25-2.37A4.89,4.89,0,0,0,102.74,2.69Zm-2.46-.5a.47.47,0,0,0,.06.15c.78,1.23,2.47,2.19,1.94,3.9a2,2,0,0,1-.11.26,2,2,0,0,1-.16.24,2.9,2.9,0,0,1-.49.5,4.65,4.65,0,0,1-3.72.23,2.49,2.49,0,0,1-1.16-3.95,5.22,5.22,0,0,1,1.48-1c.45-.1.92-.27,1.2-.32A3.52,3.52,0,0,1,100.28,2.19Z"/><rect class="cls-1" x="48.1" y="41.45" width="69.31" height="142.93"/><path d="M116.4,42.45V183.38H49.1V42.45h67.3m2-2H47.1V185.38h71.3V40.45Z"/><line class="cls-4" x1="83.88" y1="52.94" x2="105.79" y2="52.94"/><line class="cls-4" x1="84.5" y1="109.76" x2="84.5" y2="42.07"/><line class="cls-4" x1="83.88" y1="73.04" x2="105.79" y2="73.04"/><line class="cls-4" x1="83.88" y1="93.14" x2="105.79" y2="93.14"/><line class="cls-4" x1="106" y1="127.69" x2="80.74" y2="127.69"/><line class="cls-4" x1="106" y1="68.69" x2="106" y2="127.69"/><line class="cls-4" x1="106" y1="108.9" x2="80.74" y2="108.9"/><line class="cls-4" x1="106" y1="83.12" x2="80.74" y2="83.12"/><line class="cls-4" x1="81.62" y1="52.94" x2="56.36" y2="52.94"/><line class="cls-4" x1="80.9" y1="109.76" x2="80.9" y2="42.07"/><line class="cls-4" x1="81.62" y1="73.04" x2="56.36" y2="73.04"/><line class="cls-4" x1="81.62" y1="93.14" x2="56.36" y2="93.14"/><line class="cls-4" x1="51.98" y1="103.5" x2="77.24" y2="103.5"/><line class="cls-4" x1="51.98" y1="63.3" x2="77.24" y2="63.3"/><line class="cls-4" x1="83.88" y1="172.87" x2="109.14" y2="172.87"/><line class="cls-4" x1="84.6" y1="113.87" x2="84.6" y2="172.87"/><line class="cls-4" x1="83.88" y1="152.77" x2="109.14" y2="152.77"/><line class="cls-4" x1="83.88" y1="132.67" x2="109.14" y2="132.67"/><line class="cls-4" x1="113.52" y1="122.3" x2="88.26" y2="122.3"/><line class="cls-4" x1="113.52" y1="181.3" x2="113.52" y2="122.3"/><line class="cls-4" x1="113.52" y1="142.41" x2="88.26" y2="142.41"/><line class="cls-4" x1="81.62" y1="172.87" x2="56.36" y2="172.87"/><line class="cls-4" x1="80.9" y1="113.87" x2="80.9" y2="172.87"/><line class="cls-4" x1="81.62" y1="132.67" x2="56.36" y2="132.67"/><line class="cls-4" x1="51.98" y1="122.3" x2="77.24" y2="122.3"/><line class="cls-4" x1="51.98" y1="181.3" x2="51.98" y2="122.3"/><line class="cls-4" x1="51.98" y1="142.41" x2="77.24" y2="142.41"/><line class="cls-4" x1="51.98" y1="162.51" x2="77.24" y2="162.51"/><path d="M66.46,153.63c-1.24-8.72-9.18-12.36-17.15-12.4-4.3,0-8.8,1.39-11.67,4.79-2.46,2.92-3.14,6.75-3.18,10.5a14.64,14.64,0,0,0,2.91,11.08,16,16,0,0,0,20.06,4.22C63.85,168.49,67.49,160.81,66.46,153.63Zm-2.65,8.57c-3.27,8.19-13.16,12.52-21,8.14a14.36,14.36,0,0,1-7.19-11.05.74.74,0,0,0,.31-.54A43.93,43.93,0,0,1,37,151.68a12.79,12.79,0,0,1,2.22-3,.43.43,0,0,0,0-.55l.67-.88a.43.43,0,0,0,0-.57,1.14,1.14,0,0,0,.11-.11c3.5-3.15,8.43-3.6,12.87-2.83s8.73,2.28,10.78,6.52A15.07,15.07,0,0,1,63.81,162.2Z"/><path d="M105.52,146.54C99,153.43,99,165.39,106,172a1.1,1.1,0,0,0,1.52-.05,13.94,13.94,0,0,0,7,2.64,17.9,17.9,0,0,0,12.34-2.71A14.3,14.3,0,0,0,133,161.48c.42-4.88-2.19-9.38-5-13.14C122.57,140.93,112.1,139.56,105.52,146.54Zm19.65,2.14c5.26,6.11,8.31,14.71,1.13,20.77-5.09,4.29-13.9,4.34-19.3.17-3.57-6.24-5.68-13.37-1.12-19.86A12,12,0,0,1,125.17,148.68Z"/><path class="cls-1" d="M125.17,148.68c5.26,6.11,8.31,14.71,1.13,20.77-5.09,4.29-13.9,4.34-19.3.17-3.57-6.24-5.68-13.37-1.12-19.86A12,12,0,0,1,125.17,148.68Z"/><path class="cls-1" d="M63.81,162.2c-3.27,8.19-13.16,12.52-21,8.14a14.36,14.36,0,0,1-7.19-11.05.74.74,0,0,0,.31-.54A43.93,43.93,0,0,1,37,151.68a12.79,12.79,0,0,1,2.22-3,.43.43,0,0,0,0-.55l.67-.88a.43.43,0,0,0,0-.57,1.14,1.14,0,0,0,.11-.11c3.5-3.15,8.43-3.6,12.87-2.83s8.73,2.28,10.78,6.52A15.07,15.07,0,0,1,63.81,162.2Z"/><path class="cls-1" d="M98.16,17.78A16.39,16.39,0,0,1,100.39,22a11.51,11.51,0,0,0-3.74,1.15c-1.44.75-2.73,1.63-4.22,2.27a9.07,9.07,0,0,0-2-2A38.22,38.22,0,0,0,93,20a35.37,35.37,0,0,0,2.78-4.6A11.88,11.88,0,0,1,98.16,17.78Z"/><path class="cls-1" d="M85.68,12.65a17.07,17.07,0,0,1,8.59,1.77,32.85,32.85,0,0,0-2.75,4.22,38.26,38.26,0,0,0-2.13,4.13,11.06,11.06,0,0,0-3.8-1.3A59,59,0,0,0,85.68,12.65Z"/><path class="cls-1" d="M84.36,12.72c-.08,2.89-.25,5.76-.36,8.64l-.65,0a12.79,12.79,0,0,0-5.2,1.72c-.28-1.3-1.43-2.35-2.22-3.4s-1.76-2.35-2.61-3.55A24,24,0,0,1,84.36,12.72Z"/><path class="cls-1" d="M73,30.72a95.26,95.26,0,0,0-10.62.52,31.27,31.27,0,0,1,3.41-7.55c1.17.74,2.47,1.35,3.64,2.07s2.58,2,4,2.47h.08A7.64,7.64,0,0,0,73,30.72Z"/><path class="cls-1" d="M70.25,24.35a27.85,27.85,0,0,0-3.57-1.94,23.44,23.44,0,0,1,5.81-5.7c.77,1.34,1.54,2.7,2.38,4,.7,1.05,1.32,2.38,2.42,3a10.75,10.75,0,0,0-3.24,3.48A12.28,12.28,0,0,0,70.25,24.35Z"/><path class="cls-1" d="M82.39,31.73l-3.25.15a.9.9,0,0,0-.69-.68,34.5,34.5,0,0,0-3.71-.41c1.62-4.15,4.15-7.51,9.16-7.61,5.78-.12,6.23,4,8.61,7.92C89.12,31.27,85.73,31.56,82.39,31.73Z"/><path class="cls-1" d="M101.23,30.9a1.27,1.27,0,0,0-.34.2A66.44,66.44,0,0,0,93.83,31a7.39,7.39,0,0,0-.28-3.47,12.42,12.42,0,0,0,2.9-1.48,40.85,40.85,0,0,1,4.48-2.43c.67,2.28,1.08,4.65,1.72,7A3.66,3.66,0,0,0,101.23,30.9Z"/><path class="cls-1" d="M72.26,7.48a5.94,5.94,0,0,1-3.1.15,3,3,0,0,1-.63-.25.54.54,0,0,0-.06-.3,4.7,4.7,0,0,0-.77-.9,1.44,1.44,0,0,1-.37-.85V5.09a2.57,2.57,0,0,1,.08-.47l0-.1A4.51,4.51,0,0,1,69.73,2a8.16,8.16,0,0,1,3.58.56,6,6,0,0,0,.14,1.37c.1.78.23,1.56.35,2.34a.24.24,0,0,0,0,.09A3.52,3.52,0,0,1,72.26,7.48Z"/><path class="cls-1" d="M100.28,2.19a.47.47,0,0,0,.06.15c.78,1.23,2.47,2.19,1.94,3.9a2,2,0,0,1-.11.26,2,2,0,0,1-.16.24,2.9,2.9,0,0,1-.49.5,4.65,4.65,0,0,1-3.72.23,2.49,2.49,0,0,1-1.16-3.95,5.22,5.22,0,0,1,1.48-1c.45-.1.92-.27,1.2-.32A3.52,3.52,0,0,1,100.28,2.19Z"/><path d="M127.93,152.5a129.6,129.6,0,0,1-12,6.93c-4.19,2-8.77,2.93-12.91,4.92-.84.41-.19,1.52.58,1.4,4.22-.66,8.55-3.09,12.4-4.94a73.89,73.89,0,0,0,12.49-7.28C129.11,153.08,128.59,152.09,127.93,152.5Z"/><path d="M62.72,164.59C55,158.82,46.27,154.08,38,149.26a.55.55,0,0,0-.55,1c8.21,5.08,16.25,10.76,24.72,15.35A.56.56,0,0,0,62.72,164.59Z"/></g></g></svg>