<svg xmlns="http://www.w3.org/2000/svg" xmlns:xlink="http://www.w3.org/1999/xlink" viewBox="0 0 165.5 201.43"><defs><style>.cls-1,.cls-6{fill:none;}.cls-2,.cls-4{fill:#fff;}.cls-3,.cls-4,.cls-6{stroke:#000;stroke-miterlimit:10;}.cls-3{stroke-width:0.5px;}.cls-4,.cls-6{stroke-width:2px;}.cls-5{clip-path:url(#clip-path);}</style><clipPath id="clip-path"><rect class="cls-1" x="10.28" y="77.68" width="144.94" height="71.31" transform="translate(196.09 30.59) rotate(90)"/></clipPath></defs><title>T_token_b2_linn</title><g id="Layer_2" data-name="Layer 2"><g id="T_token_b2_linn"><path class="cls-2" d="M105.71,103a6.88,6.88,0,0,1-3.78-1.17C96.57,98.32,93,90.77,96.32,85a33.25,33.25,0,0,1,6-7c.55-.54,1.1-1.06,1.63-1.59l9.37-9.37a197.78,197.78,0,0,1,21.73-15.62,3.4,3.4,0,0,1-.43,1.36,4.17,4.17,0,0,1-.7.69l-.35.29-1.19,1.09-.77.69-1.92,1.77c-.59.54-1.17,1.09-1.76,1.62a.6.6,0,0,0-.16.67.56.56,0,0,0,.53.36c2.2-.21,3.9-1.46,5.53-2.67l.11-.08c2.25-1.66,4.49-3.34,6.72-5,.39-.3.82-.59,1.25-.88A13,13,0,0,0,145.73,48c1-1.59.45-2.77-.14-4-.13-.26-.26-.53-.38-.82a1.89,1.89,0,0,1-.23-1.45l.92-.29a4.85,4.85,0,0,1,1.07,1.3l.33.47L148,44a15,15,0,0,1,1.73,2.42,1.72,1.72,0,0,1,.15,1.86,5.36,5.36,0,0,1-1.1,1.23c-.18.16-.35.32-.49.47-1,1-2.09,2.08-3.36,3.22-2.94,2.66-6.08,5.21-9.1,7.69l-3.64,3a.66.66,0,0,0-.21.75.69.69,0,0,0,.64.47.63.63,0,0,0,.39-.13,127.84,127.84,0,0,0,10.15-8l1-.88a38.45,38.45,0,0,0,6.67-6.7l.16-.2c1.69,1.87,3.11,3.83,1.67,5.6a22.81,22.81,0,0,1-3.77,3.4c-.48.37-1,.74-1.41,1.11-3.59,3-7.42,5.93-11.38,8.83a.64.64,0,0,0-.24.72.71.71,0,0,0,.66.49h0a.63.63,0,0,0,.37-.12c3.53-2.29,6.6-4.45,9.4-6.62,1.6-1.23,3.18-2.51,4.71-3.81.69-.59,1.38-1.18,2.06-1.78l.39-.37a5.92,5.92,0,0,1,.72-.62l.29-.23c.12-.09.23-.19.29-.19s.12,0,.32.23a1.51,1.51,0,0,1,.48,1.12c0,1.33-1.6,2.87-2.45,3.69-1.36,1.33-2.75,2.6-4.29,4-2.92,2.56-6,5-9.21,7.32a.65.65,0,0,0-.25.75.72.72,0,0,0,.66.51.58.58,0,0,0,.26,0,24.82,24.82,0,0,0,6.59-4.52l.2-.18c2.19-1.87,4.38-3.76,6.56-5.64a1.67,1.67,0,0,1,.32,1.12c-.09,1.32-1.5,2.72-2.34,3.43q-1.81,1.55-3.65,3.06l-28.1,23.41c-.86.71-1.7,1.43-2.55,2.16-1.94,1.66-4,3.38-6,4.91A9.49,9.49,0,0,1,105.71,103Z"/><path d="M145.86,41.64a6.68,6.68,0,0,1,.9,1.16c.14.2.25.37.35.49.21.28.43.55.66.84a14.15,14.15,0,0,1,1.69,2.37c.38.73.45,1.06.16,1.64a5.22,5.22,0,0,1-1.05,1.15l-.5.48c-1,1-2.08,2.07-3.34,3.21-2.95,2.66-6.08,5.21-9.11,7.69l-3.63,3a.92.92,0,0,0-.29,1,.94.94,0,0,0,.88.63,1,1,0,0,0,.54-.17c3.78-2.64,7.26-5.54,10.17-8l1-.88a38.51,38.51,0,0,0,6.68-6.7h0c1.53,1.72,2.74,3.5,1.47,5.07a23.6,23.6,0,0,1-3.73,3.35c-.49.38-1,.75-1.41,1.12-3.59,3-7.41,5.92-11.38,8.82a.89.89,0,0,0-.33,1,.93.93,0,0,0,1.41.5c3.53-2.3,6.61-4.46,9.42-6.63,1.59-1.23,3.18-2.52,4.71-3.82.7-.59,1.39-1.18,2.07-1.79.13-.11.26-.24.39-.37a6,6,0,0,1,.69-.6l.31-.23.14-.11.13.12a1.29,1.29,0,0,1,.41,1c0,1.23-1.61,2.77-2.37,3.51l-.06.06c-1.31,1.27-2.69,2.54-4.22,3.88-2.93,2.56-6,5-9.2,7.3a.93.93,0,0,0-.34,1,1,1,0,0,0,.9.68.92.92,0,0,0,.36-.07A25,25,0,0,0,147,68.72l.2-.17,6.33-5.45a1.51,1.51,0,0,1,.13.73c-.08,1.22-1.45,2.56-2.25,3.25-1.19,1-2.41,2-3.6,3l-1,.81-4.46,3.72L138,78.34,124.1,89.88l-4.4,3.67c-.86.71-1.7,1.43-2.55,2.16-1.94,1.66-4,3.37-6,4.9a9.22,9.22,0,0,1-5.42,2.09,6.68,6.68,0,0,1-3.65-1.13c-5.26-3.4-8.74-10.8-5.52-16.41a32.91,32.91,0,0,1,6-6.92l1.63-1.6L105.82,75l7.69-7.68A196.77,196.77,0,0,1,134.71,52a2.87,2.87,0,0,1-.28.7,4,4,0,0,1-.66.63l-.36.31-1.17,1.06-.79.72-1.91,1.76c-.59.54-1.17,1.09-1.77,1.63a.85.85,0,0,0-.22.94.8.8,0,0,0,.76.52h.08c2.22-.21,3.94-1.48,5.6-2.71l.11-.08c2.25-1.66,4.49-3.34,6.72-5,.39-.29.81-.58,1.24-.88a13.25,13.25,0,0,0,3.88-3.5c1.08-1.7.49-2.94-.13-4.26-.12-.25-.25-.52-.37-.8v0l0,0a1.62,1.62,0,0,1-.21-1.1l.66-.21m0-.54-1.14.36a2.17,2.17,0,0,0,.21,1.75c.71,1.67,1.66,2.83.54,4.6s-3.34,3-5,4.25c-2.23,1.67-4.47,3.35-6.71,5-1.68,1.23-3.34,2.49-5.46,2.7h0a.33.33,0,0,1-.2-.59c1.23-1.13,2.44-2.27,3.68-3.39l2-1.78a7.1,7.1,0,0,0,1.09-1,3.54,3.54,0,0,0,.47-1.94,196,196,0,0,0-22.15,15.88h0l-9.38,9.36C101.1,79,98,81.58,96.11,84.92c-3.45,6,.31,13.6,5.68,17.07a7.15,7.15,0,0,0,3.92,1.21,9.74,9.74,0,0,0,5.72-2.19c3-2.19,5.75-4.71,8.59-7.08q9.12-7.61,18.25-15.2l8.92-7.43c1.53-1.28,3.07-2.54,4.58-3.84,1.33-1.13,3.43-3.38,1.89-5.1l-6.75,5.81a25.38,25.38,0,0,1-6.72,4.66.51.51,0,0,1-.17,0,.46.46,0,0,1-.27-.81q4.8-3.45,9.24-7.34c1.44-1.26,2.86-2.56,4.24-3.89,1.13-1.1,3.7-3.54,2-5.23-.21-.21-.36-.29-.49-.29s-.4.22-.73.45a12,12,0,0,0-1.13,1c-.68.6-1.37,1.19-2.06,1.78q-2.31,2-4.7,3.81c-3,2.34-6.17,4.52-9.38,6.6a.38.38,0,0,1-.24.08.43.43,0,0,1-.27-.76q5.82-4.26,11.39-8.83a35.93,35.93,0,0,0,5.21-4.55c1.72-2.11-.31-4.45-1.88-6.16a3.73,3.73,0,0,1-.35.46c-2.08,2.94-5,5.21-7.67,7.54-3.27,2.8-6.6,5.54-10.13,8a.41.41,0,0,1-.25.08.44.44,0,0,1-.27-.78c4.27-3.53,8.64-7,12.75-10.68,1.16-1,2.29-2.11,3.37-3.23a9,9,0,0,0,1.63-1.76,2,2,0,0,0-.15-2.09A23.23,23.23,0,0,0,147.5,43c-.35-.46-1-1.69-1.59-1.89Z"/><path class="cls-3" d="M151.24,46.62a25.17,25.17,0,0,0-3.94-5.3c-.7-.8-1.77-1.82-2.81-.92s-.71,2.24-.22,3.22c.72,1.4,1.47,2.59.39,4a12,12,0,0,1-2.45,2.16c-2.23,1.68-4.46,3.36-6.68,5.06-1.86,1.41-3.81,3.34-6.11,4,1.81-1.6,3.64-3.18,5.39-4.84,1.09-1,2-2.37,1-3.78a.37.37,0,0,0-.52-.07,169.6,169.6,0,0,0-22,16,.4.4,0,0,0-.65-.08l-9.8,9.79c-2.62,2.62-5.6,5.18-7.48,8.44-3.52,6.06-.41,13.12,4.49,17.35,2.32,2,5.25,3.13,8.27,2.23,3.72-1.12,6.8-4.43,9.71-6.86L139.08,79.3c4-3.38,8.09-6.79,12.16-10.14,2.08-1.71,5.9-5.08,2.81-7.78,1.19-1.11,2.45-2.38,2.64-4a3,3,0,0,0-1.87-3.27.53.53,0,0,0-.39,0,3.53,3.53,0,0,0,.14-.56c.29-2.1-1.87-4.25-3.19-5.67A1.84,1.84,0,0,0,151.24,46.62Zm1.62,8.27a35.93,35.93,0,0,1-5.21,4.55q-5.57,4.58-11.39,8.83c-.44.33.06,1,.51.68,3.21-2.08,6.35-4.26,9.38-6.6q2.39-1.86,4.7-3.81c.69-.59,1.38-1.18,2.06-1.78a12,12,0,0,1,1.13-1c.53-.37.66-.73,1.22-.16,1.67,1.69-.9,4.13-2,5.23-1.38,1.33-2.8,2.63-4.24,3.89q-4.44,3.9-9.24,7.34a.45.45,0,0,0,.44.78,25.38,25.38,0,0,0,6.72-4.66l6.75-5.81c1.54,1.72-.56,4-1.89,5.1-1.51,1.3-3.05,2.56-4.58,3.84l-8.92,7.43q-9.14,7.59-18.25,15.2c-2.84,2.37-5.61,4.89-8.59,7.08s-6.34,3.11-9.64,1c-5.37-3.47-9.13-11.07-5.68-17.07,1.91-3.34,5-6,7.67-8.63l9.38-9.36h0A196,196,0,0,1,135.31,51a3.54,3.54,0,0,1-.47,1.94,7.1,7.1,0,0,1-1.09,1l-2,1.78c-1.24,1.12-2.45,2.26-3.68,3.39a.33.33,0,0,0,.24.59c2.12-.21,3.78-1.47,5.46-2.7,2.24-1.66,4.48-3.34,6.71-5,1.66-1.24,3.86-2.44,5-4.25s.17-2.93-.54-4.6a2.17,2.17,0,0,1-.21-1.75l1.14-.36c.55.2,1.24,1.43,1.59,1.89a23.23,23.23,0,0,1,2.41,3.28,2,2,0,0,1,.15,2.09,9,9,0,0,1-1.63,1.76c-1.08,1.12-2.21,2.19-3.37,3.23C141,57.07,136.58,60.5,132.31,64a.44.44,0,0,0,.52.7c3.53-2.46,6.86-5.2,10.13-8,2.71-2.33,5.59-4.6,7.67-7.54a3.73,3.73,0,0,0,.35-.46C152.55,50.44,154.58,52.78,152.86,54.89Z"/><path class="cls-2" d="M102.1,114.26a7.23,7.23,0,0,1-6.81-3.77c-3.13-5.62-2.75-14,2.8-17.45a32.73,32.73,0,0,1,8.54-3.29c.73-.2,1.46-.4,2.17-.62l12.61-3.78A193.14,193.14,0,0,1,147.82,82a3.34,3.34,0,0,1-1,1,3.62,3.62,0,0,1-.93.27l-.45.1-2.55.63-2.49.63c-.77.2-1.55.41-2.33.6a.6.6,0,0,0-.45.54.56.56,0,0,0,.35.57,7.58,7.58,0,0,0,3,.56,21.41,21.41,0,0,0,3.09-.3l.13,0q4.13-.58,8.25-1.2c.48-.07,1-.13,1.51-.18a12.92,12.92,0,0,0,5-1.2c1.62-.92,1.67-2.23,1.73-3.62,0-.29,0-.59.05-.9a1.88,1.88,0,0,1,.46-1.39l.95.18a5,5,0,0,1,.35,1.67c0,.22.05.42.07.57.06.34.13.69.2,1a14.8,14.8,0,0,1,.4,3c0,.86-.11,1.29-.73,1.72a5.19,5.19,0,0,1-1.53.56l-.65.18c-1.35.42-2.8.83-4.45,1.23-3.84.94-7.8,1.7-11.62,2.43l-4.57.89a.69.69,0,0,0,.13,1.36,122.93,122.93,0,0,0,12.75-2.22l1.33-.29a37,37,0,0,0,9-2.71l.24-.1c.62,2.46,1,4.87-1.12,5.75a22.94,22.94,0,0,1-4.9,1.19c-.6.1-1.19.2-1.75.31-4.53.89-9.29,1.67-14.14,2.34a.62.62,0,0,0-.55.68.68.68,0,0,0,.68.66c4.24-.34,7.95-.78,11.42-1.34,2-.33,4-.7,5.92-1.11l2.64-.59.52-.14a5.08,5.08,0,0,1,.92-.21l.36,0a1.76,1.76,0,0,1,.27,0c.07,0,.14,0,.25.36a1.5,1.5,0,0,1-.1,1.23c-.64,1.16-2.73,1.76-3.86,2.08-1.82.51-3.63,1-5.61,1.42a116.6,116.6,0,0,1-11.52,2,.68.68,0,0,0-.59.69.71.71,0,0,0,.61.71c.5,0,1,.08,1.53.08a30.4,30.4,0,0,0,6.39-.92l.25-.06,8.4-1.84a1.69,1.69,0,0,1-.24,1.16c-.7,1.11-2.58,1.66-3.64,1.89-1.52.33-3.05.64-4.58.94L114.83,112l-3.24.68c-2.49.54-5.06,1.1-7.6,1.46A14,14,0,0,1,102.1,114.26Z"/><path d="M161.22,78.32l.08,0,.6.12a6.64,6.64,0,0,1,.26,1.46c0,.23.05.44.08.59,0,.35.13.7.2,1.06a15.14,15.14,0,0,1,.39,2.9c0,.82-.1,1.16-.62,1.52a5.31,5.31,0,0,1-1.45.52l-.67.18c-1.34.42-2.79.83-4.43,1.23-3.83.93-7.78,1.69-11.6,2.42l-4.58.9a.93.93,0,0,0,.18,1.85h.11a127.69,127.69,0,0,0,12.69-2.23l1.34-.28a37,37,0,0,0,9-2.72h0c.55,2.25.79,4.41-1.05,5.17a22.11,22.11,0,0,1-4.84,1.18l-1.76.31c-4.53.89-9.28,1.68-14.12,2.34a.88.88,0,0,0-.77,1,.93.93,0,0,0,.93.89h.08c4.18-.34,7.9-.78,11.38-1.35,2-.32,4-.69,5.93-1.11.89-.19,1.77-.38,2.65-.59l.52-.14a5.47,5.47,0,0,1,.88-.2,3.59,3.59,0,0,0,.39-.06l.17,0a1.82,1.82,0,0,1,.06.18,1.28,1.28,0,0,1-.08,1c-.59,1.07-2.7,1.67-3.71,2l-.08,0c-1.74.49-3.54,1-5.51,1.4-3.77.86-7.64,1.55-11.5,2a1,1,0,0,0,0,1.89,13.34,13.34,0,0,0,1.56.09,30.14,30.14,0,0,0,6.44-.93l.26-.06c2.7-.58,5.41-1.18,8.11-1.78a1.41,1.41,0,0,1-.22.72c-.65,1-2.46,1.56-3.48,1.79-1.53.33-3.08.64-4.59.94l-1.23.25-5.65,1.14-5.66,1.14-17.71,3.58-5.44,1.1c-1.08.22-2.16.46-3.24.69-2.49.54-5.05,1.09-7.58,1.45a13.61,13.61,0,0,1-1.86.14,7,7,0,0,1-6.59-3.64c-3.07-5.52-2.71-13.71,2.72-17.12A32.11,32.11,0,0,1,106.7,90c.73-.21,1.46-.41,2.18-.63l1.86-.56,10.73-3.21a194,194,0,0,1,25.81-3.35,2.72,2.72,0,0,1-.58.49,3.9,3.9,0,0,1-.87.25l-.46.1-1.53.37-1,.26c-.84.2-1.67.42-2.5.63L138,85a.84.84,0,0,0-.64.76.82.82,0,0,0,.5.82,7.69,7.69,0,0,0,3.08.58,21.55,21.55,0,0,0,3.12-.3l.13,0c2.75-.39,5.5-.8,8.25-1.2.48-.08,1-.13,1.5-.19A12.94,12.94,0,0,0,159,84.17c1.74-1,1.8-2.36,1.86-3.82,0-.28,0-.58.05-.89v-.07a1.61,1.61,0,0,1,.32-1.07m-.2-.54a2.13,2.13,0,0,0-.62,1.64c-.15,1.81.16,3.29-1.65,4.32s-4.34,1.05-6.38,1.35c-2.75.41-5.5.82-8.25,1.21a23,23,0,0,1-3.18.31,7.25,7.25,0,0,1-2.88-.54.34.34,0,0,1,.06-.64c1.61-.4,3.21-.83,4.82-1.23.85-.21,1.7-.41,2.55-.63a6.53,6.53,0,0,0,1.44-.39,3.36,3.36,0,0,0,1.31-1.48,193.05,193.05,0,0,0-26.89,3.41h0l-12.61,3.77C105.13,90,101.2,90.8,98,92.83c-5.82,3.65-6,12.16-2.89,17.78a7.49,7.49,0,0,0,7,3.9,12.84,12.84,0,0,0,1.93-.15c3.64-.51,7.25-1.41,10.85-2.14L138,107.54l11.31-2.28c1.94-.39,3.89-.78,5.82-1.2,1.7-.36,4.59-1.34,4-3.59l-8.65,1.9a31.6,31.6,0,0,1-6.59,1c-.5,0-1,0-1.5-.08a.46.46,0,0,1,0-.9q5.82-.75,11.55-2c1.85-.43,3.7-.89,5.54-1.41,1.51-.43,4.9-1.35,4.21-3.64-.13-.43-.27-.54-.49-.54s-.38.06-.66.09a14.11,14.11,0,0,0-1.46.35c-.88.21-1.76.4-2.64.59q-2.94.63-5.91,1.11c-3.76.62-7.54,1-11.34,1.34h0c-.5,0-.62-.77-.09-.84q7.1-1,14.14-2.35a34.43,34.43,0,0,0,6.7-1.51c2.5-1,1.79-4.08,1.2-6.34a4.9,4.9,0,0,1-.52.24c-3.21,1.59-6.79,2.22-10.26,3a126.26,126.26,0,0,1-12.65,2.21h-.05a.43.43,0,0,1-.08-.86c5.4-1.08,10.84-2,16.19-3.33q2.26-.54,4.47-1.23a9.14,9.14,0,0,0,2.26-.77,2,2,0,0,0,.83-1.92,24.29,24.29,0,0,0-.6-4c-.1-.57-.14-2-.53-2.42L161,77.78Z"/><path class="cls-3" d="M164.34,85.43a25.49,25.49,0,0,0-1-6.58c-.24-1-.71-2.45-2-2.15s-1.67,1.64-1.68,2.74c0,1.57.08,3-1.53,3.74a11.81,11.81,0,0,1-3.16.73l-8.24,1.27c-2.29.36-4.91,1.13-7.25.62,2.34-.55,4.69-1.06,7-1.69,1.44-.39,2.84-1.14,2.6-2.87a.38.38,0,0,0-.42-.31,166.88,166.88,0,0,0-26.89,3.58.4.4,0,0,0-.53-.38L108,88.07c-3.53,1.06-7.34,1.9-10.51,3.87-5.91,3.67-6.44,11.38-4.08,17.46,1.12,2.88,3.18,5.27,6.27,5.92,3.8.8,8-.65,11.75-1.4l27-5.49c5.14-1,10.28-2.11,15.42-3.12,2.63-.52,7.56-1.66,6.09-5.52,1.56-.41,3.26-.93,4.19-2.29a3,3,0,0,0-.13-3.78.54.54,0,0,0-.35-.18,2.6,2.6,0,0,0,.38-.43c1.23-1.71.32-4.65-.18-6.53A1.81,1.81,0,0,0,164.34,85.43Zm-2.4,8.07a34.43,34.43,0,0,1-6.7,1.51q-7,1.38-14.14,2.35c-.54.07-.4.88.13.84,3.8-.3,7.58-.72,11.34-1.34q3-.48,5.91-1.11c.88-.19,1.76-.38,2.64-.59a14.11,14.11,0,0,1,1.46-.35c.64-.06.92-.32,1.15.45.69,2.29-2.7,3.21-4.21,3.64-1.84.52-3.69,1-5.54,1.41q-5.73,1.31-11.55,2a.46.46,0,0,0,0,.9,25.16,25.16,0,0,0,8.09-.89l8.65-1.9c.56,2.25-2.33,3.23-4,3.59-1.93.42-3.88.81-5.82,1.2L138,107.54l-23.15,4.68c-3.6.73-7.21,1.63-10.85,2.14s-7-.29-9-3.75C91.94,105,92.14,96.48,98,92.83c3.24-2,7.17-2.86,10.77-3.94l12.61-3.77h0a193.05,193.05,0,0,1,26.89-3.41,3.36,3.36,0,0,1-1.31,1.48,6.53,6.53,0,0,1-1.44.39c-.85.22-1.7.42-2.55.63-1.61.4-3.21.83-4.82,1.23a.34.34,0,0,0-.06.64c2,.83,4,.52,6.06.23,2.75-.39,5.5-.8,8.25-1.21,2-.3,4.53-.31,6.38-1.35s1.5-2.51,1.65-4.32a2.13,2.13,0,0,1,.62-1.64l1.18.23c.39.43.43,1.85.53,2.42a24.29,24.29,0,0,1,.6,4,2,2,0,0,1-.83,1.92,9.14,9.14,0,0,1-2.26.77c-1.47.46-3,.87-4.46,1.23-5.36,1.31-10.8,2.25-16.2,3.33a.44.44,0,0,0,.13.86,126.26,126.26,0,0,0,12.65-2.21c3.47-.76,7-1.39,10.26-3a4.9,4.9,0,0,0,.52-.24C163.73,89.42,164.44,92.46,161.94,93.5Z"/><path class="cls-2" d="M151.26,136.19c-.37,0-.72,0-1,0-1.54-.14-3.09-.29-4.63-.45L109.36,132l-3.3-.3c-2.53-.22-5.15-.45-7.68-.86-4.11-.66-6.56-2.69-7.29-6-1.39-6.3,1.37-14.18,7.67-15.86a24.35,24.35,0,0,1,6.29-.67c.94,0,1.89,0,2.83,0,.75,0,1.5,0,2.25,0l13.14.12a192.57,192.57,0,0,1,26.24,4.57,3.27,3.27,0,0,1-1.25.65,1.66,1.66,0,0,1-.32,0c-.21,0-.44,0-.65,0l-.46,0-2.62-.15-2.56-.13-2.4-.12h0a.6.6,0,0,0-.59.4.55.55,0,0,0,.17.63c1.66,1.4,3.73,1.73,5.73,2l.14,0c2.74.44,5.49.86,8.23,1.29.48.07,1,.17,1.49.27a19.09,19.09,0,0,0,3.59.47,6.39,6.39,0,0,0,1.5-.16c1.81-.4,2.24-1.63,2.7-2.94.09-.28.19-.56.3-.85a1.88,1.88,0,0,1,.84-1.19l.85.45a5,5,0,0,1-.14,1.7c0,.22-.08.42-.09.57-.05.34-.08.7-.11,1.06a15.28,15.28,0,0,1-.47,3c-.25.82-.47,1.2-1.18,1.43a3.06,3.06,0,0,1-.9.1l-.73,0-.64,0h-.4c-1.31,0-2.7,0-4.25-.13-3.93-.24-7.93-.68-11.79-1.11l-4.64-.5h0a.69.69,0,0,0-.18,1.36,126.39,126.39,0,0,0,12.75,1.62l1.36.12c1.84.17,3.74.34,5.62.34a22.81,22.81,0,0,0,3.75-.28l.27,0c-.11,2.53-.46,5-2.72,5.16a10,10,0,0,1-1.1.05,30.84,30.84,0,0,1-3.93-.35c-.6-.09-1.19-.17-1.77-.23-4.59-.49-9.36-1.14-14.19-1.93h-.12a.62.62,0,0,0-.62.58.69.69,0,0,0,.53.76c4.09.91,7.77,1.59,11.26,2.08,2,.27,4,.5,6,.68.9.09,1.8.16,2.7.22l.52,0a5.89,5.89,0,0,1,.95.08l.36,0c.39.05.41.05.41.47a1.51,1.51,0,0,1-.44,1.13c-.58.58-1.73.87-3.52.87h-.78c-1.89-.05-3.75-.14-5.77-.3-3.86-.29-7.76-.77-11.61-1.45h-.12a.71.71,0,0,0-.26,1.36,24.57,24.57,0,0,0,7.81,1.53l.26,0,8.57.72C154.57,135.87,152.77,136.19,151.26,136.19Z"/><path d="M105.05,108.56c.94,0,1.89,0,2.82,0,.76,0,1.51,0,2.26,0l1.91,0,11.22.1a193.52,193.52,0,0,1,25.65,4.43,2.56,2.56,0,0,1-.69.29,1.33,1.33,0,0,1-.28,0c-.2,0-.42,0-.62,0l-.47,0-1.57-.09-1.05-.06-2.57-.13-2.44-.12a.87.87,0,0,0-.8.56.81.81,0,0,0,.25.91c1.72,1.45,3.82,1.78,5.85,2.11l.14,0c2.74.44,5.49.86,8.23,1.28l1.49.27a18.62,18.62,0,0,0,3.63.48,7.38,7.38,0,0,0,1.55-.16c1.95-.43,2.4-1.73,2.88-3.11.1-.27.19-.55.3-.84l0,0v0a1.54,1.54,0,0,1,.6-.92l.27.14.34.19a6.38,6.38,0,0,1-.16,1.48c0,.23-.08.44-.1.59,0,.35-.08.71-.11,1.07a14.55,14.55,0,0,1-.46,2.89c-.24.78-.42,1.08-1,1.27a2.85,2.85,0,0,1-.82.09l-.72,0c-.23,0-.45,0-.68,0h-.37c-1.31,0-2.69,0-4.23-.13-3.93-.24-7.93-.68-11.79-1.11l-4.64-.5h-.1a.92.92,0,0,0-.92.85.93.93,0,0,0,.76,1A124.28,124.28,0,0,0,151.4,123l1.36.12c1.84.17,3.75.34,5.64.34a22.47,22.47,0,0,0,3.75-.28h0c-.11,2.32-.5,4.45-2.47,4.64a9.32,9.32,0,0,1-1.08,0,30.38,30.38,0,0,1-3.89-.35l-1.78-.23c-4.58-.48-9.35-1.14-14.18-1.93h-.16a.88.88,0,0,0-.87.8.94.94,0,0,0,.73,1c4.1.91,7.78,1.59,11.27,2.07,2,.28,4,.51,6,.69.91.09,1.81.16,2.71.22l.54,0a6.21,6.21,0,0,1,.9.07l.38.06.18,0s0,.1,0,.2a1.26,1.26,0,0,1-.37,1c-.79.8-2.71.8-3.34.8h-.85c-1.81,0-3.67-.13-5.68-.29-3.85-.28-7.75-.77-11.59-1.44l-.16,0a.93.93,0,0,0-.9.76,1,1,0,0,0,.54,1.08,24.63,24.63,0,0,0,7.89,1.55l.26,0,8.28.7c-.31.89-1.4,1.34-3.25,1.34-.33,0-.66,0-1,0l-4.65-.45-1.25-.13-11.48-1.16-18.1-1.82-5.38-.54c-1.1-.12-2.2-.21-3.31-.31-2.52-.22-5.14-.45-7.66-.85-4-.65-6.38-2.62-7.09-5.86-1.36-6.18,1.33-13.91,7.5-15.56a24.11,24.11,0,0,1,6.22-.66m0-.5a24.92,24.92,0,0,0-6.35.67c-6.62,1.77-9.24,9.86-7.86,16.16.85,3.88,3.84,5.65,7.5,6.24s7.34.79,11,1.16l23.48,2.37,11.48,1.16c2,.2,3.94.41,5.91.58.31,0,.67,0,1,0,1.69,0,3.74-.39,3.83-2.29l-8.82-.74a25.29,25.29,0,0,1-8-1.54.47.47,0,0,1,.16-.88h.07q5.79,1,11.64,1.45c1.9.15,3.8.25,5.71.29l.86,0c1.72,0,4.21-.23,4.21-2.25,0-.81-.34-.64-1-.77a14.91,14.91,0,0,0-1.49-.1c-.9-.06-1.8-.13-2.7-.22-2-.18-4-.41-6-.68-3.78-.53-7.51-1.24-11.23-2.07-.5-.11-.44-.85,0-.85h.08q7.08,1.17,14.21,1.94a53.51,53.51,0,0,0,5.72.58,10.38,10.38,0,0,0,1.12-.05c2.69-.26,2.88-3.37,3-5.7a5,5,0,0,1-.57.06,22,22,0,0,1-3.71.28c-2.32,0-4.65-.26-7-.46a123.89,123.89,0,0,1-12.74-1.62.44.44,0,0,1,.07-.87h.05c5.48.56,10.95,1.28,16.45,1.61,1.42.08,2.84.13,4.26.13h.4c.4,0,.9,0,1.37,0a3.18,3.18,0,0,0,1-.12c.83-.26,1.09-.74,1.35-1.59a23.81,23.81,0,0,0,.58-4c.07-.58.45-1.94.19-2.47l-1.06-.57a2.12,2.12,0,0,0-1.06,1.39c-.67,1.69-.8,3.19-2.82,3.64a6.93,6.93,0,0,1-1.45.15,34.17,34.17,0,0,1-5-.74c-2.75-.42-5.49-.85-8.24-1.29-2-.32-4.09-.63-5.73-2a.33.33,0,0,1,.22-.59h0l5,.25,2.62.15c.35,0,.75.09,1.12.09a2.31,2.31,0,0,0,.37,0,3.39,3.39,0,0,0,1.68-1,193.62,193.62,0,0,0-26.71-4.68h0l-13.14-.12c-1.66,0-3.37-.09-5.08-.09Z"/><path class="cls-3" d="M164.33,121.28a25.55,25.55,0,0,0,.9-6.59c.07-1.06,0-2.55-1.34-2.66s-2.07,1.07-2.4,2.12c-.47,1.5-.77,2.88-2.53,3.12a11.41,11.41,0,0,1-3.24-.23c-2.74-.41-5.49-.83-8.24-1.22-2.3-.33-5-.38-7.11-1.55,2.39.17,4.79.37,7.18.45,1.49,0,3-.25,3.32-2a.39.39,0,0,0-.32-.42,167.27,167.27,0,0,0-26.74-4.52.41.41,0,0,0-.4-.52l-13.74-.13c-3.68,0-7.57-.36-11.17.59-6.7,1.77-9.41,9-8.9,15.5.25,3.09,1.54,6,4.3,7.52,3.41,1.89,7.89,1.76,11.64,2.13L133,135.64c5.21.52,10.43,1,15.65,1.57,2.66.29,7.7.66,7.4-3.48,1.61.07,3.38.08,4.67-.95a3,3,0,0,0,.95-3.65.59.59,0,0,0-.28-.28,2.8,2.8,0,0,0,.49-.3c1.66-1.27,1.63-4.35,1.69-6.29A1.88,1.88,0,0,0,164.33,121.28Zm-4.61,7a34.24,34.24,0,0,1-6.84-.53q-7.14-.77-14.21-1.94c-.54-.09-.63.73-.11.85,3.72.83,7.45,1.54,11.23,2.07,2,.27,4,.5,6,.68.9.09,1.8.16,2.7.22a14.91,14.91,0,0,1,1.49.1c.64.13,1,0,1,.77,0,2.4-3.51,2.27-5.07,2.23-1.91,0-3.81-.14-5.71-.29Q144.3,132,138.51,131c-.49-.09-.69.67-.23.87a25.29,25.29,0,0,0,8,1.54l8.82.74c-.11,2.32-3.15,2.4-4.88,2.25-2-.17-3.94-.38-5.91-.58l-11.48-1.16-23.48-2.37c-3.66-.37-7.37-.57-11-1.16s-6.65-2.36-7.5-6.24c-1.38-6.3,1.24-14.39,7.86-16.16,3.68-1,7.67-.61,11.43-.58l13.14.12h0A193.62,193.62,0,0,1,150,113a3.39,3.39,0,0,1-1.68,1,7.47,7.47,0,0,1-1.49-.06l-2.62-.15-5-.25a.33.33,0,0,0-.24.59c1.64,1.38,3.69,1.69,5.73,2,2.75.44,5.49.87,8.24,1.29,2,.31,4.42,1,6.49.59s2.15-2,2.82-3.64a2.12,2.12,0,0,1,1.06-1.39l1.06.57c.26.53-.12,1.89-.19,2.47a23.81,23.81,0,0,1-.58,4c-.26.85-.52,1.33-1.35,1.59a8.53,8.53,0,0,1-2.37.07c-1.55,0-3.09,0-4.63-.13-5.5-.33-11-1-16.45-1.61a.43.43,0,0,0-.12.86,123.89,123.89,0,0,0,12.74,1.62c3.53.31,7.14.77,10.66.18a5,5,0,0,0,.57-.06C162.6,124.92,162.41,128,159.72,128.29Z"/><path class="cls-2" d="M59.79,103a9.49,9.49,0,0,1-5.57-2.14c-2.08-1.53-4.09-3.25-6-4.91-.85-.73-1.69-1.45-2.55-2.16L17.52,70.32c-1.22-1-2.43-2-3.63-3-.84-.71-2.25-2.11-2.34-3.43a1.67,1.67,0,0,1,.32-1.12c2.18,1.88,4.37,3.77,6.56,5.64l.2.17a24.86,24.86,0,0,0,6.59,4.53.58.58,0,0,0,.26,0,.72.72,0,0,0,.66-.51.65.65,0,0,0-.25-.75c-3.18-2.29-6.29-4.76-9.21-7.32-1.54-1.35-2.93-2.62-4.23-3.89-.91-.88-2.49-2.42-2.51-3.75a1.51,1.51,0,0,1,.48-1.12c.2-.2.29-.23.32-.23s.17.1.29.19l.29.23a5.92,5.92,0,0,1,.72.62l.39.37c.68.6,1.37,1.19,2.06,1.78C16,60,17.6,61.31,19.2,62.54c2.79,2.16,5.87,4.33,9.4,6.62a.63.63,0,0,0,.37.12.71.71,0,0,0,.66-.49.63.63,0,0,0-.24-.72c-4-2.9-7.8-5.87-11.38-8.83-.45-.37-.93-.74-1.41-1.11a22.81,22.81,0,0,1-3.77-3.4c-1.45-1.77,0-3.73,1.67-5.6l.18.22A38.22,38.22,0,0,0,21.33,56l1.05.89a125.6,125.6,0,0,0,10.15,8,.63.63,0,0,0,.39.13.69.69,0,0,0,.64-.47.66.66,0,0,0-.21-.75l-3.64-3c-3-2.47-6.16-5-9.1-7.68C19.34,52,18.24,51,17.25,50c-.14-.15-.31-.31-.49-.47a5.36,5.36,0,0,1-1.1-1.23,1.7,1.7,0,0,1,.16-1.86A14.3,14.3,0,0,1,17.54,44l.66-.83.33-.47a4.85,4.85,0,0,1,1.07-1.3l.92.29a1.84,1.84,0,0,1-.22,1.42c-.13.32-.26.59-.38.85-.6,1.25-1.15,2.43-.15,4a13,13,0,0,0,3.81,3.43c.43.29.85.58,1.25.88,2.23,1.67,4.47,3.35,6.72,5l.11.08C33.29,58.56,35,59.81,37.13,60h0a.58.58,0,0,0,.58-.36.6.6,0,0,0-.16-.67c-.59-.53-1.17-1.08-1.76-1.62L33.88,55.6l-2-1.78-.35-.3a3.78,3.78,0,0,1-.7-.68,3.4,3.4,0,0,1-.43-1.36A197.62,197.62,0,0,1,52.18,67.11l9.36,9.36c.53.53,1.08,1,1.63,1.59a33,33,0,0,1,6,7c3.28,5.73-.25,13.28-5.61,16.74A6.88,6.88,0,0,1,59.79,103Z"/><path d="M19.64,41.64l.37.12.29.09a1.62,1.62,0,0,1-.21,1.1l0,0v0c-.12.28-.25.55-.37.8-.62,1.32-1.21,2.56-.13,4.26a13.25,13.25,0,0,0,3.88,3.5c.43.3.85.59,1.24.88,2.23,1.67,4.47,3.35,6.72,5l.11.08c1.66,1.23,3.38,2.5,5.6,2.71h.08a.8.8,0,0,0,.76-.52.85.85,0,0,0-.22-.94L36,57.17l-1.9-1.75-.78-.71-1.18-1.07-.36-.31a4,4,0,0,1-.66-.63,2.87,2.87,0,0,1-.28-.7A195.35,195.35,0,0,1,52,67.27h0l9.27,9.26.1.1L63,78.24a32.91,32.91,0,0,1,6,6.92c3.22,5.61-.26,13-5.52,16.41a6.68,6.68,0,0,1-3.65,1.13,9.22,9.22,0,0,1-5.42-2.09c-2.07-1.53-4.08-3.24-6-4.9-.85-.73-1.69-1.45-2.55-2.16l-4.4-3.67L27.55,78.34,19,71.24l-.39-.33-1-.8c-1.18-1-2.41-2-3.6-3-.8-.69-2.17-2-2.25-3.25a1.51,1.51,0,0,1,.13-.73l6.33,5.45.2.17a25,25,0,0,0,6.66,4.57.92.92,0,0,0,.36.07,1,1,0,0,0,.9-.68.93.93,0,0,0-.34-1c-3.18-2.28-6.27-4.74-9.2-7.3-1.53-1.34-2.91-2.61-4.22-3.88l-.06-.06c-.76-.74-2.35-2.28-2.37-3.51a1.29,1.29,0,0,1,.41-1l.13-.12.14.11.31.23a6,6,0,0,1,.69.6c.13.13.26.26.39.37.68.61,1.37,1.2,2.07,1.79,1.53,1.3,3.12,2.59,4.71,3.82,2.81,2.17,5.89,4.34,9.42,6.63a.93.93,0,0,0,1.41-.5.89.89,0,0,0-.33-1c-4-2.9-7.79-5.87-11.38-8.82-.45-.37-.92-.74-1.41-1.12A23.6,23.6,0,0,1,13,54.58C11.75,53,13,51.23,14.49,49.51a38.57,38.57,0,0,0,6.68,6.71l1,.88a127.87,127.87,0,0,0,10.17,8,1,1,0,0,0,.54.17.94.94,0,0,0,.88-.63.92.92,0,0,0-.29-1l-3.63-3c-3-2.48-6.16-5-9.11-7.69-1.26-1.14-2.35-2.19-3.34-3.21l-.5-.48a5.22,5.22,0,0,1-1-1.15c-.29-.58-.22-.91.16-1.64a14.57,14.57,0,0,1,1.69-2.37q.35-.42.66-.84c.1-.12.21-.29.35-.49a6.68,6.68,0,0,1,.9-1.16m-.05-.54C19,41.3,18.35,42.53,18,43a23.23,23.23,0,0,0-2.41,3.28,2,2,0,0,0-.15,2.09,9,9,0,0,0,1.63,1.76c1.08,1.12,2.21,2.19,3.37,3.23C24.55,57.07,28.92,60.5,33.19,64a.44.44,0,0,1-.27.78.41.41,0,0,1-.25-.08c-3.53-2.46-6.86-5.2-10.13-8-2.71-2.33-5.59-4.6-7.67-7.54a3.73,3.73,0,0,1-.35-.46c-1.57,1.71-3.6,4.05-1.88,6.16a35.93,35.93,0,0,0,5.21,4.55Q23.42,64,29.24,68.27A.43.43,0,0,1,29,69a.38.38,0,0,1-.24-.08c-3.21-2.08-6.35-4.26-9.38-6.6q-2.38-1.86-4.7-3.81c-.69-.59-1.38-1.18-2.06-1.78a12,12,0,0,0-1.13-1c-.33-.23-.51-.45-.73-.45s-.28.08-.49.29c-1.67,1.69.9,4.13,2,5.23,1.38,1.33,2.8,2.63,4.24,3.89q4.44,3.9,9.24,7.34a.46.46,0,0,1-.27.81.51.51,0,0,1-.17,0,25.38,25.38,0,0,1-6.72-4.66l-6.75-5.81c-1.54,1.72.56,4,1.89,5.1,1.51,1.3,3.05,2.56,4.58,3.84l8.92,7.43q9.14,7.59,18.25,15.2c2.84,2.37,5.62,4.89,8.59,7.08a9.74,9.74,0,0,0,5.72,2.19A7.15,7.15,0,0,0,63.71,102c5.37-3.47,9.13-11.07,5.68-17.07-1.91-3.34-5-6-7.67-8.63l-9.38-9.36h0A196,196,0,0,0,30.19,51,3.54,3.54,0,0,0,30.66,53a7.1,7.1,0,0,0,1.09,1l2,1.78c1.24,1.12,2.45,2.26,3.68,3.39a.33.33,0,0,1-.2.59h0c-2.12-.21-3.78-1.47-5.46-2.7-2.24-1.66-4.48-3.34-6.71-5-1.66-1.24-3.86-2.44-5-4.25s-.17-2.93.54-4.6a2.17,2.17,0,0,0,.21-1.75l-1.14-.36Z"/><path class="cls-3" d="M14.12,47.86c-1.32,1.42-3.48,3.57-3.19,5.67a3.53,3.53,0,0,0,.14.56.53.53,0,0,0-.39,0,3,3,0,0,0-1.87,3.27c.19,1.65,1.45,2.92,2.64,4-3.09,2.7.73,6.07,2.81,7.78,4.07,3.35,8.11,6.76,12.16,10.14L47.75,97.08c2.91,2.43,6,5.74,9.71,6.86,3,.9,5.95-.22,8.27-2.23,4.9-4.23,8-11.29,4.49-17.35-1.88-3.26-4.86-5.82-7.48-8.44l-9.8-9.79a.4.4,0,0,0-.65.08,169.6,169.6,0,0,0-22-16,.37.37,0,0,0-.52.07c-1,1.41-.12,2.75,1,3.78,1.75,1.66,3.58,3.24,5.39,4.84-2.3-.67-4.25-2.6-6.11-4-2.22-1.7-4.45-3.38-6.68-5.06a12,12,0,0,1-2.45-2.16c-1.08-1.44-.33-2.63.39-4,.49-1,.72-2.41-.22-3.22s-2.11.12-2.81.92a25.17,25.17,0,0,0-3.94,5.3A1.84,1.84,0,0,0,14.12,47.86Zm.4.87a3.73,3.73,0,0,0,.35.46c2.08,2.94,5,5.21,7.67,7.54,3.27,2.8,6.6,5.54,10.13,8a.44.44,0,0,0,.52-.7c-4.27-3.53-8.64-7-12.75-10.68-1.16-1-2.29-2.11-3.37-3.23a9,9,0,0,1-1.63-1.76,2,2,0,0,1,.15-2.09A23.23,23.23,0,0,1,18,43c.35-.46,1-1.69,1.59-1.89l1.14.36a2.17,2.17,0,0,1-.21,1.75c-.71,1.67-1.66,2.83-.54,4.6s3.34,3,5,4.25c2.23,1.67,4.47,3.35,6.71,5,1.68,1.23,3.34,2.49,5.46,2.7a.33.33,0,0,0,.24-.59c-1.23-1.13-2.44-2.27-3.68-3.39l-2-1.78a7.1,7.1,0,0,1-1.09-1A3.54,3.54,0,0,1,30.19,51,196,196,0,0,1,52.34,66.92h0l9.38,9.36c2.68,2.68,5.76,5.29,7.67,8.63,3.45,6-.31,13.6-5.68,17.07-3.3,2.13-6.65,1.23-9.64-1s-5.75-4.71-8.59-7.08q-9.12-7.61-18.25-15.2L18.31,71.3c-1.53-1.28-3.07-2.54-4.58-3.84-1.33-1.13-3.43-3.38-1.89-5.1l6.75,5.81a25.38,25.38,0,0,0,6.72,4.66.45.45,0,0,0,.44-.78Q21,68.6,16.51,64.71c-1.44-1.26-2.86-2.56-4.24-3.89-1.13-1.1-3.7-3.54-2-5.23.56-.57.69-.21,1.22.16a12,12,0,0,1,1.13,1c.68.6,1.37,1.19,2.06,1.78q2.31,2,4.7,3.81c3,2.34,6.17,4.52,9.38,6.6.45.3.95-.35.51-.68Q23.42,64,17.85,59.44a35.93,35.93,0,0,1-5.21-4.55C10.92,52.78,13,50.44,14.52,48.73Z"/><path class="cls-2" d="M63.4,114.26a14,14,0,0,1-1.89-.14c-2.54-.36-5.11-.92-7.6-1.46L50.67,112,15,104.76c-1.52-.31-3-.61-4.56-.94-1.06-.23-2.94-.78-3.64-1.89a1.75,1.75,0,0,1-.25-1.16l8.41,1.84.25.06a30.4,30.4,0,0,0,6.39.92,15.2,15.2,0,0,0,1.53-.08.71.71,0,0,0,.61-.71.68.68,0,0,0-.59-.69,116.6,116.6,0,0,1-11.52-2c-2-.45-3.79-.91-5.53-1.4-1.21-.34-3.3-.94-3.94-2.1A1.5,1.5,0,0,1,2,95.33c.11-.36.18-.36.25-.36a1.6,1.6,0,0,1,.27,0l.36,0a5.08,5.08,0,0,1,.92.21l.51.14L7,96c2,.41,4,.78,5.92,1.11,3.47.56,7.18,1,11.36,1.34h0a.7.7,0,0,0,.73-.66.62.62,0,0,0-.55-.68c-4.85-.67-9.61-1.45-14.14-2.34-.56-.11-1.15-.21-1.75-.31a22.94,22.94,0,0,1-4.9-1.19c-2.1-.88-1.74-3.29-1.12-5.75l.26.11a37,37,0,0,0,9,2.7l1.33.29a125,125,0,0,0,12.67,2.22h0a.7.7,0,0,0,.75-.62.67.67,0,0,0-.55-.74l-4.57-.89c-3.83-.73-7.78-1.49-11.62-2.43-1.65-.4-3.1-.81-4.45-1.23l-.65-.18a5.36,5.36,0,0,1-1.54-.56c-.61-.42-.71-.85-.72-1.72a14.89,14.89,0,0,1,.4-3c.07-.35.14-.7.2-1a5.78,5.78,0,0,0,.07-.58,5,5,0,0,1,.35-1.66l.95-.18a1.84,1.84,0,0,1,.46,1.35c0,.35,0,.65.05.94C5,81.73,5,83,6.63,84a12.92,12.92,0,0,0,5,1.2c.51,0,1,.11,1.5.18q4.13.61,8.25,1.2l.13,0a21.41,21.41,0,0,0,3.09.3,7.58,7.58,0,0,0,3-.56.56.56,0,0,0,.35-.57.6.6,0,0,0-.45-.54l-2.32-.59L22.62,84l-2.55-.63-.45-.1a3.62,3.62,0,0,1-.93-.27,3.34,3.34,0,0,1-1-1,192.3,192.3,0,0,1,26.43,3.39L56.7,89.13c.71.22,1.44.42,2.17.62A32.73,32.73,0,0,1,67.41,93c5.55,3.48,5.93,11.83,2.8,17.45A7.23,7.23,0,0,1,63.4,114.26Z"/><path d="M4.28,78.32a1.61,1.61,0,0,1,.32,1.07v.07c0,.31,0,.6.05.89.06,1.46.12,2.83,1.86,3.82a12.94,12.94,0,0,0,5.05,1.23c.51.06,1,.11,1.5.19,2.75.4,5.5.81,8.25,1.2l.13,0a21.55,21.55,0,0,0,3.12.3,7.69,7.69,0,0,0,3.08-.58.82.82,0,0,0,.5-.82A.84.84,0,0,0,27.5,85l-2.32-.6c-.83-.21-1.66-.43-2.5-.63l-1-.26-1.53-.37-.46-.1a3.9,3.9,0,0,1-.87-.25,2.72,2.72,0,0,1-.58-.49A194,194,0,0,1,44,85.6l10.71,3.21,1.88.56c.72.22,1.45.42,2.18.63a32.11,32.11,0,0,1,8.47,3.25c5.43,3.4,5.79,11.6,2.72,17.12A7,7,0,0,1,63.4,114a13.61,13.61,0,0,1-1.86-.14c-2.53-.36-5.09-.91-7.58-1.45-1.08-.23-2.16-.47-3.24-.69l-5.07-1-18.08-3.66-6.17-1.24-5.14-1L15,104.52l-4.58-.94c-1-.23-2.83-.75-3.48-1.79a1.41,1.41,0,0,1-.22-.72c2.7.6,5.41,1.2,8.11,1.78l.26.06a30.14,30.14,0,0,0,6.44.93,13.34,13.34,0,0,0,1.56-.09,1,1,0,0,0,0-1.89c-3.86-.49-7.73-1.18-11.5-2-2-.45-3.77-.91-5.51-1.4l-.08,0c-1-.28-3.12-.88-3.71-2a1.28,1.28,0,0,1-.08-1,1.82,1.82,0,0,1,.06-.18l.17,0a3.59,3.59,0,0,0,.39.06,5.47,5.47,0,0,1,.88.2l.52.14c.88.21,1.76.4,2.65.59,2,.41,3.95.79,5.93,1.11,3.48.57,7.2,1,11.38,1.35h.08a.93.93,0,0,0,.93-.89.88.88,0,0,0-.77-1c-4.84-.66-9.59-1.45-14.12-2.34l-1.76-.31A22.11,22.11,0,0,1,3.75,93c-1.84-.76-1.6-2.92-1-5.17a37.35,37.35,0,0,0,9,2.72l1.34.28a128.21,128.21,0,0,0,12.69,2.23h.11A.93.93,0,0,0,26,91.24l-4.58-.9c-3.82-.73-7.77-1.49-11.6-2.42-1.64-.4-3.09-.81-4.43-1.23l-.67-.18A5.31,5.31,0,0,1,3.29,86c-.52-.36-.61-.7-.62-1.52a15,15,0,0,1,.39-2.9c.07-.36.15-.71.2-1.06,0-.15.05-.36.08-.59a6.64,6.64,0,0,1,.26-1.46l.61-.12.07,0m.2-.54L3.3,78c-.39.43-.43,1.85-.53,2.42a24.29,24.29,0,0,0-.6,4A2,2,0,0,0,3,86.4a9.14,9.14,0,0,0,2.26.77c1.47.46,3,.87,4.46,1.23,5.36,1.31,10.8,2.25,16.2,3.33a.43.43,0,0,1-.08.86h-.05a126.26,126.26,0,0,1-12.65-2.21c-3.47-.76-7-1.39-10.26-3a4.9,4.9,0,0,1-.52-.24c-.59,2.26-1.3,5.3,1.2,6.34A34.43,34.43,0,0,0,10.26,95q7,1.38,14.14,2.35c.53.07.41.84-.09.84h0c-3.8-.3-7.58-.72-11.34-1.34Q10,96.38,7,95.75c-.88-.19-1.76-.38-2.64-.59a14.11,14.11,0,0,0-1.46-.35c-.28,0-.49-.09-.66-.09s-.36.11-.49.54C1.08,97.55,4.47,98.47,6,98.9c1.84.52,3.69,1,5.54,1.41q5.73,1.31,11.55,2a.46.46,0,0,1,0,.9c-.5,0-1,.08-1.5.08a31.6,31.6,0,0,1-6.59-1l-8.65-1.9c-.56,2.25,2.33,3.23,4,3.59,1.93.42,3.88.81,5.82,1.2l11.31,2.28,23.15,4.68c3.6.73,7.21,1.63,10.85,2.14a12.84,12.84,0,0,0,1.93.15,7.49,7.49,0,0,0,7-3.9c3.13-5.62,2.93-14.13-2.89-17.78-3.24-2-7.17-2.86-10.77-3.94L44.16,85.12h0A193.05,193.05,0,0,0,17.26,81.7a3.36,3.36,0,0,0,1.31,1.48,6.53,6.53,0,0,0,1.44.39c.85.22,1.7.42,2.55.63,1.61.4,3.21.83,4.82,1.23a.34.34,0,0,1,.06.64,7.25,7.25,0,0,1-2.88.54,23,23,0,0,1-3.18-.31c-2.75-.39-5.5-.8-8.25-1.21-2-.3-4.53-.31-6.38-1.35s-1.5-2.51-1.65-4.32a2.13,2.13,0,0,0-.62-1.64Z"/><path class="cls-3" d="M1.6,86.58c-.5,1.88-1.41,4.82-.18,6.53a2.6,2.6,0,0,0,.38.43.54.54,0,0,0-.35.18,3,3,0,0,0-.13,3.78c.93,1.36,2.63,1.88,4.19,2.29-1.47,3.86,3.46,5,6.09,5.52,5.14,1,10.28,2.08,15.42,3.12l27.05,5.49c3.7.75,8,2.2,11.75,1.4,3.09-.65,5.15-3,6.27-5.92,2.36-6.08,1.83-13.79-4.08-17.46-3.17-2-7-2.81-10.51-3.87L44.32,84.13a.4.4,0,0,0-.53.38A166.88,166.88,0,0,0,16.9,80.93a.38.38,0,0,0-.42.31c-.24,1.73,1.16,2.48,2.6,2.87,2.32.63,4.67,1.14,7,1.69-2.34.51-5-.26-7.25-.62L10.6,83.91a11.81,11.81,0,0,1-3.16-.73C5.83,82.43,5.93,81,5.91,79.44c0-1.1-.48-2.47-1.68-2.74s-1.81,1.12-2.05,2.15a25.49,25.49,0,0,0-1,6.58A1.81,1.81,0,0,0,1.6,86.58Zm.76.58a4.9,4.9,0,0,0,.52.24c3.21,1.59,6.79,2.22,10.26,3a126.26,126.26,0,0,0,12.65,2.21.44.44,0,0,0,.13-.86c-5.4-1.08-10.84-2-16.2-3.33-1.5-.36-3-.77-4.46-1.23A9.14,9.14,0,0,1,3,86.4a2,2,0,0,1-.83-1.92,24.29,24.29,0,0,1,.6-4c.1-.57.14-2,.53-2.42l1.18-.23a2.13,2.13,0,0,1,.62,1.64c.15,1.81-.16,3.29,1.65,4.32s4.34,1.05,6.38,1.35c2.75.41,5.5.82,8.25,1.21,2.05.29,4.1.6,6.06-.23a.34.34,0,0,0-.06-.64c-1.61-.4-3.21-.83-4.82-1.23-.85-.21-1.7-.41-2.55-.63a6.53,6.53,0,0,1-1.44-.39,3.36,3.36,0,0,1-1.31-1.48,193.05,193.05,0,0,1,26.89,3.41h0l12.61,3.77c3.6,1.08,7.53,1.91,10.77,3.94,5.82,3.65,6,12.16,2.89,17.78-1.92,3.46-5.29,4.27-9,3.75s-7.25-1.41-10.85-2.14l-23.15-4.68-11.31-2.28c-1.94-.39-3.89-.78-5.82-1.2-1.7-.36-4.59-1.34-4-3.59l8.65,1.9a25.16,25.16,0,0,0,8.09.89.46.46,0,0,0,0-.9q-5.82-.75-11.55-2c-1.85-.43-3.7-.89-5.54-1.41-1.51-.43-4.9-1.35-4.21-3.64.23-.77.51-.51,1.15-.45a14.11,14.11,0,0,1,1.46.35c.88.21,1.76.4,2.64.59q2.94.63,5.91,1.11c3.76.62,7.54,1,11.34,1.34.53,0,.67-.77.13-.84q-7.09-1-14.14-2.35a34.43,34.43,0,0,1-6.7-1.51C1.06,92.46,1.77,89.42,2.36,87.16Z"/><path class="cls-2" d="M14.24,136.19c-1.51,0-3.31-.32-3.56-1.81l8.57-.72.26,0a24.57,24.57,0,0,0,7.81-1.53.67.67,0,0,0,.39-.79.66.66,0,0,0-.65-.57h-.12c-3.85.68-7.75,1.16-11.61,1.45-2,.16-3.88.25-5.69.29l-.86,0c-1.79,0-2.94-.29-3.52-.87a1.51,1.51,0,0,1-.44-1.13c0-.42,0-.42.41-.47l.36,0a5.89,5.89,0,0,1,1-.08l.52,0c.9-.06,1.8-.13,2.7-.22,2-.18,4-.41,6-.68,3.49-.49,7.17-1.17,11.26-2.08a.69.69,0,0,0,.53-.76.62.62,0,0,0-.62-.58h-.12c-4.83.79-9.6,1.44-14.19,1.93-.58.06-1.17.14-1.77.23a30.84,30.84,0,0,1-3.93.35A10,10,0,0,1,5.8,128c-2.25-.21-2.61-2.63-2.72-5.16l.29,0a22.39,22.39,0,0,0,3.73.28c1.88,0,3.78-.17,5.62-.34l1.36-.12a126,126,0,0,0,12.75-1.62.69.69,0,0,0,.56-.75.67.67,0,0,0-.67-.62l-4.72.51c-3.86.43-7.86.87-11.79,1.11-1.55.09-2.94.13-4.25.13H5.59c-.23,0-.45,0-.67,0l-.73,0a3.06,3.06,0,0,1-.9-.1c-.71-.23-.93-.61-1.18-1.43a15.28,15.28,0,0,1-.47-3c0-.36-.06-.72-.11-1.06,0-.15-.05-.35-.09-.57a5,5,0,0,1-.14-1.7l.85-.45A1.82,1.82,0,0,1,3,114.43c.12.32.22.6.31.88.46,1.31.89,2.54,2.7,2.94a6.39,6.39,0,0,0,1.5.16,18.88,18.88,0,0,0,3.58-.47c.52-.1,1-.2,1.5-.27l8.24-1.29.13,0c2-.32,4.07-.65,5.73-2a.55.55,0,0,0,.17-.63.59.59,0,0,0-.56-.4l-2.43.12-2.56.13-2.62.15-.46,0c-.21,0-.44,0-.65,0a1.66,1.66,0,0,1-.32,0,3.27,3.27,0,0,1-1.25-.65,193.88,193.88,0,0,1,26.26-4.58l13.12-.11c.74,0,1.5,0,2.26,0,.93,0,1.88,0,2.82,0a24.35,24.35,0,0,1,6.29.67c6.3,1.68,9.06,9.56,7.67,15.86-.73,3.35-3.18,5.38-7.29,6-2.53.41-5.15.64-7.68.86-1.1.1-2.21.19-3.3.3L19.9,135.7c-1.54.16-3.08.31-4.63.45C15,136.17,14.61,136.19,14.24,136.19Z"/><path d="M60.45,108.56a24.11,24.11,0,0,1,6.22.66c6.17,1.65,8.86,9.38,7.5,15.56-.71,3.24-3.1,5.21-7.09,5.86-2.52.4-5.13.63-7.66.85-1.11.1-2.21.19-3.31.31l-5.28.53-18.2,1.83-11.48,1.16-1.25.13-4.65.45c-.35,0-.68,0-1,0-1.85,0-2.94-.45-3.25-1.34l8.28-.7.26,0a24.63,24.63,0,0,0,7.89-1.55,1,1,0,0,0,.54-1.08.93.93,0,0,0-.9-.76l-.16,0c-3.84.67-7.74,1.16-11.59,1.44-2,.16-3.87.25-5.68.29H8.78c-.63,0-2.55,0-3.34-.8a1.26,1.26,0,0,1-.37-1c0-.1,0-.16,0-.2l.18,0,.38-.06a6.21,6.21,0,0,1,.9-.07l.54,0c.9-.06,1.8-.13,2.71-.22,2-.18,4-.41,6-.69,3.49-.48,7.17-1.16,11.27-2.07a.94.94,0,0,0,.73-1,.88.88,0,0,0-.87-.8h-.16c-4.83.79-9.6,1.45-14.18,1.93l-1.78.23a30.38,30.38,0,0,1-3.89.35,9.32,9.32,0,0,1-1.08,0c-2-.19-2.36-2.32-2.47-4.64a22.9,22.9,0,0,0,3.75.28c1.89,0,3.8-.17,5.64-.34L14.1,123a124.28,124.28,0,0,0,12.78-1.63.93.93,0,0,0,.76-1,.92.92,0,0,0-.92-.85h-.1L22,120c-3.86.43-7.86.87-11.79,1.11-1.54.09-2.92.13-4.23.13h-.4l-.65,0-.72,0a2.85,2.85,0,0,1-.82-.09c-.6-.19-.78-.49-1-1.27A14.55,14.55,0,0,1,1.89,117c0-.36-.07-.72-.11-1.07,0-.15-.05-.36-.1-.59a6.38,6.38,0,0,1-.16-1.48l.34-.19.27-.14a1.54,1.54,0,0,1,.6.92v0l0,0c.11.29.2.57.3.84.48,1.38.93,2.68,2.88,3.11a7.38,7.38,0,0,0,1.55.16,18.62,18.62,0,0,0,3.63-.48l1.49-.27c2.74-.42,5.49-.84,8.23-1.28l.14,0c2-.33,4.14-.66,5.85-2.11a.81.81,0,0,0,.25-.91.87.87,0,0,0-.84-.56h0c-.79,0-1.59.08-2.39.12l-2.57.13-1.05.06-1.57.09-.47,0c-.21,0-.42,0-.62,0a1.33,1.33,0,0,1-.28,0,2.56,2.56,0,0,1-.69-.29,193.52,193.52,0,0,1,25.65-4.43l11.22-.1,1.91,0c.75,0,1.5,0,2.26,0,.93,0,1.88,0,2.82,0m0-.5c-1.71,0-3.42.08-5.08.09l-13.14.12h0A193.62,193.62,0,0,0,15.51,113a3.39,3.39,0,0,0,1.68,1,2.31,2.31,0,0,0,.37,0c.37,0,.77-.07,1.12-.09l2.62-.15,5-.25h0a.33.33,0,0,1,.22.59c-1.64,1.38-3.69,1.69-5.73,2-2.75.44-5.49.87-8.24,1.29a34.17,34.17,0,0,1-5,.74A6.93,6.93,0,0,1,6,118c-2-.45-2.15-2-2.82-3.64A2.12,2.12,0,0,0,2.16,113l-1.06.57c-.26.53.12,1.89.19,2.47a23.81,23.81,0,0,0,.58,4c.26.85.52,1.33,1.35,1.59a3.18,3.18,0,0,0,1,.12c.47,0,1,0,1.37,0H6c1.42,0,2.84,0,4.26-.13,5.5-.33,11-1,16.45-1.61h0a.44.44,0,0,1,.07.87,123.89,123.89,0,0,1-12.74,1.62c-2.3.2-4.63.46-7,.46a22,22,0,0,1-3.71-.28,5,5,0,0,1-.57-.06c.08,2.33.27,5.44,3,5.7a10.38,10.38,0,0,0,1.12.05,53.51,53.51,0,0,0,5.72-.58q7.14-.77,14.21-1.94h.08c.47,0,.53.74,0,.85-3.72.83-7.45,1.54-11.23,2.07-2,.27-4,.5-6,.68-.9.09-1.8.16-2.7.22a14.71,14.71,0,0,0-1.49.1c-.64.13-1,0-1,.77,0,2,2.49,2.25,4.21,2.25l.86,0c1.91,0,3.81-.14,5.71-.29Q21.2,132,27,131h.07a.47.47,0,0,1,.16.88,25.29,25.29,0,0,1-8,1.54l-8.82.74c.09,1.9,2.14,2.29,3.83,2.29.38,0,.74,0,1,0,2-.17,3.94-.38,5.91-.58l11.48-1.16,23.48-2.37c3.66-.37,7.37-.57,11-1.16s6.65-2.36,7.5-6.24c1.38-6.3-1.24-14.39-7.86-16.16a24.92,24.92,0,0,0-6.35-.67Z"/><path class="cls-3" d="M1.93,122.26c.06,1.94,0,5,1.69,6.29a2.8,2.8,0,0,0,.49.3.59.59,0,0,0-.28.28,3,3,0,0,0,1,3.65c1.29,1,3.06,1,4.67.95-.3,4.14,4.74,3.77,7.4,3.48,5.22-.55,10.44-1.05,15.65-1.57L60,132.89c3.75-.37,8.23-.24,11.64-2.13,2.76-1.53,4.05-4.43,4.3-7.52.51-6.51-2.2-13.73-8.9-15.5-3.6-.95-7.49-.62-11.17-.59l-13.74.13a.41.41,0,0,0-.4.52A167.27,167.27,0,0,0,15,112.32a.39.39,0,0,0-.32.42c.27,1.73,1.83,2,3.32,2,2.39-.08,4.79-.28,7.18-.45-2.09,1.17-4.81,1.22-7.11,1.55-2.75.39-5.5.81-8.24,1.22a11.41,11.41,0,0,1-3.24.23C4.78,117,4.48,115.65,4,114.15c-.33-1.05-1.17-2.22-2.4-2.12S.2,113.63.27,114.69a25.55,25.55,0,0,0,.9,6.59A1.88,1.88,0,0,0,1.93,122.26Zm.89.33a5,5,0,0,0,.57.06c3.52.59,7.13.13,10.66-.18a123.89,123.89,0,0,0,12.74-1.62.43.43,0,0,0-.12-.86c-5.48.56-11,1.28-16.45,1.61-1.54.09-3.08.14-4.63.13a8.53,8.53,0,0,1-2.37-.07c-.83-.26-1.09-.74-1.35-1.59a23.81,23.81,0,0,1-.58-4c-.07-.58-.45-1.94-.19-2.47L2.16,113a2.12,2.12,0,0,1,1.06,1.39c.67,1.69.8,3.19,2.82,3.64s4.46-.28,6.49-.59c2.75-.42,5.49-.85,8.24-1.29,2-.32,4.09-.63,5.73-2a.33.33,0,0,0-.24-.59l-5,.25-2.62.15a7.47,7.47,0,0,1-1.49.06,3.39,3.39,0,0,1-1.68-1,193.62,193.62,0,0,1,26.71-4.68h0l13.14-.12c3.76,0,7.75-.4,11.43.58,6.62,1.77,9.24,9.86,7.86,16.16-.85,3.88-3.85,5.65-7.5,6.24s-7.34.79-11,1.16l-23.48,2.37L21.2,135.82c-2,.2-3.94.41-5.91.58-1.73.15-4.77.07-4.88-2.25l8.82-.74a25.29,25.29,0,0,0,8-1.54c.46-.2.26-1-.23-.87q-5.79,1-11.64,1.45c-1.9.15-3.8.25-5.71.29-1.56,0-5.07.17-5.07-2.23,0-.81.34-.64,1-.77a14.91,14.91,0,0,1,1.49-.1c.9-.06,1.8-.13,2.7-.22,2-.18,4-.41,6-.68,3.78-.53,7.51-1.24,11.23-2.07.52-.12.43-.94-.11-.85q-7.08,1.17-14.21,1.94a34.24,34.24,0,0,1-6.84.53C3.09,128,2.9,124.92,2.82,122.59Z"/><polyline class="cls-4" points="104.63 177.99 82.98 200 68.01 184.79"/><rect class="cls-2" x="48.1" y="41.87" width="69.31" height="142.94"/><path d="M116.4,42.87V183.8H49.1V42.87h67.3m2-2H47.1V185.8h71.3V40.87Z"/><g class="cls-5"><polyline class="cls-6" points="118.4 89.53 82.78 125.74 47.1 89.48"/><line class="cls-6" x1="94.91" y1="113.4" x2="71.35" y2="89.45"/><polyline class="cls-6" points="118.4 114.28 82.78 150.49 47.1 114.23"/><line class="cls-6" x1="94.91" y1="138.16" x2="71.35" y2="114.21"/><polyline class="cls-6" points="118.61 163.79 82.98 200 47.3 163.74"/><line class="cls-6" x1="95.12" y1="187.66" x2="71.56" y2="163.71"/><polyline class="cls-6" points="118.4 77.15 82.78 113.36 47.1 77.1"/><line class="cls-6" x1="94.91" y1="101.03" x2="71.35" y2="77.07"/><polyline class="cls-6" points="118.61 126.66 82.98 162.87 47.3 126.61"/><line class="cls-6" x1="95.12" y1="150.53" x2="71.56" y2="126.58"/><polyline class="cls-6" points="118.4 64.78 82.78 100.98 47.1 64.72"/><line class="cls-6" x1="94.91" y1="88.65" x2="71.35" y2="64.7"/><polyline class="cls-6" points="118.61 139.04 82.98 175.25 47.3 138.98"/><line class="cls-6" x1="95.12" y1="162.91" x2="71.56" y2="138.96"/><polyline class="cls-6" points="118.4 52.4 82.78 88.61 47.1 52.34"/><line class="cls-6" x1="94.91" y1="76.27" x2="71.35" y2="52.32"/><polyline class="cls-6" points="118.61 40.02 82.98 76.23 47.3 39.97"/><line class="cls-6" x1="95.12" y1="63.89" x2="71.56" y2="39.94"/></g><path class="cls-2" d="M57.55,84.91c-7.91-1.36-18,2.2-20.6,10.6a.35.35,0,0,0,.1.4,15.44,15.44,0,0,0,.26,12c3.38,7.62,12.16,11.37,20,9.41,7.57-1.9,13.55-8.78,13.5-16.84A15.69,15.69,0,0,0,57.55,84.91Z"/><path d="M57.82,83.83c-8.43-1.46-19.22,2.35-22,11.3a.38.38,0,0,0,.11.43,16.45,16.45,0,0,0,.27,12.78c3.61,8.11,13,12.11,21.34,10,8.07-2,14.44-9.35,14.4-18A16.73,16.73,0,0,0,57.82,83.83Zm2.86,31c-6.74,3.56-15.6,2.22-20.56-3.76-5.81-7-4.3-17.88,3.82-22.28a.21.21,0,0,0,0-.35c8.77-5.13,22.68-2.22,25.2,8.77A16.06,16.06,0,0,1,60.68,114.86Z"/><path d="M55.58,92.65c-4.16-.71-9.47,1.16-10.82,5.57a.19.19,0,0,0,.05.21,8.09,8.09,0,0,0,.14,6.29,9.14,9.14,0,0,0,10.51,4.94,9.29,9.29,0,0,0,7.09-8.84A8.25,8.25,0,0,0,55.58,92.65ZM56.44,107a7.12,7.12,0,0,1-8.67-1.59A6.2,6.2,0,0,1,49.39,96a.08.08,0,0,0,0-.14C53.1,93.7,59,94.92,60,99.55A6.79,6.79,0,0,1,56.44,107Z"/><path class="cls-2" d="M118.56,84.91c-7.9-1.36-18,2.2-20.6,10.6a.37.37,0,0,0,.11.4,15.44,15.44,0,0,0,.25,12c3.39,7.62,12.17,11.37,20,9.41,7.57-1.9,13.55-8.78,13.51-16.84A15.7,15.7,0,0,0,118.56,84.91Z"/><path d="M118.84,83.83c-8.43-1.46-19.23,2.35-22,11.3a.4.4,0,0,0,.11.43,16.54,16.54,0,0,0,.27,12.78c3.61,8.11,13,12.11,21.35,10,8.06-2,14.44-9.35,14.39-18A16.73,16.73,0,0,0,118.84,83.83Zm2.85,31c-6.73,3.56-15.6,2.22-20.56-3.76-5.8-7-4.29-17.88,3.83-22.28a.22.22,0,0,0,0-.35c8.77-5.13,22.67-2.22,25.19,8.77A16,16,0,0,1,121.69,114.86Z"/><path d="M116.59,92.65c-4.15-.71-9.47,1.16-10.82,5.57a.18.18,0,0,0,.06.21,8.13,8.13,0,0,0,.13,6.29,9.14,9.14,0,0,0,10.51,4.94,9.29,9.29,0,0,0,7.09-8.84A8.24,8.24,0,0,0,116.59,92.65Zm.87,14.34a7.11,7.11,0,0,1-8.67-1.59A6.2,6.2,0,0,1,110.4,96a.08.08,0,0,0,0-.14c3.7-2.16,9.56-.94,10.62,3.69A6.78,6.78,0,0,1,117.46,107Z"/><path class="cls-2" d="M90.24,32.63c-1.25-5.45-8.15-6.89-12.51-4.35a.1.1,0,0,1,0,.17,7,7,0,0,0-3.62,6.09H90.42A7.32,7.32,0,0,0,90.24,32.63Z"/><path class="cls-2" d="M72.32,31.31a.23.23,0,0,1-.06-.25c1.59-5.19,7.85-7.39,12.74-6.55a9.68,9.68,0,0,1,8.2,9.61c0,.14,0,.28,0,.42h8.26a17.44,17.44,0,0,0-.44-4.63C98.05,17,81.68,13.55,71.35,19.58a.25.25,0,0,1,0,.41,16.57,16.57,0,0,0-8.62,14.55h9A9.58,9.58,0,0,1,72.32,31.31Z"/><path d="M121.53,24.81c-6.26,1.61-11.81,5.08-17.23,8.55a19.94,19.94,0,0,0-.81-5.35l.05,0c2.33-1.66,4.55-3.44,6.9-5.07a48.62,48.62,0,0,0,6.35-4.56.65.65,0,0,0-.62-1.08c-4.73,1.61-9.53,5.65-13.21,9.15a19.36,19.36,0,0,0-3.39-5.65.71.71,0,0,0,.5-.41,9.51,9.51,0,0,1,2.1-2.43c.8-.87,1.59-1.74,2.41-2.59a32.43,32.43,0,0,0,4.21-4.56c.4-.6-.37-1.32-1-1-2.11,1.27-3.81,3.48-5.45,5.31-1.2,1.33-3.23,3-3.49,4.89A19.77,19.77,0,0,0,95.14,17c.44-2.44,2.21-4.78,3.4-6.93a43.65,43.65,0,0,0,3.15-6,.85.85,0,0,0-1.41-.83c-1.77,2-2.93,4.65-4.17,7-1,1.89-2.08,3.86-2.23,6a20.44,20.44,0,0,0-6-2.07C89.27,10.2,90.82,5,90.19.8a.86.86,0,0,0-1.65,0c-.46,2.36-.66,4.75-1.16,7.11a31.1,31.1,0,0,0-1,6,26,26,0,0,0-5.15-.07c.05-4.32,0-9.17-1.28-13.31a.77.77,0,0,0-1.51.2c-.42,4.31.49,9,1.4,13.25a27.3,27.3,0,0,0-6.35,1.62,20.69,20.69,0,0,0-2.3-5.55C70,7.72,68.78,5.3,67.4,3c-.3-.49-1.22-.34-1.16.31a16.56,16.56,0,0,0,2.28,6.35c1.17,2.17,2.26,4.46,3.57,6.55a22.06,22.06,0,0,0-5.34,3.49c-1.45-2-2.9-4-4.29-6-1.26-1.83-2.29-4.24-4.11-5.52a.52.52,0,0,0-.78.45c.3,2.37,2.14,4.5,3.46,6.43a67.86,67.86,0,0,0,4.5,5.89,16.9,16.9,0,0,0-3.75,6.48.45.45,0,0,0,.13.51,19.34,19.34,0,0,0-1.25,5.21c-4.36-1.73-8.6-3.75-13-5.4-.83-.31-1.33,1-.59,1.43a82.3,82.3,0,0,0,13.43,5.9.65.65,0,0,0,.72.5c13.9-.64,27.72-.4,41.63-.15a1,1,0,0,0,.9-.49.53.53,0,0,0,.23-.06c6-3.06,12.31-5.41,18-9A.57.57,0,0,0,121.53,24.81ZM74.28,33a6.86,6.86,0,0,1,3.43-4.57.1.1,0,0,0,0-.17c4.36-2.54,11.26-1.1,12.51,4.35,0,.12,0,.23.05.35C85,32.89,79.61,32.85,74.28,33Zm18.85,0A9.69,9.69,0,0,0,85,24.51c-4.89-.84-11.15,1.36-12.74,6.55a.23.23,0,0,0,.06.25,9.33,9.33,0,0,0-.5,1.81c-3,.14-6.08.37-9.11.71A16.51,16.51,0,0,1,71.3,20a.25.25,0,0,0,0-.41c10.33-6,26.7-2.61,29.66,10.33a17.14,17.14,0,0,1,.43,3.24C98.68,33.12,95.91,33.07,93.13,33Z"/><path d="M62.87,26.54c-3.2-2.45-6.73-5.54-10.51-7-.73-.28-1.25.78-.74,1.29a30,30,0,0,0,4.91,3.5q2.74,1.81,5.52,3.59C63,28.54,63.68,27.16,62.87,26.54Z"/></g></g></svg>