<svg xmlns="http://www.w3.org/2000/svg" xmlns:xlink="http://www.w3.org/1999/xlink" viewBox="0 0 470 685.71"><defs><style>.cls-1{fill:none;}.cls-2{clip-path:url(#clip-path);}.cls-3{fill:#fff;}</style><clipPath id="clip-path" transform="translate(0 0)"><rect class="cls-1" x="35" width="400" height="685.71"/></clipPath></defs><title>T_cm_b3_illu_baby</title><g id="Layer_2" data-name="Layer 2"><g id="Layer_17" data-name="Layer 17"><g class="cls-2"><path d="M435.88,288.21c-4.34,1.24-8.91,1.46-13.09,3.45-1.72.81-2.36,1.65-2.32,3.55.19,10.4.45,20.77,3.91,30.74,1.06,3,.44,5.49-2.7,7a20.32,20.32,0,0,0-2.34,1.52c-8.11,5.45-10.59,11.69-7.24,20.85,3.45,9.42,1,18.63.29,28-.95,12-5.76,22.89-9.6,34-1.78,5.18-1.53,10.5-1.78,15.79-.27,5.58-.35,11.18-.52,16.76a4.6,4.6,0,0,1-.11,1.59c-4,9,.06,17.67,1.3,26.44.2,1.44.66,3,.36,4.34-.94,4.14-.46,7.82,2.2,11.27,1,1.31.65,3.08.16,4.64a14.48,14.48,0,0,0,0,7.86,207.71,207.71,0,0,1,5.64,55.05c-.44,16.24-.42,32.47,1.44,48.66.57,5,.16,10.1.2,15.16a2.86,2.86,0,0,1-1,2.54c-4.43,2.82-1.86,5.77-.22,8.68.71,1.27,1.69,2.4,2.4,3.67.52.92,1.35,2.13,1.1,2.92-2.08,6.75,3.13,11.93,3.73,18.13.64,6.7-1.69,10.93-8.14,12.33a19.24,19.24,0,0,0-5.21,1.94c-17.81,9.78-36.42,10.71-55.6,4.92-4-1.2-5.44-7-2.74-10.64,1.25-1.7,2.77-3.2,4.39-5-3-1.51-5.87-.69-8.62-.25-13.53,2.18-27.05,4.38-40.55,6.74-12,2.1-22.37-1.09-31.33-9.24-3.51-3.19-3.51-5.75.4-11.4-2.92-1.5-5.73-3.21-8.73-4.42-6.88-2.79-8.48-8.2-8-14.89a41.57,41.57,0,0,0-.42-10.73,15.36,15.36,0,0,0-4.29-7.76c-.39.23-.76.32-.79.47-1.37,7.47-6.09,13-10.57,18.76-3,3.9-6.65,6.53-11.77,6.35-7.28-.24-14.65.12-21.35-3.81a5.51,5.51,0,0,1-3.1-5.06c-.3-7.07,3.14-12.6,7.58-17.47,3.92-4.31,6.39-8.72,4.84-14.72a5.12,5.12,0,0,1,1.54-5.5c2.11-1.68,2.2-2.93-.12-4.41a5.25,5.25,0,0,1-2.24-4.85,1.7,1.7,0,0,1,0-.39c3.17-14.6-3.14-28-5.1-42-2.75-19.54-4-39.18-.82-58.82,1.2-7.47-1.16-14.18-4-20.82-5.33-12.54-8.32-25.82-12.37-38.76-2.19-7-5.42-13.58-8.73-20.09-1-2-3-3.35-5.27-2.83s-1.59,2.76-1.85,4.38C171,426,169.65,449.69,163,472.38c-2.22,7.64-2.26,15.17-2.34,22.86-.21,20.41-1.82,40.65-6.64,60.58a59.08,59.08,0,0,0-.26,25,16.51,16.51,0,0,1,.45,4.35c-.54,6.45-2.13,12.82-.92,19.39a6.66,6.66,0,0,1-1.51,4.87c-3.27,4.32-2.89,9-1.26,13.67,1.36,3.93,2.46,7.87,2.12,12.09-.4,4.94-1.94,7-6.79,8A240.38,240.38,0,0,0,116,651.89c-9.42,3.31-18.59,2.58-27.65-1.18a36.9,36.9,0,0,0-7.1-2.56c-2.7-.51-3.18-2.15-2.49-4.75A18,18,0,0,1,90.3,630.56c8.85-3.35,14.37-9.68,17.57-18.41,2.12-5.77,1.49-11.49.19-17.25-1.35-6-4.11-11.5-5.89-17.36-2.68-8.87-2.54-17.72-.8-26.45,1.76-8.89,1.2-17.58,1.11-26.5-.12-12.9-2-25.62-2.35-38.5-.61-22.85-1.8-45.7-1.89-68.58,0-3.46-.14-6.92-.17-10.39a10.4,10.4,0,0,0-1.9-6.63c-.45,3.57-.84,7.14-1.36,10.69-2.7,18.41-1,36.95-2,55.39-.39,7.53-.71,15.06-1,22.59a6.25,6.25,0,0,0,1,3.69c.94,1.62,2.13,3.34,1.84,5.2-1.06,6.91,1.22,13.66.67,20.58-.83,10.5.62,21,1,31.47a154.09,154.09,0,0,0,4.56,31.77c1.68,6.78.34,13.47-2.53,20.17-2,4.71-5.27,9.58-3.71,15.43.56,2.09-.57,3.8-2.54,4.95-6,3.47-11.91,7.13-18.31,9.76C63.42,636.42,53.93,633.87,45,628c-1.62-1.08-1.77-2.37-.94-4.12,2.38-5,5.27-9.38,10.67-11.86,3.88-1.78,6.45-4.7,5.84-9.8a17.55,17.55,0,0,1,2.26-10c2.13-3.95,1.69-7.29-1.14-10.59-1-1.1-1.47-2.55-2.36-3.7-9.05-11.57-8.52-24.62-5.14-37.7A43.82,43.82,0,0,0,52.11,511a16.8,16.8,0,0,1-1.25-8.22,20.74,20.74,0,0,0-.79-8.28c-.55-1.78-1.08-3.67-.38-5.5,3.47-8.94,2.48-18.07,1.21-27.2-1.44-10.29-1.43-20.71-3.14-31-2.57-15.34-4.57-30.79-8.41-45.9a7.45,7.45,0,0,1-.43-3.12c.62-3.05-.59-4.82-3.44-5.68v-3.19a33.19,33.19,0,0,0,10.26,3.17c14.15,1.91,24.73-1.36,29.85-16.61a111.26,111.26,0,0,0,5.58-28.91c.9-15,3.62-29.95-.92-45-3.73-12.38-2.14-25.39-2-38.16,0-3.13-.33-4.14-3.93-3-9.49,3-19,6.34-29.28,4.45-1.85-.34-2.63.29-2.94,2.14-1.07,6.3-2.27,12.59-2.44,19-.26,10-.6,19.94-4.19,29.44V286.61c.93-1.13.7-2.51.79-3.8.69-9.89.49-19.89,2.78-29.59,1-4,.36-6.63-3.57-8.17v-8.79c.12.06.32.08.36.17,3.87,10.13,12.48,9.57,20.7,8.53,6.55-.83,12.92-3.05,19.41-4.49,2-.43,2.49-1.45,2.76-3.24.87-5.79.89-11.73,2.9-17.3.82-2.27-1.87-2.21-2.15-3.72,1.15-1.11,2.54-.57,3.79-.65,1.91-.11,4,.6,5.12-1.91.47-1,1.9-.64,2.94-.73a24.44,24.44,0,0,1,17.88,5.43,23.71,23.71,0,0,0,3.55,2.57c1.19.63,2.43,2.29,3.87,1.11a4.8,4.8,0,0,0,2-4.82c-1.08-5.48-1.66-11.07-3-16.48-2.44-9.68-4.42-19.46-6.22-29.27A25.81,25.81,0,0,1,109.3,161c1-.16,1.31.39,1.36.87,1.24,13.61,5.8,26.49,8.68,39.73,1.19,5.46,2,11,2.79,16.54.43,3.06.51,5.76-1.62,8.88-2.75,4-2.08,9.24-.5,13.92a13.25,13.25,0,0,1,.27,7.83c-5.51,21.51-5.15,43.21-2.2,65a68,68,0,0,1,.19,16.21c-.6,6,2.82,11.73,6.45,16.78.91,1.28,1.79.85,2.46-.27,1.16-1.94,2.35-3.87,3.36-5.88,10.1-20.16,16.4-41.54,20.54-63.64,1.12-6,2.62-11.95,4-17.9.25-1.06.33-2.44,2.05-2.94.91,1.61.49,3.34.17,4.92-4.14,20.07-7.52,40.36-15,59.56-4,10.15-7.83,20.42-14.57,29.21-1.23,1.6-1.48,2.86,0,4.79,13.55,18.26,31.17,29.23,54.29,26.5,16-1.89,31.07-7.85,41.37-21.58,2.37-3.16,4-6.9,5.84-10.43a13.83,13.83,0,0,1,4-4.72c-2.3-1.72-4.1-.61-5.78.24-3.6,1.84-6.52,4.61-9.39,7.38a125,125,0,0,1-17.33,14.1,31.55,31.55,0,0,1-24.73,5c-1.38-.28-2.95-.25-3.9-1.73,1.23-1.64,3-1.08,4.39-.81,10.8,2.05,19.93-1.54,28.2-8.14,4.9-3.89,9.79-7.79,14.62-11.78a69.92,69.92,0,0,1,8.61-6.31c-.26-.37-.42-.74-.53-.73-6.88.83-11-3-14.07-8.45-5.47-9.55-7.23-19.92-6.48-30.79a3.26,3.26,0,0,1,1-2.59c1.52,1.17,1,2.92,1.17,4.39,1,9,1.74,18,6,26.32,2.9,5.66,6.41,9.86,13.65,8.3a9.11,9.11,0,0,1,4.75,0c4,1.45,5.25-1,6.23-3.88a41,41,0,0,0,2.13-11.76c.28-7.44.81-14.9.65-22.33-.44-19.62,2.73-39.05,2.78-58.62,0-4.56,2.27-5.45,5.8-6.72,7.83-2.82,15.83-2.54,23.89-2.44,6.52.08,6.41,0,6-6.72-.95-16.26-4-32.2-7.19-48.12a96.55,96.55,0,0,0-10.39-29.19c-4.37-7.71-11.08-12.21-19.22-14.53a71.34,71.34,0,0,1-17.93-7.6,10.17,10.17,0,0,0-1.66-.6c-1.47,5.57,2.92,8.49,5,12.53a9.17,9.17,0,0,1-7.51-5,102.35,102.35,0,0,1-10.28-39.1c-.35-5.62-.46-11.17.71-16.7.35-1.67.85-3.32-1.48-4.88-.23,14.12-.73,27.74,1.57,41.3,1.51,8.82,4.41,17,10.15,24,1.39,1.69,3.6,2.74,4.4,5.26-2.41,1-3.7-.6-4.95-1.77-4.76-4.5-7.61-10.21-9.93-16.21-1-2.46-1.78-5-2.88-7.36.21,8.49,4.29,15.59,9.21,23.6-3.23-1.32-4.73-.57-6.09,1.31-2,2.78-4.39,5.35-6.7,7.92a24.3,24.3,0,0,1-13.63,7.81c-4.89,1-9.47.43-13.58-2.85a58.48,58.48,0,0,1-16.15-19.42c-3.44-2-3.41-6.29-6.66-9.86.52,2.8-2.11,4.44-.42,6.2,1.83,1.92,3.95,4,7.12,3.62-1.1,2.3-2.76,2.65-4.88,1.39l-4.8-2.81c-.57,2.09,1.61,3.51,1,5.45-7.06-3.92-9-28.05-1.39-34.1a2.83,2.83,0,0,1-1,3.71c.77,1.44-.4,2.51-.72,3.73-.62,2.43-1.26,4.86-.47,7.38a10.47,10.47,0,0,0,1.87-3.11c.46-1.1.55-2.56,1.34-3.28,4-3.73,1.77-4.51-2.05-4.7,3.57-1,4.58-3.47,4.16-6.85l-.09.11.91-.91-.09.1.9-.91-.11.08c.63.09,1.63,0,1.85.3,2.82,4.49,1.85,9.63-2.41,13.27-2.63,2.27-5.22,12.16-3.74,16.16.54-3.7.59-6.85,2.13-9.58.77-1.36,1.24-3.13,3.46-2.4s1.33,2.14,1.19,3.59a11.38,11.38,0,0,0,2.59,9.17c5.06,6,8.6,13.12,14.63,18.38,8.71,7.59,17.71,7.49,26-.83,3.28-3.29,6.15-7,9.27-10.45.73-.81,1-1.48.38-2.43-1.93-2.87-3-6.19-4.6-9.78-1.45,2.48.09,4.79-.76,6.8-1.53-1.44-1.53-1.44-2.47-9.57-1.47-.36-1.44,1.92-3.08,1.59-.79-1.43.13-2.65.82-3.85a27,27,0,0,0,3.42-9.73c.34-2.36,1.83-4.66-1.64-6.13-1.13-.48,0-1.55.78-2.07l-.13-.12c1.62,2,3,.6,3.81-.63a2.06,2.06,0,0,0-1.14-3.23c-1.12-.42-2.6-.62-2.21-2.23s2.28.49,3.1-1.21c-2.64-2-2.27-4.27-.41-6.74.84-1.12.44-2.58.51-3.89.31-5.43-.34-10.93,1-16.29.35-1.35-.53-2.24-.94-3.33-1.64-4.4-6.19-7.33-6.12-12.69,0-1.62-6.62-4.39-8.41-3.94-2.22.55-4.36.65-6.2-.88.42-1.54,1.44-1.54,2.33-1.49,2.73.14,4.83-1.19,6.88-2.74S201,42,203.7,42.2c1.38.13,4.53-.31,2.3,3-.76,1.11.49,1.24,1,1.64,3.63,3.06,3.65,3.05,2.12,7.88a1.19,1.19,0,0,0,.54,1.36c6.86,6,8.2,14,8.31,22.44,0,.33.3.65.81,1.64a95.87,95.87,0,0,0,6.13-18.47C228.46,44.83,239,34.18,254.56,28a24.84,24.84,0,0,1,13.34-1.37c1.16.19,2.43.17,3.06,1.53-.38,2-2.31.6-3.4,1.58,1.83.89,3.92,1.67,2,4.3-1,1.37,1.72,1.81,1.08,4.18s-1.3,2.57-3,2.81c-1.94.28-3.91.41-5.71,1.47.87,1.54,2.66-.3,3.62,1.33-1.3,1-2.88,1-4.38,1.32-7.09,1.46-13.44,4.2-17.87,10.31a12,12,0,0,0-2.2,4.21c-.88,3.61.17,4.83,3.84,4.74,3.05-.07,6.11.08,9.17.12a7.71,7.71,0,0,1,5.63,2.6,4.31,4.31,0,0,0,6.15.27c5.62-4.49,11.63-4.54,17.92-2.12,3.89,1.49,4.91,1,4.33-3.19-1.18-8.45-5.42-14.87-13.37-18.5-1-.47-2.83-.42-2.47-2s2.12-1.32,3.4-1,2.75,1,4.12,1.48l6.95,7.06c-1-3.88-3.31-6.22-7.05-7-.3-1.3-1.49-1.74-2.36-2.48-.56-.47-1.7-.6-1.45-1.57.31-1.15,1.5-.74,2.35-.87a1.67,1.67,0,0,0,1.83.71c.2,1.2.79,1.79,2.16,1.42-.6-.88-1.22-1.44-2.22-1.34-.42-.8-1.14-.74-1.87-.68-.43-1.17-3.06-1.53-2-2.76,1.48-1.75,3.51.14,5.3.48l.09-.21-.12.31c-.1-3.85-4.13-3.88-6.45-6.34,3.35-1,5.38.49,7.43,2.14,11,8.87,16.89,20,15.05,34.44a18.84,18.84,0,0,0,.24,2.85c2.52-4.55,5-7.89,5.49-12.48.94-8.28,5.6-14.4,12.57-18.87A54.81,54.81,0,0,0,324.21,31c8.78-8.33,18.7-7.65,29-4a51.52,51.52,0,0,1,10,5.11c-3.79,1.57-6.19-2.36-9.6-2l0-.29-.22.23.29,0c1.23,2,2.57,3.95,1.86,6.57-2.85-.21-5-2.3-7.81-2.85-.72,1.4,2.4,2,.82,3.22-1.29,1-2.41-.45-3.47-1.18C336.61,30,327.91,30.46,320,37.06a80.57,80.57,0,0,1-7.4,5.68c-3.75,2.49-5.94,6.92-6.75,12.24a6.87,6.87,0,0,0,3.33-3.32c3.21-5.16,7.62-9.24,12.11-13.18,4.17-3.66,9.36-4.22,14.67-3.62,1.66.19,3.25.89,4.76,3.45-7.65-1.56-14.11-.84-19.41,4.1a29,29,0,0,0-7.05,10.74c1.57,0,1.74-2.07,3.67-1.33a26.43,26.43,0,0,1-5.47,10.69c-.85,1.07-2.6,1.67-1.84,3.57l-1.06,1.1-.87.62c-.46,0-.66.25-.7.68-1.6,2.14-3.51,5.36-2.23,7,2.41,3.19,1.34,6,.86,9C306,88.51,304,92,302,96.24c4.24-2.77,3.36-8.13,7.18-10.4A16.37,16.37,0,0,1,304.34,98a5,5,0,0,0-1.53,5.66c.94,3,1.51,6.21,2.21,9.32.23,1,.78,2.36-.64,2.7-1.25.29-1.72-1.08-2.06-2.05-1.43-4-2.11-8.23-3.09-12.37a11.45,11.45,0,0,1,1.39-8.71c2.24-4.07,3.95-8.48,3.47-13.41-1.92,4.62-5.47,8.56-6.13,13.59a74.11,74.11,0,0,0,.48,20.71c.18,1.16.08,2.61,1.32,3.18,6.76,3.07,12.69,8.12,20.24,9.18,3.64.5,7.59,2.3,11.15-1.41,1.53-1.59,3.49-2.39,2.34-4.91-.9-2-.74-4.56-3-5.82-1.41-.78-2.81-1.76-3.91.5-.37.75-1.42,1.91-2,.5-.93-2-2-1.1-3.14-.59a10.42,10.42,0,0,1-7.41.38c-.93-.28-2.58-1.41-1.18-2.08,3.89-1.88,2-4.81,2.27-7.37-5.45,1.57-1.14-3.4-3.15-4-1.16.89-1,3.13-2.84,3.22-4.85-4.44-.49-7.85,1.08-11.55.31-.71,1.15-1.21,1.4-1.92,1-3,3.17-6.73,1.07-9.26-3.3-4-5.09-8-4.64-13l.68-.69.87-.65,1.06-1c5.17-3,10.08-3.48,15.13.63,2.58,2.09,5.4.82,6.82-2.33,2.21-4.92,6.64-6.65,12.35-4.89,2.76.85,5.1,2.79,8.58,2.75-1.6,2.25-1,4.24-.68,6.33.8,5.28-1.92,10.06-6.37,11.64s-9.33-.55-12.12-5.21a30.46,30.46,0,0,1-2-3.46c-.48-1.14-.69-2.42-2.38-1.93-1.48.43-1.05,1.6-.93,2.63a12.57,12.57,0,0,1-1.74,8c-2.11,3.52-5.07,5.05-9.1,3.83-2-.61-2.56.2-2.13,1.88,2.59,10.29,6.85,19.55,15.88,25.94a2,2,0,0,0,2.72,0,7.22,7.22,0,0,1,3-.85c1.14-.1,2.84-.44,3.08,1s-1.45,1.69-2.59,1.74c-2.62.11-3.49.93-2.46,3.7,2,5.46,1.21,11.09-.13,16.54a54.16,54.16,0,0,0-1.12,9.45c-.25,3.53,1.06,4.49,4.59,4a20.2,20.2,0,0,0,9.35-4.29q11.52-8.91,22.93-18c3.24-2.6,3.07-11.91-.35-14.18a18.35,18.35,0,0,1-6-6.3c-1.39-2.46-2.4-2.59-4.34-.55-2.41,2.55-5,5-8.85,5.52-.43-1.92.94-2.3,1.87-2.84a44.42,44.42,0,0,0,5.09-3.85c2.82-2.23,3.4-4.51,1.72-7.9-2-4.09-2.34-8.72-2.58-13.24-.48-8.9-1.32-17.81.18-26.71.53-3.14.06-6.3-.67-10.28,2.94,2.23,2.45,4.62,2.41,6.68-.13,8.13,0,16.24.34,24.36.41,8.88,1.63,17.47,5.85,25.42l.13.1-.21-.19c.51-1.48-.05-2.88-.31-4.31-2.1-11.31-1.63-22.63-.12-34,1.6,12.84-.78,26.1,4.15,39.36,2.44-4.76,1.83-9,1.29-13.12-1.36-10.47-1.13-21-1.29-31.5a20.27,20.27,0,0,1,.53-2.92c3,6.12,3.12,12.16,5.77,17.31,1.87-11-2.37-20.39-8.52-30.06,2.82.66,3.7,2.32,4.59,3.72,4.3,6.76,7,14.09,6.94,22.18,0,7.58-.35,15.17-.44,22.75,0,3.62.4,7.2,2.46,10.34a7.87,7.87,0,0,0,4.78,4C380.67,95.35,380.37,85.69,381,76c.24-3.51,1-6.73-.68-10.25-.65-1.39.19-3.84.09-5.93-.26-5.13-3.48-8.44-5.78-12.36-1.05-1.78-2.51-3.35-3.09-5.48,1.58-.51,1.77.71,2.24,1.33,8.57,11.34,14.21,24.34,20.54,36.93a16.35,16.35,0,0,1,.05,14.64c-3.43-1.72-2.13-6.11-5.25-7.52l.16-.7-.15.64c.72,1.91,2.23,3.59,1.86,6.24-3.67-1.39-3-5.41-5.28-7.66-.66,6.31,2.57,11.36,4.78,16.54-1.7,1-2.24-.46-3.52-.79.59,2.48,1.11,4.71,2.44,6.52-.9,1.88-2.58.07-3.56,1,.89,3.57,3.44,5.75,5.84,8.28,4.38,4.65,8.93,8.83,14.68,11.72a29.11,29.11,0,0,0,6.62,2.6c8.39,1.88,16,5.08,20.64,12.89.49.81,1.07,1.56,2.21,1.31v6.4c-1.32-.41-1.66-1.63-2.21-2.67-4-7.61-10-12.8-18.43-14.65-4.93-1.08-9.19-3.41-13.44-5.92-1.75-1-3.26-2.63-6-2.83,1.34,9.37.67,18.61,2.72,27.63.4,1.78,2,3.47,1.07,5.34-1.47,3.07-3.21-.43-5.08,0-4.78,1.05-9.79.8-14.62,1.92-5.27,1.23-5.3,1.14-4,6.4.22.9.53,1.78.79,2.68,1.57,5.36,3.17,10.71,4.7,16.08.63,2.21.76,4.67-2,5.22-5.15,1-6.29,4.66-7.42,9-4.23,16.24-10.92,31.72-15.08,48a2.62,2.62,0,0,1-2.58,2.43c3.62-19.38,13-36.64,17.07-55.79-9,2.86-15.63,7.09-17.51,16.66-3,15.41-12.18,27.61-21.59,39.6-1,1.25-1.83,2.89-5,3,4.6-8.81,11.06-15.41,15.76-23.14,4.86-8,6.83-17.06,10.1-26.65a80.25,80.25,0,0,0-21.22,17.62c-2.77,3.16-4.9,6.18-5.53,10.41-1.23,8.29-3.48,16.4-5.1,24.62-2.49,12.63-5,25.22-5.67,38.23-.82,17-.76,34.11-5,50.77-.35,1.35-.71,2.89,1.47,2.68,1.8-.18,4.13,1.33,4.89-2.26,1.64-7.8,3.82-15.49,5.86-23.2.2-.74.06-2,1.78-2.1-.57,5.51-2.14,10.69-3.4,15.92-1.76,7.34-1.81,7.37,5.88,6.75,9-.72,18.07-1.93,27.11-1.07a174.53,174.53,0,0,0,22.74.61,95.93,95.93,0,0,0,36.92-9.2c6.24-2.86,7.4-6,5.64-12.55a22.57,22.57,0,0,1-.59-3.94c-.6-7.16-1.82-14.28-1.47-21.5.11-2.11-.75-2.55-2.65-1.89a259.74,259.74,0,0,0-40.85,18.08c-2.05,1.14-2.45,2.38-1.56,4.51.68,1.63,1.72,3.36.82,5.37-2.17-.31-2.72-2.18-3.26-3.67-7.36-20.56-12.78-41.69-18.72-62.73a58.36,58.36,0,0,1,6,12.78c.84,2.5,1.85,2.95,4.33,2.23,13.55-3.94,27-8.29,40.33-12.82,4.59-1.55,8.43-4.55,12.82-6.45,1.46-.63,1.35-1.81,1.36-3,0-2.93,0-5.86.08-8.79,0-1.08.07-2.26,1.16-2.8,1.35-.68,2.22.39,3.11,1.17.4.35.72.79,1.11,1.15,6.54,6.15,6.52,6.13,1.34,13.22-.87,1.19-1.82,2-3.32,1.63-3.28-.8-6,.48-8.63,2.17A46.43,46.43,0,0,1,400,261.56c-12.56,4-25.16,7.86-37.72,11.83-1.31.41-3.51,0-2.69,2.78.68,2.31,1.33,3.48,4.33,3.1,11.23-1.43,22.32-3.6,33.47-5.46.94-.16,2.1-.8,2.69.67-.79,1.45-2.24,1.93-3.58,2.39-10.64,3.59-19.41,10.46-28.81,16.23-1.37.84-2.22,1.61-1.63,3.47,1.32,4.19,2.44,8.44,3.59,12.68.56,2.06,1.33,2.43,3.33,1.23,15.23-9.13,32.48-13.85,48.2-22,4.48-2.31,9.75-2.52,14.7-3.52ZM317,137l.2,0-.11.14-1.05,1.24c-6,1.41-11.4,4-14.23,9.73-4.72,9.58-8.45,19.7-9.67,30.28a203.09,203.09,0,0,0-1.38,35.9,73.49,73.49,0,0,1-4,30.23c-.86,2.38-1.53,4.84-2.51,7.16-.87,2-.43,2.92,1.78,3.18a38.26,38.26,0,0,1,9.31,2.2c.84.33,2,.73,1.86,1.8-.2,1.39-1.61,1.3-2.59,1.14a41.27,41.27,0,0,1-8.17-1.77c-3.73-1.47-5.32-.11-6.23,3.39a8.27,8.27,0,0,1-3.35,5.17c-1.33-1.4-.57-2.69-.29-3.9.84-3.65,2.54-7,3.83-10.48,4.12-11.11,8.11-22.12,7.55-34.41-1-21.06-.4-42.06,7.37-62.13,2.61-6.73,5-13.56,12-17.21.08-.05,0-.45-.09-1.26-15.81.1-31.66,0-47.35,1.27-.33,1.53.48,2,1,2.54,6.92,8.07,11.07,17.66,13.79,27.68a323,323,0,0,1,8.75,47.47,75.75,75.75,0,0,1,.55,15.93c-.23,2.41-1.1,4.78-4.16,4.09-3.33-.76-3.49,1.09-3.59,3.45-.67,15.81-2.32,31.62-.27,47.45,1.94,15-.9,28.79-9.25,41.53-2.66,4-5.2,8.38-4.67,13.71a7.28,7.28,0,0,1-1.73,4.82,11.55,11.55,0,0,0-2,6.74,29,29,0,0,1-.71,6.74c-3.07,10.51-1.55,21.12-.9,31.72.1,1.61.1,3.28,2.64,2.88,2-.3,2.5,1.2,2.55,2.79a71.86,71.86,0,0,1,0,7.19c-.72,10.15,1.1,20.12,2.41,30.07,1.26,9.58,1.91,19.22.54,28.65A36.45,36.45,0,0,0,266,480.42a63.78,63.78,0,0,1,2,25.28c-.15,1.37-.36,2.79-2.09,2.9a2.57,2.57,0,0,1-2.83-2.23c-1.75-6.94-4.56-13.67-4-21.06a13.81,13.81,0,0,0-1.18-6.62,72.45,72.45,0,0,1-5.63-33.17c.67-12.35,1.79-24.67,1.84-37.06,0-4.24.61-8.45-.06-12.71-1.57-10-.42-20.18-2.68-30.24-1-4.7-2-7.94-6.63-9.55-3.62-1.26-6.18-4-8.56-6.85-.58-.69,0-2.32-1.58-2.32s-2,1.18-2.5,2.27c-2.05,4.33-3.54,8.94-6.57,12.75C214.3,376,198.68,382.05,181.52,384a51.61,51.61,0,0,1-36-9.2c-6.19-4.28-11.87-9.05-16.36-15.08-1.67-2.24-3.05-2.52-5.63-1.32-8,3.77-19.85,1.52-22.69-10.15q-1.18-4.83-2.23-9.71c-1.11-5.11-2.92-9-9.38-9.08-4.56-.07-4.59-.75-4.94,3.93a110,110,0,0,1-5.92,28c-5.25,15-17.55,20.07-32,17.87-5.51-.84-5.6-.87-4.33,4.72.06.26.15.51.22.77,4.3,16.79,6.94,33.88,9.16,51,1.29,10,2.09,20.11,3.14,30.16.8,7.58,1.4,15.12-1.57,22.46a7.07,7.07,0,0,0-.21,3.55c1.4,9.4,1.51,19,5.25,28a20.12,20.12,0,0,1,.9,11.41c-1.18,6.68-2.36,13.37-3.35,20.09s-.51,13.16,3.33,19.21c2.48,3.92,4.61,8.1,7.28,11.91a7.52,7.52,0,0,1,.76,8.23c-1.6,3.39-3.15,7.06-2.78,10.73.76,7.48-3.45,11.28-9.24,14.21a14,14,0,0,0-6.5,7.28c-.8,1.8-.34,3,1.39,3.91,7.3,3.7,14.84,5.29,22.68,2a141.22,141.22,0,0,0,16.57-8.8c1.18-.7,2.6-1.52,2.12-3-2-6.2,2-11.09,4-16.11,2.37-6.11,3.93-12.2,2.35-18.25a164,164,0,0,1-4.72-33.39c-.56-11-1.46-22-.93-33,.17-3.45-.63-6.91-.72-10.26-.14-5.45-1.67-10.43-2.58-15.59a44.43,44.43,0,0,1-.15-15.36c1.53-8.3,1-16.66,1.27-25,.34-10.89-.71-21.8.92-32.68,1.25-8.41,2.1-16.88,3.2-25.31.17-1.32.61-2.81,2.28-2.84s2.23,1.3,2.47,2.68c.88,5.1,2.24,10.19,2.47,15.32.56,12.64,1.16,25.32.71,37.94-.53,15,3,29.67,2.28,44.61-.37,7.61-.23,15.15,1.53,22.63a21.88,21.88,0,0,1,.23,8,20.89,20.89,0,0,0,.14,6.36c1.08,6.49,1.36,13-.18,19.45a61.51,61.51,0,0,0,4.43,42.61c8,16.63-.82,37.27-16.42,43.86a28.5,28.5,0,0,0-7,3.78c-2.38,1.92-4.26,4.49-4.11,7.41.11,2.15,3.31,1.55,4.9,2.65a15,15,0,0,0,2.92,1.28,34.3,34.3,0,0,0,24.94.65,221.21,221.21,0,0,1,29.85-8.71c2.66-.53,3.82-2,4-4.66a25.19,25.19,0,0,0-1.74-10.55c-2.1-5.75-2.59-11.38,1.31-16.72,1.32-1.8,1.28-4,1-6.16-.35-3.15-1.09-6.33,0-9.5a23.87,23.87,0,0,0,.48-11.84,62.39,62.39,0,0,1,.53-25.78c4.45-18.47,6.11-37.25,6.37-56.19.13-9.28-.07-18.42,2.64-27.63,6.72-22.8,8-46.61,11.66-70,.8-5.12,3.4-6.84,8.33-5.11a8.1,8.1,0,0,1,4.81,4c3.5,7.3,7.4,14.37,9.83,22.22,3.81,12.32,6.81,24.9,11.9,36.82,2.87,6.72,5.16,13.4,3.88,21.12-4,23.94-2.42,47.79,3.08,71.33,2.15,9.24,4.82,18.27,2.69,27.88-.69,3.12.45,5.51,3.12,7.55,3.1,2.37,3,3.83-.11,5.7-1.91,1.15-2.68,2.56-2.19,4.6,1.58,6.52-1,11.54-5.25,16.27-3.43,3.86-6.62,8-7.07,13.53-.24,2.94.63,4.58,3.38,5.87,5.7,2.68,11.73,1.88,17.65,2.33,3.78.29,6.69-1.46,9.07-4.19,5-5.71,9.47-11.65,10.79-19.42.39-2.35,1.22-4.55.61-7a6.12,6.12,0,0,1,.78-5,2,2,0,0,1,2.42-.86,1.23,1.23,0,0,1,.85,1.59c-1.86,5.57,1.61,9.39,4.41,13.39a15.61,15.61,0,0,1,2.15,5.1c1.39,5.26.54,10.6.66,15.9A8.11,8.11,0,0,0,262,642a94.79,94.79,0,0,0,10.13,4.69c4.73,1.85,4.87,2.83,1,5.85-3.52,2.77-3.36,4.53,0,7.63,7.65,7.12,16.78,9,26.7,7.54,13.16-2,26.24-4.43,39.38-6.53,5.94-1,12-1.88,18.44.3-2.94,3.17-6.26,5.26-8.62,8.3s-1.7,6.56,1.32,7.53c13.19,4.23,26.4,3.83,39.75.53,6.31-1.56,11.57-5.34,17.6-7.31,6.58-2.15,7.82-3.72,6.66-10.56-.5-3-.9-6-3.16-8.45a3.76,3.76,0,0,1-.77-4.13c1.51-3.29.2-5.87-1.59-8.53-1.41-2.08-2.49-4.39-3.83-6.52-1-1.65-1-3.29.64-4.18,3.61-2,3.57-5.2,3.33-8.62s-.17-6.66-.53-10a281.22,281.22,0,0,1-1.63-45.86c.87-15.94-1.15-31.59-3.27-47.28-.92-6.75-4.68-13.2-2.13-20.35a2.89,2.89,0,0,0-.67-2.2c-2.35-3.1-2.68-6.53-2.16-10.24a26.86,26.86,0,0,0-.45-7.14c-1-8.09-5.43-16-1.23-24.39.11-.22,0-.53.06-.79,1.13-7,.76-14.08.72-21.13,0-6.49.76-13,3.37-18.74,5.43-12,7.4-24.66,9-37.49.67-5.45,1.05-10.94-1-16.19-2.27-5.82-3.12-11.52.36-17.19.07-.1-.21-.42-.42-.81-1,.3-2,.6-2.93.92-10.8,3.57-21.74,6.45-33.23,6-16.76-.6-33.52-1.29-50.26.44-1.27.13-3.06-.55-3.64.91-1.81,4.62-5.59,3.39-9.1,3.59-3.29.18-3.53-1.18-2.88-3.83a119.26,119.26,0,0,0,2.49-12.11c1.28-9.59,2.74-19.13,2.72-28.92s.21-19.63,1.88-29.43c2.39-14.05,6.15-27.78,8.84-41.75,1.71-8.86,4-17.42,9.63-24.64,5.41-6.92,10.88-13.8,15.67-21.18,5.36-8.25,11.95-15.82,15.34-25.17,3.17-8.74,5.71-17.73,8.22-26.7,1-3.44,1.9-7.07,1.08-11.21-7.76,6.16-15.12,12-22.53,17.87-3.61,2.83-7.52,5.08-12.28,5.25-3.39.12-5.73-1.1-5.9-4.9,0-1.06,0-2.44-1.27-2.59s-1.56,1.27-2,2.2c-2.34,4.87-3.15,10.2-3.83,15.43-1.88,14.5-3.16,29.07-5.14,43.57-3.76,27.61-9.6,54.43-23.31,79.1a83.59,83.59,0,0,0-10.61,32.83,49.35,49.35,0,0,1-8.48,23.44c-.71,1-1.48,2.74-3,1.6-1.31-.95-.1-2.21.53-3.13,3.94-5.7,5.94-12.17,7.5-18.8,1.37-5.82,1.33-11.88,3.24-17.65a158.41,158.41,0,0,1,14.56-31c1.21-2,2.87-4.07,1.91-6.65-3.09-8.34-2.24-16.74-.59-25.17.76-3.92,1.62-7.83,2.34-11.75.26-1.43.55-2.94-1.57-3.45-2.89-.69-2.23-2.51-1.07-4.23a31.66,31.66,0,0,1,3.21-4.08c1.64-1.77,1.84-3.31.69-5.65A73.14,73.14,0,0,1,299,191.73c-1.34-6.24-1-11.09,3.26-16.47,7.25-9.17,13-19.48,18.56-29.79.94-1.73,2-3.61,4.5-4.3a5.12,5.12,0,0,1-.21,1.51c-6.8,11.29-12.57,23.23-20.47,33.78-3.78,5-4.2,9.66-2.87,15.43,2.16,9.35,6.59,17.45,12.38,25.9,2.86-17.44,5.27-34.1,6.85-50.9,1-10.61,2.57-21.26,9.67-29.88,2.62-3.19,3.13-6.51,2.91-11.08-3.92,3.18-8.14,5-11,8.54a55.88,55.88,0,0,1-11.18,10.76c-1.58,1.1-1.69,2.06-.6,3.59s3,3.07,2.48,5.8c-3.13-1-3.7-3.86-5.23-5.83-1.4-1.8-1-3.32,1-4.65a33.51,33.51,0,0,0,7-5.92Zm-28.7-96h-.12l.2.12v2.38c1.06,4.48,4.1,8.07,5.45,12.44a21.17,21.17,0,0,0-4-12.34c-.36-.54-.92-.34-1.41-.1Zm64.06-7.57h.19l-.26-.06a2.56,2.56,0,0,0-2-1.72c-1-1.54-2.86-1.81-4.3-2.69l-3.53-.07c-.2-3.63-2.49-1.49-4.08-1.28l4.09,1.28,3.59,0c.71,2.06,2.37,2.58,4.31,2.65C350.57,32.69,351.77,32.75,352.37,33.42Zm-92.05,5.8-2,.87c1.16.61,1.67,0,2-.91.62.21,1.23.77,1.93,0ZM228.5,60.28c-1.87,1-.88,2.63-.77,4-1.73.79-1.41,2.15-1,3.54-1.57.76-1.41,2.44-1.88,3.74-1.72,4.75-3.18,9.64-5.82,14a7.54,7.54,0,0,0-1.2,5.62c1.51,8.3,3.76,16.32,8.65,23.39.66,1,2,1.9.84,3.86-7.14-5.23-8-13.54-10.86-20.83-.06,3.61-.72,7.35,1.45,10.47a32.62,32.62,0,0,1,5.13,12,6.39,6.39,0,0,0,3,4.31c6.87,4.58,14.79,6.5,22.35,9.37a25.19,25.19,0,0,0,12.47,1.65c3.44-.45,6.93-.26,10.33-.75,5.2-.74,10.37.51,15.49-.1a96.83,96.83,0,0,1,23.88.38c4.66.59,7.39-2.12,10.52-4.72-7.36-1.54-13.39-5.53-19.58-8.85-1.23.69.1,2.87-1.78,2.74-1.34-.09-1.86-1.42-2.23-2.56a41.81,41.81,0,0,1-1.5-5.36c-.54-2.84-.88-5.73-1.3-8.6-2.31,8.33,2.28,16.27,1.43,25-3.07-1.62-2.24-4.6-3.78-6.12-5.81-5.77-5.95-12.87-5.39-20.36.4-5.36,2.28-10.76.21-16.16l.1.1c-.79-1.25-.48-2.38,0-3.74,1.16-3.33,1.06-11.88.12-14.6-1.05.61-.62,1.63-.68,2.49-.38,5.72-3.24,8.49-9,8.43-4.92,0-8.74-1.93-10.76-6.75-.67-1.59-.84-3.73-3.53-3.6-2.45.11-2.49,2.11-3.13,3.57-2.65,6-5.37,7.37-12.44,6.28-5.34-.83-7.53-3.47-8-9.67a7.57,7.57,0,0,0-.08-1.59,4.94,4.94,0,0,0-4.18-3.23c-1.81-.29-1.37,1.93-1.66,3-2.55,9.93-2.69,20-1.53,30.12.44,3.88,1.67,7.71,1.33,11.61-1.78.5-1.63-2.07-3-1.71-1.79,5.63,5.36,4.08,6,8-3.71-16.09-4.59-31.91.28-48.16,1.45,2.19.68,4,.66,5.84,0,1.31-.44,2.66.45,3.86,2,2.78,2.58,6.07,3.31,9.31a40.31,40.31,0,0,0,5.5,13.62c2.88,4.34,2.91,4.64,7.7,4,2.16-.28,2.61.54,3,2s1.76,2.81.34,4a3.79,3.79,0,0,1-4.79.26,24.67,24.67,0,0,1-8.07-9.21c-1.33-2.39-2.51-4.86-3.75-7.29l-.88.31c1.72,2.68-2.65,6.92,2.85,8.65.25.08.46.68.46,1a81,81,0,0,1-2.42,20.77c-2-4,0-8.27-1-12.15-1.23,4.18-1.51,8.7-1.82,13.45a7.42,7.42,0,0,1-4.11-5.76c-.51-3-4-.87-4.75-3.44a43.1,43.1,0,0,1-1.45-5.77c-.5-3.41.27-7.74-1.56-10.07-2.76-3.51-1.72-6.59-1.32-10a33.08,33.08,0,0,0,.15-7.7c-2.25,3-1.11,7-4.9,9.62.52-5.72,1-10.79,3.53-14.9a14.66,14.66,0,0,0,2.3-7.28c.11-2,.08-4,.11-6,1-1,.39-2.42,1.08-3.47l.73-4.16a7.43,7.43,0,0,0-.09-4.45c1.87-.64,1.87-2.35,2.2-3.86l.08.09c-1.53.79-1.21,2.7-2.27,3.77ZM303.67,73c-1.53.26-2,1.5-2.44,2.72-.84,2.44-1.63,4.89-2.44,7.34a1.39,1.39,0,0,1,.21.21.62.62,0,0,1,0,.24l-.16-.49c1.83-.32,1.75-2,2.35-3.24,1.1-2.18,1.12-4.78,2.56-6.84-.25-.09-.65-.14-.15-.47ZM238,43.2a2.1,2.1,0,0,0,2.56-.33c2.27-1.79,5.32-2.21,6.91-5.36,1.19-2.36,4.9-2.15,7.33-3.68-2-1.55-3.66-1.15-5.58-.19a29.43,29.43,0,0,0-11.28,9.65l.21.12ZM251.83,45c-7,1.07-13.71,4-17.79,9.4-3.86,5.11-4,12.21-3.92,18.83C231.87,66.5,234,60,238.38,54.45c.46,2.48-.92,4.36-1.56,6.46-.23.76-.54,1.7.54,2s1.23-.77,1.27-1.5c.26-4.17,3-6.9,5.41-9.91,2.2-2.7,5.75-3.65,7.71-6.52.34,0,.69.1,1,.13,0,0,.07-.19.1-.29ZM81.07,264.18a143.94,143.94,0,0,0,6.6,37.68c4.87,15.48,13.54,29.51,16.56,45.7,1.3,6.94,5.34,9.34,12.42,9.25,2.84,0,6.26-.48,7.52-2.82.88-1.62-1-4.41-2.61-6.29a8.48,8.48,0,0,1-1.3-2c-2.5-5.55-5.77-11-4.88-17.37a37.84,37.84,0,0,0,.24-8.7c-1.12-12.53-5.42-24.36-8-36.57-2.44-11.55-3-23,0-34.4,1.83-7,2.58-14.13,4.57-21a3.19,3.19,0,0,0-1.53-4c-2-1.29-3.66-3.19-5.76-4.27-4.76-2.48-9.52-6.59-15.09-1.44a2.05,2.05,0,0,1-1.54.31c-3.73-.58-4.24,1.83-4.76,4.67C81.09,236.3,81.9,249.92,81.07,264.18Zm173.09,97.9c1.77-4.55,1-8.37,1.68-12a1.74,1.74,0,0,0-1.15-1.91c-4.36-1.94-3.64-5.74-3.34-9.28.37-4.31,2.71-6.12,7-5.36,1.41.26,2.23.21,2.89-1.13,3.52-7.15,8-13.82,10.46-21.49,2.65-8.35,1.32-16.88,1-25.35-.25-7-1.48-14-1-21.1q.81-12.54,2-25c.25-2.55-.66-3-3-3.33-6.84-1.11-13.06,1.29-19.43,2.86-2.11.53-3.09,2-3.11,4.46,0,5.59-.13,11.2-.69,16.75-2,19.22-2.15,38.51-2.43,57.8-.1,7.08-.38,14.06-3.75,20.53-5.27,10.1-5,11,5.33,15.59C250,355.56,253.06,357.34,254.16,362.08ZM379.85,111.21c-6.34-.35-4,3.23-3.66,5.72a54.76,54.76,0,0,1,.14,10.71c-.47,9.17-3.53,17.67-6.2,26.29-.7,2.25-1.21,4.38,1.13,6.44a5.57,5.57,0,0,1,3.64-1.69c6-.42,11.73-2.34,17.77-2.18,2.56.06,3-1.32,2.59-3.64-1.38-8.14-1.54-16.39-1.7-24.61-.09-4.56-.83-8.39-5.16-10.79a6.27,6.27,0,0,1-2.2-2.26c-3-5.23-8.66-8.37-10.76-14.49C370.47,106.66,376.4,107.91,379.85,111.21Zm-13.3,55.69a407.39,407.39,0,0,1-31.42,46.49,72.38,72.38,0,0,0,6.12-4.6,140.2,140.2,0,0,1,34.41-19.16c2.41-.94,3.23-2,2.11-4.39-.44-1-.72-2-1.1-3-3.87,3-5.7,2.29-6.87-2.37C368.81,175.89,367.82,171.94,366.55,166.9Zm-108,233c-1.57,1.24-1,2.65-1,3.86-.41,11.57,0,23.15-1.33,34.7-1.29,11.2-.69,22.33,2.82,33.17.3.92.18,2.16,1.95,2.42-1-4.29.72-8.22,1.13-12.29,1.39-13.75-1.66-27.27-2.42-40.91-.28-5-1-10-.71-15.08C259.11,403.91,259.5,402,258.57,399.92ZM112.07,286.26a202.43,202.43,0,0,1,4.16-33.18c.57-2.72,2-5.69,1.36-8.16a48.68,48.68,0,0,1-1.2-17.65c0-.11-.4-.27-.63-.41-1.19.56-1,1.74-1.25,2.72-1.71,8-3.59,16.08-5,24.18A62.9,62.9,0,0,0,112.07,286.26ZM303.7,256.71c.63-.38,1-.46,1.05-.65,4.37-10.92,6.86-22.33,8.77-33.88.16-1-4.23-7-5.08-7.1a2,2,0,0,0-1.07.31,4.08,4.08,0,0,0-1.31,6.06,6.08,6.08,0,0,1,.74,5c-1.12,5.87-2.38,11.73-3.33,17.63A31.77,31.77,0,0,0,303.7,256.71Zm46.95-186.3c0-5.37-3.56-8.81-9.13-8.83-4.47,0-7.24,2.6-7.15,6.75.1,5,4.53,9.53,9.28,9.55C347.79,77.89,350.65,74.85,350.65,70.41Zm-24.17,3.48c0-4.29-3.73-7.78-8.38-7.83-3.89,0-7.66,2.91-7.67,6,0,4.23,5.62,9.84,10,9.93C323.51,82.05,326.46,78.13,326.48,73.89ZM365.11,292l16.33-11.51a60,60,0,0,0-10.72.65C360.93,282.44,360.93,282.46,365.11,292ZM87.05,310.66l-1,.39c-.33,4.08-.69,8.16-1,12.25-.08,1.24-.63,2.88,1.14,3.39,2.26.64,4.54,1.55,7,1,.66-.13.67-.82.47-1.3Q90.41,318.53,87.05,310.66Zm331.37-70.81c0,4.16,0,7.12,0,10.08,0,.79.44,1.87,1.34,1.57,2-.66,2.34-3,3.82-4.3a1.52,1.52,0,0,0,.11-2.43C422.25,243.37,420.74,242,418.42,239.85ZM259.28,341.05c-.15-2,.1-4.48-2.4-4.39-3.39.11-2.13,3.29-2.55,5.24a2.77,2.77,0,0,0,2.69,3.59C259.78,345.32,258.91,342.64,259.28,341.05ZM237.35,100.74a9.46,9.46,0,0,0,.41-5.31c-.28-2.14-.4-3.94,3-2.14-1.29-3.33-.74-6.8-3.59-10.16A104.38,104.38,0,0,0,237.35,100.74ZM373.79,90c1.39-5.74.19-11.26-1.26-16.76A47.76,47.76,0,0,0,373.79,90ZM264.63,496.68A29.17,29.17,0,0,0,263,482.5,24.1,24.1,0,0,0,264.63,496.68ZM292.11,77.33c-1,4.17-1.38,8.35-.11,12.54A24.78,24.78,0,0,0,292.11,77.33Zm-78.72-7.78c-.18-4.65-1.74-8.63-6.68-11.68Zm179.12,15c-.17-3.62-1.8-6.53-3.8-9.26A24.23,24.23,0,0,0,392.51,84.52ZM220.37,121.91a15.1,15.1,0,0,0-3.05-9C217.9,116.07,218.35,119.25,220.37,121.91Zm70-18.2c-.69,3.35-1.09,6.57,0,9.76Zm28.5-1.57c-.65,1.74-1.53,3.47-.23,5.63C319.91,105.63,320.44,103.92,318.9,102.14Zm2.3,8.21c1-.61,2.77.54,3-1.46a1.85,1.85,0,0,0-1.14-1.44C321.19,107.36,321.49,109,321.2,110.35ZM266.57,35.22a7.58,7.58,0,0,0-5.94,1.2ZM385.86,77.73c-.7,1.8-.89,3.17,0,4.4.33.46,1.14.07,1.28-.35C387.61,80.27,386.7,79.21,385.86,77.73ZM228.55,101.08a4,4,0,0,0-.08-4.34C227.88,98.31,227.07,99.43,228.55,101.08Zm63.79-35.62c-.6,1.29-.62,2.18.48,3.84C293.22,67.32,293.3,66.46,292.34,65.46Zm-91-18.33c-.24-.19-.59-.65-.8-.59a1.79,1.79,0,0,0-1.18.78c-.24.64.32.84.87.75A1.1,1.1,0,0,0,201.31,47.13ZM309.66,57.35c.19-.19.57-.38.66-.67s0-.91-.15-1c-.59-.25-.86.28-1.05.72S309.06,57.15,309.66,57.35Zm24.73-29,.53-.35a6.15,6.15,0,0,0-.71-.18c-.1,0-.22.11-.33.17Zm35.67,77.53-.27-.18c-.05.1-.16.27-.14.29a2.75,2.75,0,0,0,.41.24ZM254.89,40.7l-.28.19h.56Z" transform="translate(0 0)"/><path d="M127,72.6c1.5,1.53,2.25,3.77,4.48,4.6l-.11-.11c2.49,7.4,4.31,15,7.5,22.58,2.39-2.27,2.9-5,3.38-7.45,1-5.35,4.69-9.54,6.11-14.7.26-.91,1.29-1.66,2.06-2.37s1.56-1.33,2.45-.47-.07,1.65-.55,2.38c-1.4,2.12-3.17,4.07-3.56,6.92,2.22-.39,1.45-4.27,3.5-3.18,1.81,1,.08,3.36-.21,5.09A63,63,0,0,1,147.82,100a1.06,1.06,0,0,1,0,.35c-.11.4,0,.51.15.22.07-.14-.15-.42-.23-.64,1.87.15,1.59-2.3,3.42-2.81.68,2.76-.52,5-1.31,7.28-1.72,4.89-3.74,9.64-4.44,14.87a39.59,39.59,0,0,0,3.09,21.44c.41.95,1.91,2.33.37,3.06s-2.19-1.1-2.73-2.24a39.72,39.72,0,0,1-3.45-21.78,3.84,3.84,0,0,0,0-1.51c-2.91,5.34-1.26,11.23-1.58,17-2.29-.53-2-2.4-2.86-3.66-1.78.72-1.38,3.41-3.82,4.08L140.59,114A29.21,29.21,0,0,0,134,127c-.38,1.86-.51,2.91-3.35,2.87-3.26,0-6.55,1.94-9.82,3.07-2.89,1-5.71,2.33-8.68,2.95-3.93.83-5.94,3.6-7.88,6.59C93,159.86,85.51,178.83,80.12,198.71A71.17,71.17,0,0,0,77.65,214c-.05,1.15.22,2.73-1.46,2.77s-1.48-1.52-1.64-2.68c-.33-2.31,1.45-5.3-.62-6.75-1.57-1.11-4.36-.43-6.58-.69-3.77-.46-7.13-2.13-10.39-3.94a18.12,18.12,0,0,0-17.58-.46c-1.46.69-2.72,1-3.9-.38v-.8c2.11-2.41,4.84-3.46,7.94-4a20.89,20.89,0,0,1,11.36.71c1.49.54,2.63.66,2.48-1.51-.28-4.1.14-8.2-.52-12.31-2.29-14.25-7.61-27.58-12.25-41.11-1.54-4.48-3.66-4.82-7.13-1.3-.64.66-1.25,1.35-1.88,2V138c6.05-2.42,11.44-6,18.43-6.72,3.35-.34,7.54-2.78,11-5,1.53-1,2.76-1.47,4.31-.3,2.54,1.9,3.85.05,3.5-1.91-1.38-7.53,2.87-13.27,5.67-19.46A89.76,89.76,0,0,1,83.31,96a7.48,7.48,0,0,0,.74-6.79c-1.4,0-1.43,1.1-1.77,1.88-3.41,7.78-7.84,15.12-10.23,23.36-.25.84-.41,2.18-1.59,1.89-1.5-.37-.9-1.8-.57-2.67,3.18-8.31,4.79-17.16,8.67-25.22A8,8,0,0,1,80,86.05c1.12-1,2.19-2.61,4-2.16s1.6,2.26,1.8,3.65c.94,6.68,4.09,11.69,10.58,14.26a3,3,0,0,1,.9.75c.07.08,0,.25.06.38-3.38.44-5.53-.9-11.78-7.24,1.21,2.21.42,4.33-.11,6.42-2.09,8.37-.29,15.8,5.19,22.4,2.57,3.08,4.91,6.22,5.5,10.43.31,2.25,5.6,3.61,8.26,2,4.72-2.93,10-4.26,15.18-5.81a82.27,82.27,0,0,0,11.46-4.82c2-1,1.54-4,0-6-3.5-4.57-5.93-9.76-8.56-14.83-1.28-2.49-1.1-4,2.11-4l.14,2.24,1.58.57a2.46,2.46,0,0,0,0,2.15c1,1.86,1.93,3.73,3,5.56.36.63.77,1.58,1.76.82.65-.5,1.15-1.55.48-2-1.85-1.32-2.55-4-5.25-4.3a2.61,2.61,0,0,0-.06-2.17l-1.56-.53v-2.31c-2.37-2.34-3.24-4.44-1.91-8.21,2-5.73,1.51-12.09,1.85-18.2.09-1.56-.12-3.16.54-4.71,1.45.28,1.19,1.73,1.93,2.39-1.58,4.89.73,10.43-1.44,14.88-3.47,7.12.74,11.55,4.13,16.53a7,7,0,0,0,.94,1.28c1,1,1.31,3.22,2.84,2.93,1.69-.32,2.46-2.39,3.07-3.92.79-2-.76-3.69-2.06-4.76-4.57-3.73-5.49-9.17-7.09-14.28-.41-1.3-.7-3,1.65-3.15C129.27,78.79,127.28,75.88,127,72.6Zm-51.49,54,.09.09L74.74,128l-.29,0,.23-.13Zm64.8-21.9-.66,2c-1.18,0-2,.46-1.81,1.82-2.41,2.42-5.06,4.7-5.46,8.32a19.23,19.23,0,0,0,5.38-8.39l1.92-1.75a2.66,2.66,0,0,1,.72-2.08ZM79.22,116.88c1.27-.58,2.24-1.31,1.59-3.13-1.35.86-1.22,2.15-1.57,3.22l.16.16Zm66.2-28.17c1.29-.23,1.49-1.16,1.7-3.1l-1.66,3.18a1,1,0,0,1,0,.38c-.16.41-.06.54.11.27S145.47,89,145.42,88.71ZM57.56,171.84c.14-.25.43-.51-.07-.7l.16.63c1.56,7.29,2.91,14.57,2.57,22.11s1.51,9.16,9,9.7c6.46.46,6.5.43,7.76-6.81-2.45.77-3.55-1-4.88-2.45-3.13-3.31-5.4-7.2-7.77-11.06S60.84,175,57.56,171.84Zm7.53-34.52c-2.49,2.91-4.38,5.31-6.47,7.5-1.69,1.77-.93,2.68.76,3.63,3,1.69,6.38,1.7,9.7,1.79,1.09,0,2.27,0,2.76,1.16.59,1.36-.42,2.27-1.34,3a31.87,31.87,0,0,1-11.27,5.82c-1.5.45-2.25.91-1.39,2.78,3.33,7.24,6.38,14.62,10.6,21.41,2.48,4,5.11,7.86,9.3,11,2.5-10.19,6.63-19.28,10.32-28.53a6.91,6.91,0,0,0,0-6c-4.62-10.09-5.57-20.69-3.8-31.55.63-3.87-2.08-7.52-.19-11.42a40.66,40.66,0,0,0-2.56,6.36c-.78,2.26-1.45,4.57-2.36,6.78-.57,1.39.23,4-1.63,4-2.1,0-1.26-2.77-1.95-4.22a4.22,4.22,0,0,0-.58-.71c-2.7,1.14-5.29,2.47-6.79,5.18-2.1,3.82,2.19,5.59,3.51,9.08C67.38,143.64,66.2,140.92,65.09,137.32Zm1.32,16A24.31,24.31,0,0,1,55,148.88c-1.21-.88-2.34-2.12-.85-3.18,5.16-3.69,6.94-10.8,13.47-13.1a2,2,0,0,0,1.48-2.74,17.62,17.62,0,0,0-10.76,3c-2.29,1.54-4.06,2.91-7.15,2.28s-5.24,1.5-4.55,3.65c1.95,6.07,4.09,12.08,6.15,18.12a1.7,1.7,0,0,0,2.42,1.29C58.81,157.1,62.57,156.24,66.41,153.3Zm24.7,6,11.26-18.24c-6.19,0-10.84-2-15.8-4.67C86.83,144.56,87.1,151.94,91.11,159.33Zm2.58-23.89c-.86-4.17-3-6.79-5.56-9.41C86.44,132.54,86.44,132.54,93.69,135.44ZM78,109.9a21.22,21.22,0,0,0-3.89,10.79C76.62,117,77.86,113.6,78,109.9Zm4.43-1c-.42-1.93,1.19-3.59.67-6.42A11,11,0,0,0,82.38,108.86Zm58.74,1.42c1.25-1.45,1.66-2.46,1.26-3.74C141.77,107.47,140.61,108.14,141.12,110.28ZM79.61,121.86c-2.27,2.56-2.35,2.75-1.31,3C79.4,124.45,79.59,123.5,79.61,121.86Zm67.48-27.79-.12-.29-.11.29Z" transform="translate(0 0)"/><path d="M121.78,51.67c2,4.88,6.67,7.41,9.47,11.65,1.06-.74,1.3-4,2.79-1.12,4,7.82,7.34,15.92,8.45,24.75,0,.21-.21.46-.36.75a7,7,0,0,1-5.74-3.55c-1.61-2.39-2.47-5.35-5-7.06l.11.11c-.81-3.69-3.85-6.49-4.14-10.47,4.45,4.87,7.18,10.94,11.72,15.8-.27-3.33-.88-6.61-2.82-9.37a105.38,105.38,0,0,0-12.1-14.82,6.41,6.41,0,0,0-10.72,2.88c1.2.86,2.58-.18,3.82.33,1.06.44,2.44.18,3.39,2-2.66-1.18-4.49,1.59-7.08.4-1.7-.78-4.08-1.18-4.15-3.11-.09-2.34,1.72-4.2,4.06-4.89a68.46,68.46,0,0,1,7-1.31c-1.76-4.17-3.9-7.91-7.13-10.62A18.77,18.77,0,0,1,106.49,32c-.26-1.68-1.18-2.76-2.18-4.27a25.65,25.65,0,0,1,18.17,9.1c4.69,5.27,9.58,10.41,12.76,16.74a208.92,208.92,0,0,1,9.42,21.06c.36,1,.75,2-.08,3-1.28.21-1.74-.77-2-1.59-3.39-11.94-11.77-21-17.87-31.43-2.87-4.88-6.15-9.32-11.08-12.29-1.22-.74-2.38-1.78-4.38-1.26,1.25,2.36,3.66,3.33,5.24,5.07,1.17,1.28,3.19,2,2.08,4.57-.51,1.16,1.11,2,1.86,2.83,2.73,3.19,5.94,6,8.2,9.83-2.65,1.42-3.19-1.84-5-1.66Z" transform="translate(0 0)"/><path d="M179.57,37.08c.35,1.86,2.09,2.14,3.49,3.25,1.66-2.52,1-4.93.21-7.26-.68-2-.66-3,2-2.74,2.34.21,4.75-.4,7.64.17-1.21,3.44-4.94,5.73-4.43,10.07,3.06-2.92,5.25-7.53,10.86-4.91-5.92.33-7.7,5.4-10.77,8.87-2.34,2.66-4.1,3-6.05-.22-.43-.72-1-1.59-2.19-1.41-.37,1.53,1.59,2.92.26,4.52-1.87.29-2-1.82-3.32-2.41-1,.47.24,2-1,2.25s-1.55-.82-2.05-1.54c-2.63-3.77-6.1-5.54-11.55-5,1.69,1.67,2.62,2.83,4.5,2.24s2.71.64,3.6,1.82a2.42,2.42,0,0,1,.51,2.61c-.81,1.5-1.75-.37-2.1-.18-3.34,1.9-6.19-2.67-9.69-.56-.87.52-2.29-1.65-2.92-2.82-.77-1.41,1.13-1.32,1.76-2,2.22-2.33,4.44-4.44,8-4.49,1.12,0,1-1.38,1.51-2.11,2.3-3.5,5.35-5.9,9.75-5.92,1.56,0,3.2.13,1.73,2.45-1.14,1.8,1,1.68,1.61,2.47s1.19,1.18.94,2.06c-.36,1.27-1.48.8-2.35.86a1.74,1.74,0,0,0-2.13-.38,1.8,1.8,0,0,0,0-.4.87.87,0,0,0-.17-.27l.28.56A2.38,2.38,0,0,0,179.57,37.08Zm8.35-4.4a.6.6,0,0,0-.73-.67,1.16,1.16,0,0,0-.77.69c0,.27.25.88.44.9C187.43,33.66,187.77,33.22,187.92,32.68Z" transform="translate(0 0)"/><path d="M172.15,122.66c3.5-.24,2.81-2.85,3.23-4.52,1.13-4.48,1.55-5,6.38-4.48,1.57.18,2.46-1.62,4.05-.85s3.15,1.47,3.32,3.82c1.05-1.51,1.5-4,3.55-1.14,2.26,3.13,2.86,6.81,3.93,10.34.28.92.11,2-1,2.25a1.48,1.48,0,0,1-1.73-1.3c-.52-2.61-4.21-3.25-3.79-6.43-.58,2.29-1.1,4.36,1.51,5.88a2.86,2.86,0,0,1,.9,3.6,8.35,8.35,0,0,1-3.66,2.66c-.89.37-1.61-.7-2.05-1.54a2.06,2.06,0,0,1,.19-2.58c.6-.64,2.64,0,1.87-1.78-.7-1.56-1.84.67-2.72,0a11,11,0,0,1-1.41-1.63c-1,2.28,2.07,4.52-.34,6.45-1.64-.35-.9-2.19-2.09-2.87-.39-.16-.6.17-.52.57.38,1.73-.12,2.66-2,2.25-1.71-.36-1-1.22-.93-2.55a54.94,54.94,0,0,0-.62-11c-1.86,3.4-1.34,7.43-2.92,10.72-2,.72-1.84-3.78-4.38-1.52-.18.16-.85-1.24-.82-2a30.68,30.68,0,0,1,3-11c.31-.72,1-1.45,1.87-.92s.4,1.41.11,2.16C174.07,117.6,173.18,120,172.15,122.66Z" transform="translate(0 0)"/><path d="M209,233.86q9.85,40.09,21.82,79.58C225,309.53,209,251.32,209,233.86Z" transform="translate(0 0)"/><path d="M64.6,73.86c-3.09-.55-2.31-2.79-1.85-4.64a48.75,48.75,0,0,1,6-14.31A85.58,85.58,0,0,1,89.37,32.28a26.68,26.68,0,0,1,7.82-3.91c1.55-.52,3.09-.9,4.33.55a1.15,1.15,0,0,1-1,1.16c-5.66.86-10,4-14.14,7.74A84.16,84.16,0,0,0,67.09,63a2.48,2.48,0,0,1-.9,2.33l-.65,2.61v.62l0-.69c1.08-.63.92-1.57.64-2.55A3.47,3.47,0,0,0,67.11,63c1.84-.14,2.47.65,1.73,2.36-3.76,8.82-4.82,18.1-4.59,27.83-2.5-2.73-2.21-11.44.41-19.33,0-.23-.12-.46-.16-.69a1.11,1.11,0,0,1,.07-.29Z" transform="translate(0 0)"/><path d="M252.37,232.93a13.28,13.28,0,0,1-1.9-7.71c-.13-12.55,2.26-24.8,4.32-37.11,1.25-7.55,4-15,3-22.81-.11-.91.06-1.89,2-2.57.51,4.68.9,9.23.07,13.7-3.27,17.63-6.63,35.24-6.78,53.27A20.54,20.54,0,0,1,252.37,232.93Z" transform="translate(0 0)"/><path d="M106.2,36.18c-8.23,7.09-14,15.41-20.06,24.57,3.33-1,6-2.27,8.88-1.47,1.59.43,3.19.78,3.38,2.81s-1.39,2-2.66,2.72c-2.21,1.31-4.37,1.44-7.25,1.45,1.9-2.43,4.74-2.16,6.75-3.52-3-1.88-3.49-1.7-7.79.67-2.43,1.34-4.83,2.37-5.83,5.38-.91,2.73-1.69,5.59-3.38,8.1-1.62-.9-.88-2.13-.6-3.17a43.09,43.09,0,0,1,5.27-12c5.2-8,10.66-15.93,17.23-23C101.53,37.24,103,35.58,106.2,36.18Z" transform="translate(0 0)"/><path d="M138.06,352.69c4.15,2.72,7.8,1.28,11.41-1.2,9.8-6.73,13.93-16.84,16.42-27.83,1-4.27,1.21-8.69,1.84-13,.27-1.9,0-4,1.5-5.7,1.61,1.56,1.1,3.39,1,5a80.17,80.17,0,0,1-7,28.56,34.34,34.34,0,0,1-14.14,15.83C144.47,357,142.26,356.68,138.06,352.69Z" transform="translate(0 0)"/><path d="M344,91.08c-6.5.57-13.08.52-19,4-.86.51-2.87,1.77-3.55-.64-.44-1.57-.54-3.16,1.42-4,6.07-2.58,12.11-5,19-4.81,2.63.08,4.66,2,7.43,1.55,1-.17,2.13,1.66,1.87,3.09-.33,1.86-1.69.94-2.82.81A38.89,38.89,0,0,0,344,91.08Z" transform="translate(0 0)"/><path d="M235.91,186.63a3.58,3.58,0,0,1,1.6,3.54c.16,13.32,3.31,26,7.85,38.45.61,1.68,2.4,4.53.32,5.26s-2.43-2.55-3-4.27c-3.66-10.67-7.27-21.36-7.71-32.82A31.75,31.75,0,0,1,235.91,186.63Z" transform="translate(0 0)"/><path d="M99.05,35.39c-1.78-.89-2.72.55-3.78,1.45C87,43.84,80.31,52,76.79,62.4c-.31,1-.39,2.13-1.94,2.92-.61-1.66,0-3,.52-4.41,4.18-10.82,11.1-19.63,20-27,2.37-2,3-1.92,8-1A206.44,206.44,0,0,0,82.53,55.45c4-8,9.84-14.44,16.59-20.14L99,35.12Z" transform="translate(0 0)"/><path d="M68.08,122.62c-2.53-4.12-2.46-8.31-1.67-12.49,2.07-11,6.67-21,12.07-30.67,1.45-2.58,2.68-5.29,4.36-8.66,1.11,3.63-.32,5.94-1.48,8.18a170.34,170.34,0,0,0-8.71,18.37c-2.65,7-4.42,14.2-3.61,21.81C69.15,120.15,69.59,121.26,68.08,122.62Z" transform="translate(0 0)"/><path d="M133,357.1c4.61,3.11,9.11,6.4,13.84,9.29,13.38,8.18,27.63,10.48,42.81,5.93,1.4-.42,2.83-.71,4.26-1,.3-.06.67.2,1.1.34-17.38,9.74-43.69,5.06-61.92-14.65Z" transform="translate(0 0)"/><path d="M67.86,96.68c-.13-1.12-.4-1.74-.21-2.12,3-6.1.9-12.35.69-18.55-.12-3.19-.4-6.55,2.56-9.69.6,4.72-.73,9,.91,13.94.56-2.85.86-4.92,1.4-6.93s1-4.14,2.8-5.58C76.62,74.53,72,91.59,67.86,96.68Z" transform="translate(0 0)"/><path d="M151.2,66c1.12,1.35,1.86,2.28,2.65,3.16s.62,1.72-.23,2c-3,.81-4.58,3.38-7.12,5.54a5.79,5.79,0,0,1,2.3-5.93c.67-.57,2.53-1,1.45-2.19-1.23-1.35-2,.38-2.74,1.18-.43.46-.82,1-1.59,1.85-.61-3.87,2-5.65,3.69-8.27-1.43-.67-3.78-.83-2.77-3.44.89-2.32-.09-5.85,4.08-5.88,1,0,2.18-.36,2.85.81s.67,2.24-.34,2.88a2.92,2.92,0,0,0-.6,4.47C155.63,64.8,153.05,65.17,151.2,66Z" transform="translate(0 0)"/><path d="M247.4,146.78c.53,12.14-.85,24.16-.39,36.28l-1.8-.08A148.55,148.55,0,0,1,247.4,146.78Z" transform="translate(0 0)"/><path d="M210.27,157c-1.22,3.08-4.24,4.28-6.66,6a48.33,48.33,0,0,1-24.47,8.86c-1.52.12-3.16.61-5.67-1.5,14.25-.84,25.79-6.49,36.9-13.25Z" transform="translate(0 0)"/><path d="M212.24,169.36c-1-1.14-.21-2.29.16-3.29,2.29-6.12,5.95-11.5,9.29-17,.54-.9,1.29-1.86,2.54-1.12.7.42.44,1.17.1,1.77q-5.66,9.77-11.35,19.52C212.9,169.33,212.52,169.3,212.24,169.36Z" transform="translate(0 0)"/><path d="M164.9,78.64c.63-1.83,4.21-1,3-3.06-1.26-2.2-3.74,0-5.8.12,3.3-2.66,10.61-3.16,13.19-.62.67.66,1,2.91-.25,3.77C173.27,80.1,168.28,79.76,164.9,78.64Z" transform="translate(0 0)"/><path d="M189.45,76.31c3.51,1.79,7.11-.2,9.84,2.61-2.28.82-5-.32-6.54,2.2-.34.58-6.73-3.26-7-4.23-.4-1.45.62-1.85,1.68-2.17a18.67,18.67,0,0,1,13.69,1.15C197.52,76.38,193.82,74,189.45,76.31Z" transform="translate(0 0)"/><path d="M172.11,107.8c2.95-4,13-4.42,18.77-.87C184.56,105.84,178.3,105.76,172.11,107.8Z" transform="translate(0 0)"/><path d="M165.72,120.86c-.07-3.61,2.59-6,4-8.88a1.4,1.4,0,0,1,2-.64,1.27,1.27,0,0,1,.18,1.8c-2,3.24-4.37,6.31-3.74,10.5a.85.85,0,0,1-1,1,1.77,1.77,0,0,1-1.07-1A17.76,17.76,0,0,1,165.72,120.86Z" transform="translate(0 0)"/><path d="M189.92,45.45c4.5-1.67,6.31-7,11.54-8.71C199.59,42.47,194.11,46.59,189.92,45.45Z" transform="translate(0 0)"/><path d="M162.39,121.12c0-2.87-4.12-4.34-2.45-7.67.46-.91.55-2.08,1.9-2.23-.07,2.13,3.72.84,3,3.26C164.24,116.68,164.5,119.21,162.39,121.12Z" transform="translate(0 0)"/><path d="M102.29,104.27c5.76.13,10.56-2.52,15.94-5.38C115.18,104.18,106.64,106.94,102.29,104.27Z" transform="translate(0 0)"/><path d="M97.49,89c4-4.17,12.05-4.51,15.71-.64A34.07,34.07,0,0,0,97.49,89Z" transform="translate(0 0)"/><path d="M149.57,51.49c1-2.05,3.56-2.26,3.6-4.66,0-.73,1.58-.59,2.49-.26,1.15.41,2.31.93,2.54,2.26s-1,1.43-1.72,1.91A7.47,7.47,0,0,1,149.57,51.49Z" transform="translate(0 0)"/><path d="M199.19,112a1.69,1.69,0,0,1,1.41,1.57c.12.8-3.3,5.12-3.9,5a2.08,2.08,0,0,1-1.49-2.08C195.11,115,197.78,112,199.19,112Z" transform="translate(0 0)"/><path d="M155.39,103.55c-4.26.33-1-2.62-1.55-3.91a1.52,1.52,0,0,1,2.12-1.8c1.83.83,2.13,2.44.95,4.18l.11-.08-.9.91.09-.1c-.3.3-.6.61-.91.91Z" transform="translate(0 0)"/><path d="M228.29,142.35c1.3-1.34,2.53-.84,3.61-.61,1.35.3,3.93-.39,3.56,1.74-.29,1.69-2.69.79-4.17.64A3.48,3.48,0,0,1,228.29,142.35Z" transform="translate(0 0)"/><path d="M337.17,98.54c-.67,1.61-2.54,1.44-3.79,2.2-.63.38-1.18-.4-1.26-1.08-.19-1.76,1.11-2.2,2.43-2.44C335.59,97,336.68,97.09,337.17,98.54Z" transform="translate(0 0)"/><path d="M118.93,151.78c1.48,2.68.2,5.06-.83,7.47Z" transform="translate(0 0)"/><path d="M129.45,123.92c-2.89-2-4-3.83-4-6.41C127.53,118.67,128.65,120.51,129.45,123.92Z" transform="translate(0 0)"/><path d="M201.09,121.17c0,.91-.2,1.79-1.23,1.72-1.33-.09-1.58-1.24-1.64-2.31-.05-.81.17-1.67,1.23-1.62C200.86,119,200.94,120.2,201.09,121.17Z" transform="translate(0 0)"/><path d="M201.79,108.61c1,.35,1.85.91,1.89,2.11a1.06,1.06,0,0,1-1.29,1.11,2.27,2.27,0,0,1-1.91-2.17C200.38,108.89,200.91,108.5,201.79,108.61Z" transform="translate(0 0)"/><path d="M190.84,84.15c-2.63-.47-3.5-1.34-3.21-3.47C189.48,81,190.12,82.11,190.84,84.15Z" transform="translate(0 0)"/><path d="M358.36,37.21c-.07-.85.29-1.38,1.06-1.31a2,2,0,0,1,1.89,1.66.92.92,0,0,1-1.05,1.21A2,2,0,0,1,358.36,37.21Z" transform="translate(0 0)"/><path d="M355.14,38.65c.93,0,1.63.42,1.75,1.31a1,1,0,0,1-1.17,1.16,1.6,1.6,0,0,1-1.54-1.5C354.11,38.94,354.69,38.81,355.14,38.65Z" transform="translate(0 0)"/><path d="M132.2,355.94c-1.52-.06-2.13-1.36-3.66-2.69a7.42,7.42,0,0,1,3.58,2.79Z" transform="translate(0 0)"/><path d="M210.37,157.08l2.54-2.33a2.34,2.34,0,0,1-2.64,2.25Z" transform="translate(0 0)"/><path d="M204.77,104.46c.62-.6-.34-2,1-2.16a.88.88,0,0,1,1,.94c-.16,1.28-1.36.84-2.14,1.1Z" transform="translate(0 0)"/><path d="M154.62,95.32a4.49,4.49,0,0,1-1.07.81c-.42.17-.78-.16-.6-.62a1.79,1.79,0,0,1,.8-.76C154.1,94.56,154.48,94.6,154.62,95.32Z" transform="translate(0 0)"/><path d="M184.67,95.67c.27.41.61.7.58,1a.89.89,0,0,1-.71.54.9.9,0,0,1-.59-.69C184,96.25,184.34,96,184.67,95.67Z" transform="translate(0 0)"/><path d="M364.67,36.8c-.1.46-.36.74-.82.57a.75.75,0,0,1-.41-.57.59.59,0,0,1,.81-.58C364.43,36.27,364.54,36.61,364.67,36.8Z" transform="translate(0 0)"/><path d="M335.56,84.14c-.43.32-.72.71-1,.7s-.51-.44-.76-.68c.25-.24.5-.64.77-.67S335.14,83.84,335.56,84.14Z" transform="translate(0 0)"/><path d="M177.32,96.88c-.34-.31-.76-.51-.83-.79a.73.73,0,0,1,.85-1,1.05,1.05,0,0,1,.69.77C178,96.2,177.63,96.49,177.32,96.88Z" transform="translate(0 0)"/><path d="M328.34,85.79a4,4,0,0,1-.92.46c-.08,0-.41-.5-.38-.53a2.58,2.58,0,0,1,.8-.56C327.9,85.13,328.12,85.5,328.34,85.79Z" transform="translate(0 0)"/><path d="M102.9,77.23c-.15.18-.28.48-.46.51-.47.09-.73-.2-.59-.65a.69.69,0,0,1,.58-.34C102.6,76.76,102.74,77.05,102.9,77.23Z" transform="translate(0 0)"/><path d="M173.24,81.94l-.09-.26c.08,0,.19-.08.24-.05s.06.16.09.24Z" transform="translate(0 0)"/><path d="M132.12,356l.88,1.06.09-.08-.89-1.08Z" transform="translate(0 0)"/><path d="M375.07,257.93c-1.23-1.43-.57-3-.31-4.5,1.88-10.52,5.53-20.51,9.08-30.52a177.87,177.87,0,0,0,5.68-19.08c3.45-14.9,9.34-29.05,13.69-43.68A2.38,2.38,0,0,1,405,158.3c1.53,2.17.18,4.26-.42,6.22-3.6,11.8-8.11,23.4-10.8,35.41-4.22,18.87-12.37,36.5-16.7,55.3C376.82,256.24,376.73,257.69,375.07,257.93Z" transform="translate(0 0)"/><path d="M320.45,491.5c-2.56,3.17-1.69,7.07-1.19,11.49.36,3.25-.95,6.73,1.15,10a4.62,4.62,0,0,1,.08,3.13c-1.3,5.83-.52,11.52.37,17.34,1.09,7.09.89,14.33,1.89,21.46q3.5,24.88,5.81,49.92a54.67,54.67,0,0,1-.15,9.57c-.56,6.41-3.29,11.44-9.56,14a16.77,16.77,0,0,0-7.81,7.16c-1.34,2.21-2.46,1.86-4.14.71-3.7-2.53-6.41-6-7-10.29-.59-4-2.53-7-5-9.74-3-3.35-3.87-6.85-2-11a12.61,12.61,0,0,0-.53-11.52c-.31-.58-.86-1.42-.66-1.84,2.7-5.6-.68-12.09,2.74-17.61,4.77-7.67,6.67-16.14,6.79-25.12.09-7.52,2.87-14.6,3.94-22,.92-6.31,2-12.6,2.85-18.92a33.59,33.59,0,0,0-.65-12.31c-.86-3.63-2-7.21-.23-10.91a2.51,2.51,0,0,0-.37-2.28c-5.58-10.16-3.64-20.46-.51-30.77.38-1.22.93-2.2,2.4-2.29s2.14,1,2.44,2.16q4.65,18.79,9.21,37.6A15.88,15.88,0,0,1,320.45,491.5Zm-12.54-35c-1.15,5.82-1.74,10.77-1.26,15.75.59,6.26,5.35,11.89,2.85,18.67-.2.52.25,1.28.42,1.93,1.81,6.95,1.44,13.88.52,21-1.56,12-4.88,23.74-6.05,35.79-.77,8-1.4,15.94-5.55,23.07-2.1,3.62-3.87,7.21-2.64,11.64a6.72,6.72,0,0,1-.75,4.66,4.42,4.42,0,0,0,0,4.22c2.41,4.58,2.16,9.25.31,13.88-.92,2.31-.3,3.92,1.18,5.78,3,3.8,6.52,7.38,6.33,12.92-.06,1.75,1.32,3.43,2.44,4.94,1.41,1.91,2.75,2.28,4.41.24a17.47,17.47,0,0,1,7.12-5.63c4.75-1.84,7.05-5.64,7.51-10.43a76.2,76.2,0,0,0-.17-16.74c-2-16.63-3.92-33.28-6.05-49.9-1-8,.4-16.16-2.12-24a10.86,10.86,0,0,1,.15-5.15c.57-2.92,1.07-5.64-1-8.36-1.12-1.52-.9-3.68-.17-5.42a5.11,5.11,0,0,0-.66-5.55c-1.38-1.9-1.59-4,.31-5.77s1.87-3.65,1.32-5.85c-1.72-7-3.34-14-5.12-20.93C310.41,463.89,310.21,460.4,307.91,456.46Z" transform="translate(0 0)"/><path d="M375.74,586.06c-.56,9.25,2.31,18.2.89,27.26-.85,5.44-1.18,10.55,1.3,15.9,1.5,3.24.86,7.31-1.46,10.67-2.94,4.27-5.69,8.68-8.64,13-.89,1.28-2.1,2.69-3.95,2.11-2.12-.68-1.5-2.64-1.31-4.11.9-6.7-1.3-13.08-1.82-19.64-.12-1.52-1.58-2-2.6-2.84-4.09-3.28-4.14-7.13-.34-10.82,1.69-1.66,1.91-4,1.82-6.3-1.39-34.16-1.73-68.36-3.62-102.5-.11-2-1.27-5.06.86-5.77,2.82-1,3.06,2.61,4.24,4.33,1.42,2.08,2.53,4.37,3.86,6.52,2,3.28,3.14,6.63,2.2,10.61-.68,2.88.19,5.77.93,8.63C372.64,550.5,375.69,568.16,375.74,586.06Zm-10.66,63,1.25.35c2-3.22,3.89-6.54,6.09-9.63,3.05-4.3,3-8.63.7-13.14a11.43,11.43,0,0,1-1-8.09,55.57,55.57,0,0,0,.48-19.84,88.09,88.09,0,0,1-.78-11.93,206.19,206.19,0,0,0-7.35-54,21.07,21.07,0,0,1-.59-9.84c.79-3.9-1.06-6.78-3.7-9.5-.16,5.94.23,11.83.37,17.71q1,41.28,1.86,82.57c.05,2.32-.35,4.58-2.06,6.24-3.06,3-3.1,3.82.26,6.56,1.46,1.19,2.95,2.34,3,4.44C364,637,366.4,642.83,365.08,649Z" transform="translate(0 0)"/><path d="M276.39,271.18c3,1.94,2.28,5.21,4.25,7.29,2.69-3.24,5.57-6.14,9.47-7.72,1.16-.47,2.67-1.57,3.51,0,.7,1.28-.85,2.07-1.82,2.62a44,44,0,0,0-8.57,6.4c-1.86,1.78-3.93,1.37-5.06-.53A11.08,11.08,0,0,1,276.39,271.18Z" transform="translate(0 0)"/><path d="M295.42,268.59c-.23-3.37.95-5.89,2.78-8.54C299.29,263.2,298.44,265.76,295.42,268.59Z" transform="translate(0 0)"/><path d="M276,95a3,3,0,0,1-1.68,2.93,3.38,3.38,0,0,1-3.76-.45c-1.78-1.38-3.39-3-5.21-4.33-1.59-1.16-3.26-1.89-4.58.6-.71,1.34-1.82,2.37-3.58,1.37s-2.53.92-3.78,1.43-2.34.91-3.21-.33.06-2,.82-2.76c1.13-1.13,2.35-2.16,3.5-3.26a15.88,15.88,0,0,0,3.67-5.24c1.41-3.11,1.39,2.88,4.47,2.15,4.46-1.07,8.4,1.66,11.69,4.82A4.41,4.41,0,0,1,276,95Z" transform="translate(0 0)"/><path d="M260.65,111.91c.07-2.46.25-2.61,2.25-1.85.37.14.78.48,1,.12,2.39-3.48,6.79-2.28,9.84-4.24a2.66,2.66,0,0,0,1.26-1.87c.2-1,.12-2.66,1.39-2.38a4,4,0,0,1,2.91,3.39c.18,1.27.07,3.24-1.36,3.36-3.37.3-5.49,2.53-8.07,4.13-.89.56-2.37,2.6-3.75,0-.5-1-1.23.25-1.59.9a2.26,2.26,0,0,1-2.68,1.19C260.28,114.18,261,112.62,260.65,111.91Z" transform="translate(0 0)"/><path d="M283.9,100.29c0,1.26.37,3-1.56,2.89-2.62-.19-2.43-2.71-2.85-4.52-.24-1.08-.38-2.64,1.39-2.58C283.51,96.17,283.87,98.17,283.9,100.29Z" transform="translate(0 0)"/><path d="M287.19,90c0,1.09.51,2.43-1.19,2.68-.28,0-.91-.61-.95-1-.2-1.76,1-1.75,2.24-1.59Z" transform="translate(0 0)"/><path d="M338.58,67.48a4.92,4.92,0,0,1,5.15-2.2,1.53,1.53,0,0,1,1.44,2,1.37,1.37,0,0,1-2.14,1A5.5,5.5,0,0,0,338.58,67.48Z" transform="translate(0 0)"/><path d="M317.19,70.65c1.25-2.14,2.87-2.66,4.82-2A1.67,1.67,0,0,1,323,71c-.32.93-1.22,1.26-1.87.68C320,70.61,318.56,71.68,317.19,70.65Z" transform="translate(0 0)"/><path d="M430,5V680.71H40V5H430m5-5H35V685.71H435V0Z" transform="translate(0 0)"/></g><rect x="4" y="493.09" width="462" height="81.49" transform="translate(-20.6 9.55) rotate(-2.23)"/><path class="cls-3" d="M461.84,486.72l3,76.45L8.16,581l-3-76.45,456.66-17.79m4.79-5.18L0,499.72l3.37,86.42L470,568l-3.37-86.42Z" transform="translate(0 0)"/><path class="cls-3" d="M145.16,515.56c-.32-1.73-.21-3.8-1.72-4.95a9.61,9.61,0,0,0-5.5-1.42c-4.85-.05-9.78,1.77-14,3.95a.36.36,0,0,0-.17.43.91.91,0,0,0-1.55.58q-.83,13.46-1.11,26.93a1.08,1.08,0,0,0-.47.9c0,3.39.16,6.79.34,10.19,0,1.87,0,3.75,0,5.62a.9.9,0,0,0-.23.7c.06.89.15,1.78.25,2.66,0,2.11.05,4.21.09,6.32a.84.84,0,0,0,1.19.79.79.79,0,0,0,.86.26l.22-.07.16.39a.27.27,0,0,0,.52-.17c0-.14-.06-.27-.09-.39,3.61-1.18,6.72-3.53,9.62-5.94,1.61-1.34,3.45-2.91,4.31-4.87a.38.38,0,0,0,.51-.13c3.63-5.07-.78-12.22-3.79-16.51a29.19,29.19,0,0,0-5.76-6.57c3.71-2.48,7.38-5.18,10.83-7.94a28.3,28.3,0,0,0,4.78-4.56C145.85,519.9,145.54,517.73,145.16,515.56Zm-3.09,2.25c-.42,4.07-3.6,6.69-6.46,9.3-2.49,2.27-5.16,4.3-7.7,6.5-1-.67-2.17-1.44-3.37-1a.59.59,0,0,0-1.08.15,7,7,0,0,0-.16,2.77.84.84,0,0,0,1.65.16c0-.07,0-.13,0-.18,7,4.26,12.84,10.58,12.69,19a.75.75,0,0,0-.66.48,10.06,10.06,0,0,1-2,3.34h-.09c-1.66.18-2.94,1.19-4.35,2-1.76,1-3.54,2.06-5.31,3.1a1.08,1.08,0,0,0-.3.26,3.18,3.18,0,0,0-1.23.66c-.14-4.87-.23-9.76-.43-14.64a1,1,0,0,0,.28-.7,37,37,0,0,0-.71-7.12q.23-13.9,1-27.81a.77.77,0,0,0,0-.27.33.33,0,0,0,.41.09,34.72,34.72,0,0,1,12.22-3.36c1.7-.12,5.6-.32,6,1.84A23.6,23.6,0,0,1,142.07,517.81Z" transform="translate(0 0)"/><path class="cls-3" d="M163.11,514c-.12-.73-.24-1.4-.4-2.13a1.15,1.15,0,0,0-2.18.06,1.42,1.42,0,0,0-.83,1c-.12.68-.23,1.37-.33,2.05a123.3,123.3,0,0,0-8.71,12.13c-1.13,1.94-2.19,3.92-3.18,5.92a1.88,1.88,0,0,0-.64,1.2,7.56,7.56,0,0,0-.65.85.71.71,0,0,0,0,.74q-1.59,3.48-2.92,7.1c-.22.61.83,1,1.08.4,1-2.43,2-4.84,3.18-7.2l.29-.21a.55.55,0,0,0,.39-.12l.39-.3a4,4,0,0,1,2.14-.28c.59.07,1.15.37,1.78.42,1.12.09,2.15,0,3.15,0l2.73.77.09,3.29c.29,9.13,1,18.25,2.14,27.32.15,1.91,3.1,1.81,3-.13-.33-6.08-.81-12.14-1.19-18.22.33-10.69,1.69-21.45.06-32.06,0-.48.06-1,.08-1.42A1.13,1.13,0,0,0,163.11,514Zm-4.77,20.16a11.52,11.52,0,0,0-4-.63l-.74-.17a21.88,21.88,0,0,0-4.22-.93q1.15-2.17,2.38-4.29a102.67,102.67,0,0,1,7.38-11.45A122.7,122.7,0,0,0,158.34,534.15Z" transform="translate(0 0)"/><path class="cls-3" d="M195.13,544.53a1.4,1.4,0,0,0,0-1.62,19.56,19.56,0,0,0-11.86-7.76,17,17,0,0,0-5.23-.28,61.83,61.83,0,0,0,13.1-15,.75.75,0,0,0,.06-.13,24.05,24.05,0,0,0,3.68-10.29c.2-2.15.32-5.49-1.09-7.32-1.28-1.66-3.47-.87-5.2-.48a51.4,51.4,0,0,0-17.34,7.27.29.29,0,0,0-.12-.18c-.41-.31-1,0-1.37.32a2.07,2.07,0,0,0-.38.49.49.49,0,0,0-.4.52c1.1,9,2.42,17.91,3.29,26.92a2.23,2.23,0,0,0-.23.63.78.78,0,0,0,.3.79,13.86,13.86,0,0,0,.54,5.31,188,188,0,0,1,.86,25.86c-.06,1.09,1.55,1.12,1.83.17.14-.49.27-1,.4-1.47a1.08,1.08,0,0,0,1.09.46l2-.22a1.41,1.41,0,0,0,.31-.08,27.15,27.15,0,0,0,9.73-3.46c3.5-2.1,7.34-5.41,8.37-9.51C198.33,552,196.86,547.87,195.13,544.53Zm-21.61-10.88A212.26,212.26,0,0,0,170,510.08l.37-.27.09-.06a.44.44,0,0,0,.66.29,63.3,63.3,0,0,1,13.76-6.27c2.2-.66,6.59-2.56,8.27-.34.68.9.59,2.9.6,4a17.48,17.48,0,0,1-.47,4.21,24.24,24.24,0,0,1-2.85,6.89l-1.22-.13a1,1,0,0,0-1,.47,41,41,0,0,1-12.36,13.77.39.39,0,0,0-.1-.08,1.17,1.17,0,0,0-1.54.16Zm19.83,22.68c-3.06,5.52-10.4,9.1-16.44,9.81a1.23,1.23,0,0,0-.49.16,38.19,38.19,0,0,0,.79-12.64c-.31-2.71-.74-5.4-1.11-8.1-.34-2.48-.26-5.62-1.6-7.77a.58.58,0,0,0-.11-.15c.33-.23.65-.47,1-.71a18.88,18.88,0,0,1,4.42.19,24.42,24.42,0,0,1,3.14.68,1.85,1.85,0,0,0,1.2,1.76,21.18,21.18,0,0,1,5.89,3.12,15,15,0,0,1,1.9,3.13C193.38,549,195.18,553,193.35,556.33Z" transform="translate(0 0)"/><path class="cls-3" d="M225.31,503.36c-2.72,3.81-4,8.8-6.18,12.94-1.52,2.86-3.58,5.43-5.12,8.28A29.17,29.17,0,0,0,211.6,518c-.37-.78-.73-1.56-1.09-2.34s-.52-1.54-.81-2.3c-1.4-3.65-3-7.53-5.4-10.63-.82-1.05-2.78-.36-2.26,1.07.64,1.75,1.39,3.46,2.14,5.17a1.15,1.15,0,0,0,.08,1.1,53.77,53.77,0,0,0,3,6.82c.85,2.7,1.59,5.43,2.67,8a26.67,26.67,0,0,0,.83,12.29c-.14,1.27-.26,2.53-.37,3.78a71.48,71.48,0,0,0-3.3,23.36c0,.19.28.17.29,0a115.74,115.74,0,0,1,1.9-15.91,19.19,19.19,0,0,0,.19,5.53.18.18,0,0,0,.09.14,31.06,31.06,0,0,0,.35,3.9c.1.62,1.13.87,1.21.11.14-1.15.22-2.32.27-3.49a11.22,11.22,0,0,0,.18,1.33.32.32,0,0,0,.61,0,27.85,27.85,0,0,0-.14-4.74.36.36,0,0,0-.54-.29c.05-2.58.07-5.17.31-7.73.14-1.43.27-2.89.43-4.37a.76.76,0,0,0,.35-.57c0-.57,0-1.14-.08-1.71.11-.77.22-1.53.35-2.29a39,39,0,0,1,3.53-8.64.39.39,0,0,0-.09-.51c.64-.82,1.33-1.62,2-2.48a35.37,35.37,0,0,0,3.47-5.42c1.12-2.1,2.06-4.3,3-6.49a32.74,32.74,0,0,0,2.49-6.34C227.47,503.37,226,502.38,225.31,503.36Z" transform="translate(0 0)"/><path class="cls-3" d="M324.65,518.07l0,0a2.61,2.61,0,0,0-.1-.57.58.58,0,0,0-.42-.41.47.47,0,0,0,.06-.15c.31-1.33-.57-3-1-4.26a.74.74,0,0,0-1.41.45c.25,1.32.35,3.15,1.3,4.16a.5.5,0,0,0,.29.16.69.69,0,0,0,0,.32.35.35,0,0,0-.2.36l.14,1c0,.11,0,.22.05.32a7.19,7.19,0,0,0,.56,2.7.19.19,0,0,0,.33-.06,6.54,6.54,0,0,0-.12-1.53c0-.17-.05-.34-.07-.51a.27.27,0,0,0,.14-.14.55.55,0,0,0,.05-.17.66.66,0,0,0,.71-.64A4.77,4.77,0,0,0,324.65,518.07Z" transform="translate(0 0)"/><path class="cls-3" d="M257.23,520a24.4,24.4,0,0,0-1.4-7.9c0-.24-.07-.48-.11-.71a.75.75,0,0,0-.44-.57,1.73,1.73,0,0,0-.14-.31c-.58-1.19-2.23-.2-2,.93.7,3.07.48,6.54.74,9.67.22,2.7.44,5.43.82,8.12.15,4,.17,8.1,0,12.16a84.44,84.44,0,0,1-1.22,12c-.4,2.2-1,7.83-3,10.63-1.87-.28-3.59,1.26-5.59,1.09-3.14-.28-4.89-2.28-7.24-4-.12-.09-.32,0-.22.18l.44.58a.59.59,0,0,0-.25.27,16,16,0,0,0-1.39-1.22.15.15,0,0,0-.23.2,8.2,8.2,0,0,0,2.58,2.71c2.7,3,6.78,4.74,10.84,3.35,5.69-2,6-7.45,6.49-12.62.68-7,1.29-14,1.43-21.05a114.2,114.2,0,0,0-.49-12.54A1.22,1.22,0,0,0,257.23,520Zm-3.4,36.28a22.79,22.79,0,0,1-1.8,5.23c.12-.3.24-.61.34-.89C252.9,559.15,253.39,557.7,253.83,556.25Zm-6.06,9.81.3-.13a3.19,3.19,0,0,0,1.28-.47,2.75,2.75,0,0,1,.73-.11A6.81,6.81,0,0,1,247.77,566.06Z" transform="translate(0 0)"/><path class="cls-3" d="M282.72,511.71c-2.41-1.3-5.93-.75-8.59-.72a79.43,79.43,0,0,0-9.5.71c-.08-.39-.7-.31-.74.13a190.14,190.14,0,0,0-.76,27.21,94.77,94.77,0,0,0,1.55,12.69,61.51,61.51,0,0,0,1.57,6q.86,3.48,2,6.89c.26,1.07,1.8.74,1.92-.18,3.85-1.55,7.74-3,11.57-4.62a.36.36,0,0,0-.22-.68A36.58,36.58,0,0,0,270,563.64a90.27,90.27,0,0,1-4.13-23.21c1.49-.15,3-.37,4.48-.41,1.93,0,3.86.12,5.79.07.66,0,1-1.05.3-1.33a17.31,17.31,0,0,0-10.64-.63c0-2.48,0-5,.18-7.46a1,1,0,0,0-1.75-.68c0-5.92.23-11.85.41-17.76,3.26.18,6.52.46,9.76.8,2.59.27,5.61,1.34,8.15.64A1.08,1.08,0,0,0,282.72,511.71Z" transform="translate(0 0)"/><path class="cls-3" d="M301.18,526.71a32.67,32.67,0,0,0-8.75-5.08c-1.38-.51-2.79-1-4.15-1.55-1.19-.52-3.73-1.62-4.13-3-.59-2,2.37-3.4,4-4a12.9,12.9,0,0,1,4.53-.7,12.52,12.52,0,0,1,9,3.85c.42.45,1.09-.25.67-.71a13.89,13.89,0,0,0-12.7-3.87c-2.18.42-4.81,1.42-6.27,3.11-1.64,1.88-.19,3.83,1.46,5.13,2.1,1.66,4.71,2.48,7.16,3.53a33.63,33.63,0,0,1,8.46,5.6c.25.2.49.41.74.63,1.37,2.36,2.81,4.6,3.31,7.25a12.32,12.32,0,0,1,.13,4c-.22.73-.39,1.47-.58,2.21a7.92,7.92,0,0,1-1.21.55c-3.72,1.28-8.1.11-11.87-.4-1.83-.25-3.79-.33-5.58-.76-.86-.21-.92-.17-.88-1s.48-1.18,1.19-1.77a18.53,18.53,0,0,1,2.66-1.8c.74-.42,0-1.48-.71-1.07-1.72.95-6.12,3.32-5,5.76a3.79,3.79,0,0,0,2.28,1.65,39.31,39.31,0,0,0,5.49,1.13c4.13.78,10,2.22,14.28.53a1.35,1.35,0,0,0,1.24-.62,7.37,7.37,0,0,0,2.79-3.08C311.81,536,305.76,530.24,301.18,526.71Z" transform="translate(0 0)"/><path class="cls-3" d="M324.63,522.74a.21.21,0,0,0-.41.07c.45,3.83,1.18,8,.46,11.84a6.66,6.66,0,0,1-4.39,5.45c-2.32.72-4-.75-5-2.66-1.67-3-2.23-6.82-2.91-10.15-.81-3.92-1.2-7.9-1.95-11.83-.24-1.25-2.18-.81-2.15.39.11,5.36,1.44,10.89,2.8,16,.87,3.29,1.88,8.32,5.81,9.27,3.5.84,6.41-1.42,7.73-4.51C326.4,532.4,325.69,527.11,324.63,522.74Z" transform="translate(0 0)"/><path class="cls-3" d="M343.92,509.81c-2.25-2.84-4.79-5.4-7.22-8.08-2.12-2.34-3.17-6-6.67-6.62a2,2,0,0,0-1.91.6c-2.67,3.3-2.09,9.69-.41,13.31a19.49,19.49,0,0,0,4.06,5.75c2.07,2,6.73,4.21,7.06,7.32.66,6.19-4.26,12.28-7.81,16.8-1.75,2.22-3.83,5.57-6.41,6.88-2.19,1.11-3.49-.53-4.77-2.31a28.8,28.8,0,0,0-2.67-3.68c-.65-.65-1.52.12-1.37.87.54,2.58,3.24,7,5.76,8.19s5.25-1.55,6.92-3.23c5.11-5.1,10.63-12.35,12.26-19.5.63-2.77.93-5.83-1.17-8-3.11-3.23-7.39-5-9.13-9.46a15.78,15.78,0,0,1-1.09-6.59c0-.8,0-2.48.73-2.6.4-.06,1.6,1,2,1.29,4.08,2.74,7.12,6.63,10.64,10.05C343.36,511.38,344.46,510.5,343.92,509.81Z" transform="translate(0 0)"/></g></g></svg>