<svg xmlns="http://www.w3.org/2000/svg" xmlns:xlink="http://www.w3.org/1999/xlink" viewBox="0 0 470 686.54"><defs><style>.cls-1{fill:none;}.cls-2{clip-path:url(#clip-path);}.cls-3{fill:#fff;}</style><clipPath id="clip-path" transform="translate(0 0)"><rect class="cls-1" x="35" width="400" height="685.71"/></clipPath></defs><title>T_cm_b2_illu_linn</title><g id="Layer_2" data-name="Layer 2"><g id="Layer_16" data-name="Layer 16"><g class="cls-2"><path d="M436.25,402.5C418.13,397,400.58,390.05,384,380.79c-1.32-.74-2.43-2-4.55-1.86,3.63,14.24,4.89,28.78,8.8,42.91,3.51,12.65,5.31,25.77,8.06,38.65,5.79,27.05,10.21,54.43,18.55,80.89,2.39,7.6,5.53,15,8.35,22.45,2.38,6.32,1.06,9.42-5.26,11.79-7.36,2.76-15.17,3.12-22.84,3.27-9.46.19-18.84,1.77-28.3,1.46-2.3-.08-2.55,1.3-3,2.88-2.27,8.21-4.4,16.47-6.9,24.61A199.25,199.25,0,0,1,344.31,638a20.49,20.49,0,0,0-2.09,9.62c.15,11.79,2.13,23.31,4.68,34.77.24,1.09,2.29,3.27-.72,3.7-2.09.29-4.3.76-5.13-2.65a171.34,171.34,0,0,1-4.19-22.34c-.16-1.43.1-2.94-.8-4.51-2.22,1.17-2.53,3.61-3.69,5.38-1.3,2-2.13,4.31-3.44,6.3-3.23,4.9-3.73,9.8-.63,14.94a3.07,3.07,0,0,1,.35,3c-3.46,0-7,0-10.61,0-1.49,0-2.43-.39-1.84-2.05,1-2.74,0-5.23-.78-7.77a134.61,134.61,0,0,1-3.85-17.91c-3.29,8.89-7.18,17.55-6.06,27.71-1,0-2.16-.08-3.33,0-2.51.22-3.58-.31-4.4-3.29-1.35-4.9-4.1-9.41-6.57-14.77a27.45,27.45,0,0,0-3.87,13.9c0,1.36,1.2,3.89-1.14,3.94-2.75.06-6.22,1.91-8.29-1.68-8.33-14.42-12.2-29.31-8.28-46.26a166.46,166.46,0,0,1,20.48-50.42,179.81,179.81,0,0,0,13.78-27A29.79,29.79,0,0,0,306.2,549c-2.51,5.39-4.91,10.83-7.54,16.15-7,14.23-15.56,27.61-23.28,41.44-13.47,24.11-15.25,49.76-9.47,76.25.68,3.09,0,3.81-2.8,3.42a7.12,7.12,0,0,0-.8,0c-6,0-5.92,0-6.85-5.75-.57-3.54-1.54-7-2.3-10.53-2.57-11.82-.67-23.3,2.76-34.65a29.34,29.34,0,0,0,1.4-6.48c-5.54,9.58-10.41,19.37-12.33,30.37-1.41,8.08-1.8,16.13.13,24.2.21.89,1.49,2.43-.72,2.77-1.44.23-2.67,0-2.84-1.89a15.51,15.51,0,0,0-.62-2.23c-.71,2.12.26,4.65-3,4.31-2.56-.27-4.47-.21-5.17-3.41-1.18-5.4-2.85-10.69-4.45-16.54-2,2.5-1.72,5-1.87,7.23-.19,3,0,6.12,0,9.18,0,3.5,0,3.52-3.45,2.34-.34-.12-.59-.52-.91,0a2.72,2.72,0,0,1-4.15.64c-1.12-1,.29-2.69.64-4,1.51-5.88,4-11.5,4.55-18-2.07.5-2.35,2.06-2.92,3.22a146.15,146.15,0,0,0-6.52,16.72c-.75,2.16-6.82,3.86-8.46,2.41-.8-.7-.19-1.47.09-2.14,1-2.4,2.08-4.77,3.59-8.18-3.11,1.64-4.74,3.41-5.3,5.39-1.47,5.21-4.92,5.89-10.16,4.71,6.73-5.33,8.51-13.2,11.72-20.41-2.47,2.46-4.92,4.92-7.39,7.37-3.68,3.67-7.33,7.36-11,11-3,2.91-3.27,2.93-8.4,2,2.57-2.63,4.89-5.33,7.53-7.66,18.14-16,30.45-35.69,38.17-58.52,7.12-21,19.35-39,34.06-55.45,6.83-7.63,13.81-15.16,19.76-23.55.81-1.13,2-2.11,2.28-4.7-1.95,2.37-3.34,4-4.71,5.71a163.17,163.17,0,0,1-43,37.19c-2.69,1.6-5.44,3.25-9.13,2.51,7.56-8.82,17.85-14.58,25.58-23.16-20.87,14.46-43.93,25.56-63.46,42a109.7,109.7,0,0,0-21.87,25.26c-1.63,2.55-3.42,5-5.29,7.71-1.77-1.77.1-3.41-.87-5.15-1.45,2.94-2.79,5.66-4.14,8.38-.29.6-.59,1.35-1.35,1.3-1.09-.09-1-1.1-1.07-1.84a25.53,25.53,0,0,1,1.84-11.33c4.06-10.83,9.51-20.85,17.48-29.31,3.74-4,6.68-8.49,9.9-12.85,5.74-7.78,13.69-13.33,21.79-18.54,10.75-6.91,21.66-13.59,32.05-21.05,2.8-2,3.38-3.11.74-6.28a62.21,62.21,0,0,1-14.85-37.59c-.13-2.79,0-5.59-.09-8.38-.05-1.17.87-3.27-.94-3.28-1.65,0-2.47,1.92-2.3,3.67.4,4.1.8,8.21,1.44,12.28a135,135,0,0,0,6.58,24.25,10.65,10.65,0,0,1,.93,5.46c-2.32-1.33-3.47-3.36-4.54-5.35-5-9.26-7.67-19.24-9.07-29.62-.15-1.16.36-2.76-.69-3.36-1.41-.81-2.33.85-3.35,1.56a214.53,214.53,0,0,1-71.29,32.23c-2.38.59-2.39.52-5.35-.15,1.75-2.29,4.25-2.85,6.51-3.68C154,518.48,170,512.1,185.37,504a144.35,144.35,0,0,0,22.54-14.37c1.6-1.27,3-2.55,3.09-4.83.79-27.9,15.41-47.64,37.19-63.22,2.87-2.06,6.1-3.72,8.27-6.73-16.08,6.31-30.29,15.77-43.68,26.49S190.2,466.47,181.7,481.2c6.51-25.62,23.38-42.88,46-56-1-.36-1.38-.65-1.65-.57-12.47,3.34-25.17,6-37.33,10.24-24.76,8.63-46.37,22-61.31,44.4-4.86,7.29-7.74,15.44-10.23,23.75a18.27,18.27,0,0,1-.91,2.64c-.44.92-.76,2.42-2,2.18-1.42-.29-1.35-1.86-1.19-3,.76-5.65,1.75-11.26,2.8-17.12-24.63,35-48.63,70.44-79.87,100.54-.26-3.64-.93-6.72,2.78-9.27,2.77-1.9,4.68-5.05,6.94-7.67a4.07,4.07,0,0,0,1.1-2.78l-10.54,8.1c-1.16-3.3-.11-5.26,2.3-7.1a215.42,215.42,0,0,0,27.85-25.13c2-2.16,3.82-4.37,3.61-8.42a390.75,390.75,0,0,1-33.65,27.15c-1.18-2.65-.18-4.11,1.57-5.67,10.15-9,20.12-18.24,30.33-27.2a25.63,25.63,0,0,0,7.94-12.14c1.38-4.5,3.25-8.85,4.42-13.56-14.85,16.85-31.82,31.71-44.3,50.69-.15-9.76-2-19.34,3.74-28.52C47,515.62,53.83,504.5,61.6,494c.85-1.15,2-2.13,2.25-3.71-1.32-.9-2.3.17-3.3.56-6.89,2.68-14.09,3.86-21.38,4.76-2.73.34-3.24-.56-3.41-3.17a10.44,10.44,0,0,1,4.06-9.63,44.67,44.67,0,0,0,11-14.4,64.5,64.5,0,0,1-14.67,6.92,16.39,16.39,0,0,1,2.06-11c8.21-15.24,15.82-30.79,23-46.56A69.22,69.22,0,0,0,64.28,410c-8.32,9.2-16.55,18.46-27.78,24.38-1.15-.67-.58-1.85-.62-2.8-.09-2.26.19-4.55-.05-6.79-2.65-24.19,7.92-43.93,21.18-62.7,5.85-8.29,12.95-15.53,20.35-22.47,14.76-13.85,27.66-29.19,37.14-47.18a132.79,132.79,0,0,0,14.11-44.69c1.64-12.23,8.29-22.21,14.27-32.46,2.61-4.47,5.87-8.56,8.9-12.78.74-1,1.69-2.71,3.06-1.81s.2,2.44-.41,3.55c-5.62,10.12-12,19.81-16.47,30.57a73.13,73.13,0,0,0-4.88,21.58c5.22-20.81,16.68-38.79,25.92-57.76,7.11-14.58,9.42-30.45,12.68-46.06,4.11-19.67,6.66-39.68,12.62-58.93,4.1-13.21,9.51-25.77,20.5-35,6.94-5.84,14.54-10.28,23.73-11.52,1-.13,2.91.44,2.71-1.39s-1.81-2-3.43-1.81c-8.82.93-16.19,4.72-22.65,10.76-14.42,13.47-23.85,29.78-29,48.79-4.15,15.44-7.16,31.12-10.27,46.78-4.1,20.62-11,40-23.27,57.28-12.75,18-18.87,38.86-25.06,59.73-6.35,21.39-17.76,40.41-30.16,58.74a40.36,40.36,0,0,1-27,17.79c-2.18.39-5.33,1.47-6.21-.68-1-2.33,2.37-2.92,4.07-3.94,5.13-3.07,10.91-5,15.57-8.91,1.92-1.61,4-3.09,5.32-5.31-.4-.2-.61-.4-.83-.41-1.32,0-3,1.77-3.87-.11-.71-1.52,1-2.58,2.08-3.51a30.29,30.29,0,0,1,4.43-3.4c7.65-4.55,11.68-11.64,14.77-19.7,8.2-21.39,11.77-43.65,12.85-66.37,1.26-26.62,2.75-53.17,7.82-79.44,4.45-23,13.67-43.85,26.43-63.33C150.41,77.17,158,65.84,168.83,57c15.91-13,33.51-22,54-25,4.31-.62,7.55-.49,10.95,3.26,4.37,4.82,9,9.47,13,14.6,3.88,4.93,3.62,9.21-1.35,12.76-20,14.28-29.1,35.07-34.84,57.85-1.5,5.93-2.41,12-3.6,18-.55,2.74-.31,4.14,3.1,2.71a68.94,68.94,0,0,1,22.08-5c3.2-.21,6.43-.22,8.86,2.53,1,1.11,2.27,2.09,1.53,3.77s-2.2,1.83-3.7,1.86c-8.7.15-16.86,2.61-25,5.38-7,2.37-10,6.5-10.45,14.15a154.79,154.79,0,0,1-13.28,54.43c-.71,1.58-1.16,3.4-2.24,4.67-5.6,6.63-4.85,13.87-3.25,21.73,2.58,12.65,2.66,25.4-1.4,37.91a50.79,50.79,0,0,1-6.63,13.58c-.71,1-1.91,1.86-1.79,3.47,1.83-.11,2.66-1.63,3.91-2.5s2.6-2.59,4.37-.47c.95,1.15,1.68,0,2.26-.58,17-17.14,38.54-26.23,60.54-34.61,20.34-7.74,39.3-17.73,54.39-34,19.91-21.43,30.36-46.29,28.05-75.9-.26-3.26-7.54-7.31-10.29-5.74-.79.44-.55,1-.49,1.69.21,2.37-.48,5.44.76,6.92s4.05-.61,6.2-.92c.8-.12,1.66-.42,2.05.56s-.28,1.51-1,1.95a20,20,0,0,1-6.62,2.69c-6.31,1.42-12.75,1.94-19.69,2.73,2.18,2.11,4.59,1.74,6.65,2.37.84.25,2.07.32,1.86,1.6-.15.91-1.15.95-2,1-3.71.14-7.36-.57-10.15-2.95-3.33-2.85,1.27-3.54,2-5.3.28-.68,2.39-.17,1.64-1.94-.25-.58-.68-1.36-1.18-1.49-1.26-.35-1.78.89-2.48,1.62s-1.12,1.5-1.81,2.11a1.69,1.69,0,0,1-2.21.1,1.55,1.55,0,0,1-.41-2.15,14,14,0,0,1,2-2.93c9.42-9.61,20.27-14.47,34.5-9.56-.78-4.48-1-8.63-2.29-12.47-1.1-3.43-5-4.37-7.86-4.24-10.12.44-19.67,3.46-28.73,8a3.2,3.2,0,0,0-1.68,2.12c-4.72,15.93-11.94,31.07-14.93,47.58-1.94,10.73-3.13,21.68-6.78,32-7.75,21.86-21.64,38.62-42.63,49-7.92,3.92-16.5,5-25.27,4.73a9.32,9.32,0,0,1-2.37-.28c-1-.29-2.49-.38-2.57-1.54-.13-1.63,1.61-1.58,2.64-1.73,3.56-.49,7.15-.69,10.71-1.14,18.75-2.36,32.38-12.88,42.94-27.74A79.76,79.76,0,0,0,263,202.12c2.72-20.69,8.46-40.61,14.66-60.45,6.25-20,5.88-40.47,2.86-60.91C278.91,69.7,273.47,61,262.16,57.21a4.37,4.37,0,0,1-2.3-1.49C255.36,48.17,247.1,45,241,39.39a30.46,30.46,0,0,1-2.41-2.1c-2.33-2.62-1.75-4.93,1.55-6.07A25.39,25.39,0,0,1,248,29.84c42.67-.86,72.17,19.75,91.67,56.45,4.63,8.7,7.38,18.32,11.79,27.07,8.45,16.77,11.28,35.14,16.62,52.79,2.35,7.78,2.93,16,3.54,24.06,1.68,22.2,3.12,44.41-1.69,66.44-.88,4-2,8-3,12-.31,1.24-1.07,2.67.62,3.5,3.88,1.9,4.22,5.62,4.59,9.16a36.08,36.08,0,0,1-.42,11.54,6.5,6.5,0,0,0,.19,3.52,35.4,35.4,0,0,1,.65,20.06,10.94,10.94,0,0,0,.35,6.83c1.53,4.24.05,8.69-.9,13-.39,1.73-.89,3.16.81,4.65s1.41,3.69,1.2,5.66q-1,8.73-2.17,17.43a4.14,4.14,0,0,0,2.1,4.64c19,12.19,40,19.9,60.75,28.23a4.81,4.81,0,0,0,1.57,0ZM240.57,596.86c-1.52.38-1.78,1.86-2.41,2.95a122.25,122.25,0,0,0-9.31,20.28c-.74,2-1.86,4-1.93,6.24l1,.36q6.3-15,12.61-29.92c5.82-8.26,11.51-16.61,17.63-24.66a112.78,112.78,0,0,0-13.53,17.15C243.07,591.68,240.77,593.73,240.57,596.86Zm95-293.11c-11.92,15.92-24.16,31.45-38.85,44.79s-28.15,27.74-47.15,37c.92-3.28,2.72-4.32,4.15-5.58,11.17-9.86,22.51-19.55,33.58-29.54,21.63-19.51,40-41.62,53.5-67.59,1.17-2.26,2.12-4.63,3.17-6.94A2.67,2.67,0,0,0,342,277a232.86,232.86,0,0,1-49.74,45.87c-9.5,6.55-20.88,10.68-27.68,21,.51-2.5.56-5.49,2.05-7.28,3.7-4.41,6.66-9.31,10.22-13.8,12-15.08,26.21-27.95,40-41.23,15.21-14.63,28.38-30.67,36.66-50.32,2.5-5.94,3.27-12.1,3.61-19-14.41,32.54-36.88,57.33-65.35,77,6.83-8.47,16-14.75,22.5-23.65-8.54,5.65-18.09,9.19-27,14a68.26,68.26,0,0,0-6.11,3.78c-22.61,15.49-38,36.89-50.19,61-8.88,17.64-13.51,36.65-18,55.71-.29,1.24-.07,2.81-2,3.95a116.63,116.63,0,0,1,4.78-30c10.61-36.07,28.76-67.29,58.7-91a196.06,196.06,0,0,0-26.51,10.86c-1.66.82-3.54,1.52-4.79,2.79a137.39,137.39,0,0,0-26.52,38.17c-.52,1.11-1.69,2.39-.37,3.64,1.55,1.46.43,2.69-.19,3.93-6,12-12,24.08-18.07,36.05-6,11.81-14,22-25.35,29.21a104.22,104.22,0,0,1-24.7,11.09c-1.73.55-4,.76-4.65,2.73-2,6.24-3.76,12.56-5.63,18.93,1.64.2,2.44-.64,3.28-1.21A245.68,245.68,0,0,1,211,406.18,238.15,238.15,0,0,1,243,399.33c10.9-1.56,20.86-4.11,29.28-12.64,23.28-23.61,45.35-48,60.63-77.79C333.76,307.18,334.66,305.47,335.54,303.75Zm43.82,109c.3,4.49.68,9,.89,13.47.74,16.25-.2,32.47-1.3,48.68-1.17,17.26-2.29,34.51-5.29,51.6-2.62,14.93-4.83,29.94-7.2,44.92-.26,1.62-1.15,3.55,1.91,3.57,13.86.09,27.73-.12,41.36-2.85,9.68-1.95,9.63-2.32,6.08-11.27-12.72-32-18.08-65.86-25.09-99.31C387.28,445.22,384.18,428.78,379.36,412.77ZM325.81,204.45c-.55,1-1.1,2.06-1.67,3.09a121.72,121.72,0,0,1-52,49.87c-12.2,6.18-24.5,12.24-36.93,18-17.43,8.08-32.68,19.3-44.8,34-10.68,13-18.6,27.84-24.54,43.7-2.19,5.84-4.45,11.84-7.83,17-7,10.79-8,23.25-11.05,35.17-.57,2.23.18,2.76,2.16,1.82,3.89-1.84,7.4-4.1,9.78-7.9a177.12,177.12,0,0,0,11.25-22c10.95-24.52,22.76-48.5,42.88-67.18.63-.58,1.92-1.41,1.29-2.18-1.69-2.1.35-2.94,1.2-3.93,5.69-6.62,12.56-11.82,19.95-16.42,11.92-7.4,24.85-12.79,37.34-19,31-15.51,53.14-39.07,65.39-71.66A85.76,85.76,0,0,0,344,164c-.27-9.36,0-18.75-2.16-29-1,3.92.23,6.71.36,9.52a143.45,143.45,0,0,1-8.07,53.79c-9.35,27-26.23,48.18-51,62.77-1.79,1.06-3.6,2.37-6.15,1.9C296.93,246.38,316.91,230,325.81,204.45Zm-88.09-149c-.52-.16-.79-.34-1-.3a15.93,15.93,0,0,0-1.93.46c-19.94,5.88-32.27,19.92-40.29,38.24-7,16-8.19,33.23-9.18,50.4-1.18,20.53-6.05,39.91-16.92,57.61-5.51,9-11.11,17.84-15.64,27.37-8.12,17.08-13.21,34.82-12.25,53.93.05,1.1-.51,2.81,1,3.09,1.28.23,2.39-1,3.24-2s.63-2.27.77-3.45c1.36-11.29,3.37-22.39,9.37-32.33a183.9,183.9,0,0,1,14.91-21.22,107.37,107.37,0,0,0,14.57-23.76c6.24-13.69,8-28.35,9.71-43,2.73-23.59,6.51-46.92,15.43-69.15,5.37-13.39,12.36-25.35,25.17-33C235.75,57.65,237,57.12,237.72,55.48Zm52.33,354.64a10.64,10.64,0,0,0-1.62.29c-.47.24-.91.55-1.37.82-16.82,10-28.39,24.6-37.35,41.66-11.79,22.44-9.25,44.36,2.07,66,2.28,4.34,2.58,4.2,5.49.38C270.41,502,276.19,482,279.53,461c2.46-15.49,4.53-31.19,14.52-44.25.17-.22,0-.67,0-1.09a4.09,4.09,0,0,0-.9.35c-18.8,16.28-29.74,36.85-33.49,61.35-1.38,9-.88,18.08-1.63,27.1-.1,1.24.3,2.7-1.11,3.58-3.23-4.43-5.26-15.27-3.62-29.94C256.35,451,269.15,428.75,290.05,410.12ZM119.39,214.5a140.33,140.33,0,0,1,12.35-24.21c5-8,10.6-15.38,13.24-25.07,3.37-12.38,6.37-24.62,7.43-37.43,2.17-26.09,10.49-49.61,29.77-68.3.69-.66,1.73-1.25,1.55-2.6-1.8.46-3,1.73-4.3,2.79-22.25,18.11-36,42.31-46.57,68.17-8.84,21.58-11.14,44.85-13.12,68C119.21,202,118.49,208.18,119.39,214.5ZM43.84,465.28c2.16-.26,2.93-1.44,3.93-2.23,16.53-12.92,26.54-30.94,35.95-48.85,10.94-20.81,19.6-42.81,29.22-64.3.11-.23-.14-.62-.33-1.32-1.64,1.41-3.1,2.54-4.41,3.82-9.51,9.4-18,19.6-24.64,31.27-7.92,14-14.59,28.69-21,43.49A365.84,365.84,0,0,1,43.84,465.28Zm112.9-139.41c-.6-1.25.84-3.44-.83-4.17s-2.74,1.28-3.82,2.33c-4.4,4.26-8.85,8.47-13,13a115.4,115.4,0,0,0-28,53.43c-.75,3.34.52,3.67,3.27,3,9.08-2.33,15.89-7.73,21.27-15.22,5.7-7.94,9.43-17,14.42-25.28S155.79,335.35,156.74,325.87Zm-6-167.71c.91-.47,1.23-.53,1.35-.72a150.65,150.65,0,0,0,18.42-44.29c2.84-12.23,6.16-24.42,12.56-35.23,10.1-17.09,23.17-31.15,43.26-36.71.81-.22,2-.26,1.52-2.29-10.4,2.38-21,3.25-30.06,10.26-16.48,12.75-29.74,27.7-36.07,48a132,132,0,0,0-5.56,25.68C154.91,134.53,154.8,146.39,150.74,158.16ZM366.48,350.5l-11.94,15.44c-21.12,27.32-39.48,56.12-49.52,89.61-5.34,17.83-11,35.58-18.87,52.53-2.93,6.34-6.12,12.57-9.35,19.16,1.72-.67,2.24-2,3-3,16.5-20.82,26.78-44.81,33.61-70.08,6.47-24,16.69-45.57,32.51-64.68,7.56-9.12,14.6-18.69,18.74-30C365.65,356.87,367,354.22,366.48,350.5Zm-90.24-295c10,9,13.11,20.88,14.13,33.4a208.42,208.42,0,0,1,0,32.29c-.29,4-.19,4.12,3.71,2.73,8-2.86,16.08-5.6,24.69-5.73,3.37,0,3.32-1.29,2.37-3.85-7.51-20.27-18.5-38.26-34.52-53C283.71,58.67,280.65,56.14,276.24,55.47Zm-166,220.69c2.62-4.18,3.93-8.89,5.16-13.59,5.63-21.38,13.24-41.88,26.32-60,9.77-13.5,15.72-28.62,19.33-44.75.92-4.14,2.34-8.26,2.32-12.79-1.55.56-1.67,1.74-2.13,2.63-7.29,14.06-14.49,28.12-24.08,40.87-4.86,6.46-8.42,13.8-11.82,21.22C115.7,230.87,114.83,253.89,110.24,276.16ZM348.49,142.58c0,4-.2,7.93,0,11.87.72,12.17.26,24.25-3.24,36-9.84,33-29.82,58.07-59.3,75.77-12.35,7.41-25.81,12.59-38.38,19.55-1.36.75-3,1.24-3.71,2.88,14.29-7.95,29.81-12.84,44.89-18.77,10.86-4.26,21-9.86,29.45-18,15.67-15.22,25.4-34,31.15-54.86C354.38,178.86,352.62,160.68,348.49,142.58ZM234.79,50.12a37.76,37.76,0,0,0-21.39,6c-13.09,8.11-20.12,20.55-24.81,34.63-6.7,20.16-9.77,41.14-13.52,61.94-4.13,23-10.39,45-22.18,65.4-6.51,11.27-12.08,23.12-15.29,35.89-2.77,11-5.08,22.08-3,33.52.17,1-.37,2.91,1.49,2.63,1.46-.22,1.22-1.87,1.11-3a77,77,0,0,1-.48-11.16c.84-19.14,6.7-36.85,15.61-53.6,4.38-8.21,9.35-16.12,14.15-24.09C177,180.74,180.85,161.49,182,141.43c.75-13.16,1.91-26.25,5.76-39,7.1-23.52,20.68-41.15,44.28-50C233,52.1,234.17,52.05,234.79,50.12Zm-105.27,268c-2.11-3.52-2.13-7.42-2.46-11.13-.29-3.23-1.29-3.32-3.57-1.6-2.44,1.84-5,3.51-7.49,5.32-16.56,12.13-29.72,27-36.93,46.53-.45,1.22-1.35,2.47-.71,4.29,1.09-.87,1.93-1.49,2.7-2.18A441.93,441.93,0,0,1,116.12,331c7.2-5.27,14.23-10.76,21.31-16.18,1.12-.86,2.73-1.75,1.44-3.51a37.59,37.59,0,0,1-4.87-10c-.26-.74-.52-1.66-1.59-1.3-.91.3-.95,1.21-1,2,0,3.6,0,7.19-.06,10.78C131.34,314.6,131.63,316.58,129.52,318.16Zm108.2,145.37c-4.21,5.27-8.7,10.28-11.75,16.3a8,8,0,0,0-.52,2.32c-3.09,19.69,2.14,37.38,12.91,53.75,1,1.45,1.8,1.88,3.1.59q4.36-4.37,8.72-8.75c1.14-1.15,1-2.19,0-3.47-11.4-13.94-14.61-30.37-14.15-47.79C236.15,472.15,237.13,467.85,237.72,463.53ZM232.92,302c-2.37,1.6-4.78,3.15-7.11,4.81-17.08,12.16-27,29.48-34.37,48.47-6,15.44-12.23,30.66-22.82,43.66a11.1,11.1,0,0,0-.72,2.14c2.25-2,3.72-3.22,5.11-4.53,13.57-12.78,22.88-28.62,32-44.61,4.93-8.68,8.09-18.23,13-26.95C222.43,317.09,228.23,310.15,232.92,302Zm88.93,238.17c-.6,3.67-1.15,7.34-1.82,11-2.93,16.06-10.82,30-19.38,43.49-12.08,19-17.9,39.6-18.75,61.85A36.09,36.09,0,0,0,283.54,670c1.62-5.58,5.27-9.26,3.85-14.56-1.67-6.23-.77-12.47.88-18.54,3.59-13.2,11-24.48,18.75-35.46C320.11,582.91,324.53,562.36,321.85,540.17ZM40.67,537.5a323.26,323.26,0,0,0,66.54-82.71,13.73,13.73,0,0,0-3.39,3c-6.3,7.24-12.6,14.58-20.62,19.9-7.41,4.91-12.89,11.41-17.92,18.48-3.46,4.88-7,9.7-10.3,14.71C49.46,519.35,44.11,527.88,40.67,537.5Zm.61-48.93c1.68-.75,2.77-1.14,3.77-1.69a104.69,104.69,0,0,0,34-29.09c12.69-16.68,18.38-36.33,23.81-56.08.41-1.46.62-2.93-1.55-3.35-2-.38-3.74-1.11-4.77,1.72-2.37,6.49-5.26,12.79-7.54,19.31-8.67,24.84-22.24,46.4-42.12,63.83C45.1,484.75,43,485.92,41.28,488.57ZM294,536.12c-9.72,17.71-21.82,33.56-34.25,49.2C248.37,599.58,239,615,233.37,632.46c-.7,2.16-2.48,5.68-.51,6.36s2.86-3.19,3.83-5.24A154.23,154.23,0,0,1,261.93,595c13.47-14.81,24.48-31.17,30.72-50.4C293.53,541.87,294.63,539.14,294,536.12Zm49,22.16,1.07.27c1.24-5,2.59-9.92,3.7-14.92,1.77-8,4.68-15.68,4.57-24.19-.23-18.26-4.89-36.13-4.3-54.42,0,0-.21-.1-.72-.33C336.46,495.54,343.39,527.09,343,558.28Zm15.44-206.62c-6.6,6.17-13.73,11.72-18.83,19.29a429,429,0,0,0-25.82,43.11c-8.61,16.69-16.79,33.6-21.75,51.8-5.25,19.28-13.37,37.29-23.05,54.67a107.3,107.3,0,0,1-6.41,9.63,2.75,2.75,0,0,0,.51,4.19c1.72,1.4,2.26-.45,3-1.38a38.27,38.27,0,0,0,2.75-3.92c11.37-18.21,19.47-37.94,25.37-58.42,10.77-37.44,27.38-71.77,51.55-102.38C350.08,362.78,354.24,357.19,358.46,351.66Zm-280.9-3.34c-1.73-.23-2.23.87-2.92,1.56C58,366.32,46.82,386.07,40,408.32a54.4,54.4,0,0,0-2,18.62,24.54,24.54,0,0,0,6.81-12.73c3.39-17.62,13-31.81,25.33-44.44,1.2-1.23,2.79-2.34,3.06-4.1A95.39,95.39,0,0,1,77.56,348.32Zm286.08-69.45c-11.49,34.35-30.93,62.81-54.57,88.72a14.8,14.8,0,0,0,4.14-2.53,193.65,193.65,0,0,0,37.23-40.31c7.41-10.61,12.54-22.2,14.35-35.1C365.25,286.4,365.61,283.1,363.64,278.87ZM330.26,551.28c5.84-29.23,2.68-58.9,6.06-88.23-4.38,8.26-8.34,16.53-10,25.63a82.23,82.23,0,0,0-.12,27.82C328,528.06,329.83,539.6,330.26,551.28ZM276.42,329.09c3.16-1,4.92-2.84,6.88-4.27,23.4-17,44.12-36.72,59.82-61.27,3.32-5.2,6.36-10.56,7.81-16.66a3.5,3.5,0,0,0-1.47,1.34c-7.33,13-17.17,23.92-27.66,34.36-12.73,12.65-26.46,24.27-38.51,37.62C281,322.79,278.35,325.2,276.42,329.09Zm59.72,223.3c-1.54,3.21-1.71,6.16-2.34,9-3.45,15.57-10.33,29.85-16.8,44.27-3.9,8.7-7.6,17.44-9.3,26.9C328.76,610.22,338,583.62,336.14,552.39ZM313.89,402.24c-11.16,8.27-19.81,18.46-24.17,31.8-3.9,12-4.53,24.56-6.92,36.82-.38,2-.9,3.9-1.18,5.87-.26,1.78-1.36,3.51-.36,5.53A362.44,362.44,0,0,1,313.89,402.24ZM159.43,624.64c.41-.77.59-1.11.78-1.45,8.92-16.06,21.58-28.62,36.78-38.64,15.66-10.31,31.57-20.25,47.3-30.46a87.16,87.16,0,0,0,15.63-13.59c1.21-1.29,2.63-2.51.73-4.33s-2.77.18-3.65,1.27c-8.2,10-18.47,17.54-29.44,24.22-11.25,6.85-22.79,13.19-33.79,20.47-14.4,9.52-26.05,21.44-33.18,37.38C160,620.88,158.83,622.18,159.43,624.64Zm164.12,41.45c5.67-11.83,14.2-21.47,12.43-35.06-.5-3.77.2-7.7.3-11.56,0-1.62.6-3.3-.12-5.11C323.74,627.71,318,650.26,323.55,666.09ZM294.64,372c35.63-34.76,62.26-74.59,70.44-124.78C350.38,293.73,329.54,336.8,294.64,372Zm73.27-63.6c-14.13,28.45-36.37,49.59-61.34,68.43,1.07.69,1.62.14,2.15-.14,22.27-11.5,39.79-28.23,53.46-49.07A33,33,0,0,0,367.91,308.38Zm-9.38,195.4c4.77-10.92,5.75-55,1.7-65.34C352.31,459.85,354.16,481.48,358.53,503.78ZM56.62,487.29c6.37-2,13.05-3.51,17.39-9.39,6.39-8.67,12.9-17.26,19.28-25.95,6.23-8.48,11.83-17.38,17.26-26.39.58-1,2.1-2.06.55-3.44a5.79,5.79,0,0,0-9.2,2.51c-4.82,14.82-11.68,28.55-21.58,40.67C73.46,473.7,65.3,480.66,56.62,487.29Zm27.43-15.72c6.6-3.92,11.73-9.27,16.78-14.72,8.25-8.9,15.81-18.33,21.32-29.24.52-1,2.12-2.2.41-3.42-2.23-1.58-7.08-.23-8.59,2.21-4.13,6.67-8.12,13.43-12.47,20C95.83,454.86,89.88,463.18,84.05,471.57ZM52.52,415.18c9.1-7.64,16.08-17,22.16-27,6.7-11.06,13.92-21.7,22.67-31.28a138.79,138.79,0,0,1,16.17-15.11,4.42,4.42,0,0,0-3.67.9c-11.43,9.88-25.66,17-31.93,32a19,19,0,0,1-1.44,2.39C68.64,389.88,61.05,402.81,52.52,415.18Zm99.77-137.41a5.58,5.58,0,0,0,3.85-1.9A60.34,60.34,0,0,0,173.45,249c1.06-3.42,1.61-6.63,5.59-7.8,1.74-.51,1.14-2.08.56-3-1-1.54-1.71,0-2.39.57-3.3,2.89-6.44,6-9.89,8.7C157.55,255.17,154.82,266.14,152.29,277.77Zm-39.23,181a3.15,3.15,0,0,0,1.11,0,10.2,10.2,0,0,0,2.86-1.36c6.25-5.21,13.49-9.53,15.58-18.37.94-4,2.6-7.79,3.78-11.72.45-1.5,2.12-3.78.09-4.51a5.43,5.43,0,0,0-6.33,2.1,13.93,13.93,0,0,0-.93,1.75c-4.88,9.87-9.93,19.65-15.39,29.21C113.34,456.71,112.48,457.53,113.06,458.77Zm7.75,5.28c-3.57,3.43-7.11,6.9-10.73,10.29-10.45,9.8-20.16,20.13-24.3,34.37-.37,1.3-1.69,2.44-.62,4.53C98.63,497.75,111.51,482.22,120.81,464.05ZM342.87,626c6.76-11.25,18.76-52.09,17.16-57.54-3.12,8.62-6.49,16.88-11.26,24.38a34,34,0,0,0-5.83,19C343,616.54,342.19,621.25,342.87,626ZM176.55,254.3l-1.62,3.57c-4.11,9.09-9.18,17.62-17.46,23.43-4.47,3.14-4.95,6.76-3.9,11.34.18.78.3,1.58.52,2.34.28.95-.19,2.39,1.14,2.69,1,.23,1.56-.85,2.2-1.51a67.74,67.74,0,0,0,12.39-17.07C173.65,271.32,176.27,263.13,176.55,254.3ZM257.12,41.38c1.67,2.49,3.5,2.15,5.17,2.42,12,1.93,23.08,5.62,32.12,14.47a138,138,0,0,1,36.93,62.41c.32,1.11.13,3.27,2,2.78s.7-2.25.37-3.39a128.57,128.57,0,0,0-8.13-20.32c-3.38-7-8.13-13.21-10.35-20.94-1.21-4.19-5.09-7.7-8.05-11.28-9.4-11.38-20.34-20.67-35.05-24.42A46.31,46.31,0,0,0,257.12,41.38ZM362.84,379.24c-3.67,24.85-12,48.47-19.11,72.43C355.91,434.8,366.3,396.7,362.84,379.24ZM240.4,678.14c0-1.45,0-2.91,0-4.36-.9-20.45,7.5-38,18.49-54.17,5.86-8.62,10.29-17.94,15.9-26.61.17-.27.36-.71-.45-.89C253.07,616.79,236.71,643.5,240.4,678.14Zm9.41-250.77c-18.1,10.11-35,38.07-32.53,53.51,3-1.39,4.06-4.15,4.68-7a77.87,77.87,0,0,1,24.3-41.71C247.58,431,249.22,429.9,249.81,427.37ZM135,332.76c-6.36,3.13-10.24,7.57-13.54,12.49-9.92,14.84-14.87,32-22.16,48.07-1,2.1,0,2.48,2,2.3,2.41-.22,3.41-1.48,3.86-3.75a117.06,117.06,0,0,1,28.58-57A16.22,16.22,0,0,0,135,332.76Zm5.44,47.31c-2,.46-2.49,2.05-3.35,3.12a39.63,39.63,0,0,1-22.83,14.4c-5.53,1.25-6.38,2.51-6.19,9,4.85-3,10.15-4.78,15.14-7.26a51.84,51.84,0,0,0,13.41-9.25A12.42,12.42,0,0,0,140.42,380.07Zm63.33-90.9c-16.88,8.54-43.2,43.3-43.94,56.9,3.3-1.2,3.18-1.26,4.8-4.6,8.49-17.53,17.76-34.51,33.28-47.09C199.92,292.73,201.8,290.91,203.75,289.17ZM111.18,416.11c-.91-1.49-3.53-1.53-3-3.12s2.79-1,4.29-1c4.65,0,9.29.28,13.94.38,1.44,0,3.09.2,3.84-1.43,1.45-3.2,3.06-6.36,3.78-10.6l-5,2.7c-5.28,2.88-10.77,5.9-16.86,5.24-5-.54-6.17,1.74-7,5.63-.37,1.83-.19,2.9,1.93,2.79C108.43,416.62,109.78,417.16,111.18,416.11ZM293.55,649.32a23.32,23.32,0,0,0,7.8-13.6c1.36-7.5,4.09-14.68,6.15-22C300.46,624.65,293.42,635.6,293.55,649.32ZM136.37,449.05c17-6.87,32-17.33,47.27-27.23C166.71,428.82,151.26,438.41,136.37,449.05Zm89.75,188.56c-6.56,11.52-13.79,22.69-19.22,35.63C213.53,670,226.57,645.62,226.12,637.61ZM284.76,614c-8.13,15.12-15.57,43.53-7.44,54.54C276.15,649.59,278.39,631.54,284.76,614ZM112.69,304.94l.86.78c3.91-2.78,7.83-5.55,11.71-8.38a2,2,0,0,0,.65-1.39c0-5.2,0-10.4,0-15.6l-1.23-.12A165.8,165.8,0,0,1,112.69,304.94Zm47.44,26.14,1.24.21a159.31,159.31,0,0,1,15.41-26.41c-5.42,3.8-10.46,7.88-15.49,12a3.08,3.08,0,0,0-1.16,2.44C160.11,323.22,160.13,327.15,160.13,331.08ZM356.43,556.4c3.75-8.81,9.54-44,8.39-47.42C357.74,523.83,359.16,540.48,356.43,556.4ZM195.81,422c15.39-4.81,31.38-7.43,46.61-12.79C226.23,411,210.08,413,195.81,422ZM161.52,305c10.65-8.94,17.92-19.73,18.6-34.06C175.89,283.36,168.09,293.83,161.52,305ZM316,539.58c1.86-17.33.46-34.75,2.14-52.06C313.39,499,314.68,512.42,316,539.58Zm-104.29,24.6c15.65-8.18,31-16.74,41.67-31.53C241.09,545.26,226,554.24,211.72,564.18Zm157-153.49c-3.88,13.08-2.16,26.18,0,39.28ZM304.79,535.51c3.81-12.78,1.43-25.82,2.07-38.75C303.23,509.53,305.29,522.56,304.79,535.51Zm-59.52-94.67c-7.34,7.1-13,15.22-15.25,25.34A112.7,112.7,0,0,0,245.27,440.84Zm27,115.09c10.7-10.6,19.31-22.61,23.95-37.13C288.84,531.53,281.7,544.43,272.29,555.93Zm42.55,80c-8.36,7-13.62,14.32-11.61,25.62a163.76,163.76,0,0,1,10.67-23.3A23.46,23.46,0,0,0,314.84,635.94Zm-7-488.14c-5.57,2-6.53,3.59-4.95,6.74,2,3.92,5.37,2.58,7.95,1.77,3-.95,3.74-3.93,2.83-6.93-.35-1.12.44-3.43-2.1-3-3.17.56-.38,2-.33,3a3.31,3.31,0,0,1-2.08,3.5c-1.27.53-2.78.7-3.63-.6-1.17-1.78.87-2.08,1.66-3A6.9,6.9,0,0,0,307.88,147.8ZM71,378c-7.27,5.95-16.89,21.36-16.75,26.69A225.65,225.65,0,0,0,71,378Zm73.48-86.46c-1.66.7-2.93,1.75-2.34,3.87.73,2.67,1.44,5.37,2.41,8,.43,1.15.31,3.52,2.49,2.74a3.23,3.23,0,0,0,2.14-4.46c-1.05-2.86-2-5.74-3-8.6C145.91,292.26,145.63,291.52,144.52,291.52ZM337.26,154.89a122.4,122.4,0,0,0-1.82-27.07c-.14-.79-.45-1.7-1.44-1.54-1.38.23-.95,1.42-.77,2.24C335.11,137.2,335.77,146.06,337.26,154.89ZM103.26,474l.8.76c3.08-3.23,6.22-6.42,9.24-9.72.94-1,3.17-2.24,1.24-3.78-1.62-1.31-3.53-.45-4.65,1.45ZM260,420a224.89,224.89,0,0,0,26.68-17A117.1,117.1,0,0,0,260,420Zm74.2,1.68c-4,6.39-7.52,12.91-8.6,20.42C329.4,435.68,332.78,429.07,334.23,421.7Zm10.66-3.13a54.2,54.2,0,0,0,3.84-19.41c-1.57,1.76-5,3.37-3.45,5.45s1.12,3.78.79,5.79C345.63,413.12,345.28,415.85,344.89,418.57ZM144.61,378.64c2.31-2.9,4.94-10.76,4.75-14.22C143.66,372.12,143,374,144.61,378.64ZM143.09,397c-1.63,3.57-3.3,7.11-4.86,10.71-.42,1-1.89,2.29-.3,3s2.9-.42,3.35-2C142.36,405,143.37,401.15,143.09,397Zm-5.25,57c-7.2,1.08-9,5.81-10.21,11.09Zm-1-155c1.17,3.16,2.54,6.88,3.94,10.58.19.49.56,1,1.18.76,1-.37.9-1.21.64-2q-1.75-5.26-3.56-10.51c-.22-.63-.54-1.39-1.26-1.31C136.81,296.62,136.75,297.51,136.87,299Zm39.51,77.59c2.25-3.53,4.43-7.1,5.18-11.3A34.76,34.76,0,0,0,176.38,376.55ZM297.46,656.73c-2.82,2.81-2.09,4.83-.38,6.79A11.75,11.75,0,0,0,297.46,656.73Z" transform="translate(0 0)"/><path d="M216.1,179.35c3.13-1.51,2.48-2.42.55-4.2-2.46-2.26-4.26-4.69-7.42-1.18a1,1,0,0,1-1.67-.11c-.35-.69.25-1.3.74-1.7,5-4,10.07-8,16.76-8.61a50.12,50.12,0,0,1,18.6,1.45c1.81.54,4.51.35,4.72,2.8.18,2.19-2.15,3.2-3.85,4.16-6.56,3.68-13.73,5.71-21,7.28C221.37,179.7,219.23,180.83,216.1,179.35Zm7.76-11.62c1.69.78,4-.14,4,2.25,0,1.36-1.14,2-2.36,2.35a3.8,3.8,0,0,1-4.52-1.58,2.85,2.85,0,0,1-.37-1.12c-.26-1.78-1.37-1.25-2.33-.81-1.6.72-.81,1.71-.09,2.5,2,2.19,4.66,2.9,7.48,3.22.87.1,1.93,1,2.51-.07,1.1-2.1,2.68-4.52,2-6.66-.59-1.91-3.27-.63-5-.76C225,167,224.76,167.27,223.86,167.73Zm17.91,1.48c-7.31-3-8.47-2.39-8.05,4.2C236.39,172,239.34,171.3,241.77,169.21Z" transform="translate(0 0)"/><path d="M311.75,131c3,.3,5.17.06,7.12,1.14.7.38,1.48.84,1.34,1.76-.17,1.11-1.16,1-1.89.81-8.05-1.79-15.18.24-21.88,4.81a61.79,61.79,0,0,0-5.41,4.62c-.89.76-1.82,2.59-3.19,1.26-1.06-1,.27-2.27,1-3C295.4,135.71,303.05,131.35,311.75,131Z" transform="translate(0 0)"/><path d="M213.81,153.72c6.11-6,19.24-6.92,26.63-2,1.33.88,2.64,1.8,3.9,2.78.89.7,2.4,1.49,1.39,2.8s-2.18.11-3.14-.53c-3.22-2.15-6.45-4.09-10.42-4.73-4.63-.74-9,0-13.38,1.27C217.29,153.69,215.83,154.48,213.81,153.72Z" transform="translate(0 0)"/><path d="M282.13,207.8c2.28.4,4.9.13,6.18,2.75.69,1.43.64,3-.78,3.92S285.66,214,285,213c-1.81-2.52-6.69-2-8.76,1.05-.77,1.11-1.16,2.73-2.85,1.52-1.53-1.1-1-2.65-.06-3.87C275.52,208.88,278.68,208,282.13,207.8Z" transform="translate(0 0)"/><path d="M226.94,190.54c-.36-.22-.84-.34-1-.62-.32-.76.28-1.27.79-1.65,2.13-1.57,4.35-3.05,6.48-4.63a64.61,64.61,0,0,0,9.43-8c.58-.63,1.31-1.74,2.28-1s.27,1.73-.36,2.41a59,59,0,0,1-16.18,12.81C228,190.13,227.47,190.32,226.94,190.54Z" transform="translate(0 0)"/><path d="M298.41,210.75c-1.16-.09-1.79-.71-1.76-1.53a7.79,7.79,0,0,1,3.5-6.71,1.51,1.51,0,0,1,2.37.44,1.42,1.42,0,0,1-.12,1.83c-1.52,1.4-2.19,3.25-3,5C299.17,210.23,298.67,210.51,298.41,210.75Z" transform="translate(0 0)"/><path d="M208.45,177.29c0,1.63-1,2-2.12,2s-2.5-.21-2.79-1.61.77-1.88,1.85-2A2.86,2.86,0,0,1,208.45,177.29Z" transform="translate(0 0)"/><path d="M430,5V680.71H40V5H430m5-5H35V685.71H435V0Z" transform="translate(0 0)"/></g><rect x="5.44" y="481.55" width="459.13" height="80.97" transform="translate(-46.45 23.5) rotate(-5.21)"/><path class="cls-3" d="M457.68,463.57l6.91,75.67L12.32,580.49,5.41,504.82l452.27-41.25m4.51-5.41L0,500.31l7.81,85.6L470,543.75l-7.81-85.59Z" transform="translate(0 0)"/><path class="cls-3" d="M43.41,558.51q-9,1-17.87,2.67a284.62,284.62,0,0,0,8.17-42.42c.23-2.13-3-2.75-3.32-.59a339.23,339.23,0,0,1-8.89,44.88,1.72,1.72,0,0,0,1.84,2q10.15-1.86,20.4-3C46.06,561.87,45.73,558.26,43.41,558.51Z" transform="translate(0 0)"/><path class="cls-3" d="M57.79,514.38q-2.34,23.72-6.22,47.22c-.36,2.24,3.09,2.86,3.47.63q4-23.51,6.07-47.25C61.29,512.84,58,512.21,57.79,514.38Z" transform="translate(0 0)"/><path class="cls-3" d="M247,497.44c-.39,6-.64,12.05-.85,18.08H246A78.86,78.86,0,0,1,230,519q1.19-9.79,2.06-19.63c.19-2.14-3.1-2.76-3.32-.59q-2.34,23.7-6.21,47.22c-.37,2.24,3.08,2.86,3.46.62q2-12,3.58-24.14h.12a76.7,76.7,0,0,0,16.3-3.25c0,.42,0,.85,0,1.28-.27,7.9-1,16-.49,23.93.12,1.94,3.3,2.16,3.49.15.74-7.61.39-15.44.59-23.08.21-8,.54-15.94.72-23.91C250.28,495.73,247.07,495.57,247,497.44Z" transform="translate(0 0)"/><path class="cls-3" d="M172,501.75c-8.25,6.93-17.07,13.58-24.89,21q1-8.49,1.74-17c.19-2.14-3.1-2.76-3.31-.6q-2.35,23.71-6.22,47.22c-.37,2.24,3.09,2.86,3.47.63q2.15-12.64,3.73-25.38a1.76,1.76,0,0,0,.81-.44c3.92-3.66,8-7.17,12.14-10.63a275.67,275.67,0,0,0,7.11,36.84c.5,1.79,3.59,1.11,3.22-.74-2.43-12.32-5.06-24.53-7.13-36.91a1.61,1.61,0,0,0-.81-1.18c4.05-3.36,8.12-6.69,12.11-10.08C175.58,503.11,173.64,500.34,172,501.75Z" transform="translate(0 0)"/><path class="cls-3" d="M86.51,511.68q-.84,11.79-1.66,23.57c-.2,2.71-.27,22.36-3.89,21.86-1.59-.22-1.78-3-2.18-4.51-.55-2.1-1-4.21-1.46-6.33-.77-3.73-1.41-7.48-2.08-11.23-1.32-7.4-2.7-14.89-5.4-21.92a1.52,1.52,0,0,0-1.77-1,1.63,1.63,0,0,0-2.56,1.11c-2.14,15.44-4.17,30.91-5.93,46.4-.23,2,2.85,2.61,3.15.56,2-13.61,3.81-27.27,5.51-40.93,2.19,8,3.44,16.08,5,24.23a121.22,121.22,0,0,0,2.93,12.81c.76,2.55,2,5.67,5.19,5.27,7.08-.87,6.32-14.38,6.66-19.12q1.08-15,2.16-30.11C90.3,510,86.68,509.32,86.51,511.68Z" transform="translate(0 0)"/><path class="cls-3" d="M118.35,508.78q-.84,11.78-1.66,23.57c-.19,2.71-.26,22.36-3.89,21.86-1.59-.22-1.78-3-2.17-4.52-.56-2.09-1-4.2-1.47-6.32-.77-3.73-1.41-7.49-2.08-11.24-1.32-7.39-2.69-14.88-5.4-21.92a1.52,1.52,0,0,0-1.77-1,1.63,1.63,0,0,0-2.56,1.11c-2.14,15.43-4.17,30.91-5.93,46.39-.23,2,2.85,2.62,3.15.57,2-13.61,3.81-27.27,5.51-40.93,2.19,8,3.44,16.08,5,24.23A125,125,0,0,0,108,553.39c.76,2.55,2,5.66,5.19,5.27,7.08-.88,6.32-14.38,6.66-19.12q1.09-15.06,2.17-30.11C122.14,507.09,118.52,506.42,118.35,508.78Z" transform="translate(0 0)"/><path class="cls-3" d="M194.59,511.93c-.89-2.68-2.52-8.41-6.24-7.57a27.1,27.1,0,0,1,3-1.85c1.8-1,.18-4-1.68-3.16-16.72,7.22-19.83,30.15-16.06,45.91,1.9,7.93,10,11.58,15.89,5,5.52-6.13,7.39-16,7.42-24A44.76,44.76,0,0,0,194.59,511.93Zm-1.79,20.12a39.75,39.75,0,0,1-3.4,11.43c-1.91,4-7.08,10.08-10.9,4.15-2.3-3.57-2.14-9.2-2.28-13.32A49.24,49.24,0,0,1,177.39,521a28.45,28.45,0,0,1,9.31-15.37A1.84,1.84,0,0,0,189,508c.82-.3,3.62,11.27,3.74,12.15A41.47,41.47,0,0,1,192.8,532.05Z" transform="translate(0 0)"/><path class="cls-3" d="M216.69,497.91c-10.93,8.8-15.72,25.28-16.21,38.79-.19,5.31.18,12.49,6,14.79A9.2,9.2,0,0,0,218,546.91a1.81,1.81,0,0,0-3.28-1.54,5.51,5.51,0,0,1-5.14,3c-3-.09-4.6-2.51-5.17-5.28-1-4.71-.25-10,.58-14.67,1.72-9.73,5.87-21.24,13.71-27.73C220.4,499.31,218.44,496.51,216.69,497.91Z" transform="translate(0 0)"/><path class="cls-3" d="M272.7,517.42l-1.57-.41a1.39,1.39,0,0,0-.95-.21c-3.93-.8-8-.69-10.85,2.71a1.84,1.84,0,0,0,1.57,3c2.25-.37,4.58-.76,6.84-1.34,1.59-.09,3.19-.17,4.81-.15C274.73,521,274.5,517.93,272.7,517.42Z" transform="translate(0 0)"/><path class="cls-3" d="M286.43,505.29c5.17-5.19,11.57-8.48,18.51-10.61,2-.62.82-3.45-1.13-3a41,41,0,0,0-13.68,6.08c-3,2-7.81,5.3-9.14,8.85-1.46,3.92,2.74,4.78,5.54,5.51l6.59,1.73a1.72,1.72,0,0,0,.69.49c2.6,1.07,5.22,2,7.87,2.94a167.07,167.07,0,0,0-19.83,13.78,1.79,1.79,0,0,0-.1,2.79,29.82,29.82,0,0,0,13.39,6.06,1.91,1.91,0,0,0,1.28.51,17.86,17.86,0,0,0,6.78-1.22,15.55,15.55,0,0,0,5.26-3.23c1.68-1.55-.34-4.52-2.12-3a15.35,15.35,0,0,1-3.46,2.33l-.45.2-.12.05c-5.4,2.14-11.53.14-16.51-3.16a168.25,168.25,0,0,1,21.09-14.18c1.24-.7.76-2.19-.19-2.85a1.76,1.76,0,0,0-1.37-2l-11.69-3-5.84-1.52c-1-.26-1.88-.23-2.43-1.2C284.73,506.49,285.5,506.23,286.43,505.29Z" transform="translate(0 0)"/><path class="cls-3" d="M338.51,486.34c-4.9,1.37-5.58,7.17-6.45,11.39q-.92,4.39-1.82,8.79c-.4-5.45-.8-10.9-1.25-16.34a1.78,1.78,0,0,0-3.11-1c-4.93,5.79-5.93,13.73-7.28,21-1.65,8.84-3,17.72-3.84,26.67-.2,2,2.92,2.66,3.19.57,1.05-8,2.21-16.1,3.65-24.09,1-5.68,1.69-12.24,4.29-17.63.64,8,1.24,16,1.72,24.07.12,2.06,3.12,2.08,3.53.16,1.18-5.43,2.32-10.87,3.46-16.3.55-2.61,1.08-5.22,1.64-7.83a22.13,22.13,0,0,1,.83-3.17c-.8,14.75-1.56,29.49-2.5,44.23-.15,2.44,3.64,3.1,3.76.67.77-16.37,1.76-32.74,2.66-49.1A1.89,1.89,0,0,0,338.51,486.34Z" transform="translate(0 0)"/><path class="cls-3" d="M368.1,483.64c-4.9,1.37-5.58,7.17-6.45,11.39q-.91,4.39-1.82,8.79c-.4-5.45-.8-10.9-1.25-16.34a1.78,1.78,0,0,0-3.11-1c-4.93,5.79-5.93,13.73-7.28,20.95-1.65,8.84-3,17.72-3.84,26.67-.2,2,2.92,2.66,3.19.57,1-8.05,2.21-16.1,3.65-24.09,1-5.68,1.69-12.24,4.29-17.62.64,8,1.24,16,1.72,24.06.12,2.06,3.12,2.08,3.53.16,1.18-5.43,2.32-10.87,3.46-16.3.55-2.61,1.08-5.22,1.64-7.83a22.13,22.13,0,0,1,.83-3.17c-.8,14.75-1.56,29.49-2.5,44.23-.15,2.44,3.64,3.1,3.76.67.77-16.37,1.76-32.74,2.66-49.1A1.89,1.89,0,0,0,368.1,483.64Z" transform="translate(0 0)"/><path class="cls-3" d="M397,482.54a50,50,0,0,0-19.25,18.61c-1.58,2.69-1.53,4.8,1.86,5.57a32,32,0,0,0,10.25.52A60.61,60.61,0,0,0,379,528c-.84,2.92-.26,5.56,3.21,5.43,2.95-.1,6.25-1.15,9.13-1.77s5.53-1.23,8.26-2c2.44-.66,1-4.21-1.37-3.64-4.14,1-8.27,2-12.45,2.84a17.82,17.82,0,0,1-3.06.62,1.71,1.71,0,0,0,0-.84c.76-1.67,1.19-3.55,1.9-5.26a59.48,59.48,0,0,1,11.42-17.61c1.42-1.54-.48-3.34-2.11-3a32.53,32.53,0,0,1-11.34.63,4.38,4.38,0,0,0-2.06-.06c.27-.46.68-1,.79-1.19a44,44,0,0,1,3.08-4.45A49.61,49.61,0,0,1,399,485.33C401,484.23,398.94,481.5,397,482.54Z" transform="translate(0 0)"/><path class="cls-3" d="M416.9,477.27c-2.6,2.12-3.56,5.47-4.42,8.58-1.3,4.66-2.37,9.39-3.22,14.15a157,157,0,0,0-2.36,28.13c0,2.23,3.42,1.88,3.44-.31a164.72,164.72,0,0,1,1.32-19.1q4.56,12.15,8.31,24.56c.71,2.33,4.25,1,3.54-1.33q-4.39-14.54-9.89-28.69l8.45-10.72c2.19-2.79,5.08-5.74,5.63-9.41C428.67,476.71,421.77,473.28,416.9,477.27Zm5.89,8.07c-2.36,3.84-5.61,7.3-8.39,10.84-.25.32-.53.64-.82,1,.77-3.78,1.66-7.55,2.74-11.25.69-2.34,1.65-5.7,4.32-6.49C424.83,478.16,424.06,483.28,422.79,485.34Z" transform="translate(0 0)"/><path class="cls-3" d="M447.94,474c0-2.24-3.38-1.86-3.45.32a104.88,104.88,0,0,1-1.44,15.52,33.38,33.38,0,0,1-2.89,8.09.71.71,0,0,0-.15-.08c-1.74-.69-2.44-7-2.87-8.72-.86-3.41-2.27-7.15-1.39-10.67.53-2.13-2.79-2.7-3.34-.6-1.15,4.32.51,9,1.54,13.16.74,3,1,8.91,4.5,10.15a1.92,1.92,0,0,0,.3.08q-.33.87-.6,1.77c-1.3,4.3-1,8.83-.6,13.24.46,5.19.84,10.44,1.59,15.61a1.86,1.86,0,0,0,3.71-.34c-.36-5.21-1-10.41-1.51-15.62s-.65-10.09,1.71-14.88C447.23,492.56,447.93,483.35,447.94,474Z" transform="translate(0 0)"/></g></g></svg>