<?xml version="1.0" encoding="utf-8"?>
<!-- Generator: Adobe Illustrator 22.1.0, SVG Export Plug-In . SVG Version: 6.00 Build 0)  -->
<svg version="1.1" id="Layer_1" xmlns="http://www.w3.org/2000/svg" xmlns:xlink="http://www.w3.org/1999/xlink" x="0px" y="0px"
	 viewBox="0 0 470 686.5" style="enable-background:new 0 0 470 686.5;" xml:space="preserve">
<style type="text/css">
	.st0{fill:#FFFFFF;}
	.st1{clip-path:url(#SVGID_2_);}
</style>
<polyline class="st0" points="430.4,4.3 430.4,681.4 39.6,681.4 39.6,4.3 430.4,4.3 "/>
<g id="Layer_2_1_">
	<g id="Layer_16">
		<g>
			<defs>
				<rect id="SVGID_1_" x="35" width="400" height="685.7"/>
			</defs>
			<clipPath id="SVGID_2_">
				<use xlink:href="#SVGID_1_"  style="overflow:visible;"/>
			</clipPath>
			<g class="st1">
				<path d="M436.3,402.5c-18.1-5.5-35.7-12.5-52.3-21.7c-1.3-0.7-2.4-2-4.5-1.9c3.6,14.2,4.9,28.8,8.8,42.9
					c3.5,12.6,5.3,25.8,8.1,38.6c5.8,27,10.2,54.4,18.5,80.9c2.4,7.6,5.5,15,8.4,22.5c2.4,6.3,1.1,9.4-5.3,11.8
					c-7.4,2.8-15.2,3.1-22.8,3.3c-9.5,0.2-18.8,1.8-28.3,1.5c-2.3-0.1-2.5,1.3-3,2.9c-2.3,8.2-4.4,16.5-6.9,24.6
					c-3.4,10.4-7.6,20.5-12.6,30.2c-1.5,3-2.2,6.3-2.1,9.6c0.1,11.8,2.1,23.3,4.7,34.8c0.2,1.1,2.3,3.3-0.7,3.7
					c-2.1,0.3-4.3,0.8-5.1-2.7c-1.9-7.3-3.3-14.8-4.2-22.3c-0.2-1.4,0.1-2.9-0.8-4.5c-2.2,1.2-2.5,3.6-3.7,5.4
					c-1.3,2-2.1,4.3-3.4,6.3c-3.2,4.9-3.7,9.8-0.6,14.9c0.6,0.9,0.8,2,0.4,3c-3.5,0-7,0-10.6,0c-1.5,0-2.4-0.4-1.8-2
					c1-2.7,0-5.2-0.8-7.8c-1.7-5.9-3-11.9-3.9-17.9c-3.3,8.9-7.2,17.5-6.1,27.7c-1,0-2.2-0.1-3.3,0c-2.5,0.2-3.6-0.3-4.4-3.3
					c-1.4-4.9-4.1-9.4-6.6-14.8c-2.5,4.2-3.8,9-3.9,13.9c0,1.4,1.2,3.9-1.1,3.9c-2.8,0.1-6.2,1.9-8.3-1.7
					c-8.3-14.4-12.2-29.3-8.3-46.3c4-17.8,10.9-34.9,20.5-50.4c5.3-8.6,10-17.6,13.8-27c1.5-3.7,2.3-7.6,2.3-11.6
					c-2.5,5.4-4.9,10.8-7.5,16.2c-7,14.2-15.6,27.6-23.3,41.4c-13.5,24.1-15.3,49.8-9.5,76.3c0.7,3.1,0,3.8-2.8,3.4
					c-0.3,0-0.5,0-0.8,0c-6,0-5.9,0-6.9-5.8c-0.6-3.5-1.5-7-2.3-10.5c-2.6-11.8-0.7-23.3,2.8-34.7c0.7-2.1,1.2-4.3,1.4-6.5
					c-5.5,9.6-10.4,19.4-12.3,30.4c-1.4,8.1-1.8,16.1,0.1,24.2c0.2,0.9,1.5,2.4-0.7,2.8c-1.4,0.2-2.7,0-2.8-1.9
					c-0.2-0.8-0.4-1.5-0.6-2.2c-0.7,2.1,0.3,4.7-3,4.3c-2.6-0.3-4.5-0.2-5.2-3.4c-1.2-5.4-2.9-10.7-4.4-16.5c-2,2.5-1.7,5-1.9,7.2
					c-0.2,3,0,6.1,0,9.2c0,3.5,0,3.5-3.4,2.3c-0.3-0.1-0.6-0.5-0.9,0c-0.8,1.3-2.4,1.7-3.7,0.9c-0.2-0.1-0.3-0.2-0.4-0.3
					c-1.1-1,0.3-2.7,0.6-4c1.5-5.9,4-11.5,4.6-18c-2.1,0.5-2.4,2.1-2.9,3.2c-2.5,5.4-4.7,11-6.5,16.7c-0.8,2.2-6.8,3.9-8.5,2.4
					c-0.8-0.7-0.2-1.5,0.1-2.1c1-2.4,2.1-4.8,3.6-8.2c-3.1,1.6-4.7,3.4-5.3,5.4c-1.5,5.2-4.9,5.9-10.2,4.7
					c6.7-5.3,8.5-13.2,11.7-20.4c-2.5,2.5-4.9,4.9-7.4,7.4c-3.7,3.7-7.3,7.4-11,11c-3,2.9-3.3,2.9-8.4,2c2.6-2.6,4.9-5.3,7.5-7.7
					c18.1-16,30.4-35.7,38.2-58.5c7.1-21,19.4-39,34.1-55.5c6.8-7.6,13.8-15.2,19.8-23.5c0.8-1.1,2-2.1,2.3-4.7
					c-2,2.4-3.3,4-4.7,5.7c-12,14.8-26.6,27.4-43,37.2c-2.7,1.6-5.4,3.3-9.1,2.5c7.6-8.8,17.9-14.6,25.6-23.2
					c-20.9,14.5-43.9,25.6-63.5,42c-8.5,7.3-15.9,15.8-21.9,25.3c-1.6,2.5-3.4,5-5.3,7.7c-1.8-1.8,0.1-3.4-0.9-5.2
					c-1.4,2.9-2.8,5.7-4.1,8.4c-0.3,0.6-0.6,1.3-1.4,1.3c-1.1-0.1-1-1.1-1.1-1.8c-0.3-3.9,0.4-7.7,1.8-11.3
					c4.1-10.8,9.5-20.8,17.5-29.3c3.7-4,6.7-8.5,9.9-12.8c5.7-7.8,13.7-13.3,21.8-18.5c10.8-6.9,21.7-13.6,32.1-21
					c2.8-2,3.4-3.1,0.7-6.3c-9-10.5-14.2-23.8-14.9-37.6c-0.1-2.8,0-5.6-0.1-8.4c-0.1-1.2,0.9-3.3-0.9-3.3c-1.6,0-2.5,1.9-2.3,3.7
					c0.4,4.1,0.8,8.2,1.4,12.3c1.4,8.3,3.6,16.4,6.6,24.3c0.8,1.7,1.1,3.6,0.9,5.5c-2.3-1.3-3.5-3.4-4.5-5.3
					c-5-9.3-7.7-19.2-9.1-29.6c-0.1-1.2,0.4-2.8-0.7-3.4c-1.4-0.8-2.3,0.9-3.4,1.6c-21.6,15-45.8,25.9-71.3,32.2
					c-2.4,0.6-2.4,0.5-5.4-0.2c1.8-2.3,4.3-2.8,6.5-3.7c16.3-6.1,32.3-12.5,47.7-20.6c7.9-4.1,15.5-8.9,22.5-14.4
					c1.6-1.3,3-2.5,3.1-4.8c0.8-27.9,15.4-47.6,37.2-63.2c2.9-2.1,6.1-3.7,8.3-6.7c-16.1,6.3-30.3,15.8-43.7,26.5
					s-22.6,25.1-31.1,39.9c6.5-25.6,23.4-42.9,46-56c-1-0.4-1.4-0.6-1.6-0.6c-12.5,3.3-25.2,6-37.3,10.2
					c-24.8,8.6-46.4,22-61.3,44.4c-4.9,7.3-7.7,15.4-10.2,23.8c-0.2,0.9-0.5,1.8-0.9,2.6c-0.4,0.9-0.8,2.4-2,2.2
					c-1.4-0.3-1.3-1.9-1.2-3c0.8-5.6,1.8-11.3,2.8-17.1c-24.6,35-48.6,70.4-79.9,100.5c-0.3-3.6-0.9-6.7,2.8-9.3
					c2.8-1.9,4.7-5,6.9-7.7c0.7-0.8,1.1-1.7,1.1-2.8l-10.5,8.1c-1.2-3.3-0.1-5.3,2.3-7.1c10-7.6,19.3-16,27.8-25.1
					c2-2.2,3.8-4.4,3.6-8.4c-10.7,9.7-21.9,18.7-33.7,27.2c-1.2-2.7-0.2-4.1,1.6-5.7c10.2-9,20.1-18.2,30.3-27.2
					c3.8-3.2,6.5-7.4,7.9-12.1c1.4-4.5,3.3-8.9,4.4-13.6c-14.8,16.8-31.8,31.7-44.3,50.7c-0.2-9.8-2-19.3,3.7-28.5
					c6.9-11.1,13.7-22.2,21.5-32.7c0.8-1.1,2-2.1,2.3-3.7c-1.3-0.9-2.3,0.2-3.3,0.6c-6.9,2.7-14.1,3.9-21.4,4.8
					c-2.7,0.3-3.2-0.6-3.4-3.2c-0.5-3.7,1.1-7.4,4.1-9.6c4.6-4,8.4-8.9,11-14.4c-4.6,2.9-9.5,5.2-14.7,6.9c-0.6-3.8,0.1-7.7,2.1-11
					c8.2-15.2,15.8-30.8,23-46.6c1.2-2.5,2.2-5.1,3.1-7.8c-8.3,9.2-16.5,18.5-27.8,24.4c-1.2-0.7-0.6-1.9-0.6-2.8
					c-0.1-2.3,0.2-4.5,0-6.8c-2.7-24.2,7.9-43.9,21.2-62.7c5.8-8.3,12.9-15.5,20.3-22.5c14.8-13.9,27.7-29.2,37.1-47.2
					c7.3-13.9,12.1-29.1,14.1-44.7c1.6-12.2,8.3-22.2,14.3-32.5c2.6-4.5,5.9-8.6,8.9-12.8c0.7-1,1.7-2.7,3.1-1.8s0.2,2.4-0.4,3.6
					c-5.6,10.1-12,19.8-16.5,30.6c-2.7,6.9-4.4,14.2-4.9,21.6c5.2-20.8,16.7-38.8,25.9-57.8c7.1-14.6,9.4-30.4,12.7-46.1
					c4.1-19.7,6.7-39.7,12.6-58.9c4.1-13.2,9.5-25.8,20.5-35c6.9-5.8,14.5-10.3,23.7-11.5c1-0.1,2.9,0.4,2.7-1.4s-1.8-2-3.4-1.8
					c-8.8,0.9-16.2,4.7-22.6,10.8c-14.4,13.5-23.9,29.8-29,48.8c-4.1,15.4-7.2,31.1-10.3,46.8c-4.1,20.6-11,40-23.3,57.3
					c-12.8,18-18.9,38.9-25.1,59.7c-6.3,21.4-17.8,40.4-30.2,58.7c-6.1,9.4-15.9,15.9-27,17.8c-2.2,0.4-5.3,1.5-6.2-0.7
					c-1-2.3,2.4-2.9,4.1-3.9c5.1-3.1,10.9-5,15.6-8.9c1.9-1.6,4-3.1,5.3-5.3c-0.4-0.2-0.6-0.4-0.8-0.4c-1.3,0-3,1.8-3.9-0.1
					c-0.7-1.5,1-2.6,2.1-3.5c1.4-1.3,2.9-2.4,4.4-3.4c7.7-4.5,11.7-11.6,14.8-19.7c8.2-21.4,11.8-43.6,12.8-66.4
					c1.3-26.6,2.8-53.2,7.8-79.4c4.4-23,13.7-43.8,26.4-63.3c7.6-11.5,15.2-22.9,26-31.7c15.9-13,33.5-22,54-25
					c4.3-0.6,7.6-0.5,10.9,3.3c4.4,4.8,9,9.5,13,14.6c3.9,4.9,3.6,9.2-1.4,12.8c-20,14.3-29.1,35.1-34.8,57.8
					c-1.5,5.9-2.4,12-3.6,18c-0.6,2.7-0.3,4.1,3.1,2.7c7-2.9,14.5-4.6,22.1-5c3.2-0.2,6.4-0.2,8.9,2.5c1,1.1,2.3,2.1,1.5,3.8
					s-2.2,1.8-3.7,1.9c-8.7,0.1-16.9,2.6-25,5.4c-7,2.4-10,6.5-10.4,14.1c-1.1,18.8-5.6,37.2-13.3,54.4c-0.7,1.6-1.2,3.4-2.2,4.7
					c-5.6,6.6-4.9,13.9-3.3,21.7c2.6,12.6,2.7,25.4-1.4,37.9c-1.5,4.8-3.8,9.4-6.6,13.6c-0.7,1-1.9,1.9-1.8,3.5
					c1.8-0.1,2.7-1.6,3.9-2.5s2.6-2.6,4.4-0.5c0.9,1.1,1.7,0,2.3-0.6c17-17.1,38.5-26.2,60.5-34.6c20.3-7.7,39.3-17.7,54.4-34
					c19.9-21.4,30.4-46.3,28-75.9c-0.3-3.3-7.5-7.3-10.3-5.7c-0.8,0.4-0.5,1-0.5,1.7c0.2,2.4-0.5,5.4,0.8,6.9s4-0.6,6.2-0.9
					c0.8-0.1,1.7-0.4,2,0.6s-0.3,1.5-1,1.9c-2,1.3-4.3,2.2-6.6,2.7c-6.3,1.4-12.8,1.9-19.7,2.7c2.2,2.1,4.6,1.7,6.6,2.4
					c0.8,0.3,2.1,0.3,1.9,1.6c-0.1,0.9-1.1,0.9-2,1c-3.7,0.1-7.4-0.6-10.1-2.9c-3.3-2.9,1.3-3.5,2-5.3c0.3-0.7,2.4-0.2,1.6-1.9
					c-0.3-0.6-0.7-1.4-1.2-1.5c-1.3-0.4-1.8,0.9-2.5,1.6s-1.1,1.5-1.8,2.1c-0.6,0.6-1.6,0.6-2.2,0.1c-0.7-0.5-0.9-1.4-0.4-2.1
					c0.5-1.1,1.2-2,2-2.9c9.4-9.6,20.3-14.5,34.5-9.6c-0.8-4.5-1-8.6-2.3-12.5c-1.1-3.4-5-4.4-7.9-4.2c-10.1,0.4-19.7,3.5-28.7,8
					c-0.8,0.4-1.5,1.2-1.7,2.1c-4.7,15.9-11.9,31.1-14.9,47.6c-1.9,10.7-3.1,21.7-6.8,32c-7.8,21.9-21.6,38.6-42.6,49
					c-7.9,3.9-16.5,5-25.3,4.7c-0.8,0-1.6-0.1-2.4-0.3c-1-0.3-2.5-0.4-2.6-1.5c-0.1-1.6,1.6-1.6,2.6-1.7c3.6-0.5,7.1-0.7,10.7-1.1
					c18.8-2.4,32.4-12.9,42.9-27.7c7.6-10.7,12.5-23.1,14.2-36.1c2.7-20.7,8.5-40.6,14.7-60.4c6.3-20,5.9-40.5,2.9-60.9
					c-1.6-11.1-7-19.8-18.4-23.5c-0.9-0.2-1.7-0.8-2.3-1.5c-4.5-7.5-12.8-10.7-18.9-16.3c-0.8-0.7-1.6-1.4-2.4-2.1
					c-2.3-2.6-1.8-4.9,1.6-6.1c2.5-0.9,5.2-1.3,7.9-1.4c42.7-0.9,72.2,19.8,91.7,56.5c4.6,8.7,7.4,18.3,11.8,27.1
					c8.5,16.8,11.3,35.1,16.6,52.8c2.4,7.8,2.9,16,3.5,24.1c1.7,22.2,3.1,44.4-1.7,66.4c-0.9,4-2,8-3,12c-0.3,1.2-1.1,2.7,0.6,3.5
					c3.9,1.9,4.2,5.6,4.6,9.2c0.5,3.8,0.3,7.7-0.4,11.5c-0.3,1.2-0.2,2.4,0.2,3.5c2.1,6.5,2.4,13.5,0.6,20.1
					c-0.6,2.3-0.5,4.6,0.4,6.8c1.5,4.2,0,8.7-0.9,13c-0.4,1.7-0.9,3.2,0.8,4.6s1.4,3.7,1.2,5.7c-0.7,5.8-1.4,11.6-2.2,17.4
					c-0.4,1.8,0.4,3.8,2.1,4.6c19,12.2,40,19.9,60.8,28.2c0.5,0.1,1.1,0.1,1.6,0L436.3,402.5z M240.6,596.9c-1.5,0.4-1.8,1.9-2.4,3
					c-3.7,6.5-6.8,13.3-9.3,20.3c-0.7,2-1.9,4-1.9,6.2l1,0.4C232.1,616.7,236.3,606.7,240.6,596.9c5.8-8.3,11.5-16.7,17.6-24.7
					c-5.1,5.3-9.6,11-13.5,17.2C243.1,591.7,240.8,593.7,240.6,596.9z M335.6,303.8c-11.9,15.9-24.2,31.5-38.9,44.8
					s-28.1,27.7-47.1,37c0.9-3.3,2.7-4.3,4.1-5.6c11.2-9.9,22.5-19.5,33.6-29.5c21.6-19.5,40-41.6,53.5-67.6
					c1.2-2.3,2.1-4.6,3.2-6.9c-0.8,0.1-1.5,0.5-2,1.1c-14.3,17.6-31,33.1-49.7,45.9c-9.5,6.5-20.9,10.7-27.7,21
					c0.5-2.5,0.6-5.5,2-7.3c3.7-4.4,6.7-9.3,10.2-13.8c12-15.1,26.2-28,40-41.2c15.2-14.6,28.4-30.7,36.7-50.3
					c2.5-5.9,3.3-12.1,3.6-19c-14.4,32.5-36.9,57.3-65.4,77c6.8-8.5,16-14.8,22.5-23.6c-8.5,5.6-18.1,9.2-27,14
					c-2.1,1.2-4.1,2.4-6.1,3.8c-22.6,15.5-38,36.9-50.2,61c-8.9,17.6-13.5,36.6-18,55.7c-0.3,1.2-0.1,2.8-2,4
					c0.3-10.2,1.9-20.3,4.8-30c10.6-36.1,28.8-67.3,58.7-91c-9.1,3-17.9,6.6-26.5,10.9c-1.7,0.8-3.5,1.5-4.8,2.8
					c-10.9,11.1-19.9,24-26.5,38.2c-0.5,1.1-1.7,2.4-0.4,3.6c1.6,1.5,0.4,2.7-0.2,3.9c-6,12-12,24.1-18.1,36
					c-6,11.8-14,22-25.4,29.2c-7.7,4.8-16,8.5-24.7,11.1c-1.7,0.5-4,0.8-4.6,2.7c-2,6.2-3.8,12.6-5.6,18.9c1.6,0.2,2.4-0.6,3.3-1.2
					c21.5-14.6,45.1-25.8,70-33c10.5-3,21.2-5.3,32-6.9c10.9-1.6,20.9-4.1,29.3-12.6c23.3-23.6,45.4-48,60.6-77.8
					C333.8,307.2,334.7,305.5,335.6,303.8L335.6,303.8z M379.4,412.8c0.3,4.5,0.7,9,0.9,13.5c0.7,16.3-0.2,32.5-1.3,48.7
					c-1.2,17.3-2.3,34.5-5.3,51.6c-2.6,14.9-4.8,29.9-7.2,44.9c-0.3,1.6-1.1,3.5,1.9,3.6c13.9,0.1,27.7-0.1,41.4-2.8
					c9.7-2,9.6-2.3,6.1-11.3c-12.7-32-18.1-65.9-25.1-99.3C387.3,445.2,384.2,428.8,379.4,412.8L379.4,412.8z M325.8,204.4
					c-0.5,1-1.1,2.1-1.7,3.1c-11.9,21.5-30,38.9-52,49.9c-12.2,6.2-24.5,12.2-36.9,18c-17.4,8.1-32.7,19.3-44.8,34
					c-10.7,13-18.6,27.8-24.5,43.7c-2.2,5.8-4.4,11.8-7.8,17c-7,10.8-8,23.3-11.1,35.2c-0.6,2.2,0.2,2.8,2.2,1.8
					c3.9-1.8,7.4-4.1,9.8-7.9c4.3-7.1,8-14.4,11.3-22c10.9-24.5,22.8-48.5,42.9-67.2c0.6-0.6,1.9-1.4,1.3-2.2
					c-1.7-2.1,0.4-2.9,1.2-3.9c5.7-6.6,12.6-11.8,19.9-16.4c11.9-7.4,24.8-12.8,37.3-19c31-15.5,53.1-39.1,65.4-71.7
					c4.1-10.5,6-21.6,5.8-32.8c-0.3-9.4,0-18.8-2.2-29c-1,3.9,0.2,6.7,0.4,9.5c0.8,18.3-2,36.5-8.1,53.8c-9.4,27-26.2,48.2-51,62.8
					c-1.8,1.1-3.6,2.4-6.1,1.9C296.9,246.4,316.9,230,325.8,204.4z M237.7,55.4c-0.5-0.2-0.8-0.3-1-0.3c-0.7,0.1-1.3,0.3-1.9,0.5
					c-19.9,5.9-32.3,19.9-40.3,38.2c-7,16-8.2,33.2-9.2,50.4c-1.2,20.5-6.1,39.9-16.9,57.6c-5.5,9-11.1,17.8-15.6,27.4
					c-8.1,17.1-13.2,34.8-12.3,53.9c0.1,1.1-0.5,2.8,1,3.1c1.3,0.2,2.4-1,3.2-2s0.6-2.3,0.8-3.5c1.4-11.3,3.4-22.4,9.4-32.3
					c4.5-7.4,9.4-14.5,14.9-21.2c5.9-7.3,10.8-15.2,14.6-23.8c6.2-13.7,8-28.4,9.7-43c2.7-23.6,6.5-46.9,15.4-69.2
					c5.4-13.4,12.4-25.3,25.2-33C235.8,57.7,237,57.1,237.7,55.4L237.7,55.4z M290,410.1c-0.5,0.1-1.1,0.2-1.6,0.3
					c-0.5,0.2-0.9,0.5-1.4,0.8c-16.8,10-28.4,24.6-37.4,41.7c-11.8,22.4-9.3,44.4,2.1,66c2.3,4.3,2.6,4.2,5.5,0.4
					c13.1-17.2,18.9-37.2,22.3-58.2c2.5-15.5,4.5-31.2,14.5-44.3c0.2-0.2,0-0.7,0-1.1c-0.3,0.1-0.6,0.2-0.9,0.4
					c-18.8,16.3-29.7,36.9-33.5,61.4c-1.4,9-0.9,18.1-1.6,27.1c-0.1,1.2,0.3,2.7-1.1,3.6c-3.2-4.4-5.3-15.3-3.6-29.9
					C256.4,451,269.1,428.8,290,410.1L290,410.1z M119.4,214.5c3.3-8.5,7.5-16.6,12.4-24.2c5-8,10.6-15.4,13.2-25.1
					c3.4-12.4,6.4-24.6,7.4-37.4c2.2-26.1,10.5-49.6,29.8-68.3c0.7-0.7,1.7-1.3,1.6-2.6c-1.8,0.5-3,1.7-4.3,2.8
					c-22.3,18.1-36,42.3-46.6,68.2c-8.8,21.6-11.1,44.8-13.1,68C119.2,202,118.5,208.2,119.4,214.5z M43.8,465.3
					c2.2-0.3,2.9-1.4,3.9-2.2c16.5-12.9,26.5-30.9,36-48.9c10.9-20.8,19.6-42.8,29.2-64.3c0.1-0.2-0.1-0.6-0.3-1.3
					c-1.6,1.4-3.1,2.5-4.4,3.8c-9.5,9.4-18,19.6-24.6,31.3c-7.9,14-14.6,28.7-21,43.5C57.1,440.2,50.8,452.9,43.8,465.3z
					 M156.7,325.9c-0.6-1.3,0.8-3.4-0.8-4.2s-2.7,1.3-3.8,2.3c-4.4,4.3-8.9,8.5-13,13c-13.9,15-23.6,33.5-28,53.4
					c-0.8,3.3,0.5,3.7,3.3,3c9.1-2.3,15.9-7.7,21.3-15.2c5.7-7.9,9.4-17,14.4-25.3S155.8,335.4,156.7,325.9z M150.7,158.2
					c0.9-0.5,1.2-0.5,1.4-0.7c8.5-13.7,14.7-28.6,18.4-44.3c2.8-12.2,6.2-24.4,12.6-35.2c10.1-17.1,23.2-31.2,43.3-36.7
					c0.8-0.2,2-0.3,1.5-2.3c-10.4,2.4-21,3.3-30.1,10.3c-16.5,12.8-29.7,27.7-36.1,48c-2.7,8.4-4.6,17-5.6,25.7
					C154.9,134.5,154.8,146.4,150.7,158.2L150.7,158.2z M366.5,350.5l-11.9,15.4c-21.1,27.3-39.5,56.1-49.5,89.6
					c-5.3,17.8-11,35.6-18.9,52.5c-2.9,6.3-6.1,12.6-9.4,19.2c1.7-0.7,2.2-2,3-3c16.5-20.8,26.8-44.8,33.6-70.1
					c6.5-24,16.7-45.6,32.5-64.7c7.6-9.1,14.6-18.7,18.7-30C365.6,356.9,367,354.2,366.5,350.5z M276.2,55.5
					c10,9,13.1,20.9,14.1,33.4c0.8,10.7,0.8,21.5,0,32.3c-0.3,4-0.2,4.1,3.7,2.7c8-2.9,16.1-5.6,24.7-5.7c3.4,0,3.3-1.3,2.4-3.8
					c-7.5-20.3-18.5-38.3-34.5-53C283.7,58.7,280.6,56.1,276.2,55.5L276.2,55.5z M110.2,276.2c2.6-4.2,3.9-8.9,5.2-13.6
					c5.6-21.4,13.2-41.9,26.3-60c9.8-13.5,15.7-28.6,19.3-44.8c0.9-4.1,2.3-8.3,2.3-12.8c-1.6,0.6-1.7,1.7-2.1,2.6
					c-7.3,14.1-14.5,28.1-24.1,40.9c-4.9,6.5-8.4,13.8-11.8,21.2C115.7,230.9,114.8,253.9,110.2,276.2L110.2,276.2z M348.5,142.6
					c0,4-0.2,7.9,0,11.9c0.7,12.2,0.3,24.3-3.2,36c-9.8,33-29.8,58.1-59.3,75.8c-12.4,7.4-25.8,12.6-38.4,19.5
					c-1.4,0.8-3,1.2-3.7,2.9c14.3-8,29.8-12.8,44.9-18.8c10.9-4.3,21-9.9,29.5-18c15.7-15.2,25.4-34,31.1-54.9
					C354.4,178.9,352.6,160.7,348.5,142.6z M234.8,50.1c-7.6-0.2-15,1.9-21.4,6c-13.1,8.1-20.1,20.5-24.8,34.6
					c-6.7,20.2-9.8,41.1-13.5,61.9c-4.1,23-10.4,45-22.2,65.4c-6.5,11.3-12.1,23.1-15.3,35.9c-2.8,11-5.1,22.1-3,33.5
					c0.2,1-0.4,2.9,1.5,2.6c1.5-0.2,1.2-1.9,1.1-3c-0.4-3.7-0.6-7.4-0.5-11.2c0.8-19.1,6.7-36.9,15.6-53.6
					c4.4-8.2,9.4-16.1,14.1-24.1c10.5-17.5,14.4-36.8,15.5-56.9c0.8-13.2,1.9-26.3,5.8-39c7.1-23.5,20.7-41.2,44.3-50
					C233,52.1,234.2,52,234.8,50.1z M129.5,318.1c-2.1-3.5-2.1-7.4-2.5-11.1c-0.3-3.2-1.3-3.3-3.6-1.6c-2.4,1.8-5,3.5-7.5,5.3
					c-16.6,12.1-29.7,27-36.9,46.5c-0.4,1.2-1.3,2.5-0.7,4.3c1.1-0.9,1.9-1.5,2.7-2.2c11.2-10,22.9-19.5,35.1-28.4
					c7.2-5.3,14.2-10.8,21.3-16.2c1.1-0.9,2.7-1.8,1.4-3.5c-2.1-3.1-3.8-6.4-4.9-10c-0.3-0.7-0.5-1.7-1.6-1.3c-0.9,0.3-0.9,1.2-1,2
					c0,3.6,0,7.2-0.1,10.8C131.3,314.6,131.6,316.6,129.5,318.1L129.5,318.1z M237.7,463.5c-4.2,5.3-8.7,10.3-11.8,16.3
					c-0.3,0.7-0.5,1.5-0.5,2.3c-3.1,19.7,2.1,37.4,12.9,53.8c1,1.5,1.8,1.9,3.1,0.6c2.9-2.9,5.8-5.8,8.7-8.8c1.1-1.2,1-2.2,0-3.5
					c-11.4-13.9-14.6-30.4-14.1-47.8C236.1,472.1,237.1,467.9,237.7,463.5L237.7,463.5z M232.9,302c-2.4,1.6-4.8,3.1-7.1,4.8
					c-17.1,12.2-27,29.5-34.4,48.5c-6,15.4-12.2,30.7-22.8,43.7c-0.3,0.7-0.6,1.4-0.7,2.1c2.3-2,3.7-3.2,5.1-4.5
					c13.6-12.8,22.9-28.6,32-44.6c4.9-8.7,8.1-18.2,13-27C222.4,317.1,228.2,310.1,232.9,302z M321.9,540.2c-0.6,3.7-1.1,7.3-1.8,11
					c-2.9,16.1-10.8,30-19.4,43.5c-12.1,19-17.9,39.6-18.8,61.8c-0.3,4.6,0.2,9.1,1.6,13.5c1.6-5.6,5.3-9.3,3.9-14.6
					c-1.7-6.2-0.8-12.5,0.9-18.5c3.6-13.2,11-24.5,18.8-35.5C320.1,582.9,324.5,562.4,321.9,540.2z M40.7,537.5
					c26.6-23.7,49.1-51.7,66.5-82.7c-1.3,0.8-2.4,1.8-3.4,3c-6.3,7.2-12.6,14.6-20.6,19.9c-7.4,4.9-12.9,11.4-17.9,18.5
					c-3.5,4.9-7,9.7-10.3,14.7C49.5,519.3,44.1,527.9,40.7,537.5z M41.3,488.6c1.7-0.8,2.8-1.1,3.8-1.7c13.3-7.1,24.9-17.1,34-29.1
					c12.7-16.7,18.4-36.3,23.8-56.1c0.4-1.5,0.6-2.9-1.6-3.4c-2-0.4-3.7-1.1-4.8,1.7c-2.4,6.5-5.3,12.8-7.5,19.3
					c-8.7,24.8-22.2,46.4-42.1,63.8C45.1,484.8,43,485.9,41.3,488.6z M294,536.1c-9.7,17.7-21.8,33.6-34.3,49.2
					c-11.4,14.3-20.8,29.7-26.4,47.1c-0.7,2.2-2.5,5.7-0.5,6.4s2.9-3.2,3.8-5.2c6.4-14.1,14.9-27.1,25.2-38.6
					c13.5-14.8,24.5-31.2,30.7-50.4C293.5,541.9,294.6,539.1,294,536.1z M343,558.3l1.1,0.3c1.2-5,2.6-9.9,3.7-14.9
					c1.8-8,4.7-15.7,4.6-24.2c-0.2-18.3-4.9-36.1-4.3-54.4c0,0-0.2-0.1-0.7-0.3C336.5,495.5,343.4,527.1,343,558.3L343,558.3z
					 M358.4,351.7c-6.6,6.2-13.7,11.7-18.8,19.3c-9.4,13.9-18.1,28.2-25.8,43.1c-8.6,16.7-16.8,33.6-21.8,51.8
					c-5.3,19.3-13.4,37.3-23,54.7c-2,3.3-4.1,6.5-6.4,9.6c-1,1.1-1,2.8,0.1,3.9c0.1,0.1,0.2,0.2,0.4,0.3c1.7,1.4,2.3-0.5,3-1.4
					c1-1.2,1.9-2.6,2.8-3.9c11.4-18.2,19.5-37.9,25.4-58.4c10.8-37.4,27.4-71.8,51.5-102.4C350.1,362.8,354.2,357.2,358.4,351.7
					L358.4,351.7z M77.5,348.3c-1.7-0.2-2.2,0.9-2.9,1.6C58,366.3,46.8,386.1,40,408.3c-1.7,6-2.4,12.3-2,18.6
					c3.5-3.5,5.9-7.9,6.8-12.7c3.4-17.6,13-31.8,25.3-44.4c1.2-1.2,2.8-2.3,3.1-4.1C74.1,359.8,75.6,354,77.5,348.3L77.5,348.3z
					 M363.6,278.9c-11.5,34.4-30.9,62.8-54.6,88.7c1.5-0.6,2.9-1.5,4.1-2.5c14.3-11.6,26.8-25.2,37.2-40.3
					c7.4-10.6,12.5-22.2,14.4-35.1C365.3,286.4,365.6,283.1,363.6,278.9L363.6,278.9z M330.3,551.3c5.8-29.2,2.7-58.9,6.1-88.2
					c-4.4,8.3-8.3,16.5-10,25.6c-1.6,9.2-1.7,18.6-0.1,27.8C328,528.1,329.8,539.6,330.3,551.3z M276.4,329.1c3.2-1,4.9-2.8,6.9-4.3
					c23.4-17,44.1-36.7,59.8-61.3c3.3-5.2,6.4-10.6,7.8-16.7c-0.6,0.3-1.1,0.8-1.5,1.3c-7.3,13-17.2,23.9-27.7,34.4
					c-12.7,12.6-26.5,24.3-38.5,37.6C281,322.8,278.4,325.2,276.4,329.1z M336.1,552.4c-1.5,3.2-1.7,6.2-2.3,9
					c-3.5,15.6-10.3,29.8-16.8,44.3c-3.9,8.7-7.6,17.4-9.3,26.9C328.8,610.2,338,583.6,336.1,552.4z M313.9,402.2
					c-11.2,8.3-19.8,18.5-24.2,31.8c-3.9,12-4.5,24.6-6.9,36.8c-0.4,2-0.9,3.9-1.2,5.9c-0.3,1.8-1.4,3.5-0.4,5.5
					C288.9,454.4,299.9,427.5,313.9,402.2z M159.4,624.6c0.4-0.8,0.6-1.1,0.8-1.5c8.9-16.1,21.6-28.6,36.8-38.6
					c15.7-10.3,31.6-20.3,47.3-30.5c5.7-3.9,11-8.5,15.6-13.6c1.2-1.3,2.6-2.5,0.7-4.3s-2.8,0.2-3.6,1.3
					c-8.2,10-18.5,17.5-29.4,24.2c-11.3,6.8-22.8,13.2-33.8,20.5c-14.4,9.5-26.1,21.4-33.2,37.4C160,620.9,158.8,622.2,159.4,624.6z
					 M323.5,666.1c5.7-11.8,14.2-21.5,12.4-35.1c-0.5-3.8,0.2-7.7,0.3-11.6c0-1.6,0.6-3.3-0.1-5.1
					C323.7,627.7,318,650.3,323.5,666.1z M294.6,372c35.6-34.8,62.3-74.6,70.4-124.8C350.4,293.7,329.5,336.8,294.6,372z
					 M367.9,308.4c-14.1,28.5-36.4,49.6-61.3,68.4c1.1,0.7,1.6,0.1,2.1-0.1c22.3-11.5,39.8-28.2,53.5-49.1
					C366,322,368,315.2,367.9,308.4L367.9,308.4z M358.5,503.8c4.8-10.9,5.8-55,1.7-65.3C352.3,459.9,354.2,481.5,358.5,503.8
					L358.5,503.8z M56.6,487.3c6.4-2,13-3.5,17.4-9.4c6.4-8.7,12.9-17.3,19.3-26c6.2-8.5,11.8-17.4,17.3-26.4c0.6-1,2.1-2.1,0.6-3.4
					c-2.4-2.1-6.1-1.8-8.2,0.7c-0.5,0.5-0.8,1.2-1,1.8c-4.8,14.8-11.7,28.5-21.6,40.7C73.5,473.7,65.3,480.7,56.6,487.3z
					 M84.1,471.6c6.6-3.9,11.7-9.3,16.8-14.7c8.3-8.9,15.8-18.3,21.3-29.2c0.5-1,2.1-2.2,0.4-3.4c-2.2-1.6-7.1-0.2-8.6,2.2
					c-4.1,6.7-8.1,13.4-12.5,20C95.8,454.9,89.9,463.2,84.1,471.6z M52.5,415.2c9.1-7.6,16.1-17,22.2-27
					c6.7-11.1,13.9-21.7,22.7-31.3c5-5.5,10.4-10.5,16.2-15.1c-1.3-0.3-2.6,0.1-3.7,0.9c-11.4,9.9-25.7,17-31.9,32
					c-0.4,0.8-0.9,1.6-1.4,2.4C68.6,389.9,61,402.8,52.5,415.2z M152.3,277.8c1.5-0.1,2.9-0.8,3.9-1.9c8.1-7.2,14.1-16.5,17.3-26.9
					c1.1-3.4,1.6-6.6,5.6-7.8c1.7-0.5,1.1-2.1,0.6-3c-1-1.5-1.7,0-2.4,0.6c-3.3,2.9-6.4,6-9.9,8.7
					C157.6,255.2,154.8,266.1,152.3,277.8z M113.1,458.8c0.4,0.1,0.7,0.1,1.1,0c1-0.3,2-0.8,2.9-1.4c6.3-5.2,13.5-9.5,15.6-18.4
					c0.9-4,2.6-7.8,3.8-11.7c0.4-1.5,2.1-3.8,0.1-4.5c-2.3-0.8-4.9,0-6.3,2.1c-0.4,0.6-0.7,1.1-0.9,1.8c-4.9,9.9-9.9,19.6-15.4,29.2
					C113.3,456.7,112.5,457.5,113.1,458.8z M120.8,464c-3.6,3.4-7.1,6.9-10.7,10.3c-10.4,9.8-20.2,20.1-24.3,34.4
					c-0.4,1.3-1.7,2.4-0.6,4.5C98.6,497.8,111.5,482.2,120.8,464z M342.9,626c6.8-11.3,18.8-52.1,17.2-57.5
					c-3.1,8.6-6.5,16.9-11.3,24.4c-3.8,5.6-5.8,12.2-5.8,19C343,616.5,342.2,621.3,342.9,626z M176.6,254.3l-1.6,3.6
					c-4.1,9.1-9.2,17.6-17.5,23.4c-4.5,3.1-4.9,6.8-3.9,11.3c0.2,0.8,0.3,1.6,0.5,2.3c0.3,1-0.2,2.4,1.1,2.7c1,0.2,1.6-0.9,2.2-1.5
					c5-5,9.2-10.8,12.4-17.1C173.6,271.3,176.3,263.1,176.6,254.3z M257.1,41.4c1.7,2.5,3.5,2.2,5.2,2.4c12,1.9,23.1,5.6,32.1,14.5
					c17.7,17.1,30.4,38.7,36.9,62.4c0.3,1.1,0.1,3.3,2,2.8s0.7-2.3,0.4-3.4c-2.1-7-4.8-13.8-8.1-20.3c-3.4-7-8.1-13.2-10.4-20.9
					c-1.2-4.2-5.1-7.7-8-11.3c-9.4-11.4-20.3-20.7-35-24.4C267.3,41.7,262.2,41.1,257.1,41.4z M362.8,379.2
					c-3.7,24.9-12,48.5-19.1,72.4C355.9,434.8,366.3,396.7,362.8,379.2z M240.4,678.1c0-1.5,0-2.9,0-4.4c-0.9-20.5,7.5-38,18.5-54.2
					c5.9-8.6,10.3-17.9,15.9-26.6c0.2-0.3,0.4-0.7-0.5-0.9C253.1,616.8,236.7,643.5,240.4,678.1z M249.8,427.4
					c-18.1,10.1-35,38.1-32.5,53.5c3-1.4,4.1-4.1,4.7-7c3.5-16.1,12-30.7,24.3-41.7C247.6,431,249.2,429.9,249.8,427.4z M135,332.8
					c-6.4,3.1-10.2,7.6-13.5,12.5c-9.9,14.8-14.9,32-22.2,48.1c-1,2.1,0,2.5,2,2.3c2.4-0.2,3.4-1.5,3.9-3.8c4.1-21.3,14-41,28.6-57
					C134.2,334.2,134.6,333.5,135,332.8z M140.4,380.1c-2,0.5-2.5,2-3.4,3.1c-5.7,7.3-13.8,12.4-22.8,14.4c-5.5,1.3-6.4,2.5-6.2,9
					c4.8-3,10.2-4.8,15.1-7.3c4.9-2.4,9.5-5.5,13.4-9.3C139.3,387.5,140.7,383.8,140.4,380.1L140.4,380.1z M203.8,289.2
					c-16.9,8.5-43.2,43.3-43.9,56.9c3.3-1.2,3.2-1.3,4.8-4.6c8.5-17.5,17.8-34.5,33.3-47.1C199.9,292.7,201.8,290.9,203.8,289.2
					L203.8,289.2z M111.2,416.1c-0.9-1.5-3.5-1.5-3-3.1s2.8-1,4.3-1c4.7,0,9.3,0.3,13.9,0.4c1.4,0,3.1,0.2,3.8-1.4
					c1.4-3.2,3.1-6.4,3.8-10.6l-5,2.7c-5.3,2.9-10.8,5.9-16.9,5.2c-5-0.5-6.2,1.7-7,5.6c-0.4,1.8-0.2,2.9,1.9,2.8
					C108.4,416.6,109.8,417.2,111.2,416.1z M293.5,649.3c4.1-3.5,6.8-8.3,7.8-13.6c1.4-7.5,4.1-14.7,6.1-22
					C300.5,624.7,293.4,635.6,293.5,649.3z M136.4,449c17-6.9,32-17.3,47.3-27.2C166.7,428.8,151.3,438.4,136.4,449z M226.1,637.6
					c-6.6,11.5-13.8,22.7-19.2,35.6C213.5,670,226.6,645.6,226.1,637.6z M284.8,614c-8.1,15.1-15.6,43.5-7.4,54.5
					C276.1,649.6,278.4,631.5,284.8,614z M112.7,304.9l0.9,0.8c3.9-2.8,7.8-5.5,11.7-8.4c0.4-0.4,0.6-0.9,0.7-1.4
					c0-5.2,0-10.4,0-15.6l-1.2-0.1C121.4,288.8,117.4,297,112.7,304.9z M160.1,331.1l1.2,0.2c4.3-9.3,9.4-18.1,15.4-26.4
					c-5.4,3.8-10.5,7.9-15.5,12c-0.7,0.6-1.2,1.5-1.2,2.4C160.1,323.2,160.1,327.1,160.1,331.1L160.1,331.1z M356.4,556.4
					c3.8-8.8,9.5-44,8.4-47.4C357.7,523.8,359.2,540.5,356.4,556.4z M195.8,422c15.4-4.8,31.4-7.4,46.6-12.8
					C226.2,411,210.1,413,195.8,422z M161.5,305c10.6-8.9,17.9-19.7,18.6-34.1C175.9,283.4,168.1,293.8,161.5,305z M316,539.6
					c1.9-17.3,0.5-34.8,2.1-52.1C313.4,499,314.7,512.4,316,539.6z M211.7,564.2c15.6-8.2,31-16.7,41.7-31.5
					C241.1,545.3,226,554.2,211.7,564.2L211.7,564.2z M368.7,410.7c-3.9,13.1-2.2,26.2,0,39.3V410.7z M304.8,535.5
					c3.8-12.8,1.4-25.8,2.1-38.8C303.2,509.5,305.3,522.6,304.8,535.5z M245.3,440.8c-7.3,7.1-13,15.2-15.3,25.3
					C236.2,458.4,241.3,449.9,245.3,440.8L245.3,440.8z M272.3,555.9c10.7-10.6,19.3-22.6,24-37.1
					C288.8,531.5,281.7,544.4,272.3,555.9L272.3,555.9z M314.8,635.9c-8.4,7-13.6,14.3-11.6,25.6c2.9-8,6.5-15.8,10.7-23.3
					C314.2,637.5,314.6,636.7,314.8,635.9L314.8,635.9z M307.8,147.8c-5.6,2-6.5,3.6-5,6.7c2,3.9,5.4,2.6,8,1.8
					c3-0.9,3.7-3.9,2.8-6.9c-0.4-1.1,0.4-3.4-2.1-3c-3.2,0.6-0.4,2-0.3,3c0.2,1.5-0.7,2.9-2.1,3.5c-1.3,0.5-2.8,0.7-3.6-0.6
					c-1.2-1.8,0.9-2.1,1.7-3C307.5,148.8,307.7,148.3,307.8,147.8L307.8,147.8z M71,378c-7.3,6-16.9,21.4-16.8,26.7
					C60.4,396.2,66,387.3,71,378z M144.5,291.5c-1.7,0.7-2.9,1.8-2.3,3.9c0.7,2.7,1.4,5.4,2.4,8c0.4,1.1,0.3,3.5,2.5,2.7
					c1.7-0.4,2.8-2.2,2.3-3.9c0-0.2-0.1-0.4-0.2-0.5c-1.1-2.9-2-5.7-3-8.6C145.9,292.3,145.6,291.5,144.5,291.5L144.5,291.5z
					 M337.3,154.9c0.4-9.1-0.2-18.1-1.8-27.1c-0.1-0.8-0.5-1.7-1.4-1.5c-1.4,0.2-1,1.4-0.8,2.2C335.1,137.2,335.8,146.1,337.3,154.9
					z M103.3,474l0.8,0.8c3.1-3.2,6.2-6.4,9.2-9.7c0.9-1,3.2-2.2,1.2-3.8c-1.6-1.3-3.5-0.5-4.7,1.5L103.3,474z M260,420
					c9.3-5,18.2-10.7,26.7-17C277.1,407.4,268.1,413.2,260,420z M334.2,421.7c-4,6.4-7.5,12.9-8.6,20.4
					C329.4,435.7,332.8,429.1,334.2,421.7L334.2,421.7z M344.9,418.5c2.5-6.2,3.8-12.8,3.8-19.4c-1.6,1.8-5,3.4-3.5,5.5
					s1.1,3.8,0.8,5.8C345.6,413.1,345.3,415.9,344.9,418.5L344.9,418.5z M144.6,378.6c2.3-2.9,4.9-10.8,4.8-14.2
					C143.7,372.1,143,374,144.6,378.6z M143.1,397c-1.6,3.6-3.3,7.1-4.9,10.7c-0.4,1-1.9,2.3-0.3,3s2.9-0.4,3.4-2
					C142.4,405,143.4,401.1,143.1,397z M137.8,454c-7.2,1.1-9,5.8-10.2,11.1L137.8,454z M136.8,299c1.2,3.2,2.5,6.9,3.9,10.6
					c0.2,0.5,0.6,1,1.2,0.8c1-0.4,0.9-1.2,0.6-2c-1.2-3.5-2.4-7-3.6-10.5c-0.2-0.6-0.5-1.4-1.3-1.3
					C136.8,296.6,136.8,297.5,136.8,299L136.8,299z M176.3,376.6c2.3-3.5,4.4-7.1,5.2-11.3C179.2,368.7,177.4,372.5,176.3,376.6
					L176.3,376.6z M297.5,656.7c-2.8,2.8-2.1,4.8-0.4,6.8C297.9,661.3,298,659,297.5,656.7z"/>
				<path d="M216.1,179.4c3.1-1.5,2.5-2.4,0.6-4.2c-2.5-2.3-4.3-4.7-7.4-1.2c-0.3,0.4-1,0.5-1.4,0.2c-0.1-0.1-0.2-0.2-0.3-0.3
					c-0.4-0.7,0.3-1.3,0.7-1.7c5-4,10.1-8,16.8-8.6c6.2-0.7,12.5-0.2,18.6,1.4c1.8,0.5,4.5,0.4,4.7,2.8c0.2,2.2-2.1,3.2-3.9,4.2
					c-6.6,3.7-13.7,5.7-21,7.3C221.4,179.7,219.2,180.8,216.1,179.4z M223.9,167.7c1.7,0.8,4-0.1,4,2.3c0,1.4-1.1,2-2.4,2.4
					c-1.7,0.6-3.6-0.1-4.5-1.6c-0.2-0.3-0.3-0.7-0.4-1.1c-0.3-1.8-1.4-1.3-2.3-0.8c-1.6,0.7-0.8,1.7-0.1,2.5c2,2.2,4.7,2.9,7.5,3.2
					c0.9,0.1,1.9,1,2.5-0.1c1.1-2.1,2.7-4.5,2-6.7c-0.6-1.9-3.3-0.6-5-0.8C225,167,224.8,167.3,223.9,167.7L223.9,167.7z
					 M241.8,169.2c-7.3-3-8.5-2.4-8.1,4.2C236.4,172,239.3,171.3,241.8,169.2z"/>
				<path d="M311.8,131c3,0.3,5.2,0.1,7.1,1.1c0.7,0.4,1.5,0.8,1.3,1.8c-0.2,1.1-1.2,1-1.9,0.8c-8-1.8-15.2,0.2-21.9,4.8
					c-1.9,1.4-3.7,3-5.4,4.6c-0.9,0.8-1.8,2.6-3.2,1.3c-1.1-1,0.3-2.3,1-3C295.4,135.7,303,131.4,311.8,131z"/>
				<path d="M213.8,153.7c6.1-6,19.2-6.9,26.6-2c1.3,0.9,2.6,1.8,3.9,2.8c0.9,0.7,2.4,1.5,1.4,2.8s-2.2,0.1-3.1-0.5
					c-3.2-2.1-6.4-4.1-10.4-4.7c-4.6-0.7-9,0-13.4,1.3C217.3,153.7,215.8,154.5,213.8,153.7z"/>
				<path d="M282.1,207.8c2.3,0.4,4.9,0.1,6.2,2.8c0.7,1.4,0.6,3-0.8,3.9s-1.9-0.5-2.5-1.5c-1.8-2.5-6.7-2-8.8,1.1
					c-0.8,1.1-1.2,2.7-2.9,1.5c-1.5-1.1-1-2.6-0.1-3.9C275.5,208.9,278.7,208,282.1,207.8z"/>
				<path d="M226.9,190.5c-0.4-0.2-0.8-0.3-1-0.6c-0.3-0.8,0.3-1.3,0.8-1.6c2.1-1.6,4.4-3.1,6.5-4.6c3.4-2.4,6.5-5,9.4-8
					c0.6-0.6,1.3-1.7,2.3-1s0.3,1.7-0.4,2.4c-4.6,5.2-10.1,9.5-16.2,12.8C228,190.1,227.5,190.3,226.9,190.5z"/>
				<path d="M298.4,210.8c-1.2-0.1-1.8-0.7-1.8-1.5c-0.1-2.7,1.3-5.2,3.5-6.7c0.6-0.6,1.6-0.5,2.1,0.1c0.1,0.1,0.2,0.2,0.2,0.3
					c0.4,0.6,0.4,1.3-0.1,1.8c-1.5,1.4-2.2,3.3-3,5C299.2,210.2,298.7,210.5,298.4,210.8z"/>
				<path d="M208.4,177.3c0,1.6-1,2-2.1,2s-2.5-0.2-2.8-1.6s0.8-1.9,1.9-2C206.7,175.5,207.9,176.1,208.4,177.3z"/>
				<path d="M430,5v675.7H40V5H430 M435,0H35v685.7h400V0z"/>
			</g>
		</g>
		
			<rect x="5.4" y="481.6" transform="matrix(0.9959 -9.080639e-02 9.080639e-02 0.9959 -46.4336 23.4952)" width="459.1" height="81"/>
		<path class="st0" d="M457.7,463.6l6.9,75.7L12.3,580.5l-6.9-75.7L457.7,463.6 M462.2,458.2L0,500.3l7.8,85.6L470,543.8
			L462.2,458.2z"/>
		<path class="st0" d="M43.4,558.5c-6,0.7-12,1.6-17.9,2.7c3.8-13.9,6.5-28.1,8.2-42.4c0.2-2.1-3-2.8-3.3-0.6
			c-1.9,15.1-4.9,30.1-8.9,44.9c-0.2,0.9,0.5,1.8,1.4,2c0.1,0,0.3,0,0.4,0c6.8-1.2,13.6-2.2,20.4-3
			C46.1,561.9,45.7,558.3,43.4,558.5z"/>
		<path class="st0" d="M57.8,514.4c-1.6,15.8-3.6,31.6-6.2,47.2c-0.4,2.2,3.1,2.9,3.5,0.6c2.7-15.7,4.7-31.4,6.1-47.3
			C61.3,512.8,58,512.2,57.8,514.4z"/>
		<path class="st0" d="M247,497.4c-0.4,6-0.6,12-0.9,18.1H246c-5.2,1.7-10.6,2.9-16,3.5c0.8-6.5,1.5-13.1,2.1-19.6
			c0.2-2.1-3.1-2.8-3.3-0.6c-1.6,15.8-3.6,31.5-6.2,47.2c-0.4,2.2,3.1,2.9,3.5,0.6c1.3-8,2.5-16,3.6-24.1h0.1
			c5.5-0.5,11-1.6,16.3-3.3c0,0.4,0,0.8,0,1.3c-0.3,7.9-1,16-0.5,23.9c0.1,1.9,3.3,2.2,3.5,0.2c0.7-7.6,0.4-15.4,0.6-23.1
			c0.2-8,0.5-15.9,0.7-23.9C250.3,495.7,247.1,495.6,247,497.4z"/>
		<path class="st0" d="M172,501.8c-8.3,6.9-17.1,13.6-24.9,21c0.7-5.7,1.2-11.3,1.7-17c0.2-2.1-3.1-2.8-3.3-0.6
			c-1.6,15.8-3.6,31.5-6.2,47.2c-0.4,2.2,3.1,2.9,3.5,0.6c1.4-8.4,2.7-16.9,3.7-25.4c0.3-0.1,0.6-0.2,0.8-0.4
			c3.9-3.7,8-7.2,12.1-10.6c1.5,12.4,3.9,24.7,7.1,36.8c0.5,1.8,3.6,1.1,3.2-0.7c-2.4-12.3-5.1-24.5-7.1-36.9
			c-0.1-0.5-0.4-0.9-0.8-1.2c4.1-3.4,8.1-6.7,12.1-10.1C175.6,503.1,173.6,500.3,172,501.8z"/>
		<path class="st0" d="M86.5,511.7c-0.6,7.9-1.1,15.7-1.7,23.6c-0.2,2.7-0.3,22.4-3.9,21.9c-1.6-0.2-1.8-3-2.2-4.5
			c-0.6-2.1-1-4.2-1.5-6.3c-0.8-3.7-1.4-7.5-2.1-11.2c-1.3-7.4-2.7-14.9-5.4-21.9c-0.2-0.7-1-1.2-1.8-1c-0.7-0.5-1.8-0.3-2.3,0.4
			c-0.2,0.2-0.3,0.5-0.3,0.7c-2.1,15.4-4.2,30.9-5.9,46.4c-0.2,2,2.8,2.6,3.2,0.6c2-13.6,3.8-27.3,5.5-40.9c2.2,8,3.4,16.1,5,24.2
			c0.7,4.3,1.7,8.6,2.9,12.8c0.8,2.5,2,5.7,5.2,5.3c7.1-0.9,6.3-14.4,6.7-19.1c0.7-10,1.4-20,2.2-30.1
			C90.3,510,86.7,509.3,86.5,511.7z"/>
		<path class="st0" d="M118.3,508.8c-0.6,7.9-1.1,15.7-1.7,23.6c-0.2,2.7-0.3,22.4-3.9,21.9c-1.6-0.2-1.8-3-2.2-4.5
			c-0.6-2.1-1-4.2-1.5-6.3c-0.8-3.7-1.4-7.5-2.1-11.2c-1.3-7.4-2.7-14.9-5.4-21.9c-0.2-0.7-1-1.2-1.8-1c-0.7-0.5-1.8-0.3-2.3,0.4
			c-0.2,0.2-0.3,0.5-0.3,0.7c-2.1,15.4-4.2,30.9-5.9,46.4c-0.2,2,2.8,2.6,3.2,0.6c2-13.6,3.8-27.3,5.5-40.9c2.2,8,3.4,16.1,5,24.2
			c0.7,4.3,1.7,8.6,2.9,12.8c0.8,2.5,2,5.7,5.2,5.3c7.1-0.9,6.3-14.4,6.7-19.1c0.7-10,1.5-20.1,2.2-30.1
			C122.1,507.1,118.5,506.4,118.3,508.8z"/>
		<path class="st0" d="M194.6,511.9c-0.9-2.7-2.5-8.4-6.2-7.6c1-0.7,2-1.3,3-1.9c1.8-1,0.2-4-1.7-3.2c-16.7,7.2-19.8,30.2-16.1,45.9
			c1.9,7.9,10,11.6,15.9,5c5.5-6.1,7.4-16,7.4-24C196.9,521.4,196.1,516.5,194.6,511.9z M192.8,532c-0.6,4-1.7,7.8-3.4,11.4
			c-1.9,4-7.1,10.1-10.9,4.2c-2.3-3.6-2.1-9.2-2.3-13.3c-0.2-4.5,0.2-8.9,1.2-13.3c1.4-6,4.6-11.4,9.3-15.4c-0.3,1,0.2,2,1.1,2.4
			c0.4,0.1,0.8,0.1,1.2,0c0.8-0.3,3.6,11.3,3.7,12.2C193.3,524.1,193.4,528.1,192.8,532z"/>
		<path class="st0" d="M216.7,497.9c-10.9,8.8-15.7,25.3-16.2,38.8c-0.2,5.3,0.2,12.5,6,14.8c4.4,1.7,9.4-0.3,11.5-4.6
			c0.4-0.9,0-2-0.9-2.4c-0.9-0.4-2,0-2.4,0.9l0,0c-1,1.9-3,3.1-5.1,3c-3-0.1-4.6-2.5-5.2-5.3c-1-4.7-0.3-10,0.6-14.7
			c1.7-9.7,5.9-21.2,13.7-27.7C220.4,499.3,218.4,496.5,216.7,497.9z"/>
		<path class="st0" d="M272.7,517.4l-1.6-0.4c-0.3-0.2-0.6-0.3-1-0.2c-3.9-0.8-8-0.7-10.9,2.7c-0.6,0.8-0.5,1.9,0.3,2.6
			c0.4,0.3,0.8,0.4,1.3,0.4c2.3-0.4,4.6-0.8,6.8-1.3c1.6-0.1,3.2-0.2,4.8-0.2C274.7,521,274.5,517.9,272.7,517.4z"/>
		<path class="st0" d="M286.4,505.3c5.2-5.2,11.6-8.5,18.5-10.6c2-0.6,0.8-3.5-1.1-3c-4.9,1.2-9.5,3.2-13.7,6.1
			c-3,2-7.8,5.3-9.1,8.9c-1.5,3.9,2.7,4.8,5.5,5.5l6.6,1.7c0.2,0.2,0.4,0.4,0.7,0.5c2.6,1.1,5.2,2,7.9,2.9
			c-6.9,4.1-13.6,8.7-19.8,13.8c-0.8,0.6-1,1.7-0.4,2.5c0.1,0.1,0.2,0.2,0.3,0.3c3.9,3.1,8.5,5.2,13.4,6.1c0.3,0.3,0.8,0.5,1.3,0.5
			c2.3,0,4.6-0.4,6.8-1.2c2-0.7,3.7-1.8,5.3-3.2c1.7-1.5-0.3-4.5-2.1-3c-1,0.9-2.2,1.7-3.5,2.3l-0.5,0.2l-0.1,0
			c-5.4,2.1-11.5,0.1-16.5-3.2c6.7-5.3,13.7-10,21.1-14.2c1.2-0.7,0.8-2.2-0.2-2.8c0.1-0.9-0.5-1.8-1.4-2l-11.7-3l-5.8-1.5
			c-1-0.3-1.9-0.2-2.4-1.2C284.7,506.5,285.5,506.2,286.4,505.3z"/>
		<path class="st0" d="M338.5,486.3c-4.9,1.4-5.6,7.2-6.5,11.4c-0.6,2.9-1.2,5.9-1.8,8.8c-0.4-5.5-0.8-10.9-1.3-16.3
			c-0.1-1-1-1.7-1.9-1.6c-0.5,0-0.9,0.3-1.2,0.6c-4.9,5.8-5.9,13.7-7.3,21c-1.6,8.8-3,17.7-3.8,26.7c-0.2,2,2.9,2.7,3.2,0.6
			c1-8,2.2-16.1,3.6-24.1c1-5.7,1.7-12.2,4.3-17.6c0.6,8,1.2,16,1.7,24.1c0.1,2.1,3.1,2.1,3.5,0.2c1.2-5.4,2.3-10.9,3.5-16.3
			c0.5-2.6,1.1-5.2,1.6-7.8c0.2-1.1,0.5-2.1,0.8-3.2c-0.8,14.8-1.6,29.5-2.5,44.2c-0.1,2.4,3.6,3.1,3.8,0.7
			c0.8-16.4,1.8-32.7,2.7-49.1c0.2-1-0.5-2-1.6-2.2C339.1,486.2,338.8,486.2,338.5,486.3z"/>
		<path class="st0" d="M368.1,483.6c-4.9,1.4-5.6,7.2-6.5,11.4c-0.6,2.9-1.2,5.9-1.8,8.8c-0.4-5.5-0.8-10.9-1.3-16.3
			c-0.1-1-1-1.7-1.9-1.6c-0.5,0-0.9,0.3-1.2,0.6c-4.9,5.8-5.9,13.7-7.3,21c-1.6,8.8-3,17.7-3.8,26.7c-0.2,2,2.9,2.7,3.2,0.6
			c1-8,2.2-16.1,3.6-24.1c1-5.7,1.7-12.2,4.3-17.6c0.6,8,1.2,16,1.7,24.1c0.1,2.1,3.1,2.1,3.5,0.2c1.2-5.4,2.3-10.9,3.5-16.3
			c0.5-2.6,1.1-5.2,1.6-7.8c0.2-1.1,0.5-2.1,0.8-3.2c-0.8,14.8-1.6,29.5-2.5,44.2c-0.1,2.4,3.6,3.1,3.8,0.7
			c0.8-16.4,1.8-32.7,2.7-49.1c0.1-1-0.6-2-1.6-2.1C368.7,483.5,368.4,483.5,368.1,483.6z"/>
		<path class="st0" d="M397,482.5c-8,4.3-14.6,10.8-19.3,18.6c-1.6,2.7-1.5,4.8,1.9,5.6c3.4,0.7,6.8,0.9,10.3,0.5
			c-4.9,6.1-8.6,13.2-10.9,20.8c-0.8,2.9-0.3,5.6,3.2,5.4c3-0.1,6.3-1.2,9.1-1.8s5.5-1.2,8.3-2c2.4-0.7,1-4.2-1.4-3.6
			c-4.1,1-8.3,2-12.5,2.8c-1,0.3-2,0.5-3.1,0.6c0.1-0.3,0.1-0.6,0-0.8c0.8-1.7,1.2-3.5,1.9-5.3c2.7-6.5,6.6-12.5,11.4-17.6
			c1.4-1.5-0.5-3.3-2.1-3c-3.7,0.9-7.6,1.1-11.3,0.6c-0.7-0.2-1.4-0.2-2.1-0.1c0.3-0.5,0.7-1,0.8-1.2c0.9-1.5,2-3,3.1-4.5
			c4-5,9-9.2,14.6-12.4C401,484.2,398.9,481.5,397,482.5z"/>
		<path class="st0" d="M416.9,477.3c-2.6,2.1-3.6,5.5-4.4,8.6c-1.3,4.7-2.4,9.4-3.2,14.1c-1.6,9.3-2.4,18.7-2.4,28.1
			c0,2.2,3.4,1.9,3.4-0.3c0.1-6.4,0.5-12.8,1.3-19.1c3,8.1,5.8,16.3,8.3,24.6c0.7,2.3,4.3,1,3.5-1.3c-2.9-9.7-6.2-19.3-9.9-28.7
			l8.5-10.7c2.2-2.8,5.1-5.7,5.6-9.4C428.7,476.7,421.8,473.3,416.9,477.3z M422.8,485.3c-2.4,3.8-5.6,7.3-8.4,10.8
			c-0.3,0.3-0.5,0.6-0.8,1c0.8-3.8,1.7-7.5,2.7-11.3c0.7-2.3,1.6-5.7,4.3-6.5C424.8,478.2,424.1,483.3,422.8,485.3z"/>
		<path class="st0" d="M447.9,474c0-2.2-3.4-1.9-3.5,0.3c-0.1,5.2-0.6,10.4-1.4,15.5c-0.6,2.8-1.6,5.5-2.9,8.1c0,0-0.1-0.1-0.1-0.1
			c-1.7-0.7-2.4-7-2.9-8.7c-0.9-3.4-2.3-7.1-1.4-10.7c0.5-2.1-2.8-2.7-3.3-0.6c-1.1,4.3,0.5,9,1.5,13.2c0.7,3,1,8.9,4.5,10.1
			c0.1,0,0.2,0.1,0.3,0.1c-0.2,0.6-0.4,1.2-0.6,1.8c-1.3,4.3-1,8.8-0.6,13.2c0.5,5.2,0.8,10.4,1.6,15.6c0.1,1,1,1.8,2,1.7
			c1-0.1,1.8-1,1.7-2c-0.4-5.2-1-10.4-1.5-15.6s-0.6-10.1,1.7-14.9C447.2,492.6,447.9,483.4,447.9,474z"/>
	</g>
</g>
</svg>
