<svg xmlns="http://www.w3.org/2000/svg" xmlns:xlink="http://www.w3.org/1999/xlink" viewBox="0 0 470 686.39"><defs><style>.cls-1{fill:none;}.cls-2{clip-path:url(#clip-path);}.cls-3{fill:#fff;}</style><clipPath id="clip-path" transform="translate(0 0)"><rect class="cls-1" x="35" width="400" height="685.71"/></clipPath></defs><title>T_cm_b1_illu_easy</title><g id="Layer_2" data-name="Layer 2"><g id="Layer_15" data-name="Layer 15"><g class="cls-2"><path d="M436,464c-1.39-.21-1.89-1.34-2.49-2.37a121.71,121.71,0,0,1-8.45-18.07,2.51,2.51,0,0,1-.31-1.15c1.62-10-6.26-15.75-10.32-23.19-2-3.73-4.69-7.13-6.7-10.88-3-5.63-6.22-10.77-12.87-12.84-3.22-1-5.24-4.05-7.69-6.26-6.27-5.68-13.89-8.89-21.56-11.89-18.59-7.29-37.22-14.47-55-23.72-.46-.24-1-.37-1.89-.71.74,3.81,3.27,6.16,5.71,8,7.7,5.72,11,13.92,13.31,22.59,1.41,5.18,3.66,10,5.46,15,.8,2.19,2.59,3.7,4.43,5.05,1.41,1,3.09,1.94,2.45,4.07s-2.58,2.2-4.27,2.33c-9.92.72-19.39-.72-27.91-6.3-6.56-4.3-13.5-8-19.75-12.83-3.52-2.71-8-3.4-13-4.47,1.58,2.09,2.7,3.65,3.91,5.14,2.06,2.56,2.12,5.15,0,7.6s-4.21,4.44-6.36,6.62c-.68.69-1.61,1.28-2.47.56s-.65-2,.07-2.86a50.53,50.53,0,0,1,4.44-4.58c2.39-2.16,2.94-4.3.45-6.76-1.51-1.5-2.91-3.1-4.36-4.66-1-1.06-2.53-2.12-1.73-3.69.69-1.36,2.5-1.63,3.92-1.47,6.36.72,12.87,1.37,18.24,5.14,6.45,4.52,13.37,8.25,20,12.53,5.85,3.8,12.34,5.15,19.84,5-5.73-9.31-7.41-19.56-11.29-29a25.64,25.64,0,0,0-7.5-10.14c-4.56-3.79-8.52-8.09-9.57-14.27-.38-2.29-2-3.25-3.89-4.16a17,17,0,0,1-7.88-7.11c-.55-1-.81-2.1.25-2.87a1.84,1.84,0,0,1,2.76.7c3.35,5.55,9.45,7.26,14.58,10,17.48,9.43,35.89,16.84,54.45,23.86,11.52,4.36,22.72,9.19,31.46,18.31a7.33,7.33,0,0,0,3,1.92c6.4,1.95,9.82,6.83,12.94,12.29,4.82,8.44,9.8,16.8,16,24.29,2.26,2.71,2.29,5.71,2.44,9A26.44,26.44,0,0,0,436,454.45Z" transform="translate(0 0)"/><path d="M35.63,351.35c19.1,1.61,33-8.39,45.53-20.87a192.12,192.12,0,0,0,19.29-21.79c6-8.14,14-12.69,24.49-14-1,2.25-2.91,2.6-4.49,3.12a35.05,35.05,0,0,0-17.7,12.92,201.77,201.77,0,0,1-32.91,34.63c-9.81,8.14-21.52,11.27-34.21,10.8Z" transform="translate(0 0)"/><path d="M149.1,411.21c5.49-.84,10.59-.17,14.93,3.69.53.47,1.45,1.33,1.95.27.81-1.73,2.79-3.05,2.18-5.34-.29-1.1-1.36-2.42.16-3.14,1.74-.82,2.57.84,3.46,1.94,3.88,4.8,6.56,10.32,9.29,15.79.65,1.32,1.42,2.88,0,4-1.6,1.34-3,0-4.23-1-5-3.91-9.3-8.72-14.75-12.17-7.77-4.91-21.8.54-24.18,9.51a4.13,4.13,0,0,0,.61,3c4.54,9.34,9,18.69,13.62,28,1.82,3.71,3.68,3.83,6.34.52,2.93-3.67,2.75-5.37-.47-8.75a84.37,84.37,0,0,0-8.56-8.35c-.85-.67-2.19-1.73-1.22-2.88s2,.13,2.68.83c6.41,6.29,14.88,10.24,20.11,17.85a10.16,10.16,0,0,1,1.33,2c4.62,12.61,12.5,23.68,16.42,36.71,4.9,16.27,14.39,29.89,27.49,40.85q5.37,4.49,10.89,8.76c11.45,8.87,19.12,20.62,25.37,33.41,4.79,9.82,10.21,19.29,15.56,28.8A4.28,4.28,0,0,0,271.9,608a19.66,19.66,0,0,1,12.33,5c1.35,1.24,2,1.14,2.78-.65,3.13-7.69,8.87-13.19,15.54-17.79,2.45-1.68,3.21-2.9,2-6.25a33.57,33.57,0,0,1,1.19-26.84c4.71-9.68,6-19.75,5.78-30.26a7.75,7.75,0,0,0-2.67-6.26c-11.41-10.28-20.11-22.65-27.26-36.17-6.79-12.86-8.94-26.95-10.86-41.08-1.39-10.29-2.45-20.63-4-30.89A46.45,46.45,0,0,0,255.33,393c-9.46-10.81-16-23.51-23-35.86-.55-1-1.79-2.35-.41-3.14s2.24.83,2.92,1.94c.55.9,1,1.84,1.68,3a8.26,8.26,0,0,0,3.47-4.26c2.15-5.92,6.7-10.55,8.72-16.53.41-1.21.95-3,2.6-2.32,1.82.73.53,2.35.1,3.44-2.74,7-7,13.11-10.81,19.49-1.52,2.56-2.19,4.44-.1,7.07,5.19,6.55,8.53,14.4,14.19,20.9a22,22,0,0,0,4.83-14.49c0-6.13.15-12.26.35-18.38,0-1.2-.18-3.2,1.64-3.05,1.5.12.9,1.95.91,3.06,0,7.28,0,14.56.49,21.93,4.35-6.77,8.05-13.72,8.75-21.82.09-1.06,1.42-4.15-2.32-2.26-1.56.79-1.17-1.33-.87-2,2.53-5.75,3.29-12,5.22-17.9.23-.69.56-1.28,1.3-1.29a2,2,0,0,1,1.82,1.34c1.13,2.18.74,4.66,1.37,7.25a18.13,18.13,0,0,0,.84-10.06c-.17-1.1-.2-2.37,1.06-2.68,1.65-.42,2,1.1,2.21,2.21.67,3.13.35,6.33.56,9.54a25.75,25.75,0,0,0,2.2-9.91,32.59,32.59,0,0,1,.41-4c.13-.77.52-1.65,1.48-1.63,1.38,0,1.18,1.19,1.2,2.07,0,2.09,0,4.17,0,7,1.84-2.51,1.75-4.86,2.47-6.92s-.55-5.06,3.67-4.78c1.27.09.73-3,1.31-4.62.28-.75.55-1.64,1.56-1.48.75.12,1,.88.91,1.57-.68,6.34.13,12.67.24,19.09-3.81-2.66-2.73-7-4-10.75-.81,3.05-1.46,5.93-2.35,8.74-.75,2.35-.87,2.31-3.95,2.66-1.11.13-.66,1.16-.9,1.75-1.33,3.24-1.48,7.08-4.66,9.34-1.32-.58-.6-1.74-1-2.46-5.54,1.74-5.79,6.25-6.59,11.11a59.48,59.48,0,0,1-15.8,31.68c-2.06,2.17-1.88,3.33-.06,5.46,9.56,11.15,12.17,24.8,13.9,38.84,1.5,12.14,2.73,24.28,6.09,36.18,5.52,19.52,16,36,30.1,50.06,5.73,5.71,8.51,11.6,8.44,19.66-.08,9-1.34,17.44-5.28,25.54-3.51,7.2-4.06,14.8-2.49,22.6.52,2.58,1.32,3.44,3.75,1.25a61.25,61.25,0,0,0,16.58-24.57c2.12-5.73,3.67-11.68,5.49-17.52a16.66,16.66,0,0,0,.74-5.52c-.2-4.89-2.94-7-7.69-5.92-.77.18-1.5.53-2.27.75a2.31,2.31,0,0,1-2.84-.8c-.78-1.23-.26-2.31.66-3.21a9.66,9.66,0,0,1,9.29-2.42c11.67,2.82,21.41,8.15,25.18,20.69a14.83,14.83,0,0,0,6.9,8.93c8.72,5.1,11.86,12.78,11.68,22.8-.32,17.63-7.2,32.83-16,47.47-4.79,8-9.56,16-16.43,22.52-5.45,5.17-11.07,10-18.78,11.42-2.85.52-1.42,1.86-.62,3,4.25,6,8.81,11.71,12.28,18.2,2.26,4.21,2.25,3.9-2.29,4.29-7.46.64-13.76-1.71-20.37-5.13a95.36,95.36,0,0,1-26.38-19.7c-4.83-5.16-8.67-10.78-10.66-17.57a168.84,168.84,0,0,0-16-38.12c-9.68-16.47-16.31-34.82-29.23-49.37a52.1,52.1,0,0,0-8.35-8,138.78,138.78,0,0,1-24.42-22.32c-7.83-9.12-13-19.77-16.39-31.24-1.85-6.3-3.88-12.45-7.35-18A75,75,0,0,1,170.13,463,31.88,31.88,0,0,0,164,452.77c-2,3.62-3.77,7.14-7.71,8.83-1.91.82-.27,2.37.19,3.39,4.21,9.35,7.82,19,12.07,28.28,6.13,13.4,8.31,27.46,8.66,41.93.35,14.64,1.36,29.26,1.2,43.91-.09,8.42,2.48,16.56,3.77,24.82a254.51,254.51,0,0,1,3.23,32.53c.4,15.43,1.91,30.86.39,46.3-.12,1.14.8,3.22-1.15,3.2s-1.14-2.11-1.2-3.27c-.52-10-1.13-20-1.31-29.93-.32-17.31-.92-34.59-3.67-51.73-.41-2.61-.41-5.28-1.29-8-.15,1.44-.3,2.87-.44,4.31q-4.08,42.55-8.18,85.1c-.17,1.66.44,3.86-2.67,3.83-2.47,0-3.16-.6-2.91-3.18,3-31.14,6.22-62.28,8.77-93.47,1.28-15.65,0-31.39-.32-47.09-.1-5.19-.55-10.37-.65-15.56-.33-15.92-7.11-29.93-13.08-44.13-9.39-22.35-20.37-44-31.23-65.61-8.51-17-15.28-34.57-18.37-53.4a102.18,102.18,0,0,1,.21-33,18.94,18.94,0,0,1,8.9-12.86,13.54,13.54,0,0,0,6.9-9.59c1-4.95,1.58-10,2.53-14.95,1.11-5.84,4.7-10.14,8.92-14.3.33.69.56,1.05.51,1.1-7.87,7.12-7.8,17-9.31,26.41-.94,5.85-2.69,11-8.92,13.59-2.9,1.21-3.63,4.5-4,7.44a134.42,134.42,0,0,0,13.79,77.09c2.84,5.68,5.19,11.61,8.15,18.31,3-6.59,8.82-8.48,13.4-12ZM342.54,536.72c-.41,9.85-3.68,18.59-6.91,27.23-4.88,13.07-12.22,24.47-24.44,32.15a60.83,60.83,0,0,0-13.65,11.61c-2.54,2.93-4.87,5.92-5.81,9.87-.42,1.78-.4,3,1,4.26,9.89,8.73,16.29,20.32,24.65,30.31,3.5,4.19,4.24,4.58,9.25,2.35a19,19,0,0,0,2.72-1.65c11.51-7.71,20.31-17.83,27.14-29.85,8.12-14.28,14.55-29,14.54-45.86,0-6.27-2.06-11.31-7.49-14.47-6-3.52-9.43-8.71-11.44-15.22C350.61,542.71,347.22,539.4,342.54,536.72ZM327.89,680.26c-1.77-4.43-4.36-7.11-6.4-10.11-12.13-17.79-23.65-36.07-39.51-51-2.32-2.18-4.22-4.93-8-5,3.68,9.17,7.16,18.08,10.84,26.9,2.46,5.9,5.05,12,9.88,16.26C304.59,666,316.15,672.4,327.89,680.26Zm-157.46-266c-3.74,3.43-3.18,4.56,3.8,7.13C172.82,418.81,172.48,416.15,170.43,414.28Z" transform="translate(0 0)"/><path d="M149.22,411.1c-.38.1-1,.39-1.09.26-6.66-8.12-14.21-15.62-17.92-25.79a41.33,41.33,0,0,1-2.42-10.48,102.17,102.17,0,0,0-6.35-26.69c-3-7.92-3.78-16-1.47-24.28.31-1.08.26-2.87,1.81-2.64s1,1.94,1,3a56.34,56.34,0,0,0,8.84,31.05,24.57,24.57,0,0,1,3.72,14.87c-.69,12.3,3.64,22.37,12.93,30.71,3.15-6.85,7.86-12.77,12-19,6.1-9.15,13.7-10.2,22.2-3.2,3.39,2.79,6.64,5.75,10.11,8.43s5.62,6.33,8.9,9.09c2-2,1-3.52-.48-4.87a51.06,51.06,0,0,1-10.64-13.37c-2.78-5.22-8.45-6.93-12.47-10.64S170,360.51,167,356a68.47,68.47,0,0,0-8.4-10.13C148,335.21,139,323.47,132.85,309.66A20.8,20.8,0,0,1,131,296.84c.16-.74.16-2.16,1.49-1.83.45.11.63,1.29,1,2.15,1.87-3,2.23-6.28,2.91-9.49,2.58-12.29,2.73-24.86,4.43-37.25a20.94,20.94,0,0,1,.32-2.38c1.43-5.52,1.89-9.91-4.72-13.41-4.93-2.62-6.91-8.9-8.84-14.35C122.7,206.4,122.71,192,124,177.65c.84-9.86,6.23-18,11.86-25.81a9.4,9.4,0,0,1,6.27-4c9.29-1.17,15.48-7.69,22.63-12.6-4.08.64-6.93,4.06-10.88,5-.76-1.51,1.06-1.9.87-3l-.14.14A260.06,260.06,0,0,1,187.21,121a47.08,47.08,0,0,1,8.3-2.71c2.16-.45,4.09.11,2.52,3.09-4.09.67-7.06,3.48-10.37,5.56a107.55,107.55,0,0,0-19,14.76c7.34-1.83,23.74-13.46,29.24-20.41,3,.77.95,2.22.25,3.07a56.25,56.25,0,0,1-10.76,9.49,231.53,231.53,0,0,1-22.79,14c11.27-2.69,20.52-9.49,30.33-15.24-1.38,3.65-5.37,4.5-7.27,7.52,1.92,1,5.09-1.56,5.43.9s-3.22,1.92-5,2.68c-4,1.69-8.17,3.14-12.19,5,4.44,0,8.65-1.18,12.89-2.16,1.11-.25,2.69-1,3.07.51s-1.42,1.67-2.47,2a96.69,96.69,0,0,1-22.32,4.14c-3.66.31-7.32.64-11,1a7.09,7.09,0,0,0,1.9,4.21c.83,1.11,2,3.61,2.84-.09.32-1.4,1.51-.7,2.33-.75,4.25-.27,8.49-.53,12.74-.71s7.74-2.4,11.32-4.6c.54,1.48-.51,1.65-1,2.13-1.48,1.51-1.06,2.32.92,2.45,9.17.63,17.65,3.69,26,7.23a57.32,57.32,0,0,0,8.39,2.57c2.61.66,4.92.63,7.34-1.49,3-2.6,7.3-2,11-3.2,6.16-2,12.57-3.15,18.88-4.66a3.21,3.21,0,0,1,2.66.53,5.74,5.74,0,0,0,5.08,1c3-.66,4.78,2.51,7,3.89a16.25,16.25,0,0,0,6.35,2.42c5.81.48,6.43,5.67,9.05,8.86,1.57,1.91,1.63,5,2.6,7.47,1.5,3.82,3.57,7.07,8.2,7.78a42.26,42.26,0,0,1,6.92,1.9c4.3,1.44,8.24,2.54,12.7-.45,4.09-2.74,9.19-2.61,14-1.42,6.3,1.57,12.78,2.76,18.16,6.84,1.39,1.06,2.16.71,2.94-1a35.32,35.32,0,0,0,3.51-12.18c.66-7.68,1.44-15.36,2.17-23,.08-.88-.23-2.17,1.13-2.09,1.12.06,1.35,1.24,1.23,2.18-1.49,11.8.19,24.06-5,35.31-1,2.1-.63,3.35,1.53,4.46,6.47,3.33,11.47,8.63,16.91,13.29,4.62,3.95,2.88,12.66-3,14.9a11.16,11.16,0,0,0-6.2,5.78,68.87,68.87,0,0,1-8.82,12.8c-4.25,4.93-10.15,6.75-16.15,8-2.54.54-3.33,1.71-4,4-3.32,11.63-6.34,23.42-13.21,33.66-.87,1.31-1.55,2.81-3.38,3.63-.08-2.68,1.35-4.65,2.49-6.62,5.54-9.55,8.32-20.13,11.68-30.5.85-2.64.25-3.44-2.56-3.4-6.45.07-12.75-.92-18.57-4a19.06,19.06,0,0,1-9.87-12c-.49-1.7-.8-3.6,1.41-4.39s2.79,1.05,3.25,2.55c1.6,5.19,5.83,7.52,10.36,9.18,9.59,3.49,19.24,5.34,28.4-1.42a43.27,43.27,0,0,1-15.18,2.17c-18.44-.93-25.24-9.2-22.66-27.55,1.11-7.86,5.05-13.23,12.44-16.17,11.15-4.44,22-3.53,32.27,2.33,7.35,4.17,9.75,11,7.11,19.21-1.05,3.27-2.65,6.37-3.62,9.88,1.93-2.63,4-5.2,5.76-7.93,1.54-2.36,3-4.79,5.45-6.26,2-1.21,2.06-2.19.6-4-12.94-16.38-30-21-49.86-17.61a16.84,16.84,0,0,1-7.81-.33c-5.6-1.6-11.12-3.71-17-4.25a4.79,4.79,0,0,1-3.68-2.13c-6.76-10.13-17.47-13.92-28.21-17.64A54.17,54.17,0,0,0,237,172.47,48,48,0,0,1,210,169a80.62,80.62,0,0,0-30.65-6.53c-5-.1-9.73,1.16-14.54,2.14-.44.93.41,1.41.74,2.08s.6,1.58-.17,2.16-1.52,0-2.18-.41c-3.51-2.28-6.23-5.39-8.95-8.5-.52-.6-.91-1.31-1.43-1.92-6.36-7.34-10.81-7-15.53,1.53-7,12.52-8.65,26.12-7.72,40.17.59,8.84,2.36,17.42,6.68,25.27,2.9,5.26,6.7,9,13.45,7.47a1.6,1.6,0,0,1,1.17,0c4.77,3.56,4.77-1,5.69-3.47a72.11,72.11,0,0,1,5.21-10.76c.56-1,1.33-2.38,2.75-1.38,1.22.84.19,1.94-.29,2.81a144.61,144.61,0,0,0-7.42,15.91,71.14,71.14,0,0,0-5.32,26,8,8,0,0,1-.7,3.46c-2-9.15-.18-18,2.4-26.91-4.37.5-4.42.52-5.09,4.67-2.28,14.08-2.06,28.43-4.62,42.48-1.35,7.44-2.23,15.09-7.93,20.88-1.38,1.4-.1,2.54.47,3.56a126.62,126.62,0,0,0,19.43,26.21c5.36,5.57,10.93,10.94,15.4,17.27,1.15,1.63,2,2,3.76.69,8.33-6,17.54-9.47,28-9,1.9.09,2.8-.95,3.88-2.23,3.07-3.61,3.79-6.19,2.68-10.69a6.5,6.5,0,0,1,0-1.53c1.81-.66,1.43,1.8,3,1.64-.75-6.34-1.12-12.81.1-19.05,1.27-6.55,5.4-11.57,11.08-16,.72,2.7-.89,3.57-1.82,4.66-3.6,4.2-7.35,8.71-7.38,14.29,0,6.57-.42,13.53,4,20.54a46,46,0,0,1,6.89-18.16c1.94-3,4-6,7.23-7.87.89-.52,2-1.46,2.83-.32s-.55,1.86-1.31,2.51c-6.68,5.67-10.32,13.06-12.18,21.46a17.07,17.07,0,0,0,.12,8.28c.42,1.57,1.19,4.22-2.24,1.92-1.36-.92-3.12-.12-4.67.07-1.29.15-3,.44-3.33,1.78s1.44,1.66,2.33,2.32a22,22,0,0,1,7.47,9.7,88.39,88.39,0,0,0,14.15,24.43,5.06,5.06,0,0,1,.46.65c.73,1.24,1.89,2.55.38,3.9s-3.09.54-4.15-.77c-4.81-6-10.29-11.57-13.19-18.92-.54-1.37-1.13-2.71-1.7-4-4.86-11.41-11.66-15-23.86-12.19-5.76,1.3-11,4-16.05,7-1.81,1.07-1.39,2-.16,3,3.45,2.82,6,6.54,10,8.89,2.57,1.49,4.34,4.66,6,7.37a47.3,47.3,0,0,0,10.32,12.08c2.38,2,3.19,4.56,1.77,7.11-1.55,2.8-.58,4.4,1.5,6a14.75,14.75,0,0,1,1.95,2c.61.69,1.41,1.43.52,2.4s-1.79.42-2.5-.18c-1.92-1.64-4.06-3.14-5.57-5.12-6.3-8.17-15-13.54-23-19.7-5.11-3.95-9.27-3.28-12.91,2.08-5.88,8.64-13.37,16.33-16.12,26.85ZM324.28,218.38a10.69,10.69,0,0,0,8.41-1.12c1.1-.58,2.51-.89,3.21.38.89,1.6-.52,2.46-1.72,3-5.13,2.37-10.12,2.13-14.6-1.47-2.14-1.72-3.07-1.37-3.7,1.19-2.14,8.64.58,21.27,14.51,21,7.79-.15,7.32.21,9.15-7.27,2.12-8.61,2.06-18.46,11.57-23.88-6.49-2.89-12.69-4.35-19.61-2.16.33.77,1,1,1.49,1.43,1.4,1.4,3.49,3.36,1.89,5s-2.62-1.19-3.78-2.19c-1.71-1.49-2.93-1.73-3.52.91C327.15,215.09,325.65,216.33,324.28,218.38Zm33.46,1a7.65,7.65,0,0,0-2.91-6.73c-.59-.46-1.4-1.46-2-.71-1.89,2.37-5.28,3.33-6.17,6.56-1.65,6-4,11.82-4.73,18.05-.13,1.13-.9,2.55.23,3.31.86.58,2-.29,2.92-.82C352.55,234.57,356.2,227.64,357.74,219.39ZM185.42,125.13l-.4-.78q-7.76,3.79-15.48,7.62a2.2,2.2,0,0,0-.64.79c3.76,3.16-.84,3.55-1.79,4.31A138.92,138.92,0,0,1,150,148.65c3.71,4.15,5.19,4.5,7.46,2.1.77-.81,0-1.87,1.06-2.74,6.35-5.42,11.44-12.22,18.5-16.88C179.9,129.23,182.63,127.14,185.42,125.13Zm138.44,87.28c-1.45,1.05-4,.07-4.63,2.37-.07.25.62,1,1,1C322.48,216,323,214,323.86,212.41Z" transform="translate(0 0)"/><path d="M227.73,190.69c3-6.74,7.82-10.58,12.54-14.47a9,9,0,0,1,5.49-2.12,55.71,55.71,0,0,1,33.6,9.56c7.25,4.86,10.07,12,8,20.88C284.25,218.2,274,226.6,260,226.65h-.8c-17.25,0-22.54-2.91-31.88-18.14a23,23,0,0,0,6.79,12.27c9,8.88,27.58,12.11,38.33,5.62,7.87-4.75,14.32-11.44,17.5-20.58,1.15-3.31,1.69-7.22,6.28-7.87,5.79-.81,11.15.1,15.8,3.85a3.49,3.49,0,0,1,1,4.35c-.84,2-1.87,4.16-4.09,4.58-2.68.5-2.87-1.81-2.19-3.41,1.16-2.69-.44-3.18-2.3-3.82-6.14-2.11-7.73-1.33-9.83,4.81-1.92,5.57-4.22,10.93-8.29,15.35-14.7,15.94-44.29,15.42-58.26-1.35-5.63-6.76-7.87-15-7.33-23.86.21-3.45.35-6.91.55-10.37s-1.53-5.74-4.87-6.83a56.59,56.59,0,0,0-17.67-2.74A82.3,82.3,0,0,1,172.46,174c-1.45-.49-3.59-.87-3.08-2.95.57-2.35,2.64-1.46,4.34-1.27,11.11,1.22,22.28,1.74,33.33,3.5,2.62.42,5.25.9,7.82,1.58C225.11,177.54,226.68,179.41,227.73,190.69ZM257.67,221c13.71.62,20.35-3.87,25.22-18,2.27-6.62.34-12-5.5-15.92a53.07,53.07,0,0,0-26.2-8.83,16.3,16.3,0,0,0-13.25,5.34c-5.61,5.8-6.9,12.79-6.11,20.31s5.23,12.63,12.25,15.33C248.49,220.89,253.17,221.11,257.67,221Z" transform="translate(0 0)"/><path d="M305.85,41.18c6.4,1.52,13.22-1.4,19.41,2.09-.9,1.56-2.36.9-3.54,1-3.33.15-6.67-.06-10,.25-9.53.88-15,5.57-16.4,15.06-1.8,12.17-.63,24.06,5.56,35.83a10.72,10.72,0,0,0,.15-7.1c-3-9.68-1.33-19,2.7-27.94A12.46,12.46,0,0,1,314,52.67c-8.79,6-11.1,14.77-11.15,24.54a72.1,72.1,0,0,1,8-17.7c3.05-4.64,6.72-8.64,11.93-10.88,7.84-3.35,15-.8,22.64,2.36-1.77,1.7-3.37.86-4.79.69-4.17-.51-8.63-3.34-12.43-1-5.12,3.2-10.06,7-13.27,12.46a13.39,13.39,0,0,0-1.5,3.42c7.07-7,14.79-12.65,25.6-14-1.28,2.06-2.91,2.35-4.26,3a52.65,52.65,0,0,0-18.36,13.14c-7.61,8.71-8.19,18.62-5.68,29.33,1.59-.75,1.28-2.1,1.52-3.2,2-9.26,5.09-17.92,12.1-24.72a29.17,29.17,0,0,1,13.82-7.59,7.75,7.75,0,0,1,6.54,1c-18.08,3.27-26.19,14.89-28.66,31.41,1.36-2.69,2.73-5.39,4.08-8.09a48.06,48.06,0,0,1,13.39-16.67c1.27-1,2.77-3.39,4.85-.56.54.74,1.7-.32,2.49-.73,3.76-2,7.86-2.12,12.29-2.55-.63,2.4-3.05,2.28-4.1,3.65.52.86,1.19.26,1.75.31,1.31.12,3.25,0,3.34,1.43.11,2-2.06,1.37-3.08,1.24-8.66-1.16-13.82,4.15-18.72,9.93-5.85,6.91-11.83,13.72-15.59,22.12-1.06,2.35-2.53,4.58-5.56,4.42s-3.54-2.93-4.44-5c-1.09-2.51-1.82-5.17-2.79-8a3.24,3.24,0,0,0-.3,3.7,2.31,2.31,0,0,1-.65,2.88,3,3,0,0,1-3.38.15,9.65,9.65,0,0,1-5.2-5.6c-.95-2.34-.32-6.1-4.47-6.45-.34,0-.73-1.63-.79-2.53-.83-13.46-1.42-26.9,4.43-39.8-2.43,1.59-2.74,1.94-4,4.55-3.05,6.12-3.85,12.66-3.71,19.41.07,3.32-.08,6.65-.21,10,0,.75-.24,1.68-1.32,1.6-.84-.06-1-.87-1-1.5-1.14-11.6-2.72-23.72,4.92-33.52,6.91-8.87,16.44-14.58,28.55-13.55A12.28,12.28,0,0,1,324.34,39C317.77,39.4,311.44,37.1,305.85,41.18Z" transform="translate(0 0)"/><path d="M238,27.91c-3.72,12.28,2.41,22.15,7.5,32.28-.28-8.91-2.24-17.68-1.55-26.65,4.67,9,3.81,19.22,6.2,28.74,3.44-10.45,1.84-20.76-1.42-31.11a3.73,3.73,0,0,1,3.78,2.77,44.86,44.86,0,0,1,1.16,27.84c-.93,3.44-4.61,3.21-6.87,4.87-.77.56-1.92-.6-2.59-1.46-.88-1.12-1.72-2.26-2.82-3.71-.44,3,0,7.64-3.89,2.16-10.38-1-20-6.63-31.06-4.18-10.78,2.38-21,5.66-30.52,11.32a3.88,3.88,0,0,0-1.38,1.43c7.7-2.1,15.35-4.22,23.16-5.69,9-1.71,18-3.43,27.31-2.76,2.82.21,5.58.59,7.84,2.51a1.5,1.5,0,0,1,.65,1.74c-.33.7-1.1.55-1.76.44-29.37-4.77-55.15,5.53-80.13,19.12-3.43,1.87-6.47,4.47-10.38,5.65,5.14-6.59,10.13-13.23,16.58-18.93-1.61-.43-2.67,2.09-3.82.65-.9-1.13.18-2.51.72-3.7,3.44-7.59,10.32-11.42,17.19-14.86a91.29,91.29,0,0,1,27.57-9.12c9.33-1.37,18.5-1.65,27,4,4.18,2.77,8,5.67,10.21,10.26C234,45.86,220.88,42.09,208.14,37.4c6.19-2.72,13.26.2,27.19,10.67C234.25,41,230.89,33.71,238,27.91ZM156.29,80.18c7.59-2.25,12.21-8.8,18.87-12.41a142.28,142.28,0,0,1,20.91-9.47C180.09,60.67,167.48,69.2,156.29,80.18Zm40.18-25.93c10.48,1.61,21.47,1.33,33.15,4a16.08,16.08,0,0,0-6.87-4.76c-2.26-.78-5.11-4.87-7,.62-.29.83-1.71.13-2.6,0A50.15,50.15,0,0,0,196.47,54.25Z" transform="translate(0 0)"/><path d="M351.67,119.31c-2.61.44-5,2-7.72,1.83-1-.06-2.43.17-2.61-1.18s1.18-1.6,2.2-1.88a20.87,20.87,0,0,0,13.78-11.22c.28-.56.77-1.12.19-2.06a114.91,114.91,0,0,1-10.6,8.28c-4,2.54-8,4.18-12.81,2.83a4.06,4.06,0,0,0-3.08.4c-4.51,2.38-8-.63-11.37-2.58-2.68-1.54.65-3.23,1-5-1.25-.52-2.81,1.47-3.62-.15s1.24-2.12,2.12-2.77a17.05,17.05,0,0,0,6.69-9.94c1.56-6,5.85-10,10.81-13.36a48.5,48.5,0,0,1,16.55-6.72c5-1.17,10.13,1.94,15.05-.82.34,1.59-.32,1.94-.85,2.23-7.74,4.15-12.54,10.91-16.48,18.47-3.31,6.37-6.41,12.91-12.76,17.19,4.85-.43,8.27-3.46,11.82-6.15a64,64,0,0,0,10.21-10.08c2.94-3.51,5.77-7.11,9-11,.25,2.32-1.39,3.35-1.64,5.53,2.28-1.54,4.2-3,6.23-4.15s4.07-2.57,6.92-1.85a6.55,6.55,0,0,1-3.3,4.25,25.45,25.45,0,0,0-9.75,11.74c-3.27,7.83-9.35,13.39-16.07,18.29Zm-20.6-6.69c5.92-2.42,10-5.72,12.81-10.61,4.42-7.8,7.9-16.17,15.36-23.31-6.35,1.39-10.41,4.09-13.32,8.43-3.55,5.29-7,10.63-10.43,16A35.65,35.65,0,0,0,331.07,112.62Zm-7.72,1.66c2.93,1.21,4-.2,4.64-2.31,1.8-5.94,5.05-11.09,8.52-16.16,2-3,3.88-6.1,5.81-9.15-5.75,3.2-10.34,7.2-12.28,13.58C328.54,105.15,327.16,110.16,323.35,114.28Z" transform="translate(0 0)"/><path d="M181.85,262.66c-9.77,9.51-14.24,21.18-14.3,34.72,0,3,.34,6.08-.83,9.68-8.16-9.7-10.86-20.84-12.48-33.36-.58,6.62.78,12.23,1.2,18.51-2.51-2.68-2.64-5.61-3.08-8.32-1.8-11,1-21.69,2.65-32.45a90.45,90.45,0,0,1,10.21-29.67c.75-1.36.93-4.43,2.86-3.44,2.15,1.09-.14,3.27-.88,4.7-4.64,8.92-8.29,18.16-9.78,28.16a7.49,7.49,0,0,0,0,2.37c3.47-8.2,7.59-16.05,11.46-24,.81-1.66,1.61-4.93,3.51-4,2.28,1.09-.26,3.41-.92,5-4.56,11.33-10.1,22.26-11.61,34.69a58.49,58.49,0,0,0,4.52,31c.91-6.37,1.14-11.91,3.29-17.85-2.37,1.68-2.88,4.15-4.77,5-2.24-10.13,4.37-17.25,8.72-25,4-7.08,8.31-13.95,11.61-21.39a16.54,16.54,0,0,1,1.15-2.1c.53-.84,1.28-1.56,2.29-1s.25,1.44,0,2.12c-1,2.45-2,4.88-3.19,7.63,2.49-1,3.95-.79,3,2a40.1,40.1,0,0,1-4.6,8.83c-1.45,2.3-2.92,4.59-4.17,7,4.56-3.89,6.47-9.78,10.81-13.9-.28,6-4.56,10.06-6.78,15.08Z" transform="translate(0 0)"/><path d="M183.06,107.23c7.31-1.39,13.32-6.22,20.52-7.93.62,1.91-.54,2.1-1.26,2.46-13.9,7-28,13.68-43.1,17.7-2.66.71-4.74,2.34-7,3.7-2.51,1.51-4.92,3.4-9.12,3.17,3.37-2,6-3.49,8.49-5.11.74-.47,1.64-1.3,1.72-2,.12-1.25-1.27-1.1-2.09-1.24-3.41-.61-1.91-1.7-.49-3.17,4.32-4.49,8.88-8.71,13.55-12.85-7.42,4-14.23,8.74-19.13,16.61-1.38-3.13.36-4.66,1.6-6.16,8.19-10,17.87-17.64,30.54-21.41,9.46-2.82,18.87-5.63,28.77-6.27,2.27-.15,5.72-1.52,6.48,1,.56,1.85-1.43,4.88-3.41,6.53a41.71,41.71,0,0,1-10.65,6.22C193,100.73,188.07,104,183.06,107.23Zm16.28-15.81c-17.81.45-31.26,9.39-43.14,21.4C172.32,109.13,184.48,97.56,199.34,91.42Z" transform="translate(0 0)"/><path d="M215.19,72.05c2.3.53,4,.83,5.56,1.32s2.79,1.3,2.55,3.07-1.76,1.84-3.1,1.81a39.44,39.44,0,0,1-6-.4,63.53,63.53,0,0,0-29.61,1.45,116.45,116.45,0,0,0-37.09,19.06c-1.65,1.24-3.15,2.81-5.56,3.25.48-2.93,2.72-4.32,4.53-5.94,15.61-14,33.72-22.41,54.68-24.59,7-.72,13.81-3.15,20.95-2.32,1.93.23,5.4-.41,5.28,1.92-.1,2-3.41.65-5.29.81C220.07,71.68,218,71.13,215.19,72.05Z" transform="translate(0 0)"/><path d="M236.07,275.49c3.31.12,4.87-2.45,7.09-4,1.09-.75,2.07-1.67,3.16-2.41a1.5,1.5,0,0,1,2.16.17,1.35,1.35,0,0,1-.34,1.8q-6.12,5.71-12.31,11.33c-1.49,1.35-2.22-2.56-4.2-.53s-4.56,3.53-7.16,5.47c2,.65,3-1.31,5.15-.53-1.25,3.07-4.35,3.89-6.86,5.81,2.13.72,3.82-1.3,6.05-.36-1.9,3.3-5,3.88-8.06,3.91-2.53,0-3.82,1.12-5,3.07-6,9.57-7.94,20.16-8.27,31.22-.05,1.66.41,3.41-.84,5.54-1.82-2.86-1.79-5.76-1.76-8.5a55.92,55.92,0,0,1,8.71-30.24c.73-1.14,2.42-2,1.09-4.1-.76-1.22,1.32-1.63,2.34-1.86,2.63-.6,3.42-2.13,4.36-4.73,1.81-5,4-10.19,10.44-11.7,2.12-.49,3.64-3.35,5.56-5,1-.89,2.46-2.47,3.75-1.06s-.56,2.5-1.51,3.46C238.47,273.43,237.24,274.43,236.07,275.49Z" transform="translate(0 0)"/><path d="M153.6,129.09c1.56-3.08,4.9-3.16,7-5.06-.17-1.74-2.22-.6-2.88-2.44,16.06-6.57,33.53-9.19,49.15-17.28-.77,1.6-4.07,1.85-1.59,4.55.33.35-1.28,1.07-2.14,1.36-3.76,1.29-7.53,2.55-12.25,4.15,4.78.27,8.52-1.55,12.42.25C186.38,118.23,170,123.59,153.6,129.09Z" transform="translate(0 0)"/><path d="M181.71,262.8c2.91-2.18,4.54-5.47,7-8,.91-.93,1.68-3.21,3.22-1.93,1.3,1.09-.36,2.66-1.17,3.78-3,4.08-6.13,8.05-9.06,12.17-4.75,6.67-8.69,13.73-9.4,22.13-.08,1-.41,2,.44,3.29.64-3.56,1.29-6.87,4.05-10,.61,3.8-.69,6.67-.82,9.66-.31,7.59.12,14.92,5.22,21.17.61.75,1.69,1.8.41,2.69-1,.71-2-.14-2.79-.91a21.13,21.13,0,0,1-5.74-12c-.36-2.32-.69-4.65-1.15-7.83-.81,5.82.78,10.8-.25,16.82-2.82-5.87-2.9-11.11-2.93-16.35-.07-11.51,3.9-21.6,10.72-30.71.92-1.24,2.25-2.31,2.36-4.05Z" transform="translate(0 0)"/><path d="M263.17,334.53c-.79,2.24-3.76,3.94-.73,6.93,1.4,1.38-3,9-5.75,10.48-.71-2.82,2.13-4.81,1.71-7.94-2.33,2.68-4.33,5.1-6.48,7.39a18.34,18.34,0,0,1-3.43,2.69c-.89.58-2.14,1.06-2.83-.08-.57-.95.45-1.65,1.15-2.27l.31-.25c3.48-3.07,6.46-6.13,6.66-11.45a25.28,25.28,0,0,1,3-10.71c.87,1.49.91,2.58.69,8.25,1.35-3.35,4.14-6.14,3.39-10.3-.3-1.66,1.07-1.95,1.94-1,2.27,2.42,5.23,4.78,6.44,7.51,2.68,6-.32,11.87-2.87,17.44-.26.58-1,1.2-1.61.7-1-.76-.66-2-.39-2.94C265.82,344,263.85,339.33,263.17,334.53Z" transform="translate(0 0)"/><path d="M254.69,30.67c6.7,4.7,6.37,11.92,8,19.24,2.52-7.75,3.8-15.49,13-17a8.39,8.39,0,0,1-1.08,1.57c-8.75,7.95-9.56,18.17-8.42,29,.19,1.83,1.64,4.83-.63,5.22s-1.87-3-2.4-4.75a46.57,46.57,0,0,1-.88-5l-1.17,5.18c-.26,1.16-.37,2.72-2,2.4s-1.17-1.84-1.15-3a5.27,5.27,0,0,1,.07-.79c1.39-9.94.78-19.65-3.23-29a6.17,6.17,0,0,1-.38-1.55A6.5,6.5,0,0,1,254.69,30.67Z" transform="translate(0 0)"/><path d="M275.78,62.12c-1.49,4-1.43,7.85-2,11.63-.21,1.38.1,3.5-1.77,3.51-2.24,0-1.37-2.19-1.35-3.45.1-8.23,1.37-16.12,6.11-23.19,1.69-2.51,2.6-5.53,4.1-8.19a15.76,15.76,0,0,1,7-6.77,7,7,0,0,1-.49,1.66c-7.75,10.17-8.74,21.67-6.86,33.82A66.45,66.45,0,0,1,281,80.3c0,1.23.32,3.07-1.58,3-1.5,0-1.46-1.7-1.42-2.86.16-5.77-1.34-11.36-1.71-17.07A5.64,5.64,0,0,0,275.78,62.12Z" transform="translate(0 0)"/><path d="M195.06,269.8c-5.77,9.92-10.72,19.16-11.65,29.86-.21,2.41,0,4.86,0,7.9,2-2.37.45-6.51,3.25-6.24,1.92.18.54,3.94.79,6.08.48,4,2,7.67,3.68,11.3.73,1.61,1.83,3.16,1.29,5.31-2.95-4.57-8.86-6.24-10.67-11.86a30.79,30.79,0,0,1-1.36-12.58A54.65,54.65,0,0,1,189.59,274,8.62,8.62,0,0,1,195.06,269.8Z" transform="translate(0 0)"/><path d="M156.08,187.56a30.76,30.76,0,0,1-1.41,9.46,13.87,13.87,0,0,0,.9,11.55c.78,1.43,2.06,3.63.14,4.55s-2.75-1.55-3.61-3a14.78,14.78,0,0,1-1.76-12.27c3.9-13.67.43-26.27-5.38-38.56-.59-1.24-2.27-2.68-.49-3.77,1.94-1.2,2.81,1,3.49,2.24C153.05,167.07,155.16,177.16,156.08,187.56Z" transform="translate(0 0)"/><path d="M220,81c-28.13-.11-53,8.24-74.38,27.28-.06-1.91.91-2.75,1.64-3.67,5.62-7.11,13.35-11.35,21.28-15.13a108.74,108.74,0,0,1,46.64-10.71C217,78.73,218.93,78.28,220,81Z" transform="translate(0 0)"/><path d="M303,286.21c1.31-.42.65-3,2.51-2.52,1.62.45,1.15,2.23,1.29,3.47.76,6.68,3.23,12.89,5.3,19.19.89,2.7,0,6.24,3.49,8,.88.44,0,1.5-.91,1.44-1.53-.09-3.48-.95-3.31-2.31.42-3.4-1.78-5.52-3.41-7.6-3.82-4.88-1.95-11-4.27-16.33-.81,2.54.49,5.18-.87,7.46-.34-.05-.76-.05-.78-.14-1.55-6.41-7-11.57-6.1-18.76.13-1.12-.49-2.9.89-3.1,1.86-.28,1.53,1.65,1.79,2.86s.5,2.33.77,3.48c.08.34.2.91.36.94,2.46.34,2.46.32,3,3.17A3.63,3.63,0,0,0,303,286.21Z" transform="translate(0 0)"/><path d="M232.85,343.49c4.74-4.13,7.18-9.3,9.93-14.28,1.16-2.12,2.24-6.19,4.45-5.16,2,.92-.95,4.17-1.86,6.25A71.35,71.35,0,0,1,234,348.51c-.74.85-1.5,2.26-2.82,1.86s-1.36-1.93-1.41-3.07c-.53-10.64,3-19.81,10.18-27.63.59-.65,1.48-1.55,2.37-.77s0,1.76-.5,2.44c-4.08,5.53-7.22,11.48-8.48,18.31C233.08,340.91,233,342.21,232.85,343.49Z" transform="translate(0 0)"/><path d="M256.81,287.63c-3.27.71-7,.26-10.62-.51-1.12-.24-2.81-.54-2.63-1.93.24-1.72,1.95-.94,2.94-.71a31.28,31.28,0,0,0,10.7.36,10.7,10.7,0,0,1,7.18,1.7A41.59,41.59,0,0,0,283,293c4.86.4,7.79,3.7,11,6.67a2,2,0,0,1,.1,3.17c-1.19,1-2.36.47-3-.67-2.56-4.57-6.69-5.86-11.59-6.5-5.83-.76-11.21-3.22-16.26-6.24A10.37,10.37,0,0,0,256.81,287.63Z" transform="translate(0 0)"/><path d="M200.37,336.29c1.43-3.45-.46-5.71-2.27-8.17a22.2,22.2,0,0,1-3.72-10c-1.25-8.11-3.16-16.23.43-24.3a25.7,25.7,0,0,1,8.35-10.75c-1.55,2.71-3.18,5.36-4.63,8.12-2.58,4.91-4.13,9.89-2.73,15.67,1,4.09,1,8.42,2.1,12.56a21.63,21.63,0,0,0,3.95,8.63C204.32,331.06,204.05,333.43,200.37,336.29Z" transform="translate(0 0)"/><path d="M229.71,352.5c-5.28-2.45-8-7.95-6.84-14.81a32.81,32.81,0,0,1,11.68-20.28c1-.85,2.48-2.57,3.68-1.09s-1,2.15-1.85,3a35.29,35.29,0,0,0-8.68,12.27c-2.72,6.3-2.85,12.35,1.26,18.15C229.46,350.41,230.23,351.12,229.71,352.5Z" transform="translate(0 0)"/><path d="M257.94,280.32c-1.51-1.53.19-2.41-.39-3.5a4.8,4.8,0,0,0-1,.41c-2.51,1.71-5,3.5-7.53,5.14-.73.47-1.87.85-2.42-.26-.4-.81.35-1.47,1-2C253,276,258.35,272,263.68,267.83c2.31-1.8,4.67.35,7.06-.23.78-.19.47,1.34-.15,1.78C266.07,272.6,262.17,276.56,257.94,280.32Z" transform="translate(0 0)"/><path d="M163.53,270.19c-2.32-14,6.76-35,16.67-38.1C170.35,242.94,165.82,256.05,163.53,270.19Z" transform="translate(0 0)"/><path d="M267.51,309a19,19,0,0,1-2,5.7c-.42.89-2,1.6-2.2,1-1.22-3.95-6.15,1.15-7-3.05-.43-2,3.09-8.55,4.91-9.16C263.25,302.74,267.46,306.21,267.51,309Z" transform="translate(0 0)"/><path d="M364.74,156.51c-5.23-2.54-7-6.6-5-11.48.47-1.18-.47-1.67-1-2.34-2.11-2.75-4.33-5.41-6.38-8.19-.91-1.23-2.17-2.38-1.76-5.5,6,6.11,11.07,11.75,15,18.64-2.33,1-3-1.22-4.6-1.24C360.52,150.33,365,152.54,364.74,156.51Z" transform="translate(0 0)"/><path d="M138.5,197.67c-6.21-4.67-5.39-11.1-4.49-17.47.73-5.18,2.86-9.57,8-12C135.48,177.4,134.53,187.14,138.5,197.67Z" transform="translate(0 0)"/><path d="M236.76,350.52c-.28-.11-.79-.16-1-.43a1.28,1.28,0,0,1,.43-1.75c5.81-4.28,7.61-11,10.69-17a19.46,19.46,0,0,1,2-3c.4-.5,1-1,1.72-.62a1.32,1.32,0,0,1,.5,1.74c-2.82,6.71-4.94,13.82-10.41,19.07A7.15,7.15,0,0,1,236.76,350.52Z" transform="translate(0 0)"/><path d="M368.57,145.13c-3.43-1-4.62-3.39-6.09-5.36-3.17-4.25-6.25-8.56-10.9-11.4-.75-.45-1.86-1-1.24-2.1s1.78-.89,2.83-.49c3.76,1.42,6.35,4.3,8.71,7.32C364.59,136.57,367.76,139.86,368.57,145.13Z" transform="translate(0 0)"/><path d="M273.31,250.67a11.84,11.84,0,0,0-.2,1.56c0,1.43,1.82,3.56-.52,4.06-2.17.46-2.44-2.07-2.71-3.68-.31-1.9-1-4.21,1.09-5.48s3.93.07,5.55,1.16c3.76,2.54,4.74,6.93,6.63,10.69a1.29,1.29,0,0,1-.53,1.74c-.68.4-1.29,0-1.81-.43-1.2-1-1.61-2.41-2.29-3.7C277.31,254.27,276,252,273.31,250.67Z" transform="translate(0 0)"/><path d="M148.81,206.91c-.55,1.53-1.2,3.41-1.91,5.26-.93,2.43-.79,4.21,2.4,4.37a5.52,5.52,0,0,1,1.55.34c.94.32,2.47.22,2.34,1.61s-1.57,1.27-2.58,1.37c-6,.55-8.79-3-6.68-8.63,1.21-3.21,2.65-6.24-.59-9.1a1.18,1.18,0,0,1-.06-1.78,1.36,1.36,0,0,1,1.82-.12C147.5,201.62,148.53,203.83,148.81,206.91Z" transform="translate(0 0)"/><path d="M202.51,272c-6.57,7.77-10.35,16.87-12.92,27.54C186.62,291.11,194.27,275.3,202.51,272Z" transform="translate(0 0)"/><path d="M201.5,315.4c-2-3.73-1.44-7.72-1-11.58A32.16,32.16,0,0,1,207,287.74c.56-.74,1.28-1.63,2.3-1.09s.5,1.43,0,2.07c-5.53,7.43-6.81,16-6.82,24.95C202.49,314.29,202.5,315,201.5,315.4Z" transform="translate(0 0)"/><path d="M251,308.79c.56-1.24.86-2.29-.66-3.58-1.09-.91,2.55-7.34,4-7.43,1.32-.08,4.27,4.92,3.61,6.32-1,2.15-2.17,4.23-3.29,6.34-.51,1-1.19,1.93-2.44,1.46S250.69,310.2,251,308.79Z" transform="translate(0 0)"/><path d="M301.17,299.05a20.52,20.52,0,0,1,1.39,1.53,34.06,34.06,0,0,1,6.14,13.22c.44,2.08.4,4.21,2.25,5.71a1.15,1.15,0,0,1,.3,1.73,1.69,1.69,0,0,1-2.18.19,5.37,5.37,0,0,1-3.23-4.28c-.28-5.5-2.8-10.12-5.25-14.8a3.21,3.21,0,0,1-.37-2.67C300.31,299.42,300.77,299.3,301.17,299.05Z" transform="translate(0 0)"/><path d="M218,327.65c-1-3,.3-5.5,1.43-7.9a44.29,44.29,0,0,1,10.28-13.61c1-.9,2.39-2,3.47-.83,1.28,1.43-.6,2.23-1.44,3.07-5.22,5.19-10.25,10.49-12.26,17.88a2.81,2.81,0,0,1-.58,1C218.72,327.44,218.42,327.47,218,327.65Z" transform="translate(0 0)"/><path d="M351.67,101.38c-.35-2.78,1.08-4.63,2.3-6.44a62.76,62.76,0,0,1,12.15-13.06c1-.81,2.34-2.21,3.42-1,1.44,1.63-.83,2.08-1.65,2.8A66.05,66.05,0,0,0,355,98.19C354.23,99.37,353.64,100.8,351.67,101.38Z" transform="translate(0 0)"/><path d="M243.18,280.76c-.56.14-1.16.05-1.28-.52a1.62,1.62,0,0,1,.43-1.37c5.42-3.6,10.09-8.11,15.08-12.22a1.66,1.66,0,0,1,1.43-.13c.59.25.36.88.2,1.39C258.26,270.33,245.64,280.57,243.18,280.76Z" transform="translate(0 0)"/><path d="M289.15,282.2c-2.17-1.23-1.39-3.22-2.37-4.41-1.31.78-.49,2.66-1.84,3.37-2.44-3.6.51-10.84,4.66-11.66,1.11-.22,1.53.37,1.4,1.27C290.45,274.49,289.81,278.21,289.15,282.2Z" transform="translate(0 0)"/><path d="M169.72,197.23c-1.17.06-1.82,0-1.94-.89-.49-3.34,5.16-11.55,8.54-12.36a2,2,0,0,1,1.44.19,1.16,1.16,0,0,1,.07,1.77c-.92,1.13-2,2.14-3,3.23s-2.16,1.43-1.35,3.74S171.14,196.16,169.72,197.23Z" transform="translate(0 0)"/><path d="M181.81,282.23a54.34,54.34,0,0,1,8.85-20.63c.49-.72,1.27-1.56,2.3-.81.7.52.22,1.24-.11,1.78-3.72,6-6.51,12.44-9.63,18.73C183.08,281.58,182.62,281.71,181.81,282.23Z" transform="translate(0 0)"/><path d="M273,311.86c-.21,1.13-.45,2.85-.88,4.51a2,2,0,0,1-2.1,1.51,2,2,0,0,1-2-1.65,12.52,12.52,0,0,1,.61-8.17,2.07,2.07,0,0,1,2.9-1.36C273.56,307.67,273,309.6,273,311.86Z" transform="translate(0 0)"/><path d="M300.35,317.31c.18-1.33-.05-3,1.36-3.13,1.61-.18,1.48,1.51,1.64,2.63a16.75,16.75,0,0,0,4.58,9.91c.6.59,1.6,1.37.75,2.34s-1.81.21-2.53-.26C302,326,300.91,321.71,300.35,317.31Z" transform="translate(0 0)"/><path d="M154.7,137.2c-3.66,1.17-5.87,4.77-9.83,5.5,5.77-5.45,11.23-11.3,20-14.63-3.34,4.42-8,5.58-10.36,9.27Z" transform="translate(0 0)"/><path d="M299.92,65.06c-1.2-8.75,5.69-17.92,13.51-17C305,51.33,301.93,57.75,299.92,65.06Z" transform="translate(0 0)"/><path d="M351.54,119.43c2.22-.21,4.43-.51,6.64-.61a5.25,5.25,0,0,1,4.22,1.87c.44.49.87,1.17.41,1.75a1.59,1.59,0,0,1-1.44.26,11.38,11.38,0,0,0-9.59.49c-.72.36-1.68.5-2.08-.41-.85-1.93,1.43-2.23,2-3.46Z" transform="translate(0 0)"/><path d="M163.93,210.87c-1.26,0-1.19-.94-.93-1.67a35.72,35.72,0,0,1,5.76-9.85,1.41,1.41,0,0,1,1.8-.38,1.17,1.17,0,0,1,.54,1.67,53.08,53.08,0,0,1-6.45,9.92C164.5,210.74,164.18,210.77,163.93,210.87Z" transform="translate(0 0)"/><path d="M279.26,314c-.23,1.76.61,4.41-1.72,4.35-2.85-.08-2.89-3-3-5.23-.06-1.79-.28-4.38,2.34-4.12C279.8,309.31,278.85,312.25,279.26,314Z" transform="translate(0 0)"/><path d="M223.3,309.32A18.72,18.72,0,0,1,230,297.24c.65-.54,1.59-1.25,2.46-.31.54.61,0,1.24-.39,1.75Z" transform="translate(0 0)"/><path d="M295.31,280.8c-.53,1.55,1.46,4.68-.81,4.91-2,.19-2.1-3.2-2.26-5.26a30.34,30.34,0,0,1,.15-5.13,1.51,1.51,0,0,1,1.53-1.51c1,0,1.33.83,1.36,1.62C295.36,277.14,295.31,278.86,295.31,280.8Z" transform="translate(0 0)"/><path d="M140.59,145.73c.31-5.34,4.21-10.17,10.17-12.86Z" transform="translate(0 0)"/><path d="M270.82,277.1c-1.25,0-1.41-.55-1.41-1.3,0-2.07,4.19-6.79,6.3-7.11.89-.13,2.05.41,1.59,1C275.26,272.35,272.9,274.78,270.82,277.1Z" transform="translate(0 0)"/><path d="M276.89,277a17.71,17.71,0,0,1,4-8.29c.41-.5,1-1,1.68-.53s.33,1.19.08,1.78c-1.09,2.54-2.21,5.07-3.32,7.59-.32.72-.63,1.68-1.54,1.53C276.39,278.82,277.32,277.51,276.89,277Z" transform="translate(0 0)"/><path d="M172.37,182.12c-1-.14-2.41.17-2.71-1-.38-1.5,1.21-1.31,2.1-1.64,1.85-.7,3.7-1.42,5.56-2.08.76-.27,1.64-.41,2.09.47s-.1,1.56-.73,2.06A10.75,10.75,0,0,1,172.37,182.12Z" transform="translate(0 0)"/><path d="M245.72,301c-1.24.14-1.8-.26-1.52-1.3a2.66,2.66,0,0,1,.83-1.3c1.68-1.41,3.12-3.32,5.62-3.24a.79.79,0,0,1,.58,1.21C249.77,298.43,247.62,299.71,245.72,301Z" transform="translate(0 0)"/><path d="M321.9,307.18c-1.7-.43-3.34-.94-3.65-3-.1-.69.42-1.51,1.08-1.25,1.61.65,3.71.86,4.4,2.7C324.08,306.58,322.84,307,321.9,307.18Z" transform="translate(0 0)"/><path d="M327.93,298c-.58,1.58-1.92,1.71-3.22,1.65-1.14-.05-2.69-.19-2.51-1.76s1.74-1.31,2.87-1.27S327.48,296.47,327.93,298Z" transform="translate(0 0)"/><path d="M302.35,259.84a5.29,5.29,0,0,1-.32,1.06c-1.36,1.64-3,2.82-5.23,2.71a1.27,1.27,0,0,1-.23-1C297.81,260.5,299.83,260.05,302.35,259.84Z" transform="translate(0 0)"/><path d="M318.6,309c1,.3,2.69-.56,2.72,1.23,0,1.37-1.35,1.77-2.59,1.77s-2.61-.29-2.71-1.65C315.89,308.48,317.58,309.25,318.6,309Z" transform="translate(0 0)"/><path d="M283.86,313.05c-.12.87-.56,1.65-1.48,1.31a3.31,3.31,0,0,1-2.12-3.37c0-1.05.46-1.77,1.68-1.5C282.87,309.7,284,311.89,283.86,313.05Z" transform="translate(0 0)"/><path d="M259.23,194c1.91.45,3.87-.2,5.5.86,1.07.69,2,1.52,1.56,2.9s-1.71,1.06-2.68.74c-3.91-1.26-7.93-.25-11.88-.69-4.56-.5-8.91-1.46-12.73-4.12-.77-.53-1.65-1.07-1.43-2.16s1.1-1,1.89-1.13c2.72-.56,1.81-2.57,1.16-3.88-.8-1.6-.83-2.61,1-2.91,8.36-1.37,16.44-1.06,23.39,4.67a9.41,9.41,0,0,1,1.86,2.07c.63,1,1.66,2.18.44,3.16-1,.78-2.1-.23-2.72-1C261.78,188.93,260.56,191.11,259.23,194Zm-10.34-7.52c-1.36.45-3.89-1.28-4.55,1.1-.5,1.78-.76,4.33,1.44,5.71,3.24,2,9.77.38,11.78-2.83.89-1.41.87-2.39-.95-2.94A27.76,27.76,0,0,0,248.89,186.52Z" transform="translate(0 0)"/><path d="M255.79,189.87c-2.82,1.74-5.16,3.06-7.81.67a1.94,1.94,0,0,1-.68-2.47c.65-1.08,1.69-.78,2.37-.1C251.25,189.57,253.61,188.07,255.79,189.87Z" transform="translate(0 0)"/><path d="M430,5V680.71H40V5H430m5-5H35V685.71H435V0Z" transform="translate(0 0)"/></g><rect x="194.3" y="301.58" width="81.4" height="461.66" transform="translate(-307.11 744.08) rotate(-87.51)"/><path class="cls-3" d="M8.55,484.35l456.21,19.82-3.31,76.3L5.24,560.65l3.31-76.3m-4.8-5.24L0,565.45l466.25,20.26L470,499.36,3.75,479.11Z" transform="translate(0 0)"/><path class="cls-3" d="M432.92,571.57c-.51-3.81,0-13.56.23-18.71.34-7.65-1.19-10.63-4.4-12.35l.11-.12a8.08,8.08,0,0,0,1.41-1.3c2.25-1.6,4.26-4.82,4.54-11.37l.12-2.6c.45-10.35-4.22-14.41-13.38-14.81l-11.47-.5-2.83,2.6-2.64,60.65,7.52.32,2.84-2.6,1.09-25.15.46,0c5.79.25,6.75,2.33,6.42,10-.19,4.31-.78,14.41-.16,18.18l7.3.31C430,573.77,432.92,571.57,432.92,571.57Zm-15.7-52.4.55,0c5.79.26,7,3.46,6.74,8.68l-.11,2.47a15.3,15.3,0,0,1-1.17,6,8.92,8.92,0,0,1-3.48.41l-3.29-.14Z" transform="translate(0 0)"/><polygon class="cls-3" points="44.27 528.58 55.06 529.04 57.89 526.45 58.2 519.52 44.69 518.94 45.36 503.66 56.9 504.16 59.74 501.56 60.04 494.58 38.25 493.64 35.42 496.24 32.78 556.88 54.73 557.83 57.56 555.23 58.86 548.36 43.44 547.68 44.27 528.58"/><path class="cls-3" d="M89.69,495.87,79,495.41,76.17,498,63.64,558.22l7.64.33,2.83-2.6L77,540.57l7.56.33,2.05,18.32,7.88.34,2.84-2.6ZM82,514.27c.44,4.81,1,10.55,1.69,16.94L78.81,531C79.8,525.71,81,519.6,82,514.27Z" transform="translate(0 0)"/><path class="cls-3" d="M122.41,522.09c-5.3-4.33-6.22-6.5-6-11.63a14.43,14.43,0,0,1,.89-4.85,5.58,5.58,0,0,1,1.33-.1c3.76.16,4.51,3.19,4.31,7.93l-.12,2.77,7.47.32,2.83-2.6.13-3c.32-7.28-1.53-14.12-11.36-14.58-4.45-.21-7.45,1.16-9.45,3.42a11,11,0,0,0-1.42,1.3c-3.58,2.72-4.8,7.66-5,12.73-.39,8.95,2.83,12.25,9.11,17.64s7.61,7.86,7.31,14.74a15.29,15.29,0,0,1-1.17,5.81,5.41,5.41,0,0,1-1.9.25c-4-.17-5.61-3.1-5.38-8.37l.16-3.6-7.53-.33-2.83,2.6-.16,3.53c-.35,8,2.12,14.79,12.44,15.24,4.73.21,7.94-1.22,10.09-3.62a10.92,10.92,0,0,0,1.41-1.3c3.76-2.88,5.1-8.06,5.34-13.56C133.34,532.76,130.79,529,122.41,522.09Z" transform="translate(0 0)"/><path class="cls-3" d="M160.62,501.68c-2.07,6.91-4.55,14.86-6.37,21.19-1.17-6.61-3.26-16.08-5.09-24.41l-8.3-.36L138,500.7l9.61,37.13a5.17,5.17,0,0,1,.21,1.8l-1,22.21,7.53.33,2.83-2.6.94-21.45a8.34,8.34,0,0,1,.26-2l13-36.71-8-.35A20.17,20.17,0,0,1,160.62,501.68Z" transform="translate(0 0)"/><path class="cls-3" d="M209.15,500.23c-4.49-.19-8.07,1.08-10.57,3.8a11.58,11.58,0,0,0-1.42,1.3c-3.24,2.49-5.14,6.83-5.41,13.06l-1.3,29.86c-.46,10.44,3.09,16.46,12.66,16.88,4.83.21,8.44-1,10.9-3.76a10.89,10.89,0,0,0,1.42-1.3c3.28-2.52,5-6.94,5.31-13.34L222,517C222.49,506.65,218.2,500.63,209.15,500.23Zm-8.23,46.5,1.36-31.11a13.84,13.84,0,0,1,1.19-5.62,6.32,6.32,0,0,1,2.36-.31c4.16.18,6,3.2,5.72,9l-1.34,30.9a15,15,0,0,1-1.18,5.82,7,7,0,0,1-2.44.29C202.78,555.57,200.66,552.88,200.92,546.73Z" transform="translate(0 0)"/><path class="cls-3" d="M246.85,548.49l-.13,2.86a17.3,17.3,0,0,1-1,5.86,5.59,5.59,0,0,1-1.64.15c-4.18-.18-5.15-3.89-4.92-9.18l1.38-31.7a14.35,14.35,0,0,1,.92-5,5.56,5.56,0,0,1,1.74-.19c4.23.18,4.9,3.58,4.71,8.1l-.14,3.2,7.59.33,2.84-2.6.11-2.49c.35-8.12-1.28-15.54-11.9-16-4.36-.19-7.65,1.1-9.9,3.63a10.16,10.16,0,0,0-1.41,1.3c-3.15,2.43-4.84,6.66-5.08,12.36l-1.34,30.75c-.4,9,1.3,16.41,12.07,16.88,4.86.21,8-1.22,10-3.48a9.29,9.29,0,0,0,1.42-1.3c4-3,4.89-8.62,5.1-13.6l.1-2.17-7.66-.33Z" transform="translate(0 0)"/><polygon class="cls-3" points="263.77 506.17 263.47 513.15 273.25 513.57 270.92 567.24 278.45 567.57 281.28 564.97 283.5 514.02 290.55 514.33 293.39 511.73 293.69 504.75 266.61 503.57 263.77 506.17"/><path class="cls-3" d="M315,504.84c-4.48-.2-8.07,1.07-10.56,3.8a10.89,10.89,0,0,0-1.42,1.3c-3.24,2.49-5.15,6.82-5.42,13.05l-1.3,29.86c-.45,10.45,3.1,16.47,12.66,16.88,4.83.21,8.45-1,10.9-3.76a10.28,10.28,0,0,0,1.42-1.3c3.28-2.51,5-6.93,5.32-13.33l1.29-29.73C328.35,511.25,324.06,505.23,315,504.84Zm-8.22,46.49,1.35-31.11a14,14,0,0,1,1.2-5.62,6.29,6.29,0,0,1,2.36-.3c4.16.18,6,3.19,5.71,9l-1.34,30.9a14.93,14.93,0,0,1-1.18,5.81,6.73,6.73,0,0,1-2.44.3C308.64,560.17,306.52,557.49,306.79,551.33Z" transform="translate(0 0)"/><path class="cls-3" d="M359.15,536.1a7.48,7.48,0,0,0,1.35-1.25c2.13-1.47,3.89-4.42,4.18-11l.11-2.54c.37-8.48-3.13-13.58-13-14l-11.26-.49-2.83,2.6L335.11,570l11.69.51c5.34.23,9-1,11.39-3.68a9.74,9.74,0,0,0,1.42-1.3c3.24-2.44,4.74-6.7,5-12.75l.19-4.53C365.16,540.41,362,537.43,359.15,536.1Zm-13.63,25.4.88-20.18.61,0c5.89.26,7.78,3.08,7.51,9.43l-.18,4.14a16.24,16.24,0,0,1-1.19,6.25,10.19,10.19,0,0,1-4,.48Zm2-45.36.76,0c4.94.21,6.77,2.73,6.54,8.05l-.11,2.59a15.75,15.75,0,0,1-.95,5.41,10.54,10.54,0,0,1-3.56.34l-3.38-.15Z" transform="translate(0 0)"/><polygon class="cls-3" points="383.63 543.34 394.41 543.81 397.25 541.21 397.55 534.29 384.05 533.7 384.71 518.42 396.26 518.93 399.09 516.33 399.4 509.35 377.61 508.4 374.77 511 372.13 571.64 394.08 572.6 396.92 570 398.21 563.12 382.8 562.45 383.63 543.34"/><path class="cls-3" d="M435.16,569.52c-.51-3.81,0-13.56.23-18.71.33-7.65-1.19-10.63-4.4-12.35l.1-.12a8.13,8.13,0,0,0,1.42-1.3c2.25-1.6,4.25-4.82,4.54-11.37l.11-2.6c.45-10.35-4.22-14.41-13.37-14.81l-11.47-.5-2.84,2.6L406.84,571l7.53.32,2.84-2.6,1.09-25.15.45,0c5.79.25,6.76,2.33,6.42,10-.19,4.31-.77,14.41-.15,18.18l7.3.31C432.27,571.72,435.16,569.52,435.16,569.52Zm-15.71-52.4.56,0c5.79.26,7,3.46,6.73,8.68l-.1,2.47a15.48,15.48,0,0,1-1.17,6,9,9,0,0,1-3.49.41l-3.29-.14Z" transform="translate(0 0)"/><polygon class="cls-3" points="46.51 526.53 57.3 527 60.13 524.4 60.43 517.47 46.93 516.89 47.59 501.61 59.14 502.11 61.98 499.51 62.28 492.53 40.49 491.59 37.65 494.19 35.02 554.83 56.97 555.78 59.8 553.18 61.09 546.3 45.68 545.63 46.51 526.53"/><path class="cls-3" d="M91.92,493.82l-10.68-.46L78.4,496,65.88,556.17l7.63.33,2.84-2.6,2.89-15.38,7.56.33,2.06,18.32,7.88.34,2.83-2.6Zm-7.73,18.4c.43,4.81,1,10.55,1.69,16.94L81,529C82,523.66,83.22,517.55,84.19,512.22Z" transform="translate(0 0)"/><path class="cls-3" d="M124.64,520c-5.29-4.33-6.21-6.49-6-11.63a14.3,14.3,0,0,1,.9-4.84,5,5,0,0,1,1.32-.11c3.77.16,4.52,3.19,4.31,7.93l-.12,2.77,7.47.32,2.84-2.6.13-3c.32-7.28-1.53-14.12-11.36-14.58-4.46-.21-7.46,1.16-9.45,3.42a9.79,9.79,0,0,0-1.42,1.3c-3.58,2.72-4.81,7.66-5,12.73-.39,9,2.84,12.25,9.12,17.64s7.61,7.86,7.31,14.74A15.29,15.29,0,0,1,123.5,550a5.41,5.41,0,0,1-1.9.25c-4-.17-5.61-3.1-5.38-8.37l.16-3.6-7.53-.33-2.84,2.6-.15,3.53c-.35,8,2.12,14.79,12.44,15.24,4.72.21,7.93-1.22,10.08-3.62a11,11,0,0,0,1.42-1.3c3.75-2.88,5.09-8.06,5.33-13.56C135.57,530.71,133,526.91,124.64,520Z" transform="translate(0 0)"/><path class="cls-3" d="M162.86,499.63c-2.08,6.91-4.55,14.86-6.38,21.19-1.17-6.61-3.25-16.08-5.08-24.41l-8.3-.36-2.84,2.6,9.62,37.13a5.42,5.42,0,0,1,.21,1.8l-1,22.21,7.52.33,2.84-2.6.93-21.45a8.75,8.75,0,0,1,.27-2l13-36.71-8-.35A20.73,20.73,0,0,1,162.86,499.63Z" transform="translate(0 0)"/><path class="cls-3" d="M211.39,498.18c-4.49-.19-8.07,1.08-10.57,3.8a10.89,10.89,0,0,0-1.42,1.3c-3.24,2.49-5.15,6.83-5.42,13.06l-1.3,29.86c-.45,10.44,3.1,16.46,12.66,16.88,4.83.21,8.45-1,10.91-3.76a10.81,10.81,0,0,0,1.41-1.3c3.28-2.51,5-6.94,5.32-13.34L224.27,515C224.72,504.6,220.43,498.58,211.39,498.18Zm-8.23,46.5,1.35-31.11a14,14,0,0,1,1.2-5.62,6.32,6.32,0,0,1,2.36-.31c4.16.18,6,3.2,5.72,9l-1.35,30.9a14.8,14.8,0,0,1-1.18,5.82,7,7,0,0,1-2.44.29C205,553.52,202.89,550.83,203.16,544.68Z" transform="translate(0 0)"/><path class="cls-3" d="M249.08,546.44,249,549.3a17.3,17.3,0,0,1-1,5.86,5.66,5.66,0,0,1-1.64.15c-4.18-.18-5.15-3.88-4.92-9.18l1.38-31.7a14.36,14.36,0,0,1,.91-5,5.63,5.63,0,0,1,1.75-.19c4.22.18,4.9,3.58,4.7,8.1l-.14,3.2,7.6.33,2.84-2.6.1-2.49c.36-8.12-1.28-15.54-11.9-16-4.35-.19-7.64,1.1-9.89,3.63a9.69,9.69,0,0,0-1.42,1.3c-3.14,2.43-4.83,6.66-5.08,12.36l-1.34,30.75c-.39,9,1.31,16.41,12.08,16.88,4.85.21,8-1.22,10-3.48a10.34,10.34,0,0,0,1.42-1.3c4-3,4.88-8.62,5.1-13.6l.09-2.17-7.65-.33Z" transform="translate(0 0)"/><polygon class="cls-3" points="266.01 504.12 265.7 511.1 275.49 511.52 273.16 565.19 280.68 565.52 283.52 562.92 285.74 511.97 292.79 512.28 295.62 509.68 295.93 502.7 268.84 501.52 266.01 504.12"/><path class="cls-3" d="M317.25,502.79c-4.49-.2-8.07,1.07-10.57,3.8a11.58,11.58,0,0,0-1.42,1.3c-3.24,2.49-5.14,6.82-5.41,13.05l-1.3,29.86c-.46,10.45,3.09,16.47,12.66,16.88,4.83.21,8.44-1,10.9-3.76a10.89,10.89,0,0,0,1.42-1.3c3.28-2.51,5-6.93,5.31-13.33l1.3-29.73C330.59,509.2,326.3,503.18,317.25,502.79ZM309,549.28l1.36-31.11a13.88,13.88,0,0,1,1.19-5.62,6.32,6.32,0,0,1,2.36-.3c4.16.18,6,3.19,5.72,9l-1.34,30.9a14.93,14.93,0,0,1-1.18,5.81,6.73,6.73,0,0,1-2.44.3C310.88,558.12,308.76,555.44,309,549.28Z" transform="translate(0 0)"/><path class="cls-3" d="M361.39,534.05a7.43,7.43,0,0,0,1.34-1.25c2.14-1.47,3.9-4.42,4.19-11l.11-2.54c.37-8.48-3.14-13.58-13-14l-11.25-.49-2.84,2.6L337.34,568l11.7.51c5.33.23,9-1,11.39-3.68a9.74,9.74,0,0,0,1.42-1.3c3.23-2.44,4.74-6.7,5-12.75l.2-4.53C367.39,538.36,364.26,535.38,361.39,534.05Zm-13.63,25.4.87-20.18.62,0c5.89.26,7.78,3.08,7.5,9.43l-.18,4.14a16.08,16.08,0,0,1-1.18,6.25,10.21,10.21,0,0,1-4,.48Zm2-45.36.76,0c4.94.21,6.77,2.73,6.53,8l-.11,2.59a15.51,15.51,0,0,1-1,5.41,10.48,10.48,0,0,1-3.55.34l-3.39-.15Z" transform="translate(0 0)"/><polygon class="cls-3" points="385.87 541.29 396.65 541.76 399.48 539.16 399.79 532.24 386.28 531.65 386.95 516.37 398.49 516.88 401.33 514.28 401.63 507.3 379.84 506.35 377.01 508.95 374.37 569.59 396.32 570.55 399.15 567.95 400.45 561.07 385.03 560.4 385.87 541.29"/><polygon points="38.52 551.59 41.1 492.3 61.53 493.19 61.28 498.81 47.02 498.19 46.18 517.54 59.68 518.13 59.44 523.69 45.94 523.11 44.93 546.29 60.24 546.96 59.2 552.48 38.52 551.59"/><path class="cls-3" d="M60.82,493.84l-.19,4.26-12.9-.56-1.36-.06-.06,1.36-.78,18-.06,1.36,1.36.06,12.14.53-.18,4.2-12.15-.52-1.35-.06-.06,1.35-.95,21.83-.06,1.36,1.36.06,13.84.6-.78,4.18-19.41-.85L41.75,493l19.07.83m1.41-1.3-21.78-1-2.64,60.64,21.95,1,1.29-6.88-15.41-.67,1-21.83,13.5.59.3-6.92-13.5-.59.78-18,14.26.62.3-7Z" transform="translate(0 0)"/><path d="M92.26,553.92l-2.05-18.31-11.06-.49-3.4,18.08-6.25-.27,12.24-58.86,9.53.41,7.48,59.73Zm-6.94-53.36c-.37,3.94-2.27,13.95-3.95,22.78l-1.18,6.26,9.53.41-.08-.79C88.1,514.82,87.27,506,87,500.6l0-.61-1.55-.07Z" transform="translate(0 0)"/><path class="cls-3" d="M90.67,495.14,98,553.49l-5.11-.22L91,536.11,90.82,535l-1.17-.05-9.88-.43-1.18-.05-.22,1.16L75.19,552.5l-4.86-.21,12-57.52,8.38.37m-11.3,35.1,1.57.07,8,.35,1.58.06-.17-1.57c-1.53-14.39-2.36-23.21-2.67-28.59l-.07-1.23-1.23-.05h-.29l-1.29-.06-.12,1.29c-.36,3.9-2.26,13.89-3.94,22.71-.36,1.88-.71,3.73-1,5.49l-.29,1.54m12.51-36.41-10.68-.47L68.67,553.58l7.64.33,3.4-18.08,9.89.43,2.05,18.32,7.88.34-7.65-61.09ZM81,529c1.92-10.22,4.55-23.53,5-28.32h.3c.35,6.18,1.36,16.35,2.67,28.66L81,529Z" transform="translate(0 0)"/><path d="M121.12,556c-8.46-.37-12.21-5-11.79-14.54l.12-2.84,6.17.27-.13,2.92c-.25,5.84,1.78,8.89,6,9.08,5.55.24,6.43-5.2,6.61-9.31.3-7-1-9.73-7.55-15.29-6.09-5.23-9.26-8.37-8.88-17.09.43-9.9,4.45-14.55,12.29-14.21s11.17,4.78,10.78,13.88l-.1,2.29-6.12-.27.09-2.09c.18-4.15-.26-8.43-5-8.64s-5.6,4.58-5.76,8.21c-.24,5.56.92,7.84,6.24,12.19,8.19,6.71,10.67,10.37,10.24,20.2C134,551.4,129.6,556.39,121.12,556Z" transform="translate(0 0)"/><path class="cls-3" d="M124,494.33v1.36c7.34.35,10.45,4.41,10.07,13.17l-.07,1.61-4.76-.21.06-1.41c.12-2.72.4-9.08-5.61-9.35s-6.37,6.6-6.47,8.86c-.25,5.77,1,8.27,6.49,12.74,8.11,6.65,10.41,10,10,19.65-.45,10.31-4.45,14.94-12.58,14.59S109.61,550.6,110,541.51l.09-2.16,4.81.21-.09,2.24c-.35,7.83,3.44,9.65,6.68,9.79,6.87.3,7.21-7.43,7.32-10,.33-7.64-1.56-10.51-7.78-15.84s-9-8.12-8.65-16.54c.42-9.58,4.1-13.88,11.58-13.56l.06-1.36m0,0c-10-.43-12.66,7.08-13,14.86-.39,8.95,2.84,12.24,9.12,17.63s7.61,7.86,7.31,14.75c-.25,5.64-1.82,8.84-5.9,8.66s-5.62-3.1-5.39-8.37l.16-3.6-7.53-.33-.15,3.52c-.35,8,2.12,14.8,12.44,15.25,10.63.46,13.63-7.33,14-15.89.44-10.1-2.11-13.89-10.49-20.76-5.3-4.33-6.21-6.5-6-11.63.2-4.49,1.31-7.72,5-7.56s4.52,3.2,4.31,7.93l-.12,2.77,7.48.33.12-3c.32-7.29-1.53-14.12-11.36-14.58Z" transform="translate(0 0)"/><path d="M152.63,556.55l.93-21.53a6,6,0,0,0-.23-2l-9.39-36.24,6.86.29.16.71c2.28,10.42,4.87,22.22,5.56,28l.06.57,1.14.05.22-.54c1.12-4.77,3.65-13.08,6.1-21.12.72-2.36,1.44-4.7,2.11-6.95l6.54.29L160,533.86a8.91,8.91,0,0,0-.31,2.19l-.91,20.77Z" transform="translate(0 0)"/><path class="cls-3" d="M171.74,498.67l-12.37,35,0,.05,0,0A10.26,10.26,0,0,0,159,536l-.88,20.09-4.81-.21.91-20.85a6.55,6.55,0,0,0-.26-2.2l-9.15-35.36,5.42.24.05.2c2.27,10.4,4.86,22.18,5.54,27.88L156,527l1.15,0h.09l1.13,0,.26-1.1c1.11-4.74,3.64-13,6.08-21.07.67-2.19,1.33-4.36,2-6.45l5.09.23m1.9-1.28-8-.35c-3,10.07-6.89,22.33-8.37,28.61h-.09c-.72-6-3.5-18.56-5.83-29.23l-8.3-.36,9.61,37.13a5.42,5.42,0,0,1,.21,1.8l-1,22.21,7.52.33.94-21.45a8.3,8.3,0,0,1,.27-2l13-36.7Z" transform="translate(0 0)"/><path d="M208.16,559.8c-8.65-.37-12.47-5.51-12-16.17l1.3-29.86c.44-10.12,5.24-15.28,13.86-14.9,10.67.46,12.55,9,12.24,16.06l-1.29,29.73C221.79,555.39,217.31,560.2,208.16,559.8Zm2.73-55.43c-4.5-.2-6.82,2.8-7.1,9.17l-1.35,31.11c-.28,6.26,1.85,9.52,6.31,9.72s6.88-2.78,7.16-9.36l1.35-30.9C217.53,507.84,215.39,504.56,210.89,504.37Z" transform="translate(0 0)"/><path class="cls-3" d="M211.28,499.55c8.12.35,12,5.51,11.59,15.35l-1.29,29.73c-.45,10.27-4.7,14.87-13.39,14.5-8.3-.37-11.81-5.13-11.36-15.47l1.3-29.86c.3-6.75,2.82-14.7,13.15-14.25m-2.56,55.5c6.65.29,7.68-5.58,7.87-10l1.35-30.9c.36-8.37-3.62-10.3-7-10.45-4.89-.22-7.52,3.09-7.81,9.82l-1.35,31.11c-.37,8.35,3.58,10.28,7,10.43m2.62-56.86c-8.75-.38-14.1,4.77-14.57,15.55l-1.3,29.87c-.45,10.44,3.1,16.46,12.66,16.87s14.33-4.78,14.8-15.79l1.3-29.73c.45-10.36-3.84-16.38-12.89-16.77Zm-2.56,55.5c-3.81-.17-5.93-2.85-5.66-9l1.35-31.11c.26-6.06,2.39-8.7,6.39-8.52,4.16.18,6,3.19,5.72,9L215.23,545c-.28,6.5-2.4,8.88-6.45,8.71Z" transform="translate(0 0)"/><path d="M245.8,561.44c-10.64-.46-11.78-8-11.43-16.17l1.34-30.75c.29-6.64,2.75-14.47,12.85-14,10.48.45,11.57,8,11.25,15.29l-.08,1.82-6.24-.27.11-2.53c.19-4.23-.31-8.59-5.35-8.81s-6,4.38-6.21,8.42l-1.37,31.7c-.18,4.13.2,9.66,5.57,9.89,5.08.22,6-4.32,6.19-9.27l.1-2.18,6.29.28-.06,1.49C258.42,554.06,256.62,561.91,245.8,561.44Z" transform="translate(0 0)"/><path class="cls-3" d="M248.53,501.17c8,.34,11,4.57,10.6,14.58l-.05,1.14-4.88-.21.08-1.85c.12-2.76.4-9.24-6-9.52s-6.8,6.51-6.91,9.07L240,546.08c-.12,2.55-.45,10.31,6.22,10.6,6.46.28,6.76-6.61,6.9-9.92l.07-1.5,4.93.22,0,.81c-.34,7.78-2.06,14.92-12.25,14.47-9.48-.41-11.17-6.48-10.78-15.46l1.34-30.75c.4-9.21,4.49-13.72,12.14-13.38m.06-1.36c-8.7-.38-13.14,5.11-13.56,14.69l-1.34,30.75c-.39,9,1.31,16.4,12.08,16.87,11.65.51,13.34-8.35,13.67-15.77l.09-2.17-7.65-.33-.13,2.85c-.23,5.27-1.26,8.8-5.48,8.62s-5.16-3.89-4.93-9.18l1.38-31.7c.22-4.91,1.46-7.94,5.5-7.77,4.22.19,4.9,3.59,4.7,8.1l-.14,3.21,7.6.33.11-2.5c.35-8.11-1.28-15.54-11.9-16Z" transform="translate(0 0)"/><polygon points="276.66 561.95 278.99 508.28 269.21 507.86 269.45 502.24 295.17 503.36 294.93 508.97 285.16 508.55 282.82 562.21 276.66 561.95"/><path class="cls-3" d="M294.46,504l-.18,4.26-8.41-.36-1.36-.06-.06,1.36-2.28,52.31-4.8-.21L279.64,509l.06-1.36-1.36-.06-8.43-.37.19-4.26L294.46,504m1.42-1.29-27.08-1.18-.3,7,9.78.43L276,562.6l7.52.32,2.34-53.66,9.77.42.3-7Z" transform="translate(0 0)"/><path d="M314,564.41c-8.66-.38-12.48-5.51-12-16.17l1.3-29.86c.44-10.13,5.23-15.28,13.86-14.91,10.67.47,12.54,9,12.23,16.06l-1.29,29.73C327.65,560,323.18,564.81,314,564.41ZM316.75,509c-4.5-.19-6.82,2.81-7.1,9.18l-1.35,31.11c-.27,6.25,1.85,9.52,6.31,9.71s6.88-2.77,7.17-9.36l1.34-30.9C323.39,512.45,321.25,509.17,316.75,509Z" transform="translate(0 0)"/><path class="cls-3" d="M317.15,504.15c8.11.36,12,5.52,11.58,15.35l-1.29,29.74c-.45,10.26-4.7,14.87-13.38,14.49-8.31-.36-11.81-5.13-11.36-15.46l1.3-29.86c.29-6.75,2.81-14.71,13.15-14.26m-2.56,55.5c6.65.29,7.67-5.57,7.87-10l1.34-30.9c.37-8.37-3.61-10.3-7-10.45-4.89-.21-7.51,3.1-7.81,9.83l-1.35,31.11c-.36,8.35,3.59,10.28,7,10.42m2.62-56.86c-8.75-.38-14.1,4.77-14.57,15.56l-1.3,29.86c-.46,10.44,3.1,16.46,12.66,16.88s14.32-4.78,14.8-15.8l1.29-29.73c.45-10.35-3.84-16.37-12.88-16.77Zm-2.57,55.5c-3.81-.16-5.93-2.84-5.66-9l1.35-31.11c.27-6.06,2.39-8.7,6.39-8.53,4.16.18,6,3.2,5.72,9l-1.34,30.9c-.28,6.5-2.41,8.89-6.46,8.71Z" transform="translate(0 0)"/><path d="M340.84,564.74l2.58-59.29,10.58.46c8.77.39,12.68,4.61,12.3,13.3l-.11,2.55c-.37,8.49-3.24,10.54-5.7,11.37l-1.76.6,1.73.68c4.22,1.66,6.14,5.52,5.87,11.8l-.2,4.52c-.46,10.57-4.73,14.9-14.27,14.49ZM347,560.1l4.29.19c6.95.3,8.47-3.43,8.75-10l.18-4.13c.31-6.94-2.06-9.88-8.15-10.14l-4-.18ZM348.27,531l4.06.18c5.79.25,7.75-1.93,8.05-9l.12-2.58c.25-5.83-2-8.54-7.19-8.76l-4.16-.18Z" transform="translate(0 0)"/><path class="cls-3" d="M354,506.59c8.42.37,12,4.25,11.65,12.59l-.11,2.55c-.35,8-2.84,9.95-5.24,10.76l-3.52,1.19,3.46,1.36c2.5,1,5.78,3.21,5.44,11.14l-.2,4.53c-.44,10.22-4.37,14.23-13.56,13.83l-10.34-.45,2.52-57.93,9.9.43m-6.41,25.07,1.36.06,3.38.15c7,.3,8.49-3.31,8.76-9.65l.12-2.58c.27-6.22-2.22-9.23-7.84-9.47l-3.48-.15-1.35-.06-.06,1.36-.83,19-.06,1.36m-1.26,29.09,1.35.06,3.61.16c7.48.32,9.17-3.83,9.46-10.64l.18-4.13c.32-7.32-2.31-10.57-8.8-10.85l-3.33-.15-1.36-.05-.06,1.35-1,22.89-.05,1.36M354,505.23l-11.26-.48-2.63,60.64,11.69.51c10.41.45,14.52-4.69,15-15.14l.2-4.52c.36-8.46-3.28-11.27-6.3-12.46,2.94-1,5.79-3.44,6.16-12l.11-2.55c.37-8.48-3.13-13.58-13-14Zm-5,25.13.82-19,3.48.16c4.94.21,6.77,2.72,6.54,8.05l-.12,2.58c-.29,6.67-2,8.58-7.34,8.35l-3.38-.15Zm-1.27,29.09,1-22.89,3.33.15c5.89.25,7.78,3.07,7.5,9.43l-.18,4.13c-.29,6.82-1.93,9.6-8,9.34l-3.61-.16Z" transform="translate(0 0)"/><polygon points="377.87 566.35 380.45 507.06 400.88 507.95 400.64 513.57 386.37 512.95 385.53 532.31 399.03 532.89 398.79 538.46 385.29 537.87 384.28 561.05 399.59 561.72 398.55 567.25 377.87 566.35"/><path class="cls-3" d="M400.17,508.6l-.18,4.26-12.91-.56-1.36-.06-.06,1.36-.78,18-.06,1.36,1.36.06,12.14.52-.18,4.21L386,537.22l-1.36-.06-.06,1.36-.95,21.83-.06,1.35,1.36.06,13.85.61-.79,4.17-19.41-.84,2.52-57.93,19.07.83m1.42-1.3-21.79-.94L377.16,567l21.95,1,1.29-6.87L385,560.4l.95-21.82,13.5.59.3-6.93-13.5-.58.78-18,14.27.62.3-7Z" transform="translate(0 0)"/><path d="M428.4,568.55c-.41-3.53-.06-11.07.16-15.67l.08-1.83c.34-7.8-.63-10.44-7.07-10.72l-3.84-.17L416.51,568l-6.17-.27,2.58-59.28,10.79.47c9.34.4,13.14,4.62,12.73,14.1l-.11,2.6c-.29,6.61-2.4,10.6-6.26,11.84l-1.67.53,1.6.73c3.22,1.48,5,3.92,4.67,12l-.08,1.66c-.23,5.06-.56,12.53-.24,16.36Zm-10.46-33.34,4,.17c6.44.28,7.94-3.66,8.2-9.65l.1-2.47c.21-4.7-.54-9.09-7.38-9.39l-3.95-.17Z" transform="translate(0 0)"/><path class="cls-3" d="M423.68,509.63c9,.39,12.48,4.27,12.08,13.39l-.11,2.6c-.28,6.3-2.22,10.08-5.79,11.22l-3.34,1.07,3.19,1.46c3,1.39,4.62,3.61,4.28,11.39l-.08,1.66c-.21,4.76-.52,11.63-.29,15.67l-4.6-.2c-.31-3.7,0-10.92.22-15l.08-1.83c.34-7.81-.66-11.13-7.72-11.43l-3.17-.14-1.35-.06-.06,1.36-1.16,26.51-4.81-.21,2.52-57.92,10.11.44m-6.45,26.23,1.36.06,3.29.14c7.42.32,8.67-4.76,8.91-10.3l.1-2.47c.21-4.81-.58-9.77-8-10.1l-3.27-.14-1.36-.06-.06,1.36-.88,20.15-.06,1.36m6.51-27.59-11.47-.5-2.63,60.64,7.52.33,1.22-27.87,3.16.14c5.8.25,6.76,2.33,6.42,10-.18,4.31-.77,14.41-.15,18.18l7.3.32c-.5-3.8,0-13.55.24-18.7.35-8.16-1.41-11-5.07-12.69,3-1,6.35-3.81,6.73-12.45l.11-2.6c.45-10.36-4.22-14.41-13.38-14.81Zm-5.09,26.29.88-20.15,3.27.14c5.79.25,7,3.46,6.74,8.68l-.11,2.47c-.29,6.52-2,9.24-7.49,9l-3.29-.14Z" transform="translate(0 0)"/></g></g></svg>