<svg xmlns="http://www.w3.org/2000/svg" xmlns:xlink="http://www.w3.org/1999/xlink" viewBox="0 0 470 686.18"><defs><style>.cls-1{fill:none;}.cls-2{clip-path:url(#clip-path);}.cls-3{fill:#fff;}</style><clipPath id="clip-path" transform="translate(0 0)"><rect class="cls-1" x="35" width="400" height="685.71"/></clipPath></defs><title>T_cm_b4_illu_bottle</title><g id="Layer_2" data-name="Layer 2"><g id="Layer_18" data-name="Layer 18"><g class="cls-2"><path d="M136.14,320.88l7.67,2.81a30.08,30.08,0,0,1,4.73-6.8c-5.81-4.11-12.57-5.13-18.91-6.9s-12.6-3.85-20.15-3.89c3-2.52,5.56-2.05,8.06-1.38,7.66,2,15.46,3.57,23,5.94-6.41-5.13-14.12-6.08-21.88-7-7.59-.94-15.11-2.74-22.73-.6-.38-2.28.9-2.37,1.84-2.62a27.93,27.93,0,0,1,13.44-.45c7.37,1.68,15.08,1.12,22.41,3.44-3.43-3-6.94-5.62-11.53-6.38-7.62-1.25-15.22-2.74-22.94-.78-1.93.49-3.94.68-5.52,2.1-.7.64-1.57,1.13-2.47.28a2.25,2.25,0,0,1-.32-2.6,2.14,2.14,0,0,1,.35-.71c3.6-4.14,6.47-9,12.65-10.16a92.61,92.61,0,0,1,13.39-1.72c-6.12-3.4-11.78-2.27-17.58-1.67-.08-2.17,1.32-2.66,2.71-2.81,6.29-.68,12.57-1.12,17.68,3.76,1.33,1.28,3,1,4.52,1,5.24.08,10.36.66,15.09,3.15l2.09.13a1.47,1.47,0,0,0,.8,1.15c-.18,1.74-2.26.9-3.2,2.42,9.74,4.79,16.11,14.31,26.77,17.61-4.45-3.18-8-7.34-12-11a62.75,62.75,0,0,0-11.68-8.95l-.74-1.12c-.7-.18-1.39-.55-2.14-.18.37-1.84-1.29-2.13-2.27-2.84-5.31-3.8-11.56-5.33-17.7-7.05-3.59-1-7.25-1.72-10.86-2.63-1.49-.37-3.07-.65-4.13-2.3,10.22-2.39,19.51,2,29.35,4.52-8.86-9.95-17.11-11.68-29.16-6.21-2.24,1-4.13,1.59-6.71.64a22.12,22.12,0,0,0-9.52-1.34c2.38,2.31,6.2,2,7.25,5.31-1.86,1-3.31,0-4.71-.56a68.83,68.83,0,0,0-13-3.72c-3-.62-4.18-.33-7.41,1.85,8.75,2.11,18,1.66,25.62,7.56-2,1.34-3.31.7-4.56-.37l-.65.14.68-.11a6.39,6.39,0,0,1-2.45,2.78c.18,2.05,3.25,3.72.28,6.29-3.44-6.85-9-9.92-16.41-10,5.54,2.9,11.87,4.71,15.91,10.76-2.88,1.11-4-.47-5.33-1.39-5.1-3.58-10.51-6.24-16.87-6.62-2.36-.14-3.84.61-4.41,3.48,6.16-1.91,11.68-.36,17,2.22a17,17,0,0,1,3.43,2c1.35,1.11,4,2.2,2.81,4.13-1.31,2.13-3-.34-4.31-1.07-5.75-3.15-12-4.38-18.4-4.75-1-.06-2-.26-2.24.95s1,1.38,1.84,1.58a100,100,0,0,1,16.74,5.24c1.79.77,3.72,1.5,4.49,3.76-1.48,1.85-3.07,1.09-4.62.35A28.63,28.63,0,0,0,67,296.69c-5.85,0-9.46,2.95-11.92,7.81A17.58,17.58,0,0,0,53.35,311c2.82-3.2,4.51-7.35,8.61-9.92.44,2.18-1,3.21-1.92,4.23a24.55,24.55,0,0,0-6,15.32,95.92,95.92,0,0,0-.3,13.56c1.12,14.41-2.63,27.71-9.27,40.32a87.78,87.78,0,0,1-7.69,12.66c-1.08-4-1.07-4.37.94-7.75,5.84-9.79,10.39-20.08,12.43-31.38a62.26,62.26,0,0,0,1-12.32c-.09-4.47,0-8.93.28-13.78-2.73,2.55-2.48,5.41-2.28,8.14,1,14.12-3.37,26.77-10.22,38.79-.52.93-1.11,1.82-1.72,2.7-.12.18-.42.24-.89.5-.28-1.91-.67-3.82.45-5.36,5.13-7.05,4.57-15,3.74-23.52-1.87,2.59-1.78,5.79-4.21,8.41-.26-3.15-.58-5.79.14-8.27,2.19-7.55,2-15.26,1.92-23,0-6.07,0-12.14,0-18.14-1.14-.24-1.12.92-2.05.85-.23-1.8-.65-3.76.37-5.36,3.88-6.11,4.77-13.21,6.84-19.91C47,266.44,54.73,259.08,65.44,254.5c1.65-.71,3.64-.81,4.81-2.46.53.16,1.09.42,1.49-.31a1.24,1.24,0,0,0-1.41.41c-1.56-.1-3.11.67-4.91.13.27-1.85,1.83-2.16,3.07-2.55,6.26-1.95,11.85-5.15,17.36-8.67,8.79-5.61,18.82-8.6,28.41-12.46a63.7,63.7,0,0,0,24.53-17.21q6.57-7.49,13-15.06c.84-1,1.92-1.94,1.49-3.49.34,0,.31.22.14.14-.48-.22,0,.3,0-.23-3.57,3-5.47,3.36-9.25,1.5,0-1.29,1.11-1.49,1.95-1.56,4.39-.32,6.89-3,8.82-6.61,1.6-3,3.28-5.62,2.21-9.55-.84-3.11.86-6.54,2.09-9.62,6.67-16.75,10.84-34.25,15.34-51.63,2.68-10.31,5.1-20.67,8.66-30.73a7.93,7.93,0,0,0,.37-4.32L173,98.61c-.63-2.94.39-4.81,1.28-6.54,2.62-5.11,4.38-10.51,6.33-15.89,3.59-9.9,9.94-18.4,15.48-27.28,2.12-3.39,5.71-5.53,9-7.85,2.15-1.53,4.29-3.08,6.33-4.85-4.8.35-9.09,3.71-14.07,2.23-.57-2,1.61-1.58,2-2.66-.66-1.41-2.71-1.27-3.13-3,.62-1.47,1.75-.68,2.67-.44a18.53,18.53,0,0,0,19.26-5.58c3.33-3.59,7.46-5,11.65-6,3.93-.95,8.17-2.95,12.35-.27.85.54,1.78-.1,2.64-.47,5-2.16,9.74-1.19,14,1.81a68.46,68.46,0,0,0,14.67,8c6.07,2.37,11.07,6.18,14.09,12.32-4.28-2.66-8.12-6.05-13.13-7.44,3.66,2.93,7.7,5.41,10.88,8.85,2.05,2.22,5.12,4,3.9,8-.31,1,1.19,1.63,1.82,2.46,9,11.88,16.6,24.43,18.41,39.65a13,13,0,0,0,3.58,7.81c7.21,7.6,11.74,16.44,11.74,27.16,0,2.56,1.26,4.21,3,5.79,5.6,5.17,12,9.23,18.18,13.68,2.33,1.68,4.91,3.17,5.88,6.38-4.82-1.45-8.53-4.83-12.62-7.51a114.61,114.61,0,0,1-12.69-9.78c.83,3.86,2.75,6.17,4.49,8.46a23.75,23.75,0,0,1,4.88,11.2,5.47,5.47,0,0,0,3.43,4.52,37.7,37.7,0,0,0,9.85,3.19A128.33,128.33,0,0,0,367.45,166c.09-3.95-1.86-7.65.51-11.46,1.72,2.4,1.43,4.88,1.83,7.15.89,5,1.31,5.34,6.84,4.38-1.77-4.2-4.22-8.39-.92-13.28,1.12,1.25.53,2.46.51,3.51a11.75,11.75,0,0,0,2.21,7.51,6.45,6.45,0,0,0,7.2,2c1.54-.63,1.12-1.91,1.2-3.05.18-2.83-.36-5.84,2.09-8.76,1.1,3.79-.86,7.42.92,10.8,5.89-.32,10.71-4.17,17-5.63-1.94,3.89-5.43,4.73-8.27,7.06a67.85,67.85,0,0,1,17.16,7.93c7.47,5,13.28,11,14.76,20.34a25.31,25.31,0,0,0,3.46,9.32c.62,1,1,2.28,2.57,2.07v4c-1.46.21-2-1.62-3.55-1.7-.29,5,.87,9.64,2.05,14.29.19.75.82.93,1.5,1v10.39c-1.9-.51-2.12-2.24-2.57-3.71-1.12-3.63-2.12-7.3-3.17-10.95-3.58,6.94,1.29,12.82,2.76,19.58-3.86-1.18-4.18-4.59-6.59-7.11.82,6.27,4.47,10.44,7.44,15.7-4.4-1-5.05-4.67-7.52-6.3-.28-2.74-1.41-5.2-2.39-8.42-3.29,6.31-3.09,12.84-5.35,18.71-2-5.34-.41-10.59.2-15.89-3.89,5.78-4.94,12.51-6,19.51-2.1-1.66-1.72-3.49-1.58-5.12a37,37,0,0,1,2.66-10.79c.59-1.45,1.49-2.86,1-4.56l.21.09c-.53,0,.16.28-.1-.19-2.39,3-4.05,6.71-7.8,8.29-1.56.65-2.55,1.28-2.48,3a1.35,1.35,0,0,1-1.3,1.63c-1.1.14-1.6-.27-2.07-1.31-2.05-4.61-4.69-8.94-6.29-13.77-.81-2.46-1.8-4.86-2.71-7.29-1.69,9.19,1.75,17.7,3,26.48-3.69-3.05-3.39-7.81-5.6-12.17-3,8.21-4.74,16.29-9.87,23.3-1.25-2.25,0-3.4.6-4.62a103.48,103.48,0,0,0,7.68-21.78c.68-3,1.16-6.09.28-9.22a17.41,17.41,0,0,0-1.7,4,52.45,52.45,0,0,1-8.39,16.23c-.89,1.15-1.68,2.7-3.95,2.3,1.92-3.72,4.65-6.7,5.74-10.53a31.39,31.39,0,0,1-8.27,5.59c-2.84,1.33-3.64,5.45-7.56,6.39.23-2.45,1.73-3.87,2.7-5.52,1.34-2.27,3.43-4.08,4.11-6.75l.12-.08v.18c-6,.95-7.36,7.47-12.32,10.88.08-3.61,1.81-5.71,3.06-7.94,4.32-7.7,8.15-15.6,10.22-24.22a37.22,37.22,0,0,0,.7-16.39c-2,1.41-3.89,2.61-4.15,4.61a69.18,69.18,0,0,0-.09,8.77l1.91-.31c.64,2,0,3.8-.67,5.46a112,112,0,0,1-16.56,29.47c-1.51,1.91-3,3.54-2.82,6.39-10.82-9.24-5-44,8.3-50.52-.78,3.47-3.73,5.53-4.55,8.73,6.46-5.16,12.73-10.45,17.95-16.86a45.31,45.31,0,0,0,9-16.77c.83-3.06.88-6.06-.79-8.89-.55-.94-1.22-1.8-2.87-.75,2.33,6.45-.54,11.72-4.44,16.7-.73,1-1.44,1.92-2.23,2.82-6.54,7.46-13.71,14.26-22.71,18.6-2.68,1.29-3.85,2.6-4.21,5.44-.34,2.57-.1,5.49-2.28,7.79l-1.55-2.61A44.37,44.37,0,0,0,337.33,238c.33,6.34,3.88,11.72,4.74,17.93-6.7-5.84-8.13-13.72-8.25-21.37-2.31,8.47,2,16.38,4.88,24.73-5-2.95-6.7-8.42-10.24-13.16-.26,1.68-.46,2.7-.58,3.73a65.43,65.43,0,0,1-6,20.22,7.64,7.64,0,0,0-.33,6.86c2.72,6,1.53,13,5.18,18.7a3.92,3.92,0,0,1,.22,2c0,3.12,1.73,4.7,5,5.69-1.06-5.74-2-11.1-3.1-16.83a4.53,4.53,0,0,1,2,3c2.17,7.48,4.82,14.85,5.9,22.61.48,3.47,2.34,6.48,2.84,10,.26,1.79,1.67,3.76,1.79,5.87.15,2.32,3,3.12,3,5.4,0,1.61.41,2.54,2.11,2.72.71.07,1.47.65,1.36,1.25-.71,3.6,2.58,5.29,3.69,8l-.07-.09a36.44,36.44,0,0,0,9.11,26.08,13,13,0,0,1,1.73,2.67c6.31,12.74,14.61,24.43,19.95,37.68.07.18.34.28.73.59,1.3-3.62,4.21-5.35,7.54-6.57,2.37-.86,4.82-1.57,7.11-2.61,4.09-1.87,7.75-4.41,8.79-9.13a175.08,175.08,0,0,1,5.11-18.83c2.91-8.56,5.34-17.3,11.44-24.34,1.62-1.88,1.78-3.83,1.15-6.29-2-7.55-4.85-15-4.24-23,.14-1.88-.74-2.57-2.38-2.86-.26,0-.42-.58-.56-.79.31-1.56,2-.71,2.69-2-.53-4.87-2.29-10.13-.38-15.21,1.85-4.92.93-11.08,6.16-15.06,1.13,3.3-1.15,5.83-.47,9.09,1-1.63.56-4,2.82-3.83s1.2,3,2.73,4.17a19.64,19.64,0,0,0,3.89-5.9c.5-1,.59-2.43,2.18-2.52v5.6c-3.19,2.33-4.8,6.2-8,8.48-2-.62-3-2.86-5.38-2.51a18.22,18.22,0,0,0-1.25,8.23c.23,7.31.73,14.61,1,21.93a4.22,4.22,0,0,0,2.5,3.73c4.32,2.55,8.19,5.5,9.79,10.58.17.55.82.61,1.34.71V353c-3.45-1.1-2.93,2-3.33,3.5-4.1,15.7-10.83,30.28-18.74,44.36-2,3.55-4,7.07-6,10.58,6.49,3.76,8.18,3.32,11.45-2.63.45-.82.85-1.66,1.24-2.5a255.65,255.65,0,0,0,13.11-36c.41-1.39.11-3.4,2.31-3.76v8c-2.28,0-1.82,2-2.23,3.18-4.06,12.12-8.19,24.19-14.16,35.58-1.53,2.92-3.2,3.79-6.29,3-10-2.42-9.13-3.86-4.92-10.85,9.5-15.81,17.43-32.32,22.17-50.25,1-3.85,2.74-7.44,1.13-11.56a14.07,14.07,0,0,0-7.22-8.13,28.61,28.61,0,0,0,1.66,8.06,8.9,8.9,0,0,1-1.57,9c-6.23,7.76-9.47,16.81-11.36,26.48-1.07,5.48-2.35,10.94-3.84,16.32-1.54,5.55-5.68,8.88-10.71,11.14-2.67,1.19-5.48,2.07-8.24,3-3.15,1.09-4.39,3.22-3.84,6.48a27.88,27.88,0,0,1,.51,4.36c0,1.66-.35,3.33-2.35,3.64-1.79.28-2.59-1.05-3.19-2.46-2.67-6.24-5-12.66-8.06-18.69-5.46-10.66-10.87-21.36-17.3-31.48-4.2-6.6-7.94-13.29-7.6-21.47a5.69,5.69,0,0,0-1.44-3.62c-7.46-10.22-11.49-21.86-13.8-34.14a8,8,0,0,0-3.59-5.8c-3.47-2.25-6.29-5-5.7-9.74a1.29,1.29,0,0,0-.12-.78c-3.4-5.27-2.43-11.62-4.23-17.28-.37-1.15,0-2.66-2-3-1.37-.22-.64-1.53-.36-2.3,3-8.2,1-15.69-2.88-23.1-5.89-11.24-7.69-23.41-7.62-36a209,209,0,0,1,2.36-27,53.15,53.15,0,0,0,0-11.76c-3.06,25.27-8.45,50.46-2.56,76.16-2.13-1.09-2.66-3.08-3.29-4.95s-1.17-4.05-2-7.07c-3.16,5.19-5.9,9.68-8.62,14.18-1.17,1.93-2.27,3.91-3.47,5.83a9.83,9.83,0,0,1-5.74,4.67c-2.21.62-4,2.09-5.92,3.28-1,.65-2.19,1.36-3.32.53-1.35-1-.8-2.45-.38-3.68a23.93,23.93,0,0,1,4-6.86c4.84-6.19,9.74-12.33,14.57-18.52,1.31-1.68,2.5-3.46,3.67-5.23,2.35-3.54,2.33-3.55-1.08-6.87-8.77,11.88-19.7,22.32-23.94,37.17-1.36,4.76-2.76,5.07-6.6,3.56-2.74-1.09-3.12-3-2.46-5.47a42,42,0,0,1,7.12-14.64c5.12-6.69,9.25-14,13.56-21.17a48.67,48.67,0,0,1,4.51-6.57c2.15-2.55,3.23-5.07,1.81-8.36-.62-1.44-.4-3.17-1.36-4.81-1.77,1.35-2.74,3.28-3.85,5-6.9,10.58-13.86,21.09-19.2,32.65-4.8,10.41-6.86,21.26-7.48,32.47-.67,12.19-3.46,23.93-6.77,35.59-.34,1.19-.84,2.42-2.3,2.37-1.8-.07-2-1.58-2-2.92-.09-6.66-.24-13.33.66-19.95.51-3.72.37-7.44.54-11.16.1-2.33-.77-3.95-3.16-4.31-4.7-.71-7.39-3.9-9.75-7.57a74.2,74.2,0,0,1-7.11-13.38c-5.86-15.19-14.08-29.25-21.12-43.88-3.69-7.67-7-15.52-12.06-22.43-.46-.62-.61-1.5-1.71-1.73.28,3.27,1.52,6.22,2.5,9.22a55.6,55.6,0,0,1,3,16,7,7,0,0,0,1.33,4.08,203.28,203.28,0,0,1,18.31,31.78A65.81,65.81,0,0,0,231,267.11c.88.89,1.66,1.81,1,3.15s-1.89,1.26-3.11,1.22a18,18,0,0,1-12.52-5.39,84.64,84.64,0,0,1-16.64-22.8A38.38,38.38,0,0,1,196.24,229c-.63-7.56.43-15.18-.83-22.73a44.2,44.2,0,0,0-4-12.47,141.61,141.61,0,0,0-1.55,21c.08,12.75,5.62,23.73,10.95,34.73a89.44,89.44,0,0,1,8.48,30.6,11.78,11.78,0,0,0,2,5.52,61.64,61.64,0,0,1,9.5,44.63,6,6,0,0,0,.42,4.24c.27.45.63,1.06.51,1.48-2,7.32,3.39,13.18,3.87,20.06.37,5.33.86,10.64.23,15.93-1.55,13.08,0,25.42,7.06,36.91a58.8,58.8,0,0,1,7.52,18.42c.48,2.22.87,4.46-.94,7-2.88-3.49-2-8.27-4.73-11.91-1.59,10.53-.38,19.92,7.65,27.86a10.09,10.09,0,0,1-7.15-2.07c-5.71-4.32-10-9.93-14.33-15.49h-.15l.24-.11c-.47,1.67.73,2.74,1.48,3.94a76.12,76.12,0,0,0,8.46,10.57c1.15,1.26,2.45,2.46,2.75,4.38-4.63,2.18-9.22,2.86-13.83-.57-1.35,3.73-1.73,7.21-3.48,10.22-.75,1.29.11,2.23.92,3.16s2.38,1.4,2,3.62c-5.72-1.27-6.68-7.05-10.25-10.66-2.8,6.24-2.8,12.79-3.92,19.34-4.7-5.56-6.59-12.34-7.6-26.58-1.37.59-.84,2.48-2.17,3.06-1.24-.5-.53-1.56-.66-2.38.5-3.55,2.47-7,.94-11.54-1.74,4.34-1.1,8-.9,11.62-1.87,3.73-3.85,7.4-2.34,11.84,1,2.91.37,5.83-.67,8.61a33.87,33.87,0,0,0-1.59,7c-2.53,16.39-8.66,31.47-17.19,45.58-4,6.65-6.77,13.78-9.77,20.89-3.13,7.4-2.42,14.81-3,22.29-.9,11.45-4.51,21.51-14.62,28.31-5.52,3.71-9,9.36-12.89,14.6a78.86,78.86,0,0,1-7.07,8.1,16.35,16.35,0,0,1-15.34,4.86c-20.85-3.8-41.48-8.48-60.64-18a54.58,54.58,0,0,1-11.85-7.34c-1-.83-1.91-1.49-1.27-3,1.05-.44,1.69.44,2.36.9,12.52,8.75,26.56,14,41.19,17.85,8.23,2.16,16.56,4,24.81,6,11.28,2.8,18.71-2.06,24.82-10.63a139.07,139.07,0,0,1,15.69-18.06A38.69,38.69,0,0,0,157,566c.21-2.31.24-4.63.39-7.84-4,4.75-5.66,10.18-10.11,13.86-1.48-2.35-.45-4,.4-5.56,1.68-3,3.63-5.9,5.31-8.92,3.22-5.81,6.28-11.66,8.26-18.07a54.49,54.49,0,0,1,7.16-15.12c8.43-12.11,12.51-26.1,17.39-39.75a11,11,0,0,0,.47-3.94,27.62,27.62,0,0,1,1.91-10.55,22.46,22.46,0,0,0,1.14-5.85,5.17,5.17,0,0,0-3.06-5.78c-4.26-2.31-7.4-6.14-10.44-9.78-6.09-7.27-14-9.78-23-10-2-.05-4-.07-6-.1-7.15-.11-10.09,2.73-10.51,9.67-.2,3.44-.78,7-3.18,9.7a10,10,0,0,0-2.67,8.45c.59,4.14-1,7.17-4.13,9.73a120.4,120.4,0,0,0-9.27,8.2c-2.09,2.1-4.53,4.35-1.94,7.89.92,1.27.21,2.83-.72,4.08a21.86,21.86,0,0,1-4.55,4.46c-1.71,1.26-2.83,2.69-2.65,5s-1.22,3.41-3.42,3.48c-1.42,0-3,.33-3.46,1.58-1.72,4.48-6.43,7.13-7.26,12.11a2.92,2.92,0,0,1-1.77,2.48c-2.29.87-4.64,1.77-5.47,4.27-1.17,3.54-2.1,7.13-1.39,11a49.33,49.33,0,0,0,4,13.33,7.53,7.53,0,0,1,1.1,4.87c-5.7-4.24-5.91-10.61-8-16.36-3.95,3.43-3.66,8.52-5.78,12.72-2.05-1.42-1.67-3.16-1.39-4.78a22.53,22.53,0,0,1,4.74-10c2.22-2.86,2.87-6.14,3.08-10.33-7.36,4.26-10.73,11.85-17,17.2a7.62,7.62,0,0,1,1.75-6.69c4.45-6,8.79-12,16.53-14.39,4.82-1.47,7.73-5.15,9.24-10,.49-1.55-.11-2.56-.9-3.65-3.44-4.74-7.37-9.09-10.65-14C79.21,495.73,77,493,75.43,490c-6-11.79-15.42-20.24-26.71-26.74a120.86,120.86,0,0,1-10.15-7.06c-2.1-1.52-3.07-3.21-2.2-5.77,1.25-.17,1.87.84,2.64,1.48a123.44,123.44,0,0,0,14.41,10C63.57,468.1,72,476.06,77.68,486.71c4.79,9,11.41,16.62,17.68,25,2.4-2.77,4.38-6,8.51-5.94a8.57,8.57,0,0,1,4-7.6c2.54-1.82,5.31-3.65,2.84-7.65-.82-1.33.28-3.09,1.06-4.5a23.8,23.8,0,0,1,5.77-6.56c2.63-2.25,5.21-4.56,7.77-6.89,1.09-1,2.2-2,1.7-4.07-3-.64-5.33-2.79-7.77-4.75a27.51,27.51,0,0,0-9.52-4.88c-9.42-2.84-17.8-7.69-25.7-13.45-4.72-3.45-9.76-6.48-14-11.49-2.08,3.7-3.75,7.1-5.8,10.27-.9,1.39.4,2.78,1.1,4,1.45,2.59,3.37,4.95,4.61,8.42-4.27-1-5.77-3.91-7.26-6.61-1-1.72-2-2.71-4.42-1.87,1.3-3.15,1.41-5.84-.37-8.61-3.53,1.42-5.89,5.2-10.58,5.68a11.84,11.84,0,0,1,5-5.42c5.62-3.27,5.15-8.19,4.28-14.16-3.66,6.21-5.46,13-12,16.26.87-5.41,5.53-9.07,6.8-14.88a126.45,126.45,0,0,1-14.78,3.3c-.88-2.07-.9-3.48,1.86-3.9a59.18,59.18,0,0,0,12.32-3.24c1.68-.64,3.14-1.35,3.75-3.25,5.08-15.94,7.15-32.17,4.55-48.82a2.61,2.61,0,0,0-1.43-2.09c.38,7.05-2.51,12.78-5.9,18.28s-6.77,10.58-13,14.42c.28-2.69,1.47-3.78,2.42-5,2-2.52,3.95-5,5.93-7.53,7.19-9.15,9-19.64,7.75-30.92a77.55,77.55,0,0,1,0-12.75,17.71,17.71,0,0,1,1.53-6.47c1.28,1.26.85,2.64.7,3.81a35.29,35.29,0,0,0,2.06,17.31c4.87,12.56,5.16,25.44,3.52,38.55-.08.61-.31,1.26.18,1.87,3.12-4.45,1-10.1,3.15-15.09,2.22,1.44-.52,5.64,3.81,4.84-4.62,6.17-4,13.57-6.45,20a45.08,45.08,0,0,0-2.86,21.15,39.12,39.12,0,0,0,8-12.9c1.87-4.49-.06-9.88,3.6-14.46,5.05,6.9,5.35,15.55,10.57,22.17.64-.74.47-2.21,1.76-2.11,1.3.39.84,2.29,2.23,2.6,0,.28-.43.59.07.83l-.1-.74c.13-1,.67-1.48,1.62-1.07.43.19.73.74,1,1.15,2.79,3.73,3.17,3.73,5.48,0,2.47.45,2.58,5.12,6.47,3.54-1.64-3.15-2.86-6.31.16-9.46,2.83,1.35,4.32,4.2,6.51,6.25s5.42,3.11,5.12,6.94c0,.44.8,1,1.32,1.42,5.65,4.4,12.16,7.46,17.64,12.1,1.19-1.6.7-3,1.17-4.28.91-2.44,2.16-4.52,4.62-5.75,5.39-2.71,7.72-6.53,8.07-13-11.52.33-22.83-.1-32.3-8.63,1.74-1.31,2.65-.46,3.48.06,5.25,3.31,11.19,4.09,17.17,4.7,3.05.31,6.1.63,9.15.76,1.38.06,2.8,1.68,4.09.23a9.94,9.94,0,0,0,2.66-4.85,11.12,11.12,0,0,0-.25-5.8l-10.73,4c3.24.58,5.89-1.64,8.83-.64-2.86,4.87-18.25,5.44-23.51,1,10.91-1.6,20.77-5,25.94-9-3.63-2.21-6.68,1.68-10,1.12-1.24-1.72.78-2.11,1-3.38-2.59-2.09-6.06-3.47-7.81-7,3-1.08,4,2.42,6.41,2,0,.12,0,.3.05.33.28.14.37,0,.2-.24,0-.05-.21,0-.33,0-.12-1.92-1.94-2.68-2.8-4.1s-2.49-2.41-1.93-5.25c4.25,2,6,6.29,9.42,8.58l1,.79c.26.92.15,2.13,1.88,2.1-.05-1.41-1-1.73-2-2a1.18,1.18,0,0,0-1-.82c-.84-4-3.86-6.8-5.42-10.39-.78-1.81-3.68-4-1.63-5.43,2.38-1.68,2.78,2.2,4.32,3.31a2.7,2.7,0,0,0,.71.24c-.21.74.2,1.33.45,2l.23-.08-.34.11c.13-.7.35-1.42-.42-1.92a23.55,23.55,0,0,0-2.86-11.31,9.92,9.92,0,0,1-.86-6.18c1.15-8.13,1.72-16.31,2.07-24.51.07-1.57,0-3.39.79-4.64,2.13-3.5,1-5.81-2-7.8-.29-.18-.39-.64-.58-1,.66-1.46,1.94-.35,2.81-.76a1.25,1.25,0,0,0,.71,1.13c.33.73.55,1.61,1.7,1.21a1.74,1.74,0,0,0-1.79-1.12l-.7-1.1c-1.86-1.26-2.36-2.43.2-3.42l.26,1.52.16-.07-.26,0-.17-1.37c-.5-.32-1-.64-.91-1.34l-.09.11c.72-.19,1.52.45,2.35-.35-1.6-2.65-5.53-1.88-7-4.66Zm275-129.44.72.89c1.67,4.82,4.83,8.94,6.09,13.95,2.31-9.47-2.33-22.49-10.33-29.89-4.27-4-13.88-8.18-16.8-7.25,2,9,9.29,14.11,14.7,20.59-.24,1.79,1.09,2.93,1.85,4.27a33,33,0,0,1,4.43,12.28c.18,1.47.5,3-.69,4.72a32.54,32.54,0,0,1-3-6.49c-.84-2.1-1.71-4.18-2.66-6.23a13.13,13.13,0,0,0-3.57-5.07c2.12,11,6.27,20.86,14.89,29.13,1-4,.08-7.1-.38-10.16-1.29-8.59-4.26-16.42-11-22.35-.06-.62-.42-1.27.43-2,1.72.3,2.8,1.92,4.31,2.8ZM58.38,261.58l.17.06-.25,0Zm359.94-82.44c0,.33-.05.37-.17.11h.3l.52,1.17a1,1,0,0,0,.95.61l.6.76.92.94a11.35,11.35,0,0,0,3.77,5.44,8,8,0,0,0-3.87-5.35l-.91-.94-.62-.75-.91-.62ZM150.37,206.59l1.17-.5.32-1.87.16-.16,0,.2-.11-.14-.34,2c-.43.1-.92.09-1.14.59l-1.13.6c-6.69,8.16-14.8,15.3-19.34,26.09,3.34-.71,5.34-2.08,7.54-2.9a6.7,6.7,0,0,0,4.59-5.84c.75-4.62,2.8-8.81,5.12-12.87.8-1.42,2.4-2.56,2-4.54A.78.78,0,0,0,150.37,206.59ZM214.21,37l.19-.05-.09.17-.84.93A63.75,63.75,0,0,0,193.13,55.4c4.85-3,9.12-6.84,14.33-9.34-.36,1.88-1.76,2.88-2.86,4.11-1.47,1.64-3.78,2.47-4.54,4.78C192.57,58.9,189,66,185.28,73c5-5.94,10.57-11.48,14.69-18.16,3-.27,5.28-1.37,6.78-4.41C210,43.88,216.84,41.3,222.3,37.2c.21-.15.51-.36.72-.32,4.16.85,7.71-2.86,11.93-1.6,1,.29,1.48-.27,1.65-1.19a1.35,1.35,0,0,0-1.25-1.69c-5-.92-10-1.44-14.68,1.6-2.93,1.92-5.2,4.53-7.58,7-.88.92-1.85,1.77-3.23,3.1.75-3,3.25-3.84,3.53-6.15C213.94,37.92,214.15,37.54,214.21,37ZM245,35.22h1.77c2.92-.31,5.2-2.32,8.09-2.89a81.57,81.57,0,0,1,10.78-1c-5.77-2.88-14.23-1.64-18.41,2.41a1.48,1.48,0,0,0-.44,1.43H245l.09-.19ZM169,280.87l-1.1-.59a4.58,4.58,0,0,0-3.12-4c0-.6-.21-.87-.82-.79-.06-1.24-.75-1.53-1.84-1.21l.09-.24-.18.15,2,1.22c0,.55.22.86.81.8a6.12,6.12,0,0,0,3.14,4,.79.79,0,0,0,1.14.57,3,3,0,0,0,.44,2.12c0-.29.21-.19.1,0-.31.42.3.1-.21-.06Zm-7.77-97.55c-.27.27-.5.15-.33-.08.32-.42-.2,0,.33,0l.26-2.34c2.13-.42,1.19-2.44,1.88-3.61l-.08-.21,0,.31a4.28,4.28,0,0,0-1.75,3.6C160.86,181.7,161,182.51,161.19,183.32ZM296.57,71.92c0-.3.19-.22.1-.07-.25.46.3.06-.23,0l-.51-2-.67-1.68c-3.91-9.49-11.74-15.79-18.64-22.84-.11-.7-.53-.8-1.12-.59l0-2.15L274.2,42c-.77-2.42-1.88-4.49-4.86-4.53-.18-.21,0-.33,0-.19.18.49.32-.18-.14.09,1.87,1.29,2.95,3.48,5.05,4.53l1.26.72.06,2.07,1.1.57c.11,1.56,1.22,2.63,2,3.86,5.81,9.73,11.3,19.62,14.47,30.59,1.69,5.87,3.23,11.8,4.75,17.72,4.49,17.38,10.05,34.47,14,52a83.44,83.44,0,0,0,7,19.49c1.77,3.48,3.67,6.85,6.79,9.49-1.68-6.75-2.62-13.61-5.37-19.94a191.36,191.36,0,0,1-10.4-31c-3-12.27-5.41-24.7-10.65-36.33a35.26,35.26,0,0,1-2.38-8.42,26.09,26.09,0,0,0-4-10.3,50.09,50.09,0,0,1-5.53-12c2.81,1,3.52,3,4.85,4.4,1.05,1.08,1.19,3,3.12,3.26-.25.74-.35,1.43.68,1.64ZM418.68,187.19a.74.74,0,0,1-.12-.33c0-.09.1-.17.16-.26l-.13.55,1,1.31c1.67,6,3.08,12.06,2,18.43-.38,2.21-2.4,3.78-2.45,5.68-.11,4,.63,8,.7,12,3.44-4.65,5.69-17.62,4.32-24.14-.87-4.17-1.53-8.5-4.63-11.83C419.68,187.83,419.59,187.26,418.68,187.19ZM60.71,260l2-.32,0-.23.08.34a2.13,2.13,0,0,0-1.91.31l0,.23ZM184.56,90.53c1-.52.88-1.43.86-2.32l7.76-19.4c-3,3.43-7.8,5.65-6.4,11.71.55,2.37-.79,5.18-1.27,7.78-.72.62-.69,1.52-.86,2.34a2.91,2.91,0,0,0-.28,3c-1.26.43-1.32,1.29-.84,2.35a1.71,1.71,0,0,0-1.38,2.34c.94-.61.68-1.74,1.29-2.45a4.67,4.67,0,0,1,.88-2.31ZM84.16,431.88l-.08.09c-.13-.49.17-1.21-1-1.47C83.37,431.22,83.2,431.89,84.16,431.88ZM53.49,296c.59-.23,1.08-.5.44-1.43l-.35,1.51c0,.2-.53.34,0,.58ZM203.74,414.7a2.46,2.46,0,0,0-.22-2.21,1.6,1.6,0,0,0,.32,2.13c.23.77-.61,1.94,1,2.36C204.58,416.08,204.81,415.12,203.74,414.7ZM67.21,257c-.85.1-1.84-.09-2.26,1.12,1-.09,1.85-.13,2.17-1.22.24,0,.52.09.72,0s.21-.38-.11-.35S67.38,256.86,67.21,257Zm40,174.21a.82.82,0,0,0,0,.28s.14,0,.21,0l-.33-.2a4.07,4.07,0,0,0-3.27-3.12c.13-.34.07-.45-.16-.31l.27.23C104.42,429.86,105,431.44,107.25,431.23ZM312.18,224.71c-2,1-1,2.6-1.1,4.56,1.2-1.77.66-3.29,1.07-4.63-.22-.73.57-1.48-.07-2.23A3.25,3.25,0,0,0,312.18,224.71ZM73.11,263.84c-2.23,0-3.23,1.49-4.57,3.43,2.53-.52,3-2.74,4.63-3.51l-.08-.18ZM239.82,25.32c.2.11.28.73.62.12l-.7,0c-1.72-2.49-4.27-2.05-6.59-2.43l-.24.89Zm-79.3,147.44c3.19-3.08,3.44-7.3,4.52-11.19a41.18,41.18,0,0,0-4.49,11.28v.28A2.25,2.25,0,0,1,160.52,172.76ZM57.63,286.47a41.19,41.19,0,0,0,4.92-10.33c-2.35,3.12-5.46,5.89-4.81,10.43a5.5,5.5,0,0,0-2.16,3.64A5,5,0,0,0,57.63,286.47Zm261.85-88.12c3.51-3.44,4.9-8,6.6-12.37-3.22,3.62-4.85,8.05-6.52,12.45l-.16,1.06A.8.8,0,0,0,319.48,198.35Zm7.16-34.3c.05-.5.45-1-.07-1.54l.08,1.47c1.68,3.71.79,8.11,3.24,11.8,1.11-.7,2.05-1.73,1.54-2.88C330.06,169.84,329.47,166.32,326.64,164.05ZM99.32,446.33l.14.24-.25-.14c-4.6-7.1-10.23-12.29-13.45-11.76,4.19,3.91,8.12,7.59,12.1,11.23C98.2,446.21,98.82,446.2,99.32,446.33ZM208.93,59.9c3.77-6.33,8.82-11.79,12.56-18.17-4.78,4.08-8.34,9.11-11.62,14.34a4.2,4.2,0,0,0-.83,3.74l-.22-.11C209.35,59.71,208.67,59.44,208.93,59.9Zm99.91,46.64a3.89,3.89,0,0,0,.42,2.87c2.8,11.17,3.62,23,11.37,33.28.78-4.13.93-7.39-1-10.61a103.88,103.88,0,0,1-8.85-19.58c-.36-1.06-.33-2.42-1.62-3a3.84,3.84,0,0,0-.44-2.85,84.26,84.26,0,0,0-5.83-18.43c-.73-1.6-1.13-3.58-3.14-4.3l-.06-.31,0,.21A153.82,153.82,0,0,0,308.84,106.54Zm4.42.42c.06-.29.38-.68-.28-.67l.38.59c.32,5.33,4.11,9.36,5.38,14.34.22.86.38,2.12,1.91,2.36a19.85,19.85,0,0,0-2.27-9.54C317.05,111.47,316.34,108.31,313.26,107ZM127.49,291l.47-.09-.5.07c-.16-1.79-1.72-1.89-2.91-2.16a34.93,34.93,0,0,0-18,.45,7,7,0,0,0-4.15,2.71l1.89-.32C112,290.53,119.69,289.43,127.49,291Zm70.69-8.18.1-.2v.12A107.69,107.69,0,0,1,205,303.8c.52-2.12.62-4.2,1-6.25C207.12,290.63,202.73,286.69,198.18,282.82ZM397.81,192c.18-1.82.42-3.64-.78-5.32.27,1.75.53,3.49.8,5.24.13,1.05.23,2.11.38,3.15,1.25,8.78,1.6,17.45-2.5,25.71-.68,1.37-.53,2.74.81,4.29a45,45,0,0,0,3.54-27.38C399.7,195.71,399.75,193.42,397.81,192ZM174.9,250.19l.16-.07-.25,0c.14-.5.5-1.06.39-1.49A46.46,46.46,0,0,1,174,233.65a1.38,1.38,0,0,0-.74-1.38c-1.05.15-1.7,1.11-2.62,1.57-2.83,1.42-3.21,3.28-1.71,6.07C170.78,243.41,172.77,246.84,174.9,250.19Zm186.62-68.87c-7.49,2.84-16.75,15.13-15.08,20.59,5.35-6.83,11.31-12.9,15-20.67l0-.12ZM64.12,263.5c-9.14,3.88-15.39,10.27-17.89,20.19,1.26.06,1.7-.71,2.19-1.27a106.62,106.62,0,0,1,11.91-12.23A9.82,9.82,0,0,0,64,263.4l.15-.06Zm110.84-62c1,.1,1.34-.73,1.69-1.4,6.3-12.07,6-24.38,1.24-36.85.38,12.89.23,25.73-2.95,38.34l.16.22Zm175.39,2.15c2.46-2,4.94-4,7.39-6.07a79,79,0,0,0,15.5-17c1.65-2.5,2.54-5.1,1.41-8.06-.56,0-.87,0-1,.12a2.14,2.14,0,0,0-.79.85c-2.09,5.48-6.12,9.56-9.9,13.85-3.59,4.09-7,8.31-10.47,12.54-.88,1.08-2.19,2-2,3.71l-.27.06ZM231.9,440l.2.11-.29,0c0-2.94-1.68-5.25-2.92-7.68a83.07,83.07,0,0,1-7.34-20.17c-.41-1.89-.72-3.8-1.15-6.12C215.56,417.19,220.78,432.07,231.9,440ZM405,213.63l.1-.65-.14.62c3.81,8.7,3.91,17.72,2.32,27a31,31,0,0,0,8.86-12.45c.56-1.55-.25-2.52-1.24-3.49a55.08,55.08,0,0,1-7.53-9.28C406.82,214.57,406.39,213.44,405,213.63ZM177.57,284.88a1.92,1.92,0,0,0,.14.33,1.62,1.62,0,0,0,.18.2l-.42-.44a6.89,6.89,0,0,0-.5-3.1c-3.71-13.77-12-24.68-21.63-34.79-1-1.05-2-2.37-4.12-2.25a31.11,31.11,0,0,0,3.73,6.45C162.74,262.31,171.67,272.58,177.57,284.88Zm177.86-41.67c-1.42-1.18-2.58,1.25-4,.4-.22-1.7.78-2.83,1.54-4.05.63-1,1.39-2,1.15-3.29a48.85,48.85,0,0,1-.15-17c-6.22,3-8.66,21.71-4.2,30.29,2.77-1.35,3.24-4.76,5.68-6.35l-.18-.93Zm-18.78-38.84c-.77-.4-1.39.79-2.36.1.93-5.25,7.16-7.74,7.9-13.91-12.55,9.63-18.84,32.89-12.21,43.82a23.07,23.07,0,0,0,.32-4.51c-.89-7.17,1.4-13.65,4.06-20.1.75-1.82,2.12-3.39,2.2-5.48a1.15,1.15,0,0,0,.28-.08s0-.13,0-.2Zm41.67,31.24c2.71-3.77,6.14-7.43,7-12,1.19-6.51,3.08-12.93,3.59-19.56.43-5.75.3-11.47-1.58-17-.5,7.07-3.59,13.58-2.67,21.07,1,8.06-2,16-5.21,23.48-.56,1.3-1.63,2.51-1,4.11l-.61,0c.06,0,.15.14.19.12A1.23,1.23,0,0,0,378.32,235.61ZM197,69.67c-2.34,1.67-2.87,4.41-3.75,6.83-4.69,13-9.29,26.06-13.11,39.36a106.11,106.11,0,0,0-3.72,34.26c.28-6.53,1.84-12.88,2.75-19.31,1.34-9.56,4.67-18.53,7.66-27.64,3.65-11.11,6.81-22.38,10.17-33.58L197,69ZM105.9,453.34l-.07.09a27.6,27.6,0,0,1-7-3.83c-7.33-6.15-14.45-12.51-20.34-20.13A4.17,4.17,0,0,1,77.4,427c0-3-1.93-5.78-1.32-9a2.45,2.45,0,0,0-2-2.75c-.81,3.92-1.46,7.82-2.45,11.64a5.67,5.67,0,0,0,1.85,6.37A117,117,0,0,0,103.22,453,3.21,3.21,0,0,0,105.9,453.34ZM132.27,223.1c-2.21-.57-3.33,1.31-4.82,2.25-8,5-16.86,7.86-25.4,11.54-4,1.7-8,3.22-11.52,5.92,10-1.44,20-2.39,29.65-5.59a3.35,3.35,0,0,0,2.37-2c1.78-5.28,6.48-8.2,9.79-12.23l-.08-.18Zm41.16,41.45v-.3l-.09.2c3.64,6.24,6,13,8.47,19.76a60,60,0,0,1,3.73,16.68c.31,4.4.48,4.81,4.74,5.7,1.58.33,3.16,1.34,5,.71a118.28,118.28,0,0,0-10.9-30C181.69,272.31,178.36,267.69,173.43,264.55Zm123.46-87.92c-2.79,3.3-3,7.53-3.92,11.44a47.81,47.81,0,0,0,5.89,36.47c.56.92.83,2.33,2.8,2.23a249.51,249.51,0,0,1,3.2-39.63c-2.23,3.94-2.93,8.48-6.11,12.27a7.88,7.88,0,0,1,.09-5.23c1.15-4,2.14-8,3.57-11.85,4.59-12.39,5.12-25.21,4.43-38.19-.13-2.49-.16-2.49-1.83-4-.43,9.54-.39,19.16-2.27,28.58s-4.74,18.55-6.86,27.93a16.33,16.33,0,0,1-1.2-8.71c.35-3.86,1.47-7.57,2.14-11.36,0-.44.83-.84-.08-1.41Zm-1-55.6c.14.21-.32.78.38.66l-.48-.57c0-3.71-1.69-6.92-3-10.25-.18-.46-.31-1.18-1-1.12-2.7.23-2.82-2.06-3.46-3.64-2-4.83-2.48-10.06-3.87-15.06-.86-3.08-1.83-5.64-4.69-8-5.4-4.55-10.55-5.63-16.74-2.57l.14-.11c-2.77,0-5.56-.24-8.32,0-5.07.38-7-2.21-5.07-7,.5-1.2,1-2.77,2.64-2.47,2.22.4.16,2.22.85,3.32A30.81,30.81,0,0,1,273,76.48c2.63,1.19,4.84,3.15,7.67,3.89l.1.21-.18-.13c.44-1.43-.49-2.56-.9-3.79-3.13-9.21-9.86-16.36-14.27-24.79-3.26-6.21-10.5-6.21-14.42-11-3.07,2-4.26-1.13-5.84-2.33-1.3.41-.06,1.72-1.38,2.06l-2.71-3.06c-1.26.28-.94,2-2,1.95-2.77-.24-4.6,1.81-6.91,2.64-4.89,1.76-9.74,4-13,8.21a133.63,133.63,0,0,0-11.47,16.78c-6.09,11.07-7.62,23.46-9.94,35.56-1.7,8.86-2.63,17.87-3.9,26.81l.09,1.76c.44-.76.09-1.28-.11-1.82,2.35,0,1.42-2.9,3.48-3.78,0,5.14-1.23,9.83-2.28,14.53-.07.35-.44.91-.65.9-2.8-.1-2.18,2.14-2.39,3.62-.37,2.5-.49,5-.7,7.55-1.15,13.64,1.39,26.42,8.63,38.2,3,4.93,7.56,8.14,12,11.54,1.59,1.22,3.65,2.17,4.08,5-4.2,0-6.86-3-10.43-4.62a10.39,10.39,0,0,0,1.53,4.11c4.24,7.68,8.91,15.17,12.52,23.15,2.28,5,5.86,6.71,10.66,7.53,5.66,1,11.39,1.11,17.08,1.62,4.63.42,9.22,1.34,13.91,1.14,1.59-.07,2.69-.4,3.46-2,6-12.67,14.22-24,21.85-35.69A6,6,0,0,0,288,199c.3-11.52,3.93-22.11,8.54-32.56,3.16-7.16,5.51-14.76,3.16-22.87-2,.72-3.16-1.41-4.95-1.42-.38.85.67,2.2-1.34,2.78a16.43,16.43,0,0,1-4.12-9.94c1.4-1.43,2.13.43,3,0,.68-2.65-3.38-6.07,1.63-7.48-.28-3.66-3.9-6.51-3-10.64C294.16,117,294.07,120.1,295.93,121ZM173.13,311.67c2.42,3.42,4.54,6.94,3.46,10.74-1.44,5.1-2,10.48-4.1,15.34-3.34,7.53-6.91,15-10.41,22.43-.63,1.35-1.44,2.74-3.19,2.57-2-.19-2.36-1.91-2.73-3.48-.91-3.86.21-7.38,1.82-10.81,2.61-5.52,2.85-11.25,1.72-17.16a15.79,15.79,0,0,0-7-10.25c-2-1.37-3.41-1-4.6,1.05a7.39,7.39,0,0,0-.64,6.16,9.23,9.23,0,0,1-1.34,8.69,13.94,13.94,0,0,0-2.42,7.88c-.39,7.7-.68,15.42-1.92,23.05a12.28,12.28,0,0,0,1,7.35c3.49,7.61,6.37,15.49,10.5,22.83,1.07,1.91,1.9,2.57,4.17,2.46,10.75-.52,21.23.45,30.84,6.11A57,57,0,0,0,199.53,412c0-3,0-5.51,0-8a42.86,42.86,0,0,1,2.74-14.44c1.77-4.74,3.62-9.45,5.66-14.07C213,364,216,351.87,219,339.75a5,5,0,0,0-.91-4.88,21.57,21.57,0,0,0-7.72-5.17c3.5,7.4,2.06,14.24,1,21.11-1.71-1.38-1.32-3.14-1.29-4.79.06-2.92.39-5.86.23-8.77-.18-3.11-1-6.07-4.07-8-1.86,5.74-.07,11.68-2.18,17.52-2.56-1.91-2.24-4-2.25-5.94,0-6,1.28-11.89,2.35-17.78,1.51-8.26-3.08-13.47-11.76-13.15,2.79,8.78-.07,17.44-.44,26.16,0,1-.27,2-1.51,1.93s-1.39-1.08-1.41-2.05a17.3,17.3,0,0,1,.16-2.38c.58-5.15,1.43-10.29,1.71-15.46.32-6.05-.13-9.18-6.91-10-.46.59-.22,1.26-.26,1.91s.17,1.35-.58,1.75c-2-1.34-2-1.34-2.69-2.57-1.51-2.7-3.7-3.61-6.06-2.06a15.13,15.13,0,0,0-6.47,8.33,5.43,5.43,0,0,0-.17,2.37c.35,2.14,2,3,3.86,3.58.92.31,2,.49,2.52-.46.88-1.59.15-3-.76-4.44S171.44,313.66,173.13,311.67Zm77.11-12.62.6.16c.25-.58.54-1.15.74-1.75,2.21-6.62,2.93-13.47,3.27-20.4.51-10.67,1.71-21.22,6.33-31.06a1.79,1.79,0,0,0,.1-2c-11.9-2.06-24.19-1.47-36.72-4.69,2.21,5.12,4.22,9.43,5.95,13.86a75.93,75.93,0,0,0,7,13.4c2.06,3.2,4.39,5.81,8.48,6.65,3.9.81,4.94,2.49,5.17,6.5a42.57,42.57,0,0,1-.07,4.79C250.83,289.37,250.53,294.21,250.24,299.05Zm-72.73,4.21a4.37,4.37,0,0,0-.17-1.16c-.45-1-.94-1.91-1.47-2.83-6.17-10.65-14.1-19.94-22.35-29a101.16,101.16,0,0,0-19-15.71c-2.12-1.41-3.83-1.44-5.61.35a6.52,6.52,0,0,0,2.3,3.68c3.48,3.48,7,6.92,11.36,9.33a47.89,47.89,0,0,1,13.58,11.54c3.79,4.54,6.54,9.67,9.34,14.8,1.95,3.59,3.92,7.16,6,10.91C173.59,304,175.72,304.41,177.51,303.26Zm23.87,127.39c1.91-1,1.81-2.28,1.47-3.63-.68-2.71-1.46-5.39-2-8.11a5.33,5.33,0,0,0-3.1-3.87c-3.55-1.82-7.2-3.46-10.6-5.53-8.78-5.32-18.44-6.36-28.39-6.17-3.71.07-4.07.62-3.43,4.42a91.26,91.26,0,0,1,25.81,6.31C189.69,417.4,195.3,424.44,201.38,430.65Zm-14.91-208c-5.16,17.46,8.49,45.42,18.59,54.11-1.31-8.21-3.1-15.9-6.55-23.19-3.35-7.09-7.46-13.84-9.61-21.45C188,229,187.28,225.78,186.47,222.62Zm4.75,226.74c2-6.78,1.44-8.76-4-11.86-6.33-3.63-12.62-7.4-19.2-10.52-4.75-2.25-9.89-3.94-15.29-3.8-3.39.08-3.78.77-3.78,4.68C166.65,427.78,177.75,440.86,191.22,449.36ZM225,266.6c-11-14.26-15.25-31.45-26.26-45.47C197.49,237.34,212.73,264.18,225,266.6ZM153,415.66a30,30,0,0,1,16.54,2.08c8.81,3.81,17.3,8.19,24.33,14.92,1.79,1.71,3.37,1.87,5-.25a46.69,46.69,0,0,0-11.26-12.26c-6.79-5.12-14.82-7-22.84-8.88-2.56-.59-5.08-1.66-7.81-1.35C153.37,410.32,152.66,411.23,153,415.66Zm171.42-182.8c-.92,3.12,1.38,6.41-.36,10.17a17.07,17.07,0,0,1-2.52-7.79c-.85-6.58.41-13,1.8-19.36a94.34,94.34,0,0,0,1.74-16.81,84.38,84.38,0,0,0-6.78,15.23,41.49,41.49,0,0,0-2,13.36c.28,10.92,5,21,5.94,31.86C325.88,250.81,326.12,241.91,324.42,232.86ZM215.15,364.21c-1.37,5.83-4,10.62-6,15.66-2.21,5.55-4.72,11-5.83,16.95-.57,3-1.51,6.64,0,9,2.37,3.84,3.14,8.13,5,12.06.3.63.24,1.64,1.54,1.68.91-1.88-.22-3.58-.67-5.26-2-7.49-3.87-15-2.88-22.83.24-1.92.18-4.22,3.4-4.94-1,6.21-2,12.1.42,18.61.9-12.08,1.83-23.4,5.17-34.35,1.3,6.13-.32,12.06-.69,18.06S213,401,214.2,407C218.28,393.15,219.49,379.16,215.15,364.21ZM56.53,278.56c-1.85-.11-2.44,1.26-3.28,2.16-1.73,1.84-3.23,3.91-5,5.67a15.76,15.76,0,0,0-5,13.34c.13,1.45,0,2.93.15,4.39,1.32,12.89.78,25.78,0,38.68-.16,2.44,0,4.89,0,7.34a38.14,38.14,0,0,0,3.2-15.06c.09-6.5-.86-13.14-.19-19.45.87-8.33,2-16.87,5.57-24.76C53.71,286.92,55,282.75,56.53,278.56Zm109.32,33a38.9,38.9,0,0,1-16.5-8.42c-6.76-5.65-15-7.87-23.2-10a7.34,7.34,0,0,0-4.77.25c4.24.52,7.85,2.35,11.42,4.49a78,78,0,0,1,13.51,10.52c4.75,4.51,10.13,8.18,15.49,11.88,1.12.77,2.29,1.72,4.19,1.54C163.8,318.47,164.57,315.27,165.85,311.6Zm-1.33-73-9.68,4c2.8,2,5.12,3.79,7.49,5.47a52.39,52.39,0,0,1,10.1,9c3,3.58,6.18,7,9.07,10.61,9.32,11.72,15.14,24.84,15.83,40.35a9.28,9.28,0,0,0,3.92,1.53,2.54,2.54,0,0,0,.31-.83,16.53,16.53,0,0,0-.17-2,72.64,72.64,0,0,0-19-40.53C174.87,258.13,168.25,249.62,164.52,238.58ZM101.83,433.9a2.18,2.18,0,0,0,.27,2.72c8.54,7.51,16.51,15.68,26,23.13a14,14,0,0,1,1-1.72c4.24-5.17,4.23-5.35-1.19-9.45-5.92-4.48-12.88-7.47-18.36-12.62C107.29,433.89,104.62,433.58,101.83,433.9Zm80.72-213.34c-2,2.74-4.62,5.06-5.07,8.47-1.46,11,.37,21.44,6.59,30.84a36.12,36.12,0,0,0,9.65,9.95C184.84,254.53,179.65,238.55,182.55,220.56ZM256.6,38.85c7.48,1,11.16,6.48,14.61,12.06,1.74,2.82,2.91,6,4.67,8.81,7.45,11.92,11.82,25,14.45,38.67.59,3.06,1,6.08,4.48,7.27a2.53,2.53,0,0,0,.08-.77,163.89,163.89,0,0,0-20.47-54.25A36,36,0,0,0,265,40C262.4,38,259.87,37.18,256.6,38.85ZM189.3,456.18c2.08-2.63.8-4.52-1.37-6.31a195.48,195.48,0,0,0-19.4-14,45,45,0,0,0-12.27-5.65c-6.45-1.77-8.31-.73-10.25,5.62,2.53,0,5-.08,7.49,0,9.06.31,17.3,2.51,23.47,9.88,2.46,2.94,5.37,5.52,8.12,8.23C186.22,455.07,187.36,456.25,189.3,456.18Zm-37.13-35.8c7.9,1.23,15.49,3.26,22.42,7.5,5.33,3.26,10.92,6.08,16.41,9.07.77.41,1.63,1.23,2.48.22s.15-2-.64-2.73-1.34-1.3-2.05-1.9A82.23,82.23,0,0,0,167,419a21.93,21.93,0,0,0-11.77-1.39C153.69,417.84,151.87,417.88,152.17,420.38ZM291.54,219.2c-1.17.4-1.48,1.35-2,2.08-6.33,8.4-10.34,18.29-17,26.49A40.36,40.36,0,0,0,266,259.62c-.62,1.72-2.52,4.18-.1,5.24,3,1.33,3.09-2.12,3.76-3.83,3.82-9.75,8.7-18.79,16.29-26.21,2.37-2.32,4-5.3,5.93-8S293.69,221.82,291.54,219.2ZM182,163.18l1.22-.08c0-6.24.16-12.49,0-18.72-.37-12.08,3-23.4,6.64-34.69.16-.5.26-1.24.62-1.43,3.93-2.08,3.05-6.08,3.75-9.38,1.41-6.75,2.64-13.53,3.94-20.3a9.84,9.84,0,0,0-1.38,3.07c-2.65,8.64-4.87,17.44-8,25.89-4.28,11.45-6.47,23.29-8.1,35.29A50.09,50.09,0,0,0,182,163.18ZM122.29,263.9c-.48-2.55-.71-6.15-3-6.36-3.36-.31-7.38-.3-10.36,1.82-3.21,2.29-6.49,2.69-10.14,2.23-2.7-.34-5.41-.65-8.12-1,3.06,1.88,6.77,1.31,10.17,3.48-3.27,1.73-6.44.13-9.29.89,3,1.11,6,1.73,8.86,2.69,3.53,1.16,6-1.58,9-2.23C113.63,264.56,117.89,264.65,122.29,263.9Zm47.89-98.35c-4,13.26-6.29,26.63-4.08,40.43C173.6,193.12,170.55,179.16,170.18,165.55Zm43.5,161.23c-.38-9.17,1.86-18.75-3.76-27.34-.38,3.36-.78,6.65-1.41,9.9-.71,3.63-1.95,7.09-1.95,10.92,0,6.55-.23,6.55,6.06,6.89A4.24,4.24,0,0,0,213.68,326.78Zm-86.9,138c.86-1.44.24-2.37-.94-3.33-9.62-7.75-18.39-16.45-27.32-25-1-.92-1.8-1.95-2.72-2.91-.6-.62-1.37-1-2.09-.35a1.58,1.58,0,0,0-.12,2.18c.39.53.88,1,1.32,1.48a194.53,194.53,0,0,0,29.47,26.57C125.11,464,125.69,464.85,126.78,464.81ZM159.1,358.4c4.84-8.95,9.93-16.86,12.46-26.29-3.34-.31-6.05-1.66-8.91-2.87a5.45,5.45,0,0,0-.16,1.36c1.26,7.25.77,14.26-2.62,20.95A9.05,9.05,0,0,0,159.1,358.4ZM366.65,208.25c-9.46,5.92-12.59,14.14-9.47,25.07C362.31,225.47,366.12,217.78,366.65,208.25ZM277.91,263.6c4.52-1.62,8.54-3.4,11-8,3.54-6.68,7.2-13.36,12.05-19.25,1-1.24,1-2.59-.45-4.22C293.92,243.58,284.4,252.45,277.91,263.6Zm-72.6,170.47c-5.16,11.66-7.16,25.6-2,33.33.44-4.78,1.76-8.94,2.94-13.14a5.8,5.8,0,0,0,.15-2.74A49.41,49.41,0,0,1,205.31,434.07ZM403.16,241.49c3.14-9.24,2.32-17.58-.25-25.93-1.74,4.1-2.62,8.44-5.28,12.05a1.86,1.86,0,0,0-.24,1.5C398.94,233.11,400.06,237.33,403.16,241.49Zm-66.22-68a37.36,37.36,0,0,0,5,7.44c5.16-4.32,9.55-9.55,16.32-11.4C350.49,167.17,343.84,169.54,336.94,173.53Zm-1.79,3.67c-3.13,7.67-6.55,14.86-5.44,23.83,2.83-4.51,5.91-8,7.71-12.54C339.78,182.61,340,182.23,335.15,177.2ZM394,215a15,15,0,0,0,.84-1.87c2-10.74.09-21.15-2.8-31.44-.76-2.71-2.8-4.56-5.34-5.92,4.77,9.18,6,18.91,5.58,29C392.16,207.87,392.88,211,394,215ZM117.17,252.81c-4.38-.61-8.74-2.3-13.46-2.18-4.93.13-9.16,1.6-13.88,4.91,6.65,0,12.36.28,18-.28,3.31-.32,6.58-.93,9.88-1.32,1.56-.19,2-1,1.84-2.45s-.4-2.49-2.2-1.71C116.78,250.7,118.49,251.38,117.17,252.81Zm45.3-28.71c-4.68,4.23-9.11,8.2-13.48,12.23-1.47,1.35-.62,2.57.42,3.77,3.14-.73,5.6-2.59,8.31-4C162.63,233.63,164.11,229.84,162.47,224.1Zm23.89-55.36c-1.32,7.3-.8,14.71-1.8,22.06S182,205.54,181,213C189.06,199,187.23,183.78,186.36,168.74Zm-40.9,56.76a5.58,5.58,0,0,0,4.24-3c2.57-4.94,5.25-9.83,7.57-14.88,1.26-2.75,2.62-5.61,2-8.92C154.74,207.49,147.15,214.72,145.46,225.5Zm-18.25,18a18.74,18.74,0,0,0,9.36-2.41c4.65-2.37,5.09-3.38,3.64-8.83-2.89,1.29-5.69,2.77-8.64,3.8C128.09,237.31,127,239.68,127.21,243.54Zm59.23-89.68.79-.09q2.4-19.59,4.81-39.2C186.24,127.18,185.55,140.43,186.44,153.86ZM161.18,265.63l.64-.63c-.59-.85-1.2-1.69-1.77-2.55-3.32-4.95-7.15-9.56-10.15-14.73-.57-1-1.08-2.31-2.7-1.59s-1.23,2.12-.77,3.36a21.71,21.71,0,0,0,1.56,3.22C151.2,258.25,156.24,261.9,161.18,265.63ZM376.92,208.8c4.48-7.62,7.53-19.05,6.37-24a81.56,81.56,0,0,1-7,12.34,2.69,2.69,0,0,0-.41,2.29C376.6,202.23,376.38,205.18,376.92,208.8Zm-64.24-37.43c1.15,12.47-2.14,24.7-2.23,37.13C313.69,196.3,317.4,184.14,312.68,171.37Zm68.65,37.89c-6.15,7.28-7.19,16.33-10.49,24.43C376.63,226.63,381.76,219.3,381.33,209.26ZM224.26,403c-.21,8.67,2.25,16.64,6.21,24.18C232.71,418,227.15,410.87,224.26,403ZM133.19,270.19c7.54,6.7,16,11.39,22.48,18.34a.88.88,0,0,0,.12-1.27c-4.64-7.4-11.18-12.74-18.55-17.19C136.11,269.39,135,269.7,133.19,270.19Zm30.24-54.73c-3.55,3.84-7.67,6.92-11.72,10.11-2.05,1.62-2.35,4.25-2.44,6.88C154.49,227.16,161.9,223.8,163.43,215.46Zm3.91,13c7.73-4.63,11.16-11.51,10-19.8-3,5.54-4.9,11.65-9.56,16.11C166.81,225.64,166.85,226.89,167.34,228.43Zm157.38-46.66c-3.18-1.73-4.52-4.88-7.12-7.11,1,5.85.94,11.66,1.29,17.57ZM220,355.46c2.06,2.88,1,6.6,2.6,9.58.53-6.1.55-12.09-2.19-18.23-1.69,3.19-1.63,6.38-2.83,9.14-1.39,3.18-1.18,6,1.46,8.65C219.54,361.5,218.4,358.44,220,355.46Zm-4,88.87c1.6-7.44-.92-14-4.56-20.33C213.29,430.71,211.14,438.27,216,444.33ZM120,240.39c-11,3.46-22.28,4-33,7.35,10.08-1.66,20.21-2.73,30.37-3.54C119.38,244,120.27,243.12,120,240.39Zm33.29-20c9.12-5.06,11.53-10.57,7.7-17.39C159.69,209.28,156.07,214.09,153.3,220.37Zm60.63,238.71c3.69-7.41,3.28-11.61-1.49-13.93C211.16,450,208.23,454.94,213.93,459.08Zm16.21-8.21c-4-3.47-6.59-7.14-9.81-10.92C218.94,449.59,221.33,452.38,230.14,450.87ZM345.42,189.41c4.61-5.56,9.14-10.36,12.63-16.82C353.14,174.24,344.62,185.53,345.42,189.41Zm12.71-10.5L370,170.27C361.81,167.83,360,173.48,358.13,178.91ZM62.27,440.85a25.68,25.68,0,0,0,5.37-12.67C66,432.24,59,434,62.27,440.85Zm65.32-189.51c3.95-1.68,7.65-2.9,11.73-5.48a37.57,37.57,0,0,0-10.55,1.28C126.31,247.76,126.56,249.23,127.59,251.34Zm203.75-96.47c-.55-4.73-3.09-8.6-5.95-12.32C327,146.78,326.08,152.14,331.34,154.87Zm5.29,8.65c.24,2.47-.4,4.49.59,6.67l7.74-3.37ZM136.31,251.75l7.92,4.89.66-.53c-1.47-2.14-1.8-4.72-3-7.15A18,18,0,0,0,136.31,251.75Zm37.61-91.7a83.78,83.78,0,0,0,.5,18.73A59.14,59.14,0,0,0,173.92,160.05Zm-9.25,166.24c1.85,2.16,4.33,2.73,6.67,3.56,1.08.38,2.17.57,2.39-1s-.89-1.72-2-1.78C169.37,326.9,167,326.63,164.67,326.29ZM131.16,265c-2.33-2.7-4.57-5.37-6.72-8.13C125.36,260.75,126.18,264.69,131.16,265Zm210.55-60.83a28.87,28.87,0,0,0-5.3,10.41C338.51,211.28,342.34,208.89,341.71,204.18ZM200.9,435.31c-2.88,1.14-3,1.57-1.86,7.88.64-2.1,1.19-3.68,1.61-5.29C200.86,437.07,201.47,436.24,200.9,435.31Zm7.16,11.25c2.14-4.32,2.07-5.81-.29-8.11C207.06,441.17,207.57,443.7,208.06,446.56ZM218,322c-.46,2.63-2.44,5.08-.95,7.93C218.37,327.37,218.05,324.66,218,322ZM329.39,158.15c.81,2.58,1.22,4.55,2.89,6.23C332.85,161.73,332.58,159.7,329.39,158.15Zm37.71,18.5c-1.48,1.1-4,1.21-3.92,4.77C365.44,180.11,366.71,178.8,367.1,176.65ZM145.16,234.8a13.21,13.21,0,0,0,1.8-6.1C143.6,230.32,144.85,232.74,145.16,234.8ZM250.8,22.23c-2.36.07-4.18-.43-5.56,2A9.43,9.43,0,0,0,250.8,22.23ZM226.41,27.8c-1.94.19-3.22.29-4.16,1.89A5.11,5.11,0,0,0,226.41,27.8Zm200.81,172c.28,1.57.56,3.15.85,4.72C428,202.92,428.82,201.24,427.22,199.8ZM74.86,255.32A5,5,0,0,0,79,253.15,4.56,4.56,0,0,0,74.86,255.32ZM251.43,26.1c-1.79.42-3.23.25-4.44,2.33C248.84,28,250.13,27.79,251.43,26.1ZM385.32,169.39c.58,1.14,1.21,2,2.67,1.87C387.86,169.19,387,168.73,385.32,169.39ZM149.88,400.89c.74-2-.15-2.64-1.43-3.38A3.13,3.13,0,0,0,149.88,400.89ZM204.08,422c0,1.43.19,2.31,1.32,3.15C205.59,423.81,205.64,422.85,204.08,422ZM61.18,293.12c-1.33-.77-2.07-.56-2.5.92A2.2,2.2,0,0,0,61.18,293.12ZM302.61,133.9c-.42.89-.53,1.64.59,2.15C304,135.05,303.37,134.47,302.61,133.9ZM146.27,240c-.18-.19-.38-.61-.67-.69-.77-.2-.79.48-.85,1a.7.7,0,0,0,.6.83C146,241.19,146.23,240.74,146.27,240Zm68.64,175.81-.24,0v1.25Zm-5.79,18.06a.79.79,0,0,0,0-1.23A.79.79,0,0,0,209.12,433.89ZM122.73,250.47c.08-.05.22-.1.21-.14,0-.22-.08-.43-.12-.64-.08.05-.22.1-.22.13C122.63,250,122.68,250.25,122.73,250.47ZM426.62,229.1l-.19,0,.06.26ZM182.71,303.61l.14-.24-.21,0ZM292.92,137.09l.22,0-.08-.3Z" transform="translate(0 0)"/><path d="M436.5,603.9c-4.39-1-8.81-2-13.18-3.17-3.79-1-5.68-3.74-6.19-7.5-.47-3.54,1.2-5.67,4.77-5.86s7.37.39,11.84,1.12c-1.83-1.54-3.3-1.4-4.64-1.66-3-.6-6-1-9-1.82-5.33-1.42-7.59-4.46-7.15-9.89.18-2.26.06-3.94-1.8-5.6-2.71-2.42-1.82-5.59-.91-8.57.37-1.22.94-2.37,1.76-4.4-3.57,1.44-6.39,1.69-8.6-1-.78-1-1.66-2-1.34-3.19,1.16-4.47,1.91-9.25,6-12.25,6.28-4.65,13-7.23,20.81-3.7,2.39,1.07,4.89,2.15,7.65,2v3.2c-4.05.46-7.41-1.81-11.08-2.85-8.56-2.43-18.41,3.65-19.82,12.37-.39,2.39,1.19,3.85,3.56,3.22a10.27,10.27,0,0,0,3.74-2.23,9.79,9.79,0,0,1,5.37-2.42c4.69-.4,9.3-.32,13.7,1.7,1.44.66,2.86,1.48,4.53,1.4v5.59c-5.1.42-9.85-1.69-14.86-2.06-5.51-.4-8.14,1.33-9.38,6.72-1,4.21.53,6.15,4.84,5.79s8.16.52,12.22,1.06c2.51.34,4.56,2.18,7.18,2.08v3.19c-1.63-.53-3.26-1.06-4.88-1.61a35,35,0,0,0-12.47-1.87c-1.32,0-2.65.09-3.35,1.59-1.38,3,.39,7.51,3.59,8.52a74.1,74.1,0,0,0,17.11,3v6.39a53.66,53.66,0,0,0-12.92-1.54c-3.83.12-4.88,2-3.36,5.42a5.5,5.5,0,0,0,3.81,3.18,42.07,42.07,0,0,0,12.47,1.73ZM434,555.67c-6.32-4.17-13.69-5-17.52-2C422.61,553.33,428.22,554.92,434,555.67Z" transform="translate(0 0)"/><path d="M436.5,404.1c-2,.12-3.1,2-4.77,2.74-1.23.58-2.61,1.19-3.76.25-1.37-1.12-.47-2.5.22-3.59,3-4.69,4-10.13,6-15.2.51-1.28.47-3,2.34-3.38v8.79c-2.85,1.89-2.27,5.23-3.7,7.88,1.57.19,2.46-1.12,3.7-.69Z" transform="translate(0 0)"/><path d="M436.5,273.83c-1.63-.43-2.22.12-1.86,1.81s-.2,3.24-2,3.76c-2.2.62-2.29,3.66-5,4-1.5-2-.15-3.75,1-5.17,1.32-1.64,1.87-3,.57-4.91a4.85,4.85,0,0,1-.54-2.3c-.1-1.27.24-2.43,1.65-2.81a2.16,2.16,0,0,1,2.56,1.39c.25.47.45,1,.67,1.43,1.61.16,1.24-2.49,3-2Z" transform="translate(0 0)"/><path d="M427,241c.14,3.86,2.48,6.57,4.85,9.28,1.47,1.68,3.07,1,4.69.36v2.4c-3.67.22-4.37,3.86-6.77,6-1.68-1.41-3-3.19-3-5.24a28,28,0,0,0-1.7-10C424.5,242.41,424.62,240.78,427,241Zm3.11,14.13c1.6-1.21,1-2.12-.38-2.91-.15-.09-.47.12-.75.21A2.09,2.09,0,0,0,430.07,255.14Z" transform="translate(0 0)"/><path d="M436.5,261c-1.54-.07-1.43,2.16-2.93,2.15-1.34-2.86-.39-4.83,2.93-6.15Z" transform="translate(0 0)"/><path d="M436.5,245.05c-.44-.39-1.42-.36-1.3-1.16.08-.52.79-.48,1.3-.43Z" transform="translate(0 0)"/><path d="M288.91,550.48c16-8,32.67-8.63,49.29-8.84,7.13-.09,14.29,1.36,21.42,2.28a15,15,0,0,1,9.79,5.69c2.11,2.57,1.72,4.34-1,6.28-2.12,1.5-4.43,1.62-6.87,1.32-4.89-.61-9.75-1.38-14.68-1.68-6.63-.4-12.83,1.15-19.56,3.34,1.56,1,2.73.62,3.84.63,8.77.06,17.54-1,26.32.35,3.6.54,6.16,2.64,8.33,5.06,3,3.35.32,9.47-4.3,10.14a33.1,33.1,0,0,1-12.31-.23c-1.28-.3-2.53-.92-3.83-.15-.24,1.5.69,2.51,1.39,3.63,3.07,5,2.05,9.2-3.07,11.88-2.25,1.18-3.39,2.43-3.2,5.2.27,4.1-1.73,7-5.62,8.77-3.33,1.5-6.65,2.72-10.35,2.53a28.12,28.12,0,0,0-13.23,2.44c-2.42,1.1-5.1,1.27-8,1.92,1.88,7.69,3.71,15.15,5.52,22.62,2.1,8.66,4.46,17.27,6.21,26,1.71,8.5.7,17.23,1.72,25.89-2.69,1.2-3.89.73-4-2.16-.15-6.52-.15-13.06-.75-19.55-.92-10-4.52-19.41-6.73-29.14-6.54-28.8-13.64-57.48-20.41-86.23-3.05-13-3.83-26.35-7.19-39.27a14.12,14.12,0,0,0-1.55-4.45c-1.42,11.32-2.52,22.32-5.24,33-4.43,17.34-5.35,35.26-9.18,52.68-2.68,12.21-5.51,24.4-11,35.77a19.2,19.2,0,0,0-1.7,8.68,25.12,25.12,0,0,0,4.46-6.5c4.11-7.28,6.08-15.34,8.19-23.3,2.92-11.06,6.58-21.94,8.06-33.36.64-4.94,3.35-9.08,6.08-13.25a1.57,1.57,0,0,1,.09,1.71c-5.39,18.24-8.41,37.08-14.18,55.23-2.73,8.59-6.1,16.76-12,23.67a5,5,0,0,0-1,3.71c.24,13.47-.87,26.87-1.78,40.29,0,.4-.05.8,0,1.2,0,1.28-.46,2-1.87,1.91s-1.39-1.06-1.34-2c.25-4.52.44-9,.85-13.55,1-10.89,1.05-21.81,1-32.73a38.61,38.61,0,0,1,3.6-15.78c4.87-11.27,7.82-23.18,10.1-35.23,2-10.73,3.41-21.56,5-32.35s4.79-21.28,6.42-32.09c1.07-7.1,1.6-14.28,3.31-21.28.35-1.46,0-3.55,2.33-3.58s2.47,2,2.94,3.65c4,14,5.73,28.43,8.3,42.7C287.92,546,288.4,548.06,288.91,550.48Zm21.6,9.35a1.58,1.58,0,0,1,2-.69c2.58.87,4.89.14,7.3-.82,13.15-5.24,26.65-7.18,40.67-4a10.06,10.06,0,0,0,5.14.09c2.27-.67,2.65-2.06,1-3.74a12.61,12.61,0,0,0-7.66-4c-8.31-1-16.6-2.28-25-2.29-8.69,0-17.26,1.21-25.79,2.58-5.51.89-10.94,2.26-15.83,5.22-1.83,1.11-2.74,2.33-2.1,4.54,4.6,16,7.92,32.28,11.52,48.51.75,3.39,1.25,3.6,4.72,2.75a10,10,0,0,0,1.91-.57,36,36,0,0,1,17.07-3.3c3.86.12,7.23-1.64,10.31-3.81,2.05-1.44,1.85-3.68,1.67-5.83-.1-1.18-.94-1.52-2-1.49-6.76.22-13.57-1.4-20.26.67-1.08.33-2.25,1-3.26-.41.49-1.83,2.08-1.83,3.43-2.16a42.42,42.42,0,0,1,13.9-.65c4.7.41,9.29.15,13.47-2.47,2.88-1.81,3.82-3.87,2.59-7a12.87,12.87,0,0,0-2.49-4.05c-1.59-1.67-3.8-1.77-5.94-1.29a2.12,2.12,0,0,0-1.68,2.91c1.21,1.41,3.74-.23,4.43,2.33-1,1.42-2.5,1.18-3.88,1.14-3.06-.09-6.14-.11-9.17-.48-4.09-.5-8.25-.38-12.27-1.44-1-.27-2.18-.44-2.49-1.68s.87-1.83,1.59-2.54a12,12,0,0,1,7.17-3.18,126.15,126.15,0,0,1,35.78-.23,9.85,9.85,0,0,0,4.73-.4c3.51-1.21,4-3.62,1.47-6.3a14.12,14.12,0,0,0-11.15-4.34c-6.26.12-12.51.2-18.77.31-4.79.09-9.57.29-14.36.25C315.62,561.94,312.83,561.79,310.51,559.83ZM317.24,577c3.69,1.59,7.54,1.31,11.3,1.6s3.91.24,4.62-4.25C327.65,574.47,322.3,574.69,317.24,577Z" transform="translate(0 0)"/><path d="M340.68,376.81a48,48,0,0,0,5,19.26c2.36,4.6,3.7,9.72,7,13.87.51.64.86,1.41.15,2.15a1.72,1.72,0,0,1-2.18.4q-5.76-3.18-11.47-6.44a4.24,4.24,0,0,1-1.7-2.61c-2-6.34-4.15-12.63-6-19-2.11-7.43-.8-10.82,5.67-14.84a52,52,0,0,0,7.43-5.27c1.76-1.58,2.74-1.06,3.56.87,1.72,4,3.33,8.12,5.25,12.06,5.75,11.81,11.42,23.66,17.58,35.27,1,1.91,3.16,3.92,1.76,6.17s-3.9.34-5.9.47c-3.59.21-5.65-1.76-7.81-4.47-7.91-9.93-11.31-21.9-15.82-33.37-.49-1.24-.95-2.49-1.47-3.71C341.62,377.41,341.31,377.3,340.68,376.81Zm28.06,39.05c-6.24-17-15.33-32.28-22.81-48.34-2.53.86-4.34,1.69-3.42,4.36,4.85,14.19,9.07,28.64,18.53,40.77C363.07,415.25,365.2,416.53,368.74,415.86Zm-21.82-9.16c-2.13-6.07-5.26-11-7-16.56s-1.8-11.52-1.53-17.85c-5.24,3.29-6.29,5.32-4.85,10.45,1.83,6.5,4,12.92,6.26,19.29C340.81,404.9,343.56,405.7,346.92,406.7Z" transform="translate(0 0)"/><path d="M113,353.1c-5.07-2.82-6.19-2.59-11.18,2.32.46,1.13,1.69,1.1,2.54,1.64s1.78.67,1.83,1.85c-4.33.35-7.32-2-7.06-5.56-2.34.43-2.73,1.69-1.73,3.71a48.54,48.54,0,0,0,4.45,7.07c.74,1,2.09,1.7,2,3.5-6.66-.71-11-5.13-14.86-9.64-2.73-3.17-1.11-6.42,3.09-7.2,5.48-1,11.08-.86,16.63-1.11a10,10,0,0,1,7.28,2.78c2.15,2,4.36,3.85,6.49,5.73-1.78,3.79-3.62,4.82-7.51,4.21,1-2.41,4-2,5.42-4.13-2.32-2-4.46-4.27-7.52-5.3Z" transform="translate(0 0)"/><path d="M278,679.18c4-4.25,9.67-5.64,14.89-9.39a15.86,15.86,0,0,0-8.05,1.49c-8,3.17-15,8-22,12.9-1.44,1-2.77,2.47-5.41,1.54,9.29-6.68,18-13.49,28.6-17.09a24.39,24.39,0,0,1,10.25-1.13c1,.09,1.9.39,2.13,1.47a1.65,1.65,0,0,1-1.15,1.87c-5.66,2.67-11.31,5.34-17,8A8.77,8.77,0,0,1,278,679.18Z" transform="translate(0 0)"/><path d="M91.83,346.31c2.17-3.31,5.68-4.09,9.19-4.64,7.43-1.18,14.9-2.16,20.82,4.17,1,1.09,3.39.11,3.63,2.68-2.49.16-4.06-1.73-6-2.41a21.89,21.89,0,0,0-11.74-.72,65.44,65.44,0,0,1-15.81.83Z" transform="translate(0 0)"/><path d="M101.43,399.39c-1.35,1.29-2.19,2.58-4.37,1.1-1.86-1.26-4.32,0-6.5.11-2.57.13-4.58-.32-6.06-2.61s-.75-5,1.89-4.9A25.41,25.41,0,0,1,100.83,398C101.11,398.2,101.15,398.7,101.43,399.39Z" transform="translate(0 0)"/><path d="M66.66,342.13c-.18,1.23.9,2,.34,3-1.08.4-1.39-.55-1.74-1.12-1.73-2.76-1.59-3.1,1.95-5.06-2.45-2.5-4.15-5.74-8.64-6.71a5.58,5.58,0,0,1,6,1,80.75,80.75,0,0,1,12.07,12.1c.9,1.07,2.08,2.61.18,3.69-1.65.94-2.72-.54-3.47-1.78a30.7,30.7,0,0,1-1.08-3C71,341.46,69.59,341,66.66,342.13Z" transform="translate(0 0)"/><path d="M268,686c5.68-5.35,21.73-6.12,29.15-1.56-5.08,0-9.7,0-14.33,0C278.05,684.38,273.43,686,268,686Z" transform="translate(0 0)"/><path d="M134.25,428.69c-5.93,2.95-19.48-2.16-21.21-7.49a3.83,3.83,0,0,1,1.09-.38,1.83,1.83,0,0,1,1.14.24C120.92,425.19,127.74,426.45,134.25,428.69Z" transform="translate(0 0)"/><path d="M114.13,403.7c-5.65,2.15-12.1-1.81-11.58-6.89,3.42.45,3.42.45,5.35,2.26,1-.4.35-1.07.24-1.62a1.66,1.66,0,0,1,.17-1.5C109.7,394.87,112.57,398.61,114.13,403.7Z" transform="translate(0 0)"/><path d="M106.64,419.9l16.77,11.2C118.25,433.36,108.25,426.93,106.64,419.9Z" transform="translate(0 0)"/><path d="M80.06,402.58c1.45.08,2.83.46,4.33,0,6.83-2.12,13.38-.38,19.89,1.64.5.16,1,.36,1.42,1.62a57,57,0,0,0-13.77-1.07c-3.18.13-6.39.57-9.4-.9-.82-.4-1.58-.92-2.37-1.39Z" transform="translate(0 0)"/><path d="M123.22,309.48c7.26,2.44,14.33,5.27,20.23,10.39l-.57,1.17L122.49,311Z" transform="translate(0 0)"/><path d="M277.26,554.79c5.13,2.53,4,15-1,20.85-1.39-.63-.91-1.74-.6-2.7.77-2.39,1.76-4.72,2.42-7.14C279,562.4,279.85,558.93,277.26,554.79Z" transform="translate(0 0)"/><path d="M309.84,685.72c-3.78.55-6.25-1.19-8.49-6.11C305.59,680.12,307.55,683,309.84,685.72Z" transform="translate(0 0)"/><path d="M81.05,389.85c4.42-1.61,8.85,1.67,13.23-.33C90,393.5,85.44,390.24,81.05,389.85Z" transform="translate(0 0)"/><path d="M79.36,397.91c-1.91.47-2.51-.37-2.32-1.58.23-1.42.71-3.11,2.53-3a2.61,2.61,0,0,1,2.68,2.45C82.25,398.09,80.62,398.18,79.36,397.91Z" transform="translate(0 0)"/><path d="M112.84,353c.07,2,2.06,2.53,3.19,3.86-.86,1.73-2,1.58-3.25.8-1.4-.9-2.4-2.22-2.08-3.93.24-1.29,1.41-.77,2.28-.6Z" transform="translate(0 0)"/><path d="M75.83,393.77c-.21.94-.4,2.12-1.48,2s-2.75-.44-3-1.92a1.64,1.64,0,0,1,1.9-1.95C74.24,392.07,75.65,392.21,75.83,393.77Z" transform="translate(0 0)"/><path d="M73.9,353.77a5.67,5.67,0,0,1,4.34-3.35C78,352.77,76.44,353.47,73.9,353.77Z" transform="translate(0 0)"/><path d="M95.27,381.87c1.8.74,2,1.92,1.49,3.28a.86.86,0,0,1-1.32.4C94.1,384.56,94.27,383.37,95.27,381.87Z" transform="translate(0 0)"/><path d="M136.23,320.79c-1.95.33-3-1-3.93-2.62l3.84,2.71Z" transform="translate(0 0)"/><path d="M76.17,400.06c1.4.69,3,1.06,3.89,2.52l.1-.11a5.25,5.25,0,0,1-3.88-2.5Z" transform="translate(0 0)"/><path d="M76.28,400c-.46,0-1,.1-1.22-.53.66-.28.78.37,1.11.62Z" transform="translate(0 0)"/><polygon points="140.94 325.69 140.77 325.71 140.86 325.8 140.94 325.69"/><polygon points="91.89 346.21 91.95 346.53 91.83 346.31 91.89 346.21"/><path d="M395.83,270.7v5.14c-3.29,1.36-4,1.19-6.36-1.47.39-1.63,2.14.1,2.55-.94.49-1.2.93-2.58,0-3.8s-1.92-.46-2.85,0c-1.91.91-4.16,1.63-3.79,4.42.34,2.49,2.51,2.91,4.42,3.38,2.63.64,5.33,1,8.18,1.63-2,.83-4,1.7-6,2.49-2.53,1-3.71,2.51-2.21,5.23.5.89,1.28,2,.06,2.82-1.05.73-2.05,0-2.92-.59a22.36,22.36,0,0,1-6.05-6.29c-2.18-3.49-1.13-8.28,2.7-11.39,5.07-4.12,11.23-5.45,17.54-5.28,4.62.12,7,2.52,7.46,6.41-2.71.3-4.52-2.16-7.12-2.25-.61,1.45,2,1.74,1.17,3.4C400.55,272.5,399.21,269.61,395.83,270.7Z" transform="translate(0 0)"/><path d="M348.31,276.88l-.59-3.4c-1.19-.9-2.73,0-3.82-1-.52-1.73,1.49-1.56,2-2.9a22.86,22.86,0,0,0-8.09-3.63c-3-.86-5.81,1-9.39,1.35,1.92-3.49,4.62-5.15,7.41-4.74,7.81,1.13,15.8,2.24,21.72,8.44a9.7,9.7,0,0,1,2.66,5.19l-1.68-.6c1.39,4.67.79,6.28-3.78,8.35-2.38,1.08-4.6,3-8,2.37,3.69-2.9,5.82-6.77,9.43-8.71a3,3,0,0,0-1.49-2.67c-1.39-1.18-2.88-2.3-3.86.5-.43,1.24-1.74,1-2.71,1.32Z" transform="translate(0 0)"/><path d="M382.17,267.66c2.75-3.46,5.86-5.73,9.95-6.6,2-.42,3.57-1.7,5.17-2.87,2.67-2,5.47-2.63,8.54-1.06,1.91,1,4.45.46,5.92,2.2-.16,1.05-.78,1.21-1.23,1.14-4.61-.75-8.55,1.13-12.48,3.07C393.15,266,387.89,267,382.17,267.66Z" transform="translate(0 0)"/><path d="M368.19,327.72c1.27-1.66,3.18-1.19,4.81-1.3,5.94-.38,11.88-.57,17.84-.43-7.5,1.63-15.19.65-22.72,1.69Z" transform="translate(0 0)"/><path d="M369.52,339.16c4.11-2.51,5.75-2.24,8.6,1C375.16,341.53,372.86,339.42,369.52,339.16Z" transform="translate(0 0)"/><path d="M365.53,355.85a4.85,4.85,0,0,1,4.4.22,1.59,1.59,0,0,1,.66,2.38,1.31,1.31,0,0,1-2,.58C367.57,358.12,365.73,358,365.53,355.85Z" transform="translate(0 0)"/><path d="M389.88,356.05a4.53,4.53,0,0,1-3.1-4.07,1.36,1.36,0,0,1,.88-1.57,1.27,1.27,0,0,1,1.67.62C390.05,352.51,391,354,389.88,356.05Z" transform="translate(0 0)"/><path d="M348.18,276.8c1.76,1.7,3.65.28,5.77-.17-2.62,3.35-4.39,3.37-7.78.45l-.11.08,2.25-.28Z" transform="translate(0 0)"/><path d="M378.53,354.38a1.79,1.79,0,0,1,1.6,2.23c-.12.91-.35,2-1.53,1.88s-1.63-1.21-1.69-2.29A1.64,1.64,0,0,1,378.53,354.38Z" transform="translate(0 0)"/><path d="M394.55,353.91c-2.25-.38-2.94-1.67-2.51-3.65a.92.92,0,0,1,1.23-.69C395.1,350.51,395.51,351.93,394.55,353.91Z" transform="translate(0 0)"/><path d="M375.74,350.59c-2.85.2-3.07-1.93-3.89-4.34,2.71.81,4.06,2,3.79,4.45Z" transform="translate(0 0)"/><path d="M341.15,271.13c-1.57,1.32-3.11,2.76-5.32,3.29C336.63,272,336.63,272,341.15,271.13Z" transform="translate(0 0)"/><path d="M396.81,344.93a2.06,2.06,0,0,1,2,2.11c.08.89-.31,1.62-1.28,1.59a2,2,0,0,1-2-2.05A1.44,1.44,0,0,1,396.81,344.93Z" transform="translate(0 0)"/><path d="M428,264.59c-1.92-2.56-2-4.35-.76-6.89A11.35,11.35,0,0,1,428,264.59Z" transform="translate(0 0)"/><path d="M403.42,344.06c-2.15-.63-2.94-1.64-2.35-3.36a1,1,0,0,1,1.34-.57C404.1,341,404,342.32,403.42,344.06Z" transform="translate(0 0)"/><path d="M384.43,356c-1.56-.76-2.2-1.72-1.5-3.21a.91.91,0,0,1,1.34-.39C385.52,353.33,385.69,354.49,384.43,356Z" transform="translate(0 0)"/><path d="M371.16,316l3.75-.55-.09-.08c-2.19.7-1.93,3.06-3,4.78-1.82-1.38-.69-2.87-.55-4.22Z" transform="translate(0 0)"/><path d="M370.39,351.32c-.11.95-.49,1.44-1.21,1.49a1.34,1.34,0,0,1-.26-2.67C369.87,350.06,370.18,350.78,370.39,351.32Z" transform="translate(0 0)"/><path d="M357.16,349.26a1.43,1.43,0,0,1-1.24-1.74,1.19,1.19,0,0,1,1.41-1.08,1.29,1.29,0,0,1,1.22,1.68A1.27,1.27,0,0,1,357.16,349.26Z" transform="translate(0 0)"/><path d="M362.44,348.84c.84,0,1.26.63,1.32,1.5.05.7-.18,1.39-.93,1.47-1.14.13-1.62-.69-1.67-1.68C361.12,349.42,361.55,348.93,362.44,348.84Z" transform="translate(0 0)"/><path d="M383.27,317.25a1.3,1.3,0,0,1,1.28,1.24c.13.73-.09,1.42-1,1.29a1.47,1.47,0,0,1-1.18-1.42A1,1,0,0,1,383.27,317.25Z" transform="translate(0 0)"/><path d="M351.47,345.37a7,7,0,0,0,1-.59c.67-.58,1.35-.82,2.05-.11a.89.89,0,0,1,0,1.37c-.71.68-1.43.37-2.12-.08-.33-.22-.64-.45-1-.68Z" transform="translate(0 0)"/><path d="M344,281a3.81,3.81,0,0,1-2.79-3.19A5.48,5.48,0,0,1,344,281Z" transform="translate(0 0)"/><path d="M407.46,337.14a1,1,0,0,1,.88,1.13c0,.73-.49,1.22-1.31,1a1,1,0,0,1-.68-1.25A1,1,0,0,1,407.46,337.14Z" transform="translate(0 0)"/><path d="M398.49,331.15a1,1,0,0,1,1.16.82,1,1,0,0,1-1.1,1.26,1,1,0,0,1-1-1A1,1,0,0,1,398.49,331.15Z" transform="translate(0 0)"/><path d="M391.41,321.32a1,1,0,0,1-1.07-.9.9.9,0,0,1,.82-1.12.92.92,0,0,1,1.08.86A1,1,0,0,1,391.41,321.32Z" transform="translate(0 0)"/><path d="M416.28,323.34c-.23.09-.58.35-.85.29a.74.74,0,0,1-.53-1.14,1,1,0,0,1,.88-.41C416.34,322.19,416.54,322.64,416.28,323.34Z" transform="translate(0 0)"/><path d="M414.73,327.21a.8.8,0,0,1-1.06.77c-.29-.09-.68-.51-.67-.77a1.12,1.12,0,0,1,.68-.79C414.25,326.26,414.62,326.62,414.73,327.21Z" transform="translate(0 0)"/><path d="M358.77,351.78c0,.43-.27.75-.69.77s-1-.28-.89-.88c.06-.26.53-.55.85-.6S358.72,351.34,358.77,351.78Z" transform="translate(0 0)"/><path d="M380.4,319a.5.5,0,0,1-.66.5,1.29,1.29,0,0,1-.74-.71c-.15-.45.19-.68.63-.62A.83.83,0,0,1,380.4,319Z" transform="translate(0 0)"/><path d="M397.43,326.12a.69.69,0,0,1-.75.6A.67.67,0,0,1,396,326a.65.65,0,0,1,.73-.69C397.12,325.34,397.38,325.61,397.43,326.12Z" transform="translate(0 0)"/><path d="M368.12,327.68l-3.43.37a4.11,4.11,0,0,1,3.5-.33Z" transform="translate(0 0)"/><path d="M374.13,353.13c-.09.18-.24.72-.42.73-.56.05-.87-.38-.94-.93s.23-.69.64-.69S374.06,352.54,374.13,353.13Z" transform="translate(0 0)"/><path d="M354,324.88l-.26.6-.61-.26c.09-.2.14-.5.29-.57S353.77,324.79,354,324.88Z" transform="translate(0 0)"/><path d="M367.17,320c-.17-.14-.45-.25-.48-.42a.56.56,0,0,1,.59-.71c.16,0,.4.25.44.42A.53.53,0,0,1,367.17,320Z" transform="translate(0 0)"/><path d="M357.32,321.67l.5.45a3.32,3.32,0,0,1-.64.29c-.06,0-.27-.21-.25-.24A4.35,4.35,0,0,1,357.32,321.67Z" transform="translate(0 0)"/><path d="M417.06,311.5l.68.28c-.11.21-.17.54-.33.6s-.43-.15-.64-.25C416.86,311.92,417,311.71,417.06,311.5Z" transform="translate(0 0)"/><path d="M387.42,320.52a4.86,4.86,0,0,1-.66,0,1.41,1.41,0,0,1,0-.33,4.44,4.44,0,0,1,.63,0S387.39,320.4,387.42,320.52Z" transform="translate(0 0)"/><path d="M375.64,350.7c.46-.25.92-.32,1.25.18.06.09-.12.5-.25.53-.66.17-.85-.27-.9-.82Z" transform="translate(0 0)"/><path d="M381.4,348.44c0,.08,0,.2,0,.23a.37.37,0,0,1-.29.08c-.31-.14-.3-.3,0-.41C381.19,348.32,381.3,348.4,381.4,348.44Z" transform="translate(0 0)"/><path d="M371.25,316a1.59,1.59,0,0,1-1.82-.53l-.09.1,1.82.5Z" transform="translate(0 0)"/><polygon points="368.67 314.34 368.49 314.28 368.6 314.44 368.67 314.34"/><polygon points="375.68 314.37 375.82 314.25 375.63 314.26 375.68 314.37"/><path d="M369.43,315.43l-.76-1.09-.08.1.75,1.09Z" transform="translate(0 0)"/><path d="M375.63,314.26l-.81,1.14.09.08.77-1.11Z" transform="translate(0 0)"/><path d="M346.17,277.08l0-.18-.08.26Z" transform="translate(0 0)"/><path d="M249.89,174.29c1.64-.49,2.53-1.8,3.39-3.15.55-.85,1.27-1.45,2.31-1.06a1.93,1.93,0,0,1,1.12,2c0,2,0,4,0,6.76a15.46,15.46,0,0,0,2-6.07c.25-1.26.13-3,2-2.85s1.66,1.81,1.84,3.1c.26,1.82.47,3.65.72,5.63,3.08-4.08,2.26-8.38-3.3-13.32-1.1.11-.3,1.52-1.49,1.84-1.25.06-1.68-1.19-2.12-2.22a25.06,25.06,0,0,1-2.26-9.64c0-1.59.11-3.11,2.78-2.32-1.12-2-1.94-2.57-4-2.47-2.21.1-5.44.14-5.51-4.18,0,4.6-3.8,4.91-6.76,7.35-.83-4.51,1.32-7.76,3.51-10.24,2.72-3.09,7.11-2.95,10.8-2,3.35.83,5,4,6.16,7-1.48,1.49-2.79-.55-4,.41l.07-.23-.13.14c1.46,1,1.08,2.57,1.29,4,1.62-.18,2.93,1.42,4.79.31,1-.58,1.72,1,2.35,1.75a35.87,35.87,0,0,0,6.92,7.13c1.12-1.48,1.72-2.67-.52-3.39a9.77,9.77,0,0,1-4.64-3.61c-.82-1-2.27-2-1.18-3.76s2.51-2.95,4.77-1.85a1.81,1.81,0,0,0,2,.24l.64,1.33,2.17.33c-.7,1.27-.23,1.79,1,2,.47-1.32-.86-1.29-1.07-2l-2.21-.22-.61-1.3c-.64-.24-1.26-.7-2-.27-.45-2.25,1.45-3.92,1.13-6.57,4.41,2,8.3,3.3,9.64,8.36s3.17,9.87,3.94,15c.46,3,.13,5.74-3,7.38-1.77.93-.27,3-1.49,4.54-3.94-.81-3.73,5.23-7.68,5-.16-.2-.51-.51-.46-.58,1.93-3.17.52-6.29,0-9.46-.51-3-.73-6.05-1.12-9.52-3.64-.18-5.49-3.31-8.38-5.31,1.25,2.55,2.51,5.09,3.76,7.64-1.42.62-1,1.56-.41,3.11.14-1.46.23-2.33.32-3.2,1.39-.21,2.78-.24,3.23,1.45,1.23,4.64,2,9.34,1.29,14.17-.05.31-.49.56-.7.79-1.8-.06-1.22-2.31-2.61-2.74-.88,1.22-.68,2.62-1,3.87s-.23,3.27-2.16,3.34c-2.09.07-1.4-2.21-2.19-3.36-1,.93-2.28,0-3.3.36-.85,1.39-.5,3.27-2.67,4.63-.06-3.17-2.3-4.88-3.73-7.25-2.66,4.33-7.38,3.5-11.32,4.63-.56.16-.93-.36-1.29-.76-2.25-2.52-2.36-11.22.14-14.67,2.24,3.07.5,6.87,2.37,10.19,1.63-8.28,1-16.43,2-24.51,2.08.54,1.43,1.84,2,2.52,3.63.85,2.85-2.69,4-4.33,2.79,3,4,11.38,2.1,14.38a3.45,3.45,0,0,1-.91,1.24c-2.67,1.62-2.69,1.6-2.26,4.57-1-.22-1.82-1-3.09-.77a21.17,21.17,0,0,0-.47,7.83C248.13,179.05,247.76,176.07,249.89,174.29Zm27.21-7.7c-.54,5.6-.54,5.6.83,8C279.11,171.52,277.91,169.06,277.1,166.59Zm-.08-3c1.72-2.46,1.69-3.23-.41-7.16C276.8,159,276.32,161.22,277,163.55Zm-6.88-10.17c.88,1,1.45,2.64,3.74,2.19C273,153.77,271.6,153.56,270.14,153.38Zm6.84-4.56-.28-.16,0,.23Z" transform="translate(0 0)"/><path d="M225.78,146.29c1.57-.89,2.22,0,1.45,1.19-1.73,2.77-2.6,6.26-5.82,7.86-1.29.65-1.45,1.83-1.91,2.89-1.36,3.18-2.81,6.33-4,9.57-1.47,4-5.84,6.41-6.13,11.25-2.76-7.27-.61-14.6-.94-21.8-2.65-.31-3.24,1-3.31,3.05a72.3,72.3,0,0,0,.51,11.95c.13,1,.83,2-.48,3.29-2.77-3.17-3-7-3-10.72.13-16.91,2-24.63,11.85-33.67l-3.81,6.64a2,2,0,0,0-.21,2.28c-1.17-.18-1.6.92-2.4,1.37l.14.72-.1-.75c1.08,0,1.49-1,2.28-1.45l.2-2.26c1.87.07,2-1.83,3.09-2.7,1.23-1,1.81-2.83,4.43-3.37-2.86,4.14-2.34,8.36-2.75,12.42l.18.23-.14-.31c4,.81,4.62,2.12,2.64,5.52a61.05,61.05,0,0,1-3.84,6c-3,4-2.81,8.51-2.39,13.84,2.85-4.69,4.33-9.21,6.31-13.5s2.47-9.19,6.33-12.2c1.86.28,1.1,1.91,1.93,2.53l-.19-.13C226.2,146.22,225.58,145.8,225.78,146.29Zm-4.66,6.93-.15-.54c-.09.06-.27.11-.27.16a3.16,3.16,0,0,0,.13.53Zm-15,1.42-.15-.29a1.57,1.57,0,0,0-.24.17,5.06,5.06,0,0,0,.26.44Z" transform="translate(0 0)"/><path d="M240.72,157.19c-2.2,6.08-4.2,12.17-4,18.81.09,3.23.64,6.58-.64,10.15-1.63-.85-3.33-1.66-4.11,1.72-3.3-6-.81-11.11-.68-16.18-.06-.21.65-.47,0-.65l.13.73c-2.79,2.39-4,5.79-5.6,8.92-.59,1.14-.64,2.63-2.24,3.37-1.66-1.11-1.18-2.64-.72-4.13a20.23,20.23,0,0,1,3.9-6.46,13.14,13.14,0,0,0,2.64-10.09c-3.61,2.41-1.88,7.13-4.88,9.59-2.62,2.16-3.85,5.91-7.68,7.26-1-5,5.54-7,3.82-12.08-2.45,2.93-3,6.79-6.12,9.11-.46-3.81,8.91-22.39,13.69-26.87-.41,3.48-3.11,6.18-4.3,10.1,3.67-1.21,3.22-5.31,6.07-6.33,1,1.64-1.46,3,0,4.74,2.21-.5,1.43-3.71,3.77-4.14,1.4.54,0,1.88.65,2.72,1.67.78,2.93.83,4.22-1.11s1.88-.53,2.07.94Zm-4.61,4.36.15-.34a3.45,3.45,0,0,0-.64,0c-.07,0-.11.21-.16.32Z" transform="translate(0 0)"/><path d="M281.35,127.31c1.2,2.67,2.4,5.33,3.59,8,.16.36.21,1,.47,1.07,4,1.68,4.45,5.54,5.68,8.93.4,1.1,1.69,1.23,2.42,2,1.09,1.13,2.46,2.09,2.44,3.92-3.33.41-6-.93-7.27-3.82-.75-1.7-1.22-3.52-1.92-5.24-.45-1.13-.55-2.65-2.69-2.86,1.2,4.42,2.33,8.61,4.44,12.41s5.93,6.3,8.93,9.77c-1.64,1.16-4,1.53-2.41,3.88-2.08.72-2.76-1.11-4.33-1.13-.51,2.26.79,4.94-1.24,7.19a5.11,5.11,0,0,1-1.8-4c-1-8.91-3.49-17.44-6.4-25.88-.65-1.87-1.28-3.76-.42-5.81.93-2.22-1-3.67-1.68-5.47-.82-2.32-.31-3.36,2.28-2.85Z" transform="translate(0 0)"/><path d="M231,90.83a10.06,10.06,0,0,0-5-2.19,13.47,13.47,0,0,0-5.51.09c-1.73.43-3,2.08-5.71,1.85,3.68-3.84,7.51-5,12.14-4,1.4.3,2.62,1.33,4.16,1q.15.52.24.09H231c0-.26.08-.58,0-.76-2.22-3.13-6.21-3.51-9.21-5.43-2.51-1.61-6.68.06-9.88,1.59-1.85.88-3.45,2.38-5.58,2.63-.89-1.49,0-2.3.85-2.83,3.13-2,5.93-4.55,9.64-5.49,2.6-.65,4.58-2.53,7.21-3.28,3.27-.92,5.92-.91,8.22,1.8A2.27,2.27,0,0,0,233.91,77c1.06-.67.56-1.89.89-2.82s.33-2.35,1.82-2.12,1.23,1.58,1.32,2.59c.31,3.49-.93,5.11-4.37,5.41-1.64.14-2.63,1.91-5.28,1.23,3.77,1.66,6.43,3.23,6.93,7.16l-4.3,2.31Z" transform="translate(0 0)"/><path d="M255.12,120.66c2.58-5,3.39-5.69,7-6.28-.09,1.93-2.43,1.91-2.93,3.43,2.37.82,4.47-1.79,7.08-.76-.33,1.8-2.3,1.24-3,2.17a1.41,1.41,0,0,0,1.56.64c3.21-.29,5.44,1,6.56,4.29.28.8.4,1,1.13,1,2.28,0,4.21.17,2.67,3.3a1.56,1.56,0,0,0,.51,1.41c4.85,3.16,2.61,8.77,5,12.93-2.95,1.19-4.56-.23-6.18-1.8,2.75-3.78,2.53-5.62-1.66-8.13-4.66-2.8-8.45-6.9-13.73-8.84C257.62,123.5,257,121.21,255.12,120.66Zm12,2.15c.17-.53-.12-.77-.57-.75-.2,0-.56.31-.54.44,0,.36.18.89.43,1C266.92,123.67,267,123.12,267.15,122.81Z" transform="translate(0 0)"/><path d="M198.62,170.56c-5.19-4-4.76-25,.45-32.72,1.3-.51.8,1.68,2.22,1.25a74.93,74.93,0,0,1,13.18-13.89c.49,2.7-1,3.44-1.86,4.39-3.65,3.85-7.42,7.57-10,12.32a15.34,15.34,0,0,0-1.73,4.37c-1.46,7.16-3,14.31-1.75,21.69A3.48,3.48,0,0,1,198.62,170.56Z" transform="translate(0 0)"/><path d="M270.21,139.76c-1.63.71-2.42-.19-3.19-.83a93.78,93.78,0,0,0-9.59-6.43c-2.86-1.84-5.58-2.28-8.6-.69a8.49,8.49,0,0,1-5,1.2c-6.34-.89-10.56,2.61-14.61,6.61-.47.47-.93,1-1.43,1.39a3.69,3.69,0,0,1-.95.37c-.35-1.53.52-2.54,1.37-3.42,4.05-4.16,8.29-7.93,14.78-7.16,2,.24,3.88-.66,5.73-1.45a9,9,0,0,1,9.07.76c3.44,2.26,7.12,4.14,10.29,6.82C269,137.67,270.14,138.2,270.21,139.76Z" transform="translate(0 0)"/><path d="M218.07,140.56c.7-2.59,3.13-3.93,3.53-6.88.23-1.71,2.86-2.94,5-3.38,1-.21,2.11-.18,2.32-1.73-2.1-.52-3.94,1.84-6,.61,1.29-4.66,7.61-7.93,14.39-7.45.18,2.4-.63,3.71-3.27,3-.6,1.93-.64,3.82-1.89,5.37-.87,1.08-1.58,2-3.21,1.75-2.85-.37-4.75,1.39-6.16,3.52A22.71,22.71,0,0,1,218.07,140.56Z" transform="translate(0 0)"/><path d="M230.92,90.73c.71.87,1.91,1.51,1.46,2.93-1.77.89-3.07-1-4.89-.52-.93.32-.36,2-1.93,2.37-.72-2.66-2.45-3.71-5.17-2.39-2,1-4.8,1.4-3.38,5.6-3.59-2.57-4.85,1-7.18,1.5.61-6.48,10.93-11,21.21-9.39Z" transform="translate(0 0)"/><path d="M251.56,120.59c-2,.45-3.7,1.65-5.81.37-1.73-1-2.16,1.82-3.77,1.41-1.76-.7,0-2.47-1.19-3.63-3,.34-5.94,2.71-9.33,1.21C235.64,115.09,248.74,115.41,251.56,120.59Z" transform="translate(0 0)"/><path d="M270.24,91.6l-2.73-.38c-.93.36-.82,1.28-1,2a17.93,17.93,0,0,0-.35,2.32c-2.47.59-4.74-1.06-7.23,0-1,.42-2.7-.92-3.18-2.48-.53-1.75.89-2.31,2-2.92,4.5-2.42,8.57-1.31,12.39,1.61Zm-7.38-.74c-.54.07-1.13.26-.93.89a1.77,1.77,0,0,0,1,1c.68.22.84-.41.86-.93A.93.93,0,0,0,262.86,90.86Zm-3.44,1c-.2.13-.52.22-.57.39a.71.71,0,0,0,.25.64c.44.25.7,0,.69-.47C259.78,92.28,259.55,92.1,259.42,91.91Z" transform="translate(0 0)"/><path d="M263.14,80.43l1.95.23c-2,2.34-4.68,3.65-5.6,6.62-.29,1-2.69,1.55-4.2,1.75-1.9.24-2.91-2.24-1.75-4.17s3.26-2.58,5.36-3.08c1.5-.36,3.25,0,4.38-1.46Z" transform="translate(0 0)"/><path d="M281.44,127.43c-.15-4.13-3.2-7.11-4.65-10.86,4.45,0,9.41,8,8.36,13.06-1.87.23-2.81-1.1-3.8-2.32Z" transform="translate(0 0)"/><path d="M251.4,103.9a33.63,33.63,0,0,1,4.48,1.36,2.22,2.22,0,0,1,1.26,2.95,2.32,2.32,0,0,1-3.19,1.47,12.1,12.1,0,0,1-4.25-2.78,1.87,1.87,0,0,1-.64-2.12C249.52,103.74,250.41,103.67,251.4,103.9Z" transform="translate(0 0)"/><path d="M194.47,171c2.87,2.87,4.94,6.11,7.8,8.61.62.54,1,1.36.44,2.09s-1.72.58-2.52,0c-2.84-1.95-4.28-4.95-5.74-7.91A2.65,2.65,0,0,1,194.47,171Z" transform="translate(0 0)"/><path d="M240.63,157.31c.86-.5,1-1.91,2.88-1.85A41.93,41.93,0,0,1,241.19,168c-2.26-3.55-.77-7.2-.47-10.81Z" transform="translate(0 0)"/><path d="M234.05,150.41c1.33-3.38,4-5.72,6.33-8.36C242,144.45,238.32,149.54,234.05,150.41Z" transform="translate(0 0)"/><path d="M203.88,130.62c1.37-5.05,4.11-7.11,7.79-6.28A23.14,23.14,0,0,1,203.88,130.62Z" transform="translate(0 0)"/><path d="M241.61,106.67c-.09,1.85-2.2,4.35-3.52,4.13-1.1-.18-1.45-1-1.44-2,0-1.81,2.16-4.33,3.55-4.13C241.31,104.84,241.65,105.65,241.61,106.67Z" transform="translate(0 0)"/><path d="M265.93,86.55c4.34-.88,7.36.71,9.33,4.86C271.55,90.47,269.47,87.11,265.93,86.55Z" transform="translate(0 0)"/><path d="M276.73,96.3c-1.83-.92-3.68-1.35-5.91.37,0-2.08,1.35-3.9-.58-5.07l-.09.1c3,.47,4.79,2.48,6.47,4.7Z" transform="translate(0 0)"/><path d="M237.64,114.41c1.94-2.07,3.57-1.87,5.47-.2C241.45,116.6,239.84,116.81,237.64,114.41Z" transform="translate(0 0)"/><path d="M222.89,141.63c-1-2.11-.66-3.31,1.6-4C225.4,139.63,224.73,140.71,222.89,141.63Z" transform="translate(0 0)"/><path d="M222.4,98.37c-1.58.27-2.79-.37-3.57-2.14l3.8,1.29Z" transform="translate(0 0)"/><path d="M222.16,96.49a1.27,1.27,0,0,1-1.24-1.31,1.15,1.15,0,0,1,1.19-1.25c.89,0,1.52.48,1.36,1.44A1.32,1.32,0,0,1,222.16,96.49Z" transform="translate(0 0)"/><path d="M254.25,115.32c.57-1.43,1.18-1.9,2.44-1.4C256.47,115.38,255.9,116,254.25,115.32Z" transform="translate(0 0)"/><path d="M276.62,96.4l.33.16c-.16.22-.24.14-.22-.26Z" transform="translate(0 0)"/><path d="M411,191.47l-.88-.74c-2.61-8.75-9.38-14.07-16.14-19.49a28.05,28.05,0,0,1,12.67,8.29,33.48,33.48,0,0,1,5.66,9.09c.52,1.25,1.43,2.78-.56,3.75Z" transform="translate(0 0)"/><path d="M430,5V680.71H40V5H430m5-5H35V685.71H435V0Z" transform="translate(0 0)"/></g><rect x="194.43" y="296.61" width="81.15" height="460.11" transform="translate(-306.92 723.97) rotate(-85.96)"/><path class="cls-3" d="M10.69,472.64l454,32.08-5.37,76-454-32.07,5.37-76m-4.62-5.32L0,553.24,463.93,586,470,500.1,6.07,467.32Z" transform="translate(0 0)"/><path class="cls-3" d="M60.18,528.42l-7.32,6.35-26.3-1.86h-.25l.68-9.66,2.57.18,1.66-23.58-2.57-.18.68-9.61,26.3,1.86.26,0,6.35,7.31-.78,11-3,2.63,2.63,3Zm1.63-29-6.16-7.1-25.94-1.83-.62,8.79,2.57.18-1.73,24.45-2.56-.18-.62,8.78,25.94,1.83,7.1-6.21.85-12.07-2.82-3.24L61.07,510Zm-3.18,17.32-.73,10.33-6.1,5.25-23-1.62.35-4.93,2.57.18,1.86-26.3.14-2-2.57-.18.35-4.93,23,1.62,5.31,6.05L59.18,509l-4.13,3.63ZM48.09,527.1l2.85-2.43.51-7.14L49,514.72l-9.3-.66-.87,12.39Zm1.22-17.31,2.86-2.54.4-5.59-2.48-2.87-9.3-.65-.78,11ZM48,516.56l1.43,1.65-.39,5.5-1.65,1.43-6.52-.46.6-8.58Zm-.29.4-5.86-.42-.54,7.71,5.86.41,1.48-1.24.35-5Zm1.41-16.27,1.43,1.65-.28,4-1.65,1.43-6.52-.46.49-7Zm-.29.39L43,500.67l-.43,6.22,5.85.41L49.89,506l.24-3.44Z" transform="translate(0 0)"/><path class="cls-3" d="M82.86,493.83l18.91,1.33,6.34,7.32-1.85,26.3-.21,2.88L98.74,538l-18.9-1.34-6.36-7.31,1.86-26.3.2-2.88Zm-2.74,42.45,18.39,1.3,7.15-6.21.17-2.41,1.86-26.31-6.21-7.09-18.39-1.3-7.15,6.15-.17,2.42-1.86,26.3Zm3.76-40.06,16.54,1.17,5.3,6.05-1.85,26.31,0,.56-6.1,5.25-16.55-1.17-5.25-6L77.79,502l0-.56ZM96,502l-8.37-.59-2.86,2.48-1.63,23,2.49,2.81,8.37.59,2.86-2.43,1.63-23Zm-2.63,26.35-6.78-.47-1.44-1.65,1.51-21.38,1.65-1.43,6.78.48,1.44,1.65L95,527Zm1.44-24.06-6.27-.44L87,505.17,85.54,526l1.3,1.43,6.26.44,1.43-1.24L96,505.8Z" transform="translate(0 0)"/><path class="cls-3" d="M148,510.66l.18-2.57-2.62-.18-1.66,23.58,2.62.18-.68,9.66-17-1.2.69-9.66,2.57.19,1.66-23.59-2.57-.18-.18,2.57-9.66-.68.86-12.17,26.3,1.85,9.92.7-.86,12.18Zm9.23.24.8-11.36-9.1-.64-26.3-1.85-.8,11.35,8.79.62.18-2.57,3.44.24-1.73,24.46L129.9,531l-.62,8.78,16.08,1.13.62-8.78-2.62-.18,1.73-24.46,3.49.25-.18,2.57Zm-6.52-5-7.34-.51-1.86,26.3-.14,2,2.57.18-.35,4.93-12.23-.86.35-4.93,2.57.18,1.86-26.3.14-2-7.25-.52-.18,2.57-4.93-.34.53-7.51,26.3,1.86,5.19.37-.53,7.5-4.88-.35Z" transform="translate(0 0)"/><path class="cls-3" d="M196.82,514.11l.18-2.57-2.62-.19-1.67,23.58,2.63.19-.69,9.66-17-1.2.68-9.66,2.57.18,1.66-23.58-2.56-.18-.19,2.57-9.65-.68.86-12.18,26.3,1.86,9.91.7-.86,12.17Zm9.22.23.8-11.35-9.09-.64-26.3-1.86-.8,11.36,8.78.62.18-2.57,3.44.24-1.72,24.45-2.57-.18-.62,8.79,16.08,1.13.62-8.78-2.62-.19L194,510.91l3.49.25-.18,2.57Zm-6.51-5-7.35-.52-1.85,26.31-.15,2,2.57.18-.35,4.93-12.22-.86.35-4.93,2.56.18,1.86-26.3.14-2-7.24-.51-.18,2.57-4.93-.35.52-7.5,26.31,1.86,5.19.36-.53,7.5-4.88-.34Z" transform="translate(0 0)"/><path class="cls-3" d="M231.91,537.7l7.71.54.18-2.56,9.71.68-.87,12.23-26.3-1.86-5.44-.38.68-9.66,2.57.18,1.66-23.58-2.57-.18.68-9.61,16.9,1.19-.68,9.61-2.56-.18Zm4.47-32.62-16.08-1.14-.62,8.79,2.57.18-1.73,24.45-2.56-.18-.62,8.78,4.57.33,26.3,1.85.8-11.35-8.78-.62-.19,2.57-8.57-.61,1.72-24.45,2.57.18Zm-6.86,32.81-.14,2,12.43.87.18-2.57,5,.36-.53,7.5-26.3-1.86-.72-.05.34-4.93,2.57.18,1.86-26.3.14-2-2.57-.18.35-4.93,12.17.86-.34,4.93-2.57-.18Z" transform="translate(0 0)"/><path class="cls-3" d="M283.8,541.36l.11-1.69,9.71.68-.8,11.36-26.3-1.86-5.24-.37.68-9.66,2.57.18,1.67-23.58-2.57-.18.67-9.61,26.31,1.86,5.24.37-.8,11.3-9.71-.68.12-1.7-7.5-.53-.49,7,1.74.12.12-1.69,9.66.68-.92,13-9.66-.68.12-1.7-1.75-.12-.48,6.93ZM279,533.59l-.12,1.74,8.79.62.86-12.22-8.79-.62-.12,1.69-2.56-.18.55-7.81,8.32.59-.12,1.69,8.84.63.74-10.48-4.37-.31-26.3-1.86-.62,8.79,2.56.18-1.72,24.45-2.57-.18-.62,8.79,4.37.31,26.3,1.85.74-10.53-8.83-.62-.13,1.74-8.32-.58.56-7.86Zm11.66,15.58-26.31-1.85-.51,0,.35-4.93,2.57.18,1.85-26.3.15-2-2.57-.19.34-4.93L292.81,511l.51,0-.47,6.67-5-.35.12-1.74-12.23-.87-.83,11.77,6.42.45.13-1.75,4.93.35-.59,8.32-4.93-.34.12-1.7-6.42-.45L273.77,543l12.22.86.12-1.69,5,.35Z" transform="translate(0 0)"/><path class="cls-3" d="M328.8,527.71l.38-5.45L328,520.78l-6.27-.44-1.49,1.29-1.47,20.85,1.29,1.44,6.27.44,1.43-1.24.36-5.14,11.82.84-.66,9.29-7.31,6.35L313,553.13l-6.35-7.31,1.86-26.31.2-2.87,7.32-6.36,18.9,1.34,6.35,7.31-.68,9.61Zm5.86-15.7-18.4-1.3-7.14,6.16-.17,2.41-1.86,26.31,6.21,7.15,18.39,1.3,7.15-6.21.61-8.63-10.94-.77-.36,5-1.65,1.43-6.78-.48-1.43-1.65,1.51-21.37,1.65-1.43,6.78.48,1.43,1.65-.37,5.24,10.95.77.63-8.94Zm-3.33,13.5.29-4.16-2.48-2.86-8.37-.59-2.86,2.48-1.63,23,2.49,2.81,8.37.59,2.86-2.44.27-3.85,7.14.51-.41,5.75L330.9,552l-16.54-1.17-5.25-6.05L311,518.5l0-.57,6.05-5.25,16.55,1.17,5.3,6-.43,6.12Z" transform="translate(0 0)"/><path class="cls-3" d="M386.05,524.88l-2.16-.15L390,548.86l2.57.18-.68,9.66-16.49-1.17.68-9.65,1.44.1-.53-2-8.17-.58-.8,1.91,1.38.1-.68,9.65-16.39-1.15.69-9.66,2.56.18,9.53-23-1.9-.14.68-9.61,22.8,1.61Zm-22.37-2,2.05.14-9.84,23.88-2.47-.17-.62,8.79,15.57,1.09.62-8.78-1.59-.11,1.12-2.76,8.84.62.72,2.89-1.54-.11-.62,8.79,15.62,1.1.62-8.79-2.47-.17-6.39-25,2.37.17.61-8.78-22-1.56Zm20.17-.54-3-.21,6.88,26.92.57,2.05,1.8.13-.35,4.93L378,555.34l.35-4.93,2.41.17-1.79-6.84-11.66-.82-2.68,6.52,2.31.16-.34,4.93-11.67-.82.35-4.93,1.85.13,10.59-25.69.81-2-2.72-.2.34-4.93,18.09,1.28ZM378,540.16l-3.68-14.4-5.67,13.74Zm-2.54-2.09-3.95-.28,2.36-5.77Zm-.54-.45-1.14-4.21-1.63,4Z" transform="translate(0 0)"/><path class="cls-3" d="M420,544.37l-.47,6.57,2.57.19-.68,9.65-16.9-1.19.68-9.66,2.57.18,1.66-23.58-2.57-.18.68-9.6,26.3,1.85.26,0,6.35,7.31-.91,13-7.32,6.35Zm20-18.26L433.91,519l-26-1.83-.62,8.78,2.57.18-1.72,24.46-2.57-.19-.62,8.79,16.08,1.13.62-8.78-2.57-.18.52-7.45,12.44.88,7.09-6.16Zm-22.23,15.73-.8,11.3,2.57.18-.35,4.93-12.17-.86.35-4.93,2.56.18,1.86-26.3.14-2-2.57-.18.35-4.94,23,1.63,5.31,6-.75,10.63-6.1,5.25Zm12.51-6.76.47-6.73-2.48-2.86-9.3-.66-.85,12.08,9.3.65Zm-3-7.7,1.43,1.65-.36,5.09-1.65,1.48-6.52-.46.57-8.22Zm-.8,7.74,1.48-1.29.32-4.57-1.29-1.48-5.85-.42-.52,7.35Z" transform="translate(0 0)"/></g></g></svg>