<?xml version="1.0" encoding="utf-8"?>
<!-- Generator: Adobe Illustrator 22.1.0, SVG Export Plug-In . SVG Version: 6.00 Build 0)  -->
<svg version="1.1" id="Layer_1" xmlns="http://www.w3.org/2000/svg" xmlns:xlink="http://www.w3.org/1999/xlink" x="0px" y="0px"
	 viewBox="0 0 181.3 50.5" style="enable-background:new 0 0 181.3 50.5;" xml:space="preserve">
<style type="text/css">
	.st0{fill:none;stroke:#000000;stroke-width:1.31;}
	.st1{fill:#FFFFFF;}
</style>
<metadata><?xpacket begin="﻿" id="W5M0MpCehiHzreSzNTczkc9d"?>
<x:xmpmeta xmlns:x="adobe:ns:meta/" x:xmptk="Adobe XMP Core 5.6-c143 79.161356, 2017/09/07-01:11:22        ">
   <rdf:RDF xmlns:rdf="http://www.w3.org/1999/02/22-rdf-syntax-ns#">
      <rdf:Description rdf:about=""
            xmlns:xmp="http://ns.adobe.com/xap/1.0/"
            xmlns:xmpGImg="http://ns.adobe.com/xap/1.0/g/img/"
            xmlns:xmpTPg="http://ns.adobe.com/xap/1.0/t/pg/"
            xmlns:stDim="http://ns.adobe.com/xap/1.0/sType/Dimensions#"
            xmlns:xmpG="http://ns.adobe.com/xap/1.0/g/"
            xmlns:dc="http://purl.org/dc/elements/1.1/">
         <xmp:CreatorTool>Adobe Illustrator CC 22.1 (Windows)</xmp:CreatorTool>
         <xmp:CreateDate>2018-08-29T17:33:11+02:00</xmp:CreateDate>
         <xmp:Thumbnails>
            <rdf:Alt>
               <rdf:li rdf:parseType="Resource">
                  <xmpGImg:width>256</xmpGImg:width>
                  <xmpGImg:height>72</xmpGImg:height>
                  <xmpGImg:format>JPEG</xmpGImg:format>
                  <xmpGImg:image>/9j/4AAQSkZJRgABAgEASABIAAD/7QAsUGhvdG9zaG9wIDMuMAA4QklNA+0AAAAAABAASAAAAAEA&#xA;AQBIAAAAAQAB/+4ADkFkb2JlAGTAAAAAAf/bAIQABgQEBAUEBgUFBgkGBQYJCwgGBggLDAoKCwoK&#xA;DBAMDAwMDAwQDA4PEA8ODBMTFBQTExwbGxscHx8fHx8fHx8fHwEHBwcNDA0YEBAYGhURFRofHx8f&#xA;Hx8fHx8fHx8fHx8fHx8fHx8fHx8fHx8fHx8fHx8fHx8fHx8fHx8fHx8fHx8f/8AAEQgASAEAAwER&#xA;AAIRAQMRAf/EAaIAAAAHAQEBAQEAAAAAAAAAAAQFAwIGAQAHCAkKCwEAAgIDAQEBAQEAAAAAAAAA&#xA;AQACAwQFBgcICQoLEAACAQMDAgQCBgcDBAIGAnMBAgMRBAAFIRIxQVEGE2EicYEUMpGhBxWxQiPB&#xA;UtHhMxZi8CRygvElQzRTkqKyY3PCNUQnk6OzNhdUZHTD0uIIJoMJChgZhJRFRqS0VtNVKBry4/PE&#xA;1OT0ZXWFlaW1xdXl9WZ2hpamtsbW5vY3R1dnd4eXp7fH1+f3OEhYaHiImKi4yNjo+Ck5SVlpeYmZ&#xA;qbnJ2en5KjpKWmp6ipqqusra6voRAAICAQIDBQUEBQYECAMDbQEAAhEDBCESMUEFURNhIgZxgZEy&#xA;obHwFMHR4SNCFVJicvEzJDRDghaSUyWiY7LCB3PSNeJEgxdUkwgJChgZJjZFGidkdFU38qOzwygp&#xA;0+PzhJSktMTU5PRldYWVpbXF1eX1RlZmdoaWprbG1ub2R1dnd4eXp7fH1+f3OEhYaHiImKi4yNjo&#xA;+DlJWWl5iZmpucnZ6fkqOkpaanqKmqq6ytrq+v/aAAwDAQACEQMRAD8A8qYq7FXYq7FXYq7FXYq7&#xA;FXYq7FXYq7FXYq7FXYq7FXYq+9f+cT//ACSWkf8AGe8/6iXxV6/irsVdirsVdirsVdirsVdirsVd&#xA;irsVdirsVflXirK/yt8i/wCO/PemeVPr36O/SPr/AOmel6/D0LeSf+75xcuXpcftDrXFWSt+Uvk/&#xA;VdD1m+8ledl16/0Kyk1S+0y402fT2NnBT1pI5HklVilR8O2KsH8n+WbzzR5p0ry9Znhcapcx2yyU&#xA;5CNXajyEVFQi1Y79BirJ/wA1/wArIPIzaTcafrK6/pGrrci31FLf6svrWU7W88YX1Jq8WA+Ll36Y&#xA;qpfl/wDllH5j0rUfMet6xF5c8paS6w3erTRPOzzuOSwW8KFTLJShIB2BHXFUZ5w/KrSrLyn/AIx8&#xA;neYo/M/lyGdbXUX+rvaXVnLJtH60Lljwc7B9t6YqlUX5cXdx+X2m+a7O4e6u9U1ltEt9HjhLO0gi&#xA;Eissgcli5PEJw+nFVT8xvy6tvI31DTb3WEu/NUsQm1fSIIgYrAOOSRvdCQiSUgglVSg8aUqqyNfy&#xA;k8haRZ6LH5086Nouta7Zw6hDaQafJdQ20FyCYGuJhInX9oKPh+W+KpFcflPqdj+bdv8AlzqV2kNx&#xA;PewWi6jEhljMdzxaOdELR8gUcHjyG+1cVTLzD+Xn5TaPJqdn/wArEmn1XTjPD9T/AEHcIr3EBZfS&#xA;9X6wyqGdePLcd8VYL5Z0G88w+YtM0Ky/3q1O5itYjSoUyuE5H2WtT7YqzH82fymh8ippl1p+tLr+&#xA;lalJeWwvkt/qwS50+cwTxFfUnrRh8LV37bb4qmP5cflN5C86vZafF55ks/MFzBJPPpn6IllWL0Ua&#xA;SRfrBnjR6Ita0xViXnLQvIulxWreWPNMnmOSVnF0j6dLp/ohQOBBkkl58qnp0pirF8Vfev8Azif/&#xA;AOSS0j/jPef9RL4q9fxV2KuxV2KuxV2KuxV2KuxV2KuxV2KuxV2KvyrxV6r/AM4uf+T28s/9H3/d&#xA;PuMVZn5F1tfN2g+cPL0Pk618n202jXNzca/pcUkJX6sBKtvcy3HrEwTMo5KrKTT7lWN/842afZWe&#xA;q+YfO+o3kWm2nlnTnW11K4V3ihv9RrbWzMqBmYbvsBXFU81by3od/wD84/6npOk+ZbXzRfeUNQXW&#xA;IntY7iJ4bO7/AHU8dJ1Sq8yZSR4feqx+PTL3X/8AnGu2i0ONrqby/r80+uWUALSrHcQcYblo1+Io&#xA;PscqePYHFUD5U0XzBpv5I+eNdnuTp+jarJptjbWk8FRqMqTmQ+i7EcfQU8+Sqa7jamKvQfyk/MrQ&#xA;fIP5OaHqeq6X+kTN5luYophQPaxm2iWeeLv6oichaUrU7jFXkv5veRb7yt5paY3j6vo2tqdS0XXW&#xA;YyfXLec8+bSftSrypJ779GGKvTPN+t6j5R1bTfInmTy7bfmN5XW2tv8ADOqT20lvqMtlLEriO0uo&#xA;GdwsZZkC7nYdqDFUuvNEOh/85XaTpf6RutTS31XTjFNfSvcXEaSJFIlvJK5ct6KvwG/QYqgfzD82&#xA;+Wf0/wCZrT/lWtp9Z+t30X6W9a/5+p6jr9Z48/TrX46Up9GKqP8AzjTp1jB5q1TzjqdxFZad5T0+&#xA;S4F9cKzwx3l1/o1t6ioCxHxudhWo2xVkV35b0LUfyL8x6Lpvmq1806l5fvl8yQm1iuIpI4ZAILsP&#xA;66JVeLGTbv1xViX/ADjL/wCTZtP+YHUf+oOXFXlWKuxV96/84n/+SS0j/jPef9RL4q9fxV2KuxV2&#xA;KuxV2KuxV2KuxV2KuxV2KuxV2KvyrxVMNA8waz5f1aDV9Fu5LHU7bn9XuoiA6eojRvSteqORiqfa&#xA;/wDm3+ZnmCwfTtY8yX13YSbS2rSlY3HhIqcQ49mriqRQeYdag0O50KG7kj0i8lS4urNaBJJYxRGf&#xA;ap49sVdo/mLW9GW+XS7yS0XUrWSxv1Qik1tLT1InBBqrUxVFeVPOvmrylqDah5b1ObTLt09OR4SK&#xA;Ola8XRgyMK7/ABDFUT5w/Mbzv5yeBvM2sXGpC2r9XjkKrGhPVljQIgY92pXFUqk1zVpNFh0R7p20&#xA;qCd7qG0NOCzSKEdxtWpVQMVVrrzR5gu9AtPL9zfSzaNYSNNZWTkMkLvXkY6iq8uRqAaYqyHQvzp/&#xA;NPQdHTR9J8yXdtpsQ4w29Uf01/ljZ1ZkX2UjFWM22v63ba3HrsV9N+mYphcpfs5eb1geQkLvyJav&#xA;c4qyq8/PL8272zns7rzRezWtzG8M8TMvF45FKsp+HoQaYqxa18w61a6Ne6JbXckWlak8Ul/aLQJM&#xA;0B5RF9qng24xV2i+Yda0SS6k0q7ktHvbaSyuzHT97bTU9SJwQQVbiKjFWtC8wazoOorqOj3cllfI&#xA;jxrcREBgkqlHG9ftKSMVS/FXYq+9f+cT/wDySWkf8Z7z/qJfFXr+KuxV2KuxV2KuxV2KuxV2KuxV&#xA;2KuxV2KuxV8P+QP+cUfMPnPyfpvma2120tINSR3S3lilZ1CSNHuV2/YxVkP/AEJD5q/6mWx/5EzY&#xA;q7/oSHzV/wBTLY/8iZsVd/0JD5q/6mWx/wCRM2Ku/wChIfNX/Uy2P/ImbFXf9CQ+av8AqZbH/kTN&#xA;irv+hIfNX/Uy2P8AyJmxV3/QkPmr/qZbH/kTNirv+hIfNX/Uy2P/ACJmxV3/AEJD5q/6mWx/5EzY&#xA;q7/oSHzV/wBTLY/8iZsVd/0JD5q/6mWx/wCRM2Ku/wChIfNX/Uy2P/ImbFXf9CQ+av8AqZbH/kTN&#xA;irv+hIfNX/Uy2P8AyJmxV3/QkPmr/qZbH/kTNirv+hIfNX/Uy2P/ACJmxV6p5D/LH87PJHlq38u6&#xA;N5h0JtPtmkeM3FlcvJWVzI1WWVB1bwxVkP6K/wCchv8Aq/8Alz/pAuv+q2Ku/RX/ADkN/wBX/wAu&#xA;f9IF1/1WxV36K/5yG/6v/lz/AKQLr/qtirv0V/zkN/1f/Ln/AEgXX/VbFXfor/nIb/q/+XP+kC6/&#xA;6rYq79Ff85Df9X/y5/0gXX/VbFXfor/nIb/q/wDlz/pAuv8Aqtirv0V/zkN/1f8Ay5/0gXX/AFWx&#xA;V36K/wCchv8Aq/8Alz/pAuv+q2Ku/RX/ADkN/wBX/wAuf9IF1/1WxV36K/5yG/6v/lz/AKQLr/qt&#xA;irv0V/zkN/1f/Ln/AEgXX/VbFXfor/nIb/q/+XP+kC6/6rYqx7z/AK3+fvkzyfqXma51fy/dwaai&#xA;O9vFY3KuweRY9i01P28VZD/zjd/5JLyt/wAYJv8AqJlxVnHmTzJonlrRbjW9culstLtOH1i6cMwT&#xA;1JFiSoQM27uBsMVY55Z/Oj8rvM+rR6RofmG3u9SlDNDbcZYmfiKkJ6qIGIG9BvTFUX5x/NLyF5Mu&#xA;be28zavHps92hlt0dJXLIp4k/u0fviqL8n+fvJ3nKzlvPLOqw6nDbsEn9PkrxlhVeccgSReVDSq7&#xA;0PhiqfO6IjO7BUUEsxNAANySTirB9D/O78rNc1yLQ9L1+K41G4d47ZDFcRxTOlarFPJGkMh224Oa&#xA;9sVZziqVXvmnQbLzDp3l65uvT1jVo5pdPteEjeolsoaU81UxrxB/aYV7YqmuKsY87/mZ5I8jJZv5&#xA;o1L9Hi/MgtAIZ5y/ohWkPGCOUgKHFScVZLFLHLEksTB45FDI6moKkVBB98Ved3X/ADkP+T1pfXFj&#xA;c6+Yp7Sd7W5L2d8I0miYo6mX0PT2YUrypirOP05pH6FOuLdxyaQtubz67GfUjNuqeoZFKV5DiK7Y&#xA;qwe1/wCciPyZurmK2t/M8Ek87rFEghuQWdzxUbxdycVZjrnmnQdDn0y31S6+ry6xdpYaavCR/VuZ&#xA;ASsdY1YLUKd2oPfFU1xVgvmb88Pys8s6tNpGs66kGo2wBuYIoLm59Ll0ErW8Uqod+jEHFWTJ5p8v&#xA;SeWm8zRX8UugpbPetqEZLx/V4kLu/wAIJ+FVNRSvbrirDbX/AJyI/Jm6uYra38zwSTzusUSCG5BZ&#xA;3PFRvF3JxVk3nHz/AOT/ACZbW9z5m1JNNgu3MVu7pI4Z1HIj92r9sVQvk780/wAv/OdxcW3lnWod&#xA;RubVQ80CiSOQITTkElVGZa7ErsMVTfT/ADNoeoazqei2d2suqaN6P6StOLK8P1hPUiJ5AAh1FQVr&#xA;irZ8yaIPMY8t/WlOuNaHUPqQDFhaiT0vVJA4gc/h3OKpDJ+b35dR+Zh5YfWFGutcC0Fj6NxyMzOI&#xA;wvL0+FOZpyrT3xVPPMvmjy/5Y0iXV9fv4tO06GgeeY0BY9FVRVnY02VQScVY95L/ADm/Lbzpfvp3&#xA;l7WUuNQRS4s5Y5reV0G/KNZ0j5jj8Xw1oOuKo7zl+ZvkXyXLaxeZ9Wj02S9V2tVdJX5iMgOR6aP0&#xA;5Driq7yZ+ZHkjzr9c/wvqsep/UPT+uemkqen63P06+oiV5em3TwxVJte/Pj8ptB1e50jU/MEcV/Z&#xA;uIrxI4LmdIXJ48JJYYpIkYHYhm274qzexvrK/soL6xnS5s7lFlt7iJg6OjiqsrDYgjFXnn/OSP8A&#xA;5JLzT/xgh/6iYsVd/wA43f8AkkvK3/GCb/qJlxVCf85R/wDkifM3/Rj/AN1C3xVKdasvPn5hecfJ&#xA;8t15Ml8s2XlzU49VutZvLq3knKQ1P1SJIGZiszU59tvvVV/zB1PzNp355eXrjy7oi6/qB0C9Q2L3&#xA;aWIEZuYuUnqyJIPhIHw074qh/wAqtQ1vVPzs84X/AJh0b/C+tDTLGJtESRLlZYubEXTXUYWORv2B&#xA;x7bdVxV6t5vis5vKetxX1x9UspLC6S6ugCxiiaFg8nEbnitTTFXzVp3mzzFa/lX5Ej1r8u01DR7O&#xA;/sE8taourJZSS3YdhZz+gsUskfqdW5NQ9ehxV9T2rzyW0UlxF6E7orSwhg4RyKsvIAcuJ2riry7z&#xA;n/60F+XX/MDrP/JhcVeq4q+dPOut+Q/Mv5weatP8063Zabp2iaC2haeLuVEBvdSUvcTx8jUtCtEa&#xA;nQ0xV6F/zjv5rPmP8p9GklkWS80tW0q7ZSGBez/doeQ68oeDV98VeaeQbj83f8OeeLXyho2kalp8&#xA;2v6ylb+d1maV3CsghK+i60pQO4B74qzTyM2k/wDQsssOlvO9va6JqVvL9aQRzLcRLOs6uis4Wkob&#xA;iOR+GmKqH5Ya/wDnGnkfynb2/lPTpdHXTNPjhvW1PjK1sLeMLKYvRNGMfxca9dq4qmX53/8AHd/L&#xA;P/wK7T/k3Jir1XFXgXlgedtOufMXmj8uLWx84+T/ADLqd1fX2l3haw1GO65lLmJJJV9No6qQocfI&#xA;dSVUb5Zj8uJ/zjJ5pHl83Udi2ma40ljehVmtJ2hmM1rRQo4xyV47dMVRP5Ya/wDnGnkfynb2/lPT&#xA;pdHXTNPjhvW1PjK1sLeMLKYvRNGMfxca9dq4qqfn5dapaeZfy3udJsBqeoxazI1tYNMtsJn+rn4T&#xA;MwdU+ZGKpfp+peatZ/PzyzP5s8ux+ULqy0zUf0egukv21IOEV4xPCkaKIAfU4NuK17jFU78wE+WP&#xA;+cgPL+r1Menec9Pm0a8P7H12zPr2zt/lOh9NcVb/ACj/AOdh89+ffPb/ABwT3y6Do7dha6YoWR4z&#xA;/JNK3L5jFV2o/wDrTekf+Apcf9RoxVQ/MKzttZ/PPyBo2ros+jw2uo6jbWkoBilvoVUIWU7OYl+N&#xA;R2xVGfnNpGhNrPkPWZb2PS9dtvMVlbadd+k8klws5YSWZMQ5BJaULN8I79cVS780LzzNafnH5Km8&#xA;t6dBqmpjTdVC2lzP9VjKEwcm9TjJuPCmKs88man59vvrn+LNEtNG9P0/qX1S8+uery5+pz/dx8ON&#xA;Fp419sVeQeUI/O+jaBqmr+RtOsPPn5deZbq91IWUzPZanSd2juIW9VWSUDgV+IFm8O2KvR/yITy8&#xA;n5T+X18vXF1c6SI5vQe/4/WVY3Ehkik4hVrFIWjFBSg2xVBf85I/+SS80/8AGCH/AKiYsVd/zjd/&#xA;5JLyt/xgm/6iZcVZF+ZvkaLz15I1LyrLdtYR6j6HK7RBKU9C4jn2Qsla+lTrirKMVY5deTYrjz/Y&#xA;ecDdMsljp0+miz4AqwnlSX1OdduPp0pTFXWvk2K38/3/AJwF0zSX2nQaabPgAqiCV5fU5135epSl&#xA;MVTnVdMstV0u80u+j9Wyv4JLa6iOwaKZCjr9KsRirx+T/nHfXLjR7Ty9eefb+Ty5ozify7ZR2lvF&#xA;NazxV+rvLcglp1h5Gi0X6KDFXrmh2mqWekWttq1+NU1GJAtzqAhW29Z/5/RQsqfIHFWIefvy01bz&#xA;J5l0TzHo3mOTy7quhxXMMEyWkN5yW7Cq9VnPD7K0+yeuKpx5N8v+cdIN5/iPzU/mYT+n9V9SxtrL&#xA;0OHLnT6sBz58l+1047dTiqX+TPyq0Hy/aaiL9INa1HVdQudTvdQubaPm0t03IqA3qEKoAAHLFUR5&#xA;N/L228qa95lv9Puv9xvmC5ivE0oRKkdrMsfCVo2U0IlNDTiKUGKsRsPyV84aW+q2+j/mFeaXpGrX&#xA;9zqNxY21haCRZLtuT8Ll+cqnoKjwxVmGkflzo2jfl5N5I0uSWOxltLm1N3KfVmL3Yf1ZnPw8mLSF&#xA;uw7Yqxry/wDlf+ZmiWem6da/mVOdJ0yOC3gsjpGn0+r26qixeoQ0n2F48q1+nFU9/Mv8vLrzlDox&#xA;stZfQ7/Q79NSs7xII7kiWNGVf3cpCbcq71+WKqvlDyv590rUpbjzD51k8x2TwtHHYvp1nZhJS6kS&#xA;+pbgOaKrLxO2/tirGZPyY8xaZqmqTeSvO935Z0rWLh7y90kWlveRrPL/AHj2zzUaHkdzx/gKKsis&#xA;Pyv0bTPyzvvIWnXE0dpfWd5aS389Jp2kvlcSzvTgGblKTTbwxVIfL/5X/mZolnpunWv5lTnSdMjg&#xA;t4LI6Rp9Pq9uqosXqENJ9hePKtfpxVlHm3yNF5i1zyzqr3bWzeW71r5IggcTFozHwJLLx61rviqr&#xA;rXk2LVPOflvzO100UnlxL+NLUIGE36QjjjJL1HHh6VehriqF/Mr8v0866NZ2keoSaRqOmX0GpaZq&#xA;kKLLJBcW5PFgrFQahj3xVF/l55Ls/JXk7TvLVpMbiOwRg1yy8WlkkdpJJGFWoWZz3xVi1x+VPmib&#xA;8zYfPP8AjOVWt/8AR4tO/R9qVGnNOJnsvVrWjU4+rTmPHFU9/MX8uLDzpaWDG8m0nWtHuBd6NrVr&#xA;x9e2l2DAcvtI4A5p3oPDFWO6B+TOrHzXp/mfzz5suPN+oaMGOjQvaxWNtbyOADL6MLOHf4RQ/Sak&#xA;DFU289/l1rXmDzHo/mHRPMknl3U9IgubaOZLSC85pdFC9VnPAf3f8uKpr5M8v+cdI+uf4j81SeZv&#xA;X9P6r6lla2XocOfOn1YDn6nJftdOO3U4qwyP8kvMmkPeWPk7z3e+XvLF9NLO+iraW90YWnbk62tx&#xA;JSSBNzQAe9a74qz/AMneU9I8o+WbDy5pCuunadGY4fVYNI3Ji7u5AUFmdixoB1xVh3/OSP8A5JLz&#xA;T/xgh/6iYsVYZ+Tf5o6f5U/LTQ/L+r6B5gXUbCKRLhYtJunQFpncUYLv8LDFWZ/8r68s/wDVi8x/&#xA;9we7/wCacVd/yvryz/1YvMf/AHB7v/mnFXf8r68s/wDVi8x/9we7/wCacVd/yvryz/1YvMf/AHB7&#xA;v/mnFXf8r68s/wDVi8x/9we7/wCacVd/yvryz/1YvMf/AHB7v/mnFXf8r68s/wDVi8x/9we7/wCa&#xA;cVd/yvryz/1YvMf/AHB7v/mnFXf8r68s/wDVi8x/9we7/wCacVd/yvryz/1YvMf/AHB7v/mnFXf8&#xA;r68s/wDVi8x/9we7/wCacVd/yvryz/1YvMf/AHB7v/mnFXf8r68s/wDVi8x/9we7/wCacVd/yvry&#xA;z/1YvMf/AHB7v/mnFXf8r68s/wDVi8x/9we7/wCacVd/yvryz/1YvMf/AHB7v/mnFXf8r68s/wDV&#xA;i8x/9we7/wCacVd/yvryz/1YvMf/AHB7v/mnFXf8r68s/wDVi8x/9we7/wCacVd/yvryz/1YvMf/&#xA;AHB7v/mnFXf8r68s/wDVi8x/9we7/wCacVd/yvryz/1YvMf/AHB7v/mnFXf8r68s/wDVi8x/9we7&#xA;/wCacVd/yvryz/1YvMf/AHB7v/mnFXf8r68s/wDVi8x/9we7/wCacVd/yvryz/1YvMf/AHB7v/mn&#xA;FXf8r68s/wDVi8x/9we7/wCacVd/yvryz/1YvMf/AHB7v/mnFXf8r68s/wDVi8x/9we7/wCacVd/&#xA;yvryz/1YvMf/AHB7v/mnFWGfnJ+aOn+a/wAtNc8v6RoHmBtRv4o0t1l0m6RCVmRzViu3wqcVf//Z</xmpGImg:image>
               </rdf:li>
            </rdf:Alt>
         </xmp:Thumbnails>
         <xmpTPg:MaxPageSize rdf:parseType="Resource">
            <stDim:w>181.309998</stDim:w>
            <stDim:h>50.540001</stDim:h>
            <stDim:unit>Pixels</stDim:unit>
         </xmpTPg:MaxPageSize>
         <xmpTPg:NPages>1</xmpTPg:NPages>
         <xmpTPg:HasVisibleTransparency>False</xmpTPg:HasVisibleTransparency>
         <xmpTPg:HasVisibleOverprint>False</xmpTPg:HasVisibleOverprint>
         <xmpTPg:PlateNames>
            <rdf:Seq>
               <rdf:li>Cyan</rdf:li>
               <rdf:li>Magenta</rdf:li>
               <rdf:li>Yellow</rdf:li>
               <rdf:li>Black</rdf:li>
            </rdf:Seq>
         </xmpTPg:PlateNames>
         <xmpTPg:SwatchGroups>
            <rdf:Seq>
               <rdf:li rdf:parseType="Resource">
                  <xmpG:groupName>Default Swatch Group</xmpG:groupName>
                  <xmpG:groupType>0</xmpG:groupType>
               </rdf:li>
            </rdf:Seq>
         </xmpTPg:SwatchGroups>
         <dc:format>image/svg+xml</dc:format>
      </rdf:Description>
   </rdf:RDF>
</x:xmpmeta>
                                                                                                    
                                                                                                    
                                                                                                    
                                                                                                    
                                                                                                    
                                                                                                    
                                                                                                    
                                                                                                    
                                                                                                    
                                                                                                    
                                                                                                    
                                                                                                    
                                                                                                    
                                                                                                    
                                                                                                    
                                                                                                    
                                                                                                    
                                                                                                    
                                                                                                    
                                                                                                    
                           
<?xpacket end="w"?>
	</metadata>
<title>T_Logo_Backseat</title>
<g id="Layer_2_1_">
	<g id="Layer_21">
		<polygon points="0.6,0.6 0.6,25.3 97.2,25.3 97.2,0.6 0.6,0.6 		"/>
		<polygon class="st0" points="0.6,0.6 0.6,25.3 97.2,25.3 97.2,0.6 0.6,0.6 		"/>
		<path class="st1" d="M10,18V8.6h3.4c1.7,0,2.8,1,2.8,2.3c0,0.5-0.1,0.9-0.4,1.3c-0.2,0.3-0.5,0.4-0.8,0.6
			c-0.1,0.1-0.2,0.1-0.4,0.1c0.6,0.1,1.1,0.4,1.4,0.9c0.3,0.5,0.4,1,0.4,1.5c0,1-0.6,2-1.5,2.4c-0.5,0.2-1,0.3-1.6,0.3L10,18z
			 M11.2,9.6v2.8H13c1.3,0,2-0.5,2-1.5s-0.6-1.3-1.8-1.3H11.2L11.2,9.6z M11.2,13.5v3.4h2c1.4,0,2.2-0.6,2.2-1.7s-0.7-1.8-2.1-1.8
			L11.2,13.5z M20.6,18h-1.2l3-9.4h2.2l3,9.4h-1.3l-0.7-2.3h-4.3L20.6,18z M23.5,9l-1.8,5.7h3.6C25.3,14.7,23.5,9,23.5,9z
			 M30.2,13.5c0-1.3,0.4-2.6,1.2-3.7c0.7-0.9,1.8-1.4,3-1.4c1,0,1.9,0.3,2.6,0.9c0.6,0.6,1.1,1.4,1.2,2.2c0.1,0.3,0.1,0.6,0.1,0.9
			c0,0.1,0,0.3,0,0.4h-1.2c0-0.1,0-0.2,0-0.3c0-0.8-0.3-1.6-0.8-2.2c-0.5-0.6-1.2-0.9-1.9-0.9c-1.8,0-3,1.4-3,3.6
			c0,0.8,0.1,1.6,0.5,2.3c0.2,0.5,0.6,0.8,1,1.1c0.4,0.2,0.7,0.3,1.1,0.3c0.1,0,0.3,0,0.4,0c1.2,0.1,2.2-0.7,2.4-1.9
			c0.1-0.4,0.2-0.8,0.2-1.1h1.2c0,2.5-1.5,4.2-3.8,4.2c-0.9,0-1.8-0.2-2.5-0.7c-0.6-0.4-1-1-1.3-1.6c-0.2-0.6-0.4-1.1-0.4-1.7
			C30.2,13.9,30.2,13.7,30.2,13.5L30.2,13.5z M42.8,18h-1.2V8.6h1.2V13l4.2-4.4h1.6l-3.8,4.1l4,5.4h-1.5L44,13.5l-1.2,1.3L42.8,18
			L42.8,18z M52.2,14c0.1,2.1,0.8,3.1,2.7,3.1c0.6,0.1,1.2-0.1,1.7-0.5c0.3-0.3,0.4-0.7,0.4-1.2c0-0.9-0.6-1.5-2.1-1.8
			c-2.2-0.5-3.3-1.4-3.3-2.8s1.2-2.4,3.1-2.4c2.3,0,3.4,1.1,3.4,3.4c0,0.1,0,0.2,0,0.3H57v-0.1c0-0.5-0.1-1-0.2-1.4
			c-0.2-0.3-0.4-0.6-0.8-0.8c-0.3-0.1-0.6-0.2-0.9-0.2h-0.5c-1.2,0-1.8,0.5-1.8,1.3c0,0.3,0.1,0.6,0.4,0.8c0.3,0.2,0.6,0.4,0.9,0.5
			c0.3,0.1,0.7,0.2,1,0.3l0,0h0.1c0.6,0.1,1.1,0.3,1.7,0.6c0.6,0.3,1,0.7,1.2,1.3c0.1,0.3,0.2,0.7,0.2,1c0,0.6-0.1,1.2-0.4,1.7
			c-0.4,0.5-1,0.9-1.6,1c-0.5,0.1-0.9,0.2-1.4,0.1c-0.9,0.1-1.8-0.2-2.5-0.8c-0.6-0.6-0.9-1.3-1.1-2.1c0-0.3-0.1-0.7-0.1-1V14H52.2z
			 M67.3,18h-5.8V8.6h5.8v1.1h-4.6v2.9h4.6v1.1h-4.6v3.3h4.6C67.3,16.9,67.3,18,67.3,18z M71.8,18h-1.2l3-9.4h2.2l3,9.4h-1.2
			l-0.7-2.3h-4.3C72.5,15.7,71.8,18,71.8,18z M74.7,9l-1.8,5.7h3.6L74.7,9L74.7,9z M83.5,9.7h-3.1V8.6h7.4v1.1h-3.1V18h-1.2
			L83.5,9.7L83.5,9.7z"/>
		<polygon class="st1" points="0.6,25.3 0.6,49.9 180.6,49.9 180.6,25.3 0.6,25.3 		"/>
		<polygon class="st0" points="0.6,25.3 0.6,49.9 180.6,49.9 180.6,25.3 0.6,25.3 		"/>
		<path d="M11.2,42.2H10v-9.4h3.4c1.4-0.1,2.6,0.9,2.7,2.3c0,0.2,0,0.3,0,0.5c0,1.7-1,2.8-2.9,2.8h-2L11.2,42.2L11.2,42.2z
			 M11.2,33.9v3.3h1.3c0.3,0,0.6,0,0.9,0c0.2,0,0.5-0.1,0.7-0.1c0.2-0.1,0.4-0.2,0.5-0.3c0.2-0.2,0.2-0.4,0.3-0.7c0-0.2,0-0.3,0-0.5
			c0-1.2-0.6-1.7-1.9-1.7L11.2,33.9L11.2,33.9z M20.7,42.2h-1.2v-9.4h3.4c1.5-0.1,2.8,0.9,2.9,2.4c0,0.1,0,0.2,0,0.4
			c0.1,0.8-0.3,1.7-1.1,2c0.7,0.2,1.1,0.9,1.1,1.6v3.1h-1.2v-3.1c0-0.4-0.2-0.7-0.6-0.9c-0.5-0.2-0.9-0.3-1.4-0.3h-1.9L20.7,42.2
			L20.7,42.2z M20.7,33.8V37h2.1c1.4,0,1.9-0.4,1.9-1.4c0-1.3-0.5-1.7-2-1.7L20.7,33.8z M33.5,39.6c-0.1-0.9,0.4-1.8,1.3-2.2
			c-0.9-0.4-1.4-1.3-1.3-2.2c-0.1-1.4,1-2.6,2.4-2.7c0.1,0,0.2,0,0.4,0c1.4-0.1,2.6,1,2.7,2.4c0,0.1,0,0.3,0,0.4h-1.2
			c0-1.3-0.5-1.8-1.5-1.8s-1.5,0.5-1.5,1.7s0.5,1.7,1.5,1.7H40v1h-1v1.7c0,1.1,0.5,1.6,1.5,1.6v1c-1.2,0-1.9-0.4-2.2-1.3
			c-0.3,0.8-1.2,1.3-2.1,1.3c-1.4,0.1-2.7-0.9-2.8-2.3C33.4,39.9,33.4,39.8,33.5,39.6L33.5,39.6z M34.7,39.6c0,1.1,0.5,1.6,1.5,1.6
			s1.5-0.5,1.5-1.6V38h-1.6C35.3,38,34.7,38.5,34.7,39.6L34.7,39.6z M53.9,42.1h-5.7v-9.4h1.2v8.4h4.5L53.9,42.1L53.9,42.1z
			 M58.2,42.1h-1.3l3-9.4h2.3l3,9.4h-1.3l-0.7-2.3h-4.3L58.2,42.1L58.2,42.1z M61,33.1l-1.8,5.7h3.6L61,33.1z M68.7,42.2v-9.4h3.4
			c1.7,0,2.8,1,2.8,2.3c0,0.5-0.1,0.9-0.4,1.3c-0.2,0.3-0.5,0.5-0.8,0.6c-0.1,0-0.2,0.1-0.4,0.1c0.6,0.1,1.1,0.4,1.4,0.9
			c0.3,0.5,0.4,1,0.4,1.5c0,1-0.6,2-1.5,2.4c-0.5,0.2-1,0.3-1.6,0.3H68.7z M69.8,33.8v2.8h1.8c1.3,0,2-0.5,2-1.5s-0.6-1.3-1.8-1.3
			L69.8,33.8L69.8,33.8z M69.8,37.7v3.4h2c1.4,0,2.2-0.6,2.2-1.7s-0.7-1.8-2.1-1.8H69.8z M84.6,42.2h-5.8v-9.4h5.8v1.1H80v2.9h4.6
			v1.1H80v3.3h4.6L84.6,42.2L84.6,42.2z M94.1,42.2h-5.7v-9.4h1.2v8.4h4.5L94.1,42.2L94.1,42.2z M97.8,38.2c0.1,2.1,0.8,3.1,2.7,3.1
			c0.6,0.1,1.2-0.1,1.7-0.5c0.3-0.3,0.4-0.7,0.4-1.1c0-0.9-0.6-1.5-2.1-1.8c-2.2-0.5-3.3-1.4-3.3-2.8s1.2-2.4,3.1-2.4
			c2.3,0,3.4,1.1,3.4,3.4v0.3h-1.2v-0.1c0-0.5-0.1-1-0.2-1.5c-0.1-0.3-0.4-0.6-0.7-0.8c-0.3-0.1-0.6-0.2-0.9-0.2h-0.5
			c-1.2,0-1.8,0.5-1.8,1.3c0,0.3,0.1,0.6,0.4,0.8c0.3,0.2,0.6,0.4,0.9,0.5c0.3,0.1,0.7,0.2,1,0.3l0,0h0.1c0.6,0.1,1.1,0.3,1.7,0.6
			c0.5,0.3,0.9,0.7,1.1,1.3c0.1,0.3,0.2,0.7,0.2,1c0,0.6-0.1,1.2-0.4,1.7c-0.4,0.5-1,0.9-1.6,1c-0.5,0.1-0.9,0.2-1.4,0.2
			c-0.9,0-1.8-0.2-2.5-0.8c-0.6-0.6-0.9-1.3-1-2.1c-0.1-0.3-0.1-0.7-0.1-1c0-0.1,0-0.2,0-0.3L97.8,38.2z M112.9,42.2h-5.8v-9.4h5.8
			v1.1h-4.6v2.9h4.6v1.1h-4.6v3.3h4.6L112.9,42.2L112.9,42.2z M117.9,42.2h-1.2v-9.4h3.4c1.5-0.1,2.8,0.9,2.9,2.4c0,0.1,0,0.2,0,0.4
			c0.1,0.8-0.3,1.7-1.1,2c0.7,0.2,1.1,0.8,1.1,1.5v3.1h-1.2v-3c0-0.4-0.2-0.7-0.6-0.9c-0.5-0.2-0.9-0.3-1.4-0.3h-1.9L117.9,42.2
			L117.9,42.2z M117.9,33.8V37h2.1c1.4,0,1.8-0.4,1.8-1.4c0-1.3-0.5-1.7-2-1.7L117.9,33.8z M128.9,42.2l-2.9-9.4h1.2l2.8,9l2.8-9
			h1.2l-2.9,9.4H128.9z M137,42.2v-1.1h1.4v-7.3H137v-1.1h3.9v1h-1.3v7.3h1.3v1.1L137,42.2z M144.2,37.6c0-1.3,0.4-2.6,1.2-3.7
			c0.7-0.9,1.8-1.4,3-1.4c1,0,1.9,0.3,2.6,0.9c0.6,0.6,1.1,1.4,1.2,2.2c0.1,0.3,0.1,0.7,0.1,1c0,0.1,0,0.2,0,0.4h-1.2
			c0-0.1,0-0.2,0-0.3c0-0.8-0.2-1.6-0.8-2.2c-0.5-0.6-1.2-0.9-1.9-0.9c-1.8,0-3,1.4-3,3.6c0,0.8,0.1,1.6,0.5,2.3
			c0.2,0.5,0.6,0.8,1,1.1c0.3,0.2,0.7,0.3,1.1,0.4c0.1,0,0.3,0,0.4,0c0.5,0,1-0.1,1.5-0.4c0.5-0.3,0.9-0.9,1-1.4
			c0.1-0.4,0.2-0.8,0.2-1.2h1.3c0,2.6-1.5,4.2-3.8,4.2c-0.9,0-1.8-0.2-2.6-0.7c-0.6-0.4-1-1-1.2-1.7c-0.2-0.6-0.4-1.1-0.4-1.8
			C144.2,38,144.2,37.8,144.2,37.6L144.2,37.6z M161.4,42.2h-5.8v-9.4h5.8v1.1h-4.6v2.9h4.6v1.1h-4.6v3.3h4.6
			C161.4,41.1,161.4,42.2,161.4,42.2z M165.4,38.2c0.1,2.1,0.8,3.1,2.7,3.1c0.6,0.1,1.2-0.1,1.7-0.5c0.3-0.3,0.4-0.7,0.4-1.1
			c0-0.9-0.6-1.5-2.1-1.8c-2.2-0.5-3.3-1.4-3.3-2.8s1.2-2.4,3.1-2.4c2.3,0,3.4,1.1,3.4,3.4v0.3h-1.2v-0.1c0-0.5-0.1-1-0.3-1.5
			c-0.1-0.3-0.4-0.6-0.7-0.8c-0.3-0.1-0.6-0.2-0.9-0.2h-0.5c-1.2,0-1.8,0.5-1.8,1.3c0,0.3,0.1,0.6,0.4,0.8c0.3,0.2,0.6,0.4,0.9,0.5
			c0.3,0.1,0.7,0.2,1,0.3h0.1h0.1c0.6,0.1,1.1,0.3,1.7,0.6c0.5,0.3,0.9,0.7,1.1,1.3c0.1,0.3,0.2,0.7,0.2,1c0,0.6-0.1,1.2-0.4,1.7
			c-0.4,0.5-1,0.9-1.6,1c-0.5,0.1-0.9,0.2-1.4,0.2c-0.9,0-1.8-0.2-2.5-0.8c-0.6-0.6-0.9-1.3-1-2.1c-0.1-0.3-0.1-0.7-0.1-1
			c0-0.1,0-0.2,0-0.3L165.4,38.2z"/>
	</g>
</g>
</svg>
