<?xml version="1.0" encoding="utf-8"?>
<!-- Generator: Adobe Illustrator 22.1.0, SVG Export Plug-In . SVG Version: 6.00 Build 0)  -->
<svg version="1.1" id="Layer_1" xmlns="http://www.w3.org/2000/svg" xmlns:xlink="http://www.w3.org/1999/xlink" x="0px" y="0px"
	 viewBox="0 0 180 42.8" style="enable-background:new 0 0 180 42.8;" xml:space="preserve">
<style type="text/css">
	.st0{fill:#801710;}
	.st1{stroke:#FFFFFF;stroke-width:0.37;stroke-miterlimit:10;}
	.st2{fill:#FFFFFF;}
</style>
<metadata><?xpacket begin="﻿" id="W5M0MpCehiHzreSzNTczkc9d"?>
<x:xmpmeta xmlns:x="adobe:ns:meta/" x:xmptk="Adobe XMP Core 5.6-c143 79.161356, 2017/09/07-01:11:22        ">
   <rdf:RDF xmlns:rdf="http://www.w3.org/1999/02/22-rdf-syntax-ns#">
      <rdf:Description rdf:about=""
            xmlns:xmp="http://ns.adobe.com/xap/1.0/"
            xmlns:xmpGImg="http://ns.adobe.com/xap/1.0/g/img/"
            xmlns:xmpTPg="http://ns.adobe.com/xap/1.0/t/pg/"
            xmlns:stDim="http://ns.adobe.com/xap/1.0/sType/Dimensions#"
            xmlns:xmpG="http://ns.adobe.com/xap/1.0/g/"
            xmlns:dc="http://purl.org/dc/elements/1.1/">
         <xmp:CreatorTool>Adobe Illustrator CC 22.1 (Windows)</xmp:CreatorTool>
         <xmp:CreateDate>2018-08-29T17:32:52+02:00</xmp:CreateDate>
         <xmp:Thumbnails>
            <rdf:Alt>
               <rdf:li rdf:parseType="Resource">
                  <xmpGImg:width>256</xmpGImg:width>
                  <xmpGImg:height>64</xmpGImg:height>
                  <xmpGImg:format>JPEG</xmpGImg:format>
                  <xmpGImg:image>/9j/4AAQSkZJRgABAgEASABIAAD/7QAsUGhvdG9zaG9wIDMuMAA4QklNA+0AAAAAABAASAAAAAEA&#xA;AQBIAAAAAQAB/+4ADkFkb2JlAGTAAAAAAf/bAIQABgQEBAUEBgUFBgkGBQYJCwgGBggLDAoKCwoK&#xA;DBAMDAwMDAwQDA4PEA8ODBMTFBQTExwbGxscHx8fHx8fHx8fHwEHBwcNDA0YEBAYGhURFRofHx8f&#xA;Hx8fHx8fHx8fHx8fHx8fHx8fHx8fHx8fHx8fHx8fHx8fHx8fHx8fHx8fHx8f/8AAEQgAQAEAAwER&#xA;AAIRAQMRAf/EAaIAAAAHAQEBAQEAAAAAAAAAAAQFAwIGAQAHCAkKCwEAAgIDAQEBAQEAAAAAAAAA&#xA;AQACAwQFBgcICQoLEAACAQMDAgQCBgcDBAIGAnMBAgMRBAAFIRIxQVEGE2EicYEUMpGhBxWxQiPB&#xA;UtHhMxZi8CRygvElQzRTkqKyY3PCNUQnk6OzNhdUZHTD0uIIJoMJChgZhJRFRqS0VtNVKBry4/PE&#xA;1OT0ZXWFlaW1xdXl9WZ2hpamtsbW5vY3R1dnd4eXp7fH1+f3OEhYaHiImKi4yNjo+Ck5SVlpeYmZ&#xA;qbnJ2en5KjpKWmp6ipqqusra6voRAAICAQIDBQUEBQYECAMDbQEAAhEDBCESMUEFURNhIgZxgZEy&#xA;obHwFMHR4SNCFVJicvEzJDRDghaSUyWiY7LCB3PSNeJEgxdUkwgJChgZJjZFGidkdFU38qOzwygp&#xA;0+PzhJSktMTU5PRldYWVpbXF1eX1RlZmdoaWprbG1ub2R1dnd4eXp7fH1+f3OEhYaHiImKi4yNjo&#xA;+DlJWWl5iZmpucnZ6fkqOkpaanqKmqq6ytrq+v/aAAwDAQACEQMRAD8A4d5m85/mr5f816vplz5r&#xA;1ePULK7ntrmSO+uY+TJIQxHBwOLEVFNsVe8/84e/mX5o13Wdf8v+YNXu9XYW0d/ZPfTvcPGI5PSm&#xA;CvIWejetHtWgp7nFWR/85efmPrXlfyzo+k6FqM+m6lq9w8stzaSNFMLa1UclEiEOnOSVNwd+JHSu&#xA;Kvmzyh+eP5k6P5l0zUL3zRqt7YW91DJeWl1eT3EcsCuPVRkkZweSEj8eoGKv0JudQs7bT5dRllAs&#xA;oYWuJJh8QESLzLCla/CK4q/PDVPz0/Ni+1e71FPNOp2wuZGdbaG5kjhjVmJVEjUhFCg02GKvpj/n&#xA;ErX/AD95i8reYdU8watc6nC1zHbaW94xkKSRxFpirtVuJ9WPbpt88VfKF5+ZH5jz3c01z5m1b6w7&#xA;s01by4SjE7jiHAX5AbYqpyfmN+YUjmSTzRq7u27M19ckk+5L4qitH/Mn8yYNUtXtfNGqpP6qBCb2&#xA;crUsNmDM6keIKkexxV+iPmzzNpnlXyzqHmDVZCtjpkDTTHbk5GyovQcpHIVfc4q+B/zI/Pf8wfPG&#xA;o3D3OpTWGjux+raPayNHAkdTxEnDgZW33Z/ooNsVYFb399bSma3uZYZSQxkjdlYsDUGoINa4q+kv&#xA;+cVPzW/MzV/PEfle/vpta0I2009y94xlltViX4JElarkNIyR8WJG+1KYqkP/ADkZ+a/5iad+beva&#xA;RpPmS9sNMsxbwwW9lPJbooa2jkf7BB5c5Gq2KvLrb82PzQt53ni83awJZP7xmvrluVOnLk5rTFUW&#xA;v52/m6rBh5v1WoNRW6kI28QTTFXq/wDzjR+b3n7WPzXstG17X7zUrHUobpRb3LmRPVjhacMKg8aC&#xA;I9KYq9f/AOcjvz1l/LvTbfSNECv5o1SMywyOAyWtuG4+syGodmYFUB22JPShVfFWv+bvNHmK6kut&#xA;c1W61GeQ1ZriV3HyVSeKgdgBQYqu0Lzl5t0C4S40XWLzTpY6cTbzyRig/ZKg8WX/ACSKYq+8P+cd&#xA;/Onm3zj+WdrrXmdFN6080FveKoT61BCQomZFAVW9Tmh4inw1xV8Y+dfzD/MMectd5+ZNSSRb+4Vh&#xA;FeTIg9KQxqFWNlUBVUAUHTFXvf8Azh155846/qfmWy13WLzV4IYbeaA31y9w0bl3U8PVLvRh1oab&#xA;e+KvG/zo/MHzufzT81W8WvajBa2+o3FrDbR3M8USRQuYlVY1ZVC0Xw3698VYaPzC8/AUHmXVQB0H&#xA;125/5rxVNtL/ADt/NzTGVrXzbqbcPsrcXD3KjoKcZzItNulMVfQn5Pf85dRand22hefoorS5mIjg&#xA;16H4IGc7KLiLpHX+dfhr1VRvir6YcFo2CNxZgeLihoSNjvir807v8x/zHku5ZLjzNq31lnJlre3C&#xA;kPXfYOAKHsMVU3/Mb8wpHLyeZ9Wd2NWZr65JJ8SS+Kph5a/Mb8yk1/TvqnmfVVuHuYkSt5M6ks4F&#xA;GSRmRge4YEeOKvQP+cwPK/6J/NX9LRrSDX7OK5J2A9aAfV5FAH+TGjH3bFUi/wCcYfMDaN+c+h8p&#xA;OFvqXrafcAftCeJvSXr/AL/WPFU5/wCcvPMh1X825dORyYNDtILQLX4fUkBuJD0G/wC9VT8sVeI4&#xA;q+zNR/MZJf8AnD5dV9X/AEyfTE0JhXk5l5/UZOVOhaJWk37Yq+M8Vfoj/wA4++WR5d/KDy5aNGI7&#xA;i6thf3O1GL3hM45f5So6r9GKvz31J0k1G6dCGR5pGVh0ILEg4q97/wCccPyZ/LXzx5Y1PU/NN1J9&#xA;et736tFaR3KwcIhEjiQj7R5s7D/Y4q9j0r/nGn8gbbUYkQNeXqussNvJqDF/hbkKJEyEjFV3/OXx&#xA;vR+Tc/1ckQm/tPrlOhi5NSv/AD14Yq+FsVfa/lK6/wCcUfO+gW2k22naTYSFCBYXaLZ3yOQOQFwS&#xA;kkjf5SyNX6MVZz+U/wCSXlH8t31O50Sae7m1Vl/0i6ZHZIEqyRIUVdqtUn9rbwxVK/O//OM/5b+c&#xA;vM955j1Vr6LUL/0zcLbTJHETHGsQIVo3oSqCu/XFXx/+d3kTSvIv5j6l5c0mWabT7dYJIGuCrSgT&#xA;QrIVLKqA0LGm3TFV/wCRnkPR/PX5jWHl7WJZotPmjnml+rsqSN6MRcKrMGpUjfatPvxV9deQP+cZ&#xA;Py88kearfzNpdzqVzqFoJBapdzxNFGZUMbMBFDCxPB2X4mI3xV80/wDOWj3jfnXqYuDWJbazFmPC&#xA;L0FJ/wCSpfFWPfkZrn5c6N56S68/2KXuitbvHCZYjcRQ3JdCk0sIrzQIrrTi3WtMVfUGtfk7/wA4&#xA;/fmhZ/WPLVzY2d+zCQ3eiSRI9B9tZbUfCKjxQNXf5qvYfLnl/TPLug2GhaXH6Wn6dClvbodzxQU5&#xA;Mdqsx3Y9zvir83/zItxbfmJ5pthxpDq9/GOP2fguZBt7bYq9m/5wmZf+Vg64tfiOkkgewuYa/rxV&#xA;5b+dsPo/m75vTn6ldUuX5Eg/3khem38vKmKsg/5xy/LHyz+YnnHUNH1+S5S3tdPe8iFq4jcus0Ue&#xA;7MkgoBL0xVl/5xf84nX3lTR7rzF5VvpNU0qxRpr2yuVAuool3aRWQBJFRd2+FSAK74q+ecVfeH/O&#xA;Kvnu680flhDaX0hkv/L8v6OeQ9WgVA1uSe9EPD/Y4q+GdUZW1O7ZSGVppCrDcEFzuMVe+f8AOOP5&#xA;M/ln548p6lqnmm5k/SFvfm2ito7lYOMKwxurlftHm0jCv+T88Vex6P8A842fkHZ6nAIlN3fxyLNB&#xA;BJqDF6o3IUSNkJG2KpR/zmf5Z+v/AJeadrsagzaJfBXY7EQXi+m9PnKkW2KvjjSdSudL1Wz1O1NL&#xA;mxniuYCagepC4dehB6r2OKozzd5jufM3mjVfMFzGsM+q3Ut08KklU9VywQE7kKDTFUNqei6rpX1T&#xA;9I2slt9fto72zMgp6ttNX05U8VbicVTX/HOrf8q+/wAD8U/RX6U/TBk+L1DL6HocDvThT4qU64qh&#xA;/JHl2XzL5w0bQYhU6leQ27EV2R3Adtt6KlScVfpwiJGixoAqIAqqOgA2AGKvywnlM08kxUKZGZyq&#xA;9ByNaDFVPFWW/lGZB+avk70+XL9N6fXjWvH61Hy6duNa4q/Q3zl5S0jzd5Y1Dy7qyc7HUIjG7LTn&#xA;G3VJUqCA8bgMvuMVfEH5if8AOMv5l+UbiaW0sn8waOtWjv8AT0Z3CDestuOUiGm5pyUfzYq8nlik&#xA;ikaKVGjkQlXRgQwI6gg9MVetfkH+eGveRvMljpl5dvceUr2ZILyylcmO39Vgv1iGteBSvJlGzDrv&#xA;QhV974q+AP8AnKP/AMnr5mHb/Qf+6fbnFV3/ADizI6/np5bVTQSC+Vx4j6hO1PvUYq+/cVeM/wDO&#xA;QX/OP6fmRFb6tpE8Vl5msYzCrzVENzBUsI5GUMysrE8GoepB8Qq+NvN35bee/KEzR+YtEurBFbiL&#xA;l0LW7GtPgnTlE30NirHre4uLaeO4t5XhniYPFLGxR1YbhlYUIIxV9q/84r/nPq3nTTb3y55imN1r&#xA;ekRrNBfOR6lxas3A+pQbvExUFv2uQrvUlV8l/maYT+ZPmwwDjCdZ1D0lPUL9ak4jf2xV7N/zhLT/&#xA;AB9rvj+ij/1ExYq8t/PGUyfm/wCbmJJI1Odanf7DcfAeGKvT/wDnCaQD8w9bjoatpDNXanw3MI8a&#xA;/tYq+x7uC2ntZoLpVe2ljZJ0f7JjYEMG9qYq/LOVUWV1Q8kViFY0qQDsdiRir6q/5wZklMfnOMsf&#xA;SRtOZVoKcmF0Ca0r0UYq+V7mdp7iWdgA0rs7AdAWNdsVUsVZN+WH1j/lZXlQ2wLTjWLAxAd2FzHT&#xA;FX6D/mf5XPmn8vfMGgLH6k99ZSraITQfWUX1LepPhMinFX5pkEGh2IxVGaNpN5rGsWOk2S87zULi&#xA;K1tl8ZJnCIPvbFX0r/zmR5Gs9K0bydqmnQCK006E6ESB0iiQPaR1r+yqS0xV8u4q95/5w58qNqn5&#xA;mT65JHytdAtHkDkVAuLqsMQ+mP1T9GKvte5laK3llUAtGjMAxCgkCu7HYfPFX5X4q+hv+cdPzQ/J&#xA;3yv5Q1LS/OtrCNRnvmmS4lsTd+pbvDGgQsEkI4Mj/DsPi+eKvX9M/PL/AJxis9Wtzpb2NrdswSK+&#xA;h0qS3CGT4d5TBGyDfc9MVeg/mn+Y+k/l95Pu9fv6STL+606zLcWuLlgTHEDQ0GxLGmygnFXk35Q/&#xA;85a6H5gkOl+evq2g6mzH6tqCFksJQTsjmRnMLAd3bifFemKsf/5y38y/lNrHluzbTLyw1TzcLlVh&#xA;u9Olimkjt1B9RbiSJm+HpxVt69Nq4q+Vre3nubiK3gQyTzOscUairM7GiqB4knFX6mwRtHBHGzmR&#xA;kUK0h6sQKEn54q+Bf+cpUdfz08yFgQHFiyE9x9QgFR9IOKrf+cXP/J7eWf8Ao+/7p9xir7/xV89/&#xA;nl/zk/P5I82W3l3y1a2upT2ZWTXHnLFRyH+8yFCvGQLRmbemwp1xVn3k/wDPr8qvNuhi7bWrPTZC&#xA;n+m6Zqk0VvLHt8YIlZVkQfzLUfLpir4r/O2byRL+ZesP5KWNdCLp6f1egtzLwHrNBx29MvWlNvDa&#xA;mKvSP+cK7K6k/MzVbxFcWtvpEqTSAfBzluIPTRj25cGYf6uKvIfzLna4/MfzXOwAaXWL92A6AtdS&#xA;HbFXs/8AzhKD/j7XT2/RR3/6OYsVeYfnvEY/zh82qW5V1GVq/wCvRqfRWmKst/5xc/MbyV5G82at&#xA;e+abk2MN5YiC2vBDLMFIlV2QiFZHHPiD9mm2KvQvzg/5y50i+0S/0DyLDcNLextbya5MPRVI32cw&#xA;RGshZk2DNxK9aVxV8qYq+4f+cR/Jdz5c/LWbWdRUwT+YJvriLJReNpEnGFjX+b43qf2SMVfD2Kvo&#xA;T/nHf80Pyd8qeTtS07znaRvqlxfGVJHsvrfqWzxRoqFuL0CMrkqaddqknFXq+m/n9/zjPa6vbNp9&#xA;rb2lyXVY9Rj0sQCIv8NTJ6aOoAO5A6Yq95xV8C/nX+TvnDRvzI1pdL0C9udGvbh7vTp7O2mmh9Oc&#xA;+oYwyB6GNmKkHfbwIxVP/wDnGr8ovN8v5o6ZrGt6Fe6fpGkLJe/WL22lgjklVSkKxtKqhmEjB9v5&#xA;cVfTH5/eSrnzj+VmsaXZW7XWpxBLzTokpzM0DBqLUipaPmv04q+Fo/ys/M6Tl6flDW34MUfjp12a&#xA;MOqmkexGKvsH/nFH8u9T8peQbm71mylsNY1q6M0ttcKY5kt4R6cKyIwDKal2oezYq9j1GKSbT7mK&#xA;McpJInRF2FSykAb4q/Mi48qeaLadre40e9hnRuDxPbSqwblx4kFa15bfPFURD5D88zRiSHy7qcsZ&#xA;JAdLO4ZajqKhMVVofy4/MGaaOCPyzqhkmdY4wbO4UFmNAKlAMVfZ/wDzkh+TGs/mRomnS6LeLFqe&#xA;imd4LGY8YbkTiPkOf7Dr6Xwkim9DTrir4l8yeT/NPlm7Np5g0q60yepVRcxMivTqY3I4uPdSRiqF&#xA;07Q9b1ORYtN0+5vpHNES2hklYnwAQNXFX0z/AM47f840a1aa1Z+cvOtubJbFhNpeiyAGZpR9ia4H&#xA;+6xGfiVPtcutAKMq+rcVfFn/ADk7+XXn/Vfzd1HUtK8t6nqOn3MFqYLuztZrmNuECow5Qq4UhlIo&#xA;1D36EYqt/wCcZPy289ab+cGl6nrHlvUtOsrKC7ke6vbWa2jUyW7wrRpVQMSZKUFT37Yq+1cVfFP5&#xA;4/8AONXnzTPMWpeYtBhl8xaTqVzNdyCBS95C88jSMskQq0gBb7aVr3C4q8JNhfC5ktTbSi6iJEsB&#xA;RvUUqaEMtKimKso8o/lJ+Yvmy9ittH0K6dJGAa9mieG1jB35PM4CDbenU9gcVfcn5LflJp/5aeVT&#xA;pkcwu9UvHE+q3wXiJJQtFRAd/TjGy19ztWmKvi78w/y48/n8w/MaQ+XNTuRJqt4YJILO4kSVXuHK&#xA;NGyoeQcEFaYq9o/5w+8h+d9C8069qGuaNfaTYvYpbp9egltjJK0yuvBJVQvxVGqR0r74q8w/PXyH&#xA;56ufza8zXcPlzUpbW5vGktp4rWaWOSMqOLpJGrIwPsduh3qMVYKPy5/MIuEHljVi7U4r9RuamvSg&#xA;4d8VTPTvyU/NzUJ/Rg8oaqjmgrc2stsm/wDlziNfxxV7p+Uv/OH1zFeQ6v8AmHJH6cLB49At2Egc&#xA;jf8A0mZfh41/YjrX+btir6qREjRY41CIgCoiigAGwAAxV+ZF55F87Wdw1tdaBqMM6Eq0b2kwNQSv&#xA;8u+4xVFw/ld+Zk6c4PKOtSpWnJNOu2FfCojxVev5Ufmg1xDbnyjrKS3DBIhJYXMYLE0+06Ko67kn&#xA;bFX6VYqkXnPzv5a8m6JJrPmG8W0skIRTQs7ueiRoPiZvYYq8o0P/AJzD/K/UtWWwuYb7TIXfhHf3&#xA;MaeiSTQFuDsyKfFht3pir3C3uILmCO4t5FlglUPHKhBVlO4IIxVgf5m/nh5F/LtVh1m4efVJE9SH&#xA;S7VQ87KTTkalVQHehYitMVSn8t/+ckvy7886iulWzz6Zq0pIt7K+VVMtBX926F0J/wAmtcVerEgC&#xA;p6Yq8c8+f85Uflr5T1eXSF+s6ze2zmK8FgqGOJ1AqpkkZFZgdmC1odjirM/y5/Nbyb+YOnyXfl67&#xA;5y2/EXdlKOFxCWFRyQ/sncBhsaHwxVIfzP8AzwtfIev2+kS6Q9+09ol2JkmEQAeSSPjxKP8A76rW&#xA;uUZc/Aap2Wj7OOeBldb0mlh+bugXf5az+efTaO3tldZ7EsDItwrBFg5UpV2ZaGnRgckMw4eJqloZ&#xA;DN4Xf18u9h+g/wDOS9jq73yroEsP1KyuL4k3KtyFunIp/dinLxyqOpvo5eXsgwr1cyBy704/LX89&#xA;rTzx5ibRYtHksWW3e49dpxIKRsq8eIROvPxyePPxGqatX2acMOLivdL7j/nIyyh87S+VjocjSR6k&#xA;2l/WvrC0JWf0PU4en070rkfzHqqmY7KJx8fF/DfLytB+b/8AnJ/RtJ1a407R9JfVBauYpLySYQRs&#xA;6GjemAkjMvbkafd1E9UAaAZ4Ox5SiDI8Novyn/zkZZ6/bazI2hSWs2j6dNqbRi4WVZEgZFKB/TQq&#xA;T6g/Zww1F3tyYZ+yjAx9V8Uq5Jj+XH576d501i809tMbS4rKykv5ruWdXQJE8aNX4EptJWte2Sx5&#xA;xI0w1fZpwxBvis1yY55i/wCcqtFtbuSDQtHk1GJDxF5PL9XRqHqsfCRiD25cT7ZXLVDoHIxdiyIu&#xA;Uq+1k35Vfnhb+fdZudJ/RD6bcW9s12H9cToyJIkZFfTiINZR2yzFn4zVONrezjgiJcV70yr8xPP+&#xA;heQvK9x5i1oyNbQsscUEIDSyyyGiRoCVFTQnc7AHL3Wvntv+c5VF03HyaWtK0QnUOMlK/aI+rMvT&#xA;9n8cVZh5p/5ysstC8v8AlrXP8Mz3Fn5ltZriCtykZja3mMMkZ/duGps1ffpiqH8yf85d6No2meX7&#xA;+Py/JeLr1gb8RrdophK3Ets0bfu25UeBt9sVRHnn/nLLQPLL6ILfRZNUXWNLt9W5JcrF6IueVIWB&#xA;jerrw3xVC+bP+cuLby3cadb3flWZ5dQ0601MKLtVMaXkfqohrF1CkVxVKLX/AJzc0u4uoYB5TnUy&#xA;usfL66hpyIFf7nFVXVf+c1dM0/U7ywPlSeQ2k8kBkF4gDGNylaeiaVpiqc+R/wDnMLyR5g1qDStX&#xA;06fQGunEVveSyJPbBm2USuBG0dTtXiQO5AxV35if85Y6f5M856n5Yl8ty3smmukbXS3Sxh+cayVC&#xA;GJqfbp1xVK9A/wCczdM1jXdN0lfKs0LajdQ2izG8RghnkWPlT0hWnKuKo/yN/wA5g+WPMfmix0TU&#xA;NGk0WK/f0Y9QluUljWVto1cenHxVm+HlXY9dt8Vd5o/5y407QfOuoeV38tTXElhevYm6F2qhyknD&#xA;nw9I0+VcVfQOKvlb/nJm61Kf88PIGm3MZbRlls3gVh+7kllvQs4IOzUVU+/FUq8y6VpiW/8AzkGU&#xA;s4FNnPpItKRoPRDTSBvT2+CvemKvYf8AnFS91G7/ACY0o3rvJ6M1xDas5JPoRykIor2XdR7DFXi/&#xA;5eW480f85R+ZbXzXax38U36TgmtbqMMhhiPCIcGFBSNVIP04qwz87/L/AOV3lTzZbyflvrks+owz&#xA;iSawg/fwWksZ5IYrzl8TBwPg+OhrVh0xV9ifmDqWtW35Q61qFiXGrpo8ksbx15iX0allpvUdcVea&#xA;f84q+UvKuqflJb3ep6NY31217dK1xc20M0hAYUBd1ZtsVSG7hOg/85h6XY+XrWOxsbmySK9tbSJY&#xA;ojC1u7uWVFCj40U18aYqhP8AnKn/AMmFp/8A2yYf+om4zA1X1fB6bsb+6P8AW/QHlEesapHpE2jJ&#xA;O66bcTR3U1t+y0sSsqt/wLn57eAzHs1TtDjjxcXXkn35eqzXGvBQSf0FqJoN9hDUn6Bk8fX3NGq5&#xA;R/rxZP8A844appum/mIZdQuorSKSxnjSSd1jQuWRuPJiBWinJ6YgS3cbtWBlh2F7pFJd219+dDXl&#xA;pIJra68xma3lQ1V45L7kjKfAg5G7n8W8RMdPR5iH6Ed5y/LHzJoeoXevaI0esaDDM9zBqtg6XCxK&#xA;rF/3yKWKFP2qjj74Z4iDY3DXp9ZCYEZemXcdvkmflL8xZdU0fzNpmq2Fk2pXGiXiW2rwW8VvcFEQ&#xA;SNDKYVRZFIQEbVBHeuShksEHua8+l4ZQlEmuIbXYYj5Me6TSfOBtaiQ6JRuPX021KyEv0emWrlUO&#xA;R936Q5eorihf87/eyT78iLDyTfec3i82GA24tnNlFdsqwPPzUUYsQCeHLip65PAImW7R2lLIMf7v&#xA;v6PpDyto35U2PmmWTyuLCPXTaSJcQWEoalv6sZcvFGxRf3gTegOZsYwB25vPZsmeUPXfDfXvSX/n&#xA;IzyRb+cvy8GknUrTTL5b2GfS5L6RYYZbpUkQQc26NJG78ad8tcN8bzQfmZ+U+qPbahpy2DXwo0V9&#xA;a217aXSRmh4NKk0UgHPcoa7++KvT/wA0b+w88f8AON3lvzVp+lQaVJoGpyWd5Y2ahLaIXFfVaFB9&#xA;hHl9JgvblTelSq+fAb27EUI9Sf6tE4ijFW4RJzmeg7KKu5+k4qjdFsb/AMxa9pGjCRnmvJ4NPta7&#xA;8RLKEUD2BfFXqH/OWVrBafm29rboI4LfTrKKJB0VEjKqB8gMVTL8qn/NSfzR5Xt9T0K2Pld7i0S4&#xA;nl0XTAps6r8TXH1YS/Y358+XeuKsI8rWemXv55WdpqscU2mz6+Y7yKenpNE1yQwfltxp1xVT/PGw&#xA;8nWH5oa1aeT/AEf0FE0IgFs4lgEhgjMwicFqqJC3fY1HTFUL+bs13P59vJrws15Lbae9yX+0ZG0+&#xA;3L8vflir1j8o3/NC487aXF5m0O2h8v8Ao3LyXDaNpttxeOzle2YXEVtHKreusfEh6k0xV88wW89w&#xA;5jgjaVwjyFUBYhIkMjtQdlRSxPYDFUdBf3uoeYYL29ma4u7i5jeeeQ1d2LirMe5Pjir9QsVYT+af&#xA;5U6F+YWkwW17JJZalYv62l6rb0We3lHQhupWoFVr79QDirxnTP8AnD/zCdRuTrXnm4udN1BlbVoo&#xA;FlSW79OpQSs8rq3EnYsGxV9HaFoel6FpFppGlQC20+yjWG3hWp4oooNzUn5nFXlX5u/846WHnbVJ&#xA;Nd0XVJPL+vXERt7+eJWMV1CRQrMqMhOwA67jrWgoqxr8s/8AnEHSPLevQa15j1QazJZustnaRRGG&#xA;ESLuGkqzM3FqEDbFX0NLGksbxSKGjcFXU9CCKEYq+fPMH/OLWuR6hI3kfzte+XtHmZpTpIef0o5H&#xA;arel6MkQC+xX6cVZv+U/5JWvkm7m1rVNWuPMXmm5i9CbVbtmYpEDURxc2dwuwrVjiqX/AJv/AJI6&#xA;r578y22r2mpQWccFkloYpUdmLJLLJyqvb97mNmwGZt2uh7RjhgYkXvaY2n5GeW4vKf1Oe1t5fM40&#xA;2awTWKScRJJA8CSGPlQ8VfwrtkhgFebCXaM/EsE8HFdfG0g/LT/nH7UPKnmQ6nqWo22oWUltPazW&#xA;qxuOazrxIPLalOuQxacxNlu1faYyw4QCDdpF5k/5xUuX1CSXy7q8UdjIxZLW9V+UQP7IkQPzA7Eg&#xA;H55GWl32Lfi7aFesb+TIPyz/AOcc7fy3rVvrmu36aheWbepaWsCFYUlH2ZGZ/icr1UcRQ75LFp+E&#xA;2WjV9qnJExiKBYvq/wDziv5he/nk07XLWS3mZm/fpLE4DNy4kJ6oNPnkDpT0Lkw7ZhW8SyLyp/zj&#xA;cuj6Pq5u9TS51vUbGaytnVCtvb+uvFn3PNz2rttXbJw01A97j5+1uOUaFRBvzKK/K/8AIO58qaxq&#xA;Nzq99banYajp02nTWiI68lmkjZuRPbjGR9OHFg4Tux1naYyxAiCCJWxvzF/zincNevJ5d1mNbR2J&#xA;W3vkYPGPD1Iw3P8A4EZCWl7i5GLtoV647+TLPyc/JHU/Iuu3Os3+pwXUk9o9oLaBHoOcscnP1HK9&#xA;PSpTj3yzDgMDZLi6/tGOaIiBW9sh/Oj8sX/MjyYfL0eoDTZUuY7uK4aL1lLRK68GUMhAPPrXbwOZ&#xA;DqnzxD/zhL52e5jS58x6cloDxMiLPJIqVJqsbKik79OY+eKvdH/IvRbX8l738tdMnPG6iLHULgVL&#xA;3fqLMJnVewdFoB0UAe+KsG/Kf/nFI+VNZ1G+8w6lb6rBeadc6dFBDG68Pri+lK5L/wDFRZP9liqB&#xA;/LD/AJxK1Xyn580nzHqet2t9aaXK0/1aKKRXeQRsIjVjQcZCrfRiqZ/nV/zjNrv5heeZfMdnrVrY&#xA;wSW8MAgmjkZwYgQTVdt64qwmz/5wo80295BOfMliwikRyBDNUhWBxVW1n/nC/wAz3+r318nmOyRL&#xA;u4lnVDDKSBI5YA08K4qnXkT/AJwwsNN1mDUPNesrqlrbOJF0y1iMccpUggSyOxbh4qqiv82Kqn5o&#xA;/wDOKPmDzl591fzLa67aWlvqMiPHbyRSMyBIkjoSu37GKpP5a/5w28zaR5j0rVpPMVlLHp95b3Tx&#xA;LFKGZYJVkKgnueOKp1+VX/OKOs+TvPmm+YtS1mz1GxtFuUuLJYZAZFubWW34/H8NP3u9e2KpZrX/&#xA;ADhhdHzVPqGg65b2ujG5E9pZTxyNJEnIOYuSmhCmoU+FK74q/wD/2Q==</xmpGImg:image>
               </rdf:li>
            </rdf:Alt>
         </xmp:Thumbnails>
         <xmpTPg:MaxPageSize rdf:parseType="Resource">
            <stDim:w>180.000000</stDim:w>
            <stDim:h>42.849998</stDim:h>
            <stDim:unit>Pixels</stDim:unit>
         </xmpTPg:MaxPageSize>
         <xmpTPg:NPages>1</xmpTPg:NPages>
         <xmpTPg:HasVisibleTransparency>False</xmpTPg:HasVisibleTransparency>
         <xmpTPg:HasVisibleOverprint>False</xmpTPg:HasVisibleOverprint>
         <xmpTPg:PlateNames>
            <rdf:Seq>
               <rdf:li>Cyan</rdf:li>
               <rdf:li>Magenta</rdf:li>
               <rdf:li>Yellow</rdf:li>
               <rdf:li>Black</rdf:li>
            </rdf:Seq>
         </xmpTPg:PlateNames>
         <xmpTPg:SwatchGroups>
            <rdf:Seq>
               <rdf:li rdf:parseType="Resource">
                  <xmpG:groupName>Default Swatch Group</xmpG:groupName>
                  <xmpG:groupType>0</xmpG:groupType>
               </rdf:li>
            </rdf:Seq>
         </xmpTPg:SwatchGroups>
         <dc:format>image/svg+xml</dc:format>
      </rdf:Description>
   </rdf:RDF>
</x:xmpmeta>
                                                                                                    
                                                                                                    
                                                                                                    
                                                                                                    
                                                                                                    
                                                                                                    
                                                                                                    
                                                                                                    
                                                                                                    
                                                                                                    
                                                                                                    
                                                                                                    
                                                                                                    
                                                                                                    
                                                                                                    
                                                                                                    
                                                                                                    
                                                                                                    
                                                                                                    
                                                                                                    
                           
<?xpacket end="w"?>
	</metadata>
<title>T_Logo_westside</title>
<g id="Layer_2_1_">
	<g id="Layer_20">
		<path class="st0" d="M52.9,31.1H57l2.3,4.7l2.3-4.7h4.1v11.4h-4.3v-4l-1,2h-2.2l-1-2v4h-4.3V31.1z"/>
		<path class="st0" d="M69.6,42.1c-0.8-0.3-1.5-0.9-2-1.6c-0.5-0.7-0.8-1.6-0.8-2.5v-6.9h4.3v6.3c0,1,0.5,1.6,1.4,1.6
			s1.4-0.5,1.4-1.6v-6.3h4.3V38c0,0.9-0.2,1.8-0.8,2.5c-0.5,0.7-1.2,1.3-2,1.6C73.5,42.8,71.5,42.8,69.6,42.1L69.6,42.1z"/>
		<path class="st0" d="M80.9,42.4c-0.6-0.1-1.3-0.3-1.8-0.6v-3.2c0.6,0.3,1.2,0.5,1.9,0.7c0.6,0.2,1.2,0.3,1.8,0.3
			c0.3,0,0.6,0,0.8-0.1c0.2-0.1,0.3-0.2,0.3-0.4c0-0.2-0.1-0.3-0.2-0.3c-0.3-0.1-0.6-0.3-0.9-0.4L81.9,38c-0.6-0.2-1.2-0.5-1.7-0.9
			c-0.4-0.3-0.7-0.7-0.9-1.1C79,35.5,79,35,79,34.5c-0.1-1,0.4-2.1,1.3-2.7c1.1-0.7,2.4-1,3.8-0.9c0.6,0,1.3,0.1,1.9,0.2
			c0.6,0.1,1.2,0.2,1.8,0.4v3.2c-0.9-0.4-2-0.7-3-0.7c-0.9,0-1.4,0.2-1.4,0.4c0,0.1,0.1,0.2,0.3,0.3c0.3,0.1,0.7,0.2,1,0.3l0.5,0.1
			c0.7,0.2,1.4,0.5,2.1,0.9c0.4,0.3,0.8,0.7,1,1.2c0.1,0.6,0.2,1.1,0.2,1.7c0,1.1-0.4,2.1-1.3,2.7c-1.1,0.7-2.4,1.1-3.8,1
			C82.5,42.6,81.7,42.6,80.9,42.4z"/>
		<path class="st0" d="M89.2,31.1h4.3v11.4h-4.3V31.1z"/>
		<path class="st0" d="M96.1,41.1c-1.2-1.1-1.8-2.7-1.7-4.4c-0.1-1.6,0.5-3.2,1.7-4.4c1.5-1.1,3.2-1.6,5.1-1.5c0.6,0,1.3,0,1.9,0.1
			c0.6,0.1,1.2,0.3,1.7,0.5v3.7c-1-0.5-2.2-0.7-3.3-0.7c-0.7,0-1.4,0.1-2,0.5c-0.5,0.4-0.7,1.1-0.7,1.8c-0.1,0.7,0.2,1.3,0.7,1.7
			c0.6,0.4,1.3,0.6,2,0.5c1.1,0,2.3-0.3,3.3-0.7V42c-0.6,0.2-1.1,0.4-1.7,0.5c-0.6,0.1-1.3,0.2-1.9,0.2
			C99.3,42.7,97.5,42.2,96.1,41.1z"/>
		<path d="M112.5,42.4c-0.6-0.1-1.3-0.3-1.9-0.6v-3.2c0.6,0.3,1.2,0.5,1.9,0.7c0.6,0.2,1.2,0.3,1.8,0.3c0.3,0,0.6,0,0.8-0.1
			c0.2-0.1,0.3-0.2,0.3-0.4c0-0.2-0.1-0.3-0.3-0.3c-0.3-0.1-0.6-0.3-0.9-0.4l-0.9-0.3c-0.6-0.2-1.2-0.5-1.8-0.9
			c-0.4-0.3-0.7-0.7-0.9-1.1c-0.2-0.5-0.3-1.1-0.3-1.6c-0.1-1,0.4-2.1,1.2-2.7c1.1-0.7,2.4-1,3.8-0.9c0.6,0,1.3,0.1,1.9,0.2
			c0.6,0.1,1.2,0.2,1.8,0.4v3.2c-0.9-0.4-2-0.7-3-0.7c-0.9,0-1.4,0.2-1.4,0.4c0,0.1,0.1,0.2,0.3,0.3c0.3,0.1,0.7,0.2,1,0.3l0.5,0.1
			c0.7,0.2,1.4,0.5,2.1,0.9c0.4,0.3,0.8,0.7,1,1.2c0.2,0.6,0.3,1.1,0.3,1.7c0,1-0.5,2-1.3,2.6c-1.1,0.7-2.4,1.1-3.8,1
			C114.1,42.7,113.3,42.6,112.5,42.4z"/>
		<path d="M120.4,31.1h4.2l0.9,4.3l0.7-2.4v-1.9h3.5l1.3,4.4l1-4.4h4.1l-2.6,11.4h-3.7l-1.4-4.4l-1.5,4.5h-3.7L120.4,31.1z"/>
		<path d="M136.9,31.1h9.1v3.1h-4.8v1h4.1v3.2h-4.1v1h4.8v3.1h-9.1L136.9,31.1z"/>
		<path d="M146.7,31.1h5.4c3.9,0,5.9,1.9,5.9,5.8c0.1,1.6-0.4,3.1-1.5,4.3c-1.2,1-2.8,1.5-4.4,1.4h-5.4V31.1z M151.6,39.2
			c0.6,0,1.1-0.1,1.5-0.5c0.4-0.5,0.6-1.2,0.5-1.9c0-0.5,0-1-0.2-1.5c-0.1-0.3-0.4-0.5-0.6-0.7c-0.4-0.1-0.8-0.2-1.2-0.2H151v4.6
			H151.6z"/>
		<path d="M158.9,31.1h9.1v3.1h-4.8v1h4.1v3.2h-4.1v1h4.8v3.1h-9.1L158.9,31.1z"/>
		<path d="M168.7,31.1h3.6l3.2,4.4v-4.4h4.3v11.4h-3.6l-3.2-4.5v4.5h-4.3V31.1z"/>
		<path d="M17.4,17.1L17.4,17.1c0.1,0.1,0.1,0.2,0.1,0.3v0.1L17.1,18C17.1,18,17,18.1,17,18.2c0,0.1,0,0.1,0,0.2c0,0.1,0,0.1,0,0.2
			c0,0.2-0.1,0.4-0.1,0.6c-0.1,0.2-0.1,0.3-0.1,0.3s0,0.1,0,0.1V20c0,0-0.1,0.1-0.2,0.5s-0.2,0.6-0.3,0.8v0.2c0,0.2-0.1,0.5-0.2,0.6
			c-0.1,0.2-0.2,0.4-0.2,0.6V23c0,0.3-0.1,0.5-0.2,0.7c-0.1,0.2-0.2,0.5-0.2,0.7v0.2c0,0.2-0.1,0.3-0.1,0.4
			c-0.1,0.1-0.1,0.3-0.1,0.4c0,0.2-0.1,0.5-0.2,0.7c-0.1,0.2-0.2,0.4-0.3,0.6c0,0.2-0.2,0.3-0.3,0.5c-0.2,0.1-0.3,0.1-0.5,0.1
			c-0.2,0-0.5,0-0.8,0c-0.3,0-0.7,0-1,0.1c-0.1,0-0.2,0-0.4,0H11c-0.1,0-0.2,0-0.3,0c-0.2,0-0.3,0-0.5,0H9.8c-0.1,0-0.2,0-0.4,0
			c-0.1,0-0.3,0-0.4,0H8.5c-0.3,0-0.6-0.2-0.8-0.4c-0.3-0.2-0.5-0.5-0.6-0.8c0-0.2-0.1-0.4-0.2-0.5c-0.2-0.1-0.2-0.3-0.2-0.6
			c0-0.1,0-0.2,0-0.3c-0.1-0.3-0.2-0.6-0.2-0.9v-0.1c-0.1-0.1-0.1-0.1-0.2-0.2c-0.1-0.1-0.1-0.2-0.2-0.3C6,23.2,6,22.9,6,22.7
			c0-0.2-0.1-0.4-0.2-0.6c-0.1-0.3-0.2-0.7-0.2-1c0-0.3-0.2-0.7-0.4-0.9c0-0.2-0.1-0.4-0.1-0.6c0-0.2,0-0.4-0.1-0.6
			c0-0.1-0.1-0.3-0.2-0.4c-0.1-0.1-0.1-0.3-0.2-0.4c-0.1-0.3-0.2-0.6-0.2-0.9c0-0.3-0.1-0.6-0.3-0.8c0-0.1-0.1-0.2-0.1-0.3
			c0-0.1,0-0.3,0-0.5c0-0.2-0.1-0.3-0.1-0.5c0-0.1-0.1-0.2-0.2-0.3c0-0.2-0.1-0.3-0.1-0.5c0-0.2-0.1-0.3-0.1-0.5
			c-0.1-0.2-0.2-0.5-0.2-0.8c0-0.3-0.1-0.6-0.2-0.8c-0.2-0.2-0.4-0.6-0.4-0.9c0-0.1,0-0.2,0-0.3c0-0.1-0.1-0.2-0.2-0.3
			c-0.1-0.1-0.1-0.2-0.1-0.3v-0.1c0-0.2,0-0.3,0-0.5c0-0.2-0.1-0.3-0.2-0.4c0-0.3,0-0.6-0.1-0.8C2.1,8.4,2,8.2,1.9,7.9
			S1.7,7.3,1.6,7C1.5,6.7,1.4,6.4,1.4,6.1C1.4,5.9,1.3,5.8,1.2,5.6C1.1,5.5,1,5.3,1,5.1C1,5,1,4.9,1,4.8C0.9,4.7,0.8,4.6,0.8,4.5
			c0-0.1-0.1-0.3-0.1-0.4L0.6,3.6c0-0.1-0.1-0.2-0.2-0.3c0-0.1,0-0.2,0-0.3c0-0.2-0.1-0.4-0.2-0.6C0,2.3,0,2.1,0,1.9
			c0-0.1,0.1-0.3,0.1-0.4c0-0.1,0.1-0.3,0.2-0.4c0-0.2,0.1-0.3,0.3-0.3c0.2,0,0.3-0.1,0.4-0.2h1.9c0.2,0,0.3,0,0.5,0.1
			c0.2,0.1,0.5,0.1,0.7,0.1c0.4,0,0.7,0,1.1-0.1c0.4,0,0.7,0,1.1,0c0.4,0,0.8,0,1.2,0.1c0.3,0.1,0.6,0.3,0.8,0.6
			c0,0.3,0,0.6,0.1,0.8C8.4,2.5,8.5,2.8,8.6,3c0.1,0.2,0.1,0.4,0.2,0.7c0.1,0.2,0.1,0.5,0.1,0.7v0.2c0,0.2,0,0.3,0.1,0.5
			c0.1,0.1,0.1,0.3,0.1,0.5C9.1,5.6,9,5.6,9,5.7c0.1,0.1,0.1,0.2,0.2,0.3c0,0.1,0.1,0.2,0.2,0.3v0.3c0,0.3,0,0.5,0.2,0.7
			c0.1,0.1,0.2,0.3,0.2,0.5c0,0,0,0.1,0,0.1c0,0,0,0.1,0,0.1v0.1c0,0.1,0,0.1,0,0.2c0,0.1,0,0.2,0,0.3C9.8,8.8,9.8,8.9,9.8,9
			c0,0.1,0.1,0.2,0.2,0.3c0,0.1,0,0.2,0,0.3c0,0.2,0,0.4,0.1,0.6c0.1,0.2,0.2,0.4,0.1,0.6c0,0.1,0,0.2,0,0.3c0,0.2,0.1,0.3,0.2,0.4
			c0.1,0.1,0.2,0.3,0.2,0.5c0.1,0.1,0.1,0.3,0.1,0.5c0,0.2,0,0.4,0.1,0.5v0.4c0.1,0,0.1,0,0.2,0.1c0,0.1,0.1,0.1,0.1,0.2
			c0.1,0.1,0.1,0.2,0.2,0.2c0.1,0.1,0.3,0.1,0.4,0.1c0.2-0.2,0.3-0.5,0.3-0.8c0.1-0.4,0.1-0.8,0.1-1.1c0-0.2,0.1-0.4,0.2-0.6
			c0.2-0.1,0.2-0.4,0.2-0.6c0-0.1,0-0.1,0-0.2c0-0.1,0-0.1,0-0.2c0,0,0-0.1,0-0.1c0.1-0.1,0.2-0.3,0.2-0.4c0.1-0.2,0.1-0.3,0.1-0.5
			c0-0.2,0-0.3,0.1-0.5c0-0.1,0.1-0.2,0.1-0.2c0.1-0.2,0.1-0.4,0.1-0.6c0-0.2,0-0.4,0.1-0.7c0-0.2,0.1-0.4,0.1-0.6
			c0-0.1,0.1-0.3,0.3-0.4c0.1,0,0.1-0.1,0.1-0.3c0-0.1,0-0.2,0-0.3c0-0.1,0-0.2,0-0.3c0.1,0,0.1-0.1,0.1-0.2c0-0.1,0-0.1,0-0.2
			c0.2-0.2,0.3-0.4,0.3-0.7c0-0.2,0-0.5,0.1-0.7c0-0.2,0.1-0.4,0.2-0.6l0.2-0.5c0.1-0.2,0.1-0.4,0.1-0.6c0-0.2,0-0.4,0.2-0.5
			c0.1-0.2,0.2-0.3,0.4-0.5c0.1-0.1,0.2-0.3,0.3-0.5l0,0c0.2,0,0.4,0,0.6-0.1c0.2-0.1,0.4-0.1,0.6-0.1c0.6,0,1.1,0,1.6,0.1L20,0.9
			c0.1,0,0.2,0,0.3,0c0.1,0,0.2-0.1,0.3-0.1l0.2,0.1C21,1,21.1,1,21.3,1.1c0.1,0.1,0.2,0.2,0.3,0.4c0.1,0.1,0.2,0.3,0.2,0.4
			c0,0.3,0.1,0.6,0.2,0.8c0.1,0.3,0.2,0.6,0.2,0.9c0.1,0.1,0.1,0.3,0.1,0.4c0,0.2,0,0.3,0.1,0.4c0,0.1,0.1,0.2,0.1,0.4
			c0,0.1,0.1,0.3,0.1,0.4v0.1c0,0.2,0.1,0.4,0.2,0.5C22.9,6,23,6.2,22.9,6.4v0.1c0.1,0.1,0.1,0.2,0.1,0.4v0.3c0,0.2,0.1,0.3,0.2,0.4
			c0.1,0.1,0.1,0.2,0.1,0.4c0,0.1,0,0.3,0,0.4c0,0.1,0,0.3,0,0.4c0,0.1,0.1,0.2,0.2,0.3c0,0.2,0,0.4,0.1,0.5
			c0.1,0.2,0.1,0.3,0.1,0.5c0,0.1,0,0.1,0,0.2c0,0.1,0,0.1,0,0.2c0,0.1,0,0.3,0.1,0.4c0.1,0.1,0.2,0.2,0.2,0.3
			c0.1,0.2,0.1,0.4,0.1,0.5c0,0.2,0.1,0.4,0.2,0.5c0.1,0.1,0.1,0.2,0.1,0.3v0.5c0,0.1,0,0.1,0,0.1s0.1,0.1,0,0.2s0.1,0.1,0.2,0.3
			c0.1,0.1,0.1,0.2,0.2,0.3c0.1,0,0.2,0.1,0.2,0.2c0.1,0.1,0.1,0.2,0.2,0.2s0.1,0,0.2-0.1c0-0.2,0.1-0.5,0.3-0.6
			c0.2-0.2,0.3-0.4,0.3-0.6c0-0.1,0-0.3-0.1-0.4c0.2-0.2,0.3-0.5,0.4-0.8c0.1-0.3,0.1-0.7,0.1-1c0.2-0.1,0.3-0.4,0.3-0.6
			c0-0.3,0-0.5,0.1-0.8c0-0.1,0-0.1,0-0.2c0-0.3,0-0.6,0.2-0.8c0.2-0.3,0.2-0.6,0.2-0.9c0-0.2,0.1-0.4,0.2-0.7
			c0.1-0.2,0.1-0.4,0.1-0.6c0-0.1,0-0.2,0.1-0.3c0.1-0.1,0.1-0.2,0.2-0.3c0-0.1-0.1-0.3-0.1-0.4c0-0.1,0-0.3,0.1-0.4
			c0.1,0,0.2-0.1,0.2-0.3c0-0.1,0.1-0.3,0.1-0.4V3.2c0-0.1,0.1-0.2,0.1-0.3c0-0.2,0.1-0.5,0.2-0.7c0.1-0.2,0.2-0.5,0.2-0.7
			c0.2-0.3,0.5-0.5,0.8-0.6c0.4-0.1,0.7-0.2,1.1-0.2c0.3,0,0.6,0,0.9,0.1c0,0,0.1,0,0.1,0h0.2c0.1,0,0.2,0,0.3,0c0.1,0,0.2,0,0.3,0
			c0.2,0,0.3,0,0.5,0c0.2,0,0.3,0,0.5,0h0.6h0.6h0.6c0.2,0,0.4,0,0.6,0.1c0.2,0,0.4,0.1,0.5,0.3c0.1,0.1,0.2,0.3,0.2,0.5
			c0,0.2,0,0.5,0,0.7c0,0.2-0.1,0.4-0.2,0.6c-0.1,0.1-0.2,0.2-0.2,0.3c0,0.2,0,0.3,0,0.5c0,0.2,0,0.3,0,0.4c0,0.1-0.1,0.2-0.3,0.3
			l-0.1,0.4c0,0.1-0.1,0.2-0.1,0.4c0,0.1,0,0.2,0.1,0.3c-0.1,0.1-0.2,0.2-0.2,0.3c-0.1,0.1-0.1,0.3-0.2,0.5s-0.1,0.3-0.2,0.5
			c0,0.1-0.1,0.3-0.1,0.4c-0.1,0.3-0.2,0.7-0.2,1c-0.1,0.4-0.1,0.6-0.2,0.9c0,0.2-0.1,0.4-0.2,0.6c-0.1,0.2-0.2,0.4-0.1,0.7
			c0,0.1,0,0.3-0.1,0.4L34.1,11l-0.2,0.2c-0.1,0.1-0.1,0.2-0.1,0.4v0.3c0,0.1,0,0.2-0.1,0.3c-0.1,0.1-0.1,0.2-0.2,0.3
			c0,0.1,0,0.3,0,0.4c0,0.1,0,0.3-0.1,0.4c0,0.1-0.1,0.2-0.2,0.3c-0.1,0.3-0.1,0.6-0.1,0.8c0,0.3-0.1,0.5-0.3,0.7
			c-0.1,0.1-0.1,0.3-0.1,0.4V16c0,0.2,0,0.3-0.2,0.5c-0.1,0.1-0.2,0.3-0.2,0.4c0,0,0,0.1,0,0.1c0,0,0,0.1,0,0.1
			c0,0.2-0.1,0.4-0.2,0.4C32.1,17.6,32,17.8,32,18c0,0.2,0,0.4,0,0.6c0,0.3-0.2,0.7-0.3,1c-0.1,0.3-0.2,0.6-0.2,0.9
			c0,0.3-0.2,0.5-0.3,0.7c-0.2,0.2-0.2,0.5-0.2,0.8c0,0,0,0.1,0,0.1c0,0,0,0.1,0,0.1c0,0.2,0,0.4-0.2,0.6c-0.1,0.2-0.2,0.4-0.2,0.6
			c-0.1,0.2-0.1,0.4-0.1,0.6c0,0.2-0.1,0.4-0.2,0.5c-0.2,0.1-0.3,0.4-0.3,0.6c0,0,0,0.1,0,0.1c0,0,0,0.1,0,0.1c0,0.2,0,0.3-0.1,0.5
			c-0.1,0.1-0.1,0.2-0.1,0.3c0,0.1,0,0.1,0,0.2c0,0.1,0,0.1,0,0.2c-0.1,0.2-0.2,0.3-0.4,0.4c-0.2,0.1-0.3,0.2-0.3,0.4
			c0,0-0.2,0.1-0.4,0.1h-0.9h-1H26h-0.5H25c-0.2,0-0.4,0-0.6,0.1c-0.2,0.1-0.4,0.1-0.6,0.1c-0.5,0-1-0.1-1.5-0.3
			c-0.4-0.3-0.7-0.6-0.9-1v-0.3c0-0.2,0-0.3,0-0.5c0-0.1-0.1-0.3-0.1-0.5c-0.1-0.1-0.2-0.3-0.2-0.5c0-0.2-0.1-0.4-0.2-0.6
			c-0.1-0.1-0.1-0.3-0.2-0.4c-0.1-0.1-0.1-0.3-0.1-0.5c0-0.1,0-0.2,0-0.3c0-0.2,0-0.4-0.1-0.5c-0.1-0.2-0.2-0.4-0.1-0.6
			c0-0.2-0.1-0.3-0.2-0.5c-0.1-0.1-0.2-0.3-0.2-0.5c0-0.1,0-0.2,0.1-0.3c-0.2-0.2-0.3-0.5-0.4-0.8c-0.1-0.3-0.1-0.6-0.1-0.9
			c-0.2-0.3-0.3-0.6-0.3-1c-0.1-0.1-0.1-0.2-0.2-0.3c0-0.1,0-0.3,0-0.4c0-0.1,0-0.3-0.1-0.4c0-0.1-0.1-0.2-0.2-0.3
			c-0.1-0.1-0.2-0.3-0.2-0.4c0-0.2-0.2-0.3-0.4-0.3c-0.2,0-0.3,0.1-0.4,0.2c-0.1,0.2-0.1,0.3-0.2,0.5c0,0.2-0.1,0.3-0.1,0.5
			L17.4,17.1z"/>
		<path d="M41.4,0.6c0.2,0,0.4,0,0.5,0h0.5h0.8h0.7c0.6,0,1.3,0,1.9,0.1c0.1-0.1,0.2-0.1,0.3-0.1h0.4h1.7c0.5,0,1.1,0,1.7,0h1.3
			c0.4,0,0.8,0,1.2,0c0.1,0,0.2,0,0.3,0H53h0.7h0.7c0.4,0,0.7,0.1,1.1,0.2c0.4,0.1,0.7,0.4,0.8,0.8c0,0.1-0.1,0.2-0.2,0.4
			C56,2.2,56,2.3,56,2.5c0,0.1,0,0.2,0.1,0.3c0,0.1,0.1,0.2,0.1,0.3c0,0.1,0,0.3-0.1,0.4C56,3.7,56,3.8,56,4c0,0.1,0,0.3,0,0.4
			c0,0.1,0,0.3,0,0.4c0,0.2,0,0.4,0,0.6c0,0.2,0,0.4,0,0.6c0,0.2,0,0.3,0.1,0.5c-0.2,0.1-0.3,0.2-0.4,0.4c-0.2,0.2-0.4,0.2-0.6,0.2
			c-0.3,0-0.5,0-0.8,0s-0.5,0-0.7,0c-0.3,0-0.5,0-0.8,0.1c-0.3,0.1-0.6,0.1-0.9,0.1c-0.3,0-0.7,0-1-0.1c-0.3-0.1-0.7-0.1-1-0.1
			c-0.1,0-0.3,0-0.4,0H49h-0.4c-0.3,0-0.7,0.1-1,0.3c-0.4,0.2-0.5,0.6-0.5,1c0,0.1,0,0.2,0,0.4s0,0.3,0,0.4c0,0.1,0,0.3-0.1,0.4
			c0,0.1,0.1,0.2,0.1,0.3c0,0,0,0.1,0,0.1c0,0,0,0.1,0,0.1c0,0.2,0,0.4,0.2,0.6c0.1,0.1,0.3,0.2,0.4,0.3c0.1,0,0.3,0.1,0.5,0.1h0.3
			c0.1,0,0.3,0,0.4,0h0.4c0.2,0,0.5,0,0.7,0c0.2,0,0.5,0,0.7,0H51c0.1,0,0.2,0,0.3,0c0.7-0.1,1.3-0.1,2-0.1H54l0.9,0.1h0.1
			c0.1,0,0.1,0,0.1,0c0,0,0,0,0,0l0,0c0.1,0.2,0.2,0.3,0.3,0.5c0.1,0.2,0.2,0.4,0.2,0.6c0,0.1,0,0.3-0.1,0.4c0,0.2,0.1,0.4,0.1,0.6
			v1.1c0,0.1,0,0.3,0,0.4c0,0.1,0,0.2,0,0.3v0.3c0,0.3,0,0.6,0,0.9s-0.2,0.6-0.3,0.6c-0.1,0.1-0.2,0.2-0.4,0.2
			c-0.1,0-0.3,0.1-0.4,0.2h-0.1h-0.1c-0.1,0-0.2,0-0.3,0c-0.1,0-0.2,0.1-0.3,0.1c-0.3,0-0.6,0-0.9-0.1c-0.3-0.1-0.6-0.1-0.9-0.1
			c-0.2,0-0.3,0-0.5,0.1c-0.2,0-0.3,0.1-0.5,0.1c-0.2,0-0.4,0-0.7-0.1c-0.2-0.1-0.5-0.1-0.7-0.1h-0.7c-0.3,0-0.5,0-0.8,0.1
			c-0.2,0-0.4,0.1-0.6,0.2c-0.2,0.1-0.3,0.3-0.3,0.5c0,0,0,0.1,0,0.1c0,0,0,0.1,0,0.1c0,0.1,0,0.3-0.1,0.4c-0.1,0.1-0.1,0.2-0.1,0.3
			c0.1,0.1,0.1,0.2,0.2,0.2c0.1,0.1,0.1,0.2,0.1,0.3c0,0.1,0,0.2,0,0.4c0,0.1,0,0.2,0,0.4c0,0.2,0.1,0.5,0.3,0.6
			c0.2,0.2,0.4,0.3,0.7,0.3c0.2,0,0.4,0,0.6-0.1c0.3,0,0.5-0.1,0.8-0.1L50,21c0.2,0,0.4,0.1,0.6,0.1l0,0H51h0.4h0.4h0.4
			c0.2-0.1,0.4-0.1,0.7-0.1h0.8h1.4c0.1,0,0.2,0,0.4,0c0.3,0.1,0.5,0.3,0.7,0.6c0.2,0.2,0.3,0.5,0.3,0.8c0,0.1,0,0.3-0.1,0.4
			s-0.1,0.2-0.1,0.4c0,0.1,0,0.2,0.1,0.3c0.1,0.1,0.1,0.2,0.1,0.4c0,0.1,0,0.3,0,0.4c0,0.1,0,0.3,0,0.4c0,0.1,0,0.2,0,0.3
			c0,0.1,0,0.2,0,0.3c0,0.2,0,0.3-0.1,0.5c0,0.2,0,0.3,0,0.5c0,0.1,0,0.2,0,0.3c0,0.2-0.1,0.3-0.2,0.5c-0.1,0.1-0.2,0.2-0.4,0.3
			c-0.1,0.1-0.3,0.2-0.4,0.2c-0.1,0-0.2,0.1-0.3,0.1c-0.3,0-0.7,0-1.1-0.1s-0.8,0-1.2,0h-1.4c-0.1,0-0.2,0-0.2-0.1
			c-0.2,0.1-0.3,0.1-0.5,0.1H50c-0.2,0-0.4,0-0.6,0h-0.6c-0.4,0-0.9,0-1.3-0.1c-0.1,0-0.2,0.1-0.3,0.1H47c-0.1,0-0.3,0-0.4,0.1
			c-0.1,0.1-0.2,0.1-0.3,0.1c-0.1,0-0.2,0-0.3,0c-0.1,0-0.2-0.1-0.3-0.1h-0.1c-0.1,0-0.3,0-0.4,0c-0.2,0-0.5,0-0.7,0.1
			c-0.2,0.1-0.5,0.1-0.7,0.1c-0.2,0-0.3,0-0.5-0.1c0,0-0.1,0-0.1,0h-0.1c-0.1,0-0.1,0-0.2,0c-0.1,0-0.1,0-0.2,0
			c-0.1,0-0.2,0-0.3,0.1c-0.1,0-0.2,0-0.3,0c-0.2,0-0.5,0-0.7-0.1c-0.2-0.1-0.5-0.1-0.8-0.1c-0.1,0-0.3,0-0.4,0l-0.3-0.3
			c-0.1-0.1-0.2-0.2-0.3-0.3l0,0c0,0-0.1-0.1-0.1-0.4s0-0.6,0-0.9s0-0.7,0-1v-0.8c0-0.2,0-0.4,0-0.6c0-0.2,0-0.4,0-0.6
			c-0.1-0.1-0.1-0.2-0.1-0.4c0-0.2,0-0.3,0.1-0.5c0-0.2,0.1-0.3,0.1-0.5c0-0.1,0-0.3-0.1-0.4v-0.2c0-0.2,0-0.4,0-0.6s0-0.4,0-0.6
			c0-0.2,0-0.4,0.1-0.6c0-0.2,0-0.3,0-0.5s0-0.3,0-0.5c0-0.1,0-0.2,0-0.3c0-0.1,0-0.1,0-0.2c0-0.1,0-0.2,0-0.3c0-0.1,0-0.1,0-0.2V17
			c0-0.1,0-0.3,0-0.4v-0.3c-0.1-0.1-0.1-0.2-0.1-0.3v-0.3c0-0.3,0-0.5,0-0.8s0-0.5,0-0.8c0.1-0.1,0.2-0.3,0.2-0.5c0-0.1,0-0.2,0-0.4
			s0-0.2,0-0.4c0-0.1,0-0.3,0.1-0.4c-0.1-0.1-0.1-0.2-0.1-0.3c0-0.1,0-0.2,0-0.3c0-0.1,0-0.2,0-0.3c0-0.1,0-0.2-0.1-0.2
			c0-0.1,0-0.2,0-0.3c0-0.1,0-0.2,0-0.4c0-0.1,0.1-0.2,0.1-0.4c0-0.1,0-0.2,0-0.3c0-0.1,0-0.3,0-0.4c0-0.1,0-0.3,0-0.4
			c0-0.1,0-0.2,0-0.3c0-0.1,0-0.3,0-0.4s0-0.3,0-0.4c0-0.1,0-0.2,0.1-0.4c-0.1-0.1-0.1-0.3-0.1-0.4V7c0-0.1,0-0.2,0-0.2
			c0-0.1,0-0.3,0-0.4V5.4c0-0.1,0-0.3,0-0.4c0-0.2-0.1-0.4-0.1-0.7c0-0.3,0-0.5,0-0.8c0-0.2-0.1-0.4-0.1-0.5c0-0.1,0.1-0.2,0.1-0.3
			c0-0.1,0-0.2-0.1-0.3c0-0.1-0.1-0.2-0.1-0.3c0-0.4,0.2-0.8,0.5-1c0.3-0.3,0.6-0.4,1-0.5h0.3C41.2,0.6,41.3,0.6,41.4,0.6z"/>
		<path d="M69.5,0h0.1c0.2,0,0.3,0,0.5,0.1c0.2,0.1,0.3,0.1,0.5,0.1h0.2h0.3c0.2,0,0.4,0,0.7,0.1c0.3,0,0.5,0.1,0.7,0.1
			c0.2,0,0.4,0.1,0.6,0.1l0.3,0.1l0.4,0.1c0.1,0,0.3,0.1,0.4,0.1c0.1,0.1,0.3,0.2,0.4,0.2l0.5,0.1c0.2,0,0.3,0.1,0.5,0.2
			c0.2,0.1,0.3,0.2,0.4,0.3c0.3,0.1,0.5,0.3,0.7,0.6C77,2.5,77.2,2.7,77.3,3c0,0.1,0,0.1,0,0.2c0,0.1,0,0.1,0,0.2
			C77.2,3.6,77.1,3.8,77,4c-0.1,0.2-0.2,0.4-0.3,0.6c0,0.4-0.2,0.7-0.4,1C76.1,5.8,76,6.1,76,6.4c-0.1,0.4-0.3,0.7-0.6,1
			c-0.2,0.3-0.5,0.5-0.8,0.5c-0.2,0-0.4,0-0.6-0.1c-0.2,0-0.4-0.2-0.5-0.4c-0.1,0-0.2,0-0.2-0.1c0-0.1-0.1-0.1-0.2-0.1
			C73,7,72.8,6.8,72.5,6.7c-0.3-0.1-0.6-0.2-0.9-0.2c-0.2,0-0.5-0.1-0.6-0.2C70.7,6.1,70.4,6,70.1,6c-0.3,0-0.6,0.1-0.8,0.1
			c-0.3,0.1-0.6,0.2-0.9,0.3c-0.2,0.1-0.5,0.2-0.7,0.3c-0.2,0.1-0.3,0.2-0.3,0.3c0,0.1,0,0.1,0.1,0.2c-0.1,0.1-0.1,0.2-0.1,0.4v0.2
			c0,0.1,0,0.2,0,0.3c0,0.1,0,0.2,0,0.3c0,0.2,0.1,0.4,0.2,0.6c0.2,0.2,0.4,0.4,0.6,0.5c0.2,0.1,0.5,0.3,0.8,0.4
			c0.3,0.1,0.5,0.3,0.8,0.4c0.2,0.1,0.4,0.1,0.7,0.1c0.2,0,0.4,0.1,0.6,0.2c0.2,0.1,0.4,0.2,0.7,0.3c0.2,0.1,0.4,0.1,0.6,0.1
			c0.4,0.2,0.9,0.3,1.3,0.3c0.4,0,0.8,0.2,1.1,0.4c0.5,0.3,1.1,0.6,1.6,1c0.5,0.3,0.8,0.7,1,1.1l0.7,0.9c0.2,0.3,0.4,0.7,0.3,1.1
			c0,0,0,0,0,0.1s0,0,0,0.1s0,0.2,0.1,0.3c0.1,0.1,0.2,0.2,0.1,0.3v0.1c0.1,0.4,0.2,0.8,0.2,1.3c0,0.5,0,0.9,0.1,1.4
			c0,0-0.1,0.1-0.1,0.3c0,0.2-0.1,0.4-0.1,0.6c0,0.2,0,0.5,0,0.7s0,0.4,0,0.5c-0.1,0.1-0.2,0.2-0.3,0.4c0,0.1-0.1,0.3-0.1,0.5
			c0,0.1-0.1,0.3-0.1,0.4c-0.1,0.1-0.1,0.3-0.3,0.3c-0.1,0.3-0.3,0.6-0.4,0.8s-0.3,0.5-0.5,0.8c0,0.2-0.2,0.3-0.3,0.4
			c-0.2,0.1-0.3,0.2-0.4,0.3c-0.1,0-0.2,0.1-0.3,0.2c-0.1,0.1-0.1,0.2-0.2,0.2c-0.2,0.3-0.6,0.6-0.9,0.7c-0.4,0.1-0.7,0.4-1,0.7
			c-0.4,0.1-0.8,0.2-1.2,0.4c-0.4,0.2-0.9,0.3-1.4,0.3c-0.6,0.1-1.2,0.2-1.8,0.2c-0.6,0-1.3,0-1.9,0.1c-0.2,0.1-0.5,0.1-0.7,0.1
			c-0.2,0-0.5,0-0.7-0.1c-0.2,0-0.5,0-0.8,0c0,0-0.1-0.1-0.1-0.1c0,0,0-0.1-0.1-0.1h-0.1l-0.4-0.1l-0.7-0.2l-0.7-0.2
			c-0.1,0-0.3-0.1-0.4-0.1c-0.2,0-0.4-0.1-0.5-0.2L62,26.6c-0.1-0.2-0.3-0.3-0.5-0.4c-0.2,0-0.4-0.1-0.6-0.3l-0.1-0.1l-0.2-0.2
			l-0.2-0.2c-0.1,0-0.1-0.1-0.1,0c-0.3-0.1-0.6-0.3-0.8-0.6c-0.2-0.3-0.4-0.6-0.3-1c0-0.1,0-0.3,0.1-0.4c0.1-0.2,0.1-0.4,0.2-0.5
			c0-0.1,0-0.2,0.1-0.2c0.1,0,0.1-0.1,0.1-0.2c0.2-0.2,0.3-0.4,0.5-0.7c0.1-0.3,0.3-0.5,0.5-0.7l0.3-0.4c0.1-0.1,0.2-0.3,0.2-0.5
			c0-0.2,0.1-0.3,0.2-0.4c0.1-0.1,0.2-0.2,0.3-0.3l0.3-0.2c0.1-0.1,0.2-0.2,0.3-0.3c0.1,0,0.3-0.1,0.5-0.1c0.2,0,0.3,0,0.5,0.1
			c0.1,0.1,0.2,0.2,0.3,0.3c0.2,0,0.3,0.2,0.3,0.3c0,0.2,0.2,0.3,0.4,0.3c0.2,0.1,0.4,0.3,0.6,0.4l0.5,0.4c0.2,0.1,0.5,0.3,0.7,0.5
			c0.2,0.2,0.4,0.3,0.7,0.4c0.1,0.1,0.2,0.2,0.3,0.2c0.1,0,0.3,0.1,0.4,0.1l0.4,0c0.1,0,0.2,0,0.2,0c0.3,0,0.5,0,0.8-0.1
			c0.2-0.1,0.5-0.1,0.8-0.1c0.1,0,0.2,0,0.4,0c0.3-0.1,0.5-0.3,0.8-0.5c0.3-0.2,0.4-0.5,0.4-0.8c0.1-0.1,0.2-0.2,0.3-0.3
			c0.1-0.1,0.2-0.3,0.2-0.5v0c0,0,0-0.1,0-0.1c0,0,0-0.1,0-0.1c0,0,0-0.1,0-0.1l0,0c-0.1-0.1-0.2-0.2-0.2-0.3c0-0.1,0-0.3,0-0.4
			c-0.1-0.4-0.4-0.8-0.8-1L69.5,17h-0.1c-0.3,0-0.5-0.1-0.7-0.2c-0.2-0.1-0.5-0.2-0.7-0.3c-0.2,0-0.4-0.1-0.6-0.2
			c-0.1-0.1-0.2-0.1-0.4-0.2c-0.6-0.1-1.2-0.3-1.8-0.6c-0.6-0.3-1.1-0.6-1.6-0.9c-0.2-0.1-0.3-0.1-0.5-0.2c-0.2-0.1-0.4-0.2-0.5-0.3
			c-0.2-0.1-0.3-0.2-0.4-0.3c-0.1-0.1-0.2-0.2-0.2-0.2l-0.7-0.7c-0.3-0.3-0.4-0.6-0.4-0.9c-0.1-0.1-0.3-0.2-0.3-0.4
			c-0.1-0.2-0.1-0.4-0.1-0.5c0-0.1,0-0.1,0-0.2c0-0.1,0-0.2,0-0.3c0-0.3-0.1-0.6-0.1-0.8C60.1,9.4,60,9,60,8.7c0-0.1,0-0.2,0-0.3
			c0-0.1,0-0.2,0-0.3L60,8c0-0.2,0-0.4,0.1-0.6c0.1-0.3,0.1-0.6,0.2-0.8s0.2-0.6,0.2-0.8c0-0.1,0.1-0.3,0.1-0.4
			c0.1-0.3,0.2-0.6,0.4-0.8c0.2-0.2,0.3-0.5,0.4-0.7c0.2-0.2,0.4-0.4,0.6-0.7c0.1-0.3,0.3-0.5,0.6-0.6c0.1-0.1,0.2-0.2,0.3-0.3
			C63,2.1,63,2,63.1,1.9l0.4-0.2c0.1-0.1,0.3-0.1,0.4-0.2c0.1-0.1,0.2-0.2,0.3-0.3L64.7,1l0.5-0.1c0.2,0,0.3-0.1,0.4-0.2
			c0.2-0.1,0.5-0.2,0.8-0.3c0.3-0.1,0.5-0.2,0.8-0.2h0.2c0.1,0,0.1,0,0.2,0c0.3,0,0.6,0,0.8-0.1C68.6,0,68.9,0,69.3,0L69.5,0z"/>
		<path d="M87.5,0.8c0.3,0,0.6,0.1,0.9,0.1c0.3,0,0.6,0.1,0.9,0.1h0.6c0.2,0,0.4,0,0.6,0h0.3L91.1,1c0.1,0,0.3-0.1,0.4-0.1h0.3
			c0.2,0,0.3,0,0.5,0c0.2,0,0.3,0,0.5,0c0.2,0,0.4,0,0.5,0c0.2,0,0.3,0.1,0.5,0.1c0.2,0,0.3,0,0.5,0h0.5c0.1,0,0.2,0,0.4,0
			c0.1,0,0.2,0.1,0.4,0c0.3,0,0.7,0,1-0.1c0.3,0,0.7-0.1,1-0.1h0.3C97.8,1,98,1.1,98.1,1.1h0.5c0.2,0,0.3,0,0.4,0.1
			c0.1,0.1,0.2,0.2,0.3,0.3c0.1,0.1,0.1,0.3,0.1,0.4c0,0.1,0,0.3,0.1,0.4c0,0.1,0,0.2,0,0.3c0,0.1,0,0.2,0,0.3c0,0.1,0,0.2,0,0.3
			c0,0.2,0,0.3,0.1,0.4c0.1,0.2,0.1,0.4,0.1,0.6c0,0.2,0,0.4,0,0.6c0,0.2,0,0.4,0,0.7c0,0.1,0,0.3,0,0.4c0,0.2,0.1,0.3,0.2,0.4
			c-0.1,0.1-0.2,0.3-0.3,0.4l-0.2,0.4l-0.5,0.3c-0.2,0.1-0.5,0.2-0.7,0.1c-0.2,0-0.4,0-0.6-0.1l-0.5,0c-0.2,0-0.3,0-0.5,0
			c-0.2,0-0.4,0-0.6-0.1c-0.2-0.1-0.3-0.1-0.5-0.1c-0.4,0-0.9,0.1-1.2,0.4c-0.3,0.4-0.4,0.8-0.4,1.3c0,0.1,0,0.2,0.1,0.3
			C93.9,9.4,94,9.5,94,9.7c0,0.1,0,0.2-0.1,0.3c0,0.1-0.1,0.2-0.1,0.3c0,0.1,0,0.3,0.1,0.4c0.1,0.1,0.1,0.2,0.1,0.4
			c0,0.2,0,0.3-0.1,0.5c0,0.2,0,0.3,0,0.5c0,0.2,0,0.3,0.1,0.4c0.1,0.2,0.1,0.3,0.1,0.5c0,0.1,0,0.3,0,0.4c0,0.1,0,0.3,0,0.4
			c0,0.2,0,0.4,0,0.6s0,0.4,0,0.6c0,0.1,0,0.2,0,0.3c0,0.1,0,0.2,0,0.2c0,0.1,0,0.1,0,0.2c0,0.1,0,0.2,0,0.3c0,0.1,0,0.2,0,0.3
			s0,0.2,0,0.3c0,0.1,0,0.3,0,0.4c0,0.1,0,0.2,0,0.4c0,0.1,0,0.2,0,0.3c0,0.2,0,0.4,0,0.6c0,0.2,0,0.4,0,0.6c0,0-0.1,0.1-0.1,0.3
			c0,0.1,0,0.3,0,0.4c0,0.1,0,0.3,0,0.4c0,0.1,0,0.3-0.1,0.4c0,0.2,0.1,0.4,0.1,0.5c0,0.2,0,0.3,0,0.5c0,0.2,0,0.3,0,0.5
			c0,0.2,0,0.5,0,0.7s0,0.4,0,0.7c0,0.1,0,0.3-0.1,0.4s-0.1,0.3-0.1,0.4c0,0.2,0,0.3,0,0.5c0,0.2,0,0.3,0,0.5c0,0.2,0,0.3,0,0.5
			c0,0.2,0,0.3,0,0.5c0,0.1,0,0.2,0,0.4c0,0.1,0,0.2-0.1,0.2c0,0,0,0,0,0c-0.1,0.1-0.3,0.3-0.4,0.4c-0.1,0.2-0.3,0.2-0.5,0.2
			c-0.1,0-0.2,0-0.3-0.1c-0.2,0-0.5,0-0.7,0.1h-0.7c-0.7,0-1.4,0-2.1-0.1s-1.4,0-2.1,0c-0.2-0.1-0.4-0.3-0.5-0.5
			c-0.2-0.2-0.3-0.4-0.4-0.6c0-0.3,0.1-0.5,0.1-0.8c0-0.3,0-0.6,0-0.8c0-1.2,0-2.3-0.1-3.4s-0.1-2.1-0.1-3.3c0-0.2,0-0.5,0-0.7
			c0-0.2,0-0.5,0-0.7c0-0.1,0-0.3,0-0.5c0-0.2,0-0.3,0-0.5c0-0.2,0-0.4,0-0.6c0-0.2,0-0.4,0-0.6c0-0.1,0-0.3,0-0.4
			c0-0.1,0-0.1,0.1-0.2c0-0.1,0-0.1,0-0.2c0-0.1,0-0.2-0.1-0.3c0-0.1,0-0.2,0-0.3c0-0.1,0-0.3,0-0.4c0-0.1,0-0.3,0-0.4
			c0-0.1,0-0.3-0.1-0.4c0.1,0,0.2-0.1,0.2-0.4c0-0.3,0-0.5,0-0.8c0-0.2,0-0.3,0-0.5s0-0.3,0-0.4c0-0.1,0.1-0.2,0.1-0.2
			c0-0.1,0-0.2,0-0.3c0-0.2,0-0.4,0-0.6c0-0.2-0.1-0.4-0.2-0.6c-0.1-0.2-0.2-0.3-0.3-0.4c-0.1-0.1-0.3-0.2-0.5-0.2c-0.3,0-0.6,0-1,0
			H83h-0.8c-0.3,0-0.6,0-0.8,0c-0.2,0-0.5,0-0.7-0.1c-0.2,0-0.3-0.1-0.3-0.3c-0.1-0.4-0.2-0.7-0.2-1.1c0-0.4,0-0.8,0-1.2
			c0-0.3,0-0.6,0.1-0.8c-0.1-0.1-0.1-0.3-0.1-0.4c0-0.1,0-0.3,0-0.4s0-0.3,0-0.4c0-0.1,0-0.2-0.1-0.3c0-0.1,0-0.2,0-0.3
			c0-0.1,0.1-0.3,0.2-0.3c0.1-0.1,0.1-0.3,0.1-0.5V1.4C80.6,1.2,80.8,1,81,1c0.2-0.1,0.5-0.1,0.7-0.1h0.8c0.2,0,0.4,0,0.5,0h0.1
			c0,0,0,0,0.1,0c0.2,0,0.3,0,0.4-0.1s0.3-0.1,0.4-0.1c0.1,0,0.3,0,0.4,0c0.1,0,0.3,0,0.4,0c0.3,0,0.6,0,0.9-0.1
			c0.3,0,0.6-0.1,0.8-0.1C87,0.6,87.2,0.7,87.5,0.8z"/>
		<path d="M112.4,0h0.2c0.2,0,0.3,0,0.5,0.1c0.2,0.1,0.3,0.1,0.5,0.1h0.2h0.3c0.2,0,0.4,0,0.7,0.1c0.3,0,0.5,0.1,0.7,0.1
			c0.2,0,0.4,0.1,0.6,0.1l0.3,0.1l0.4,0.1c0.1,0,0.3,0.1,0.4,0.1c0.1,0.1,0.3,0.2,0.4,0.2l0.5,0.1c0.2,0,0.3,0.1,0.5,0.2
			c0.2,0.1,0.3,0.2,0.4,0.3c0.3,0.1,0.5,0.3,0.7,0.6c0.2,0.2,0.4,0.5,0.5,0.8c0,0.1,0,0.1,0,0.2c0,0.1,0,0.1,0,0.2
			c-0.1,0.2-0.1,0.4-0.3,0.6c-0.1,0.2-0.2,0.4-0.3,0.6c0,0.4-0.2,0.7-0.4,1c-0.2,0.2-0.3,0.5-0.3,0.8c-0.1,0.4-0.3,0.7-0.6,1
			c-0.2,0.3-0.5,0.5-0.8,0.5c-0.2,0-0.4,0-0.6-0.1c-0.2,0-0.4-0.2-0.5-0.4c-0.1,0-0.2,0-0.2-0.1c0-0.1-0.1-0.1-0.2-0.1
			c-0.2-0.2-0.5-0.4-0.8-0.5c-0.3-0.1-0.6-0.2-0.9-0.2c-0.2,0-0.5-0.1-0.6-0.2C113.6,6.1,113.3,6,113,6c-0.3,0-0.6,0.1-0.8,0.1
			c-0.3,0.1-0.6,0.2-0.9,0.3c-0.2,0.1-0.5,0.2-0.7,0.3c-0.2,0.1-0.3,0.2-0.3,0.3c0,0.1,0,0.1,0.1,0.2c-0.1,0.1-0.1,0.2-0.1,0.4v0.2
			c0,0.1,0,0.2,0,0.3c0,0.1,0,0.2,0,0.3c0,0.2,0.1,0.4,0.2,0.6c0.2,0.2,0.4,0.4,0.6,0.5c0.2,0.1,0.5,0.3,0.8,0.4
			c0.3,0.1,0.5,0.3,0.8,0.4c0.2,0.1,0.4,0.1,0.7,0.1c0.2,0,0.4,0.1,0.6,0.2c0.2,0.1,0.4,0.2,0.7,0.3c0.2,0.1,0.4,0.1,0.6,0.1
			c0.4,0.2,0.9,0.3,1.3,0.3c0.4,0,0.8,0.2,1.1,0.4c0.5,0.3,1.1,0.6,1.6,1c0.5,0.3,0.8,0.7,1,1.1l0.7,0.9c0.2,0.3,0.4,0.7,0.3,1.1
			c0,0,0,0,0,0.1s0,0,0,0.1s0,0.2,0.1,0.3c0.1,0.1,0.2,0.2,0.1,0.3v0.1c0.1,0.4,0.2,0.8,0.2,1.3c0,0.5,0,0.9,0.1,1.4
			c0,0-0.1,0.1-0.1,0.3c0,0.2-0.1,0.4-0.1,0.6c0,0.2,0,0.5,0,0.7s0,0.4,0,0.5c-0.1,0.1-0.2,0.2-0.3,0.4c-0.1,0.1-0.2,0.3-0.3,0.4
			c0,0.1-0.1,0.3-0.1,0.4c-0.1,0.1-0.1,0.2-0.3,0.3c-0.2,0.3-0.3,0.6-0.4,0.8s-0.3,0.5-0.5,0.8c0,0.2-0.2,0.3-0.3,0.4
			c-0.2,0.1-0.3,0.2-0.4,0.3c-0.1,0-0.2,0.1-0.3,0.2c-0.1,0.1-0.1,0.2-0.2,0.2c-0.2,0.3-0.6,0.6-0.9,0.7c-0.4,0.1-0.7,0.4-1,0.7
			c-0.4,0.1-0.8,0.2-1.2,0.4c-0.4,0.2-0.9,0.3-1.4,0.3c-0.6,0.1-1.2,0.2-1.8,0.2c-0.6,0-1.3,0-1.9,0.1c-0.2,0.1-0.5,0.1-0.7,0.1
			c-0.2,0-0.5,0-0.7-0.1c-0.2,0-0.5,0-0.8,0c0,0-0.1-0.1-0.1-0.1c0,0,0-0.1-0.1-0.1h-0.1l-0.4-0.1l-0.7-0.2l-0.7-0.2
			c-0.1,0-0.3-0.1-0.4-0.1c-0.2,0-0.4-0.1-0.5-0.2l-0.5-0.3c-0.1-0.2-0.3-0.3-0.5-0.4c-0.2,0-0.5-0.1-0.6-0.3l-0.1-0.1l-0.2-0.2
			l-0.2-0.2c-0.1,0-0.1-0.1-0.1,0c-0.3-0.1-0.6-0.3-0.8-0.6c-0.2-0.3-0.4-0.6-0.3-1c0-0.1,0-0.3,0.1-0.4l0.2-0.5
			c0-0.1,0-0.2,0.1-0.2c0.1,0,0.1-0.1,0.1-0.2c0.2-0.2,0.3-0.4,0.5-0.7c0.1-0.3,0.3-0.5,0.5-0.7l0.3-0.4c0.1-0.1,0.2-0.3,0.2-0.5
			c0-0.2,0.1-0.3,0.2-0.4c0.1-0.1,0.2-0.2,0.3-0.3l0.3-0.2c0.1-0.1,0.2-0.2,0.3-0.3c0.2,0,0.3-0.1,0.5-0.1c0.2,0,0.3,0,0.5,0.1
			c0.1,0.1,0.2,0.2,0.3,0.3c0.2,0,0.3,0.2,0.3,0.3c0,0.2,0.2,0.3,0.4,0.3c0.2,0.1,0.4,0.3,0.6,0.4l0.5,0.4c0.2,0.1,0.5,0.3,0.7,0.5
			c0.2,0.2,0.4,0.3,0.7,0.4c0.1,0.1,0.2,0.2,0.3,0.2c0.1,0,0.3,0.1,0.4,0.1l0.4,0c0.1,0,0.2,0.1,0.3,0.2c0.3,0,0.5,0,0.8-0.1
			c0.2-0.1,0.5-0.1,0.8-0.1c0.1,0,0.2,0,0.3,0c0.3-0.1,0.5-0.3,0.8-0.5c0.3-0.2,0.4-0.5,0.4-0.8c0.1-0.1,0.2-0.2,0.3-0.3
			c0.1-0.1,0.2-0.3,0.2-0.5v-0.1c0,0,0-0.1,0-0.1c0,0,0-0.1,0-0.1c0,0,0-0.1,0-0.1l0,0c-0.1-0.1-0.2-0.2-0.2-0.3c0-0.1,0-0.3,0-0.4
			c-0.1-0.4-0.4-0.8-0.8-1l-1.2-0.7h-0.1c-0.3,0-0.5-0.1-0.7-0.2c-0.2-0.1-0.5-0.2-0.7-0.3c-0.2,0-0.4-0.1-0.6-0.2
			c-0.1-0.1-0.2-0.1-0.4-0.2c-0.6-0.1-1.2-0.3-1.8-0.6c-0.6-0.3-1.1-0.6-1.6-0.9c-0.2-0.1-0.3-0.1-0.4-0.2c-0.2-0.1-0.4-0.2-0.5-0.3
			c-0.2-0.1-0.3-0.2-0.4-0.3c-0.1-0.1-0.2-0.2-0.2-0.2l-0.7-0.7c-0.3-0.3-0.4-0.6-0.4-0.9c-0.1-0.1-0.3-0.2-0.3-0.4
			c-0.1-0.2-0.1-0.4-0.1-0.5c0-0.1,0-0.1,0-0.2c0-0.1,0-0.2,0-0.3c0-0.3-0.1-0.6-0.1-0.8c-0.1-0.3-0.1-0.7-0.1-1c0-0.1,0-0.2,0-0.3
			c0-0.1,0-0.2,0-0.3c0,0,0-0.1,0-0.1c0-0.2,0-0.4,0.1-0.6c0.1-0.3,0.1-0.6,0.2-0.8s0.2-0.6,0.2-0.8c0-0.1,0.1-0.3,0.1-0.4
			c0.1-0.3,0.2-0.5,0.4-0.8c0.2-0.2,0.3-0.5,0.4-0.7c0.2-0.2,0.4-0.4,0.6-0.7c0.1-0.3,0.4-0.5,0.6-0.6c0.1-0.1,0.2-0.2,0.3-0.3
			c0.1-0.1,0.2-0.2,0.2-0.3l0.4-0.2c0.1-0.1,0.3-0.1,0.4-0.2c0.1-0.1,0.2-0.2,0.3-0.3l0.4-0.2l0.4-0.2c0.2,0,0.3-0.1,0.4-0.2
			c0.2-0.1,0.5-0.2,0.8-0.3c0.3-0.1,0.5-0.2,0.8-0.2h0.2c0.1,0,0.1,0,0.2,0c0.3,0,0.6,0,0.8-0.1c0.3-0.1,0.6-0.1,0.9-0.1L112.4,0z"
			/>
		<path d="M129.1,0.6c0.2,0,0.3,0.1,0.5,0.1c0.2,0,0.4,0,0.6,0h0.5c0.2,0,0.4,0,0.5,0.1h0.1c0.3,0,0.6,0.1,0.8,0.3
			c0.2,0.2,0.3,0.5,0.3,0.8c0,0.2,0,0.3,0,0.5c0,0.1,0,0.3,0,0.4c0.1,0.1,0.1,0.3,0.1,0.4c0,0.2,0,0.3,0,0.5c0,0.2,0,0.4-0.1,0.6
			v0.1c0,0.1,0,0.2,0,0.3c0,0.1,0,0.2,0,0.3c0,0.1,0.1,0.3,0.1,0.4c0.1,0.2,0.2,0.3,0.1,0.5c0,0.2,0,0.5-0.1,0.7c0,0.3,0,0.5,0,0.8
			c0,0.4,0,0.8,0.1,1.1c0,0-0.1,0.1-0.1,0.2s0,0.2,0,0.3c0,0.1,0,0.3,0.1,0.4c0.1,0.1,0.1,0.2,0.1,0.4c0,0.1,0,0.2-0.1,0.2
			c0,0.1-0.1,0.1-0.1,0.2c0,0.1,0,0.2,0.1,0.3c0,0.1,0.1,0.2,0.1,0.3c0,0.1,0,0.3-0.1,0.4c-0.1,0.1-0.1,0.2-0.1,0.3
			c0,0.1,0,0.3,0,0.4c0,0.1,0,0.3,0,0.4c0,0.1,0,0.2,0,0.4c0,0.1,0.1,0.3,0.1,0.4c0,0.1,0,0.2-0.1,0.4c0,0.1-0.1,0.2-0.1,0.3
			c0,0.1,0,0.3,0.1,0.4c0,0.1,0,0.3,0.1,0.4c0,0.1,0,0.2-0.1,0.3c0,0.3,0,0.6,0.1,0.9s0,0.6,0,0.8c0,0.1,0,0.3-0.1,0.4
			c0,0.1,0,0.3,0,0.4c0,0.1,0,0.1,0,0.2c0,0.1,0.1,0.2,0.1,0.3c0,0.1,0,0.3-0.1,0.4c0,0.1,0,0.3,0,0.4c0,0.1,0,0.2,0,0.3
			c0,0.1,0.1,0.2,0.1,0.3c0,0.2,0,0.4-0.1,0.6c0,0.2,0,0.5,0,0.7c0,0.2,0,0.5,0,0.7c0,0.2,0,0.5,0,0.8c0,0.3,0,0.5-0.1,0.8
			c0.1,0,0.1,0.2,0.1,0.5s0,0.5,0,0.6c0,0.2,0,0.3,0,0.5c0,0.1,0,0.3,0,0.4c0,0.2,0,0.3,0,0.5c0,0.2,0,0.3,0,0.5
			c0,0.2,0,0.4-0.1,0.6c0,0.1-0.1,0.3-0.2,0.4c-0.1,0.1-0.2,0.2-0.3,0.3c-0.1,0.1-0.2,0.2-0.3,0.3h-0.1c0,0-0.1,0-0.1,0.1
			c-0.1,0-0.1,0.1-0.2,0c-0.3,0-0.7,0-1,0c-0.3,0-0.7,0-1,0c0,0-0.1,0-0.1,0s-0.1,0-0.1,0c-0.4,0-0.8,0-1.3,0.1
			c-0.4,0.1-0.9,0.1-1.3,0.1h-0.7c-0.2,0-0.4,0-0.7-0.1c-0.2,0-0.3-0.1-0.4-0.3c-0.1-0.2-0.2-0.3-0.3-0.4v-0.1c0,0,0-0.1,0-0.1
			c0,0,0,0,0-0.1c0,0,0-0.1,0-0.1c0-0.1,0-0.1,0-0.2c0-0.2,0-0.3-0.1-0.5c0-0.2-0.1-0.3-0.1-0.5c0-0.1,0-0.2,0-0.3
			c0-0.1,0-0.2,0-0.3c0-0.1,0-0.2,0-0.3c0-0.1,0-0.2,0-0.3c0-0.1,0-0.3,0.1-0.4c-0.1-0.3-0.1-0.5-0.1-0.8v-0.3c0-0.1,0-0.2,0-0.3
			c0-0.1,0-0.2-0.1-0.3c0-0.1,0-0.2,0-0.3c0-0.1,0-0.2,0-0.4c0.1-0.5,0.1-1,0.1-1.5c0-0.5,0-1,0.1-1.4c0-0.1,0-0.2,0-0.3v-0.4
			c0-0.2,0-0.3,0-0.5s0-0.3,0-0.5c0-0.2,0-0.3-0.1-0.5c0-0.2,0-0.3,0-0.5c0-0.2,0-0.3,0-0.5c0-0.1,0.1-0.3,0.1-0.4
			c0-0.1,0-0.2,0-0.3V14c0-0.1,0-0.2,0-0.3c0-0.1,0-0.2,0-0.3c0-0.1,0-0.3,0-0.4c0-0.1,0-0.3,0-0.4c0-0.1,0-0.2-0.1-0.4
			c0-0.1-0.1-0.2-0.1-0.4c0-0.2,0-0.3,0.1-0.5s0.1-0.3,0.1-0.5v-0.1v-0.1c0-0.1,0-0.2,0-0.3v-0.3c0-0.2,0-0.3,0-0.5
			c0-0.1,0-0.3,0-0.4c0-0.3-0.1-0.7-0.1-1.1s0-0.7,0-0.9c0-0.1,0-0.2,0-0.3c0-0.1,0-0.2,0-0.3c0-0.1,0-0.2-0.1-0.3
			c-0.1-0.1-0.1-0.2-0.1-0.3c0-0.1,0-0.3,0-0.4c0-0.1,0.1-0.3,0.1-0.4c0-0.1,0-0.2,0-0.3c0-0.1,0-0.2,0-0.4c0-0.1,0-0.3,0-0.4
			c0-0.1,0-0.2-0.1-0.3l-0.1-0.1c0,0,0,0,0-0.1l0,0l0,0c0,0,0-0.1,0-0.1c0,0,0-0.1,0-0.1c0-0.1,0-0.3-0.1-0.4c0-0.1,0-0.2,0-0.4
			c0-0.1,0-0.2,0-0.3c0-0.2,0.1-0.3,0.1-0.5c0-0.1,0-0.2,0-0.2c0-0.1,0-0.2,0-0.3c0.3,0,0.6-0.2,0.8-0.4c0.2-0.2,0.4-0.4,0.6-0.5
			c0.3,0.2,0.7,0.3,1,0.2c0.3,0,0.6,0,0.8-0.1c0.3,0,0.6-0.1,0.9-0.1C128.5,0.5,128.8,0.6,129.1,0.6z"/>
		<path d="M137.5,0.6c0.2,0,0.4,0,0.6,0h0.6c0.3,0,0.6,0,0.9-0.1c0.3-0.1,0.6-0.1,0.8-0.1c0.2,0,0.3,0,0.5,0.1c0.2,0,0.3,0,0.5,0
			c0.1,0,0.2,0,0.3,0l0.3,0.1h0.7c0.1,0,0.3,0,0.4,0c0.2,0,0.5,0,0.7,0c0.2,0,0.5,0,0.7,0h0.9h0.9c0.5,0,1.1,0.1,1.6,0.2
			c0.5,0.1,1,0.1,1.4,0.1c0.4,0,0.7,0.1,1.1,0.2s0.7,0.2,1.1,0.2c0.4,0.1,0.7,0.3,1,0.5c0.3,0.2,0.6,0.4,0.9,0.5
			c0.1,0,0.3,0.1,0.4,0.1l0.3,0.2c0.1,0.1,0.3,0.2,0.5,0.2c0.2,0,0.3,0.1,0.4,0.3c0.2,0.2,0.5,0.4,0.7,0.5c0.2,0.2,0.4,0.4,0.6,0.6
			c0.2,0.1,0.4,0.3,0.6,0.5c0.2,0.2,0.4,0.4,0.5,0.6L158,6c0.2,0.2,0.4,0.5,0.4,0.8c0.2,0.3,0.4,0.6,0.6,1.1
			c0.2,0.3,0.3,0.6,0.3,0.9V9c0,0.2,0.1,0.3,0.2,0.4c0.1,0.1,0.2,0.2,0.2,0.3c0,0,0,0.1,0,0.1c0,0.2,0.1,0.4,0.1,0.6
			c0.1,0.2,0.1,0.5,0.1,0.7c0,0.1,0,0.1,0,0.2c0,0.1,0,0.2,0.1,0.2c0,0.1,0.1,0.1,0.1,0.2c0,0.1,0,0.3,0,0.4c0,0.1,0,0.2-0.1,0.4
			c0,0.1,0.1,0.2,0.1,0.3c0.1,0.1,0.1,0.1,0.1,0.2c0,0.4,0,0.8-0.1,1.2s0,0.7,0,1c0,0.1,0,0.3,0,0.4c0,0.1,0,0.3,0,0.4
			c0,0.1,0,0.2-0.1,0.3s-0.1,0.2-0.1,0.3c0,0.1,0,0.1,0,0.2c0,0.1,0,0.1,0,0.2c0,0,0,0.1,0,0.1c0,0,0,0.1,0,0.1v0.1
			c0,0.1,0,0.1-0.1,0.1c-0.1,0.1-0.1,0.2-0.1,0.3c0,0.1,0,0.2,0,0.3c0,0.1,0,0.1,0,0.2c-0.1,0.4-0.3,0.8-0.5,1.2
			c-0.2,0.4-0.4,0.8-0.4,1.2c0,0.1,0,0.2-0.1,0.3c-0.1,0.1-0.1,0.1-0.2,0.2c-0.1,0.1-0.2,0.1-0.2,0.2c-0.1,0.1-0.1,0.2-0.1,0.3
			c-0.1,0.3-0.3,0.5-0.5,0.7c-0.2,0.2-0.4,0.4-0.6,0.7c-0.1,0.2-0.2,0.3-0.3,0.5c-0.1,0.1-0.3,0.3-0.4,0.4l-0.4,0.3
			c-0.2,0.1-0.3,0.2-0.4,0.4c-0.2,0-0.3,0.1-0.4,0.2c-0.1,0.1-0.2,0.2-0.4,0.3c-0.1,0-0.3,0.1-0.3,0.2c-0.1,0.1-0.2,0.2-0.3,0.2
			c-0.1,0.2-0.3,0.3-0.5,0.3c-0.2,0-0.3,0.1-0.5,0.3c-0.2,0.1-0.5,0.2-0.7,0.2c-0.3,0-0.5,0.1-0.7,0.3c-0.2,0.2-0.5,0.2-0.8,0.2
			c-0.3,0-0.5,0-0.8,0.2c0,0-0.1,0-0.1,0h-0.1c-0.2,0-0.3,0-0.5,0.1c-0.1,0.1-0.3,0.1-0.5,0.1c-0.1,0-0.2,0-0.3,0
			c-0.1,0.1-0.3,0.2-0.5,0.1c-0.2,0-0.4,0-0.6-0.1l-1.8,0.1c-0.6,0-1.1,0.1-1.7,0.2v-0.1h-0.4c-0.1,0-0.2,0-0.3-0.1
			c-0.1,0.1-0.2,0.1-0.3,0.1h-0.3c-0.1,0-0.3,0-0.4,0h-0.4c-0.3,0-0.6,0-0.8-0.1c-0.1,0.1-0.2,0.1-0.3,0.1h-0.3c-0.1,0-0.3,0-0.4,0
			h-1.2c-0.2,0-0.5,0-0.8,0c-0.2,0-0.4,0.1-0.5,0.1c-0.5,0-1-0.1-1.5-0.2c-0.4-0.1-0.7-0.4-0.7-0.9c0-0.2,0-0.4,0.1-0.5
			c0.1-0.2,0.1-0.3,0.1-0.5c0-0.2,0-0.4,0-0.6c0-0.2,0-0.4,0-0.5v-2c0-0.2,0-0.5,0-0.7c0-0.1,0-0.2,0-0.3c0-0.1,0-0.3,0-0.4
			s0-0.3,0-0.4c0-0.1,0-0.2,0.1-0.3c0-0.1,0-0.2,0-0.3c0-0.2,0-0.3-0.1-0.5c-0.1-0.1-0.1-0.3-0.1-0.5c0-0.1,0-0.2,0.1-0.2
			c0,0,0.1-0.1,0.1-0.2c0-0.1,0-0.2-0.1-0.3c0-0.1-0.1-0.2-0.1-0.3c0-0.1,0-0.2,0.1-0.4c0-0.1,0.1-0.2,0.1-0.3
			c-0.1,0-0.2-0.2-0.2-0.4v-0.4c0-0.1,0-0.2,0-0.3c0-0.1,0-0.2,0-0.4c0-0.3,0-0.5,0.1-0.5s0.1-0.1,0.1-0.1c-0.1-0.1-0.1-0.2-0.2-0.3
			c0-0.1-0.1-0.2-0.1-0.4c0-0.2,0-0.3,0.1-0.4c0.1-0.1,0.1-0.2,0.1-0.3c-0.1-0.2-0.2-0.4-0.3-0.6c0-0.1,0-0.2,0.1-0.3
			c0-0.1,0.1-0.2,0.1-0.3c0-0.1,0-0.3,0-0.4c0-0.1,0-0.3,0-0.4c0-0.1,0-0.2,0.1-0.4c-0.1-0.1-0.1-0.3-0.1-0.4c0,0,0-0.1,0.1-0.3
			s0.1-0.3,0.2-0.3c-0.1-0.1-0.1-0.3-0.1-0.4c-0.1-0.1-0.1-0.3-0.1-0.4c0-0.1,0-0.2,0.1-0.3c0-0.1,0-0.2,0-0.3c0-0.2,0-0.3-0.1-0.3
			c-0.1-0.1-0.1-0.2-0.1-0.3c0-0.1,0-0.2,0-0.3c0-0.1,0-0.2,0-0.3c0-0.1-0.1-0.2-0.1-0.3c0-0.1,0-0.2,0.1-0.4s0.1-0.2,0.1-0.4
			c0-0.1,0-0.2,0-0.4c0-0.1,0-0.3,0-0.4V5.3c0-0.1,0-0.2,0-0.3c-0.1-0.2-0.1-0.3-0.1-0.5c0-0.2,0-0.3,0.1-0.5c0-0.2,0.1-0.4,0.1-0.6
			c0.1-0.1,0.1-0.3,0.1-0.4c0-0.1,0-0.3,0-0.4c0-0.1,0-0.3,0-0.4c0-0.1-0.1-0.3-0.1-0.4c0-0.3,0.2-0.6,0.4-0.9
			c0.1-0.3,0.4-0.4,0.6-0.5c0.1,0,0.2,0,0.3,0.1C137.4,0.6,137.5,0.6,137.5,0.6z M146.4,7.4c-0.2,0.1-0.3,0.1-0.5,0.1
			c-0.2,0-0.4,0-0.6-0.1c-0.2-0.1-0.4-0.1-0.6-0.1c-0.2,0-0.4,0.1-0.6,0.2c-0.2,0.1-0.4,0.4-0.4,0.6c0.1,0.2,0.2,0.4,0.1,0.7
			c0,0.2-0.1,0.5-0.1,0.7c0.1,0.1,0.2,0.3,0.2,0.5v0.6c0,0.1,0,0.2,0,0.4c-0.1,0.1-0.1,0.3-0.1,0.4c0,0.3,0,0.7,0,1s0,0.7,0,1
			c0,0.2,0,0.3,0,0.5c0,0.1,0,0.3,0,0.4c0,0.1,0,0.3,0.1,0.4c0,0.1,0.1,0.3,0.1,0.4c0,0.1,0,0.3-0.1,0.4c0,0.1-0.1,0.2-0.1,0.4
			c0,0.2,0,0.4,0.1,0.6c0,0.2,0.1,0.4,0.1,0.6c0,0.2,0,0.3-0.2,0.5c-0.1,0.2-0.2,0.4-0.2,0.6c0,0.1,0,0.3,0,0.4s0,0.3,0,0.4
			c0,0.2,0,0.3-0.1,0.5c0,0.1-0.1,0.3-0.1,0.4c0.2,0.1,0.3,0.3,0.3,0.5c0,0.2,0.1,0.4,0.2,0.6c0.1,0.1,0.2,0.1,0.3,0.1
			c0.1,0,0.3,0,0.4,0.1c0.1,0,0.3,0,0.4,0h0.4c0.1,0,0.2,0,0.3,0c0.1,0,0.2,0,0.3,0c0.1,0,0.2,0,0.3,0c0.1,0,0.1,0,0.2,0
			c0.1,0,0.2,0,0.3-0.1c0.3-0.1,0.6-0.2,0.9-0.2c0.3-0.1,0.6-0.2,0.8-0.4c0.3-0.2,0.5-0.3,0.8-0.4c0.3-0.1,0.6-0.2,0.9-0.4
			c0.1-0.3,0.2-0.5,0.4-0.7c0.2-0.2,0.4-0.4,0.6-0.6c0.1-0.1,0.2-0.3,0.2-0.5c0-0.2,0.1-0.4,0.2-0.5c0.1-0.2,0.2-0.4,0.1-0.7
			c-0.1-0.2,0-0.5,0.2-0.6c0,0,0-0.1,0-0.1c0-0.1,0-0.2,0-0.3c0-0.1-0.1-0.2-0.1-0.2c0,0,0,0,0-0.1V15c0.1-0.1,0.2-0.3,0.2-0.5
			c0-0.2,0-0.4-0.1-0.6c-0.1-0.2-0.1-0.4-0.1-0.6c0-0.1,0-0.2,0-0.2c0-0.1,0-0.2,0-0.2c0-0.2-0.1-0.5-0.2-0.7
			c-0.1-0.2-0.2-0.5-0.2-0.7l0,0c0,0,0,0,0-0.1c-0.1,0-0.2-0.1-0.2-0.2c0-0.1,0-0.2-0.1-0.3c0-0.1,0-0.2-0.1-0.3
			c0-0.1-0.1-0.2-0.2-0.2c-0.1-0.1-0.2-0.2-0.3-0.3c-0.1-0.1-0.2-0.2-0.2-0.4c-0.3-0.2-0.6-0.4-0.9-0.6s-0.6-0.4-0.8-0.5
			c-0.2-0.1-0.4-0.2-0.6-0.3C148.1,8,148,8,148,8c-0.3,0-0.7,0-1-0.2c-0.1,0-0.3,0-0.3-0.1C146.6,7.5,146.5,7.4,146.4,7.4z"/>
		<path d="M165.1,0.6c0.2,0,0.4,0,0.5,0h0.5h0.8h0.7c0.6,0,1.3,0,1.9,0.1c0.1-0.1,0.2-0.1,0.3-0.1h0.4c0.6,0,1.1,0,1.6,0
			c0.6,0,1.1,0,1.7,0h1.3c0.4,0,0.8,0,1.2,0c0.1,0,0.2,0,0.3,0h0.3h0.7h0.7c0.4,0,0.7,0.1,1.1,0.2c0.4,0.1,0.7,0.4,0.8,0.8
			c0,0.1-0.1,0.3-0.2,0.4c-0.1,0.1-0.1,0.3-0.1,0.4c0,0.1,0,0.2,0.1,0.3c0,0.1,0.1,0.2,0.1,0.3c0,0.1,0,0.3-0.1,0.4
			c-0.1,0.1-0.1,0.3-0.1,0.4c0,0.1,0,0.3,0,0.4c0,0.1,0,0.3,0,0.4c0,0.2,0,0.4,0,0.6c0,0.2,0,0.4,0,0.6c0,0.2,0,0.3,0.1,0.5
			c-0.2,0.1-0.3,0.2-0.4,0.4c-0.2,0.2-0.4,0.2-0.6,0.2c-0.3,0-0.5,0-0.8,0s-0.5,0-0.7,0c-0.3,0-0.5,0-0.8,0.1
			c-0.3,0.1-0.6,0.1-0.9,0.1c-0.3,0-0.7,0-1-0.1c-0.4-0.1-0.7-0.1-1-0.1c-0.1,0-0.3,0-0.4,0h-0.4h-0.4c-0.3,0-0.7,0.1-1,0.3
			c-0.3,0.2-0.5,0.6-0.5,1c0,0.1,0,0.3,0,0.4c0,0.1,0,0.3,0,0.4c0,0.1,0,0.3-0.1,0.4c0,0.1,0.1,0.2,0.1,0.3c0,0,0,0.1,0,0.1
			c0,0,0,0.1,0,0.1c0,0.2,0,0.4,0.2,0.6c0.1,0.1,0.3,0.2,0.4,0.3c0.1,0,0.3,0.1,0.4,0.1h0.3c0.1,0,0.3,0,0.4,0h0.4
			c0.2,0,0.5,0,0.7,0c0.2,0,0.4,0,0.7,0h0.3c0.1,0,0.2,0,0.3,0c0.7-0.1,1.3-0.1,2-0.1h0.9l0.9,0.1h0.1c0.1,0,0.1,0,0.1,0s0,0,0.1,0
			l0,0c0.1,0.2,0.3,0.3,0.4,0.5c0.1,0.2,0.2,0.4,0.2,0.6c0,0.1,0,0.3-0.1,0.4c0.1,0.2,0.1,0.4,0.1,0.6v1.1c0,0.1,0,0.3,0,0.4
			c0,0.1,0,0.2,0,0.3v0.3c0,0.3,0,0.6-0.1,0.9c0,0.4-0.1,0.6-0.3,0.6c-0.1,0.1-0.2,0.2-0.4,0.2c-0.1,0-0.3,0.1-0.4,0.2h-0.1H178
			c-0.1,0-0.2,0-0.3,0c-0.1,0-0.2,0.1-0.3,0.1c-0.3,0-0.6,0-0.9-0.1c-0.3-0.1-0.6-0.1-0.9-0.1c-0.2,0-0.3,0-0.5,0.1
			c-0.2,0-0.3,0.1-0.5,0.1c-0.2,0-0.4,0-0.6-0.1c-0.2-0.1-0.5-0.1-0.7-0.1h-0.7c-0.3,0-0.5,0-0.8,0.1c-0.2,0-0.4,0.1-0.6,0.2
			c-0.2,0.1-0.3,0.4-0.3,0.6c0,0,0,0.1,0,0.1c0,0.1,0,0.3-0.1,0.4c-0.1,0.1-0.1,0.2-0.1,0.3c0,0.1,0,0.2,0.1,0.2
			c0.1,0.1,0.1,0.2,0.1,0.3c0,0.1,0,0.2,0,0.4c0,0.1,0,0.2,0,0.4c0,0.2,0.1,0.5,0.3,0.6c0.2,0.2,0.4,0.3,0.7,0.3
			c0.2,0,0.4,0,0.6-0.1c0.3,0,0.5-0.1,0.8-0.1c0.2,0,0.4,0,0.6,0c0.2,0,0.4,0.1,0.6,0.1l0,0h0.4h0.4h0.4h0.4
			c0.2-0.1,0.4-0.1,0.7-0.1h0.8h1.4c0.1,0,0.2,0,0.4,0c0.3,0.1,0.5,0.3,0.7,0.6c0.2,0.2,0.3,0.5,0.3,0.8c0,0.1,0,0.3-0.1,0.4
			s-0.1,0.2-0.1,0.4c0,0.1,0,0.2,0.1,0.3c0,0.1,0.1,0.2,0.1,0.4c0,0.1,0,0.3,0,0.4c0,0.1,0,0.3,0,0.4c0,0.1,0,0.2,0,0.3
			c0,0.1,0,0.2,0,0.3c0,0.2,0,0.3-0.1,0.5c0,0.2,0,0.3,0,0.5c0,0.1,0,0.2,0,0.3c0,0.2-0.1,0.3-0.2,0.5c-0.1,0.1-0.2,0.2-0.4,0.3
			c-0.1,0.1-0.3,0.2-0.4,0.2c-0.1,0-0.2,0.1-0.3,0.1c-0.3,0-0.7,0-1.1-0.1s-0.8,0-1.2,0h-1.4c-0.1,0-0.2,0-0.2-0.1
			c-0.2,0.1-0.3,0.1-0.5,0.1h-0.4c-0.2,0-0.4,0-0.6,0h-0.6c-0.4,0-0.9,0-1.3-0.1c-0.1,0-0.2,0.1-0.3,0.1h-0.3c-0.1,0-0.3,0-0.4,0.1
			c-0.1,0.1-0.2,0.1-0.3,0.1c-0.1,0-0.2,0-0.3,0c-0.1,0-0.2-0.1-0.3-0.1h-0.1c-0.1,0-0.3,0-0.4,0c-0.2,0-0.5,0-0.7,0.1
			c-0.2,0.1-0.5,0.1-0.7,0.1c-0.2,0-0.3,0-0.5-0.1c0,0,0,0-0.1,0h-0.1c-0.1,0-0.1,0-0.2,0c-0.1,0-0.1,0-0.2,0c-0.1,0-0.2,0-0.3,0.1
			c-0.1,0-0.2,0-0.3,0c-0.2,0-0.5,0-0.7-0.1c-0.2-0.1-0.5-0.1-0.8-0.1c-0.1,0-0.3,0-0.4,0l-0.3-0.3c-0.1-0.1-0.2-0.2-0.4-0.3l0,0
			c-0.1,0-0.1-0.1-0.1-0.4s0-0.6,0-0.9s0-0.7,0-1v-0.8c0-0.2,0-0.4,0-0.6c0-0.2,0-0.4,0-0.6c-0.1-0.1-0.1-0.2-0.1-0.4
			c0-0.2,0-0.3,0.1-0.5c0.1-0.2,0.1-0.3,0.1-0.5c0-0.1,0-0.3-0.1-0.4v-0.2c0-0.2,0-0.4,0-0.6c0-0.2,0-0.4,0-0.6c0-0.2,0-0.4,0.1-0.6
			c0-0.2,0-0.3,0-0.5c0-0.2,0-0.3,0-0.5c0-0.1,0-0.2,0-0.3c0-0.1,0-0.1,0-0.2c0-0.1,0-0.2,0-0.3c0-0.1,0-0.1,0-0.2v-0.2
			c0-0.1,0-0.3,0-0.4v-0.3c0-0.1-0.1-0.2-0.1-0.3v-0.3c0-0.3,0-0.5,0-0.8c0-0.3,0-0.5,0-0.8c0.1-0.1,0.2-0.3,0.2-0.5
			c0-0.1,0-0.2,0-0.4c0-0.1,0-0.2,0-0.4c0-0.1,0-0.3,0.1-0.4c0-0.1-0.1-0.2-0.1-0.3c0-0.1,0-0.2,0-0.3c0-0.1,0-0.2,0-0.3
			c0-0.1,0-0.2-0.1-0.2c0-0.1-0.1-0.2-0.1-0.3c0-0.1,0-0.2,0.1-0.4c0-0.1,0.1-0.2,0.1-0.4c0-0.1,0-0.2,0-0.3c0-0.1,0-0.3,0-0.4
			c0-0.1,0-0.3,0-0.4c0-0.1,0-0.2,0-0.3c0-0.1,0-0.3,0-0.4c0-0.1,0-0.3,0-0.4c0-0.1,0-0.2,0.1-0.4c-0.1-0.1-0.1-0.3-0.1-0.4V7
			c0-0.1,0-0.2,0-0.2c0-0.1,0-0.3,0-0.4V5.4c0-0.1,0-0.3,0-0.4c-0.1-0.2-0.1-0.4-0.1-0.7c0-0.3,0-0.5-0.1-0.8c0-0.2,0-0.3,0.1-0.5
			c0-0.1,0.1-0.2,0.1-0.3c0-0.1,0-0.2-0.1-0.3c-0.1-0.1-0.2-0.2-0.3-0.4c0-0.4,0.2-0.8,0.5-1c0.3-0.3,0.6-0.4,1-0.5h0.3
			C164.9,0.6,165,0.6,165.1,0.6z"/>
		<circle class="st1" cx="13.2" cy="37" r="5.7"/>
		<rect x="10.8" y="34.2" class="st2" width="1.4" height="5.5"/>
		<rect x="14.2" y="34.2" class="st2" width="1.4" height="5.5"/>
		<circle class="st1" cx="28.6" cy="37" r="5.7"/>
		<polygon class="st2" points="31.6,37 26.5,34.1 26.5,40 		"/>
		<circle class="st1" cx="44" cy="37" r="5.7"/>
		<rect x="41.3" y="34.3" class="st2" width="5.4" height="5.4"/>
	</g>
</g>
</svg>
