<?xml version="1.0" encoding="utf-8"?>
<!-- Generator: Adobe Illustrator 22.1.0, SVG Export Plug-In . SVG Version: 6.00 Build 0)  -->
<svg version="1.1" id="Layer_1" xmlns="http://www.w3.org/2000/svg" xmlns:xlink="http://www.w3.org/1999/xlink" x="0px" y="0px"
	 viewBox="0 0 427.5 213.7" style="enable-background:new 0 0 427.5 213.7;" xml:space="preserve">
<metadata><?xpacket begin="﻿" id="W5M0MpCehiHzreSzNTczkc9d"?>
<x:xmpmeta xmlns:x="adobe:ns:meta/" x:xmptk="Adobe XMP Core 5.6-c143 79.161356, 2017/09/07-01:11:22        ">
   <rdf:RDF xmlns:rdf="http://www.w3.org/1999/02/22-rdf-syntax-ns#">
      <rdf:Description rdf:about=""
            xmlns:xmp="http://ns.adobe.com/xap/1.0/"
            xmlns:xmpGImg="http://ns.adobe.com/xap/1.0/g/img/"
            xmlns:xmpTPg="http://ns.adobe.com/xap/1.0/t/pg/"
            xmlns:stDim="http://ns.adobe.com/xap/1.0/sType/Dimensions#"
            xmlns:xmpG="http://ns.adobe.com/xap/1.0/g/"
            xmlns:dc="http://purl.org/dc/elements/1.1/">
         <xmp:CreatorTool>Adobe Illustrator CC 22.1 (Windows)</xmp:CreatorTool>
         <xmp:CreateDate>2018-08-29T17:39:37+02:00</xmp:CreateDate>
         <xmp:Thumbnails>
            <rdf:Alt>
               <rdf:li rdf:parseType="Resource">
                  <xmpGImg:width>256</xmpGImg:width>
                  <xmpGImg:height>128</xmpGImg:height>
                  <xmpGImg:format>JPEG</xmpGImg:format>
                  <xmpGImg:image>/9j/4AAQSkZJRgABAgEASABIAAD/7QAsUGhvdG9zaG9wIDMuMAA4QklNA+0AAAAAABAASAAAAAEA&#xA;AQBIAAAAAQAB/+4ADkFkb2JlAGTAAAAAAf/bAIQABgQEBAUEBgUFBgkGBQYJCwgGBggLDAoKCwoK&#xA;DBAMDAwMDAwQDA4PEA8ODBMTFBQTExwbGxscHx8fHx8fHx8fHwEHBwcNDA0YEBAYGhURFRofHx8f&#xA;Hx8fHx8fHx8fHx8fHx8fHx8fHx8fHx8fHx8fHx8fHx8fHx8fHx8fHx8fHx8f/8AAEQgAgAEAAwER&#xA;AAIRAQMRAf/EAaIAAAAHAQEBAQEAAAAAAAAAAAQFAwIGAQAHCAkKCwEAAgIDAQEBAQEAAAAAAAAA&#xA;AQACAwQFBgcICQoLEAACAQMDAgQCBgcDBAIGAnMBAgMRBAAFIRIxQVEGE2EicYEUMpGhBxWxQiPB&#xA;UtHhMxZi8CRygvElQzRTkqKyY3PCNUQnk6OzNhdUZHTD0uIIJoMJChgZhJRFRqS0VtNVKBry4/PE&#xA;1OT0ZXWFlaW1xdXl9WZ2hpamtsbW5vY3R1dnd4eXp7fH1+f3OEhYaHiImKi4yNjo+Ck5SVlpeYmZ&#xA;qbnJ2en5KjpKWmp6ipqqusra6voRAAICAQIDBQUEBQYECAMDbQEAAhEDBCESMUEFURNhIgZxgZEy&#xA;obHwFMHR4SNCFVJicvEzJDRDghaSUyWiY7LCB3PSNeJEgxdUkwgJChgZJjZFGidkdFU38qOzwygp&#xA;0+PzhJSktMTU5PRldYWVpbXF1eX1RlZmdoaWprbG1ub2R1dnd4eXp7fH1+f3OEhYaHiImKi4yNjo&#xA;+DlJWWl5iZmpucnZ6fkqOkpaanqKmqq6ytrq+v/aAAwDAQACEQMRAD8AiemaTpMX5XnWLHyZqdr5&#xA;jjuLiRPzBikljtLfhqEg+st6EkknCCNeL0h/ZPzxV7h+c0uj+Z9Y8k+RL++j/RGqySaxrN2ZEiR7&#xA;SyhPpAkkDjPNIKU8MVY3bed9Xi/5x8ttItNR+r6xY6rF5MvNWgbeBUuRB68bAnraleLV71GKpp52&#xA;/J/y95CstN83eRH/AELr+mXtqt3Pc30iRahBLMqTQ3TTuUZpeVe1T03pirGPMvnrVbPz/wCb/JGn&#xA;zy6JB5h8wWsOq+bijGGxguLCBEjR12SecxMqsxAXr/lKqyb8yPIGmWP+DvK/l7SYtd0Py/Hc3ur+&#xA;R0uxb3V7BJwijviCyCZoZ+TNyPxM1O+KsH1kaRF+WP5rWuhR3Oi6QkWmsfJ2orLHd6dcmZfVkCOX&#xA;UQ3GzKUcg07bYq9D/LLQ/wAt7Tzhaz6H+WOv+WdRVJRFq+o27R28YMbBlZjdT7uvwj4OuKsI89ap&#xA;aX/nDzR+Zsd7GL3yJrGn6fo9mZVWWW109iuqIsZYFlka6fcfynvirKvz3/Lb8u76x03zVHpcU2pa&#xA;1rekxXWoLJKfXt7iVI2FA/CjxUFQMVeteT/InlPybYzWPlrTk020uJfXmiRpHDScQvKsjOfsqBir&#xA;5p1LS/Id3e/mS955d1bVfO7eYNTi0K90m3vXaJjFH9XHrQEQrxmJLBt6HoQcVTbzTp2ky/mT5eg/&#xA;MPy1qfmy/h8j6cLy202Ca8njv1upRNNILd4zTlyHKtKnFXpv/OPF01x5Q1YxfWYtJi1u+h0XT76Q&#xA;yXdlZx8FW1uAzO8bpIHPB2JCkbnFXjktz5bt/wDE+t67Za1/irSPM0zJ5+0u3a7t4wl0iQ26yNNG&#xA;nEo3omHovIfLFX0J+Zlz9a/KDzXc+lJB6/l/UJPQmXhKnOykbjIu/FlrQjxxVMPy8/5QDyz/ANsq&#xA;x/6hkxV4H+a1xBrvnPzf5shu4Y778uE06Py9C86oZbm1mF9f0SvIkJ+66Yqyb89rjRfMK/lrdyaR&#xA;N5j0jU7uW5XSbYgTXMUtiZIwvxx9KhvtDpiqUeTUtrKD80NMsdNvPKumpoJls/KGoPLJKv8Ao0wk&#xA;vo+ZkjSORqR0jkapX4qbYqu/KLQ/y3jufK11bfljr9lrXo2zjzHNbstmJjCOVyX+tMPTc1IPp9+m&#xA;KvQfyO/3m88f+Blrf/J9cVef+dNB0++/MLzPrvmLyzP+YXlkmGxtbnSbj17nRpbaJRdWpslkjYOW&#xA;YSlk3/4I0VY/q8WlX3l38oYdcjufzA0hpdaCwaery3lzAsJNvGyO8D+pbUUSDkKcD17qp15203yf&#xA;Z/kH5wj0DyZqnlS1kutMN1ZanC0Utwfr9sOUS+tcFhx+HqN8Vb8p2/lO3/NXyxpnkzyxrHlC2vYt&#xA;ROv2esxT2dvf2i29AkcFzI/rSJIVb4N1G5qOiqZ6L5uu/Jn5J+cdCaRn1rybd3Wg6b/v2T63IBps&#xA;ijv8NytB4L9OKof8xvyi8o6foH5VaVf2CXVzBq+maDezlnX1baSK4luI6KwAEk4L1G/viqfah5a0&#xA;j8wfzf1vy55l53HlvyfYWH1DQllkjgmnvVeRriYIVLmNUVFBNB9+KsQ82eW5PJnlf80vKWm34n8p&#xA;ppNtf6Tpkt169xYvK3GWPg5MqxORyUnb6a4qyHyLp/5X6Rrx1LTPy51zybc2ltcynzHqtuYrS1jS&#xA;BjI8rtdzKBwB6rirzm48tW2h+V7Z9c0W60bzkbiG50781oZ5bzTppZZ1aO4ubiJnkijlibjxeOny&#xA;xV6vZ/kd52tvJ7+Sl8+CLyvN9YS4trfSo47l4LuZ5p4vrL3EtOZlYV4dMVT0fkd5RuvM0+ra7BBr&#xA;djFp9lpWiaXdwB0sbezVg1Hdn9RpGblXitOm+KoZvyE8s/V/NulQyC08teaEtXi0i1hEIsLu0Wgu&#xA;beQNSrMquV4dR3BIxVRg/KTztqk+l2vnfzn+ntA0e4iu4bCKxS1kuprc1ga8mDyFwhoSoHxd98VZ&#xA;Efyw0i7g842esONQ07zhci5ntjHwMIFtFbgK/J6urQCRXoKHttXFWPz/AJR+bo7Ty9e2Hm4J5v8A&#xA;LsMtjFrs1kHF3p8pFLe7hMzc2TiCJOXXelTXFVO+/JHUtZ8uea7fXvMf1vzJ5titLe71WO0WO3gh&#xA;sX5xRw2qyA+PImTc74qybRPL/wCZtrfiXVvOFpqVmEkU2sejrbEuyERt6gupNkajEU36VGKpDoP/&#xA;ADjx+XVn5Yj0rWNMtNb1Vo5Re69Pbot1NLO7O81SZGVgX+H4jSgxVHS/lXd3H5feWvKV3rXqzeXb&#xA;mwnGpC24+smmyho4/S9U8CUVULcz407Yq9BxVjXkryZ/hiTzE/1z63+n9ZudZp6fpej9ZSJPR+2/&#xA;Pj6NeW1a9MVcvkzj+ZMnnX65/eaMmjfUPT6cLp7n1vV59+fHjw969sVVfKflMeX7jzDMLr6z+ndW&#xA;l1bj6fp+j6sEMPpfafnT0OXLbr0xV51rX5C+YL3TNW8s2PmtbDybq1/JqrWQsVku4p5JROsS3BlU&#xA;NEs6q+6ctuNe+KvQL3y1rWr/AJe3/lnW9Tjn1XUtOudPutWht/TQtcxPEJhb8/2VcErzFT4YqlHk&#xA;/wAmfmLoR0y0vPOFrqOiadElubBdIW3kkiij9OMev9alKkUBrxNcVQHlv8gfIVlpkieYtNsvMmt3&#xA;Vxc3eo6zdWqrJNLczNKfhLSlAofiPjPSuKoRfyV1218ueT9M03zUsF/5NuLiWw1GewE4eKZXjjie&#xA;H6wg/dRyceXLenQYqjrH8pNRku/MGr+YvMTaz5i1vSZNCivltEtYLWzk5Nwjt0duX7x+Z5SVPtiq&#xA;K8p+S/zI0MaXZ3PnK1vtF02OK3NkujrBJJDCgRV9f61JxNAPi4nFUu0z8sPzC0S91t/L/nW2srHW&#xA;dVvNXNrNo63DRyXsnNk9U3acgooK8R8sVX3n5Zed9O8wapqvkvzXDo1vrsi3Oq6fc2CXcX1wIscl&#xA;zBWRChkCgspqK/gqhm/JC9sLHyjH5b8xnT9R8qSX9wuoXlmt61zNqasLh5EEtuB/ePTr28MVTTXf&#xA;y682eZPI+qeWfMfmeG8nv5rWWC/g00WwhS1uIrgoYRcP6nMw0rzFK98VZDr3lMat5n8s659a9E+X&#xA;J7qf6v6fP1vrVpJa8efJeHH1OXQ1pT3xViXmP8lU1n8xofNY1g2+mPcaffapoYtw4urrShKttI0/&#xA;qLxULKAV9M14/cqmH5lfl55m83X2iT6b5ji0a20S8h1O3t308Xha9gEipIXM8Hw8JSOFPeuKqXm3&#xA;8stbvfM9t5v8q+YP0B5lS1FjqMj2wubW9gU8kWaAunFkapVga9sVQB/JS5u/LHmy01jzA+oeZ/OM&#xA;UcOpa61sqxxRwCkMUFqjqFjjBO3OrHc4qnmm+UvP0k0kHmfzTaa3odzDLb3umR6SLNpUmjKU9YXM&#xA;pUfFv8O+KsSX8kvOc3l+LyTqPnT615Ci9OH6kLGNL97SFw8dsbrmwAXiq8gleIxVBflXpPlTyjqf&#xA;5m+YBbPFB5dvbqBGEk0pj0+G1hupIkV3YH4k5VO/viqGvvN/nbXPPv5YXGteXl0PTtQvLm7sXjvP&#xA;rLNG9i5EVygji4ScWD03HbqDiqa2n/OQ0N1q1vIlhZL5ZutTXSYbptSiGpcnn+rrdnT+HJYDJ4vy&#xA;4/H0xVV80/nxeaB5oewuNHtotMh1KHSyLu+FvqdwJWRWu7WxMTNJbp6mz8qNQ7jFWdef/Nl15W8v&#xA;HU7TTX1S5eeG2igD+jChncJ6tzPxdYIY+ryMKDFXncX/ADkWT5d1S+j0WDUtV0nVLLSZbXTNQW5t&#xA;rg3/APdy2116QV9wV4leopyxVNE/Oq/0hPNUPnTQRpWo+WrGDU1gs7kXkdzBckxxqkhSLi/rfuzU&#xA;Urv0xVAW3mDzrqH5xeS7fzNoaaFIunavPElvefXIpFmW2/dufThpLCUo2xHxChxVMPzTEvmHz35R&#xA;8gT3c1noWrR3t/rCW8jQyXaWaJ6dr6iFXCMzlpApqQPpxVKoPKGm/lV+Ymm3Pl28TTvJuq2OoPrG&#xA;gT3vIq9jB9ZFxZW87mWVgBST068RuaA4qnGgfm75hurny5d635aXS/LfnCRYdB1BLxZ5leaFp7Zb&#xA;qARqE+sRpVeDtx6HFUtf88vNIhl1n/CAHlSz1ptDv9QF8GnDfWvqguI4PRUGMOUBq1eR49ByxVON&#xA;X/NbzAupeYD5e8snWdC8qOYdav8A62sEzzxxCaeKzgMb+q0CMC3J1qdl7VVQvmb870ttUtdM8uWl&#xA;jeTzabDq88urajFpUSw3QLQQoZFcvNIorT7K7VO+Krrz86b+6g8jjyvoA1W888W93PbR3F2LZLRr&#xA;JI2lEzCKbkFMjAkU+ztWuKpF5y/NnzzJ5Yt5NM0yPSte0/zJa6Lr1s10GUO0kTIkTmB+cN1HKPj4&#xA;qUHZsVe02Ml3JZW8l7ClvePGjXNvHIZkjlKguiyFY+YVqgNxFetBiqtirsVdirsVdirsVdirsVdi&#xA;rsVdirsVdirsVdiryvyn+UvmuzPm218zeYbfVNK84RXP6SgtbM2souLqJLdpUkMklFEKsONOpriq&#xA;3TPyr8+nXvKN5r3ma0vtO8nM62VvBYvDLcK1uYFkuJGmkHqBSPsrx+k4qlVj/wA48XFpqMVlHqNg&#xA;vlaHUhqkZXT1XWOImM/1M3wb+55nduPIr8OwxVrU/wAgvMd1q2vNb+YLSHSdb1dNanZrESX7lbmO&#xA;4WzkuS9fq8Ri/dhab+22Ks3/ADY8gXXnby/ZWFpdw21zp2o2+pxR3cRuLS4a25fuLqIMpeJudSK9&#xA;hirDrL8h9epqU2p+YLe6vdS1XR9Vd4bIW0Ua6QKfV44kfiF4gIh7Ab1OKsj82flFB5l1vzJe3l+0&#xA;Nrr+jW+kiOJP3sEltO06Th+VGo7L8NB064qp6J+X3np/PGkeavNPmG01B9HtLqxgs7Oze3RluOH7&#xA;9meaX96/D4wBx2FMVTT8xfy9m80tpWp6Vqj6H5o0CZ59G1ZIxMqesoSeGWJioeOVAAwr+FQVUm0r&#xA;8rPMOp63Jrv5g63FrN4lhc6Zp9jY2/1W1tor1eFzKvJnd5ZUHGp2A8dqKqHl/wDKbzXBP5asPMPm&#xA;G31Py15NlWfRLWG0MNzNLDE0Nq13KZJF/wBHjchfTUcupxVMJfyquH/L6/8AKf6RQSXmrtqou/SP&#xA;FVOqrqXp8OW5ovCtff2xVCa5+VvnFtR8yDyx5pj0fRvNbibU7WWz+sTQTvEsE81pKssPFpY0WvIG&#xA;h3GKqHmD8mtSXW7XWfKupWcFyumQaPeQ6zZjUY5IrYUhuVJZCJ0U0/lbviqSeZPIfmvSPNH5VaX5&#xA;Yv3ku9EttaEutX9vJdQM7xQMy3QR0KLOearSQEfs9MVT+T8mb688p6hZX+vV8z6prEPmCfWY7cGC&#xA;O8t2j9GOO1aTeGOOEIFMlT1r2xV6RpkeoRafbx6lPHc36RqLm4hjMMbyAfEyRlpCgPhyPzxVE4q7&#xA;FXYq7FXYq7FXYq7FXYq7FXYq7FXYq7FXYq7FXYq7FXYq7FXYq7FXYq7FXYq7FXYq7FXYq7FXYq7F&#xA;XYq7FXYq7FXYq7FXYq7FXYq7FXYq7FXYq7FXYq7FXYq7FXYq7FXYq7FXYq7FXYq7FXYq7FXYq7FX&#xA;Yq7FXYq7FXYq7FXYq7FXYq7FXYq7FXYq7FXYq7FXYq8C/J785dM0n8vtP0/U9P17UL2Ce+Et3b6f&#xA;c3cThr6dl4zqGD8VYL12pTtirLPyE119cs/Ouok3Ihl81XxtobxXjmiiMFsyxtG/xR8a/Z7Yqw/z&#xA;9HbSfmLr2pebbXW9b8niKC10e98u3U8kOkzQxD66t3BZyo8cnqEPydW2oKeCr0n8lri/n/LfSpLz&#xA;WE1+vrC11dHeVp7YTOIDK0io/qrHRXDKCCKHeuKsa/5yTuIIfL/lRbs3h0+fzLZxX8WnNKLmW3a3&#xA;ueccYgKyMWpsF74qxHU38n2f5VefZ/KNr5h026TT4zNNrH1+P/dh4eg10x3G/Lh7VxVDeUNY8rW/&#xA;n3yXY+Qb7XI7u+ml/T1lqcl6tpNaJas0rBL4hXkRwpT098VQEMnka782edj5qs/M+o3sPmK9itZN&#xA;I/SL20dsojKR/wCiuIwwcsadaEe2Ks9/MzUtU/L660r8ytEgub3QzZJpeu6K7PyKuv8AoFxxevGR&#xA;ZisUhPxEMBirF/Pugal5d/Lbyk/mu6v7vVde81W175qFi83rsbq3uWktLdYW5hI1ARUQ0qKjriqZ&#xA;2P8Agm28h+f5vKln5i0+8j8vXzSTayL9FotvIUMLXTMA4bf4d8VYj5W1zyxa3nkFPJd/rsXmvUb3&#xA;T49YhvZb1bC5t2jDX4f64fRb4eTJ6dTWnHtir1H/AJyG1KSx0nyz9buLmLy5c63b2+vw2Ejx3c8D&#xA;o5WKP0mSZ1LrVlj+KnTpirvyU1rQBrHmTy9omp6ld6fbyx3lnpmp2t7HLp0csa8oGuLyrOHY841O&#xA;/Gp33OKsV/Nuby7J+dsVp5kh1q80seWoJYLXRDeF1uDfzr6jpaMppw2qfbFXrH5ZJoKeT7VdCt9Q&#xA;ttN5y+lDqwnF2D6jcuf1ktLQt9mvbpirzj88Z/K//KyfJ9r5sv7qy8vS2OpNP9Vluoi0qmH0q/Vf&#xA;jPU4qxy18z6zafld5us9EvdTudM1zWYtB8gXepmYXTi/VI5fSeYLP6aVkMZIqKeNaKs5/K17nyte&#xA;+ePIt1qDcdAkTU9J1LUZC4FjfQcwzs7VKQSxPyJOKvK4hcaZotidSl1vy/8Ami91C1j5q1G7u59C&#xA;1GZ51PD6xG01p6M0JIAMYA2qSOqr0t/Kemj/AJyVhImvPTfQpdcaD63P6P11L2O3Denz4cfTcjhT&#xA;j3pirC/I2tavon5oeZLq8vppdF8z6x5j0WOOWRmjt73T5jcWvHkaL6kUjxqo7jFXrn5E3Fxc/lD5&#xA;WnuJXmnkslMksjFnY8m3LGpOKs8xV2KuxV2KuxV2KuxV2KuxViv5X+Trnyd5IsPLtzcJdTWkl07T&#xA;xgqrC5u5bgUDb7CWmKpdoXkbzNoVn5mGlarbQX2veYZdahnlgadI7ef0FkhZOcdXKQsOVe/04qll&#xA;55F/MnQfM+t6p5B1LSI9N8xTLe3+m6xDcOIbzgI5JoHt3Un1QoLBtq4qm3knyHrvlHRNC0ex1eKe&#xA;3tri6ufMEkttR7t7syS/uOL0gCTSDah2HzqqjvPnk658yy+WXguEtxoOuWusTBwT6kdtHKhjWnRj&#xA;6vU4qrfmP5VuPNnkbWfLlvOltPqduYI55AWRCSDUgb9sVUPM3kubWD5SaOaOOTy3qcGoSuykmSOK&#xA;2mgaNCOnJpVP0YqxnS/JP5r+XdU8xSeXNT0E6drur3OscNRtbyWaN7hUThyhnhSgWJf2etd8VZH+&#xA;Y/k7UfOPkC68ui5htr+7Nm8lxxYwh7a6huH4rUtRvSIXfFVH80PJuu+Z7PQm0O7tbTUdC1i31iFr&#xA;1JJYHNvFKgRliZH3Mo6MMVULjy9+ZmueWPMeh+Zr7RSmraZc2NlLptvdRGOW5ieLnL6803JBz6KA&#xA;cVVNU/L65vfKflHRBcxCby1e6PeSTspKyDS2QuEHVTIEIHzxVU/MryTqnmSPRL/RbuC01zy7qCal&#xA;p/1xXktZWVGRopljZWAYN9pdx9OKpN5E8i/mPonnjVvMms6rpd5D5m9OTW7O2gmjMEtpGYbUWkjM&#xA;3JfT4h/UHyxVkS+TrlfzSl85/WE+qyaHHo4tKH1PUS7e59Tl040elMVTk2+vf4iW4F5D+gPqhjaw&#xA;MJ9f636lRMJ+dOHp/Dw4dd64qk2reTrm9/MTQPNSXCJb6PZ3trJbEEu7Xfp8WU9AF9PfFUv/ADD/&#xA;ACxtvPWueXxrTR3HlfSTcz3uksZFa5uJYvSgYshWghqx6718MVSa1/IDylpHmdL3y5axaboeoaZf&#xA;aR5k0sNM/wBagulXgUZ2fiysu/tiqVyflN+aWpeV4fIGu+YNKuPJMIgge8itZxq01paSJJFCxMn1&#xA;dTSNVL0JpvucVZG3kvz4fzcTzob/AEv9FpZPpAs/QuPrH1F51uCefq8PW9RB8VOPH9mu+KpRqv5J&#xA;6heeUte0yHUoYdYvPM8/mjRb/gxW1llnEiq69WIj5oaeOKs3/LjyrceU/I2jeXLidLmfTLcQSTxg&#xA;qjkEmoB374qyTFXYq7FXYq7FXYq7FXYq7FXxvpnmfRD5EjvNK8469J+bYupRZaPb3N5cJJKL90ii&#xA;a3YNC0bW/EsOX3/ZxV9En81pf8Zaj5Xi8v3ly2iyWq61q0bRLZW0VzbJcGZ3kZWPEOfhVSfhJ22x&#xA;VB6F+c8mo3mizXnlq903yz5ln+q6Brs0kLiaR1ZofWt0JkgE4Q+mTWu3QGuKoST8776XV9MSz8tS&#xA;ny9qevjy7ba5NcxKHmV5I5WFsvKUAGF+HLrTemKojSvzvTUNL1LWU8saoui6VHd+vfhYnWW4tZzA&#xA;Le3QN6kjSUry4hQdidsVUrX89YEh8xRavoklhq3l7SzrM1hFd214HtwzKUMsBKxyggckYVFcVUI/&#xA;zy1+TV7PR18hakup61a/XvL0L3Fsq3FuN3aeQtwtiiUYqxY7gGhIxVFL+elpJ5L0fzDB5fvp77Vt&#xA;WOgfoJTGtzFfgTVRmcqnHlBQtUUBqaUIxVLZvz/1qCLXFl8h6iLzyq3PzRCLi3KWtuQHSWKTb1+c&#xA;VZKKo+EVrShxVO7rzlpUXm+XWYZtQnhTyi2tx2QmC2T24l5hvQIqLhhtzr9nbFVLyp+c9zreueXr&#xA;K88rXukad5st5Z9A1OeWGQTehD9YYSRRkmINEpZCT8Qoab7KqGmfnVqOqa95fgtvLU0PlzzHf3Nj&#xA;p2uT3EQ9QWqSlnFunKROTQniH6jf2xV6nirsVdirsVdirsVdirsVdirsVdirsVdirsVdirsVdirs&#xA;VdirsVYn+Vfk++8n+RbDy9fTRXF1aSXbvNBy9Mi5u5bhacgp2WUA7dcVa0vyVNB5g863t5Kj2Pmq&#xA;S2MUcRYSJHDYR2cgckUBJQkUrtirEND/ACv8/hPK2ga/qWmz+VfJ11Bd6fPapML+7NirJZpOsn7q&#xA;IRggtwZq07dcVeW+Q9N1Ox846BqKJcanrtzr0z6t5c1Gx1RZdOS6nl+sXxuPVGnvLFE9fUEKhq7b&#xA;4q9hm/K3Xm/JbUPIkGpx2mq3b3jx38RcRgXOoyXgjY0D8Xjk9N6DuaVxVimn/kN5s4+Y3n/QOljW&#xA;fLkmg2en6PFNDbW8jTGQO7OvOWtavI3xEmlKDFXpjeT74+d9A1/1ovq2k6VdadNF8XNpLh7dlZdq&#xA;cR6BrU4qxnSvym1mzs9Kge8tmaw83XPmWQr6lGtp1uQsS1X+8H1ha9tjviqZ6l+XeqXUf5lqlzAp&#xA;87W4gsK8/wByw0tbGs1F6eovL4a7Yqgv+VW6x/y12/8Ayhn+Fv2/96f9+/Z/uvx9sVTBvIuqQt+X&#xA;9wssUp8mQyreRKWDTs2mPZAQ1AG8jV+Km2KvD/ym0rUdK82+Trm2WXWtVlmuE1rTb+w1WCfSPrCu&#xA;11cCaeT6l6gY8HdYkL9h8ROKvqzFXYq7FXYq7FXYq7FXYq7FXYq7FXYq7FXYq7FXYq7FXYq7FXYq&#xA;7FXYq7FXYq7FXYq7FXYq7FXYq7FXYq7FXYq7FXYq7FXYq7FXYq7FXYq7FXYq7FXYq7FXYq7FXYq7&#xA;FXYq7FXYq7FXYq7FXYq7FXYq7FXYq7FXYq7FXYq7FXYq7FXYq7FXYq7FXYq7FXYq7FXYq7FXYq7F&#xA;XYq7FXYq+fPzO8xedJ/OHmTzJoGp3kGi/luumfWtNtppEt76V5hc36yxqQj+nbMFbkNsVZ756126&#xA;/wAY/lodMvpU07Vb+4M6wSOkVzCbF5IxIoIDrWjANiqO8y6jqEP5seSLGG5ljsruz1t7q1R2WKVo&#xA;VtPSaRAeLFObcajappirwJPzI06Lyvq19L+YetxfmFa3t4NN0JZpZraSSK6dbWEwGGSNkkUKCC+K&#xA;s/8AzH82Wln+YGk2fm3zLrHljT5vL0d08GjPcb35uSrh1tork0C1FSO3XFUVqHmKzHl7yBN5U8ya&#xA;tqen3vnG0tLm/vpLiO4niaK4MtvL6qW7vFVR8LLxOKvVfNunPqPlu/tEvbrTnaLmt5Yy+jcIYiJB&#xA;wko1OXDi224JGKvG7fX/ADXp/wCTXkyDT9dvJvM3n+9sbY6xfyfWZLQXkQa4eDktAqLEeCncFiQc&#xA;VR/nPy/5g/LCw0/zjpXmvW9XtLG7tYNf03Wbxr6G4tLqdYHeNXA9KVXlBUpt7eKr2LVdStNL0u81&#xA;O8f07Oxgkubl/wCWOFC7n6FXFXhn5Sa1510/zd5evPM+p3l3Z/mPpt3f21nczSTQ2t5FcNdxRwK5&#xA;KxI1jKvwKBuPbZVnnkjU9SufzV/MqyuLuaaysJtHFjaySO0UAl05XkESElU5v8TcRud8VUvKPmG/&#xA;038wvPPlvXL55bW2MOvaTNcOW4WF1GVnRS32Y4JoiAOgrirCX84ecpPyPutcW9uB5j8/6s1t5ZQy&#xA;sr2kepXHoW0cDA1jEdvG0qld671xVmX5N32rWd35r8la1qNxqmo+WtSra3l5I808mnX0YntGeSQs&#xA;zkfGp32pTFXhWifmZD/yr3TNR0/8wdbvfzSeSJbfy7LNLcWs9w916awPE8JjKvEf9+de/bFXpP5j&#xA;+atDsvzXv9O8zebtb8vaZHpVlNp8GjtdcXmkluBMzrbw3FPhRNyBirMbLSfL3mLyDpuoWHnLXotE&#xA;slup/wBN/W5LS5mjWV/Va7eeKNysRRgvJBRR4b4qkn5FWPmLULzVvN0+t6vd+Vb0m18r2Gq3LTvJ&#xA;bow530gIXiZXT90KCi1rWoOKvYMVdirsVdirsVdirsVdirsVdirsVdirsVeNaD/zjjoVzpl7cec5&#xA;Z7nzFrNzd3esPp1/dx2jNdSuwVErCGCxlVPKPf5YqrH8rPP0HkbyXb22o2Deb/I9wz2Ukxleyurd&#xA;VeBIpDwWVCbdlFQDQg07EKpv5c8rfmLqfnuz82+dX06zj0izuLTSdJ0t5ZhzuynrTTSyqnVYgAqj&#xA;+1VC2n5U60n5Na75IuJbOXU9TbUntpS0jWyteXEk0DMxj5gpzWtEND0riqpqHlD8yrDzXpfmDy7+&#xA;h7uS30CLRb1NTuLqImVJvVaSMwwS8gaftUPtiq7zn5U/M3zLoHlyVk0WDzLoWvQaw0AuLs2Lw20U&#xA;yKgl9D1ebGUV+CnviqbL/wArgudE1WG+s/L0epSRomlrBdXrQEu3Gb12a2V1pGapwVqt1oMVYxbf&#xA;lP5xvfyo0fyxqd7Y6d5l8rXFrdeXNTsGluIBJYIBDJOJo4Wq5aRXUKRSh36Yq6/8mfm752uNL0/z&#xA;xJo+m+W9Puob3UINIe4mmv5bZuccf79FEcJcVYV5YqzH80vK+teavJV95d0m4itJNTaKC7uJmdeN&#xA;oZVNzw4LJV2iDKAaDfqMVYXrH/OPWjWLaRqnkyWa217RL+1u7P8ASF/eS2xhikHrQkMZ+IeKq/Cn&#xA;t0xVMH8q/mro/wCYPmzzB5bj0K607zI9i6pqNzeQzRmytFtzVYbeVfiYMftdKYqgPzP/ACx/MLzS&#xA;NN1XRbrTNM8xS6TeaJ5i5y3H1d7W9CkrA6wtI3pyBivJV64qmXm78nIPMd/5Q0qZ1h8k+V7aUGzh&#xA;nlgupLhYkhtSpiVeKwopPISA1NKUxVd5X/J+Pyf+YUWveWpmGjXthLZ65bXtzcXE7Sq6yW0sLSiW&#xA;vGjKwLqADtXFUsP5P+Yj/wA48x/lybiyOvxQhYrsvL9VWVbz6wrrJ6Xqii9D6da4qnOteW/zKs/z&#xA;D1DzN5Wj0a4tNR0+0spYtUuLqGRHtZJn5KIIJlIPr/zYql/5meUPza85eTtL0VG0a1kmuGk802y3&#xA;V4kE9vFKGhtoZlt2l4Sp/ekqpB2FRXFWU+Tk/MaCcWvmGw0Ky0aC39O0TR57qR1dCqxp6c0ECLGI&#xA;+XQ7bbYqyzFXYq7FXYq7FXYq7FXYq7FXYq7FXYq7FXzl5X0z8wbr8pW/MjTfO+sHzBajUbw6ZfTJ&#xA;c6ZLHYXU6GAwOnNecUFOXqbHpTsq9Ch/O6xuNO0d9O0LUtc1TUNJt9avrDS0jkNpbzoD+8eaSFS5&#xA;bkERas1MVR2tfnFoVlp/lq50uwvddufN0bz6JY2KRiV4oo1llZzM8apwWQVBNa7Yqhrfz/pPmbUP&#xA;ImoaZf6nYQaxd6hCNOEMCrJLZ20xmgvw5Z4/SMLcfTJq30MFVDTPzysNV17Q7Gw0HUTpPmG8ns9M&#xA;1+cRR2kwtY5GkkjAd5d2iIUMi8hv2piql5c/5yC8v69PockGg6zaaN5guPqOna1dQRJbNd/FSE8J&#xA;ZG3KFQwBFajsaKsy86+c7HyppttdXFrcX9zf3Uen6bp9mivNcXUwZkjXmyIvwxsxZmAAGKsWm/Pf&#xA;yxbeXpdXutM1OKa21ZNBu9KWGGS7jvpE5qnFJWR1boCjmp7Yqq2P52+X20rzLfazpuoaFceVPQOq&#xA;6dexIZ6XgP1X0vSeRH9ZhxX4uvtviqTaJ+YWt65+dWmaVNYapoFsuh3VxcaPqIRBIxniENwBFJLG&#xA;3wll61U1BxVkP51+YtU0byJNDoszQeYNcubbRtFkQ8WF1fSiMMrdQyx82B9sVSj8t/M+o6Fp/nfQ&#xA;/M19c6teeSbqa4+syt6l1Npc0H1u1Zi5Xk5UOvUDamKpZ5t/P65P5bat5p8reXtVUW0ds9lqWo2i&#xA;RWTrO9DKKzq8iJx4EoD8TLSq1IVZ7ZfmDp0utQ6Nf2F7pF/NpkmsenfLAAkEM/oSIzQzTD1FqrkC&#xA;o4sN61AVSHR/z48o6r5Jv/NsFnqMdrp9zBZtp80UK3ssl36Jt/SjExRllFyhUlxtXFV2tfndoWl3&#xA;2pgaRql7omh3Istc8wW0MbWdrP8ACHVuUiyv6XIeqUQ8ffFUdqP5saPaecH8p2+k6rqmpxraSSya&#xA;fbLPbpDeEhZ3l9RQkcfH4y3j8IbeirHfy9/NCAJDoN695rfmS/1jVkjtbfjNJb2VvqE0Sz3DSPGs&#xA;UEaqEWpqeignFXrOKuxV2KuxV2KuxV2KuxV2KuxV2KuxV2KuxV4Pof5d/nhb+Qz+XiyaLpeiTG7i&#xA;utbSW4uLwW17cSzSrFCEjj9TjOVFWG3euKrvOP5FX0fmK01DQdJsdf0xdJtdHGn6le3Nk1s1ivpw&#xA;XAkth+8T06B06+HXZVG6n+TvmG18peWNKitdN80W2i2c1tqGh3zG0gkuJmEqXVnOkcjwyRPVB9mq&#xA;H7QOKo/y7+XfnTStP8hT6xdrqN35Wm1S61P05ZZ5BHd2lxHBb2zT8nl9P1VQeo3QYq8l/J+5ks/N&#xA;fkjnqEHmW6mmuQ+hxzXYuNFkuUd7i5e0YC3iK8mWTYCpPAb1Cr1ny9+VvmXT/wAt/IPl2drY6h5a&#xA;1e21DUSsjGMwwzTSN6bcQWakooCBiqefnL5T80eZdC0620IJdR21/Fcaro8tzJZJf2iqwe3aeIFl&#xA;BYht9tvoxVhvlf8AJrzXp9lDHdW2lWdPNlh5g+pacXS1htbW3WNo4lZKl1ddq/a+1sTiqfec/wAr&#xA;Nd1+888zW1xBbtrlvojaLLIWIW60eWWek6gbRs7ItRXYk02xVU0Hy7+ZGo/mlZ+cfMtjp+l2FnpV&#xA;xpsVjaXT3UvqSSxyGRnMUS0fgaAfZFOpxVHfmH+XN55182eXBfyNF5W0Zbm7uBb3EtvdSXzqI7fg&#xA;0XFkES8m5BwammKpFdfkxfaTr+q3Xli4eXTtf0C90nVE1K8uLiYXRWtnKsk3qsV+JkYcqKNwMVT/&#xA;AMy/l3qGt/kqfIizw22onSrWyEx5GBZ7VYzQkDlwLxUqFrTenbFUh/M3yJ+ZPmzQNGvrEadYecLW&#xA;PUdPv0S4la0+palBJbyNFKYlkJ+GKRQUFD8t1UPd/kvrUX5haRNpslsnkiE6RdanA7stw11oUE8F&#xA;qqRhSjIwaEtVh9n23VWaz+XP5lJY+bvKOjppsvl3zhqF1ftrVxNIlxZx6gwa6ia1WMiVh8XpESD/&#xA;ACsVZv5V8m3eiedfMOqfu/0Xf2OkWWngMWlH6OSdJOYI2/vVpua4qwXy9+Tfmvynq3+LPLk1unmG&#xA;61S+k17T5ZpPqmoabdXTyRKW4t6U8KMpQqtK1Br3Ve14q7FXYq7FXYq7FXYq7FXYq7FXYq7FXYq7&#xA;FX//2Q==</xmpGImg:image>
               </rdf:li>
            </rdf:Alt>
         </xmp:Thumbnails>
         <xmpTPg:MaxPageSize rdf:parseType="Resource">
            <stDim:w>427.540009</stDim:w>
            <stDim:h>213.679993</stDim:h>
            <stDim:unit>Pixels</stDim:unit>
         </xmpTPg:MaxPageSize>
         <xmpTPg:NPages>1</xmpTPg:NPages>
         <xmpTPg:HasVisibleTransparency>False</xmpTPg:HasVisibleTransparency>
         <xmpTPg:HasVisibleOverprint>False</xmpTPg:HasVisibleOverprint>
         <xmpTPg:PlateNames>
            <rdf:Seq>
               <rdf:li>Cyan</rdf:li>
               <rdf:li>Magenta</rdf:li>
               <rdf:li>Yellow</rdf:li>
               <rdf:li>Black</rdf:li>
            </rdf:Seq>
         </xmpTPg:PlateNames>
         <xmpTPg:SwatchGroups>
            <rdf:Seq>
               <rdf:li rdf:parseType="Resource">
                  <xmpG:groupName>Default Swatch Group</xmpG:groupName>
                  <xmpG:groupType>0</xmpG:groupType>
               </rdf:li>
            </rdf:Seq>
         </xmpTPg:SwatchGroups>
         <dc:format>image/svg+xml</dc:format>
      </rdf:Description>
   </rdf:RDF>
</x:xmpmeta>
                                                                                                    
                                                                                                    
                                                                                                    
                                                                                                    
                                                                                                    
                                                                                                    
                                                                                                    
                                                                                                    
                                                                                                    
                                                                                                    
                                                                                                    
                                                                                                    
                                                                                                    
                                                                                                    
                                                                                                    
                                                                                                    
                                                                                                    
                                                                                                    
                                                                                                    
                                                                                                    
                           
<?xpacket end="w"?>
	</metadata>
<title>T_TitleScreen_Credits</title>
<g id="Layer_2_1_">
	<g id="credits">
		<path d="M8,19.8H0.8V0.4h7.1c3.4,0,5.8,2,5.8,4.7c0,1-0.2,1.9-0.8,2.7c-0.4,0.5-1,1-1.6,1.3c-0.2,0.1-0.5,0.2-0.7,0.3
			c1.2,0.2,2.3,0.9,3,1.9c0.6,0.9,0.9,2,0.8,3.1c0.1,2.1-1.2,4.1-3.1,4.9C10.3,19.7,9.1,19.9,8,19.8z M7.5,2.6H3.2v5.7h3.8
			c2.7,0,4.1-1.1,4.1-3C11.1,3.5,9.9,2.6,7.5,2.6z M7.5,10.5H3.2v7.1h4.1c2.9,0,4.6-1.3,4.6-3.4C11.9,11.8,10.4,10.5,7.5,10.5
			L7.5,10.5z"/>
		<path d="M21,15.1l-1.5,4.7h-2.6l6.1-19.5h4.6l6.2,19.5h-2.5l-1.5-4.7H21z M29.2,12.9L25.4,1.1l-3.7,11.7H29.2z"/>
		<path d="M35.9,10.4c-0.1-2.7,0.8-5.4,2.5-7.6C39.9,1,42.2,0,44.6,0c2,0,3.9,0.6,5.4,1.9c1.3,1.2,2.2,2.8,2.6,4.6
			c0.1,0.7,0.2,1.3,0.2,2c0,0.3,0,0.5,0,0.8h-2.6c0-0.2,0-0.4,0-0.6c0-1.6-0.5-3.2-1.5-4.5c-1-1.2-2.5-1.8-4-1.8
			c-3.6,0-6.1,2.8-6.1,7.5c0,1.6,0.3,3.3,1,4.8c0.5,0.9,1.2,1.7,2.1,2.3c0.7,0.4,1.5,0.6,2.3,0.8c0.3,0,0.6,0,0.8,0
			c2.4,0.1,4.5-1.5,5-3.8c0.2-0.8,0.3-1.6,0.3-2.5h2.6c0,5.3-3.1,8.7-7.9,8.7c-1.9,0.1-3.7-0.5-5.3-1.5c-1.2-0.9-2.1-2-2.6-3.4
			c-0.4-1.2-0.7-2.4-0.8-3.6C35.9,11.4,35.9,10.9,35.9,10.4z"/>
		<path d="M58.8,13.2v6.7h-2.4V0.4h2.4v9.1l8.7-9.1h3.3l-7.9,8.4l8.2,11.1h-3l-6.9-9.3L58.8,13.2z"/>
		<path d="M72.5,11.5h2.4c0.1,4.4,1.7,6.4,5.6,6.4c1.7,0,2.9-0.4,3.4-1.1c0.6-0.6,0.8-1.5,0.8-2.3c0-1.9-1.2-3-4.3-3.8
			c-4.6-1.1-6.8-2.8-6.8-5.8S76,0,80,0c4.7,0,7.1,2.3,7.1,7c0,0.2,0,0.3,0,0.5h-2.4V7.4c0-1-0.1-2-0.5-3c-0.3-0.6-0.8-1.2-1.4-1.5
			c-0.6-0.3-1.3-0.4-1.9-0.5c-0.3,0-0.6,0-1,0c-2.4,0-3.8,1-3.8,2.7c0,0.7,0.3,1.3,0.8,1.7c0.6,0.5,1.2,0.8,1.9,1
			C79.5,8,80,8.1,80.8,8.3h0.1h0.2c1.2,0.2,2.3,0.7,3.4,1.2c1.1,0.6,1.9,1.5,2.3,2.6c0.2,0.7,0.4,1.4,0.3,2.1
			c0.1,1.2-0.2,2.4-0.9,3.5c-0.8,1.2-2,2-3.4,2.3c-1,0.2-2,0.3-3,0.3c-1.9,0.1-3.7-0.5-5.2-1.7c-1.2-1.1-2-2.7-2.2-4.3
			c-0.1-0.7-0.2-1.4-0.2-2.1C72.5,12,72.5,11.8,72.5,11.5z"/>
		<path d="M102.7,17.6v2.2H90.8V0.4h11.9v2.2h-9.5v6.1h9.4v2.2h-9.4v6.7H102.7z"/>
		<path d="M110.3,15.1l-1.5,4.7h-2.5l6.2-19.5h4.6l6.2,19.5h-2.5l-1.5-4.7H110.3z M118.4,12.9l-3.7-11.7L111,12.9H118.4z"/>
		<path d="M129.8,19.8V2.6h-6.4V0.4h15.3v2.2h-6.4v17.2H129.8z"/>
		<path d="M151.7,12v7.9h-2.5V0.4h7.1c3.6,0,5.5,2.3,5.5,5.8s-2.1,5.8-6.1,5.8H151.7z M155.4,2.8h-3.8v6.8h2.7c0.6,0,1.2,0,1.7-0.1
			c0.5,0,1-0.1,1.5-0.3c0.4-0.1,0.8-0.4,1.1-0.7c0.3-0.4,0.5-0.9,0.6-1.4c0.1-0.3,0.1-0.7,0.1-1C159.4,3.8,158.2,2.8,155.4,2.8
			L155.4,2.8z"/>
		<path d="M168,11.3v8.5h-2.4V0.4h7.1c3.7,0,6,2.3,6,5.8c0,2-0.9,3.6-2.3,4c1.4,0.4,2.4,1.8,2.3,3.3v6.4h-2.4v-6.3
			c0-0.8-0.5-1.5-1.2-1.8c-0.9-0.3-1.9-0.5-2.9-0.4H168z M172.1,2.6H168v6.5h4.4c3,0,3.8-0.8,3.8-2.9C176.2,3.5,175.1,2.6,172.1,2.6
			L172.1,2.6z"/>
		<path d="M188.3,14.6c0-2.2,0.9-3.8,2.7-4.4c-1.8-0.7-2.7-2.4-2.7-4.6c0-3.3,2.2-5.5,5.8-5.5s5.7,2.2,5.7,5.9h-2.6
			c0-2.7-1.1-3.7-3.2-3.7s-3.2,1.1-3.2,3.4s1,3.5,3.2,3.5h7.6v2.1h-1.9v3.5c0.1,2.3,1.1,3.4,3.2,3.4v2.2c-2.5,0-4-0.9-4.6-2.6
			c-0.5,1.6-2.2,2.6-4.4,2.6C190.4,20.3,188.3,18,188.3,14.6z M190.8,14.7c0,2.3,1,3.4,3.2,3.4s3.1-1.1,3.2-3.4v-3.5H194
			C191.8,11.2,190.8,12.3,190.8,14.7z"/>
		<path d="M224.1,17.6v2.2h-11.7V0.4h2.4v17.3H224.1z"/>
		<path d="M231.3,15.1l-1.5,4.7h-2.5l6.1-19.5h4.6l6.2,19.5h-2.5l-1.5-4.7H231.3z M239.4,12.9l-3.7-11.7L232,12.9H239.4z"/>
		<path d="M255.4,19.8h-7.2V0.4h7.1c3.4,0,5.8,2,5.8,4.7c0,1-0.2,1.9-0.8,2.7c-0.4,0.5-1,1-1.6,1.3c-0.2,0.1-0.5,0.2-0.7,0.3
			c1.2,0.2,2.3,0.9,3,1.9c0.6,0.9,0.8,2,0.8,3.1c0.1,2.1-1.2,4.1-3.1,4.9C257.7,19.7,256.6,19.9,255.4,19.8z M254.9,2.6h-4.3v5.7
			h3.8c2.7,0,4.1-1.1,4.1-3C258.6,3.5,257.3,2.6,254.9,2.6z M254.9,10.5h-4.3v7.1h4.1c2.9,0,4.6-1.3,4.6-3.4
			C259.3,11.8,257.8,10.5,254.9,10.5L254.9,10.5z"/>
		<path d="M277.9,17.6v2.2H266V0.4h11.9v2.2h-9.5v6.1h9.5v2.2h-9.5v6.7H277.9z"/>
		<path d="M294.2,17.6v2.2h-11.7V0.4h2.4v17.3H294.2z"/>
		<path d="M296.1,11.5h2.4c0.1,4.4,1.7,6.4,5.6,6.4c1.7,0,2.9-0.4,3.5-1.1c0.6-0.6,0.8-1.5,0.8-2.3c0-1.9-1.2-3-4.4-3.8
			c-4.6-1.1-6.8-2.8-6.8-5.8s2.4-5,6.5-5c4.7,0,7.1,2.3,7.1,7c0,0.2,0,0.3,0,0.5h-2.4V7.4c0-1-0.1-2-0.5-3c-0.3-0.6-0.8-1.2-1.4-1.5
			c-0.6-0.3-1.3-0.4-1.9-0.5c-0.3,0-0.6,0-1,0c-2.4,0-3.8,1.1-3.8,2.7c0,0.7,0.3,1.3,0.8,1.7c0.6,0.5,1.2,0.8,1.9,1
			c0.8,0.3,1.3,0.4,2.1,0.6h0.1h0.2c1.2,0.2,2.3,0.7,3.4,1.2c1.1,0.6,1.9,1.5,2.3,2.6c0.2,0.7,0.4,1.4,0.4,2.1
			c0.1,1.2-0.2,2.4-0.9,3.5c-0.8,1.2-2,2-3.4,2.2c-1,0.2-2,0.3-3,0.3c-1.9,0.1-3.7-0.5-5.2-1.7c-1.2-1.1-2-2.7-2.2-4.3
			c-0.1-0.7-0.2-1.4-0.1-2.1C296.1,12,296.1,11.8,296.1,11.5z"/>
		<path d="M326.4,17.6v2.2h-11.9V0.4h11.9v2.2h-9.5v6.1h9.5v2.2h-9.5v6.7H326.4z"/>
		<path d="M333.4,11.3v8.5H331V0.4h7.1c3.7,0,6,2.3,6,5.8c0,2-0.9,3.6-2.3,4c1.4,0.5,2.3,1.8,2.2,3.3v6.4h-2.4v-6.3
			c0-0.8-0.5-1.5-1.3-1.8c-0.9-0.3-1.9-0.5-2.9-0.4H333.4z M337.5,2.6h-4.1v6.5h4.4c3,0,3.8-0.8,3.8-2.9
			C341.6,3.5,340.5,2.6,337.5,2.6z"/>
		<path d="M357.4,19.8h-4.6l-6-19.4h2.5l5.8,18.7l5.8-18.7h2.5L357.4,19.8z"/>
		<path d="M374.4,19.8h-8v-2.2h2.8V2.6h-2.8V0.4h8v2.2h-2.8v15.1h2.8L374.4,19.8z"/>
		<path d="M377.9,10.4c-0.1-2.7,0.8-5.4,2.5-7.6c1.6-1.8,3.9-2.9,6.3-2.8c2-0.1,3.9,0.6,5.4,1.9c1.3,1.2,2.2,2.8,2.6,4.6
			c0.1,0.7,0.2,1.3,0.2,2c0,0.3,0,0.5,0,0.8h-2.6c0-0.2,0-0.4,0-0.6c0-1.6-0.5-3.2-1.5-4.5c-1-1.2-2.5-1.8-4-1.8
			c-3.6,0-6.2,2.9-6.2,7.5c0,1.6,0.3,3.3,1,4.8c0.5,0.9,1.2,1.7,2.1,2.3c0.7,0.4,1.5,0.6,2.3,0.8c0.3,0,0.6,0,0.8,0
			c2.4,0.1,4.5-1.5,5-3.8c0.2-0.8,0.3-1.6,0.4-2.5h2.6c0,5.3-3.1,8.7-7.9,8.7c-1.9,0.1-3.7-0.5-5.3-1.5c-1.1-0.9-2-2-2.6-3.4
			c-0.5-1.2-0.7-2.4-0.9-3.6C377.9,11.4,377.9,10.9,377.9,10.4z"/>
		<path d="M410.3,17.6v2.2h-11.9V0.4h11.9v2.2h-9.5v6.1h9.5v2.2h-9.5v6.7H410.3z"/>
		<path d="M412.8,11.5h2.4c0.1,4.4,1.7,6.4,5.6,6.4c1.7,0,2.9-0.4,3.5-1.1c0.6-0.6,0.8-1.5,0.8-2.3c0-1.9-1.2-3-4.4-3.8
			c-4.6-1.1-6.8-2.8-6.8-5.8s2.4-5,6.5-5c4.7,0,7.1,2.3,7.1,7c0,0.2,0,0.3,0,0.5H425V7.4c0-1-0.1-2-0.5-3c-0.3-0.6-0.8-1.2-1.4-1.5
			c-0.6-0.3-1.3-0.4-1.9-0.5c-0.3,0-0.6,0-1,0c-2.4,0-3.8,1.1-3.8,2.7c0,0.7,0.3,1.3,0.8,1.7c0.6,0.5,1.2,0.8,1.9,1
			c0.8,0.3,1.3,0.4,2.1,0.6h0.1h0.2c1.2,0.2,2.3,0.7,3.4,1.2c1.1,0.6,1.9,1.5,2.3,2.6c0.2,0.7,0.4,1.4,0.4,2.1
			c0.1,1.2-0.2,2.4-0.9,3.5c-0.8,1.2-2,2-3.3,2.2c-1,0.2-2,0.3-3,0.3c-1.9,0.1-3.7-0.5-5.2-1.7c-1.2-1.1-2-2.7-2.2-4.3
			c-0.1-0.7-0.2-1.4-0.2-2.1C412.8,12,412.8,11.8,412.8,11.5z"/>
		<path d="M8.1,46.8h-8v-2.2h2.8V29.6H0.1v-2.2h8v2.2H5.3v15.1h2.8V46.8z"/>
		<path d="M17.2,33.2c1.7-0.1,3.3,0.9,4,2.5v-8.3h2.3v19.4h-2.2v-2.2c-0.6,1.6-1.8,2.6-4.2,2.6c-3.2,0-5.3-2.8-5.3-6.9
			C11.7,36,13.8,33.2,17.2,33.2z M17.5,45.3c2.3,0,3.7-1.9,3.7-5.2c0-3.1-1.5-5-3.7-5s-3.5,2-3.5,5.3C14,43.6,15.4,45.3,17.5,45.3z"
			/>
		<path d="M27.2,40.2c0-4.1,2.6-7,6.2-7c1.8-0.1,3.5,0.8,4.5,2.3c0.8,1.4,1.2,3,1.1,4.6c0,0.3,0,0.5,0,0.8h-9.5
			c-0.1,1.2,0.4,2.4,1.2,3.3c0.7,0.7,1.6,1,2.6,1h0.1c1.8,0.1,3.2-1.3,3.3-3.1c0,0,0,0,0,0H39c0,1-0.4,2-0.9,2.9
			c-0.6,1-1.5,1.7-2.6,2c-0.7,0.2-1.4,0.3-2.1,0.3C29.5,47.3,27.2,44.4,27.2,40.2z M29.6,38.9h7.2c0-2.5-1.4-3.7-3.4-3.7
			C31.3,35.2,29.6,36.8,29.6,38.9C29.6,38.9,29.6,38.9,29.6,38.9z"/>
		<path d="M41.9,43.5c0-2.4,1.6-3.8,3.9-4.3c3.2-0.8,4.5-1.1,4.5-2.2c0-0.9-0.2-1.3-0.9-1.6c-0.5-0.2-1-0.3-1.6-0.2
			c-2.1,0-3.2,0.9-3.2,3.3h-2.3v-0.2c0-3.1,2.1-5,5.4-5c1.8,0,3.1,0.4,3.8,1.1c0.7,0.7,1.1,1.7,1,2.7v9.8h-2.3v-2.3
			c-0.8,1.7-2.5,2.8-4.4,2.8c-2,0.2-3.8-1.3-4-3.3C41.9,43.8,41.9,43.7,41.9,43.5z M44.1,43.4c0,1.1,0.8,2,1.9,2c0.1,0,0.2,0,0.4,0
			c1.4-0.1,2.8-0.8,3.5-2.1c0.3-0.5,0.5-1,0.5-1.6v-2.3c-0.4,0.2-0.8,0.4-1,0.5c-0.1,0.1-0.3,0.1-0.5,0.2l-0.4,0.1L48,40.5l-0.5,0.2
			c-0.8,0.2-1.6,0.5-2.3,0.9C44.5,41.9,44.1,42.7,44.1,43.4z"/>
		<path d="M62,43.5c0-2.4,1.6-3.8,3.9-4.3c3.2-0.8,4.5-1.1,4.5-2.2c0-0.9-0.2-1.3-0.9-1.6c-0.5-0.2-1-0.3-1.5-0.2
			c-2.1,0-3.2,0.9-3.2,3.3h-2.3v-0.2c0-3.1,2.1-5,5.4-5c1.4-0.1,2.7,0.3,3.8,1.1c0.7,0.7,1.1,1.7,1,2.7v9.8h-2.3v-2.3
			c-0.8,1.7-2.5,2.8-4.4,2.8c-2,0.2-3.8-1.3-4-3.3C62,43.8,62,43.7,62,43.5z M64.3,43.4c0,1.1,0.8,2,1.9,2c0.1,0,0.2,0,0.4,0
			c1.5,0,2.8-0.8,3.5-2.1c0.3-0.5,0.5-1,0.5-1.6v-2.2c-0.4,0.2-0.8,0.4-1,0.5c-0.1,0.1-0.3,0.1-0.5,0.2l-0.4,0.1l-0.5,0.1l-0.5,0.2
			c-0.8,0.2-1.6,0.5-2.3,0.9C64.7,41.9,64.3,42.6,64.3,43.4L64.3,43.4z"/>
		<path d="M78.7,40.1v6.8h-2.3V33.6h2.3v2.2c0.7-1.7,2.5-2.7,4.3-2.6c2.2-0.2,4.1,1.5,4.3,3.7c0,0.1,0,0.3,0,0.4v9.6H85v-9.1
			c0.2-1.2-0.7-2.3-1.9-2.5c-0.2,0-0.3,0-0.5,0C80.1,35.2,78.7,37.1,78.7,40.1z"/>
		<path d="M96.2,33.2c1.7-0.1,3.3,0.9,4,2.5v-8.3h2.3v19.4h-2.2v-2.2c-0.7,1.6-1.8,2.6-4.2,2.6c-3.2,0-5.3-2.8-5.3-6.9
			C90.7,36,92.9,33.2,96.2,33.2z M96.5,45.3c2.3,0,3.7-1.9,3.7-5.2c0-3.1-1.5-5-3.7-5s-3.5,2-3.5,5.3C93.1,43.6,94.4,45.3,96.5,45.3
			z"/>
		<path d="M113.1,37.4c-0.1-2.7,0.8-5.4,2.4-7.6c1.6-1.8,3.9-2.9,6.3-2.8c2,0,3.9,0.6,5.4,1.9c1.3,1.2,2.2,2.8,2.6,4.6
			c0.1,0.6,0.2,1.3,0.2,2c0,0.3,0,0.5,0,0.8h-2.6c0-0.2,0-0.4,0-0.5c0-1.6-0.5-3.2-1.6-4.5c-1-1.2-2.5-1.8-4-1.8
			c-3.7,0-6.2,2.9-6.2,7.5c0,1.6,0.3,3.3,1,4.8c0.5,0.9,1.2,1.7,2.1,2.3c0.7,0.4,1.5,0.6,2.3,0.8c0.3,0,0.6,0,0.8,0
			c2.4,0.1,4.5-1.5,5.1-3.8c0.2-0.8,0.3-1.6,0.3-2.5h2.6c0,5.3-3.1,8.7-7.9,8.7c-1.9,0.1-3.7-0.5-5.3-1.5c-1.2-0.9-2.1-2-2.6-3.4
			c-0.5-1.2-0.8-2.4-0.9-3.6C113.2,38.3,113.1,37.9,113.1,37.4z"/>
		<path d="M132.5,40.1c0-4.2,2.2-6.9,6-6.9l0,0c3.8,0,6,2.7,6,6.9c0,4.4-2.2,7.1-6.1,7.1S132.5,44.5,132.5,40.1z M134.8,40.3
			c0,3.3,1.4,4.9,3.7,4.9s3.7-1.6,3.7-4.9s-1.3-5-3.7-5S134.8,36.9,134.8,40.3L134.8,40.3z"/>
		<path d="M150.7,40.1v6.8h-2.3V33.6h2.3v2.2c0.8-1.7,2.5-2.7,4.3-2.6c2.2-0.2,4.1,1.5,4.3,3.7c0,0.1,0,0.3,0,0.4v9.6H157v-9.1
			c0.2-1.2-0.7-2.3-1.9-2.5c-0.2,0-0.3,0-0.5,0C152.1,35.2,150.7,37.1,150.7,40.1z"/>
		<path d="M162.8,40.1c0-4.1,2.5-6.9,6.3-6.9c1.6,0,3.2,0.6,4.4,1.7c1,1,1.6,2.4,1.5,3.9c0,0.2,0,0.4,0,0.6h-2.2v-0.3
			c0-0.9-0.2-1.9-0.8-2.6c-0.5-0.6-1.2-1-1.9-1.2c-0.4-0.1-0.7-0.1-1.1-0.1c-2.3,0-3.9,1.7-3.9,4.9s1.5,5,4,5c0.7,0,1.3-0.2,1.9-0.5
			c0.7-0.4,1.2-1.1,1.5-1.9c0.2-0.5,0.3-1.1,0.3-1.6h2.2c-0.1,4-2.2,6-6,6c-2.4,0.2-4.6-1.2-5.5-3.4C163,42.6,162.8,41.3,162.8,40.1
			z"/>
		<path d="M178.1,40.2c0-4.1,2.6-7,6.2-7c1.8-0.1,3.5,0.8,4.4,2.3c0.8,1.4,1.2,3,1.1,4.6c0,0.3,0,0.5,0,0.8h-9.4
			c-0.1,1.2,0.4,2.4,1.2,3.3c0.7,0.7,1.6,1,2.6,1h0.1c1.8,0.1,3.2-1.3,3.3-3.1c0,0,0,0,0,0h2.2c0,1-0.3,2-0.9,2.9
			c-0.6,1-1.5,1.7-2.6,2c-0.7,0.2-1.4,0.3-2.1,0.3C180.3,47.3,178.1,44.4,178.1,40.2z M180.4,38.9h7.2c0-2.5-1.4-3.7-3.4-3.7
			C182.2,35.2,180.5,36.8,180.4,38.9C180.4,38.9,180.4,38.9,180.4,38.9z"/>
		<path d="M196.2,35.7c0.7-1.6,2.4-2.6,4.2-2.5c3.2,0,5.3,2.8,5.3,6.9c0,4.3-2.1,7.1-5.4,7.1c-1.8,0.2-3.4-0.9-4-2.6V52H194V33.6
			h2.2V35.7z M200,45.3c2.2,0,3.5-2,3.5-5.4c0-3.1-1.4-4.8-3.5-4.8c-2.3,0-3.7,1.9-3.7,5.1S197.7,45.3,200,45.3z"/>
		<path d="M209.9,42.8v-7.4h-2.1v-1.8h2.1v-3.9h2.3v3.9h3.1v1.8h-3.1v7c0,0.4,0,0.8,0.2,1.2c0.1,0.3,0.2,0.5,0.5,0.7
			c0.2,0.2,0.4,0.3,0.7,0.3c0.3,0.1,0.6,0.1,0.8,0.1h1.5v2H215c-0.8,0-1.6,0-2.4-0.1c-0.6-0.1-1.2-0.3-1.7-0.7
			c-0.5-0.5-0.8-1.1-0.9-1.8C209.9,43.7,209.9,43.2,209.9,42.8z"/>
		<path d="M3.2,91.9v8.9H0.8V81.4h2.4v8.3h12.4v-8.3h2.4v19.5h-2.4v-8.9H3.2z"/>
		<path d="M22.9,99.2c0-0.9,0.8-1.7,1.7-1.7c0.9,0,1.7,0.7,1.7,1.6c0,0,0,0,0,0c0.1,0.9-0.6,1.7-1.5,1.8c-0.9,0.1-1.7-0.6-1.8-1.5
			C22.9,99.4,22.9,99.3,22.9,99.2z"/>
		<path d="M29.1,92.5h2.4c0.1,4.4,1.7,6.4,5.6,6.4c1.7,0,2.9-0.4,3.5-1.1c0.6-0.6,0.8-1.5,0.8-2.3c0-1.9-1.2-3-4.3-3.8
			c-4.6-1.1-6.8-2.8-6.8-5.8s2.4-5,6.5-5c4.7,0,7.1,2.3,7.1,7c0,0.2,0,0.3,0,0.5h-2.4v-0.2c0-1-0.1-2-0.5-3
			c-0.3-0.6-0.8-1.2-1.4-1.5c-0.6-0.3-1.3-0.4-1.9-0.5c-0.3,0-0.6,0-1,0c-2.4,0-3.8,1.1-3.8,2.7c0,0.7,0.3,1.3,0.8,1.7
			c0.6,0.5,1.2,0.8,1.9,1c0.8,0.3,1.3,0.4,2.1,0.6h0.1l0.2,0.1c1.2,0.2,2.3,0.7,3.4,1.2c1.1,0.6,1.9,1.5,2.3,2.6
			c0.2,0.7,0.4,1.4,0.3,2.1c0.1,1.2-0.2,2.4-0.9,3.5c-0.8,1.2-2,2-3.4,2.2c-1,0.2-2,0.3-3,0.3c-1.9,0.1-3.7-0.5-5.2-1.7
			c-1.2-1.1-2-2.7-2.2-4.3c-0.1-0.7-0.2-1.4-0.2-2.1C29.1,93,29.1,92.8,29.1,92.5z"/>
		<path d="M47.2,99.2c0-0.9,0.8-1.7,1.7-1.7c0.9,0,1.7,0.7,1.7,1.6c0,0,0,0,0,0c0.1,0.9-0.6,1.7-1.5,1.8s-1.7-0.6-1.8-1.5
			C47.2,99.4,47.2,99.3,47.2,99.2z"/>
		<path d="M64.3,91.9v8.9h-2.4V81.4h11.6v2.2h-9.2v6.1h9.2v2.2H64.3z"/>
		<path d="M80.3,92.3v8.5h-2.5V81.4H85c3.7,0,6,2.3,6,5.8c0,2-0.9,3.6-2.3,4c1.4,0.4,2.4,1.8,2.3,3.3v6.4h-2.5v-6.3
			c0-0.8-0.5-1.5-1.3-1.8c-0.9-0.3-1.9-0.5-2.9-0.4L80.3,92.3z M84.4,83.6h-4.1v6.5h4.4c3,0,3.8-0.8,3.8-2.9
			C88.5,84.5,87.4,83.6,84.4,83.6z"/>
		<path d="M107.6,98.6v2.2H95.7V81.4h11.9v2.2h-9.5v6.1h9.4v2.2h-9.4v6.7L107.6,98.6z"/>
		<path d="M117.1,100.9v-8.7L111,81.4h2.8l4.5,8l4.5-8h2.8l-6.1,10.8v8.7H117.1z"/>
		<path d="M140.9,98.6v2.2H129V81.4h11.9v2.2h-9.5v6.1h9.4v2.2h-9.4v6.7L140.9,98.6z"/>
		<path d="M148,92.3v8.5h-2.4V81.4h7.1c3.7,0,6,2.3,6,5.8c0,2-0.9,3.6-2.3,4c1.4,0.4,2.4,1.8,2.3,3.3v6.4h-2.4v-6.3
			c0-0.8-0.5-1.5-1.3-1.8c-0.9-0.3-1.9-0.5-2.9-0.4L148,92.3z M152.1,83.6H148v6.5h4.4c3,0,3.8-0.8,3.8-2.9
			C156.2,84.5,155.1,83.6,152.1,83.6L152.1,83.6z"/>
		<path d="M168.2,95.6c0-2.2,0.9-3.8,2.7-4.4c-1.8-0.7-2.7-2.4-2.7-4.6c0-3.3,2.2-5.5,5.8-5.5s5.7,2.2,5.7,5.9h-2.6
			c0-2.7-1.1-3.7-3.2-3.7s-3.2,1.1-3.2,3.4s1,3.5,3.2,3.5h7.6v2.1h-1.9v3.5c0.1,2.3,1.1,3.4,3.2,3.4v2.2c-2.5,0-4-0.9-4.6-2.6
			c-0.5,1.6-2.2,2.6-4.4,2.6C170.4,101.3,168.2,99,168.2,95.6z M170.8,95.7c0,2.3,1,3.4,3.2,3.4s3.1-1.1,3.2-3.4v-3.5h-3.2
			C171.8,92.2,170.8,93.3,170.8,95.7z"/>
		<path d="M194.8,91.9v8.9h-2.4V81.4H204v2.2h-9.2v6.1h9.2v2.2H194.8z"/>
		<path d="M205.6,99.2c0-0.9,0.8-1.7,1.7-1.7c0.9,0,1.7,0.7,1.7,1.6c0,0,0,0,0,0c0.1,0.9-0.6,1.7-1.5,1.8c-0.9,0.1-1.7-0.6-1.8-1.5
			C205.6,99.4,205.6,99.3,205.6,99.2L205.6,99.2z"/>
		<path d="M222.7,93v7.9h-2.5V81.4h7.1c3.6,0,5.5,2.3,5.5,5.8s-2.1,5.8-6.1,5.8H222.7z M226.4,83.8h-3.8v6.9h2.7
			c0.6,0,1.2,0,1.7-0.1c0.5,0,1-0.1,1.5-0.3c0.4-0.1,0.8-0.4,1.1-0.7c0.3-0.4,0.5-0.9,0.6-1.4c0.1-0.3,0.1-0.7,0.1-1
			C230.3,84.8,229.2,83.8,226.4,83.8L226.4,83.8z"/>
		<path d="M237.3,96.1l-1.5,4.7h-2.5l6.1-19.5h4.6l6.2,19.5h-2.5l-1.5-4.7H237.3z M245.5,93.8l-3.7-11.7l-3.7,11.7H245.5z"/>
		<path d="M252.3,92.5h2.4c0.1,4.4,1.7,6.4,5.6,6.4c1.7,0,2.9-0.4,3.5-1.1c0.6-0.6,0.8-1.5,0.8-2.3c0-1.9-1.2-3-4.4-3.8
			c-4.6-1.1-6.8-2.8-6.8-5.8s2.4-5,6.4-5c4.7,0,7.1,2.3,7.1,7c0,0.2,0,0.3,0,0.5h-2.4v-0.2c0-1-0.1-2-0.5-3
			c-0.3-0.6-0.8-1.2-1.4-1.5c-0.6-0.3-1.3-0.4-1.9-0.5c-0.3,0-0.6,0-1.1,0c-2.4,0-3.8,1.1-3.8,2.7c0,0.7,0.3,1.3,0.8,1.7
			c0.6,0.5,1.2,0.8,1.9,1c0.8,0.3,1.3,0.4,2.1,0.6h0.1l0.2,0.1c1.2,0.2,2.3,0.7,3.4,1.2c1.1,0.6,1.9,1.5,2.3,2.6
			c0.2,0.7,0.3,1.4,0.3,2.1c0.1,1.2-0.2,2.4-0.9,3.5c-0.8,1.2-2,1.9-3.4,2.2c-1,0.2-2,0.3-3,0.3c-1.9,0.1-3.7-0.5-5.2-1.7
			c-1.2-1.1-2-2.7-2.2-4.3c-0.1-0.7-0.2-1.4-0.2-2.1C252.3,93,252.3,92.8,252.3,92.5z"/>
		<path d="M278,100.8h-8v-2.2h2.8V83.6H270v-2.2h8v2.2h-2.8v15.1h2.8V100.8z"/>
		<path d="M284.8,82v18.8h-2.4V81.4h4.8l6.6,18.7V81.4h2.4v19.4h-4.8L284.8,82z"/>
		<path d="M3.3,120v7.9H0.8v-19.5h7.1c3.6,0,5.5,2.3,5.5,5.8s-2.1,5.8-6.1,5.8H3.3z M7,110.8H3.2v6.9H6c0.6,0,1.2,0,1.7-0.1
			c0.5,0,1-0.1,1.5-0.3c0.4-0.1,0.8-0.4,1.1-0.7c0.3-0.4,0.5-0.9,0.6-1.4c0.1-0.3,0.1-0.7,0.1-1C10.9,111.8,9.7,110.8,7,110.8z"/>
		<path d="M19,120.6v7.3h-2.1v-13.2h2.1v3c0.2-0.7,0.7-1.4,1.3-1.9c0.5-0.4,1-0.7,1.6-0.8c0.5-0.1,1-0.2,1.5-0.2h0.1
			c0.3,0,0.5,0,0.7,0h0.3v2.3h-1.1c-0.5,0-1,0-1.4,0.1c-0.5,0.1-1,0.3-1.4,0.5c-0.4,0.3-0.8,0.6-1.1,1.1
			C19.1,119.3,19,119.9,19,120.6z"/>
		<path d="M26,121.1c0-4.2,2.2-6.9,6-6.9l0,0c3.8,0,6,2.7,6,6.9c0,4.4-2.2,7.1-6,7.1S26,125.5,26,121.1z M28.3,121.3
			c0,3.3,1.4,4.9,3.7,4.9s3.7-1.6,3.7-4.9s-1.3-5-3.7-5S28.3,117.9,28.3,121.3L28.3,121.3z"/>
		<path d="M51.7,128.4c0.1,1.8-1.1,3.4-2.8,3.9c-0.9,0.3-1.9,0.5-2.9,0.4c-3.7,0-5.7-1.3-5.7-4c0-1.1,0.6-2.1,1.6-2.7
			c-0.5-0.3-0.8-0.8-1-1.4c-0.1-0.2-0.1-0.4-0.1-0.7c0-0.3,0.1-0.6,0.2-0.9c0.2-0.5,0.7-1,1.2-1.3c-0.7-0.8-1-1.8-1-2.9
			c-0.1-2.6,1.9-4.7,4.5-4.8c0.1,0,0.2,0,0.4,0c1,0,2,0.2,2.8,0.7v-1.7H51v5.8c0.1,2.5-1.8,4.7-4.4,4.8c-0.2,0-0.4,0-0.5,0
			c-1.1,0.1-2.2-0.3-3-1c-0.3,0.2-0.4,0.6-0.4,0.9c0,0.6,0.5,1.2,1.5,1.2h3.4C50.1,124.8,51.7,126.2,51.7,128.4z M49.6,128.6
			c0-1.3-0.8-1.9-2.3-1.9h-4.3c-0.5,0.5-0.8,1.2-0.8,1.9c0,1.5,1.3,2.4,3.7,2.4C48.2,130.9,49.6,130.1,49.6,128.6z M43.5,119
			c0,1.9,0.9,2.8,2.6,2.8s2.7-0.9,2.7-2.8c0-2.1-1.1-2.9-2.6-2.9h-0.1C44.5,116.1,43.5,117,43.5,119z"/>
		<path d="M56.7,120.6v7.3h-2.2v-13.2h2.1v3c0.2-0.7,0.7-1.4,1.3-1.9c0.5-0.4,1-0.7,1.6-0.8c0.5-0.1,1-0.2,1.5-0.2h0.1
			c0.3,0,0.5,0,0.7,0h0.3v2.3H61c-0.5,0-1,0-1.4,0.1c-0.5,0.1-1,0.3-1.4,0.5c-0.4,0.3-0.8,0.6-1.1,1.1
			C56.8,119.3,56.7,119.9,56.7,120.6z"/>
		<path d="M63.8,124.5c0-2.4,1.6-3.8,3.9-4.3c3.2-0.8,4.5-1.1,4.5-2.2c0-0.9-0.2-1.3-0.9-1.6c-0.5-0.2-1.1-0.3-1.6-0.2
			c-2.1,0-3.2,0.9-3.2,3.3h-2.3v-0.2c0-3.1,2.1-5,5.4-5c1.4-0.1,2.7,0.3,3.8,1.1c0.7,0.7,1.1,1.7,1,2.7v9.8h-2.3v-2.3
			c-0.8,1.7-2.5,2.8-4.4,2.8c-2,0.2-3.8-1.3-4-3.3C63.8,124.8,63.8,124.7,63.8,124.5z M66,124.4c0,1.1,0.8,2,1.9,2
			c0.1,0,0.2,0,0.4,0c1.4,0,2.8-0.8,3.5-2.1c0.3-0.5,0.5-1,0.5-1.6v-2.3c-0.4,0.2-0.8,0.4-1,0.5c-0.1,0.1-0.3,0.1-0.5,0.2l-0.4,0.1
			l-0.5,0.1l-0.5,0.2c-0.8,0.2-1.6,0.5-2.3,0.9C66.4,122.9,66,123.7,66,124.4z"/>
		<path d="M80.4,121.1v6.8h-2.3v-13.2h2.3v2.2c0.8-1.7,2.4-2.7,4.3-2.6c1.8-0.1,3.4,1,4,2.6c0.8-1.7,2.6-2.7,4.5-2.6
			c2.2-0.1,4,1.5,4.2,3.7c0,0.1,0,0.3,0,0.4v9.6h-2.3v-9.1c0.2-1.2-0.7-2.4-2-2.5c-0.1,0-0.3,0-0.4,0c-2.3,0-3.8,2-3.8,4.9v6.8h-2.3
			v-9.1c0.2-1.2-0.7-2.4-2-2.5c-0.1,0-0.3,0-0.4,0C81.9,116.2,80.4,118.3,80.4,121.1z"/>
		<path d="M104.2,121.1v6.8h-2.3v-13.2h2.3v2.2c0.8-1.7,2.4-2.7,4.3-2.6c1.8-0.1,3.4,1,4,2.6c0.8-1.7,2.6-2.7,4.5-2.6
			c2.2-0.1,4.1,1.6,4.2,3.8c0,0.1,0,0.2,0,0.3v9.6h-2.3v-9.1c0.1-1.2-0.7-2.4-2-2.5c-0.1,0-0.3,0-0.4,0c-2.3,0-3.8,2-3.8,4.9v6.8
			h-2.3v-9.1c0.1-1.2-0.7-2.4-2-2.5c-0.1,0-0.3,0-0.4,0C105.7,116.2,104.2,118.3,104.2,121.1z"/>
		<path d="M125,110.2c0-1,0.8-1.8,1.8-1.8c1,0,1.8,0.8,1.8,1.8c0,1-0.8,1.8-1.8,1.8C125.8,112,125,111.2,125,110.2z M127.9,114.6
			v13.3h-2.3v-13.3H127.9z"/>
		<path d="M134.8,121.1v6.8h-2.3v-13.2h2.3v2.2c0.7-1.7,2.5-2.7,4.3-2.6c2.2-0.2,4.1,1.5,4.3,3.7c0,0.1,0,0.3,0,0.4v9.6h-2.3v-9.1
			c0.2-1.2-0.7-2.3-1.9-2.5c-0.2,0-0.3,0-0.5,0C136.3,116.2,134.8,118.1,134.8,121.1z"/>
		<path d="M157.9,128.4c0.1,1.8-1.1,3.4-2.8,3.9c-0.9,0.3-1.9,0.5-2.9,0.4c-3.7,0-5.7-1.3-5.7-4c0-1.1,0.6-2.1,1.6-2.7
			c-0.5-0.3-0.8-0.8-1-1.4c0-0.2-0.1-0.4-0.1-0.6c0-0.3,0.1-0.6,0.2-0.9c0.2-0.5,0.7-1,1.2-1.3c-0.7-0.8-1-1.8-1-2.9
			c-0.1-2.6,1.9-4.7,4.5-4.8c0.1,0,0.2,0,0.4,0c1,0,2,0.2,2.8,0.7v-1.7h2.1v5.7c0.1,2.5-1.8,4.7-4.4,4.8c-0.2,0-0.4,0-0.5,0
			c-1.1,0.1-2.1-0.3-2.9-1c-0.3,0.2-0.4,0.6-0.4,0.9c0,0.6,0.5,1.2,1.5,1.2h3.4C156.3,124.8,157.9,126.2,157.9,128.4z M155.8,128.6
			c0-1.3-0.8-1.9-2.3-1.9h-4.3c-0.5,0.5-0.8,1.2-0.8,1.9c0,1.5,1.3,2.4,3.7,2.4C154.4,130.9,155.8,130.1,155.8,128.6z M149.7,119
			c0,1.9,0.9,2.8,2.6,2.8s2.7-0.9,2.7-2.8c0-2.1-1.1-2.9-2.6-2.9h-0.1C150.7,116.1,149.7,117,149.7,119L149.7,119z"/>
		<path d="M4.1,177.1l-1.5,4.7H0l6.2-19.5h4.6l6.2,19.5h-2.6l-1.5-4.7L4.1,177.1z M12.2,174.9l-3.7-11.7l-3.7,11.7H12.2z"/>
		<path d="M21,175.7v-13.4h2.4v13.1c0,2.8,1.9,4.3,5,4.3s5-1.6,5-4.3v-13.1h2.4v13.4c0,4-2.8,6.5-7.5,6.5S21,179.8,21,175.7z"/>
		<path d="M43.5,173.3v8.5H41v-19.4h7.1c3.7,0,6,2.3,6,5.8c0,2-0.9,3.6-2.3,4c1.4,0.4,2.4,1.8,2.3,3.3v6.4h-2.4v-6.3
			c0-0.8-0.5-1.5-1.3-1.8c-0.9-0.3-1.9-0.5-2.9-0.4L43.5,173.3z M47.6,164.6h-4.1v6.5h4.4c3,0,3.8-0.8,3.8-2.9
			C51.7,165.5,50.6,164.6,47.6,164.6z"/>
		<path d="M70.8,179.6v2.2H58.9v-19.4h11.9v2.2h-9.5v6.1h9.5v2.2h-9.5v6.7H70.8z"/>
		<path d="M87.1,179.6v2.2H75.4v-19.5h2.4v17.3L87.1,179.6z"/>
		<path d="M98.3,181.8h-8v-2.2h2.8v-15.1h-2.8v-2.2h8v2.2h-2.8v15.1h2.8L98.3,181.8z"/>
		<path d="M101.8,172.1c0-6.2,3.4-10.1,8.9-10.1s8.9,3.8,8.9,10.1c0,6.4-3.2,10.2-8.9,10.2S101.8,178.5,101.8,172.1z M104.4,172.2
			c0,4.6,2.5,7.5,6.3,7.6s6.3-3,6.3-7.6c0-4.9-2.4-7.8-6.3-7.8S104.4,167.4,104.4,172.2z"/>
		<path d="M133.5,177.1l-1.5,4.7h-2.5l6.2-19.5h4.6l6.1,19.5h-2.5l-1.5-4.7L133.5,177.1z M141.6,174.9l-3.7-11.7l-3.7,11.7H141.6z"
			/>
		<path d="M162.2,179.6v2.2h-11.7v-19.5h2.4v17.3L162.2,179.6z"/>
		<path d="M172.8,181.8h-4.6l-6-19.4h2.5l5.8,18.7l5.8-18.7h2.6L172.8,181.8z"/>
		<path d="M183.6,177.1l-1.5,4.7h-2.5l6.1-19.5h4.6l6.2,19.5h-2.5l-1.5-4.7H183.6z M191.7,174.9l-3.7-11.7l-3.7,11.7H191.7z"/>
		<path d="M203,173.3v8.5h-2.4v-19.4h7.1c3.7,0,6,2.3,6,5.8c0,2-0.9,3.6-2.3,4c1.4,0.4,2.4,1.8,2.3,3.3v6.4h-2.4v-6.3
			c0-0.8-0.5-1.5-1.3-1.8c-0.9-0.3-1.9-0.5-2.9-0.4L203,173.3z M207.1,164.6H203v6.5h4.4c3,0,3.8-0.8,3.8-2.9
			C211.2,165.5,210.1,164.6,207.1,164.6L207.1,164.6z"/>
		<path d="M230.3,179.6v2.2h-11.9v-19.4h11.9v2.2h-9.5v6.1h9.4v2.2h-9.4v6.7H230.3z"/>
		<path d="M248.7,179.6v2.2h-14.5v-1.5l11.1-15.7h-11v-2.2h14.4v1.5l-11,15.7H248.7z"/>
		<path d="M6.6,208.8H0.8v-19.5h5.4c2.5-0.2,5,0.8,6.7,2.7c1.5,2,2.2,4.5,2.1,7C15.1,205.3,12.1,208.8,6.6,208.8z M6.3,191.8h-3
			v14.6h3.2c3.7,0,6-2.7,6-7.2C12.4,194.5,10.3,191.8,6.3,191.8L6.3,191.8z"/>
		<path d="M17.6,202.2c0-4.1,2.6-7,6.2-7c1.8-0.1,3.5,0.8,4.4,2.3c0.8,1.4,1.2,3,1.1,4.6c0,0.3,0,0.5,0,0.8H20
			c-0.1,1.2,0.4,2.4,1.2,3.3c0.7,0.7,1.6,1,2.6,1h0.1c1.8,0.1,3.2-1.3,3.3-3.1c0,0,0,0,0,0h2.2c0,1-0.3,2-0.9,2.9
			c-0.6,1-1.5,1.7-2.6,2c-0.7,0.2-1.4,0.3-2.1,0.3C19.9,209.3,17.6,206.4,17.6,202.2z M20,200.9h7.2c0-2.5-1.4-3.7-3.4-3.7
			C21.7,197.2,20,198.8,20,200.9C20,200.9,20,200.9,20,200.9z"/>
		<path d="M32.8,203H35c0,2.9,1.3,4.4,3.8,4.4c1.5,0,2.8-0.9,2.8-2.2c0.1-0.7-0.3-1.3-0.8-1.6c-0.6-0.3-1.2-0.6-1.9-0.7
			c-0.4-0.1-0.7-0.2-1.1-0.3c-2.3-0.8-4-1.3-4.2-3.5c0-0.1,0-0.2,0-0.3c0-2.2,2-3.6,4.5-3.6c3.7,0,5.5,1.7,5.5,5.1h-2.2
			c0.1-1-0.2-1.9-0.9-2.6c-0.7-0.5-1.6-0.7-2.4-0.6c-1.4,0-2.4,0.6-2.4,1.6c0,0.3,0.1,0.7,0.3,0.9c0.2,0.3,0.5,0.5,0.8,0.6
			c0.5,0.2,0.5,0.2,1.2,0.4c0.3,0.1,0.5,0.2,0.7,0.2c2.6,0.9,4,1.1,4.7,2.7c0.2,0.4,0.3,0.8,0.3,1.3c0,2.8-1.8,4.4-5,4.4
			c-1.2,0-2.5-0.3-3.5-0.9c-0.8-0.5-1.4-1.3-1.7-2.1c-0.3-0.7-0.5-1.5-0.5-2.3c0-0.2,0-0.4,0-0.7L32.8,203z"/>
		<path d="M46.9,191.2c0-1,0.8-1.8,1.8-1.8c1,0,1.8,0.8,1.8,1.8c0,1-0.8,1.8-1.8,1.8C47.8,193,47,192.2,46.9,191.2z M49.9,195.6
			v13.3h-2.3v-13.3H49.9z"/>
		<path d="M64.3,209.4c0.1,1.8-1.1,3.4-2.8,3.9c-0.9,0.3-1.9,0.5-2.9,0.4c-3.7,0-5.7-1.3-5.7-4c0-1.1,0.6-2.1,1.6-2.7
			c-0.5-0.3-0.8-0.8-1-1.4c-0.1-0.2-0.1-0.4-0.1-0.7c0-0.3,0.1-0.6,0.2-0.9c0.2-0.5,0.7-1,1.2-1.3c-0.7-0.8-1-1.8-1-2.9
			c-0.1-2.6,1.9-4.7,4.5-4.8c0.1,0,0.2,0,0.4,0c1,0,2,0.2,2.8,0.7v-1.7h2.1v5.8c0.1,2.5-1.8,4.7-4.4,4.8c-0.2,0-0.4,0-0.5,0
			c-1.1,0.1-2.1-0.3-3-1c-0.3,0.2-0.4,0.6-0.4,0.9c0,0.6,0.5,1.1,1.5,1.1h3.4C62.7,205.9,64.3,207.2,64.3,209.4z M62.2,209.6
			c0-1.3-0.8-1.9-2.3-1.9h-4.3c-0.5,0.5-0.8,1.2-0.8,1.9c0,1.5,1.3,2.4,3.7,2.4C60.8,211.9,62.2,211.1,62.2,209.6z M56.1,200
			c0,1.9,0.9,2.8,2.6,2.8s2.7-0.9,2.7-2.8c0-2.1-1.1-2.9-2.6-2.9h-0.1C57.2,197.1,56.1,198,56.1,200z"/>
		<path d="M69.4,202.1v6.8h-2.3v-13.2h2.3v2.2c0.7-1.7,2.5-2.7,4.3-2.6c2.2-0.2,4.1,1.5,4.3,3.7c0,0.1,0,0.3,0,0.4v9.6h-2.3v-9.1
			c0.2-1.2-0.7-2.3-1.9-2.5c-0.2,0-0.3,0-0.5,0C70.9,197.2,69.4,199.1,69.4,202.1z"/>
		<path d="M88.1,205.5c0-2.4,1.6-3.8,3.9-4.4c3.2-0.8,4.5-1.1,4.5-2.2c0-0.9-0.2-1.3-0.9-1.6c-0.5-0.2-1.1-0.3-1.6-0.2
			c-2.1,0-3.2,0.9-3.2,3.3h-2.3v-0.2c0-3.1,2.1-5,5.4-5c1.4-0.1,2.7,0.3,3.8,1.1c0.7,0.7,1.1,1.7,1,2.7v9.8h-2.3v-2.3
			c-0.8,1.7-2.5,2.8-4.4,2.8c-2,0.2-3.8-1.3-4-3.3C88.1,205.8,88.1,205.7,88.1,205.5z M90.4,205.4c0,1.1,0.8,2,1.9,2
			c0.1,0,0.2,0,0.4,0c1.4,0,2.8-0.8,3.5-2.1c0.3-0.5,0.5-1,0.5-1.6v-2.3c-0.4,0.2-0.8,0.4-1,0.5c-0.1,0.1-0.3,0.1-0.5,0.2l-0.4,0.1
			l-0.5,0.1l-0.5,0.1c-0.8,0.2-1.6,0.5-2.3,0.9C90.8,203.9,90.4,204.7,90.4,205.4z"/>
		<path d="M104.8,202.1v6.8h-2.3v-13.2h2.3v2.2c0.7-1.7,2.5-2.7,4.3-2.6c2.2-0.2,4.1,1.5,4.3,3.7c0,0.1,0,0.3,0,0.4v9.6h-2.3v-9.1
			c0.2-1.2-0.7-2.3-1.9-2.5c-0.2,0-0.3,0-0.5,0C106.3,197.2,104.8,199.1,104.8,202.1z"/>
		<path d="M122.3,195.2c1.7-0.1,3.3,0.9,4,2.5v-8.3h2.3v19.4h-2.3v-2.2c-0.6,1.6-1.8,2.6-4.2,2.6c-3.2,0-5.3-2.8-5.3-6.9
			C116.9,198,119,195.2,122.3,195.2z M122.6,207.3c2.3,0,3.7-1.9,3.7-5.2c0-3.1-1.5-5-3.7-5s-3.4,2-3.4,5.4
			C119.2,205.6,120.5,207.3,122.6,207.3z"/>
		<path d="M143.4,204.1l-1.5,4.7h-2.5l6.2-19.5h4.6l6.1,19.5h-2.5l-1.5-4.7H143.4z M151.6,201.9l-3.7-11.7l-3.7,11.7H151.6z"/>
		<path d="M161.5,201.6v7.3h-2.1v-13.2h2.1v2.9c0.3-0.7,0.7-1.4,1.3-1.9c0.5-0.4,1-0.7,1.6-0.8c0.5-0.1,1-0.2,1.5-0.2h1.2v2.3h-1.1
			c-0.5,0-1,0-1.4,0.1c-0.5,0.1-1,0.3-1.4,0.5c-0.4,0.3-0.8,0.6-1.1,1.1C161.6,200.2,161.5,200.9,161.5,201.6z"/>
		<path d="M171,204.8v-7.4h-2v-1.8h2v-3.9h2.3v3.9h3.1v1.8h-3.1v7c0,0.4,0.1,0.8,0.2,1.2c0.1,0.3,0.2,0.5,0.5,0.7
			c0.2,0.2,0.4,0.3,0.7,0.3c0.3,0.1,0.6,0.1,0.8,0.1h1.5v2h-0.8c-0.8,0-1.6,0-2.4-0.1c-0.6-0.1-1.2-0.3-1.7-0.7
			c-0.5-0.5-0.8-1.1-0.9-1.8C171.1,205.7,171,205.2,171,204.8z"/>
		<path d="M186.4,208.8h-4l-3.6-13.3h2.2l3.4,12.5l3.1-12.5h3.9l3.1,12.5l3.4-12.5h2.2l-3.6,13.3h-4l-3.1-12.3L186.4,208.8z"/>
		<path d="M202.2,202.1c0-4.2,2.2-6.9,6-6.9h0.1c3.8,0,6,2.7,6,6.9c0,4.4-2.2,7.1-6.1,7.1S202.2,206.5,202.2,202.1z M204.5,202.3
			c0,3.3,1.4,4.9,3.7,4.9s3.7-1.6,3.7-4.9s-1.4-5-3.7-5S204.5,198.9,204.5,202.3L204.5,202.3z"/>
		<path d="M220.2,201.6v7.3h-2.1v-13.2h2.1v2.9c0.3-0.7,0.7-1.4,1.3-1.9c0.5-0.4,1-0.7,1.6-0.8c0.5-0.1,1-0.2,1.5-0.2h1.2v2.3h-1.1
			c-0.5,0-1,0-1.4,0.1c-0.5,0.1-1,0.3-1.4,0.5c-0.4,0.3-0.8,0.6-1.1,1.1C220.4,200.2,220.2,200.9,220.2,201.6z"/>
		<path d="M230.8,203.9v5h-2.2v-19.5h2.3v11.5l5.7-5.2h2.9l-5.7,5.4l6.6,7.9h-3l-5.3-6.2L230.8,203.9z"/>
	</g>
</g>
</svg>
